G04 FreePCB version 1.343*
G04 Z:\trinary\code\bb\CAM-dtflop-ms2\bottom_solder_mask.grb*
G04  layer *
G04 Scale: 100 percent, Rotated: No, Reflected: No *
%FSLAX24Y24*%
%MOIN*%
%LNTop*%
%ADD10C,0.005000*%
%ADD11R,0.071000X0.071000*%
%ADD12C,0.071000*%
%ADD13C,0.091000*%
%ADD14R,0.066000X0.066000*%
%ADD15C,0.066000*%
%ADD16C,0.044000*%
%ADD17C,0.016000*%
G90*
G70D02*

G04 Step and Repeat for panelization *

G04 ----------------------- Draw board outline (positive)*
%LPD*%
G54D10*
G01X-220000Y210000D02*
G01X-220000Y211000D01*
G04 end of side 1*
G01X-140000Y211000D01*
G04 end of side 2*
G01X-140000Y148000D01*
G04 end of side 3*
G01X-220000Y148000D01*
G04 end of side 4*
G01X-220000Y210000D01*

G04 -------------- Draw Parts, Pads, Traces, Vias and Text (positive)*
%LPD*%
G04 Draw part IC_0_CD4007_1*
G54D11*
G01X-218750Y208500D03*
G54D12*
G01X-218750Y207500D03*
G01X-218750Y206500D03*
G01X-218750Y205500D03*
G01X-218750Y204500D03*
G01X-218750Y203500D03*
G01X-218750Y202500D03*
G01X-215750Y202500D03*
G01X-215750Y203500D03*
G01X-215750Y204500D03*
G01X-215750Y205500D03*
G01X-215750Y206500D03*
G01X-215750Y207500D03*
G01X-215750Y208500D03*
G04 Draw part IC_6_CD4007_1*
G54D11*
G01X-192750Y188500D03*
G54D12*
G01X-192750Y187500D03*
G01X-192750Y186500D03*
G01X-192750Y185500D03*
G01X-192750Y184500D03*
G01X-192750Y183500D03*
G01X-192750Y182500D03*
G01X-189750Y182500D03*
G01X-189750Y183500D03*
G01X-189750Y184500D03*
G01X-189750Y185500D03*
G01X-189750Y186500D03*
G01X-189750Y187500D03*
G01X-189750Y188500D03*
G04 Draw part IC_5_CD4007_1*
G54D11*
G01X-184250Y188500D03*
G54D12*
G01X-184250Y187500D03*
G01X-184250Y186500D03*
G01X-184250Y185500D03*
G01X-184250Y184500D03*
G01X-184250Y183500D03*
G01X-184250Y182500D03*
G01X-181250Y182500D03*
G01X-181250Y183500D03*
G01X-181250Y184500D03*
G01X-181250Y185500D03*
G01X-181250Y186500D03*
G01X-181250Y187500D03*
G01X-181250Y188500D03*
G04 Draw part IC_1_CD4007_1*
G54D11*
G01X-210250Y208500D03*
G54D12*
G01X-210250Y207500D03*
G01X-210250Y206500D03*
G01X-210250Y205500D03*
G01X-210250Y204500D03*
G01X-210250Y203500D03*
G01X-210250Y202500D03*
G01X-207250Y202500D03*
G01X-207250Y203500D03*
G01X-207250Y204500D03*
G01X-207250Y205500D03*
G01X-207250Y206500D03*
G01X-207250Y207500D03*
G01X-207250Y208500D03*
G04 Draw part IC_2_CD4007_1*
G54D11*
G01X-202250Y208500D03*
G54D12*
G01X-202250Y207500D03*
G01X-202250Y206500D03*
G01X-202250Y205500D03*
G01X-202250Y204500D03*
G01X-202250Y203500D03*
G01X-202250Y202500D03*
G01X-199250Y202500D03*
G01X-199250Y203500D03*
G01X-199250Y204500D03*
G01X-199250Y205500D03*
G01X-199250Y206500D03*
G01X-199250Y207500D03*
G01X-199250Y208500D03*
G04 Draw part IC_3_CD4007_1*
G54D11*
G01X-193250Y208500D03*
G54D12*
G01X-193250Y207500D03*
G01X-193250Y206500D03*
G01X-193250Y205500D03*
G01X-193250Y204500D03*
G01X-193250Y203500D03*
G01X-193250Y202500D03*
G01X-190250Y202500D03*
G01X-190250Y203500D03*
G01X-190250Y204500D03*
G01X-190250Y205500D03*
G01X-190250Y206500D03*
G01X-190250Y207500D03*
G01X-190250Y208500D03*
G04 Draw part IC_4_CD4007_1*
G54D11*
G01X-184250Y208500D03*
G54D12*
G01X-184250Y207500D03*
G01X-184250Y206500D03*
G01X-184250Y205500D03*
G01X-184250Y204500D03*
G01X-184250Y203500D03*
G01X-184250Y202500D03*
G01X-181250Y202500D03*
G01X-181250Y203500D03*
G01X-181250Y204500D03*
G01X-181250Y205500D03*
G01X-181250Y206500D03*
G01X-181250Y207500D03*
G01X-181250Y208500D03*
G04 Draw part IC_8_CD4007_1*
G54D11*
G01X-210250Y188500D03*
G54D12*
G01X-210250Y187500D03*
G01X-210250Y186500D03*
G01X-210250Y185500D03*
G01X-210250Y184500D03*
G01X-210250Y183500D03*
G01X-210250Y182500D03*
G01X-207250Y182500D03*
G01X-207250Y183500D03*
G01X-207250Y184500D03*
G01X-207250Y185500D03*
G01X-207250Y186500D03*
G01X-207250Y187500D03*
G01X-207250Y188500D03*
G04 Draw part IC_7_CD4007_1*
G54D11*
G01X-201750Y188500D03*
G54D12*
G01X-201750Y187500D03*
G01X-201750Y186500D03*
G01X-201750Y185500D03*
G01X-201750Y184500D03*
G01X-201750Y183500D03*
G01X-201750Y182500D03*
G01X-198750Y182500D03*
G01X-198750Y183500D03*
G01X-198750Y184500D03*
G01X-198750Y185500D03*
G01X-198750Y186500D03*
G01X-198750Y187500D03*
G01X-198750Y188500D03*
G04 Draw part X_IC_9_CD4007_1*
G54D11*
G01X-218750Y188500D03*
G54D12*
G01X-218750Y187500D03*
G01X-218750Y186500D03*
G01X-218750Y185500D03*
G01X-218750Y184500D03*
G01X-218750Y183500D03*
G01X-218750Y182500D03*
G01X-215750Y182500D03*
G01X-215750Y183500D03*
G01X-215750Y184500D03*
G01X-215750Y185500D03*
G01X-215750Y186500D03*
G01X-215750Y187500D03*
G01X-215750Y188500D03*
G04 Draw part R1_1*
G54D13*
G01X-213750Y198500D03*
G01X-218750Y198500D03*
G04 Draw part R2_1*
G01X-199750Y192500D03*
G01X-204750Y192500D03*
G04 Draw part R3_1*
G01X-186250Y192500D03*
G01X-191250Y192500D03*
G04 Draw part R4_1*
G01X-211750Y195500D03*
G01X-216750Y195500D03*
G04 Draw part R5_1*
G01X-188250Y195500D03*
G01X-193250Y195500D03*
G04 Draw part R6_1*
G01X-187250Y188500D03*
G01X-187250Y183500D03*
G04 Draw part R7_1*
G01X-212750Y208500D03*
G01X-212750Y203500D03*
G04 Draw part R8_1*
G01X-211750Y198500D03*
G01X-206750Y198500D03*
G04 Draw part R9_1*
G01X-200250Y198500D03*
G01X-205250Y198500D03*
G04 Draw part R10_1*
G01X-204250Y203500D03*
G01X-204250Y208500D03*
G04 Draw part R11_1*
G01X-195750Y208500D03*
G01X-195750Y203500D03*
G04 Draw part R12_1*
G01X-192750Y198500D03*
G01X-197750Y198500D03*
G04 Draw part R13_1*
G01X-186250Y198500D03*
G01X-191250Y198500D03*
G04 Draw part R14_1*
G01X-186750Y208500D03*
G01X-186750Y203500D03*
G04 Draw part R15_1*
G01X-211750Y192500D03*
G01X-206750Y192500D03*
G04 Draw part R16_1*
G01X-204750Y188500D03*
G01X-204750Y183500D03*
G04 Draw part R17_1*
G01X-201750Y195500D03*
G01X-196750Y195500D03*
G04 Draw part R18_1*
G01X-196250Y188500D03*
G01X-196250Y183500D03*
G04 Draw part R19_1*
G01X-198250Y192500D03*
G01X-193250Y192500D03*
G04 Draw part R20_1*
G01X-204750Y195500D03*
G01X-209750Y195500D03*
G04 Draw part R21_1*
G01X-218750Y192500D03*
G01X-213750Y192500D03*
G04 Draw part R22_1*
G01X-212750Y188500D03*
G01X-212750Y183500D03*
G04 Draw part FF_1*
G54D14*
G01X-184500Y195000D03*
G54D15*
G01X-184500Y196000D03*
G01X-183500Y195000D03*
G01X-183500Y196000D03*
G01X-182500Y195000D03*
G01X-182500Y196000D03*
G01X-181500Y195000D03*
G01X-181500Y196000D03*
G04 Draw part IC_0_CD4007_2*
G54D11*
G01X-218750Y178500D03*
G54D12*
G01X-218750Y177500D03*
G01X-218750Y176500D03*
G01X-218750Y175500D03*
G01X-218750Y174500D03*
G01X-218750Y173500D03*
G01X-218750Y172500D03*
G01X-215750Y172500D03*
G01X-215750Y173500D03*
G01X-215750Y174500D03*
G01X-215750Y175500D03*
G01X-215750Y176500D03*
G01X-215750Y177500D03*
G01X-215750Y178500D03*
G04 Draw part IC_6_CD4007_2*
G54D11*
G01X-192750Y158500D03*
G54D12*
G01X-192750Y157500D03*
G01X-192750Y156500D03*
G01X-192750Y155500D03*
G01X-192750Y154500D03*
G01X-192750Y153500D03*
G01X-192750Y152500D03*
G01X-189750Y152500D03*
G01X-189750Y153500D03*
G01X-189750Y154500D03*
G01X-189750Y155500D03*
G01X-189750Y156500D03*
G01X-189750Y157500D03*
G01X-189750Y158500D03*
G04 Draw part IC_5_CD4007_2*
G54D11*
G01X-184250Y158500D03*
G54D12*
G01X-184250Y157500D03*
G01X-184250Y156500D03*
G01X-184250Y155500D03*
G01X-184250Y154500D03*
G01X-184250Y153500D03*
G01X-184250Y152500D03*
G01X-181250Y152500D03*
G01X-181250Y153500D03*
G01X-181250Y154500D03*
G01X-181250Y155500D03*
G01X-181250Y156500D03*
G01X-181250Y157500D03*
G01X-181250Y158500D03*
G04 Draw part IC_1_CD4007_2*
G54D11*
G01X-210250Y178500D03*
G54D12*
G01X-210250Y177500D03*
G01X-210250Y176500D03*
G01X-210250Y175500D03*
G01X-210250Y174500D03*
G01X-210250Y173500D03*
G01X-210250Y172500D03*
G01X-207250Y172500D03*
G01X-207250Y173500D03*
G01X-207250Y174500D03*
G01X-207250Y175500D03*
G01X-207250Y176500D03*
G01X-207250Y177500D03*
G01X-207250Y178500D03*
G04 Draw part IC_2_CD4007_2*
G54D11*
G01X-202250Y178500D03*
G54D12*
G01X-202250Y177500D03*
G01X-202250Y176500D03*
G01X-202250Y175500D03*
G01X-202250Y174500D03*
G01X-202250Y173500D03*
G01X-202250Y172500D03*
G01X-199250Y172500D03*
G01X-199250Y173500D03*
G01X-199250Y174500D03*
G01X-199250Y175500D03*
G01X-199250Y176500D03*
G01X-199250Y177500D03*
G01X-199250Y178500D03*
G04 Draw part IC_3_CD4007_2*
G54D11*
G01X-193250Y178500D03*
G54D12*
G01X-193250Y177500D03*
G01X-193250Y176500D03*
G01X-193250Y175500D03*
G01X-193250Y174500D03*
G01X-193250Y173500D03*
G01X-193250Y172500D03*
G01X-190250Y172500D03*
G01X-190250Y173500D03*
G01X-190250Y174500D03*
G01X-190250Y175500D03*
G01X-190250Y176500D03*
G01X-190250Y177500D03*
G01X-190250Y178500D03*
G04 Draw part IC_4_CD4007_2*
G54D11*
G01X-184250Y178500D03*
G54D12*
G01X-184250Y177500D03*
G01X-184250Y176500D03*
G01X-184250Y175500D03*
G01X-184250Y174500D03*
G01X-184250Y173500D03*
G01X-184250Y172500D03*
G01X-181250Y172500D03*
G01X-181250Y173500D03*
G01X-181250Y174500D03*
G01X-181250Y175500D03*
G01X-181250Y176500D03*
G01X-181250Y177500D03*
G01X-181250Y178500D03*
G04 Draw part IC_8_CD4007_2*
G54D11*
G01X-210250Y158500D03*
G54D12*
G01X-210250Y157500D03*
G01X-210250Y156500D03*
G01X-210250Y155500D03*
G01X-210250Y154500D03*
G01X-210250Y153500D03*
G01X-210250Y152500D03*
G01X-207250Y152500D03*
G01X-207250Y153500D03*
G01X-207250Y154500D03*
G01X-207250Y155500D03*
G01X-207250Y156500D03*
G01X-207250Y157500D03*
G01X-207250Y158500D03*
G04 Draw part IC_7_CD4007_2*
G54D11*
G01X-201750Y158500D03*
G54D12*
G01X-201750Y157500D03*
G01X-201750Y156500D03*
G01X-201750Y155500D03*
G01X-201750Y154500D03*
G01X-201750Y153500D03*
G01X-201750Y152500D03*
G01X-198750Y152500D03*
G01X-198750Y153500D03*
G01X-198750Y154500D03*
G01X-198750Y155500D03*
G01X-198750Y156500D03*
G01X-198750Y157500D03*
G01X-198750Y158500D03*
G04 Draw part X_IC_9_CD4007_2*
G54D11*
G01X-218750Y158500D03*
G54D12*
G01X-218750Y157500D03*
G01X-218750Y156500D03*
G01X-218750Y155500D03*
G01X-218750Y154500D03*
G01X-218750Y153500D03*
G01X-218750Y152500D03*
G01X-215750Y152500D03*
G01X-215750Y153500D03*
G01X-215750Y154500D03*
G01X-215750Y155500D03*
G01X-215750Y156500D03*
G01X-215750Y157500D03*
G01X-215750Y158500D03*
G04 Draw part R1_2*
G54D13*
G01X-213750Y168500D03*
G01X-218750Y168500D03*
G04 Draw part R2_2*
G01X-199750Y162500D03*
G01X-204750Y162500D03*
G04 Draw part R3_2*
G01X-186250Y162500D03*
G01X-191250Y162500D03*
G04 Draw part R4_2*
G01X-211750Y165500D03*
G01X-216750Y165500D03*
G04 Draw part R5_2*
G01X-188250Y165500D03*
G01X-193250Y165500D03*
G04 Draw part R6_2*
G01X-187250Y158500D03*
G01X-187250Y153500D03*
G04 Draw part R7_2*
G01X-212750Y178500D03*
G01X-212750Y173500D03*
G04 Draw part R8_2*
G01X-211750Y168500D03*
G01X-206750Y168500D03*
G04 Draw part R9_2*
G01X-200250Y168500D03*
G01X-205250Y168500D03*
G04 Draw part R10_2*
G01X-204250Y173500D03*
G01X-204250Y178500D03*
G04 Draw part R11_2*
G01X-195750Y178500D03*
G01X-195750Y173500D03*
G04 Draw part R12_2*
G01X-192750Y168500D03*
G01X-197750Y168500D03*
G04 Draw part R13_2*
G01X-186250Y168500D03*
G01X-191250Y168500D03*
G04 Draw part R14_2*
G01X-186750Y178500D03*
G01X-186750Y173500D03*
G04 Draw part R15_2*
G01X-211750Y162500D03*
G01X-206750Y162500D03*
G04 Draw part R16_2*
G01X-204750Y158500D03*
G01X-204750Y153500D03*
G04 Draw part R17_2*
G01X-201750Y165500D03*
G01X-196750Y165500D03*
G04 Draw part R18_2*
G01X-196250Y158500D03*
G01X-196250Y153500D03*
G04 Draw part R19_2*
G01X-198250Y162500D03*
G01X-193250Y162500D03*
G04 Draw part R20_2*
G01X-204750Y165500D03*
G01X-209750Y165500D03*
G04 Draw part R21_2*
G01X-218750Y162500D03*
G01X-213750Y162500D03*
G04 Draw part R22_2*
G01X-212750Y158500D03*
G01X-212750Y153500D03*
G04 Draw part FF_2*
G54D14*
G01X-184500Y165000D03*
G54D15*
G01X-184500Y166000D03*
G01X-183500Y165000D03*
G01X-183500Y166000D03*
G01X-182500Y165000D03*
G01X-182500Y166000D03*
G01X-181500Y165000D03*
G01X-181500Y166000D03*
G04 Draw part IC_0_CD4007_3*
G54D11*
G01X-178750Y208500D03*
G54D12*
G01X-178750Y207500D03*
G01X-178750Y206500D03*
G01X-178750Y205500D03*
G01X-178750Y204500D03*
G01X-178750Y203500D03*
G01X-178750Y202500D03*
G01X-175750Y202500D03*
G01X-175750Y203500D03*
G01X-175750Y204500D03*
G01X-175750Y205500D03*
G01X-175750Y206500D03*
G01X-175750Y207500D03*
G01X-175750Y208500D03*
G04 Draw part IC_6_CD4007_3*
G54D11*
G01X-152750Y188500D03*
G54D12*
G01X-152750Y187500D03*
G01X-152750Y186500D03*
G01X-152750Y185500D03*
G01X-152750Y184500D03*
G01X-152750Y183500D03*
G01X-152750Y182500D03*
G01X-149750Y182500D03*
G01X-149750Y183500D03*
G01X-149750Y184500D03*
G01X-149750Y185500D03*
G01X-149750Y186500D03*
G01X-149750Y187500D03*
G01X-149750Y188500D03*
G04 Draw part IC_5_CD4007_3*
G54D11*
G01X-144250Y188500D03*
G54D12*
G01X-144250Y187500D03*
G01X-144250Y186500D03*
G01X-144250Y185500D03*
G01X-144250Y184500D03*
G01X-144250Y183500D03*
G01X-144250Y182500D03*
G01X-141250Y182500D03*
G01X-141250Y183500D03*
G01X-141250Y184500D03*
G01X-141250Y185500D03*
G01X-141250Y186500D03*
G01X-141250Y187500D03*
G01X-141250Y188500D03*
G04 Draw part IC_1_CD4007_3*
G54D11*
G01X-170250Y208500D03*
G54D12*
G01X-170250Y207500D03*
G01X-170250Y206500D03*
G01X-170250Y205500D03*
G01X-170250Y204500D03*
G01X-170250Y203500D03*
G01X-170250Y202500D03*
G01X-167250Y202500D03*
G01X-167250Y203500D03*
G01X-167250Y204500D03*
G01X-167250Y205500D03*
G01X-167250Y206500D03*
G01X-167250Y207500D03*
G01X-167250Y208500D03*
G04 Draw part IC_2_CD4007_3*
G54D11*
G01X-162250Y208500D03*
G54D12*
G01X-162250Y207500D03*
G01X-162250Y206500D03*
G01X-162250Y205500D03*
G01X-162250Y204500D03*
G01X-162250Y203500D03*
G01X-162250Y202500D03*
G01X-159250Y202500D03*
G01X-159250Y203500D03*
G01X-159250Y204500D03*
G01X-159250Y205500D03*
G01X-159250Y206500D03*
G01X-159250Y207500D03*
G01X-159250Y208500D03*
G04 Draw part IC_3_CD4007_3*
G54D11*
G01X-153250Y208500D03*
G54D12*
G01X-153250Y207500D03*
G01X-153250Y206500D03*
G01X-153250Y205500D03*
G01X-153250Y204500D03*
G01X-153250Y203500D03*
G01X-153250Y202500D03*
G01X-150250Y202500D03*
G01X-150250Y203500D03*
G01X-150250Y204500D03*
G01X-150250Y205500D03*
G01X-150250Y206500D03*
G01X-150250Y207500D03*
G01X-150250Y208500D03*
G04 Draw part IC_4_CD4007_3*
G54D11*
G01X-144250Y208500D03*
G54D12*
G01X-144250Y207500D03*
G01X-144250Y206500D03*
G01X-144250Y205500D03*
G01X-144250Y204500D03*
G01X-144250Y203500D03*
G01X-144250Y202500D03*
G01X-141250Y202500D03*
G01X-141250Y203500D03*
G01X-141250Y204500D03*
G01X-141250Y205500D03*
G01X-141250Y206500D03*
G01X-141250Y207500D03*
G01X-141250Y208500D03*
G04 Draw part IC_8_CD4007_3*
G54D11*
G01X-170250Y188500D03*
G54D12*
G01X-170250Y187500D03*
G01X-170250Y186500D03*
G01X-170250Y185500D03*
G01X-170250Y184500D03*
G01X-170250Y183500D03*
G01X-170250Y182500D03*
G01X-167250Y182500D03*
G01X-167250Y183500D03*
G01X-167250Y184500D03*
G01X-167250Y185500D03*
G01X-167250Y186500D03*
G01X-167250Y187500D03*
G01X-167250Y188500D03*
G04 Draw part IC_7_CD4007_3*
G54D11*
G01X-161750Y188500D03*
G54D12*
G01X-161750Y187500D03*
G01X-161750Y186500D03*
G01X-161750Y185500D03*
G01X-161750Y184500D03*
G01X-161750Y183500D03*
G01X-161750Y182500D03*
G01X-158750Y182500D03*
G01X-158750Y183500D03*
G01X-158750Y184500D03*
G01X-158750Y185500D03*
G01X-158750Y186500D03*
G01X-158750Y187500D03*
G01X-158750Y188500D03*
G04 Draw part X_IC_9_CD4007_3*
G54D11*
G01X-178750Y188500D03*
G54D12*
G01X-178750Y187500D03*
G01X-178750Y186500D03*
G01X-178750Y185500D03*
G01X-178750Y184500D03*
G01X-178750Y183500D03*
G01X-178750Y182500D03*
G01X-175750Y182500D03*
G01X-175750Y183500D03*
G01X-175750Y184500D03*
G01X-175750Y185500D03*
G01X-175750Y186500D03*
G01X-175750Y187500D03*
G01X-175750Y188500D03*
G04 Draw part R1_3*
G54D13*
G01X-173750Y198500D03*
G01X-178750Y198500D03*
G04 Draw part R2_3*
G01X-159750Y192500D03*
G01X-164750Y192500D03*
G04 Draw part R3_3*
G01X-146250Y192500D03*
G01X-151250Y192500D03*
G04 Draw part R4_3*
G01X-171750Y195500D03*
G01X-176750Y195500D03*
G04 Draw part R5_3*
G01X-148250Y195500D03*
G01X-153250Y195500D03*
G04 Draw part R6_3*
G01X-147250Y188500D03*
G01X-147250Y183500D03*
G04 Draw part R7_3*
G01X-172750Y208500D03*
G01X-172750Y203500D03*
G04 Draw part R8_3*
G01X-171750Y198500D03*
G01X-166750Y198500D03*
G04 Draw part R9_3*
G01X-160250Y198500D03*
G01X-165250Y198500D03*
G04 Draw part R10_3*
G01X-164250Y203500D03*
G01X-164250Y208500D03*
G04 Draw part R11_3*
G01X-155750Y208500D03*
G01X-155750Y203500D03*
G04 Draw part R12_3*
G01X-152750Y198500D03*
G01X-157750Y198500D03*
G04 Draw part R13_3*
G01X-146250Y198500D03*
G01X-151250Y198500D03*
G04 Draw part R14_3*
G01X-146750Y208500D03*
G01X-146750Y203500D03*
G04 Draw part R15_3*
G01X-171750Y192500D03*
G01X-166750Y192500D03*
G04 Draw part R16_3*
G01X-164750Y188500D03*
G01X-164750Y183500D03*
G04 Draw part R17_3*
G01X-161750Y195500D03*
G01X-156750Y195500D03*
G04 Draw part R18_3*
G01X-156250Y188500D03*
G01X-156250Y183500D03*
G04 Draw part R19_3*
G01X-158250Y192500D03*
G01X-153250Y192500D03*
G04 Draw part R20_3*
G01X-164750Y195500D03*
G01X-169750Y195500D03*
G04 Draw part R21_3*
G01X-178750Y192500D03*
G01X-173750Y192500D03*
G04 Draw part R22_3*
G01X-172750Y188500D03*
G01X-172750Y183500D03*
G04 Draw part FF_3*
G54D14*
G01X-144500Y195000D03*
G54D15*
G01X-144500Y196000D03*
G01X-143500Y195000D03*
G01X-143500Y196000D03*
G01X-142500Y195000D03*
G01X-142500Y196000D03*
G01X-141500Y195000D03*
G01X-141500Y196000D03*
G04 Draw part IC_0_CD4007_4*
G54D11*
G01X-178750Y178500D03*
G54D12*
G01X-178750Y177500D03*
G01X-178750Y176500D03*
G01X-178750Y175500D03*
G01X-178750Y174500D03*
G01X-178750Y173500D03*
G01X-178750Y172500D03*
G01X-175750Y172500D03*
G01X-175750Y173500D03*
G01X-175750Y174500D03*
G01X-175750Y175500D03*
G01X-175750Y176500D03*
G01X-175750Y177500D03*
G01X-175750Y178500D03*
G04 Draw part IC_6_CD4007_4*
G54D11*
G01X-152750Y158500D03*
G54D12*
G01X-152750Y157500D03*
G01X-152750Y156500D03*
G01X-152750Y155500D03*
G01X-152750Y154500D03*
G01X-152750Y153500D03*
G01X-152750Y152500D03*
G01X-149750Y152500D03*
G01X-149750Y153500D03*
G01X-149750Y154500D03*
G01X-149750Y155500D03*
G01X-149750Y156500D03*
G01X-149750Y157500D03*
G01X-149750Y158500D03*
G04 Draw part IC_5_CD4007_4*
G54D11*
G01X-144250Y158500D03*
G54D12*
G01X-144250Y157500D03*
G01X-144250Y156500D03*
G01X-144250Y155500D03*
G01X-144250Y154500D03*
G01X-144250Y153500D03*
G01X-144250Y152500D03*
G01X-141250Y152500D03*
G01X-141250Y153500D03*
G01X-141250Y154500D03*
G01X-141250Y155500D03*
G01X-141250Y156500D03*
G01X-141250Y157500D03*
G01X-141250Y158500D03*
G04 Draw part IC_1_CD4007_4*
G54D11*
G01X-170250Y178500D03*
G54D12*
G01X-170250Y177500D03*
G01X-170250Y176500D03*
G01X-170250Y175500D03*
G01X-170250Y174500D03*
G01X-170250Y173500D03*
G01X-170250Y172500D03*
G01X-167250Y172500D03*
G01X-167250Y173500D03*
G01X-167250Y174500D03*
G01X-167250Y175500D03*
G01X-167250Y176500D03*
G01X-167250Y177500D03*
G01X-167250Y178500D03*
G04 Draw part IC_2_CD4007_4*
G54D11*
G01X-162250Y178500D03*
G54D12*
G01X-162250Y177500D03*
G01X-162250Y176500D03*
G01X-162250Y175500D03*
G01X-162250Y174500D03*
G01X-162250Y173500D03*
G01X-162250Y172500D03*
G01X-159250Y172500D03*
G01X-159250Y173500D03*
G01X-159250Y174500D03*
G01X-159250Y175500D03*
G01X-159250Y176500D03*
G01X-159250Y177500D03*
G01X-159250Y178500D03*
G04 Draw part IC_3_CD4007_4*
G54D11*
G01X-153250Y178500D03*
G54D12*
G01X-153250Y177500D03*
G01X-153250Y176500D03*
G01X-153250Y175500D03*
G01X-153250Y174500D03*
G01X-153250Y173500D03*
G01X-153250Y172500D03*
G01X-150250Y172500D03*
G01X-150250Y173500D03*
G01X-150250Y174500D03*
G01X-150250Y175500D03*
G01X-150250Y176500D03*
G01X-150250Y177500D03*
G01X-150250Y178500D03*
G04 Draw part IC_4_CD4007_4*
G54D11*
G01X-144250Y178500D03*
G54D12*
G01X-144250Y177500D03*
G01X-144250Y176500D03*
G01X-144250Y175500D03*
G01X-144250Y174500D03*
G01X-144250Y173500D03*
G01X-144250Y172500D03*
G01X-141250Y172500D03*
G01X-141250Y173500D03*
G01X-141250Y174500D03*
G01X-141250Y175500D03*
G01X-141250Y176500D03*
G01X-141250Y177500D03*
G01X-141250Y178500D03*
G04 Draw part IC_8_CD4007_4*
G54D11*
G01X-170250Y158500D03*
G54D12*
G01X-170250Y157500D03*
G01X-170250Y156500D03*
G01X-170250Y155500D03*
G01X-170250Y154500D03*
G01X-170250Y153500D03*
G01X-170250Y152500D03*
G01X-167250Y152500D03*
G01X-167250Y153500D03*
G01X-167250Y154500D03*
G01X-167250Y155500D03*
G01X-167250Y156500D03*
G01X-167250Y157500D03*
G01X-167250Y158500D03*
G04 Draw part IC_7_CD4007_4*
G54D11*
G01X-161750Y158500D03*
G54D12*
G01X-161750Y157500D03*
G01X-161750Y156500D03*
G01X-161750Y155500D03*
G01X-161750Y154500D03*
G01X-161750Y153500D03*
G01X-161750Y152500D03*
G01X-158750Y152500D03*
G01X-158750Y153500D03*
G01X-158750Y154500D03*
G01X-158750Y155500D03*
G01X-158750Y156500D03*
G01X-158750Y157500D03*
G01X-158750Y158500D03*
G04 Draw part X_IC_9_CD4007_4*
G54D11*
G01X-178750Y158500D03*
G54D12*
G01X-178750Y157500D03*
G01X-178750Y156500D03*
G01X-178750Y155500D03*
G01X-178750Y154500D03*
G01X-178750Y153500D03*
G01X-178750Y152500D03*
G01X-175750Y152500D03*
G01X-175750Y153500D03*
G01X-175750Y154500D03*
G01X-175750Y155500D03*
G01X-175750Y156500D03*
G01X-175750Y157500D03*
G01X-175750Y158500D03*
G04 Draw part R1_4*
G54D13*
G01X-173750Y168500D03*
G01X-178750Y168500D03*
G04 Draw part R2_4*
G01X-159750Y162500D03*
G01X-164750Y162500D03*
G04 Draw part R3_4*
G01X-146250Y162500D03*
G01X-151250Y162500D03*
G04 Draw part R4_4*
G01X-171750Y165500D03*
G01X-176750Y165500D03*
G04 Draw part R5_4*
G01X-148250Y165500D03*
G01X-153250Y165500D03*
G04 Draw part R6_4*
G01X-147250Y158500D03*
G01X-147250Y153500D03*
G04 Draw part R7_4*
G01X-172750Y178500D03*
G01X-172750Y173500D03*
G04 Draw part R8_4*
G01X-171750Y168500D03*
G01X-166750Y168500D03*
G04 Draw part R9_4*
G01X-160250Y168500D03*
G01X-165250Y168500D03*
G04 Draw part R10_4*
G01X-164250Y173500D03*
G01X-164250Y178500D03*
G04 Draw part R11_4*
G01X-155750Y178500D03*
G01X-155750Y173500D03*
G04 Draw part R12_4*
G01X-152750Y168500D03*
G01X-157750Y168500D03*
G04 Draw part R13_4*
G01X-146250Y168500D03*
G01X-151250Y168500D03*
G04 Draw part R14_4*
G01X-146750Y178500D03*
G01X-146750Y173500D03*
G04 Draw part R15_4*
G01X-171750Y162500D03*
G01X-166750Y162500D03*
G04 Draw part R16_4*
G01X-164750Y158500D03*
G01X-164750Y153500D03*
G04 Draw part R17_4*
G01X-161750Y165500D03*
G01X-156750Y165500D03*
G04 Draw part R18_4*
G01X-156250Y158500D03*
G01X-156250Y153500D03*
G04 Draw part R19_4*
G01X-158250Y162500D03*
G01X-153250Y162500D03*
G04 Draw part R20_4*
G01X-164750Y165500D03*
G01X-169750Y165500D03*
G04 Draw part R21_4*
G01X-178750Y162500D03*
G01X-173750Y162500D03*
G04 Draw part R22_4*
G01X-172750Y158500D03*
G01X-172750Y153500D03*
G04 Draw part FF_4*
G54D14*
G01X-144500Y165000D03*
G54D15*
G01X-144500Y166000D03*
G01X-143500Y165000D03*
G01X-143500Y166000D03*
G01X-142500Y165000D03*
G01X-142500Y166000D03*
G01X-141500Y165000D03*
G01X-141500Y166000D03*
G04 Draw part TRITS*
G54D14*
G01X-179250Y149250D03*
G54D15*
G01X-179250Y150250D03*
G01X-178250Y149250D03*
G01X-178250Y150250D03*
G01X-177250Y149250D03*
G01X-177250Y150250D03*
G01X-176250Y149250D03*
G01X-176250Y150250D03*
G01X-175250Y149250D03*
G01X-175250Y150250D03*
G01X-174250Y149250D03*
G01X-174250Y150250D03*
G01X-173250Y149250D03*
G01X-173250Y150250D03*
G01X-172250Y149250D03*
G01X-172250Y150250D03*
G01X-171250Y149250D03*
G01X-171250Y150250D03*
G01X-170250Y149250D03*
G01X-170250Y150250D03*
G01X-169250Y149250D03*
G01X-169250Y150250D03*
G01X-168250Y149250D03*
G01X-168250Y150250D03*
G01X-167250Y149250D03*
G01X-167250Y150250D03*
G01X-166250Y149250D03*
G01X-166250Y150250D03*
G01X-165250Y149250D03*
G01X-165250Y150250D03*
G01X-164250Y149250D03*
G01X-164250Y150250D03*
G01X-163250Y149250D03*
G01X-163250Y150250D03*
G01X-162250Y149250D03*
G01X-162250Y150250D03*
G04 Draw part POWER*
G54D14*
G01X-190250Y149250D03*
G54D15*
G01X-190250Y150250D03*
G01X-189250Y149250D03*
G01X-189250Y150250D03*
G01X-188250Y149250D03*
G01X-188250Y150250D03*
G01X-187250Y149250D03*
G01X-187250Y150250D03*
G01X-186250Y149250D03*
G01X-186250Y150250D03*
G01X-185250Y149250D03*
G01X-185250Y150250D03*

G04 Draw traces*
G54D16*
G01X-163890Y189859D03*
G01X-199861Y200623D03*
G01X-163890Y159859D03*
G01X-150724Y200007D03*
G01X-148042Y200007D03*
G01X-150724Y170007D03*
G01X-148042Y170007D03*
G01X-203890Y159859D03*
G01X-199861Y170623D03*
G01X-161070Y191540D03*
G01X-161070Y161540D03*
G01X-201070Y191540D03*
G01X-159861Y200623D03*
G01X-159861Y170623D03*
G01X-203890Y189859D03*
G01X-190724Y200007D03*
G01X-188042Y200007D03*
G01X-190724Y170007D03*
G01X-188042Y170007D03*
G01X-201070Y161540D03*

G04 Draw Text*
G54D17*

G04 Draw solder mask cutouts*
M00*
M02*
