;Holesize 1 =   28.0 PLATED MILS
;Holesize 2 =   35.0 PLATED MILS
;Holesize 3 =   14.0 PLATED MILS
M48
INCH
T01C0.028
T02C0.035
T03C0.014
%
G05
G90
T01
X-218750Y208500
X-218750Y207500
X-218750Y206500
X-218750Y205500
X-218750Y204500
X-218750Y203500
X-218750Y202500
X-215750Y202500
X-215750Y203500
X-215750Y204500
X-215750Y205500
X-215750Y206500
X-215750Y207500
X-215750Y208500
X-192750Y188500
X-192750Y187500
X-192750Y186500
X-192750Y185500
X-192750Y184500
X-192750Y183500
X-192750Y182500
X-189750Y182500
X-189750Y183500
X-189750Y184500
X-189750Y185500
X-189750Y186500
X-189750Y187500
X-189750Y188500
X-184250Y188500
X-184250Y187500
X-184250Y186500
X-184250Y185500
X-184250Y184500
X-184250Y183500
X-184250Y182500
X-181250Y182500
X-181250Y183500
X-181250Y184500
X-181250Y185500
X-181250Y186500
X-181250Y187500
X-181250Y188500
X-210250Y208500
X-210250Y207500
X-210250Y206500
X-210250Y205500
X-210250Y204500
X-210250Y203500
X-210250Y202500
X-207250Y202500
X-207250Y203500
X-207250Y204500
X-207250Y205500
X-207250Y206500
X-207250Y207500
X-207250Y208500
X-202250Y208500
X-202250Y207500
X-202250Y206500
X-202250Y205500
X-202250Y204500
X-202250Y203500
X-202250Y202500
X-199250Y202500
X-199250Y203500
X-199250Y204500
X-199250Y205500
X-199250Y206500
X-199250Y207500
X-199250Y208500
X-193250Y208500
X-193250Y207500
X-193250Y206500
X-193250Y205500
X-193250Y204500
X-193250Y203500
X-193250Y202500
X-190250Y202500
X-190250Y203500
X-190250Y204500
X-190250Y205500
X-190250Y206500
X-190250Y207500
X-190250Y208500
X-184250Y208500
X-184250Y207500
X-184250Y206500
X-184250Y205500
X-184250Y204500
X-184250Y203500
X-184250Y202500
X-181250Y202500
X-181250Y203500
X-181250Y204500
X-181250Y205500
X-181250Y206500
X-181250Y207500
X-181250Y208500
X-210250Y188500
X-210250Y187500
X-210250Y186500
X-210250Y185500
X-210250Y184500
X-210250Y183500
X-210250Y182500
X-207250Y182500
X-207250Y183500
X-207250Y184500
X-207250Y185500
X-207250Y186500
X-207250Y187500
X-207250Y188500
X-201750Y188500
X-201750Y187500
X-201750Y186500
X-201750Y185500
X-201750Y184500
X-201750Y183500
X-201750Y182500
X-198750Y182500
X-198750Y183500
X-198750Y184500
X-198750Y185500
X-198750Y186500
X-198750Y187500
X-198750Y188500
X-218750Y188500
X-218750Y187500
X-218750Y186500
X-218750Y185500
X-218750Y184500
X-218750Y183500
X-218750Y182500
X-215750Y182500
X-215750Y183500
X-215750Y184500
X-215750Y185500
X-215750Y186500
X-215750Y187500
X-215750Y188500
X-184500Y195000
X-184500Y196000
X-183500Y195000
X-183500Y196000
X-182500Y195000
X-182500Y196000
X-181500Y195000
X-181500Y196000
X-218750Y178500
X-218750Y177500
X-218750Y176500
X-218750Y175500
X-218750Y174500
X-218750Y173500
X-218750Y172500
X-215750Y172500
X-215750Y173500
X-215750Y174500
X-215750Y175500
X-215750Y176500
X-215750Y177500
X-215750Y178500
X-192750Y158500
X-192750Y157500
X-192750Y156500
X-192750Y155500
X-192750Y154500
X-192750Y153500
X-192750Y152500
X-189750Y152500
X-189750Y153500
X-189750Y154500
X-189750Y155500
X-189750Y156500
X-189750Y157500
X-189750Y158500
X-184250Y158500
X-184250Y157500
X-184250Y156500
X-184250Y155500
X-184250Y154500
X-184250Y153500
X-184250Y152500
X-181250Y152500
X-181250Y153500
X-181250Y154500
X-181250Y155500
X-181250Y156500
X-181250Y157500
X-181250Y158500
X-210250Y178500
X-210250Y177500
X-210250Y176500
X-210250Y175500
X-210250Y174500
X-210250Y173500
X-210250Y172500
X-207250Y172500
X-207250Y173500
X-207250Y174500
X-207250Y175500
X-207250Y176500
X-207250Y177500
X-207250Y178500
X-202250Y178500
X-202250Y177500
X-202250Y176500
X-202250Y175500
X-202250Y174500
X-202250Y173500
X-202250Y172500
X-199250Y172500
X-199250Y173500
X-199250Y174500
X-199250Y175500
X-199250Y176500
X-199250Y177500
X-199250Y178500
X-193250Y178500
X-193250Y177500
X-193250Y176500
X-193250Y175500
X-193250Y174500
X-193250Y173500
X-193250Y172500
X-190250Y172500
X-190250Y173500
X-190250Y174500
X-190250Y175500
X-190250Y176500
X-190250Y177500
X-190250Y178500
X-184250Y178500
X-184250Y177500
X-184250Y176500
X-184250Y175500
X-184250Y174500
X-184250Y173500
X-184250Y172500
X-181250Y172500
X-181250Y173500
X-181250Y174500
X-181250Y175500
X-181250Y176500
X-181250Y177500
X-181250Y178500
X-210250Y158500
X-210250Y157500
X-210250Y156500
X-210250Y155500
X-210250Y154500
X-210250Y153500
X-210250Y152500
X-207250Y152500
X-207250Y153500
X-207250Y154500
X-207250Y155500
X-207250Y156500
X-207250Y157500
X-207250Y158500
X-201750Y158500
X-201750Y157500
X-201750Y156500
X-201750Y155500
X-201750Y154500
X-201750Y153500
X-201750Y152500
X-198750Y152500
X-198750Y153500
X-198750Y154500
X-198750Y155500
X-198750Y156500
X-198750Y157500
X-198750Y158500
X-218750Y158500
X-218750Y157500
X-218750Y156500
X-218750Y155500
X-218750Y154500
X-218750Y153500
X-218750Y152500
X-215750Y152500
X-215750Y153500
X-215750Y154500
X-215750Y155500
X-215750Y156500
X-215750Y157500
X-215750Y158500
X-184500Y165000
X-184500Y166000
X-183500Y165000
X-183500Y166000
X-182500Y165000
X-182500Y166000
X-181500Y165000
X-181500Y166000
X-178750Y208500
X-178750Y207500
X-178750Y206500
X-178750Y205500
X-178750Y204500
X-178750Y203500
X-178750Y202500
X-175750Y202500
X-175750Y203500
X-175750Y204500
X-175750Y205500
X-175750Y206500
X-175750Y207500
X-175750Y208500
X-152750Y188500
X-152750Y187500
X-152750Y186500
X-152750Y185500
X-152750Y184500
X-152750Y183500
X-152750Y182500
X-149750Y182500
X-149750Y183500
X-149750Y184500
X-149750Y185500
X-149750Y186500
X-149750Y187500
X-149750Y188500
X-144250Y188500
X-144250Y187500
X-144250Y186500
X-144250Y185500
X-144250Y184500
X-144250Y183500
X-144250Y182500
X-141250Y182500
X-141250Y183500
X-141250Y184500
X-141250Y185500
X-141250Y186500
X-141250Y187500
X-141250Y188500
X-170250Y208500
X-170250Y207500
X-170250Y206500
X-170250Y205500
X-170250Y204500
X-170250Y203500
X-170250Y202500
X-167250Y202500
X-167250Y203500
X-167250Y204500
X-167250Y205500
X-167250Y206500
X-167250Y207500
X-167250Y208500
X-162250Y208500
X-162250Y207500
X-162250Y206500
X-162250Y205500
X-162250Y204500
X-162250Y203500
X-162250Y202500
X-159250Y202500
X-159250Y203500
X-159250Y204500
X-159250Y205500
X-159250Y206500
X-159250Y207500
X-159250Y208500
X-153250Y208500
X-153250Y207500
X-153250Y206500
X-153250Y205500
X-153250Y204500
X-153250Y203500
X-153250Y202500
X-150250Y202500
X-150250Y203500
X-150250Y204500
X-150250Y205500
X-150250Y206500
X-150250Y207500
X-150250Y208500
X-144250Y208500
X-144250Y207500
X-144250Y206500
X-144250Y205500
X-144250Y204500
X-144250Y203500
X-144250Y202500
X-141250Y202500
X-141250Y203500
X-141250Y204500
X-141250Y205500
X-141250Y206500
X-141250Y207500
X-141250Y208500
X-170250Y188500
X-170250Y187500
X-170250Y186500
X-170250Y185500
X-170250Y184500
X-170250Y183500
X-170250Y182500
X-167250Y182500
X-167250Y183500
X-167250Y184500
X-167250Y185500
X-167250Y186500
X-167250Y187500
X-167250Y188500
X-161750Y188500
X-161750Y187500
X-161750Y186500
X-161750Y185500
X-161750Y184500
X-161750Y183500
X-161750Y182500
X-158750Y182500
X-158750Y183500
X-158750Y184500
X-158750Y185500
X-158750Y186500
X-158750Y187500
X-158750Y188500
X-178750Y188500
X-178750Y187500
X-178750Y186500
X-178750Y185500
X-178750Y184500
X-178750Y183500
X-178750Y182500
X-175750Y182500
X-175750Y183500
X-175750Y184500
X-175750Y185500
X-175750Y186500
X-175750Y187500
X-175750Y188500
X-144500Y195000
X-144500Y196000
X-143500Y195000
X-143500Y196000
X-142500Y195000
X-142500Y196000
X-141500Y195000
X-141500Y196000
X-178750Y178500
X-178750Y177500
X-178750Y176500
X-178750Y175500
X-178750Y174500
X-178750Y173500
X-178750Y172500
X-175750Y172500
X-175750Y173500
X-175750Y174500
X-175750Y175500
X-175750Y176500
X-175750Y177500
X-175750Y178500
X-152750Y158500
X-152750Y157500
X-152750Y156500
X-152750Y155500
X-152750Y154500
X-152750Y153500
X-152750Y152500
X-149750Y152500
X-149750Y153500
X-149750Y154500
X-149750Y155500
X-149750Y156500
X-149750Y157500
X-149750Y158500
X-144250Y158500
X-144250Y157500
X-144250Y156500
X-144250Y155500
X-144250Y154500
X-144250Y153500
X-144250Y152500
X-141250Y152500
X-141250Y153500
X-141250Y154500
X-141250Y155500
X-141250Y156500
X-141250Y157500
X-141250Y158500
X-170250Y178500
X-170250Y177500
X-170250Y176500
X-170250Y175500
X-170250Y174500
X-170250Y173500
X-170250Y172500
X-167250Y172500
X-167250Y173500
X-167250Y174500
X-167250Y175500
X-167250Y176500
X-167250Y177500
X-167250Y178500
X-162250Y178500
X-162250Y177500
X-162250Y176500
X-162250Y175500
X-162250Y174500
X-162250Y173500
X-162250Y172500
X-159250Y172500
X-159250Y173500
X-159250Y174500
X-159250Y175500
X-159250Y176500
X-159250Y177500
X-159250Y178500
X-153250Y178500
X-153250Y177500
X-153250Y176500
X-153250Y175500
X-153250Y174500
X-153250Y173500
X-153250Y172500
X-150250Y172500
X-150250Y173500
X-150250Y174500
X-150250Y175500
X-150250Y176500
X-150250Y177500
X-150250Y178500
X-144250Y178500
X-144250Y177500
X-144250Y176500
X-144250Y175500
X-144250Y174500
X-144250Y173500
X-144250Y172500
X-141250Y172500
X-141250Y173500
X-141250Y174500
X-141250Y175500
X-141250Y176500
X-141250Y177500
X-141250Y178500
X-170250Y158500
X-170250Y157500
X-170250Y156500
X-170250Y155500
X-170250Y154500
X-170250Y153500
X-170250Y152500
X-167250Y152500
X-167250Y153500
X-167250Y154500
X-167250Y155500
X-167250Y156500
X-167250Y157500
X-167250Y158500
X-161750Y158500
X-161750Y157500
X-161750Y156500
X-161750Y155500
X-161750Y154500
X-161750Y153500
X-161750Y152500
X-158750Y152500
X-158750Y153500
X-158750Y154500
X-158750Y155500
X-158750Y156500
X-158750Y157500
X-158750Y158500
X-178750Y158500
X-178750Y157500
X-178750Y156500
X-178750Y155500
X-178750Y154500
X-178750Y153500
X-178750Y152500
X-175750Y152500
X-175750Y153500
X-175750Y154500
X-175750Y155500
X-175750Y156500
X-175750Y157500
X-175750Y158500
X-144500Y165000
X-144500Y166000
X-143500Y165000
X-143500Y166000
X-142500Y165000
X-142500Y166000
X-141500Y165000
X-141500Y166000
X-179250Y149250
X-179250Y150250
X-178250Y149250
X-178250Y150250
X-177250Y149250
X-177250Y150250
X-176250Y149250
X-176250Y150250
X-175250Y149250
X-175250Y150250
X-174250Y149250
X-174250Y150250
X-173250Y149250
X-173250Y150250
X-172250Y149250
X-172250Y150250
X-171250Y149250
X-171250Y150250
X-170250Y149250
X-170250Y150250
X-169250Y149250
X-169250Y150250
X-168250Y149250
X-168250Y150250
X-167250Y149250
X-167250Y150250
X-166250Y149250
X-166250Y150250
X-165250Y149250
X-165250Y150250
X-164250Y149250
X-164250Y150250
X-163250Y149250
X-163250Y150250
X-162250Y149250
X-162250Y150250
X-190250Y149250
X-190250Y150250
X-189250Y149250
X-189250Y150250
X-188250Y149250
X-188250Y150250
X-187250Y149250
X-187250Y150250
X-186250Y149250
X-186250Y150250
X-185250Y149250
X-185250Y150250
T02
X-213750Y198500
X-218750Y198500
X-199750Y192500
X-204750Y192500
X-186250Y192500
X-191250Y192500
X-211750Y195500
X-216750Y195500
X-188250Y195500
X-193250Y195500
X-187250Y188500
X-187250Y183500
X-212750Y208500
X-212750Y203500
X-211750Y198500
X-206750Y198500
X-200250Y198500
X-205250Y198500
X-204250Y203500
X-204250Y208500
X-195750Y208500
X-195750Y203500
X-192750Y198500
X-197750Y198500
X-186250Y198500
X-191250Y198500
X-186750Y208500
X-186750Y203500
X-211750Y192500
X-206750Y192500
X-204750Y188500
X-204750Y183500
X-201750Y195500
X-196750Y195500
X-196250Y188500
X-196250Y183500
X-198250Y192500
X-193250Y192500
X-204750Y195500
X-209750Y195500
X-218750Y192500
X-213750Y192500
X-212750Y188500
X-212750Y183500
X-213750Y168500
X-218750Y168500
X-199750Y162500
X-204750Y162500
X-186250Y162500
X-191250Y162500
X-211750Y165500
X-216750Y165500
X-188250Y165500
X-193250Y165500
X-187250Y158500
X-187250Y153500
X-212750Y178500
X-212750Y173500
X-211750Y168500
X-206750Y168500
X-200250Y168500
X-205250Y168500
X-204250Y173500
X-204250Y178500
X-195750Y178500
X-195750Y173500
X-192750Y168500
X-197750Y168500
X-186250Y168500
X-191250Y168500
X-186750Y178500
X-186750Y173500
X-211750Y162500
X-206750Y162500
X-204750Y158500
X-204750Y153500
X-201750Y165500
X-196750Y165500
X-196250Y158500
X-196250Y153500
X-198250Y162500
X-193250Y162500
X-204750Y165500
X-209750Y165500
X-218750Y162500
X-213750Y162500
X-212750Y158500
X-212750Y153500
X-173750Y198500
X-178750Y198500
X-159750Y192500
X-164750Y192500
X-146250Y192500
X-151250Y192500
X-171750Y195500
X-176750Y195500
X-148250Y195500
X-153250Y195500
X-147250Y188500
X-147250Y183500
X-172750Y208500
X-172750Y203500
X-171750Y198500
X-166750Y198500
X-160250Y198500
X-165250Y198500
X-164250Y203500
X-164250Y208500
X-155750Y208500
X-155750Y203500
X-152750Y198500
X-157750Y198500
X-146250Y198500
X-151250Y198500
X-146750Y208500
X-146750Y203500
X-171750Y192500
X-166750Y192500
X-164750Y188500
X-164750Y183500
X-161750Y195500
X-156750Y195500
X-156250Y188500
X-156250Y183500
X-158250Y192500
X-153250Y192500
X-164750Y195500
X-169750Y195500
X-178750Y192500
X-173750Y192500
X-172750Y188500
X-172750Y183500
X-173750Y168500
X-178750Y168500
X-159750Y162500
X-164750Y162500
X-146250Y162500
X-151250Y162500
X-171750Y165500
X-176750Y165500
X-148250Y165500
X-153250Y165500
X-147250Y158500
X-147250Y153500
X-172750Y178500
X-172750Y173500
X-171750Y168500
X-166750Y168500
X-160250Y168500
X-165250Y168500
X-164250Y173500
X-164250Y178500
X-155750Y178500
X-155750Y173500
X-152750Y168500
X-157750Y168500
X-146250Y168500
X-151250Y168500
X-146750Y178500
X-146750Y173500
X-171750Y162500
X-166750Y162500
X-164750Y158500
X-164750Y153500
X-161750Y165500
X-156750Y165500
X-156250Y158500
X-156250Y153500
X-158250Y162500
X-153250Y162500
X-164750Y165500
X-169750Y165500
X-178750Y162500
X-173750Y162500
X-172750Y158500
X-172750Y153500
T03
X-163890Y189859
X-199861Y200623
X-163890Y159859
X-150724Y200007
X-148042Y200007
X-150724Y170007
X-148042Y170007
X-203890Y159859
X-199861Y170623
X-161070Y191540
X-161070Y161540
X-201070Y191540
X-159861Y200623
X-159861Y170623
X-203890Y189859
X-190724Y200007
X-188042Y200007
X-190724Y170007
X-188042Y170007
X-201070Y161540
M30
