G04 FreePCB version 1.343*
G04 Z:\trinary\code\bb\CAM-logic\bottom_solder_mask.grb*
G04  layer *
G04 Scale: 100 percent, Rotated: No, Reflected: No *
%FSLAX24Y24*%
%MOIN*%
%LNTop*%
%ADD10C,0.005000*%
%ADD11R,0.071000X0.071000*%
%ADD12C,0.071000*%
%ADD13R,0.066000X0.066000*%
%ADD14C,0.066000*%
%ADD15C,0.044000*%
%ADD16C,0.016000*%
G90*
G70D02*

G04 Step and Repeat for panelization *

G04 ----------------------- Draw board outline (positive)*
%LPD*%
G54D10*
G01X-30000Y40000D02*
G01X20000Y40000D01*
G04 end of side 1*
G01X20000Y-20000D01*
G04 end of side 2*
G01X-30000Y-20000D01*
G04 end of side 3*
G01X-30000Y40000D01*

G04 -------------- Draw Parts, Pads, Traces, Vias and Text (positive)*
%LPD*%
G04 Draw part IC_CD4007_1*
G54D11*
G01X-21580Y38650D03*
G54D12*
G01X-22580Y38650D03*
G01X-23580Y38650D03*
G01X-24580Y38650D03*
G01X-25580Y38650D03*
G01X-26580Y38650D03*
G01X-27580Y38650D03*
G01X-27580Y35650D03*
G01X-26580Y35650D03*
G01X-25580Y35650D03*
G01X-24580Y35650D03*
G01X-23580Y35650D03*
G01X-22580Y35650D03*
G01X-21580Y35650D03*
G04 Draw part IC_MDP1403-12K_2*
G54D11*
G01X-8580Y29650D03*
G54D12*
G01X-9580Y29650D03*
G01X-10580Y29650D03*
G01X-11580Y29650D03*
G01X-12580Y29650D03*
G01X-13580Y29650D03*
G01X-14580Y29650D03*
G01X-14580Y26650D03*
G01X-13580Y26650D03*
G01X-12580Y26650D03*
G01X-11580Y26650D03*
G01X-10580Y26650D03*
G01X-9580Y26650D03*
G01X-8580Y26650D03*
G04 Draw part IC_CD4007_3*
G54D11*
G01X-8580Y38650D03*
G54D12*
G01X-9580Y38650D03*
G01X-10580Y38650D03*
G01X-11580Y38650D03*
G01X-12580Y38650D03*
G01X-13580Y38650D03*
G01X-14580Y38650D03*
G01X-14580Y35650D03*
G01X-13580Y35650D03*
G01X-12580Y35650D03*
G01X-11580Y35650D03*
G01X-10580Y35650D03*
G01X-9580Y35650D03*
G01X-8580Y35650D03*
G04 Draw part IC_CD4007_4*
G54D11*
G01X-21580Y20650D03*
G54D12*
G01X-22580Y20650D03*
G01X-23580Y20650D03*
G01X-24580Y20650D03*
G01X-25580Y20650D03*
G01X-26580Y20650D03*
G01X-27580Y20650D03*
G01X-27580Y17650D03*
G01X-26580Y17650D03*
G01X-25580Y17650D03*
G01X-24580Y17650D03*
G01X-23580Y17650D03*
G01X-22580Y17650D03*
G01X-21580Y17650D03*
G04 Draw part IC_MDP1403-12K_5*
G54D11*
G01X-8580Y2650D03*
G54D12*
G01X-9580Y2650D03*
G01X-10580Y2650D03*
G01X-11580Y2650D03*
G01X-12580Y2650D03*
G01X-13580Y2650D03*
G01X-14580Y2650D03*
G01X-14580Y-350D03*
G01X-13580Y-350D03*
G01X-12580Y-350D03*
G01X-11580Y-350D03*
G01X-10580Y-350D03*
G01X-9580Y-350D03*
G01X-8580Y-350D03*
G04 Draw part IC_CD4007_6*
G54D11*
G01X-8580Y11650D03*
G54D12*
G01X-9580Y11650D03*
G01X-10580Y11650D03*
G01X-11580Y11650D03*
G01X-12580Y11650D03*
G01X-13580Y11650D03*
G01X-14580Y11650D03*
G01X-14580Y8650D03*
G01X-13580Y8650D03*
G01X-12580Y8650D03*
G01X-11580Y8650D03*
G01X-10580Y8650D03*
G01X-9580Y8650D03*
G01X-8580Y8650D03*
G04 Draw part IC_CD4007_7*
G54D11*
G01X-21580Y11650D03*
G54D12*
G01X-22580Y11650D03*
G01X-23580Y11650D03*
G01X-24580Y11650D03*
G01X-25580Y11650D03*
G01X-26580Y11650D03*
G01X-27580Y11650D03*
G01X-27580Y8650D03*
G01X-26580Y8650D03*
G01X-25580Y8650D03*
G01X-24580Y8650D03*
G01X-23580Y8650D03*
G01X-22580Y8650D03*
G01X-21580Y8650D03*
G04 Draw part IC_MDP1403-12K_8*
G54D11*
G01X-8580Y20650D03*
G54D12*
G01X-9580Y20650D03*
G01X-10580Y20650D03*
G01X-11580Y20650D03*
G01X-12580Y20650D03*
G01X-13580Y20650D03*
G01X-14580Y20650D03*
G01X-14580Y17650D03*
G01X-13580Y17650D03*
G01X-12580Y17650D03*
G01X-11580Y17650D03*
G01X-10580Y17650D03*
G01X-9580Y17650D03*
G01X-8580Y17650D03*
G04 Draw part IC_CD4007_9*
G54D11*
G01X-21500Y30000D03*
G54D12*
G01X-22500Y30000D03*
G01X-23500Y30000D03*
G01X-24500Y30000D03*
G01X-25500Y30000D03*
G01X-26500Y30000D03*
G01X-27500Y30000D03*
G01X-27500Y27000D03*
G01X-26500Y27000D03*
G01X-25500Y27000D03*
G01X-24500Y27000D03*
G01X-23500Y27000D03*
G01X-22500Y27000D03*
G01X-21500Y27000D03*
G04 Draw part IC_CD4007_10*
G54D11*
G01X4420Y29650D03*
G54D12*
G01X3420Y29650D03*
G01X2420Y29650D03*
G01X1420Y29650D03*
G01X420Y29650D03*
G01X-580Y29650D03*
G01X-1580Y29650D03*
G01X-1580Y26650D03*
G01X-580Y26650D03*
G01X420Y26650D03*
G01X1420Y26650D03*
G01X2420Y26650D03*
G01X3420Y26650D03*
G01X4420Y26650D03*
G04 Draw part IC_CD4007_11*
G54D11*
G01X4420Y20650D03*
G54D12*
G01X3420Y20650D03*
G01X2420Y20650D03*
G01X1420Y20650D03*
G01X420Y20650D03*
G01X-580Y20650D03*
G01X-1580Y20650D03*
G01X-1580Y17650D03*
G01X-580Y17650D03*
G01X420Y17650D03*
G01X1420Y17650D03*
G01X2420Y17650D03*
G01X3420Y17650D03*
G01X4420Y17650D03*
G04 Draw part IC_MDP1403-12K_12*
G54D11*
G01X4420Y11650D03*
G54D12*
G01X3420Y11650D03*
G01X2420Y11650D03*
G01X1420Y11650D03*
G01X420Y11650D03*
G01X-580Y11650D03*
G01X-1580Y11650D03*
G01X-1580Y8650D03*
G01X-580Y8650D03*
G01X420Y8650D03*
G01X1420Y8650D03*
G01X2420Y8650D03*
G01X3420Y8650D03*
G01X4420Y8650D03*
G04 Draw part IC_CD4007_13*
G54D11*
G01X4420Y2650D03*
G54D12*
G01X3420Y2650D03*
G01X2420Y2650D03*
G01X1420Y2650D03*
G01X420Y2650D03*
G01X-580Y2650D03*
G01X-1580Y2650D03*
G01X-1580Y-350D03*
G01X-580Y-350D03*
G01X420Y-350D03*
G01X1420Y-350D03*
G01X2420Y-350D03*
G01X3420Y-350D03*
G01X4420Y-350D03*
G04 Draw part IC_CD4007_14*
G54D11*
G01X3670Y-6100D03*
G54D12*
G01X2670Y-6100D03*
G01X1670Y-6100D03*
G01X670Y-6100D03*
G01X-330Y-6100D03*
G01X-1330Y-6100D03*
G01X-2330Y-6100D03*
G01X-2330Y-9100D03*
G01X-1330Y-9100D03*
G01X-330Y-9100D03*
G01X670Y-9100D03*
G01X1670Y-9100D03*
G01X2670Y-9100D03*
G01X3670Y-9100D03*
G04 Draw part IC_CD4007_15*
G54D11*
G01X-21580Y-5850D03*
G54D12*
G01X-22580Y-5850D03*
G01X-23580Y-5850D03*
G01X-24580Y-5850D03*
G01X-25580Y-5850D03*
G01X-26580Y-5850D03*
G01X-27580Y-5850D03*
G01X-27580Y-8850D03*
G01X-26580Y-8850D03*
G01X-25580Y-8850D03*
G01X-24580Y-8850D03*
G01X-23580Y-8850D03*
G01X-22580Y-8850D03*
G01X-21580Y-8850D03*
G04 Draw part IC_MDP1403-12K_16*
G54D11*
G01X-9500Y-6000D03*
G54D12*
G01X-10500Y-6000D03*
G01X-11500Y-6000D03*
G01X-12500Y-6000D03*
G01X-13500Y-6000D03*
G01X-14500Y-6000D03*
G01X-15500Y-6000D03*
G01X-15500Y-9000D03*
G01X-14500Y-9000D03*
G01X-13500Y-9000D03*
G01X-12500Y-9000D03*
G01X-11500Y-9000D03*
G01X-10500Y-9000D03*
G01X-9500Y-9000D03*
G04 Draw part IC_CD4007_17*
G54D11*
G01X17170Y-13350D03*
G54D12*
G01X16170Y-13350D03*
G01X15170Y-13350D03*
G01X14170Y-13350D03*
G01X13170Y-13350D03*
G01X12170Y-13350D03*
G01X11170Y-13350D03*
G01X11170Y-16350D03*
G01X12170Y-16350D03*
G01X13170Y-16350D03*
G01X14170Y-16350D03*
G01X15170Y-16350D03*
G01X16170Y-16350D03*
G01X17170Y-16350D03*
G04 Draw part IC_MDP1403-12K_18*
G54D11*
G01X17420Y38650D03*
G54D12*
G01X16420Y38650D03*
G01X15420Y38650D03*
G01X14420Y38650D03*
G01X13420Y38650D03*
G01X12420Y38650D03*
G01X11420Y38650D03*
G01X11420Y35650D03*
G01X12420Y35650D03*
G01X13420Y35650D03*
G01X14420Y35650D03*
G01X15420Y35650D03*
G01X16420Y35650D03*
G01X17420Y35650D03*
G04 Draw part IC_CD4007_19*
G54D11*
G01X4420Y38650D03*
G54D12*
G01X3420Y38650D03*
G01X2420Y38650D03*
G01X1420Y38650D03*
G01X420Y38650D03*
G01X-580Y38650D03*
G01X-1580Y38650D03*
G01X-1580Y35650D03*
G01X-580Y35650D03*
G01X420Y35650D03*
G01X1420Y35650D03*
G01X2420Y35650D03*
G01X3420Y35650D03*
G01X4420Y35650D03*
G04 Draw part IC_CD4007_20*
G54D11*
G01X17420Y29650D03*
G54D12*
G01X16420Y29650D03*
G01X15420Y29650D03*
G01X14420Y29650D03*
G01X13420Y29650D03*
G01X12420Y29650D03*
G01X11420Y29650D03*
G01X11420Y26650D03*
G01X12420Y26650D03*
G01X13420Y26650D03*
G01X14420Y26650D03*
G01X15420Y26650D03*
G01X16420Y26650D03*
G01X17420Y26650D03*
G04 Draw part IC_MDP1403-12K_21*
G54D11*
G01X17420Y20650D03*
G54D12*
G01X16420Y20650D03*
G01X15420Y20650D03*
G01X14420Y20650D03*
G01X13420Y20650D03*
G01X12420Y20650D03*
G01X11420Y20650D03*
G01X11420Y17650D03*
G01X12420Y17650D03*
G01X13420Y17650D03*
G01X14420Y17650D03*
G01X15420Y17650D03*
G01X16420Y17650D03*
G01X17420Y17650D03*
G04 Draw part IC_CD4007_22*
G54D11*
G01X17420Y11650D03*
G54D12*
G01X16420Y11650D03*
G01X15420Y11650D03*
G01X14420Y11650D03*
G01X13420Y11650D03*
G01X12420Y11650D03*
G01X11420Y11650D03*
G01X11420Y8650D03*
G01X12420Y8650D03*
G01X13420Y8650D03*
G01X14420Y8650D03*
G01X15420Y8650D03*
G01X16420Y8650D03*
G01X17420Y8650D03*
G04 Draw part IC_CD4007_23*
G54D11*
G01X17420Y2650D03*
G54D12*
G01X16420Y2650D03*
G01X15420Y2650D03*
G01X14420Y2650D03*
G01X13420Y2650D03*
G01X12420Y2650D03*
G01X11420Y2650D03*
G01X11420Y-350D03*
G01X12420Y-350D03*
G01X13420Y-350D03*
G01X14420Y-350D03*
G01X15420Y-350D03*
G01X16420Y-350D03*
G01X17420Y-350D03*
G04 Draw part IC_MDP1403-12K_24*
G54D11*
G01X15920Y-6350D03*
G54D12*
G01X14920Y-6350D03*
G01X13920Y-6350D03*
G01X12920Y-6350D03*
G01X11920Y-6350D03*
G01X10920Y-6350D03*
G01X9920Y-6350D03*
G01X9920Y-9350D03*
G01X10920Y-9350D03*
G01X11920Y-9350D03*
G01X12920Y-9350D03*
G01X13920Y-9350D03*
G01X14920Y-9350D03*
G01X15920Y-9350D03*
G04 Draw part IC_CD4007_25*
G54D11*
G01X-21500Y3000D03*
G54D12*
G01X-22500Y3000D03*
G01X-23500Y3000D03*
G01X-24500Y3000D03*
G01X-25500Y3000D03*
G01X-26500Y3000D03*
G01X-27500Y3000D03*
G01X-27500Y0D03*
G01X-26500Y0D03*
G01X-25500Y0D03*
G01X-24500Y0D03*
G01X-23500Y0D03*
G01X-22500Y0D03*
G01X-21500Y0D03*
G04 Draw part LOGIC*
G54D13*
G01X-16000Y-15500D03*
G54D14*
G01X-16000Y-14500D03*
G01X-15000Y-15500D03*
G01X-15000Y-14500D03*
G01X-14000Y-15500D03*
G01X-14000Y-14500D03*
G01X-13000Y-15500D03*
G01X-13000Y-14500D03*
G01X-12000Y-15500D03*
G01X-12000Y-14500D03*
G01X-11000Y-15500D03*
G01X-11000Y-14500D03*
G01X-10000Y-15500D03*
G01X-10000Y-14500D03*
G01X-9000Y-15500D03*
G01X-9000Y-14500D03*
G01X-8000Y-15500D03*
G01X-8000Y-14500D03*
G01X-7000Y-15500D03*
G01X-7000Y-14500D03*
G01X-6000Y-15500D03*
G01X-6000Y-14500D03*
G01X-5000Y-15500D03*
G01X-5000Y-14500D03*
G01X-4000Y-15500D03*
G01X-4000Y-14500D03*
G01X-3000Y-15500D03*
G01X-3000Y-14500D03*
G01X-2000Y-15500D03*
G01X-2000Y-14500D03*
G01X-1000Y-15500D03*
G01X-1000Y-14500D03*
G01X0Y-15500D03*
G01X0Y-14500D03*
G01X1000Y-15500D03*
G01X1000Y-14500D03*
G01X2000Y-15500D03*
G01X2000Y-14500D03*
G01X3000Y-15500D03*
G01X3000Y-14500D03*
G01X4000Y-15500D03*
G01X4000Y-14500D03*
G01X5000Y-15500D03*
G01X5000Y-14500D03*
G01X6000Y-15500D03*
G01X6000Y-14500D03*
G01X7000Y-15500D03*
G01X7000Y-14500D03*
G01X8000Y-15500D03*
G01X8000Y-14500D03*

G04 Draw traces*
G54D15*
G01X9307Y-12125D03*
G01X8917Y-12986D03*
G01X-3076Y-13758D03*
G01X-14554Y23201D03*
G01X-15249Y18177D03*
G01X-20703Y21535D03*
G01X5343Y32284D03*
G01X-3182Y-12923D03*
G01X-13738Y24029D03*
G01X-15479Y22205D03*
G01X-3443Y-13200D03*
G01X-6810Y6686D03*
G01X10077Y-11965D03*
G01X-1531Y-7061D03*
G01X-2317Y21606D03*
G01X-6164Y-3543D03*
G01X5987Y-7653D03*
G01X-16227Y7824D03*
G01X-16913Y33340D03*
G01X-7175Y-2516D03*
G01X6419Y-6820D03*
G01X-8082Y-2663D03*
G01X7257Y1154D03*
G01X-8721Y-3539D03*
G01X-4275Y-6176D03*
G01X-3728Y-13490D03*
G01X-8709Y-16877D03*
G01X-3777Y8196D03*
G01X-16614Y10243D03*
G01X16356Y-14570D03*
G01X5375Y16685D03*
G01X-8460Y-2497D03*
G01X10818Y30495D03*
G01X-8276Y-17142D03*
G01X-1017Y-17886D03*
G01X-14425Y19355D03*

G04 Draw Text*
G54D16*

G04 Draw solder mask cutouts*
M00*
M02*
