G04 FreePCB version 1.343*
G04 Z:\trinary\code\bb\CAM-logic\bottom_copper.grb*
G04 bottom copper layer *
G04 Scale: 100 percent, Rotated: No, Reflected: No *
%FSLAX24Y24*%
%MOIN*%
%LNTop*%
%ADD10C,0.005000*%
%ADD11R,0.055000X0.055000*%
%ADD12C,0.055000*%
%ADD13R,0.050000X0.050000*%
%ADD14C,0.050000*%
%ADD15C,0.010000*%
%ADD16C,0.028000*%
G90*
G70D02*

G04 Step and Repeat for panelization *

G04 ----------------------- Draw board outline (positive)*
%LPD*%
G54D10*
G01X-30000Y40000D02*
G01X20000Y40000D01*
G04 end of side 1*
G01X20000Y-20000D01*
G04 end of side 2*
G01X-30000Y-20000D01*
G04 end of side 3*
G01X-30000Y40000D01*

G04 -------------- Draw Parts, Pads, Traces, Vias and Text (positive)*
%LPD*%
G04 Draw part IC_CD4007_1*
G54D11*
G01X-21580Y38650D03*
G54D12*
G01X-22580Y38650D03*
G01X-23580Y38650D03*
G01X-24580Y38650D03*
G01X-25580Y38650D03*
G01X-26580Y38650D03*
G01X-27580Y38650D03*
G01X-27580Y35650D03*
G01X-26580Y35650D03*
G01X-25580Y35650D03*
G01X-24580Y35650D03*
G01X-23580Y35650D03*
G01X-22580Y35650D03*
G01X-21580Y35650D03*
G04 Draw part IC_MDP1403-12K_2*
G54D11*
G01X-8580Y29650D03*
G54D12*
G01X-9580Y29650D03*
G01X-10580Y29650D03*
G01X-11580Y29650D03*
G01X-12580Y29650D03*
G01X-13580Y29650D03*
G01X-14580Y29650D03*
G01X-14580Y26650D03*
G01X-13580Y26650D03*
G01X-12580Y26650D03*
G01X-11580Y26650D03*
G01X-10580Y26650D03*
G01X-9580Y26650D03*
G01X-8580Y26650D03*
G04 Draw part IC_CD4007_3*
G54D11*
G01X-8580Y38650D03*
G54D12*
G01X-9580Y38650D03*
G01X-10580Y38650D03*
G01X-11580Y38650D03*
G01X-12580Y38650D03*
G01X-13580Y38650D03*
G01X-14580Y38650D03*
G01X-14580Y35650D03*
G01X-13580Y35650D03*
G01X-12580Y35650D03*
G01X-11580Y35650D03*
G01X-10580Y35650D03*
G01X-9580Y35650D03*
G01X-8580Y35650D03*
G04 Draw part IC_CD4007_4*
G54D11*
G01X-21580Y20650D03*
G54D12*
G01X-22580Y20650D03*
G01X-23580Y20650D03*
G01X-24580Y20650D03*
G01X-25580Y20650D03*
G01X-26580Y20650D03*
G01X-27580Y20650D03*
G01X-27580Y17650D03*
G01X-26580Y17650D03*
G01X-25580Y17650D03*
G01X-24580Y17650D03*
G01X-23580Y17650D03*
G01X-22580Y17650D03*
G01X-21580Y17650D03*
G04 Draw part IC_MDP1403-12K_5*
G54D11*
G01X-8580Y2650D03*
G54D12*
G01X-9580Y2650D03*
G01X-10580Y2650D03*
G01X-11580Y2650D03*
G01X-12580Y2650D03*
G01X-13580Y2650D03*
G01X-14580Y2650D03*
G01X-14580Y-350D03*
G01X-13580Y-350D03*
G01X-12580Y-350D03*
G01X-11580Y-350D03*
G01X-10580Y-350D03*
G01X-9580Y-350D03*
G01X-8580Y-350D03*
G04 Draw part IC_CD4007_6*
G54D11*
G01X-8580Y11650D03*
G54D12*
G01X-9580Y11650D03*
G01X-10580Y11650D03*
G01X-11580Y11650D03*
G01X-12580Y11650D03*
G01X-13580Y11650D03*
G01X-14580Y11650D03*
G01X-14580Y8650D03*
G01X-13580Y8650D03*
G01X-12580Y8650D03*
G01X-11580Y8650D03*
G01X-10580Y8650D03*
G01X-9580Y8650D03*
G01X-8580Y8650D03*
G04 Draw part IC_CD4007_7*
G54D11*
G01X-21580Y11650D03*
G54D12*
G01X-22580Y11650D03*
G01X-23580Y11650D03*
G01X-24580Y11650D03*
G01X-25580Y11650D03*
G01X-26580Y11650D03*
G01X-27580Y11650D03*
G01X-27580Y8650D03*
G01X-26580Y8650D03*
G01X-25580Y8650D03*
G01X-24580Y8650D03*
G01X-23580Y8650D03*
G01X-22580Y8650D03*
G01X-21580Y8650D03*
G04 Draw part IC_MDP1403-12K_8*
G54D11*
G01X-8580Y20650D03*
G54D12*
G01X-9580Y20650D03*
G01X-10580Y20650D03*
G01X-11580Y20650D03*
G01X-12580Y20650D03*
G01X-13580Y20650D03*
G01X-14580Y20650D03*
G01X-14580Y17650D03*
G01X-13580Y17650D03*
G01X-12580Y17650D03*
G01X-11580Y17650D03*
G01X-10580Y17650D03*
G01X-9580Y17650D03*
G01X-8580Y17650D03*
G04 Draw part IC_CD4007_9*
G54D11*
G01X-21500Y30000D03*
G54D12*
G01X-22500Y30000D03*
G01X-23500Y30000D03*
G01X-24500Y30000D03*
G01X-25500Y30000D03*
G01X-26500Y30000D03*
G01X-27500Y30000D03*
G01X-27500Y27000D03*
G01X-26500Y27000D03*
G01X-25500Y27000D03*
G01X-24500Y27000D03*
G01X-23500Y27000D03*
G01X-22500Y27000D03*
G01X-21500Y27000D03*
G04 Draw part IC_CD4007_10*
G54D11*
G01X4420Y29650D03*
G54D12*
G01X3420Y29650D03*
G01X2420Y29650D03*
G01X1420Y29650D03*
G01X420Y29650D03*
G01X-580Y29650D03*
G01X-1580Y29650D03*
G01X-1580Y26650D03*
G01X-580Y26650D03*
G01X420Y26650D03*
G01X1420Y26650D03*
G01X2420Y26650D03*
G01X3420Y26650D03*
G01X4420Y26650D03*
G04 Draw part IC_CD4007_11*
G54D11*
G01X4420Y20650D03*
G54D12*
G01X3420Y20650D03*
G01X2420Y20650D03*
G01X1420Y20650D03*
G01X420Y20650D03*
G01X-580Y20650D03*
G01X-1580Y20650D03*
G01X-1580Y17650D03*
G01X-580Y17650D03*
G01X420Y17650D03*
G01X1420Y17650D03*
G01X2420Y17650D03*
G01X3420Y17650D03*
G01X4420Y17650D03*
G04 Draw part IC_MDP1403-12K_12*
G54D11*
G01X4420Y11650D03*
G54D12*
G01X3420Y11650D03*
G01X2420Y11650D03*
G01X1420Y11650D03*
G01X420Y11650D03*
G01X-580Y11650D03*
G01X-1580Y11650D03*
G01X-1580Y8650D03*
G01X-580Y8650D03*
G01X420Y8650D03*
G01X1420Y8650D03*
G01X2420Y8650D03*
G01X3420Y8650D03*
G01X4420Y8650D03*
G04 Draw part IC_CD4007_13*
G54D11*
G01X4420Y2650D03*
G54D12*
G01X3420Y2650D03*
G01X2420Y2650D03*
G01X1420Y2650D03*
G01X420Y2650D03*
G01X-580Y2650D03*
G01X-1580Y2650D03*
G01X-1580Y-350D03*
G01X-580Y-350D03*
G01X420Y-350D03*
G01X1420Y-350D03*
G01X2420Y-350D03*
G01X3420Y-350D03*
G01X4420Y-350D03*
G04 Draw part IC_CD4007_14*
G54D11*
G01X3670Y-6100D03*
G54D12*
G01X2670Y-6100D03*
G01X1670Y-6100D03*
G01X670Y-6100D03*
G01X-330Y-6100D03*
G01X-1330Y-6100D03*
G01X-2330Y-6100D03*
G01X-2330Y-9100D03*
G01X-1330Y-9100D03*
G01X-330Y-9100D03*
G01X670Y-9100D03*
G01X1670Y-9100D03*
G01X2670Y-9100D03*
G01X3670Y-9100D03*
G04 Draw part IC_CD4007_15*
G54D11*
G01X-21580Y-5850D03*
G54D12*
G01X-22580Y-5850D03*
G01X-23580Y-5850D03*
G01X-24580Y-5850D03*
G01X-25580Y-5850D03*
G01X-26580Y-5850D03*
G01X-27580Y-5850D03*
G01X-27580Y-8850D03*
G01X-26580Y-8850D03*
G01X-25580Y-8850D03*
G01X-24580Y-8850D03*
G01X-23580Y-8850D03*
G01X-22580Y-8850D03*
G01X-21580Y-8850D03*
G04 Draw part IC_MDP1403-12K_16*
G54D11*
G01X-9500Y-6000D03*
G54D12*
G01X-10500Y-6000D03*
G01X-11500Y-6000D03*
G01X-12500Y-6000D03*
G01X-13500Y-6000D03*
G01X-14500Y-6000D03*
G01X-15500Y-6000D03*
G01X-15500Y-9000D03*
G01X-14500Y-9000D03*
G01X-13500Y-9000D03*
G01X-12500Y-9000D03*
G01X-11500Y-9000D03*
G01X-10500Y-9000D03*
G01X-9500Y-9000D03*
G04 Draw part IC_CD4007_17*
G54D11*
G01X17170Y-13350D03*
G54D12*
G01X16170Y-13350D03*
G01X15170Y-13350D03*
G01X14170Y-13350D03*
G01X13170Y-13350D03*
G01X12170Y-13350D03*
G01X11170Y-13350D03*
G01X11170Y-16350D03*
G01X12170Y-16350D03*
G01X13170Y-16350D03*
G01X14170Y-16350D03*
G01X15170Y-16350D03*
G01X16170Y-16350D03*
G01X17170Y-16350D03*
G04 Draw part IC_MDP1403-12K_18*
G54D11*
G01X17420Y38650D03*
G54D12*
G01X16420Y38650D03*
G01X15420Y38650D03*
G01X14420Y38650D03*
G01X13420Y38650D03*
G01X12420Y38650D03*
G01X11420Y38650D03*
G01X11420Y35650D03*
G01X12420Y35650D03*
G01X13420Y35650D03*
G01X14420Y35650D03*
G01X15420Y35650D03*
G01X16420Y35650D03*
G01X17420Y35650D03*
G04 Draw part IC_CD4007_19*
G54D11*
G01X4420Y38650D03*
G54D12*
G01X3420Y38650D03*
G01X2420Y38650D03*
G01X1420Y38650D03*
G01X420Y38650D03*
G01X-580Y38650D03*
G01X-1580Y38650D03*
G01X-1580Y35650D03*
G01X-580Y35650D03*
G01X420Y35650D03*
G01X1420Y35650D03*
G01X2420Y35650D03*
G01X3420Y35650D03*
G01X4420Y35650D03*
G04 Draw part IC_CD4007_20*
G54D11*
G01X17420Y29650D03*
G54D12*
G01X16420Y29650D03*
G01X15420Y29650D03*
G01X14420Y29650D03*
G01X13420Y29650D03*
G01X12420Y29650D03*
G01X11420Y29650D03*
G01X11420Y26650D03*
G01X12420Y26650D03*
G01X13420Y26650D03*
G01X14420Y26650D03*
G01X15420Y26650D03*
G01X16420Y26650D03*
G01X17420Y26650D03*
G04 Draw part IC_MDP1403-12K_21*
G54D11*
G01X17420Y20650D03*
G54D12*
G01X16420Y20650D03*
G01X15420Y20650D03*
G01X14420Y20650D03*
G01X13420Y20650D03*
G01X12420Y20650D03*
G01X11420Y20650D03*
G01X11420Y17650D03*
G01X12420Y17650D03*
G01X13420Y17650D03*
G01X14420Y17650D03*
G01X15420Y17650D03*
G01X16420Y17650D03*
G01X17420Y17650D03*
G04 Draw part IC_CD4007_22*
G54D11*
G01X17420Y11650D03*
G54D12*
G01X16420Y11650D03*
G01X15420Y11650D03*
G01X14420Y11650D03*
G01X13420Y11650D03*
G01X12420Y11650D03*
G01X11420Y11650D03*
G01X11420Y8650D03*
G01X12420Y8650D03*
G01X13420Y8650D03*
G01X14420Y8650D03*
G01X15420Y8650D03*
G01X16420Y8650D03*
G01X17420Y8650D03*
G04 Draw part IC_CD4007_23*
G54D11*
G01X17420Y2650D03*
G54D12*
G01X16420Y2650D03*
G01X15420Y2650D03*
G01X14420Y2650D03*
G01X13420Y2650D03*
G01X12420Y2650D03*
G01X11420Y2650D03*
G01X11420Y-350D03*
G01X12420Y-350D03*
G01X13420Y-350D03*
G01X14420Y-350D03*
G01X15420Y-350D03*
G01X16420Y-350D03*
G01X17420Y-350D03*
G04 Draw part IC_MDP1403-12K_24*
G54D11*
G01X15920Y-6350D03*
G54D12*
G01X14920Y-6350D03*
G01X13920Y-6350D03*
G01X12920Y-6350D03*
G01X11920Y-6350D03*
G01X10920Y-6350D03*
G01X9920Y-6350D03*
G01X9920Y-9350D03*
G01X10920Y-9350D03*
G01X11920Y-9350D03*
G01X12920Y-9350D03*
G01X13920Y-9350D03*
G01X14920Y-9350D03*
G01X15920Y-9350D03*
G04 Draw part IC_CD4007_25*
G54D11*
G01X-21500Y3000D03*
G54D12*
G01X-22500Y3000D03*
G01X-23500Y3000D03*
G01X-24500Y3000D03*
G01X-25500Y3000D03*
G01X-26500Y3000D03*
G01X-27500Y3000D03*
G01X-27500Y0D03*
G01X-26500Y0D03*
G01X-25500Y0D03*
G01X-24500Y0D03*
G01X-23500Y0D03*
G01X-22500Y0D03*
G01X-21500Y0D03*
G04 Draw part LOGIC*
G54D13*
G01X-16000Y-15500D03*
G54D14*
G01X-16000Y-14500D03*
G01X-15000Y-15500D03*
G01X-15000Y-14500D03*
G01X-14000Y-15500D03*
G01X-14000Y-14500D03*
G01X-13000Y-15500D03*
G01X-13000Y-14500D03*
G01X-12000Y-15500D03*
G01X-12000Y-14500D03*
G01X-11000Y-15500D03*
G01X-11000Y-14500D03*
G01X-10000Y-15500D03*
G01X-10000Y-14500D03*
G01X-9000Y-15500D03*
G01X-9000Y-14500D03*
G01X-8000Y-15500D03*
G01X-8000Y-14500D03*
G01X-7000Y-15500D03*
G01X-7000Y-14500D03*
G01X-6000Y-15500D03*
G01X-6000Y-14500D03*
G01X-5000Y-15500D03*
G01X-5000Y-14500D03*
G01X-4000Y-15500D03*
G01X-4000Y-14500D03*
G01X-3000Y-15500D03*
G01X-3000Y-14500D03*
G01X-2000Y-15500D03*
G01X-2000Y-14500D03*
G01X-1000Y-15500D03*
G01X-1000Y-14500D03*
G01X0Y-15500D03*
G01X0Y-14500D03*
G01X1000Y-15500D03*
G01X1000Y-14500D03*
G01X2000Y-15500D03*
G01X2000Y-14500D03*
G01X3000Y-15500D03*
G01X3000Y-14500D03*
G01X4000Y-15500D03*
G01X4000Y-14500D03*
G01X5000Y-15500D03*
G01X5000Y-14500D03*
G01X6000Y-15500D03*
G01X6000Y-14500D03*
G01X7000Y-15500D03*
G01X7000Y-14500D03*
G01X8000Y-15500D03*
G01X8000Y-14500D03*

G04 Draw traces*
G54D15*
G01X-6000Y-14500D02*
G01X-6000Y-14294D01*
G01X-6000Y-14294D02*
G01X-3830Y-12125D01*
G01X-3830Y-12125D02*
G01X9307Y-12125D01*
G54D16*
G01X9307Y-12125D03*
G54D15*
G01X3420Y35650D02*
G01X3420Y35817D01*
G01X3420Y35817D02*
G01X4078Y36475D01*
G01X4078Y36475D02*
G01X14523Y36475D01*
G01X14523Y36475D02*
G01X16420Y38371D01*
G01X16420Y38371D02*
G01X16420Y38650D01*
G01X-2000Y-15500D02*
G01X-2000Y-15656D01*
G01X-2000Y-15656D02*
G01X-1144Y-16511D01*
G01X-1144Y-16511D02*
G01X8433Y-16511D01*
G01X8433Y-16511D02*
G01X9036Y-15908D01*
G01X9036Y-15908D02*
G01X9036Y-13106D01*
G01X9036Y-13106D02*
G01X8917Y-12986D01*
G54D16*
G01X8917Y-12986D03*
G54D15*
G01X0Y-14500D02*
G01X0Y-14307D01*
G01X0Y-14307D02*
G01X-610Y-13697D01*
G01X-610Y-13697D02*
G01X-3047Y-13697D01*
G01X-3047Y-13697D02*
G01X-3076Y-13726D01*
G01X-3076Y-13726D02*
G01X-3076Y-13758D01*
G54D16*
G01X-3076Y-13758D03*
G54D15*
G01X12920Y-9350D02*
G01X11920Y-9350D01*
G01X-10000Y-15500D02*
G01X-10000Y-15996D01*
G01X-10000Y-15996D02*
G01X-8560Y-17436D01*
G01X-8560Y-17436D02*
G01X-1261Y-17436D01*
G01X-1261Y-17436D02*
G01X-1220Y-17396D01*
G01X-1220Y-17396D02*
G01X17290Y-17396D01*
G01X17290Y-17396D02*
G01X18203Y-16483D01*
G01X18203Y-16483D02*
G01X18203Y-12734D01*
G01X18203Y-12734D02*
G01X16988Y-11519D01*
G01X16988Y-11519D02*
G01X14922Y-11519D01*
G01X14922Y-11519D02*
G01X12920Y-9517D01*
G01X12920Y-9517D02*
G01X12920Y-9350D01*
G01X-27500Y27000D02*
G01X-27500Y26772D01*
G01X-27500Y26772D02*
G01X-23928Y23201D01*
G01X-23928Y23201D02*
G01X-14554Y23201D01*
G54D16*
G01X-14554Y23201D03*
G01X-15249Y18177D03*
G54D15*
G01X-15249Y18177D02*
G01X-20952Y12475D01*
G01X-20952Y12475D02*
G01X-21580Y12475D01*
G01X-21580Y12475D02*
G01X-21580Y11650D01*
G01X-8580Y35650D02*
G01X-8580Y35910D01*
G01X-8580Y35910D02*
G01X-9970Y37300D01*
G01X-9970Y37300D02*
G01X-10377Y36892D01*
G01X-10377Y36892D02*
G01X-21154Y36892D01*
G01X-21154Y36892D02*
G01X-22580Y38318D01*
G01X-22580Y38318D02*
G01X-22580Y38650D01*
G01X3420Y29650D02*
G01X3420Y29430D01*
G01X3420Y29430D02*
G01X2741Y28751D01*
G01X2741Y28751D02*
G01X-1931Y28751D01*
G01X-1931Y28751D02*
G01X-8580Y35400D01*
G01X-8580Y35400D02*
G01X-8580Y35650D01*
G54D16*
G01X-20703Y21535D03*
G54D15*
G01X-20703Y21535D02*
G01X-20703Y18526D01*
G01X-20703Y18526D02*
G01X-21580Y17650D01*
G01X-21580Y8650D02*
G01X-19623Y10606D01*
G01X-19623Y10606D02*
G01X-10369Y10606D01*
G01X-10369Y10606D02*
G01X-9580Y11396D01*
G01X-9580Y11396D02*
G01X-9580Y11650D01*
G01X4420Y35650D02*
G01X6564Y33505D01*
G01X6564Y33505D02*
G01X5343Y32284D01*
G54D16*
G01X5343Y32284D03*
G54D15*
G01X4420Y-350D02*
G01X4420Y504D01*
G01X4420Y504D02*
G01X3420Y1504D01*
G01X3420Y1504D02*
G01X3420Y2650D01*
G01X16170Y-13350D02*
G01X16170Y-13182D01*
G01X16170Y-13182D02*
G01X16035Y-13048D01*
G01X16035Y-13048D02*
G01X13203Y-10216D01*
G01X13203Y-10216D02*
G01X4991Y-10216D01*
G01X4991Y-10216D02*
G01X4950Y-10175D01*
G01X4950Y-10175D02*
G01X4745Y-10175D01*
G01X4745Y-10175D02*
G01X3670Y-9100D01*
G01X-16000Y-14500D02*
G01X-21580Y-8920D01*
G01X-21580Y-8920D02*
G01X-21580Y-8850D01*
G01X17420Y26650D02*
G01X17420Y26818D01*
G01X17420Y26818D02*
G01X16420Y27818D01*
G01X16420Y27818D02*
G01X16420Y29650D01*
G01X17420Y8650D02*
G01X18907Y10137D01*
G01X18907Y10137D02*
G01X18907Y25162D01*
G01X18907Y25162D02*
G01X17420Y26650D01*
G01X17420Y-350D02*
G01X17420Y324D01*
G01X17420Y324D02*
G01X16420Y1324D01*
G01X16420Y1324D02*
G01X16420Y2650D01*
G01X-8580Y8650D02*
G01X-8580Y8817D01*
G01X-8580Y8817D02*
G01X-10369Y10606D01*
G01X17170Y-16350D02*
G01X17170Y-16199D01*
G01X17170Y-16199D02*
G01X18003Y-15366D01*
G01X18003Y-15366D02*
G01X18003Y-12845D01*
G01X18003Y-12845D02*
G01X17629Y-12471D01*
G01X17629Y-12471D02*
G01X16612Y-12471D01*
G01X16612Y-12471D02*
G01X16035Y-13048D01*
G01X16420Y29650D02*
G01X16420Y29908D01*
G01X16420Y29908D02*
G01X13716Y32611D01*
G01X13716Y32611D02*
G01X7458Y32611D01*
G01X7458Y32611D02*
G01X6564Y33505D01*
G01X4420Y26650D02*
G01X4420Y27073D01*
G01X4420Y27073D02*
G01X2741Y28751D01*
G01X-9580Y38650D02*
G01X-9580Y37690D01*
G01X-9580Y37690D02*
G01X-9970Y37300D01*
G01X-21580Y35650D02*
G01X-21154Y36075D01*
G01X-21154Y36075D02*
G01X-21154Y36892D01*
G01X14920Y-6350D02*
G01X14920Y-6693D01*
G01X14920Y-6693D02*
G01X15425Y-7199D01*
G01X15425Y-7199D02*
G01X16400Y-7199D01*
G01X16400Y-7199D02*
G01X18245Y-5355D01*
G01X18245Y-5355D02*
G01X18245Y999D01*
G01X18245Y999D02*
G01X17420Y1824D01*
G01X17420Y1824D02*
G01X17420Y2650D01*
G01X-22580Y17650D02*
G01X-22580Y20650D01*
G01X-4000Y-14500D02*
G01X-4040Y-14459D01*
G01X-4040Y-14459D02*
G01X-4040Y-13371D01*
G01X-4040Y-13371D02*
G01X-3303Y-12633D01*
G01X-3303Y-12633D02*
G01X10089Y-12633D01*
G01X10089Y-12633D02*
G01X10242Y-12481D01*
G01X10242Y-12481D02*
G01X12513Y-12481D01*
G01X12513Y-12481D02*
G01X13170Y-13138D01*
G01X13170Y-13138D02*
G01X13170Y-13350D01*
G01X-1580Y38650D02*
G01X-2405Y39475D01*
G01X-2405Y39475D02*
G01X-10979Y39475D01*
G01X-10979Y39475D02*
G01X-11580Y38875D01*
G01X-11580Y38875D02*
G01X-12180Y39475D01*
G01X-12180Y39475D02*
G01X-13948Y39475D01*
G01X-13948Y39475D02*
G01X-14676Y38746D01*
G01X-14676Y38746D02*
G01X-15405Y39475D01*
G01X-15405Y39475D02*
G01X-23961Y39475D01*
G01X-23961Y39475D02*
G01X-24580Y38856D01*
G01X-24580Y38856D02*
G01X-24580Y38650D01*
G01X-27580Y20650D02*
G01X-27580Y20483D01*
G01X-27580Y20483D02*
G01X-26921Y19824D01*
G01X-26921Y19824D02*
G01X-25126Y19824D01*
G01X-25126Y19824D02*
G01X-24580Y20371D01*
G01X-24580Y20371D02*
G01X-24580Y20650D01*
G01X-14580Y11650D02*
G01X-14676Y11553D01*
G01X-14676Y11553D02*
G01X-13940Y10816D01*
G01X-13940Y10816D02*
G01X-12234Y10816D01*
G01X-12234Y10816D02*
G01X-11580Y11470D01*
G01X-11580Y11470D02*
G01X-11580Y11650D01*
G01X-27500Y30000D02*
G01X-27500Y29797D01*
G01X-27500Y29797D02*
G01X-26877Y29174D01*
G01X-26877Y29174D02*
G01X-25140Y29174D01*
G01X-25140Y29174D02*
G01X-24500Y29815D01*
G01X-24500Y29815D02*
G01X-24500Y30000D01*
G01X1420Y38650D02*
G01X1420Y38424D01*
G01X1420Y38424D02*
G01X819Y37824D01*
G01X819Y37824D02*
G01X-970Y37824D01*
G01X-970Y37824D02*
G01X-2405Y36390D01*
G01X-2405Y36390D02*
G01X-2405Y31987D01*
G01X-2405Y31987D02*
G01X-949Y30531D01*
G01X-949Y30531D02*
G01X760Y30531D01*
G01X760Y30531D02*
G01X1420Y29871D01*
G01X1420Y29871D02*
G01X1420Y29650D01*
G01X11420Y2650D02*
G01X10357Y3712D01*
G01X10357Y3712D02*
G01X-691Y3712D01*
G01X-691Y3712D02*
G01X-1580Y2824D01*
G01X-1580Y2824D02*
G01X-1580Y2650D01*
G01X-27580Y-5850D02*
G01X-27580Y-6051D01*
G01X-27580Y-6051D02*
G01X-26606Y-7025D01*
G01X-26606Y-7025D02*
G01X-21274Y-7025D01*
G01X-21274Y-7025D02*
G01X-14000Y-14300D01*
G01X-14000Y-14300D02*
G01X-10924Y-11224D01*
G01X-10924Y-11224D02*
G01X-10435Y-11224D01*
G01X-10435Y-11224D02*
G01X-5096Y-5886D01*
G01X-5096Y-5886D02*
G01X-2544Y-5886D01*
G01X-2544Y-5886D02*
G01X-2330Y-6100D01*
G01X11170Y-13350D02*
G01X11170Y-13568D01*
G01X11170Y-13568D02*
G01X11776Y-14175D01*
G01X11776Y-14175D02*
G01X13526Y-14175D01*
G01X13526Y-14175D02*
G01X14170Y-13531D01*
G01X14170Y-13531D02*
G01X14170Y-13350D01*
G01X11420Y29650D02*
G01X11420Y30304D01*
G01X11420Y30304D02*
G01X11604Y30488D01*
G01X11604Y30488D02*
G01X13791Y30488D01*
G01X13791Y30488D02*
G01X14420Y29859D01*
G01X14420Y29859D02*
G01X14420Y29650D01*
G01X-24580Y11650D02*
G01X-24580Y11443D01*
G01X-24580Y11443D02*
G01X-23961Y10824D01*
G01X-23961Y10824D02*
G01X-15405Y10824D01*
G01X-15405Y10824D02*
G01X-14676Y11553D01*
G01X-14000Y-14500D02*
G01X-14000Y-14300D01*
G01X-1580Y29650D02*
G01X-1580Y29900D01*
G01X-1580Y29900D02*
G01X-949Y30531D01*
G01X-1580Y38650D02*
G01X-1580Y38434D01*
G01X-1580Y38434D02*
G01X-970Y37824D01*
G01X-11580Y38650D02*
G01X-11580Y38875D01*
G01X-14580Y38650D02*
G01X-14676Y38746D01*
G01X11420Y29650D02*
G01X11400Y29800D01*
G01X11400Y29800D02*
G01X11400Y30800D01*
G01X11400Y30800D02*
G01X11200Y31000D01*
G01X11200Y31000D02*
G01X10600Y31600D01*
G01X10600Y31600D02*
G01X2000Y31600D01*
G01X2000Y31600D02*
G01X1420Y31020D01*
G01X1420Y31020D02*
G01X1420Y29650D01*
G01X-8580Y17650D02*
G01X-9580Y17650D01*
G01X-1000Y-15500D02*
G01X-1000Y-15650D01*
G01X-1000Y-15650D02*
G01X-339Y-16311D01*
G01X-339Y-16311D02*
G01X8350Y-16311D01*
G01X8350Y-16311D02*
G01X8836Y-15825D01*
G01X8836Y-15825D02*
G01X8836Y-14110D01*
G01X8836Y-14110D02*
G01X7649Y-12923D01*
G01X7649Y-12923D02*
G01X-3182Y-12923D01*
G54D16*
G01X-3182Y-12923D03*
G54D15*
G01X-1580Y35650D02*
G01X-1580Y35832D01*
G01X-1580Y35832D02*
G01X12Y37424D01*
G01X12Y37424D02*
G01X14379Y37424D01*
G01X14379Y37424D02*
G01X15420Y38465D01*
G01X15420Y38465D02*
G01X15420Y38650D01*
G01X-8580Y29650D02*
G01X-8580Y30475D01*
G01X-8580Y30475D02*
G01X-12907Y34802D01*
G01X-12907Y34802D02*
G01X-21944Y34802D01*
G01X-21944Y34802D02*
G01X-22580Y35438D01*
G01X-22580Y35438D02*
G01X-22580Y35650D01*
G01X3420Y8650D02*
G01X2420Y8650D01*
G01X-21500Y30000D02*
G01X-20674Y30000D01*
G01X-20674Y30000D02*
G01X-14704Y24029D01*
G01X-14704Y24029D02*
G01X-13738Y24029D01*
G54D16*
G01X-13738Y24029D03*
G54D15*
G01X-23580Y20650D02*
G01X-23580Y20856D01*
G01X-23580Y20856D02*
G01X-22231Y22205D01*
G01X-22231Y22205D02*
G01X-15479Y22205D01*
G54D16*
G01X-15479Y22205D03*
G54D15*
G01X3420Y-350D02*
G01X3420Y-517D01*
G01X3420Y-517D02*
G01X4103Y-1200D01*
G01X4103Y-1200D02*
G01X4758Y-1200D01*
G01X4758Y-1200D02*
G01X5245Y-713D01*
G01X5245Y-713D02*
G01X5245Y999D01*
G01X5245Y999D02*
G01X4420Y1824D01*
G01X4420Y1824D02*
G01X4420Y2650D01*
G01X-12580Y17650D02*
G01X-13580Y17650D01*
G01X3000Y-14500D02*
G01X3000Y-14300D01*
G01X3000Y-14300D02*
G01X1968Y-13268D01*
G01X1968Y-13268D02*
G01X-3376Y-13268D01*
G01X-3376Y-13268D02*
G01X-3443Y-13200D01*
G54D16*
G01X-3443Y-13200D03*
G54D15*
G01X3420Y11650D02*
G01X3420Y11241D01*
G01X3420Y11241D02*
G01X3836Y10824D01*
G01X3836Y10824D02*
G01X4981Y10824D01*
G01X4981Y10824D02*
G01X5875Y11718D01*
G01X5875Y11718D02*
G01X5875Y27369D01*
G01X5875Y27369D02*
G01X4420Y28824D01*
G01X4420Y28824D02*
G01X4420Y29650D01*
G01X-9500Y-9000D02*
G01X-8522Y-9000D01*
G01X-8522Y-9000D02*
G01X-4790Y-5267D01*
G01X-4790Y-5267D02*
G01X-1917Y-5267D01*
G01X-1917Y-5267D02*
G01X-1330Y-5855D01*
G01X-1330Y-5855D02*
G01X-1330Y-6100D01*
G01X-9500Y-9000D02*
G01X-10500Y-9000D01*
G01X-10500Y-6000D02*
G01X-10500Y-5832D01*
G01X-10500Y-5832D02*
G01X-11169Y-5162D01*
G01X-11169Y-5162D02*
G01X-18301Y-5162D01*
G01X-18301Y-5162D02*
G01X-19825Y-6687D01*
G01X-19825Y-6687D02*
G01X-24930Y-6687D01*
G01X-24930Y-6687D02*
G01X-25580Y-6037D01*
G01X-25580Y-6037D02*
G01X-25580Y-5850D01*
G01X11420Y8650D02*
G01X11420Y8817D01*
G01X11420Y8817D02*
G01X12208Y9605D01*
G01X12208Y9605D02*
G01X16771Y9605D01*
G01X16771Y9605D02*
G01X18479Y11313D01*
G01X18479Y11313D02*
G01X18479Y18098D01*
G01X18479Y18098D02*
G01X17639Y18938D01*
G01X17639Y18938D02*
G01X15883Y18938D01*
G01X15883Y18938D02*
G01X14420Y20401D01*
G01X14420Y20401D02*
G01X14420Y20650D01*
G01X-12580Y26650D02*
G01X-13580Y26650D01*
G01X16420Y8650D02*
G01X16420Y8970D01*
G01X16420Y8970D02*
G01X18679Y11230D01*
G01X18679Y11230D02*
G01X18679Y18181D01*
G01X18679Y18181D02*
G01X17197Y19663D01*
G01X17197Y19663D02*
G01X16203Y19663D01*
G01X16203Y19663D02*
G01X15420Y20447D01*
G01X15420Y20447D02*
G01X15420Y20650D01*
G01X-8580Y2650D02*
G01X-8580Y1824D01*
G01X-8580Y1824D02*
G01X-17768Y1824D01*
G01X-17768Y1824D02*
G01X-19768Y3825D01*
G01X-19768Y3825D02*
G01X-24243Y3825D01*
G01X-24243Y3825D02*
G01X-28606Y8188D01*
G01X-28606Y8188D02*
G01X-28606Y16623D01*
G01X-28606Y16623D02*
G01X-27580Y17650D01*
G01X-5000Y-14500D02*
G01X-5000Y-14021D01*
G01X-5000Y-14021D02*
G01X-3397Y-12419D01*
G01X-3397Y-12419D02*
G01X9695Y-12419D01*
G01X9695Y-12419D02*
G01X9834Y-12280D01*
G01X9834Y-12280D02*
G01X14335Y-12280D01*
G01X14335Y-12280D02*
G01X15170Y-13115D01*
G01X15170Y-13115D02*
G01X15170Y-13350D01*
G01X4420Y38650D02*
G01X5245Y38650D01*
G01X5245Y38650D02*
G01X6107Y37787D01*
G01X6107Y37787D02*
G01X13826Y37787D01*
G01X13826Y37787D02*
G01X14420Y38381D01*
G01X14420Y38381D02*
G01X14420Y38650D01*
G01X-9580Y2650D02*
G01X-9580Y3917D01*
G01X-9580Y3917D02*
G01X-6810Y6686D01*
G54D16*
G01X-6810Y6686D03*
G54D15*
G01X-9500Y-6000D02*
G01X-9500Y-5174D01*
G01X-9500Y-5174D02*
G01X-9712Y-4962D01*
G01X-9712Y-4962D02*
G01X-19867Y-4962D01*
G01X-19867Y-4962D02*
G01X-20754Y-5850D01*
G01X-20754Y-5850D02*
G01X-21580Y-5850D01*
G01X-7000Y-14500D02*
G01X-7000Y-14357D01*
G01X-7000Y-14357D02*
G01X-4478Y-11835D01*
G01X-4478Y-11835D02*
G01X9947Y-11835D01*
G01X9947Y-11835D02*
G01X10077Y-11965D01*
G54D16*
G01X10077Y-11965D03*
G54D15*
G01X-1580Y17650D02*
G01X-2413Y18483D01*
G01X-2413Y18483D02*
G01X-2413Y21031D01*
G01X-2413Y21031D02*
G01X-1968Y21475D01*
G01X-1968Y21475D02*
G01X800Y21475D01*
G01X800Y21475D02*
G01X1420Y20856D01*
G01X1420Y20856D02*
G01X1420Y20650D01*
G01X-21580Y20650D02*
G01X-21580Y21475D01*
G01X-21580Y21475D02*
G01X-21210Y21844D01*
G01X-21210Y21844D02*
G01X-14530Y21844D01*
G01X-14530Y21844D02*
G01X-11010Y25364D01*
G01X-11010Y25364D02*
G01X-8670Y25364D01*
G01X-8670Y25364D02*
G01X-7748Y26287D01*
G01X-7748Y26287D02*
G01X-7748Y27005D01*
G01X-7748Y27005D02*
G01X-9279Y28537D01*
G01X-9279Y28537D02*
G01X-13745Y28537D01*
G01X-13745Y28537D02*
G01X-14580Y29371D01*
G01X-14580Y29371D02*
G01X-14580Y29650D01*
G01X-9000Y-14500D02*
G01X-9000Y-14271D01*
G01X-9000Y-14271D02*
G01X-1790Y-7061D01*
G01X-1790Y-7061D02*
G01X-1531Y-7061D01*
G54D16*
G01X-1531Y-7061D03*
G54D15*
G01X-1580Y26650D02*
G01X-4834Y23395D01*
G01X-4834Y23395D02*
G01X-11011Y23395D01*
G01X-11011Y23395D02*
G01X-13580Y20826D01*
G01X-13580Y20826D02*
G01X-13580Y20650D01*
G01X15920Y-6350D02*
G01X15920Y-5524D01*
G01X15920Y-5524D02*
G01X11420Y-1024D01*
G01X11420Y-1024D02*
G01X11420Y-350D01*
G01X-9580Y-350D02*
G01X-10580Y-350D01*
G01X3420Y26650D02*
G01X3420Y26443D01*
G01X3420Y26443D02*
G01X-416Y22607D01*
G01X-416Y22607D02*
G01X-10789Y22607D01*
G01X-10789Y22607D02*
G01X-12580Y20817D01*
G01X-12580Y20817D02*
G01X-12580Y20650D01*
G01X-9580Y29650D02*
G01X-9580Y29817D01*
G01X-9580Y29817D02*
G01X-13392Y33630D01*
G01X-13392Y33630D02*
G01X-25837Y33630D01*
G01X-25837Y33630D02*
G01X-27580Y35372D01*
G01X-27580Y35372D02*
G01X-27580Y35650D01*
G54D16*
G01X-2317Y21606D03*
G54D15*
G01X-2317Y21606D02*
G01X-7287Y16636D01*
G01X-7287Y16636D02*
G01X-13787Y16636D01*
G01X-13787Y16636D02*
G01X-14580Y17428D01*
G01X-14580Y17428D02*
G01X-14580Y17650D01*
G01X4420Y8650D02*
G01X4420Y8877D01*
G01X4420Y8877D02*
G01X3147Y10150D01*
G01X3147Y10150D02*
G01X-1275Y10150D01*
G01X-1275Y10150D02*
G01X-7287Y16162D01*
G01X-7287Y16162D02*
G01X-7287Y16636D01*
G54D16*
G01X-6164Y-3543D03*
G54D15*
G01X-6164Y-3543D02*
G01X-6164Y-721D01*
G01X-6164Y-721D02*
G01X-1526Y3917D01*
G01X-1526Y3917D02*
G01X14363Y3917D01*
G01X14363Y3917D02*
G01X15420Y2860D01*
G01X15420Y2860D02*
G01X15420Y2650D01*
G01X-11580Y29650D02*
G01X-11580Y29817D01*
G01X-11580Y29817D02*
G01X-13238Y31475D01*
G01X-13238Y31475D02*
G01X-24629Y31475D01*
G01X-24629Y31475D02*
G01X-28438Y35284D01*
G01X-28438Y35284D02*
G01X-28438Y35984D01*
G01X-28438Y35984D02*
G01X-27578Y36844D01*
G01X-27578Y36844D02*
G01X-27174Y36844D01*
G01X-27174Y36844D02*
G01X-25580Y38439D01*
G01X-25580Y38439D02*
G01X-25580Y38650D01*
G54D16*
G01X5987Y-7653D03*
G54D15*
G01X5987Y-7653D02*
G01X5987Y-7061D01*
G01X5987Y-7061D02*
G01X3579Y-4653D01*
G01X3579Y-4653D02*
G01X-22592Y-4653D01*
G01X-22592Y-4653D02*
G01X-23580Y-5641D01*
G01X-23580Y-5641D02*
G01X-23580Y-5850D01*
G01X-10580Y2650D02*
G01X-10580Y2865D01*
G01X-10580Y2865D02*
G01X-15539Y7824D01*
G01X-15539Y7824D02*
G01X-16227Y7824D01*
G54D16*
G01X-16227Y7824D03*
G54D15*
G01X-26580Y11650D02*
G01X-26580Y11100D01*
G01X-26580Y11100D02*
G01X-28406Y9274D01*
G01X-28406Y9274D02*
G01X-28406Y8271D01*
G01X-28406Y8271D02*
G01X-27959Y7824D01*
G01X-27959Y7824D02*
G01X-16227Y7824D01*
G01X-10580Y29650D02*
G01X-10580Y29817D01*
G01X-10580Y29817D02*
G01X-14103Y33340D01*
G01X-14103Y33340D02*
G01X-16913Y33340D01*
G54D16*
G01X-16913Y33340D03*
G01X-7175Y-2516D03*
G54D15*
G01X-7175Y-2516D02*
G01X-7175Y-1158D01*
G01X-7175Y-1158D02*
G01X-1594Y4422D01*
G01X-1594Y4422D02*
G01X5131Y4422D01*
G01X5131Y4422D02*
G01X11410Y10702D01*
G01X11410Y10702D02*
G01X14709Y10702D01*
G01X14709Y10702D02*
G01X15420Y11412D01*
G01X15420Y11412D02*
G01X15420Y11650D01*
G01X-13500Y-9000D02*
G01X-14500Y-9000D01*
G01X13420Y11650D02*
G01X13420Y13557D01*
G01X13420Y13557D02*
G01X10582Y16394D01*
G01X10582Y16394D02*
G01X10582Y17982D01*
G01X10582Y17982D02*
G01X12420Y19819D01*
G01X12420Y19819D02*
G01X12420Y20650D01*
G01X14420Y35650D02*
G01X13420Y35650D01*
G54D16*
G01X6419Y-6820D03*
G54D15*
G01X6419Y-6820D02*
G01X4051Y-4453D01*
G01X4051Y-4453D02*
G01X-25372Y-4453D01*
G01X-25372Y-4453D02*
G01X-26580Y-5660D01*
G01X-26580Y-5660D02*
G01X-26580Y-5850D01*
G01X-22500Y27000D02*
G01X-22500Y30000D01*
G01X4420Y11650D02*
G01X4420Y12475D01*
G01X4420Y12475D02*
G01X5675Y13730D01*
G01X5675Y13730D02*
G01X5675Y17860D01*
G01X5675Y17860D02*
G01X3741Y19793D01*
G01X3741Y19793D02*
G01X1105Y19793D01*
G01X1105Y19793D02*
G01X420Y20479D01*
G01X420Y20479D02*
G01X420Y20650D01*
G54D16*
G01X-8082Y-2663D03*
G54D15*
G01X-8082Y-2663D02*
G01X-8082Y-1782D01*
G01X-8082Y-1782D02*
G01X-1245Y5054D01*
G01X-1245Y5054D02*
G01X2279Y5054D01*
G01X2279Y5054D02*
G01X10210Y12986D01*
G01X10210Y12986D02*
G01X10210Y26614D01*
G01X10210Y26614D02*
G01X12133Y28537D01*
G01X12133Y28537D02*
G01X14585Y28537D01*
G01X14585Y28537D02*
G01X15420Y29371D01*
G01X15420Y29371D02*
G01X15420Y29650D01*
G54D16*
G01X7257Y1154D03*
G54D15*
G01X7257Y1154D02*
G01X4936Y3475D01*
G01X4936Y3475D02*
G01X78Y3475D01*
G01X78Y3475D02*
G01X-580Y2817D01*
G01X-580Y2817D02*
G01X-580Y2650D01*
G01X17420Y17650D02*
G01X16420Y17650D01*
G01X17420Y35650D02*
G01X19107Y33962D01*
G01X19107Y33962D02*
G01X19107Y9109D01*
G01X19107Y9109D02*
G01X14221Y4222D01*
G01X14221Y4222D02*
G01X-1504Y4222D01*
G01X-1504Y4222D02*
G01X-6562Y-836D01*
G01X-6562Y-836D02*
G01X-6562Y-2357D01*
G01X-6562Y-2357D02*
G01X-7745Y-3539D01*
G01X-7745Y-3539D02*
G01X-8721Y-3539D01*
G54D16*
G01X-8721Y-3539D03*
G54D15*
G01X-27500Y0D02*
G01X-27500Y-243D01*
G01X-27500Y-243D02*
G01X-23690Y-4052D01*
G01X-23690Y-4052D02*
G01X9837Y-4052D01*
G01X9837Y-4052D02*
G01X11920Y-6135D01*
G01X11920Y-6135D02*
G01X11920Y-6350D01*
G01X-13000Y-14500D02*
G01X-13000Y-14326D01*
G01X-13000Y-14326D02*
G01X-4850Y-6176D01*
G01X-4850Y-6176D02*
G01X-4275Y-6176D01*
G54D16*
G01X-4275Y-6176D03*
G54D15*
G01X1000Y-14500D02*
G01X1000Y-14299D01*
G01X1000Y-14299D02*
G01X168Y-13468D01*
G01X168Y-13468D02*
G01X-3301Y-13468D01*
G01X-3301Y-13468D02*
G01X-3323Y-13490D01*
G01X-3323Y-13490D02*
G01X-3728Y-13490D01*
G54D16*
G01X-3728Y-13490D03*
G54D15*
G01X-8580Y26650D02*
G01X-9580Y26650D01*
G01X-11500Y-6000D02*
G01X-11500Y-6167D01*
G01X-11500Y-6167D02*
G01X-10841Y-6825D01*
G01X-10841Y-6825D02*
G01X-7678Y-6825D01*
G01X-7678Y-6825D02*
G01X-5707Y-4853D01*
G01X-5707Y-4853D02*
G01X3248Y-4853D01*
G01X3248Y-4853D02*
G01X3670Y-5274D01*
G01X3670Y-5274D02*
G01X3670Y-6100D01*
G01X-8000Y-15500D02*
G01X-8000Y-16168D01*
G01X-8000Y-16168D02*
G01X-8709Y-16877D01*
G54D16*
G01X-8709Y-16877D03*
G01X-3777Y8196D03*
G54D15*
G01X-3777Y8196D02*
G01X-8075Y12494D01*
G01X-8075Y12494D02*
G01X-10011Y12494D01*
G01X-10011Y12494D02*
G01X-10580Y11925D01*
G01X-10580Y11925D02*
G01X-10580Y11650D01*
G54D16*
G01X-16614Y10243D03*
G54D15*
G01X-16614Y10243D02*
G01X-10924Y10243D01*
G01X-10924Y10243D02*
G01X-9580Y8899D01*
G01X-9580Y8899D02*
G01X-9580Y8650D01*
G01X16420Y35650D02*
G01X15420Y35650D01*
G01X-3000Y-15500D02*
G01X-3000Y-15658D01*
G01X-3000Y-15658D02*
G01X-1929Y-16728D01*
G01X-1929Y-16728D02*
G01X8767Y-16728D01*
G01X8767Y-16728D02*
G01X10926Y-14570D01*
G01X10926Y-14570D02*
G01X16356Y-14570D01*
G54D16*
G01X16356Y-14570D03*
G01X5375Y16685D03*
G54D15*
G01X5375Y16685D02*
G01X5375Y17877D01*
G01X5375Y17877D02*
G01X4315Y18936D01*
G01X4315Y18936D02*
G01X854Y18936D01*
G01X854Y18936D02*
G01X-580Y20371D01*
G01X-580Y20371D02*
G01X-580Y20650D01*
G01X-11580Y17650D02*
G01X-11580Y17900D01*
G01X-11580Y17900D02*
G01X-12155Y18475D01*
G01X-12155Y18475D02*
G01X-16933Y18475D01*
G01X-16933Y18475D02*
G01X-23580Y11829D01*
G01X-23580Y11829D02*
G01X-23580Y11650D01*
G01X-10580Y17650D02*
G01X-11580Y17650D01*
G54D16*
G01X-8460Y-2497D03*
G54D15*
G01X-8460Y-2497D02*
G01X-8460Y-1876D01*
G01X-8460Y-1876D02*
G01X587Y7171D01*
G01X587Y7171D02*
G01X4112Y7171D01*
G01X4112Y7171D02*
G01X9001Y12059D01*
G01X9001Y12059D02*
G01X9001Y28678D01*
G01X9001Y28678D02*
G01X10818Y30495D01*
G54D16*
G01X10818Y30495D03*
G54D15*
G01X12420Y35650D02*
G01X11420Y35650D01*
G01X-22500Y0D02*
G01X-22500Y-206D01*
G01X-22500Y-206D02*
G01X-18853Y-3852D01*
G01X-18853Y-3852D02*
G01X10661Y-3852D01*
G01X10661Y-3852D02*
G01X12920Y-6111D01*
G01X12920Y-6111D02*
G01X12920Y-6350D01*
G01X-15000Y-14500D02*
G01X-15000Y-14246D01*
G01X-15000Y-14246D02*
G01X-21221Y-8024D01*
G01X-21221Y-8024D02*
G01X-26577Y-8024D01*
G01X-26577Y-8024D02*
G01X-28808Y-5793D01*
G01X-28808Y-5793D02*
G01X-28808Y26879D01*
G01X-28808Y26879D02*
G01X-26800Y28887D01*
G01X-26800Y28887D02*
G01X-24334Y28887D01*
G01X-24334Y28887D02*
G01X-23500Y29721D01*
G01X-23500Y29721D02*
G01X-23500Y30000D01*
G01X17420Y11650D02*
G01X17420Y12475D01*
G01X17420Y12475D02*
G01X18267Y13322D01*
G01X18267Y13322D02*
G01X18267Y18027D01*
G01X18267Y18027D02*
G01X17617Y18677D01*
G01X17617Y18677D02*
G01X15153Y18677D01*
G01X15153Y18677D02*
G01X13420Y20410D01*
G01X13420Y20410D02*
G01X13420Y20650D01*
G01X4420Y20650D02*
G01X4420Y21475D01*
G01X4420Y21475D02*
G01X3994Y21901D01*
G01X3994Y21901D02*
G01X-4800Y21901D01*
G01X-4800Y21901D02*
G01X-6876Y19824D01*
G01X-6876Y19824D02*
G01X-13921Y19824D01*
G01X-13921Y19824D02*
G01X-14580Y20483D01*
G01X-14580Y20483D02*
G01X-14580Y20650D01*
G01X-26580Y20650D02*
G01X-26580Y20856D01*
G01X-26580Y20856D02*
G01X-24941Y22495D01*
G01X-24941Y22495D02*
G01X-14835Y22495D01*
G01X-14835Y22495D02*
G01X-11580Y25750D01*
G01X-11580Y25750D02*
G01X-11580Y26650D01*
G01X-10580Y26650D02*
G01X-11580Y26650D01*
G01X-26500Y3000D02*
G01X-26500Y2773D01*
G01X-26500Y2773D02*
G01X-28379Y893D01*
G01X-28379Y893D02*
G01X-28379Y-336D01*
G01X-28379Y-336D02*
G01X-24463Y-4253D01*
G01X-24463Y-4253D02*
G01X4342Y-4253D01*
G01X4342Y-4253D02*
G01X8581Y-8491D01*
G01X8581Y-8491D02*
G01X13276Y-8491D01*
G01X13276Y-8491D02*
G01X13920Y-9135D01*
G01X13920Y-9135D02*
G01X13920Y-9350D01*
G01X14920Y-9350D02*
G01X13920Y-9350D01*
G01X16170Y-16350D02*
G01X16170Y-16548D01*
G01X16170Y-16548D02*
G01X15532Y-17185D01*
G01X15532Y-17185D02*
G01X-5541Y-17185D01*
G01X-5541Y-17185D02*
G01X-6000Y-16727D01*
G01X-6000Y-16727D02*
G01X-7861Y-16727D01*
G01X-7861Y-16727D02*
G01X-8276Y-17142D01*
G54D16*
G01X-8276Y-17142D03*
G54D15*
G01X-6000Y-15500D02*
G01X-6000Y-16727D01*
G01X-11580Y-350D02*
G01X-12580Y-350D01*
G01X-12000Y-15500D02*
G01X-12000Y-15755D01*
G01X-12000Y-15755D02*
G01X-9868Y-17886D01*
G01X-9868Y-17886D02*
G01X-1017Y-17886D01*
G54D16*
G01X-1017Y-17886D03*
G01X-14425Y19355D03*
G54D15*
G01X-14425Y19355D02*
G01X-18041Y19355D01*
G01X-18041Y19355D02*
G01X-25580Y11817D01*
G01X-25580Y11817D02*
G01X-25580Y11650D01*
G01X-27580Y8650D02*
G01X-27580Y9464D01*
G01X-27580Y9464D02*
G01X-25580Y11464D01*
G01X-25580Y11464D02*
G01X-25580Y11650D01*
G01X-11000Y-15500D02*
G01X-11000Y-15684D01*
G01X-11000Y-15684D02*
G01X-9034Y-17650D01*
G01X-9034Y-17650D02*
G01X-1191Y-17650D01*
G01X-1191Y-17650D02*
G01X-1137Y-17596D01*
G01X-1137Y-17596D02*
G01X17430Y-17596D01*
G01X17430Y-17596D02*
G01X18434Y-16592D01*
G01X18434Y-16592D02*
G01X18434Y-11864D01*
G01X18434Y-11864D02*
G01X15920Y-9350D01*
G01X-8000Y-14500D02*
G01X-8000Y-13568D01*
G01X-8000Y-13568D02*
G01X-1783Y-7351D01*
G01X-1783Y-7351D02*
G01X-1403Y-7351D01*
G01X-1403Y-7351D02*
G01X-330Y-6278D01*
G01X-330Y-6278D02*
G01X-330Y-6100D01*
G01X-12500Y-6000D02*
G01X-12500Y-6225D01*
G01X-12500Y-6225D02*
G01X-11699Y-7025D01*
G01X-11699Y-7025D02*
G01X-6957Y-7025D01*
G01X-6957Y-7025D02*
G01X-4992Y-5059D01*
G01X-4992Y-5059D02*
G01X-1153Y-5059D01*
G01X-1153Y-5059D02*
G01X-330Y-5883D01*
G01X-330Y-5883D02*
G01X-330Y-6100D01*
G01X-4000Y-15500D02*
G01X-4000Y-15643D01*
G01X-4000Y-15643D02*
G01X-2714Y-16928D01*
G01X-2714Y-16928D02*
G01X8850Y-16928D01*
G01X8850Y-16928D02*
G01X10842Y-14937D01*
G01X10842Y-14937D02*
G01X16407Y-14937D01*
G01X16407Y-14937D02*
G01X17170Y-14175D01*
G01X17170Y-14175D02*
G01X17170Y-13350D01*
G01X13920Y-6350D02*
G01X13920Y-4342D01*
G01X13920Y-4342D02*
G01X10590Y-1012D01*
G01X10590Y-1012D02*
G01X10590Y16D01*
G01X10590Y16D02*
G01X12111Y1537D01*
G01X12111Y1537D02*
G01X12585Y1537D01*
G01X12585Y1537D02*
G01X13420Y2371D01*
G01X13420Y2371D02*
G01X13420Y2650D01*

G04 Draw Text*
M00*
M02*
