;Holesize 1 =   28.0 PLATED MILS
;Holesize 2 =   35.0 PLATED MILS
;Holesize 3 =   40.0 PLATED MILS
;Holesize 4 =   14.0 PLATED MILS
M48
INCH
T01C0.028
T02C0.035
T03C0.040
T04C0.014
%
G05
G90
T01
X-017900Y014270
X-017900Y013270
X-017900Y012270
X-017900Y011270
X-017900Y010270
X-017900Y009270
X-017900Y008270
X-014900Y008270
X-014900Y009270
X-014900Y010270
X-014900Y011270
X-014900Y012270
X-014900Y013270
X-014900Y014270
X-017900Y006270
X-017900Y005270
X-017900Y004270
X-017900Y003270
X-017900Y002270
X-017900Y001270
X-017900Y000270
X-014900Y000270
X-014900Y001270
X-014900Y002270
X-014900Y003270
X-014900Y004270
X-014900Y005270
X-014900Y006270
X-017950Y-001930
X-017950Y-002930
X-017950Y-003930
X-017950Y-004930
X-017950Y-005930
X-017950Y-006930
X-017950Y-007930
X-014950Y-007930
X-014950Y-006930
X-014950Y-005930
X-014950Y-004930
X-014950Y-003930
X-014950Y-002930
X-014950Y-001930
X-017900Y-009730
X-017900Y-010730
X-017900Y-011730
X-017900Y-012730
X-017900Y-013730
X-017900Y-014730
X-017900Y-015730
X-014900Y-015730
X-014900Y-014730
X-014900Y-013730
X-014900Y-012730
X-014900Y-011730
X-014900Y-010730
X-014900Y-009730
X-000700Y013700
X-000700Y012700
X-000700Y011700
X-000700Y010700
X-000700Y009700
X-000700Y008700
X-000700Y007700
X002300Y007700
X002300Y008700
X002300Y009700
X002300Y010700
X002300Y011700
X002300Y012700
X002300Y013700
X-000600Y-003300
X-000600Y-004300
X-000600Y-005300
X-000600Y-006300
X-000600Y-007300
X-000600Y-008300
X-000600Y-009300
X002400Y-009300
X002400Y-008300
X002400Y-007300
X002400Y-006300
X002400Y-005300
X002400Y-004300
X002400Y-003300
X-000700Y005100
X-000700Y004100
X-000700Y003100
X-000700Y002100
X-000700Y001100
X-000700Y000100
X-000700Y-000900
X002300Y-000900
X002300Y000100
X002300Y001100
X002300Y002100
X002300Y003100
X002300Y004100
X002300Y005100
X-000800Y-021600
X-001800Y-021600
X-002800Y-021600
X-003800Y-021600
X-004800Y-021600
X-005800Y-021600
X-006800Y-021600
X-006800Y-024600
X-005800Y-024600
X-004800Y-024600
X-003800Y-024600
X-002800Y-024600
X-001800Y-024600
X-000800Y-024600
X019200Y-021600
X018200Y-021600
X017200Y-021600
X016200Y-021600
X015200Y-021600
X014200Y-021600
X013200Y-021600
X013200Y-024600
X014200Y-024600
X015200Y-024600
X016200Y-024600
X017200Y-024600
X018200Y-024600
X019200Y-024600
X009200Y-021600
X008200Y-021600
X007200Y-021600
X006200Y-021600
X005200Y-021600
X004200Y-021600
X003200Y-021600
X003200Y-024600
X004200Y-024600
X005200Y-024600
X006200Y-024600
X007200Y-024600
X008200Y-024600
X009200Y-024600
X-010800Y-021600
X-011800Y-021600
X-012800Y-021600
X-013800Y-021600
X-014800Y-021600
X-015800Y-021600
X-016800Y-021600
X-016800Y-024600
X-015800Y-024600
X-014800Y-024600
X-013800Y-024600
X-012800Y-024600
X-011800Y-024600
X-010800Y-024600
X011800Y-017200
X012800Y-017200
X013800Y-017200
X014800Y-017200
X015800Y-017200
X016800Y-017200
X017800Y-017200
X017800Y-014200
X016800Y-014200
X015800Y-014200
X014800Y-014200
X013800Y-014200
X012800Y-014200
X011800Y-014200
X023400Y-015200
X024400Y-015200
X025400Y-015200
X026400Y-015200
X027400Y-015200
X028400Y-015200
X029400Y-015200
X029400Y-012200
X028400Y-012200
X027400Y-012200
X026400Y-012200
X025400Y-012200
X024400Y-012200
X023400Y-012200
X011800Y006000
X012800Y006000
X013800Y006000
X014800Y006000
X015800Y006000
X016800Y006000
X017800Y006000
X017800Y009000
X016800Y009000
X015800Y009000
X014800Y009000
X013800Y009000
X012800Y009000
X011800Y009000
X023400Y008000
X024400Y008000
X025400Y008000
X026400Y008000
X027400Y008000
X028400Y008000
X029400Y008000
X029400Y011000
X028400Y011000
X027400Y011000
X026400Y011000
X025400Y011000
X024400Y011000
X023400Y011000
X011800Y-006000
X012800Y-006000
X013800Y-006000
X014800Y-006000
X015800Y-006000
X016800Y-006000
X017800Y-006000
X017800Y-003000
X016800Y-003000
X015800Y-003000
X014800Y-003000
X013800Y-003000
X012800Y-003000
X011800Y-003000
X023400Y-004000
X024400Y-004000
X025400Y-004000
X026400Y-004000
X027400Y-004000
X028400Y-004000
X029400Y-004000
X029400Y-001000
X028400Y-001000
X027400Y-001000
X026400Y-001000
X025400Y-001000
X024400Y-001000
X023400Y-001000
T02
X-013730Y013300
X-008730Y013300
X-008730Y008300
X-013730Y008300
X-018950Y014250
X-023950Y014250
X-023950Y010250
X-018950Y010250
X-013730Y005300
X-008730Y005300
X-008730Y000300
X-013730Y000300
X-018950Y006250
X-023950Y006250
X-023950Y002250
X-018950Y002250
X-013780Y-002900
X-008780Y-002900
X-008780Y-007900
X-013780Y-007900
X-019000Y-001950
X-024000Y-001950
X-024000Y-005950
X-019000Y-005950
X-013730Y-010700
X-008730Y-010700
X-008730Y-015700
X-013730Y-015700
X-018950Y-009750
X-023950Y-009750
X-023950Y-013750
X-018950Y-013750
X-002000Y011700
X-007000Y011700
X-007000Y007800
X-002000Y007800
X003800Y013700
X008800Y013700
X008800Y009700
X003800Y009700
X003800Y-004300
X008800Y-004300
X008800Y-009300
X003800Y-009300
X-002000Y005100
X-007000Y005100
X-007000Y001100
X-002000Y001100
X-018800Y-026600
X-013800Y-026600
X-011800Y-026600
X-006800Y-026600
X016200Y-019600
X011200Y-019600
X008200Y-019600
X003200Y-019600
X-000800Y-019600
X-005800Y-019600
X-005800Y-026600
X-000800Y-026600
X019200Y-026600
X014200Y-026600
X009200Y-026600
X004200Y-026600
X-010800Y-019600
X-015800Y-019600
X-017800Y-019600
X-022800Y-019600
X012800Y-013200
X012800Y-008200
X017800Y-008200
X017800Y-013200
X020400Y-012200
X020400Y-017200
X023400Y-017200
X028400Y-017200
X012800Y010000
X012800Y015000
X017800Y015000
X017800Y010000
X020400Y011000
X020400Y006000
X023400Y006000
X028400Y006000
X012800Y-002000
X012800Y003000
X017800Y003000
X017800Y-002000
X020400Y-001000
X020400Y-006000
X023400Y-006000
X028400Y-006000
T03
X-012000Y010400
X-012000Y011400
X-011000Y010400
X-011000Y011400
X-022000Y007600
X-022000Y008600
X-021000Y007600
X-021000Y008600
X-012400Y002400
X-012400Y003400
X-011400Y002400
X-011400Y003400
X-022000Y-000400
X-022000Y000600
X-021000Y-000400
X-021000Y000600
X-012400Y-006000
X-012400Y-005000
X-011400Y-006000
X-011400Y-005000
X-022000Y-008400
X-022000Y-007400
X-021000Y-008400
X-021000Y-007400
X-012400Y-013600
X-012400Y-012600
X-011400Y-013600
X-011400Y-012600
X-022000Y-016800
X-022000Y-015800
X-021000Y-016800
X-021000Y-015800
X022400Y-024000
X022400Y-023000
X-004800Y-002800
X-004800Y-001800
X-003800Y-002800
X-003800Y-001800
X007200Y000000
X006200Y000000
X007200Y001000
X006200Y001000
X007200Y002000
X006200Y002000
X007200Y003000
X006200Y003000
X007200Y004000
X006200Y004000
X000400Y-013600
X000400Y-012600
X001400Y-013600
X001400Y-012600
T04
X010845Y-002691
X009649Y001468
X023372Y-012916
X002118Y-020017
M30
