;Holesize 1 =   28.0 PLATED MILS
;Holesize 2 =   14.0 PLATED MILS
M48
INCH
T01C0.028
T02C0.014
%
G05
G90
T01
X-021580Y038650
X-022580Y038650
X-023580Y038650
X-024580Y038650
X-025580Y038650
X-026580Y038650
X-027580Y038650
X-027580Y035650
X-026580Y035650
X-025580Y035650
X-024580Y035650
X-023580Y035650
X-022580Y035650
X-021580Y035650
X-008580Y029650
X-009580Y029650
X-010580Y029650
X-011580Y029650
X-012580Y029650
X-013580Y029650
X-014580Y029650
X-014580Y026650
X-013580Y026650
X-012580Y026650
X-011580Y026650
X-010580Y026650
X-009580Y026650
X-008580Y026650
X-008580Y038650
X-009580Y038650
X-010580Y038650
X-011580Y038650
X-012580Y038650
X-013580Y038650
X-014580Y038650
X-014580Y035650
X-013580Y035650
X-012580Y035650
X-011580Y035650
X-010580Y035650
X-009580Y035650
X-008580Y035650
X-021580Y020650
X-022580Y020650
X-023580Y020650
X-024580Y020650
X-025580Y020650
X-026580Y020650
X-027580Y020650
X-027580Y017650
X-026580Y017650
X-025580Y017650
X-024580Y017650
X-023580Y017650
X-022580Y017650
X-021580Y017650
X-008580Y002650
X-009580Y002650
X-010580Y002650
X-011580Y002650
X-012580Y002650
X-013580Y002650
X-014580Y002650
X-014580Y-000350
X-013580Y-000350
X-012580Y-000350
X-011580Y-000350
X-010580Y-000350
X-009580Y-000350
X-008580Y-000350
X-008580Y011650
X-009580Y011650
X-010580Y011650
X-011580Y011650
X-012580Y011650
X-013580Y011650
X-014580Y011650
X-014580Y008650
X-013580Y008650
X-012580Y008650
X-011580Y008650
X-010580Y008650
X-009580Y008650
X-008580Y008650
X-021580Y011650
X-022580Y011650
X-023580Y011650
X-024580Y011650
X-025580Y011650
X-026580Y011650
X-027580Y011650
X-027580Y008650
X-026580Y008650
X-025580Y008650
X-024580Y008650
X-023580Y008650
X-022580Y008650
X-021580Y008650
X-008580Y020650
X-009580Y020650
X-010580Y020650
X-011580Y020650
X-012580Y020650
X-013580Y020650
X-014580Y020650
X-014580Y017650
X-013580Y017650
X-012580Y017650
X-011580Y017650
X-010580Y017650
X-009580Y017650
X-008580Y017650
X-021500Y030000
X-022500Y030000
X-023500Y030000
X-024500Y030000
X-025500Y030000
X-026500Y030000
X-027500Y030000
X-027500Y027000
X-026500Y027000
X-025500Y027000
X-024500Y027000
X-023500Y027000
X-022500Y027000
X-021500Y027000
X004420Y029650
X003420Y029650
X002420Y029650
X001420Y029650
X000420Y029650
X-000580Y029650
X-001580Y029650
X-001580Y026650
X-000580Y026650
X000420Y026650
X001420Y026650
X002420Y026650
X003420Y026650
X004420Y026650
X004420Y020650
X003420Y020650
X002420Y020650
X001420Y020650
X000420Y020650
X-000580Y020650
X-001580Y020650
X-001580Y017650
X-000580Y017650
X000420Y017650
X001420Y017650
X002420Y017650
X003420Y017650
X004420Y017650
X004420Y011650
X003420Y011650
X002420Y011650
X001420Y011650
X000420Y011650
X-000580Y011650
X-001580Y011650
X-001580Y008650
X-000580Y008650
X000420Y008650
X001420Y008650
X002420Y008650
X003420Y008650
X004420Y008650
X004420Y002650
X003420Y002650
X002420Y002650
X001420Y002650
X000420Y002650
X-000580Y002650
X-001580Y002650
X-001580Y-000350
X-000580Y-000350
X000420Y-000350
X001420Y-000350
X002420Y-000350
X003420Y-000350
X004420Y-000350
X003670Y-006100
X002670Y-006100
X001670Y-006100
X000670Y-006100
X-000330Y-006100
X-001330Y-006100
X-002330Y-006100
X-002330Y-009100
X-001330Y-009100
X-000330Y-009100
X000670Y-009100
X001670Y-009100
X002670Y-009100
X003670Y-009100
X-021580Y-005850
X-022580Y-005850
X-023580Y-005850
X-024580Y-005850
X-025580Y-005850
X-026580Y-005850
X-027580Y-005850
X-027580Y-008850
X-026580Y-008850
X-025580Y-008850
X-024580Y-008850
X-023580Y-008850
X-022580Y-008850
X-021580Y-008850
X-009500Y-006000
X-010500Y-006000
X-011500Y-006000
X-012500Y-006000
X-013500Y-006000
X-014500Y-006000
X-015500Y-006000
X-015500Y-009000
X-014500Y-009000
X-013500Y-009000
X-012500Y-009000
X-011500Y-009000
X-010500Y-009000
X-009500Y-009000
X017170Y-013350
X016170Y-013350
X015170Y-013350
X014170Y-013350
X013170Y-013350
X012170Y-013350
X011170Y-013350
X011170Y-016350
X012170Y-016350
X013170Y-016350
X014170Y-016350
X015170Y-016350
X016170Y-016350
X017170Y-016350
X017420Y038650
X016420Y038650
X015420Y038650
X014420Y038650
X013420Y038650
X012420Y038650
X011420Y038650
X011420Y035650
X012420Y035650
X013420Y035650
X014420Y035650
X015420Y035650
X016420Y035650
X017420Y035650
X004420Y038650
X003420Y038650
X002420Y038650
X001420Y038650
X000420Y038650
X-000580Y038650
X-001580Y038650
X-001580Y035650
X-000580Y035650
X000420Y035650
X001420Y035650
X002420Y035650
X003420Y035650
X004420Y035650
X017420Y029650
X016420Y029650
X015420Y029650
X014420Y029650
X013420Y029650
X012420Y029650
X011420Y029650
X011420Y026650
X012420Y026650
X013420Y026650
X014420Y026650
X015420Y026650
X016420Y026650
X017420Y026650
X017420Y020650
X016420Y020650
X015420Y020650
X014420Y020650
X013420Y020650
X012420Y020650
X011420Y020650
X011420Y017650
X012420Y017650
X013420Y017650
X014420Y017650
X015420Y017650
X016420Y017650
X017420Y017650
X017420Y011650
X016420Y011650
X015420Y011650
X014420Y011650
X013420Y011650
X012420Y011650
X011420Y011650
X011420Y008650
X012420Y008650
X013420Y008650
X014420Y008650
X015420Y008650
X016420Y008650
X017420Y008650
X017420Y002650
X016420Y002650
X015420Y002650
X014420Y002650
X013420Y002650
X012420Y002650
X011420Y002650
X011420Y-000350
X012420Y-000350
X013420Y-000350
X014420Y-000350
X015420Y-000350
X016420Y-000350
X017420Y-000350
X015920Y-006350
X014920Y-006350
X013920Y-006350
X012920Y-006350
X011920Y-006350
X010920Y-006350
X009920Y-006350
X009920Y-009350
X010920Y-009350
X011920Y-009350
X012920Y-009350
X013920Y-009350
X014920Y-009350
X015920Y-009350
X-021500Y003000
X-022500Y003000
X-023500Y003000
X-024500Y003000
X-025500Y003000
X-026500Y003000
X-027500Y003000
X-027500Y000000
X-026500Y000000
X-025500Y000000
X-024500Y000000
X-023500Y000000
X-022500Y000000
X-021500Y000000
X-016000Y-015500
X-016000Y-014500
X-015000Y-015500
X-015000Y-014500
X-014000Y-015500
X-014000Y-014500
X-013000Y-015500
X-013000Y-014500
X-012000Y-015500
X-012000Y-014500
X-011000Y-015500
X-011000Y-014500
X-010000Y-015500
X-010000Y-014500
X-009000Y-015500
X-009000Y-014500
X-008000Y-015500
X-008000Y-014500
X-007000Y-015500
X-007000Y-014500
X-006000Y-015500
X-006000Y-014500
X-005000Y-015500
X-005000Y-014500
X-004000Y-015500
X-004000Y-014500
X-003000Y-015500
X-003000Y-014500
X-002000Y-015500
X-002000Y-014500
X-001000Y-015500
X-001000Y-014500
X000000Y-015500
X000000Y-014500
X001000Y-015500
X001000Y-014500
X002000Y-015500
X002000Y-014500
X003000Y-015500
X003000Y-014500
X004000Y-015500
X004000Y-014500
X005000Y-015500
X005000Y-014500
X006000Y-015500
X006000Y-014500
X007000Y-015500
X007000Y-014500
X008000Y-015500
X008000Y-014500
T02
X-014554Y024191
X000235Y-016697
X010530Y-013388
X-005509Y-011218
X-002543Y-011805
X-004000Y035400
X-006400Y034600
X-006400Y032400
X-002600Y032400
X005345Y-012335
X013826Y-011973
X003420Y034664
X-015740Y015121
X-000883Y-011718
X-001513Y-012899
X003854Y027555
X-022541Y023073
X-007068Y-017873
X005964Y019665
X-001363Y-011718
X-003822Y-012692
X-005448Y015430
X-002094Y-007080
X-021264Y023417
X-012301Y030489
X005995Y-006587
X-023580Y-004611
X-008063Y-002950
X005323Y011762
X006574Y-006612
X014205Y013961
X-008453Y-002646
X-005125Y016535
X-013458Y024517
X-016329Y016723
X-007088Y-016328
X006991Y001747
X-013632Y022655
X-015462Y-013046
X-016860Y020608
X008051Y018435
X016736Y-014647
X-017586Y009787
X-013946Y-010415
X-005615Y002766
X-004625Y-006909
X-009912Y-017716
X-001220Y-017978
X-013500Y-007421
X-000579Y-012108
X011881Y-011592
X-016417Y017341
M30
