G04 FreePCB version 1.343*
G04 Z:\trinary\code\bb\CAM-logic\top_copper.grb*
G04 top copper layer *
G04 Scale: 100 percent, Rotated: No, Reflected: No *
%FSLAX24Y24*%
%MOIN*%
%LNTop*%
%ADD10C,0.005000*%
%ADD11R,0.055000X0.055000*%
%ADD12C,0.055000*%
%ADD13R,0.050000X0.050000*%
%ADD14C,0.050000*%
%ADD15C,0.028000*%
%ADD16C,0.010000*%
G90*
G70D02*

G04 Step and Repeat for panelization *

G04 ----------------------- Draw board outline (positive)*
%LPD*%
G54D10*
G01X-30000Y40000D02*
G01X20000Y40000D01*
G04 end of side 1*
G01X20000Y-20000D01*
G04 end of side 2*
G01X-30000Y-20000D01*
G04 end of side 3*
G01X-30000Y40000D01*

G04 -------------- Draw Parts, Pads, Traces, Vias and Text (positive)*
%LPD*%
G04 Draw part IC_CD4007_1*
G54D11*
G01X-21580Y38650D03*
G54D12*
G01X-22580Y38650D03*
G01X-23580Y38650D03*
G01X-24580Y38650D03*
G01X-25580Y38650D03*
G01X-26580Y38650D03*
G01X-27580Y38650D03*
G01X-27580Y35650D03*
G01X-26580Y35650D03*
G01X-25580Y35650D03*
G01X-24580Y35650D03*
G01X-23580Y35650D03*
G01X-22580Y35650D03*
G01X-21580Y35650D03*
G04 Draw part IC_MDP1403-12K_2*
G54D11*
G01X-8580Y29650D03*
G54D12*
G01X-9580Y29650D03*
G01X-10580Y29650D03*
G01X-11580Y29650D03*
G01X-12580Y29650D03*
G01X-13580Y29650D03*
G01X-14580Y29650D03*
G01X-14580Y26650D03*
G01X-13580Y26650D03*
G01X-12580Y26650D03*
G01X-11580Y26650D03*
G01X-10580Y26650D03*
G01X-9580Y26650D03*
G01X-8580Y26650D03*
G04 Draw part IC_CD4007_3*
G54D11*
G01X-8580Y38650D03*
G54D12*
G01X-9580Y38650D03*
G01X-10580Y38650D03*
G01X-11580Y38650D03*
G01X-12580Y38650D03*
G01X-13580Y38650D03*
G01X-14580Y38650D03*
G01X-14580Y35650D03*
G01X-13580Y35650D03*
G01X-12580Y35650D03*
G01X-11580Y35650D03*
G01X-10580Y35650D03*
G01X-9580Y35650D03*
G01X-8580Y35650D03*
G04 Draw part IC_CD4007_4*
G54D11*
G01X-21580Y20650D03*
G54D12*
G01X-22580Y20650D03*
G01X-23580Y20650D03*
G01X-24580Y20650D03*
G01X-25580Y20650D03*
G01X-26580Y20650D03*
G01X-27580Y20650D03*
G01X-27580Y17650D03*
G01X-26580Y17650D03*
G01X-25580Y17650D03*
G01X-24580Y17650D03*
G01X-23580Y17650D03*
G01X-22580Y17650D03*
G01X-21580Y17650D03*
G04 Draw part IC_MDP1403-12K_5*
G54D11*
G01X-8580Y2650D03*
G54D12*
G01X-9580Y2650D03*
G01X-10580Y2650D03*
G01X-11580Y2650D03*
G01X-12580Y2650D03*
G01X-13580Y2650D03*
G01X-14580Y2650D03*
G01X-14580Y-350D03*
G01X-13580Y-350D03*
G01X-12580Y-350D03*
G01X-11580Y-350D03*
G01X-10580Y-350D03*
G01X-9580Y-350D03*
G01X-8580Y-350D03*
G04 Draw part IC_CD4007_6*
G54D11*
G01X-8580Y11650D03*
G54D12*
G01X-9580Y11650D03*
G01X-10580Y11650D03*
G01X-11580Y11650D03*
G01X-12580Y11650D03*
G01X-13580Y11650D03*
G01X-14580Y11650D03*
G01X-14580Y8650D03*
G01X-13580Y8650D03*
G01X-12580Y8650D03*
G01X-11580Y8650D03*
G01X-10580Y8650D03*
G01X-9580Y8650D03*
G01X-8580Y8650D03*
G04 Draw part IC_CD4007_7*
G54D11*
G01X-21580Y11650D03*
G54D12*
G01X-22580Y11650D03*
G01X-23580Y11650D03*
G01X-24580Y11650D03*
G01X-25580Y11650D03*
G01X-26580Y11650D03*
G01X-27580Y11650D03*
G01X-27580Y8650D03*
G01X-26580Y8650D03*
G01X-25580Y8650D03*
G01X-24580Y8650D03*
G01X-23580Y8650D03*
G01X-22580Y8650D03*
G01X-21580Y8650D03*
G04 Draw part IC_MDP1403-12K_8*
G54D11*
G01X-8580Y20650D03*
G54D12*
G01X-9580Y20650D03*
G01X-10580Y20650D03*
G01X-11580Y20650D03*
G01X-12580Y20650D03*
G01X-13580Y20650D03*
G01X-14580Y20650D03*
G01X-14580Y17650D03*
G01X-13580Y17650D03*
G01X-12580Y17650D03*
G01X-11580Y17650D03*
G01X-10580Y17650D03*
G01X-9580Y17650D03*
G01X-8580Y17650D03*
G04 Draw part IC_CD4007_9*
G54D11*
G01X-21500Y30000D03*
G54D12*
G01X-22500Y30000D03*
G01X-23500Y30000D03*
G01X-24500Y30000D03*
G01X-25500Y30000D03*
G01X-26500Y30000D03*
G01X-27500Y30000D03*
G01X-27500Y27000D03*
G01X-26500Y27000D03*
G01X-25500Y27000D03*
G01X-24500Y27000D03*
G01X-23500Y27000D03*
G01X-22500Y27000D03*
G01X-21500Y27000D03*
G04 Draw part IC_CD4007_10*
G54D11*
G01X4420Y29650D03*
G54D12*
G01X3420Y29650D03*
G01X2420Y29650D03*
G01X1420Y29650D03*
G01X420Y29650D03*
G01X-580Y29650D03*
G01X-1580Y29650D03*
G01X-1580Y26650D03*
G01X-580Y26650D03*
G01X420Y26650D03*
G01X1420Y26650D03*
G01X2420Y26650D03*
G01X3420Y26650D03*
G01X4420Y26650D03*
G04 Draw part IC_CD4007_11*
G54D11*
G01X4420Y20650D03*
G54D12*
G01X3420Y20650D03*
G01X2420Y20650D03*
G01X1420Y20650D03*
G01X420Y20650D03*
G01X-580Y20650D03*
G01X-1580Y20650D03*
G01X-1580Y17650D03*
G01X-580Y17650D03*
G01X420Y17650D03*
G01X1420Y17650D03*
G01X2420Y17650D03*
G01X3420Y17650D03*
G01X4420Y17650D03*
G04 Draw part IC_MDP1403-12K_12*
G54D11*
G01X4420Y11650D03*
G54D12*
G01X3420Y11650D03*
G01X2420Y11650D03*
G01X1420Y11650D03*
G01X420Y11650D03*
G01X-580Y11650D03*
G01X-1580Y11650D03*
G01X-1580Y8650D03*
G01X-580Y8650D03*
G01X420Y8650D03*
G01X1420Y8650D03*
G01X2420Y8650D03*
G01X3420Y8650D03*
G01X4420Y8650D03*
G04 Draw part IC_CD4007_13*
G54D11*
G01X4420Y2650D03*
G54D12*
G01X3420Y2650D03*
G01X2420Y2650D03*
G01X1420Y2650D03*
G01X420Y2650D03*
G01X-580Y2650D03*
G01X-1580Y2650D03*
G01X-1580Y-350D03*
G01X-580Y-350D03*
G01X420Y-350D03*
G01X1420Y-350D03*
G01X2420Y-350D03*
G01X3420Y-350D03*
G01X4420Y-350D03*
G04 Draw part IC_CD4007_14*
G54D11*
G01X3670Y-6100D03*
G54D12*
G01X2670Y-6100D03*
G01X1670Y-6100D03*
G01X670Y-6100D03*
G01X-330Y-6100D03*
G01X-1330Y-6100D03*
G01X-2330Y-6100D03*
G01X-2330Y-9100D03*
G01X-1330Y-9100D03*
G01X-330Y-9100D03*
G01X670Y-9100D03*
G01X1670Y-9100D03*
G01X2670Y-9100D03*
G01X3670Y-9100D03*
G04 Draw part IC_CD4007_15*
G54D11*
G01X-21580Y-5850D03*
G54D12*
G01X-22580Y-5850D03*
G01X-23580Y-5850D03*
G01X-24580Y-5850D03*
G01X-25580Y-5850D03*
G01X-26580Y-5850D03*
G01X-27580Y-5850D03*
G01X-27580Y-8850D03*
G01X-26580Y-8850D03*
G01X-25580Y-8850D03*
G01X-24580Y-8850D03*
G01X-23580Y-8850D03*
G01X-22580Y-8850D03*
G01X-21580Y-8850D03*
G04 Draw part IC_MDP1403-12K_16*
G54D11*
G01X-9500Y-6000D03*
G54D12*
G01X-10500Y-6000D03*
G01X-11500Y-6000D03*
G01X-12500Y-6000D03*
G01X-13500Y-6000D03*
G01X-14500Y-6000D03*
G01X-15500Y-6000D03*
G01X-15500Y-9000D03*
G01X-14500Y-9000D03*
G01X-13500Y-9000D03*
G01X-12500Y-9000D03*
G01X-11500Y-9000D03*
G01X-10500Y-9000D03*
G01X-9500Y-9000D03*
G04 Draw part IC_CD4007_17*
G54D11*
G01X17170Y-13350D03*
G54D12*
G01X16170Y-13350D03*
G01X15170Y-13350D03*
G01X14170Y-13350D03*
G01X13170Y-13350D03*
G01X12170Y-13350D03*
G01X11170Y-13350D03*
G01X11170Y-16350D03*
G01X12170Y-16350D03*
G01X13170Y-16350D03*
G01X14170Y-16350D03*
G01X15170Y-16350D03*
G01X16170Y-16350D03*
G01X17170Y-16350D03*
G04 Draw part IC_MDP1403-12K_18*
G54D11*
G01X17420Y38650D03*
G54D12*
G01X16420Y38650D03*
G01X15420Y38650D03*
G01X14420Y38650D03*
G01X13420Y38650D03*
G01X12420Y38650D03*
G01X11420Y38650D03*
G01X11420Y35650D03*
G01X12420Y35650D03*
G01X13420Y35650D03*
G01X14420Y35650D03*
G01X15420Y35650D03*
G01X16420Y35650D03*
G01X17420Y35650D03*
G04 Draw part IC_CD4007_19*
G54D11*
G01X4420Y38650D03*
G54D12*
G01X3420Y38650D03*
G01X2420Y38650D03*
G01X1420Y38650D03*
G01X420Y38650D03*
G01X-580Y38650D03*
G01X-1580Y38650D03*
G01X-1580Y35650D03*
G01X-580Y35650D03*
G01X420Y35650D03*
G01X1420Y35650D03*
G01X2420Y35650D03*
G01X3420Y35650D03*
G01X4420Y35650D03*
G04 Draw part IC_CD4007_20*
G54D11*
G01X17420Y29650D03*
G54D12*
G01X16420Y29650D03*
G01X15420Y29650D03*
G01X14420Y29650D03*
G01X13420Y29650D03*
G01X12420Y29650D03*
G01X11420Y29650D03*
G01X11420Y26650D03*
G01X12420Y26650D03*
G01X13420Y26650D03*
G01X14420Y26650D03*
G01X15420Y26650D03*
G01X16420Y26650D03*
G01X17420Y26650D03*
G04 Draw part IC_MDP1403-12K_21*
G54D11*
G01X17420Y20650D03*
G54D12*
G01X16420Y20650D03*
G01X15420Y20650D03*
G01X14420Y20650D03*
G01X13420Y20650D03*
G01X12420Y20650D03*
G01X11420Y20650D03*
G01X11420Y17650D03*
G01X12420Y17650D03*
G01X13420Y17650D03*
G01X14420Y17650D03*
G01X15420Y17650D03*
G01X16420Y17650D03*
G01X17420Y17650D03*
G04 Draw part IC_CD4007_22*
G54D11*
G01X17420Y11650D03*
G54D12*
G01X16420Y11650D03*
G01X15420Y11650D03*
G01X14420Y11650D03*
G01X13420Y11650D03*
G01X12420Y11650D03*
G01X11420Y11650D03*
G01X11420Y8650D03*
G01X12420Y8650D03*
G01X13420Y8650D03*
G01X14420Y8650D03*
G01X15420Y8650D03*
G01X16420Y8650D03*
G01X17420Y8650D03*
G04 Draw part IC_CD4007_23*
G54D11*
G01X17420Y2650D03*
G54D12*
G01X16420Y2650D03*
G01X15420Y2650D03*
G01X14420Y2650D03*
G01X13420Y2650D03*
G01X12420Y2650D03*
G01X11420Y2650D03*
G01X11420Y-350D03*
G01X12420Y-350D03*
G01X13420Y-350D03*
G01X14420Y-350D03*
G01X15420Y-350D03*
G01X16420Y-350D03*
G01X17420Y-350D03*
G04 Draw part IC_MDP1403-12K_24*
G54D11*
G01X15920Y-6350D03*
G54D12*
G01X14920Y-6350D03*
G01X13920Y-6350D03*
G01X12920Y-6350D03*
G01X11920Y-6350D03*
G01X10920Y-6350D03*
G01X9920Y-6350D03*
G01X9920Y-9350D03*
G01X10920Y-9350D03*
G01X11920Y-9350D03*
G01X12920Y-9350D03*
G01X13920Y-9350D03*
G01X14920Y-9350D03*
G01X15920Y-9350D03*
G04 Draw part IC_CD4007_25*
G54D11*
G01X-21500Y3000D03*
G54D12*
G01X-22500Y3000D03*
G01X-23500Y3000D03*
G01X-24500Y3000D03*
G01X-25500Y3000D03*
G01X-26500Y3000D03*
G01X-27500Y3000D03*
G01X-27500Y0D03*
G01X-26500Y0D03*
G01X-25500Y0D03*
G01X-24500Y0D03*
G01X-23500Y0D03*
G01X-22500Y0D03*
G01X-21500Y0D03*
G04 Draw part LOGIC*
G54D13*
G01X-16000Y-15500D03*
G54D14*
G01X-16000Y-14500D03*
G01X-15000Y-15500D03*
G01X-15000Y-14500D03*
G01X-14000Y-15500D03*
G01X-14000Y-14500D03*
G01X-13000Y-15500D03*
G01X-13000Y-14500D03*
G01X-12000Y-15500D03*
G01X-12000Y-14500D03*
G01X-11000Y-15500D03*
G01X-11000Y-14500D03*
G01X-10000Y-15500D03*
G01X-10000Y-14500D03*
G01X-9000Y-15500D03*
G01X-9000Y-14500D03*
G01X-8000Y-15500D03*
G01X-8000Y-14500D03*
G01X-7000Y-15500D03*
G01X-7000Y-14500D03*
G01X-6000Y-15500D03*
G01X-6000Y-14500D03*
G01X-5000Y-15500D03*
G01X-5000Y-14500D03*
G01X-4000Y-15500D03*
G01X-4000Y-14500D03*
G01X-3000Y-15500D03*
G01X-3000Y-14500D03*
G01X-2000Y-15500D03*
G01X-2000Y-14500D03*
G01X-1000Y-15500D03*
G01X-1000Y-14500D03*
G01X0Y-15500D03*
G01X0Y-14500D03*
G01X1000Y-15500D03*
G01X1000Y-14500D03*
G01X2000Y-15500D03*
G01X2000Y-14500D03*
G01X3000Y-15500D03*
G01X3000Y-14500D03*
G01X4000Y-15500D03*
G01X4000Y-14500D03*
G01X5000Y-15500D03*
G01X5000Y-14500D03*
G01X6000Y-15500D03*
G01X6000Y-14500D03*
G01X7000Y-15500D03*
G01X7000Y-14500D03*
G01X8000Y-15500D03*
G01X8000Y-14500D03*

G04 Draw traces*
G54D15*
G01X-14554Y24191D03*
G54D16*
G01X-14554Y24191D02*
G01X-11580Y21217D01*
G01X-11580Y21217D02*
G01X-11580Y20650D01*
G01X-10000Y-15500D02*
G01X-10000Y-15701D01*
G01X-10000Y-15701D02*
G01X-7333Y-18368D01*
G01X-7333Y-18368D02*
G01X7761Y-18368D01*
G01X7761Y-18368D02*
G01X9893Y-16237D01*
G01X9893Y-16237D02*
G01X9893Y-13029D01*
G01X9893Y-13029D02*
G01X11920Y-11002D01*
G01X11920Y-11002D02*
G01X11920Y-9350D01*
G01X0Y-14500D02*
G01X0Y-13788D01*
G01X0Y-13788D02*
G01X-1279Y-12509D01*
G01X-1279Y-12509D02*
G01X-1690Y-12509D01*
G01X-1690Y-12509D02*
G01X-2153Y-12046D01*
G01X-2153Y-12046D02*
G01X-2153Y-11987D01*
G01X-2153Y-11987D02*
G01X-2153Y-11987D01*
G01X-2153Y-11987D02*
G01X-2153Y-11643D01*
G01X-2153Y-11643D02*
G01X-2665Y-11132D01*
G01X-2665Y-11132D02*
G01X-2941Y-11132D01*
G01X-2941Y-11132D02*
G01X-5749Y-8323D01*
G01X-5749Y-8323D02*
G01X-5749Y-2295D01*
G01X-5749Y-2295D02*
G01X-6006Y-2039D01*
G01X-6006Y-2039D02*
G01X-6006Y14870D01*
G01X-6006Y14870D02*
G01X-7306Y16170D01*
G01X-7306Y16170D02*
G01X-7306Y20705D01*
G01X-7306Y20705D02*
G01X-10701Y24100D01*
G01X-10701Y24100D02*
G01X-13244Y24100D01*
G01X-13244Y24100D02*
G01X-13270Y24127D01*
G01X-13270Y24127D02*
G01X-13620Y24127D01*
G01X-13620Y24127D02*
G01X-13848Y24356D01*
G01X-13848Y24356D02*
G01X-13848Y24422D01*
G01X-13848Y24422D02*
G01X-15624Y26198D01*
G01X-15624Y26198D02*
G01X-15624Y36369D01*
G01X-15624Y36369D02*
G01X-15624Y36369D01*
G01X-15624Y36369D02*
G01X-18813Y39558D01*
G01X-18813Y39558D02*
G01X-25898Y39558D01*
G01X-25898Y39558D02*
G01X-26580Y38877D01*
G01X-26580Y38877D02*
G01X-26580Y38650D01*
G01X-13580Y38650D02*
G01X-13580Y38414D01*
G01X-13580Y38414D02*
G01X-15624Y36369D01*
G54D15*
G01X235Y-16697D03*
G54D16*
G01X235Y-16697D02*
G01X507Y-16969D01*
G01X507Y-16969D02*
G01X8520Y-16969D01*
G01X8520Y-16969D02*
G01X9482Y-16007D01*
G01X9482Y-16007D02*
G01X9482Y-12481D01*
G01X9482Y-12481D02*
G01X8627Y-11626D01*
G01X8627Y-11626D02*
G01X8627Y30608D01*
G01X8627Y30608D02*
G01X5411Y33824D01*
G01X5411Y33824D02*
G01X11145Y39558D01*
G01X11145Y39558D02*
G01X15738Y39558D01*
G01X15738Y39558D02*
G01X16420Y38877D01*
G01X16420Y38877D02*
G01X16420Y38650D01*
G01X3420Y35650D02*
G01X3420Y35478D01*
G01X3420Y35478D02*
G01X5073Y33824D01*
G01X5073Y33824D02*
G01X5411Y33824D01*
G01X11170Y-16350D02*
G01X10340Y-15520D01*
G01X10340Y-15520D02*
G01X10340Y-13402D01*
G01X10340Y-13402D02*
G01X10355Y-13388D01*
G01X10355Y-13388D02*
G01X10530Y-13388D01*
G54D15*
G01X10530Y-13388D03*
G01X-5509Y-11218D03*
G54D16*
G01X-5509Y-11218D02*
G01X-6000Y-11218D01*
G01X-6000Y-11218D02*
G01X-6550Y-10668D01*
G01X-6550Y-10668D02*
G01X-6550Y-3571D01*
G01X-6550Y-3571D02*
G01X-8126Y-1995D01*
G01X-8126Y-1995D02*
G01X-10724Y-1995D01*
G01X-10724Y-1995D02*
G01X-14500Y-5770D01*
G01X-14500Y-5770D02*
G01X-14500Y-6000D01*
G01X-6000Y-14500D02*
G01X-6000Y-11218D01*
G54D15*
G01X-2543Y-11805D03*
G54D16*
G01X-2543Y-11805D02*
G01X-2614Y-11805D01*
G01X-2614Y-11805D02*
G01X-5949Y-8470D01*
G01X-5949Y-8470D02*
G01X-5949Y-2378D01*
G01X-5949Y-2378D02*
G01X-6206Y-2122D01*
G01X-6206Y-2122D02*
G01X-6206Y14787D01*
G01X-6206Y14787D02*
G01X-8580Y17161D01*
G01X-8580Y17161D02*
G01X-8580Y17650D01*
G01X-27580Y38650D02*
G01X-27580Y38455D01*
G01X-27580Y38455D02*
G01X-26912Y37788D01*
G01X-26912Y37788D02*
G01X-25163Y37788D01*
G01X-25163Y37788D02*
G01X-24580Y38371D01*
G01X-24580Y38371D02*
G01X-24580Y38650D01*
G01X-24580Y11650D02*
G01X-24580Y11871D01*
G01X-24580Y11871D02*
G01X-25185Y12477D01*
G01X-25185Y12477D02*
G01X-26947Y12477D01*
G01X-26947Y12477D02*
G01X-28408Y13937D01*
G01X-28408Y13937D02*
G01X-28408Y19822D01*
G01X-28408Y19822D02*
G01X-27580Y20650D01*
G01X-27500Y30000D02*
G01X-28340Y29159D01*
G01X-28340Y29159D02*
G01X-28340Y21410D01*
G01X-28340Y21410D02*
G01X-27580Y20650D01*
G01X-27500Y3000D02*
G01X-28419Y3919D01*
G01X-28419Y3919D02*
G01X-28419Y10810D01*
G01X-28419Y10810D02*
G01X-27580Y11650D01*
G01X-1580Y29650D02*
G01X-1580Y30544D01*
G01X-1580Y30544D02*
G01X727Y30544D01*
G01X727Y30544D02*
G01X1420Y29851D01*
G01X1420Y29851D02*
G01X1420Y29650D01*
G01X-1580Y20650D02*
G01X-2406Y21476D01*
G01X-2406Y21476D02*
G01X-2406Y28823D01*
G01X-2406Y28823D02*
G01X-1580Y29650D01*
G01X-2330Y-6100D02*
G01X-2408Y-6021D01*
G01X-2408Y-6021D02*
G01X-2408Y1821D01*
G01X-2408Y1821D02*
G01X-1580Y2650D01*
G01X-2330Y-6100D02*
G01X-2330Y-6293D01*
G01X-2330Y-6293D02*
G01X-1678Y-6945D01*
G01X-1678Y-6945D02*
G01X61Y-6945D01*
G01X61Y-6945D02*
G01X670Y-6337D01*
G01X670Y-6337D02*
G01X670Y-6100D01*
G01X-27500Y3000D02*
G01X-28368Y2131D01*
G01X-28368Y2131D02*
G01X-28368Y-5061D01*
G01X-28368Y-5061D02*
G01X-27580Y-5850D01*
G01X11420Y11650D02*
G01X11420Y11451D01*
G01X11420Y11451D02*
G01X12095Y10776D01*
G01X12095Y10776D02*
G01X13824Y10776D01*
G01X13824Y10776D02*
G01X14420Y11371D01*
G01X14420Y11371D02*
G01X14420Y11650D01*
G01X-14000Y-15500D02*
G01X-14000Y-14500D01*
G01X-27580Y11650D02*
G01X-27580Y11844D01*
G01X-27580Y11844D02*
G01X-26947Y12477D01*
G01X14420Y2650D02*
G01X14420Y4265D01*
G01X14420Y4265D02*
G01X10557Y8128D01*
G01X10557Y8128D02*
G01X10557Y9239D01*
G01X10557Y9239D02*
G01X12095Y10776D01*
G01X-27500Y30000D02*
G01X-28411Y30911D01*
G01X-28411Y30911D02*
G01X-28411Y36289D01*
G01X-28411Y36289D02*
G01X-26912Y37788D01*
G01X-1580Y38650D02*
G01X-2150Y38650D01*
G01X-2150Y38650D02*
G01X-3000Y37800D01*
G01X-3000Y37800D02*
G01X-3000Y36400D01*
G01X-3000Y36400D02*
G01X-4000Y35400D01*
G54D15*
G01X-4000Y35400D03*
G01X-6400Y34600D03*
G54D16*
G01X-6400Y34600D02*
G01X-6400Y32400D01*
G54D15*
G01X-6400Y32400D03*
G01X-2600Y32400D03*
G54D16*
G01X-2600Y32400D02*
G01X-1600Y31400D01*
G01X-1600Y31400D02*
G01X-1600Y29600D01*
G01X-1600Y29600D02*
G01X-1580Y29650D01*
G54D15*
G01X5345Y-12335D03*
G54D16*
G01X5345Y-12335D02*
G01X5345Y-6233D01*
G01X5345Y-6233D02*
G01X5445Y-6133D01*
G01X5445Y-6133D02*
G01X5445Y2977D01*
G01X5445Y2977D02*
G01X900Y7523D01*
G01X900Y7523D02*
G01X265Y7523D01*
G01X265Y7523D02*
G01X-580Y8368D01*
G01X-580Y8368D02*
G01X-580Y8650D01*
G01X7000Y-15500D02*
G01X7000Y-14500D01*
G01X420Y2650D02*
G01X420Y4420D01*
G01X420Y4420D02*
G01X-2632Y7472D01*
G01X-2632Y7472D02*
G01X-2632Y9054D01*
G01X-2632Y9054D02*
G01X-1646Y10039D01*
G01X-1646Y10039D02*
G01X-1020Y10039D01*
G01X-1020Y10039D02*
G01X420Y11479D01*
G01X420Y11479D02*
G01X420Y11650D01*
G01X11420Y26650D02*
G01X10391Y27678D01*
G01X10391Y27678D02*
G01X10391Y37621D01*
G01X10391Y37621D02*
G01X11420Y38650D01*
G54D15*
G01X13826Y-11973D03*
G54D16*
G01X13826Y-11973D02*
G01X13170Y-12630D01*
G01X13170Y-12630D02*
G01X13170Y-13350D01*
G01X-22580Y17650D02*
G01X-22580Y20650D01*
G01X-21580Y35650D02*
G01X-21580Y37318D01*
G01X-21580Y37318D02*
G01X-22580Y38318D01*
G01X-22580Y38318D02*
G01X-22580Y38650D01*
G01X-8580Y35650D02*
G01X-8580Y36324D01*
G01X-8580Y36324D02*
G01X-9580Y37324D01*
G01X-9580Y37324D02*
G01X-9580Y38650D01*
G01X-21580Y8650D02*
G01X-20754Y9475D01*
G01X-20754Y9475D02*
G01X-20754Y16824D01*
G01X-20754Y16824D02*
G01X-21580Y17650D01*
G01X-21500Y27000D02*
G01X-20746Y26246D01*
G01X-20746Y26246D02*
G01X-20746Y18483D01*
G01X-20746Y18483D02*
G01X-21580Y17650D01*
G01X-21500Y0D02*
G01X-20674Y825D01*
G01X-20674Y825D02*
G01X-20674Y7744D01*
G01X-20674Y7744D02*
G01X-21580Y8650D01*
G54D15*
G01X3420Y34664D03*
G54D16*
G01X3420Y34664D02*
G01X3420Y29650D01*
G01X3420Y20650D02*
G01X3420Y24469D01*
G01X3420Y24469D02*
G01X4420Y25469D01*
G01X4420Y25469D02*
G01X4420Y26650D01*
G01X4420Y17650D02*
G01X4420Y18324D01*
G01X4420Y18324D02*
G01X3420Y19324D01*
G01X3420Y19324D02*
G01X3420Y20650D01*
G01X2670Y-6100D02*
G01X2670Y-2274D01*
G01X2670Y-2274D02*
G01X4420Y-524D01*
G01X4420Y-524D02*
G01X4420Y-350D01*
G01X3670Y-9100D02*
G01X3670Y-8767D01*
G01X3670Y-8767D02*
G01X2670Y-7767D01*
G01X2670Y-7767D02*
G01X2670Y-6100D01*
G01X-21500Y0D02*
G01X-21500Y-1150D01*
G01X-21500Y-1150D02*
G01X-22580Y-2230D01*
G01X-22580Y-2230D02*
G01X-22580Y-5850D01*
G01X-16000Y-14500D02*
G01X-21580Y-8920D01*
G01X-21580Y-8920D02*
G01X-21580Y-8850D01*
G01X17170Y-16350D02*
G01X17170Y-15648D01*
G01X17170Y-15648D02*
G01X16170Y-14648D01*
G01X16170Y-14648D02*
G01X16170Y-13350D01*
G01X17420Y-350D02*
G01X17420Y-9100D01*
G01X17420Y-9100D02*
G01X16170Y-10350D01*
G01X16170Y-10350D02*
G01X16170Y-13350D01*
G01X4420Y35650D02*
G01X4420Y36324D01*
G01X4420Y36324D02*
G01X3420Y37324D01*
G01X3420Y37324D02*
G01X3420Y38650D01*
G01X17420Y26650D02*
G01X17420Y27324D01*
G01X17420Y27324D02*
G01X16420Y28324D01*
G01X16420Y28324D02*
G01X16420Y29650D01*
G01X17420Y8650D02*
G01X17420Y9324D01*
G01X17420Y9324D02*
G01X16420Y10324D01*
G01X16420Y10324D02*
G01X16420Y11650D01*
G01X16420Y2650D02*
G01X16420Y6469D01*
G01X16420Y6469D02*
G01X17420Y7469D01*
G01X17420Y7469D02*
G01X17420Y8650D01*
G01X-16000Y-15500D02*
G01X-16000Y-14500D01*
G01X-8580Y20650D02*
G01X-8580Y19824D01*
G01X-8580Y19824D02*
G01X-9621Y18783D01*
G01X-9621Y18783D02*
G01X-14660Y18783D01*
G01X-14660Y18783D02*
G01X-15740Y17703D01*
G01X-15740Y17703D02*
G01X-15740Y15121D01*
G54D15*
G01X-15740Y15121D03*
G54D16*
G01X-21500Y30000D02*
G01X-19775Y30000D01*
G01X-19775Y30000D02*
G01X-13702Y23927D01*
G01X-13702Y23927D02*
G01X-13636Y23927D01*
G01X-13636Y23927D02*
G01X-10580Y20870D01*
G01X-10580Y20870D02*
G01X-10580Y20650D01*
G01X3420Y8650D02*
G01X2420Y8650D01*
G01X5000Y-14500D02*
G01X5000Y-13829D01*
G01X5000Y-13829D02*
G01X5754Y-13075D01*
G01X5754Y-13075D02*
G01X5754Y-7078D01*
G01X5754Y-7078D02*
G01X5605Y-6930D01*
G01X5605Y-6930D02*
G01X5605Y-6425D01*
G01X5605Y-6425D02*
G01X5676Y-6354D01*
G01X5676Y-6354D02*
G01X5676Y5347D01*
G01X5676Y5347D02*
G01X3420Y7604D01*
G01X3420Y7604D02*
G01X3420Y8650D01*
G01X5000Y-15500D02*
G01X5000Y-14500D01*
G01X-22580Y35650D02*
G01X-22580Y36762D01*
G01X-22580Y36762D02*
G01X-23580Y37762D01*
G01X-23580Y37762D02*
G01X-23580Y38650D01*
G54D15*
G01X-883Y-11718D03*
G54D16*
G01X-883Y-11718D02*
G01X-883Y-11583D01*
G01X-883Y-11583D02*
G01X-2134Y-10331D01*
G01X-2134Y-10331D02*
G01X-2564Y-10331D01*
G01X-2564Y-10331D02*
G01X-3783Y-9112D01*
G01X-3783Y-9112D02*
G01X-3783Y33646D01*
G01X-3783Y33646D02*
G01X-1780Y35650D01*
G01X-1780Y35650D02*
G01X-1580Y35650D01*
G01X-9580Y35650D02*
G01X-9580Y33762D01*
G01X-9580Y33762D02*
G01X-12691Y30651D01*
G01X-12691Y30651D02*
G01X-12691Y29761D01*
G01X-12691Y29761D02*
G01X-12580Y29650D01*
G54D15*
G01X-1513Y-12899D03*
G54D16*
G01X-1513Y-12899D02*
G01X-2015Y-12899D01*
G01X-2015Y-12899D02*
G01X-6149Y-8765D01*
G01X-6149Y-8765D02*
G01X-6149Y-2461D01*
G01X-6149Y-2461D02*
G01X-6406Y-2204D01*
G01X-6406Y-2204D02*
G01X-6406Y10849D01*
G01X-6406Y10849D02*
G01X-12580Y17023D01*
G01X-12580Y17023D02*
G01X-12580Y17650D01*
G01X3000Y-15500D02*
G01X3000Y-14500D01*
G01X4420Y2650D02*
G01X4420Y3475D01*
G01X4420Y3475D02*
G01X2425Y3475D01*
G01X2425Y3475D02*
G01X-2425Y8325D01*
G01X-2425Y8325D02*
G01X-2425Y8978D01*
G01X-2425Y8978D02*
G01X-1711Y9691D01*
G01X-1711Y9691D02*
G01X-260Y9691D01*
G01X-260Y9691D02*
G01X1420Y11371D01*
G01X1420Y11371D02*
G01X1420Y11650D01*
G01X16420Y26650D02*
G01X16420Y26841D01*
G01X16420Y26841D02*
G01X15283Y27978D01*
G01X15283Y27978D02*
G01X11911Y27978D01*
G01X11911Y27978D02*
G01X10591Y29298D01*
G01X10591Y29298D02*
G01X10591Y36280D01*
G01X10591Y36280D02*
G01X12420Y38109D01*
G01X12420Y38109D02*
G01X12420Y38650D01*
G01X2420Y11650D02*
G01X2420Y14005D01*
G01X2420Y14005D02*
G01X5286Y16871D01*
G01X5286Y16871D02*
G01X5286Y19225D01*
G01X5286Y19225D02*
G01X5174Y19337D01*
G01X5174Y19337D02*
G01X5174Y19992D01*
G01X5174Y19992D02*
G01X5286Y20104D01*
G01X5286Y20104D02*
G01X5286Y26987D01*
G01X5286Y26987D02*
G01X4718Y27555D01*
G01X4718Y27555D02*
G01X3854Y27555D01*
G54D15*
G01X3854Y27555D03*
G54D16*
G01X-23580Y20650D02*
G01X-23580Y22034D01*
G01X-23580Y22034D02*
G01X-22541Y23073D01*
G54D15*
G01X-22541Y23073D03*
G54D16*
G01X-14580Y35650D02*
G01X-14580Y32785D01*
G01X-14580Y32785D02*
G01X-13580Y31785D01*
G01X-13580Y31785D02*
G01X-13580Y29650D01*
G01X0Y-15500D02*
G01X0Y-15687D01*
G01X0Y-15687D02*
G01X-2186Y-17873D01*
G01X-2186Y-17873D02*
G01X-7068Y-17873D01*
G54D15*
G01X-7068Y-17873D03*
G01X5964Y19665D03*
G54D16*
G01X5964Y19665D02*
G01X5964Y27280D01*
G01X5964Y27280D02*
G01X4420Y28824D01*
G01X4420Y28824D02*
G01X4420Y29650D01*
G54D15*
G01X-1363Y-11718D03*
G54D16*
G01X-1363Y-11718D02*
G01X-1363Y-11560D01*
G01X-1363Y-11560D02*
G01X-2391Y-10531D01*
G01X-2391Y-10531D02*
G01X-2646Y-10531D01*
G01X-2646Y-10531D02*
G01X-3983Y-9195D01*
G01X-3983Y-9195D02*
G01X-3983Y34445D01*
G01X-3983Y34445D02*
G01X-580Y37848D01*
G01X-580Y37848D02*
G01X-580Y38650D01*
G01X-5000Y-14500D02*
G01X-5000Y-13869D01*
G01X-5000Y-13869D02*
G01X-3822Y-12692D01*
G54D15*
G01X-3822Y-12692D03*
G54D16*
G01X-27580Y17650D02*
G01X-27580Y17858D01*
G01X-27580Y17858D02*
G01X-25580Y19858D01*
G01X-25580Y19858D02*
G01X-25580Y20650D01*
G01X1420Y8650D02*
G01X1420Y8817D01*
G01X1420Y8817D02*
G01X3133Y10530D01*
G01X3133Y10530D02*
G01X4647Y10530D01*
G01X4647Y10530D02*
G01X5722Y11605D01*
G01X5722Y11605D02*
G01X5722Y19356D01*
G01X5722Y19356D02*
G01X5574Y19503D01*
G01X5574Y19503D02*
G01X5574Y19826D01*
G01X5574Y19826D02*
G01X5722Y19974D01*
G01X5722Y19974D02*
G01X5722Y27177D01*
G01X5722Y27177D02*
G01X4164Y28735D01*
G01X4164Y28735D02*
G01X3106Y28735D01*
G01X3106Y28735D02*
G01X2420Y29421D01*
G01X2420Y29421D02*
G01X2420Y29650D01*
G01X-22580Y-8850D02*
G01X-22580Y-8420D01*
G01X-22580Y-8420D02*
G01X-21580Y-7420D01*
G01X-21580Y-7420D02*
G01X-21580Y-5850D01*
G54D15*
G01X-5448Y15430D03*
G54D16*
G01X-5448Y15430D02*
G01X-5515Y15497D01*
G01X-5515Y15497D02*
G01X-5515Y34760D01*
G01X-5515Y34760D02*
G01X-8580Y37824D01*
G01X-8580Y37824D02*
G01X-8580Y38650D01*
G54D15*
G01X-2094Y-7080D03*
G54D16*
G01X-2094Y-7080D02*
G01X-1969Y-7205D01*
G01X-1969Y-7205D02*
G01X757Y-7205D01*
G01X757Y-7205D02*
G01X1670Y-6293D01*
G01X1670Y-6293D02*
G01X1670Y-6100D01*
G01X-21580Y20650D02*
G01X-21580Y21475D01*
G01X-21580Y21475D02*
G01X-21264Y21790D01*
G01X-21264Y21790D02*
G01X-21264Y23417D01*
G54D15*
G01X-21264Y23417D03*
G54D16*
G01X15920Y-6350D02*
G01X15920Y-5508D01*
G01X15920Y-5508D02*
G01X11420Y-1008D01*
G01X11420Y-1008D02*
G01X11420Y-350D01*
G01X-9580Y29650D02*
G01X-9580Y29817D01*
G01X-9580Y29817D02*
G01X-10252Y30489D01*
G01X-10252Y30489D02*
G01X-12301Y30489D01*
G54D15*
G01X-12301Y30489D03*
G54D16*
G01X17420Y20650D02*
G01X17420Y21475D01*
G01X17420Y21475D02*
G01X18245Y22300D01*
G01X18245Y22300D02*
G01X18245Y27999D01*
G01X18245Y27999D02*
G01X17420Y28824D01*
G01X17420Y28824D02*
G01X17420Y29650D01*
G01X16420Y-350D02*
G01X16420Y-115D01*
G01X16420Y-115D02*
G01X18248Y1712D01*
G01X18248Y1712D02*
G01X18248Y18034D01*
G01X18248Y18034D02*
G01X16642Y19640D01*
G01X16642Y19640D02*
G01X12177Y19640D01*
G01X12177Y19640D02*
G01X11420Y20397D01*
G01X11420Y20397D02*
G01X11420Y20650D01*
G01X6000Y-14500D02*
G01X5995Y-14495D01*
G01X5995Y-14495D02*
G01X5995Y-6587D01*
G54D15*
G01X5995Y-6587D03*
G01X-23580Y-4611D03*
G54D16*
G01X-23580Y-4611D02*
G01X-23580Y-5850D01*
G01X-10000Y-14500D02*
G01X-10000Y-12283D01*
G01X-10000Y-12283D02*
G01X-8063Y-10347D01*
G01X-8063Y-10347D02*
G01X-8063Y-2950D01*
G54D15*
G01X-8063Y-2950D03*
G01X5323Y11762D03*
G54D16*
G01X5323Y11762D02*
G01X5522Y11961D01*
G01X5522Y11961D02*
G01X5522Y19273D01*
G01X5522Y19273D02*
G01X5374Y19420D01*
G01X5374Y19420D02*
G01X5374Y19909D01*
G01X5374Y19909D02*
G01X5522Y20057D01*
G01X5522Y20057D02*
G01X5522Y27094D01*
G01X5522Y27094D02*
G01X4253Y28362D01*
G01X4253Y28362D02*
G01X429Y28362D01*
G01X429Y28362D02*
G01X-580Y29371D01*
G01X-580Y29371D02*
G01X-580Y29650D01*
G01X-22580Y8650D02*
G01X-22580Y11650D01*
G01X6000Y-15500D02*
G01X6000Y-15700D01*
G01X6000Y-15700D02*
G01X6607Y-16307D01*
G01X6607Y-16307D02*
G01X8333Y-16307D01*
G01X8333Y-16307D02*
G01X8823Y-15817D01*
G01X8823Y-15817D02*
G01X8823Y-14161D01*
G01X8823Y-14161D02*
G01X6574Y-11912D01*
G01X6574Y-11912D02*
G01X6574Y-6612D01*
G54D15*
G01X6574Y-6612D03*
G54D16*
G01X4000Y-14500D02*
G01X4000Y-12440D01*
G01X4000Y-12440D02*
G01X4495Y-11945D01*
G01X4495Y-11945D02*
G01X4495Y-2046D01*
G01X4495Y-2046D02*
G01X5245Y-1295D01*
G01X5245Y-1295D02*
G01X5245Y43D01*
G01X5245Y43D02*
G01X3752Y1537D01*
G01X3752Y1537D02*
G01X3254Y1537D01*
G01X3254Y1537D02*
G01X2420Y2371D01*
G01X2420Y2371D02*
G01X2420Y2650D01*
G01X-12580Y11650D02*
G01X-12580Y11443D01*
G01X-12580Y11443D02*
G01X-14037Y9986D01*
G01X-14037Y9986D02*
G01X-14412Y9986D01*
G01X-14412Y9986D02*
G01X-15420Y8978D01*
G01X-15420Y8978D02*
G01X-15420Y3490D01*
G01X-15420Y3490D02*
G01X-14580Y2650D01*
G01X12420Y29650D02*
G01X12420Y32514D01*
G01X12420Y32514D02*
G01X13420Y33514D01*
G01X13420Y33514D02*
G01X13420Y35650D01*
G01X13420Y11650D02*
G01X13420Y13176D01*
G01X13420Y13176D02*
G01X14205Y13961D01*
G54D15*
G01X14205Y13961D03*
G54D16*
G01X-11000Y-14500D02*
G01X-11000Y-12285D01*
G01X-11000Y-12285D02*
G01X-8453Y-9738D01*
G01X-8453Y-9738D02*
G01X-8453Y-2646D01*
G54D15*
G01X-8453Y-2646D03*
G54D16*
G01X-14580Y8650D02*
G01X-14580Y5830D01*
G01X-14580Y5830D02*
G01X-12580Y3830D01*
G01X-12580Y3830D02*
G01X-12580Y2650D01*
G54D15*
G01X-5125Y16535D03*
G54D16*
G01X-5125Y16535D02*
G01X-5125Y36553D01*
G01X-5125Y36553D02*
G01X-8130Y39558D01*
G01X-8130Y39558D02*
G01X-9898Y39558D01*
G01X-9898Y39558D02*
G01X-10580Y38877D01*
G01X-10580Y38877D02*
G01X-10580Y38650D01*
G01X-13580Y11650D02*
G01X-13580Y11101D01*
G01X-13580Y11101D02*
G01X-15620Y9061D01*
G01X-15620Y9061D02*
G01X-15620Y690D01*
G01X-15620Y690D02*
G01X-14580Y-350D01*
G54D15*
G01X-13458Y24517D03*
G54D16*
G01X-13458Y24517D02*
G01X-13660Y24517D01*
G01X-13660Y24517D02*
G01X-15424Y26281D01*
G01X-15424Y26281D02*
G01X-15424Y36005D01*
G01X-15424Y36005D02*
G01X-13892Y37537D01*
G01X-13892Y37537D02*
G01X-13414Y37537D01*
G01X-13414Y37537D02*
G01X-12580Y38371D01*
G01X-12580Y38371D02*
G01X-12580Y38650D01*
G01X2000Y-14500D02*
G01X2000Y-13949D01*
G01X2000Y-13949D02*
G01X-1850Y-10099D01*
G01X-1850Y-10099D02*
G01X-2513Y-10099D01*
G01X-2513Y-10099D02*
G01X-3583Y-9029D01*
G01X-3583Y-9029D02*
G01X-3583Y16815D01*
G01X-3583Y16815D02*
G01X-861Y19537D01*
G01X-861Y19537D02*
G01X1585Y19537D01*
G01X1585Y19537D02*
G01X2420Y20371D01*
G01X2420Y20371D02*
G01X2420Y20650D01*
G01X-1580Y-350D02*
G01X-1580Y-140D01*
G01X-1580Y-140D02*
G01X97Y1537D01*
G01X97Y1537D02*
G01X585Y1537D01*
G01X585Y1537D02*
G01X1420Y2371D01*
G01X1420Y2371D02*
G01X1420Y2650D01*
G54D15*
G01X-16329Y16723D03*
G54D16*
G01X-16329Y16723D02*
G01X-16329Y-8171D01*
G01X-16329Y-8171D02*
G01X-15500Y-9000D01*
G01X-5000Y-15500D02*
G01X-5000Y-15700D01*
G01X-5000Y-15700D02*
G01X-5628Y-16328D01*
G01X-5628Y-16328D02*
G01X-7088Y-16328D01*
G54D15*
G01X-7088Y-16328D03*
G54D16*
G01X12420Y11650D02*
G01X12420Y12727D01*
G01X12420Y12727D02*
G01X16420Y16727D01*
G01X16420Y16727D02*
G01X16420Y17650D01*
G01X4000Y-15500D02*
G01X4000Y-15700D01*
G01X4000Y-15700D02*
G01X4859Y-16559D01*
G01X4859Y-16559D02*
G01X8364Y-16559D01*
G01X8364Y-16559D02*
G01X9026Y-15897D01*
G01X9026Y-15897D02*
G01X9026Y-14081D01*
G01X9026Y-14081D02*
G01X6991Y-12046D01*
G01X6991Y-12046D02*
G01X6991Y1747D01*
G54D15*
G01X6991Y1747D03*
G54D16*
G01X-12000Y-14500D02*
G01X-12000Y-13743D01*
G01X-12000Y-13743D02*
G01X-16796Y-8947D01*
G01X-16796Y-8947D02*
G01X-16796Y17075D01*
G01X-16796Y17075D02*
G01X-16853Y17133D01*
G01X-16853Y17133D02*
G01X-16853Y19543D01*
G01X-16853Y19543D02*
G01X-13741Y22655D01*
G01X-13741Y22655D02*
G01X-13632Y22655D01*
G01X-13632Y22655D02*
G01X-13632Y22655D01*
G54D15*
G01X-13632Y22655D03*
G54D16*
G01X-15000Y-14500D02*
G01X-15000Y-14061D01*
G01X-15000Y-14061D02*
G01X-17196Y-11864D01*
G01X-17196Y-11864D02*
G01X-17196Y16909D01*
G01X-17196Y16909D02*
G01X-17254Y16967D01*
G01X-17254Y16967D02*
G01X-17254Y24299D01*
G01X-17254Y24299D02*
G01X-21965Y29011D01*
G01X-21965Y29011D02*
G01X-22714Y29011D01*
G01X-22714Y29011D02*
G01X-23500Y29796D01*
G01X-23500Y29796D02*
G01X-23500Y30000D01*
G01X-15000Y-15500D02*
G01X-15000Y-14500D01*
G01X12420Y2650D02*
G01X12420Y5966D01*
G01X12420Y5966D02*
G01X10357Y8028D01*
G01X10357Y8028D02*
G01X10357Y12969D01*
G01X10357Y12969D02*
G01X12420Y15031D01*
G01X12420Y15031D02*
G01X12420Y17650D01*
G54D15*
G01X-15462Y-13046D03*
G54D16*
G01X-15462Y-13046D02*
G01X-16996Y-11513D01*
G01X-16996Y-11513D02*
G01X-16996Y16992D01*
G01X-16996Y16992D02*
G01X-17053Y17050D01*
G01X-17053Y17050D02*
G01X-17053Y20415D01*
G01X-17053Y20415D02*
G01X-16860Y20608D01*
G54D15*
G01X-16860Y20608D03*
G54D16*
G01X2000Y-15500D02*
G01X2000Y-15642D01*
G01X2000Y-15642D02*
G01X3117Y-16759D01*
G01X3117Y-16759D02*
G01X8447Y-16759D01*
G01X8447Y-16759D02*
G01X9235Y-15971D01*
G01X9235Y-15971D02*
G01X9235Y-12517D01*
G01X9235Y-12517D02*
G01X8051Y-11333D01*
G01X8051Y-11333D02*
G01X8051Y18435D01*
G54D15*
G01X8051Y18435D03*
G01X16736Y-14647D03*
G54D16*
G01X16736Y-14647D02*
G01X17208Y-14647D01*
G01X17208Y-14647D02*
G01X18515Y-13339D01*
G01X18515Y-13339D02*
G01X18515Y32373D01*
G01X18515Y32373D02*
G01X16420Y34469D01*
G01X16420Y34469D02*
G01X16420Y35650D01*
G01X-9580Y8650D02*
G01X-9580Y5830D01*
G01X-9580Y5830D02*
G01X-11580Y3830D01*
G01X-11580Y3830D02*
G01X-11580Y2650D01*
G01X-26500Y30000D02*
G01X-26500Y29785D01*
G01X-26500Y29785D02*
G01X-24737Y28023D01*
G01X-24737Y28023D02*
G01X-21294Y28023D01*
G01X-21294Y28023D02*
G01X-17586Y24315D01*
G01X-17586Y24315D02*
G01X-17586Y9787D01*
G54D15*
G01X-17586Y9787D03*
G54D16*
G01X-1000Y-14500D02*
G01X-1000Y-14198D01*
G01X-1000Y-14198D02*
G01X-6349Y-8848D01*
G01X-6349Y-8848D02*
G01X-6349Y-2544D01*
G01X-6349Y-2544D02*
G01X-6606Y-2287D01*
G01X-6606Y-2287D02*
G01X-6606Y7864D01*
G01X-6606Y7864D02*
G01X-9279Y10537D01*
G01X-9279Y10537D02*
G01X-9745Y10537D01*
G01X-9745Y10537D02*
G01X-10580Y11371D01*
G01X-10580Y11371D02*
G01X-10580Y11650D01*
G54D15*
G01X-13946Y-10415D03*
G54D16*
G01X-13946Y-10415D02*
G01X-9709Y-10415D01*
G01X-9709Y-10415D02*
G01X-8667Y-9373D01*
G01X-8667Y-9373D02*
G01X-8667Y-8641D01*
G01X-8667Y-8641D02*
G01X-10196Y-7112D01*
G01X-10196Y-7112D02*
G01X-10665Y-7112D01*
G01X-10665Y-7112D02*
G01X-11500Y-6278D01*
G01X-11500Y-6278D02*
G01X-11500Y-6000D01*
G01X-2330Y-9100D02*
G01X-3376Y-8054D01*
G01X-3376Y-8054D02*
G01X-3376Y9854D01*
G01X-3376Y9854D02*
G01X-1580Y11650D01*
G01X1000Y-14500D02*
G01X1000Y-14339D01*
G01X1000Y-14339D02*
G01X-1030Y-12309D01*
G01X-1030Y-12309D02*
G01X-1607Y-12309D01*
G01X-1607Y-12309D02*
G01X-1953Y-11963D01*
G01X-1953Y-11963D02*
G01X-1953Y-11560D01*
G01X-1953Y-11560D02*
G01X-2582Y-10932D01*
G01X-2582Y-10932D02*
G01X-2812Y-10932D01*
G01X-2812Y-10932D02*
G01X-5549Y-8195D01*
G01X-5549Y-8195D02*
G01X-5549Y2700D01*
G01X-5549Y2700D02*
G01X-5615Y2766D01*
G54D15*
G01X-5615Y2766D03*
G54D16*
G01X-5615Y2766D02*
G01X-5615Y14763D01*
G01X-5615Y14763D02*
G01X-6990Y16137D01*
G01X-6990Y16137D02*
G01X-6990Y20672D01*
G01X-6990Y20672D02*
G01X-11287Y24969D01*
G01X-11287Y24969D02*
G01X-13139Y24969D01*
G01X-13139Y24969D02*
G01X-14580Y26410D01*
G01X-14580Y26410D02*
G01X-14580Y26650D01*
G54D15*
G01X-4625Y-6909D03*
G54D16*
G01X-4625Y-6909D02*
G01X-4625Y36829D01*
G01X-4625Y36829D02*
G01X-1896Y39558D01*
G01X-1896Y39558D02*
G01X1738Y39558D01*
G01X1738Y39558D02*
G01X2420Y38877D01*
G01X2420Y38877D02*
G01X2420Y38650D01*
G01X-12000Y-15500D02*
G01X-12000Y-15713D01*
G01X-12000Y-15713D02*
G01X-9996Y-17716D01*
G01X-9996Y-17716D02*
G01X-9912Y-17716D01*
G54D15*
G01X-9912Y-17716D03*
G01X-1220Y-17978D03*
G54D16*
G01X-1220Y-17978D02*
G01X7833Y-17978D01*
G01X7833Y-17978D02*
G01X9690Y-16121D01*
G01X9690Y-16121D02*
G01X9690Y-10985D01*
G01X9690Y-10985D02*
G01X8881Y-10176D01*
G01X8881Y-10176D02*
G01X8881Y16279D01*
G01X8881Y16279D02*
G01X11086Y18484D01*
G01X11086Y18484D02*
G01X13816Y18484D01*
G01X13816Y18484D02*
G01X14420Y17880D01*
G01X14420Y17880D02*
G01X14420Y17650D01*
G54D15*
G01X-13500Y-7421D03*
G54D16*
G01X-13500Y-7421D02*
G01X-13500Y-6000D01*
G54D15*
G01X-579Y-12108D03*
G54D16*
G01X-579Y-12108D02*
G01X-1524Y-12108D01*
G01X-1524Y-12108D02*
G01X-1753Y-11880D01*
G01X-1753Y-11880D02*
G01X-1753Y-11478D01*
G01X-1753Y-11478D02*
G01X-2499Y-10731D01*
G01X-2499Y-10731D02*
G01X-2729Y-10731D01*
G01X-2729Y-10731D02*
G01X-5215Y-8246D01*
G01X-5215Y-8246D02*
G01X-5215Y14645D01*
G01X-5215Y14645D02*
G01X-5855Y15285D01*
G01X-5855Y15285D02*
G01X-5855Y20146D01*
G01X-5855Y20146D02*
G01X-10580Y24870D01*
G01X-10580Y24870D02*
G01X-10580Y26650D01*
G01X2670Y-9100D02*
G01X2670Y-8865D01*
G01X2670Y-8865D02*
G01X1599Y-7795D01*
G01X1599Y-7795D02*
G01X-1931Y-7795D01*
G01X-1931Y-7795D02*
G01X-3175Y-6550D01*
G01X-3175Y-6550D02*
G01X-3175Y8797D01*
G01X-3175Y8797D02*
G01X-580Y11392D01*
G01X-580Y11392D02*
G01X-580Y11650D01*
G01X13920Y-6350D02*
G01X13920Y-4082D01*
G01X13920Y-4082D02*
G01X10584Y-747D01*
G01X10584Y-747D02*
G01X10584Y17D01*
G01X10584Y17D02*
G01X12103Y1537D01*
G01X12103Y1537D02*
G01X12585Y1537D01*
G01X12585Y1537D02*
G01X13420Y2371D01*
G01X13420Y2371D02*
G01X13420Y2650D01*
G01X-8000Y-14500D02*
G01X-8000Y-13836D01*
G01X-8000Y-13836D02*
G01X-7629Y-13465D01*
G01X-7629Y-13465D02*
G01X-7629Y-2820D01*
G01X-7629Y-2820D02*
G01X-8206Y-2243D01*
G01X-8206Y-2243D02*
G01X-8955Y-2243D01*
G01X-8955Y-2243D02*
G01X-12500Y-5788D01*
G01X-12500Y-5788D02*
G01X-12500Y-6000D01*
G01X15920Y-9350D02*
G01X15920Y-9137D01*
G01X15920Y-9137D02*
G01X14299Y-7516D01*
G01X14299Y-7516D02*
G01X9894Y-7516D01*
G01X9894Y-7516D02*
G01X9089Y-6711D01*
G01X9089Y-6711D02*
G01X9089Y15319D01*
G01X9089Y15319D02*
G01X11420Y17650D01*
G01X-11000Y-15500D02*
G01X-11000Y-15702D01*
G01X-11000Y-15702D02*
G01X-8134Y-18568D01*
G01X-8134Y-18568D02*
G01X7921Y-18568D01*
G01X7921Y-18568D02*
G01X10093Y-16397D01*
G01X10093Y-16397D02*
G01X10093Y-13231D01*
G01X10093Y-13231D02*
G01X11732Y-11592D01*
G01X11732Y-11592D02*
G01X11881Y-11592D01*
G54D15*
G01X11881Y-11592D03*
G54D16*
G01X-9580Y20650D02*
G01X-9580Y20482D01*
G01X-9580Y20482D02*
G01X-10238Y19824D01*
G01X-10238Y19824D02*
G01X-13933Y19824D01*
G01X-13933Y19824D02*
G01X-16417Y17341D01*
G54D15*
G01X-16417Y17341D03*
G54D16*
G01X-27580Y8650D02*
G01X-27580Y8858D01*
G01X-27580Y8858D02*
G01X-25580Y10858D01*
G01X-25580Y10858D02*
G01X-25580Y11650D01*

G04 Draw Text*
M00*
M02*
