G04 FreePCB version 1.343*
G04 Z:\trinary\bb\CAM-Logic\top_copper.grb*
G04 top copper layer *
G04 Scale: 100 percent, Rotated: No, Reflected: No *
%FSLAX24Y24*%
%MOIN*%
%LNTop*%
%ADD10C,0.005000*%
%ADD11R,0.055000X0.055000*%
%ADD12C,0.055000*%
%ADD13C,0.075000*%
%ADD14C,0.030000*%
%ADD15C,0.070000*%
%ADD16C,0.010000*%
%ADD17C,0.028000*%
G90*
G70D02*

G04 Step and Repeat for panelization *

G04 ----------------------- Draw board outline (positive)*
%LPD*%
G54D10*
G01X-25000Y16000D02*
G01X31000Y16000D01*
G04 end of side 1*
G01X31000Y-29000D01*
G04 end of side 2*
G01X-15000Y-29000D01*
G04 end of side 3*
G01X-25000Y-29000D01*
G04 end of side 4*
G01X-25000Y16000D01*

G04 -------------- Draw Parts, Pads, Traces, Vias and Text (positive)*
%LPD*%
G04 Draw part IC_CD4007_10*
G54D11*
G01X-17900Y14270D03*
G54D12*
G01X-17900Y13270D03*
G01X-17900Y12270D03*
G01X-17900Y11270D03*
G01X-17900Y10270D03*
G01X-17900Y9270D03*
G01X-17900Y8270D03*
G01X-14900Y8270D03*
G01X-14900Y9270D03*
G01X-14900Y10270D03*
G01X-14900Y11270D03*
G01X-14900Y12270D03*
G01X-14900Y13270D03*
G01X-14900Y14270D03*
G04 Draw part R1*
G54D13*
G01X-13730Y13300D03*
G01X-8730Y13300D03*
G04 Draw part R2*
G01X-8730Y8300D03*
G01X-13730Y8300D03*
G04 Draw part R3*
G01X-18950Y14250D03*
G01X-23950Y14250D03*
G04 Draw part R4*
G01X-23950Y10250D03*
G01X-18950Y10250D03*
G04 Draw part IC_CD4007_11*
G54D11*
G01X-17900Y6270D03*
G54D12*
G01X-17900Y5270D03*
G01X-17900Y4270D03*
G01X-17900Y3270D03*
G01X-17900Y2270D03*
G01X-17900Y1270D03*
G01X-17900Y270D03*
G01X-14900Y270D03*
G01X-14900Y1270D03*
G01X-14900Y2270D03*
G01X-14900Y3270D03*
G01X-14900Y4270D03*
G01X-14900Y5270D03*
G01X-14900Y6270D03*
G04 Draw part R5*
G54D13*
G01X-13730Y5300D03*
G01X-8730Y5300D03*
G04 Draw part R6*
G01X-8730Y300D03*
G01X-13730Y300D03*
G04 Draw part R7*
G01X-18950Y6250D03*
G01X-23950Y6250D03*
G04 Draw part R8*
G01X-23950Y2250D03*
G01X-18950Y2250D03*
G04 Draw part IC_CD4007_12*
G54D11*
G01X-17950Y-1930D03*
G54D12*
G01X-17950Y-2930D03*
G01X-17950Y-3930D03*
G01X-17950Y-4930D03*
G01X-17950Y-5930D03*
G01X-17950Y-6930D03*
G01X-17950Y-7930D03*
G01X-14950Y-7930D03*
G01X-14950Y-6930D03*
G01X-14950Y-5930D03*
G01X-14950Y-4930D03*
G01X-14950Y-3930D03*
G01X-14950Y-2930D03*
G01X-14950Y-1930D03*
G04 Draw part R9*
G54D13*
G01X-13780Y-2900D03*
G01X-8780Y-2900D03*
G04 Draw part R10*
G01X-8780Y-7900D03*
G01X-13780Y-7900D03*
G04 Draw part R11*
G01X-19000Y-1950D03*
G01X-24000Y-1950D03*
G04 Draw part R12*
G01X-24000Y-5950D03*
G01X-19000Y-5950D03*
G04 Draw part IC_CD4007_16*
G54D11*
G01X-17900Y-9730D03*
G54D12*
G01X-17900Y-10730D03*
G01X-17900Y-11730D03*
G01X-17900Y-12730D03*
G01X-17900Y-13730D03*
G01X-17900Y-14730D03*
G01X-17900Y-15730D03*
G01X-14900Y-15730D03*
G01X-14900Y-14730D03*
G01X-14900Y-13730D03*
G01X-14900Y-12730D03*
G01X-14900Y-11730D03*
G01X-14900Y-10730D03*
G01X-14900Y-9730D03*
G04 Draw part R25*
G54D13*
G01X-13730Y-10700D03*
G01X-8730Y-10700D03*
G04 Draw part R26*
G01X-8730Y-15700D03*
G01X-13730Y-15700D03*
G04 Draw part R27*
G01X-18950Y-9750D03*
G01X-23950Y-9750D03*
G04 Draw part R28*
G01X-23950Y-13750D03*
G01X-18950Y-13750D03*
G04 Draw part IC_CD4007_22*
G54D11*
G01X-700Y13700D03*
G54D12*
G01X-700Y12700D03*
G01X-700Y11700D03*
G01X-700Y10700D03*
G01X-700Y9700D03*
G01X-700Y8700D03*
G01X-700Y7700D03*
G01X2300Y7700D03*
G01X2300Y8700D03*
G01X2300Y9700D03*
G01X2300Y10700D03*
G01X2300Y11700D03*
G01X2300Y12700D03*
G01X2300Y13700D03*
G04 Draw part IC_CD4007_23*
G54D11*
G01X-600Y-3300D03*
G54D12*
G01X-600Y-4300D03*
G01X-600Y-5300D03*
G01X-600Y-6300D03*
G01X-600Y-7300D03*
G01X-600Y-8300D03*
G01X-600Y-9300D03*
G01X2400Y-9300D03*
G01X2400Y-8300D03*
G01X2400Y-7300D03*
G01X2400Y-6300D03*
G01X2400Y-5300D03*
G01X2400Y-4300D03*
G01X2400Y-3300D03*
G04 Draw part IC_CD4007_24*
G54D11*
G01X-700Y5100D03*
G54D12*
G01X-700Y4100D03*
G01X-700Y3100D03*
G01X-700Y2100D03*
G01X-700Y1100D03*
G01X-700Y100D03*
G01X-700Y-900D03*
G01X2300Y-900D03*
G01X2300Y100D03*
G01X2300Y1100D03*
G01X2300Y2100D03*
G01X2300Y3100D03*
G01X2300Y4100D03*
G01X2300Y5100D03*
G04 Draw part R45*
G54D13*
G01X-2000Y11700D03*
G01X-7000Y11700D03*
G04 Draw part R46*
G01X-7000Y7800D03*
G01X-2000Y7800D03*
G04 Draw part R47*
G01X3800Y13700D03*
G01X8800Y13700D03*
G04 Draw part R48*
G01X8800Y9700D03*
G01X3800Y9700D03*
G04 Draw part R49*
G01X3800Y-4300D03*
G01X8800Y-4300D03*
G04 Draw part R50*
G01X8800Y-9300D03*
G01X3800Y-9300D03*
G04 Draw part R51*
G01X-2000Y5100D03*
G01X-7000Y5100D03*
G04 Draw part R52*
G01X-7000Y1100D03*
G01X-2000Y1100D03*
G04 Draw part IC_CD4007_18*
G54D11*
G01X-800Y-21600D03*
G54D12*
G01X-1800Y-21600D03*
G01X-2800Y-21600D03*
G01X-3800Y-21600D03*
G01X-4800Y-21600D03*
G01X-5800Y-21600D03*
G01X-6800Y-21600D03*
G01X-6800Y-24600D03*
G01X-5800Y-24600D03*
G01X-4800Y-24600D03*
G01X-3800Y-24600D03*
G01X-2800Y-24600D03*
G01X-1800Y-24600D03*
G01X-800Y-24600D03*
G04 Draw part IC_CD4007_19*
G54D11*
G01X19200Y-21600D03*
G54D12*
G01X18200Y-21600D03*
G01X17200Y-21600D03*
G01X16200Y-21600D03*
G01X15200Y-21600D03*
G01X14200Y-21600D03*
G01X13200Y-21600D03*
G01X13200Y-24600D03*
G01X14200Y-24600D03*
G01X15200Y-24600D03*
G01X16200Y-24600D03*
G01X17200Y-24600D03*
G01X18200Y-24600D03*
G01X19200Y-24600D03*
G04 Draw part IC_CD4007_20*
G54D11*
G01X9200Y-21600D03*
G54D12*
G01X8200Y-21600D03*
G01X7200Y-21600D03*
G01X6200Y-21600D03*
G01X5200Y-21600D03*
G01X4200Y-21600D03*
G01X3200Y-21600D03*
G01X3200Y-24600D03*
G01X4200Y-24600D03*
G01X5200Y-24600D03*
G01X6200Y-24600D03*
G01X7200Y-24600D03*
G01X8200Y-24600D03*
G01X9200Y-24600D03*
G04 Draw part IC_CD4007_21*
G54D11*
G01X-10800Y-21600D03*
G54D12*
G01X-11800Y-21600D03*
G01X-12800Y-21600D03*
G01X-13800Y-21600D03*
G01X-14800Y-21600D03*
G01X-15800Y-21600D03*
G01X-16800Y-21600D03*
G01X-16800Y-24600D03*
G01X-15800Y-24600D03*
G01X-14800Y-24600D03*
G01X-13800Y-24600D03*
G01X-12800Y-24600D03*
G01X-11800Y-24600D03*
G01X-10800Y-24600D03*
G04 Draw part R34*
G54D13*
G01X-18800Y-26600D03*
G01X-13800Y-26600D03*
G04 Draw part R35*
G01X-11800Y-26600D03*
G01X-6800Y-26600D03*
G04 Draw part R36*
G01X16200Y-19600D03*
G01X11200Y-19600D03*
G04 Draw part R37*
G01X8200Y-19600D03*
G01X3200Y-19600D03*
G04 Draw part R38*
G01X-800Y-19600D03*
G01X-5800Y-19600D03*
G04 Draw part R39*
G01X-5800Y-26600D03*
G01X-800Y-26600D03*
G04 Draw part R40*
G01X19200Y-26600D03*
G01X14200Y-26600D03*
G04 Draw part R41*
G01X9200Y-26600D03*
G01X4200Y-26600D03*
G04 Draw part R42*
G01X-10800Y-19600D03*
G01X-15800Y-19600D03*
G04 Draw part R43*
G01X-17800Y-19600D03*
G01X-22800Y-19600D03*
G04 Draw part IC_CD4007_25*
G54D11*
G01X11800Y-17200D03*
G54D12*
G01X12800Y-17200D03*
G01X13800Y-17200D03*
G01X14800Y-17200D03*
G01X15800Y-17200D03*
G01X16800Y-17200D03*
G01X17800Y-17200D03*
G01X17800Y-14200D03*
G01X16800Y-14200D03*
G01X15800Y-14200D03*
G01X14800Y-14200D03*
G01X13800Y-14200D03*
G01X12800Y-14200D03*
G01X11800Y-14200D03*
G04 Draw part IC_CD4007_26*
G54D11*
G01X23400Y-15200D03*
G54D12*
G01X24400Y-15200D03*
G01X25400Y-15200D03*
G01X26400Y-15200D03*
G01X27400Y-15200D03*
G01X28400Y-15200D03*
G01X29400Y-15200D03*
G01X29400Y-12200D03*
G01X28400Y-12200D03*
G01X27400Y-12200D03*
G01X26400Y-12200D03*
G01X25400Y-12200D03*
G01X24400Y-12200D03*
G01X23400Y-12200D03*
G04 Draw part R54*
G54D13*
G01X12800Y-13200D03*
G01X12800Y-8200D03*
G04 Draw part R55*
G01X17800Y-8200D03*
G01X17800Y-13200D03*
G04 Draw part R56*
G01X20400Y-12200D03*
G01X20400Y-17200D03*
G04 Draw part R57*
G01X23400Y-17200D03*
G01X28400Y-17200D03*
G04 Draw part IC_CD4007_27*
G54D11*
G01X11800Y6000D03*
G54D12*
G01X12800Y6000D03*
G01X13800Y6000D03*
G01X14800Y6000D03*
G01X15800Y6000D03*
G01X16800Y6000D03*
G01X17800Y6000D03*
G01X17800Y9000D03*
G01X16800Y9000D03*
G01X15800Y9000D03*
G01X14800Y9000D03*
G01X13800Y9000D03*
G01X12800Y9000D03*
G01X11800Y9000D03*
G04 Draw part IC_CD4007_28*
G54D11*
G01X23400Y8000D03*
G54D12*
G01X24400Y8000D03*
G01X25400Y8000D03*
G01X26400Y8000D03*
G01X27400Y8000D03*
G01X28400Y8000D03*
G01X29400Y8000D03*
G01X29400Y11000D03*
G01X28400Y11000D03*
G01X27400Y11000D03*
G01X26400Y11000D03*
G01X25400Y11000D03*
G01X24400Y11000D03*
G01X23400Y11000D03*
G04 Draw part R58*
G54D13*
G01X12800Y10000D03*
G01X12800Y15000D03*
G04 Draw part R59*
G01X17800Y15000D03*
G01X17800Y10000D03*
G04 Draw part R60*
G01X20400Y11000D03*
G01X20400Y6000D03*
G04 Draw part R61*
G01X23400Y6000D03*
G01X28400Y6000D03*
G04 Draw part IC_CD4007_29*
G54D11*
G01X11800Y-6000D03*
G54D12*
G01X12800Y-6000D03*
G01X13800Y-6000D03*
G01X14800Y-6000D03*
G01X15800Y-6000D03*
G01X16800Y-6000D03*
G01X17800Y-6000D03*
G01X17800Y-3000D03*
G01X16800Y-3000D03*
G01X15800Y-3000D03*
G01X14800Y-3000D03*
G01X13800Y-3000D03*
G01X12800Y-3000D03*
G01X11800Y-3000D03*
G04 Draw part IC_CD4007_30*
G54D11*
G01X23400Y-4000D03*
G54D12*
G01X24400Y-4000D03*
G01X25400Y-4000D03*
G01X26400Y-4000D03*
G01X27400Y-4000D03*
G01X28400Y-4000D03*
G01X29400Y-4000D03*
G01X29400Y-1000D03*
G01X28400Y-1000D03*
G01X27400Y-1000D03*
G01X26400Y-1000D03*
G01X25400Y-1000D03*
G01X24400Y-1000D03*
G01X23400Y-1000D03*
G04 Draw part R62*
G54D13*
G01X12800Y-2000D03*
G01X12800Y3000D03*
G04 Draw part R63*
G01X17800Y3000D03*
G01X17800Y-2000D03*
G04 Draw part R64*
G01X20400Y-1000D03*
G01X20400Y-6000D03*
G04 Draw part R65*
G01X23400Y-6000D03*
G01X28400Y-6000D03*
G04 Draw part INV1*
G54D14*
G01X-12200Y10200D03*
G01X-11800Y10200D03*
G01X-12200Y10600D03*
G01X-11800Y10600D03*
G36*
G01X-12200Y10050D02*
G01X-12200Y10750D01*
G01X-11800Y10750D01*
G01X-11800Y10050D01*
G01X-12200Y10050D01*
G37*
G36*
G01X-12350Y10200D02*
G01X-12350Y10600D01*
G01X-11650Y10600D01*
G01X-11650Y10200D01*
G01X-12350Y10200D01*
G37*
G54D15*
G01X-12000Y11400D03*
G01X-11000Y10400D03*
G01X-11000Y11400D03*
G04 Draw part INV2*
G54D14*
G01X-22200Y7400D03*
G01X-21800Y7400D03*
G01X-22200Y7800D03*
G01X-21800Y7800D03*
G36*
G01X-22200Y7250D02*
G01X-22200Y7950D01*
G01X-21800Y7950D01*
G01X-21800Y7250D01*
G01X-22200Y7250D01*
G37*
G36*
G01X-22350Y7400D02*
G01X-22350Y7800D01*
G01X-21650Y7800D01*
G01X-21650Y7400D01*
G01X-22350Y7400D01*
G37*
G54D15*
G01X-22000Y8600D03*
G01X-21000Y7600D03*
G01X-21000Y8600D03*
G04 Draw part INV3*
G54D14*
G01X-12600Y2200D03*
G01X-12200Y2200D03*
G01X-12600Y2600D03*
G01X-12200Y2600D03*
G36*
G01X-12600Y2050D02*
G01X-12600Y2750D01*
G01X-12200Y2750D01*
G01X-12200Y2050D01*
G01X-12600Y2050D01*
G37*
G36*
G01X-12750Y2200D02*
G01X-12750Y2600D01*
G01X-12050Y2600D01*
G01X-12050Y2200D01*
G01X-12750Y2200D01*
G37*
G54D15*
G01X-12400Y3400D03*
G01X-11400Y2400D03*
G01X-11400Y3400D03*
G04 Draw part INV4*
G54D14*
G01X-22200Y-600D03*
G01X-21800Y-600D03*
G01X-22200Y-200D03*
G01X-21800Y-200D03*
G36*
G01X-22200Y-750D02*
G01X-22200Y-50D01*
G01X-21800Y-50D01*
G01X-21800Y-750D01*
G01X-22200Y-750D01*
G37*
G36*
G01X-22350Y-600D02*
G01X-22350Y-200D01*
G01X-21650Y-200D01*
G01X-21650Y-600D01*
G01X-22350Y-600D01*
G37*
G54D15*
G01X-22000Y600D03*
G01X-21000Y-400D03*
G01X-21000Y600D03*
G04 Draw part INV5*
G54D14*
G01X-12600Y-6200D03*
G01X-12200Y-6200D03*
G01X-12600Y-5800D03*
G01X-12200Y-5800D03*
G36*
G01X-12600Y-6350D02*
G01X-12600Y-5650D01*
G01X-12200Y-5650D01*
G01X-12200Y-6350D01*
G01X-12600Y-6350D01*
G37*
G36*
G01X-12750Y-6200D02*
G01X-12750Y-5800D01*
G01X-12050Y-5800D01*
G01X-12050Y-6200D01*
G01X-12750Y-6200D01*
G37*
G54D15*
G01X-12400Y-5000D03*
G01X-11400Y-6000D03*
G01X-11400Y-5000D03*
G04 Draw part INV6*
G54D14*
G01X-22200Y-8600D03*
G01X-21800Y-8600D03*
G01X-22200Y-8200D03*
G01X-21800Y-8200D03*
G36*
G01X-22200Y-8750D02*
G01X-22200Y-8050D01*
G01X-21800Y-8050D01*
G01X-21800Y-8750D01*
G01X-22200Y-8750D01*
G37*
G36*
G01X-22350Y-8600D02*
G01X-22350Y-8200D01*
G01X-21650Y-8200D01*
G01X-21650Y-8600D01*
G01X-22350Y-8600D01*
G37*
G54D15*
G01X-22000Y-7400D03*
G01X-21000Y-8400D03*
G01X-21000Y-7400D03*
G04 Draw part INV7*
G54D14*
G01X-12600Y-13800D03*
G01X-12200Y-13800D03*
G01X-12600Y-13400D03*
G01X-12200Y-13400D03*
G36*
G01X-12600Y-13950D02*
G01X-12600Y-13250D01*
G01X-12200Y-13250D01*
G01X-12200Y-13950D01*
G01X-12600Y-13950D01*
G37*
G36*
G01X-12750Y-13800D02*
G01X-12750Y-13400D01*
G01X-12050Y-13400D01*
G01X-12050Y-13800D01*
G01X-12750Y-13800D01*
G37*
G54D15*
G01X-12400Y-12600D03*
G01X-11400Y-13600D03*
G01X-11400Y-12600D03*
G04 Draw part INV8*
G54D14*
G01X-22200Y-17000D03*
G01X-21800Y-17000D03*
G01X-22200Y-16600D03*
G01X-21800Y-16600D03*
G36*
G01X-22200Y-17150D02*
G01X-22200Y-16450D01*
G01X-21800Y-16450D01*
G01X-21800Y-17150D01*
G01X-22200Y-17150D01*
G37*
G36*
G01X-22350Y-17000D02*
G01X-22350Y-16600D01*
G01X-21650Y-16600D01*
G01X-21650Y-17000D01*
G01X-22350Y-17000D01*
G37*
G54D15*
G01X-22000Y-15800D03*
G01X-21000Y-16800D03*
G01X-21000Y-15800D03*
G04 Draw part CU*
G54D14*
G01X22200Y-24200D03*
G01X22600Y-24200D03*
G01X22200Y-23800D03*
G01X22600Y-23800D03*
G36*
G01X22200Y-24350D02*
G01X22200Y-23650D01*
G01X22600Y-23650D01*
G01X22600Y-24350D01*
G01X22200Y-24350D01*
G37*
G36*
G01X22050Y-24200D02*
G01X22050Y-23800D01*
G01X22750Y-23800D01*
G01X22750Y-24200D01*
G01X22050Y-24200D01*
G37*
G54D15*
G01X22400Y-23000D03*
G04 Draw part DEC*
G54D14*
G01X-5000Y-3000D03*
G01X-4600Y-3000D03*
G01X-5000Y-2600D03*
G01X-4600Y-2600D03*
G36*
G01X-5000Y-3150D02*
G01X-5000Y-2450D01*
G01X-4600Y-2450D01*
G01X-4600Y-3150D01*
G01X-5000Y-3150D01*
G37*
G36*
G01X-5150Y-3000D02*
G01X-5150Y-2600D01*
G01X-4450Y-2600D01*
G01X-4450Y-3000D01*
G01X-5150Y-3000D01*
G37*
G54D15*
G01X-4800Y-1800D03*
G01X-3800Y-2800D03*
G01X-3800Y-1800D03*
G04 Draw part TAND*
G54D14*
G01X7000Y-200D03*
G01X7400Y-200D03*
G01X7000Y200D03*
G01X7400Y200D03*
G36*
G01X7000Y-350D02*
G01X7000Y350D01*
G01X7400Y350D01*
G01X7400Y-350D01*
G01X7000Y-350D01*
G37*
G36*
G01X6850Y-200D02*
G01X6850Y200D01*
G01X7550Y200D01*
G01X7550Y-200D01*
G01X6850Y-200D01*
G37*
G54D15*
G01X6200Y0D03*
G01X7200Y1000D03*
G01X6200Y1000D03*
G01X7200Y2000D03*
G01X6200Y2000D03*
G01X7200Y3000D03*
G01X6200Y3000D03*
G01X7200Y4000D03*
G01X6200Y4000D03*
G04 Draw part POWER*
G54D14*
G01X200Y-13800D03*
G01X600Y-13800D03*
G01X200Y-13400D03*
G01X600Y-13400D03*
G36*
G01X200Y-13950D02*
G01X200Y-13250D01*
G01X600Y-13250D01*
G01X600Y-13950D01*
G01X200Y-13950D01*
G37*
G36*
G01X50Y-13800D02*
G01X50Y-13400D01*
G01X750Y-13400D01*
G01X750Y-13800D01*
G01X50Y-13800D01*
G37*
G54D15*
G01X400Y-12600D03*
G01X1400Y-13600D03*
G01X1400Y-12600D03*

G04 Draw traces*
G54D16*
G01X17800Y15000D02*
G01X12800Y15000D01*
G01X2300Y-900D02*
G01X1300Y-900D01*
G01X1300Y-900D02*
G01X-700Y1100D01*
G01X-2000Y1100D02*
G01X-700Y1100D01*
G01X-18950Y10250D02*
G01X-17920Y10250D01*
G01X-17920Y10250D02*
G01X-17900Y10270D01*
G01X-18950Y6250D02*
G01X-18495Y6250D01*
G01X-18495Y6250D02*
G01X-18475Y6270D01*
G01X-18475Y6270D02*
G01X-17900Y6270D01*
G01X17800Y3000D02*
G01X12800Y3000D01*
G01X7200Y4000D02*
G01X8200Y3000D01*
G01X8200Y3000D02*
G01X12800Y3000D01*
G01X22400Y-24000D02*
G01X20870Y-25529D01*
G01X20870Y-25529D02*
G01X15270Y-25529D01*
G01X15270Y-25529D02*
G01X14200Y-26600D01*
G01X-13780Y-2900D02*
G01X-14920Y-2900D01*
G01X-14920Y-2900D02*
G01X-14950Y-2930D01*
G01X-14900Y14270D02*
G01X-15900Y13270D01*
G01X-15900Y13270D02*
G01X-17900Y13270D01*
G01X-700Y12700D02*
G01X-2270Y14270D01*
G01X-2270Y14270D02*
G01X-14900Y14270D01*
G01X11800Y9000D02*
G01X7344Y9000D01*
G01X7344Y9000D02*
G01X7033Y9310D01*
G01X7033Y9310D02*
G01X6510Y9310D01*
G01X6510Y9310D02*
G01X2316Y13503D01*
G01X2316Y13503D02*
G01X2300Y13503D01*
G01X2300Y13503D02*
G01X2103Y13503D01*
G01X2103Y13503D02*
G01X1300Y12700D01*
G01X1300Y12700D02*
G01X-700Y12700D01*
G01X11800Y-14200D02*
G01X8436Y-10836D01*
G01X8436Y-10836D02*
G01X4479Y-10836D01*
G01X4479Y-10836D02*
G01X4479Y-4017D01*
G01X4479Y-4017D02*
G01X3761Y-3300D01*
G01X3761Y-3300D02*
G01X2400Y-3300D01*
G01X-800Y-24600D02*
G01X-225Y-24025D01*
G01X-225Y-24025D02*
G01X-225Y-21194D01*
G01X-225Y-21194D02*
G01X-394Y-21025D01*
G01X-394Y-21025D02*
G01X-1225Y-21025D01*
G01X-1225Y-21025D02*
G01X-1800Y-21600D01*
G01X-10800Y-24600D02*
G01X-9874Y-23674D01*
G01X-9874Y-23674D02*
G01X-1725Y-23674D01*
G01X-1725Y-23674D02*
G01X-800Y-24600D01*
G01X-17900Y5270D02*
G01X-15900Y5270D01*
G01X-15900Y5270D02*
G01X-14900Y6270D01*
G01X-17950Y-2930D02*
G01X-15950Y-2930D01*
G01X-15950Y-2930D02*
G01X-14950Y-1930D01*
G01X-17900Y-10730D02*
G01X-15900Y-10730D01*
G01X-15900Y-10730D02*
G01X-14900Y-9730D01*
G01X24400Y8000D02*
G01X23365Y9034D01*
G01X23365Y9034D02*
G01X22753Y8422D01*
G01X22753Y8422D02*
G01X12377Y8422D01*
G01X12377Y8422D02*
G01X11800Y9000D01*
G01X24400Y-4000D02*
G01X23825Y-3425D01*
G01X23825Y-3425D02*
G01X21075Y-3425D01*
G01X21075Y-3425D02*
G01X20916Y-3583D01*
G01X20916Y-3583D02*
G01X12383Y-3583D01*
G01X12383Y-3583D02*
G01X11800Y-3000D01*
G01X9200Y-24600D02*
G01X8625Y-24025D01*
G01X8625Y-24025D02*
G01X-225Y-24025D01*
G01X2300Y5100D02*
G01X6510Y9310D01*
G01X2300Y13700D02*
G01X2300Y13503D01*
G01X23400Y11000D02*
G01X23365Y10965D01*
G01X23365Y10965D02*
G01X23365Y9034D01*
G01X400Y-12600D02*
G01X2164Y-10836D01*
G01X2164Y-10836D02*
G01X4479Y-10836D01*
G01X-700Y7700D02*
G01X-123Y8276D01*
G01X-123Y8276D02*
G01X-123Y10123D01*
G01X-123Y10123D02*
G01X-700Y10700D01*
G01X-700Y-900D02*
G01X-1175Y-1375D01*
G01X-1175Y-1375D02*
G01X-1175Y-8725D01*
G01X-1175Y-8725D02*
G01X-600Y-9300D01*
G01X3200Y-21600D02*
G01X2088Y-21600D01*
G01X2088Y-21600D02*
G01X1163Y-20675D01*
G01X1163Y-20675D02*
G01X-2875Y-20675D01*
G01X-2875Y-20675D02*
G01X-3800Y-21600D01*
G01X-6800Y-21600D02*
G01X-6225Y-21025D01*
G01X-6225Y-21025D02*
G01X-4375Y-21025D01*
G01X-4375Y-21025D02*
G01X-3800Y-21600D01*
G01X-13800Y-21600D02*
G01X-13225Y-21025D01*
G01X-13225Y-21025D02*
G01X-7375Y-21025D01*
G01X-7375Y-21025D02*
G01X-6800Y-21600D01*
G01X29400Y-15200D02*
G01X26725Y-17875D01*
G01X26725Y-17875D02*
G01X18475Y-17875D01*
G01X18475Y-17875D02*
G01X17800Y-17200D01*
G01X29400Y-4000D02*
G01X26724Y-6676D01*
G01X26724Y-6676D02*
G01X29980Y-9932D01*
G01X29980Y-9932D02*
G01X29980Y-14619D01*
G01X29980Y-14619D02*
G01X29400Y-15200D01*
G01X17800Y-6000D02*
G01X18476Y-6676D01*
G01X18476Y-6676D02*
G01X26724Y-6676D01*
G01X-21000Y-400D02*
G01X-21000Y-442D01*
G01X-21000Y-442D02*
G01X-21610Y-1053D01*
G01X-21610Y-1053D02*
G01X-22385Y-1053D01*
G01X-22385Y-1053D02*
G01X-23950Y511D01*
G01X-23950Y511D02*
G01X-23950Y2250D01*
G01X-2000Y5100D02*
G01X-700Y5100D01*
G01X-2000Y7800D02*
G01X-1317Y7117D01*
G01X-1317Y7117D02*
G01X1717Y7117D01*
G01X1717Y7117D02*
G01X2300Y7700D01*
G01X-18800Y-26600D02*
G01X-17938Y-25738D01*
G01X-17938Y-25738D02*
G01X-9777Y-25738D01*
G01X-9777Y-25738D02*
G01X-8064Y-24025D01*
G01X-8064Y-24025D02*
G01X-2375Y-24025D01*
G01X-2375Y-24025D02*
G01X-1800Y-24600D01*
G01X-19000Y-1950D02*
G01X-18545Y-1950D01*
G01X-18545Y-1950D02*
G01X-18525Y-1930D01*
G01X-18525Y-1930D02*
G01X-17950Y-1930D01*
G01X20400Y-17200D02*
G01X19820Y-16620D01*
G01X19820Y-16620D02*
G01X17379Y-16620D01*
G01X17379Y-16620D02*
G01X16800Y-17200D01*
G01X23400Y-17200D02*
G01X20400Y-17200D01*
G01X29400Y-12200D02*
G01X26400Y-15200D01*
G01X17800Y-8200D02*
G01X12800Y-8200D01*
G01X-4800Y-2800D02*
G01X-4800Y-5915D01*
G01X-4800Y-5915D02*
G01X-834Y-9880D01*
G01X-834Y-9880D02*
G01X1819Y-9880D01*
G01X1819Y-9880D02*
G01X2400Y-9300D01*
G01X3800Y-9300D02*
G01X2400Y-9300D01*
G01X-4800Y-2800D02*
G01X-5450Y-2149D01*
G01X-5450Y-2149D02*
G01X-5450Y-1394D01*
G01X-5450Y-1394D02*
G01X-955Y3100D01*
G01X-955Y3100D02*
G01X-700Y3100D01*
G01X-15800Y-19600D02*
G01X-15075Y-20325D01*
G01X-15075Y-20325D02*
G01X1308Y-20325D01*
G01X1308Y-20325D02*
G01X1959Y-20975D01*
G01X1959Y-20975D02*
G01X6575Y-20975D01*
G01X6575Y-20975D02*
G01X7200Y-21600D01*
G01X-17800Y-19600D02*
G01X-15800Y-19600D01*
G01X-21000Y-8400D02*
G01X-21000Y-8440D01*
G01X-21000Y-8440D02*
G01X-21614Y-9055D01*
G01X-21614Y-9055D02*
G01X-22387Y-9055D01*
G01X-22387Y-9055D02*
G01X-24000Y-7443D01*
G01X-24000Y-7443D02*
G01X-24000Y-5950D01*
G01X3800Y13700D02*
G01X3225Y14275D01*
G01X3225Y14275D02*
G01X450Y14275D01*
G01X450Y14275D02*
G01X-125Y13700D01*
G01X-125Y13700D02*
G01X-700Y13700D01*
G01X-11800Y-26600D02*
G01X-13800Y-26600D01*
G01X-12400Y3400D02*
G01X-12437Y3400D01*
G01X-12437Y3400D02*
G01X-13055Y2782D01*
G01X-13055Y2782D02*
G01X-13055Y14D01*
G01X-13055Y14D02*
G01X-13445Y-376D01*
G01X-13445Y-376D02*
G01X-16253Y-376D01*
G01X-16253Y-376D02*
G01X-17900Y1270D01*
G01X-13730Y300D02*
G01X-14870Y300D01*
G01X-14870Y300D02*
G01X-14900Y270D01*
G01X-13730Y-10700D02*
G01X-14870Y-10700D01*
G01X-14870Y-10700D02*
G01X-14900Y-10730D01*
G01X-18950Y2250D02*
G01X-17920Y2250D01*
G01X-17920Y2250D02*
G01X-17900Y2270D01*
G01X-22000Y600D02*
G01X-18330Y4270D01*
G01X-18330Y4270D02*
G01X-17900Y4270D01*
G01X7200Y2000D02*
G01X22400Y2000D01*
G01X22400Y2000D02*
G01X28400Y8000D01*
G01X-18950Y-9750D02*
G01X-18495Y-9750D01*
G01X-18495Y-9750D02*
G01X-18475Y-9730D01*
G01X-18475Y-9730D02*
G01X-17900Y-9730D01*
G01X-21000Y-15800D02*
G01X-21000Y-11800D01*
G01X-21000Y-11800D02*
G01X-18950Y-9750D01*
G01X-13780Y-7900D02*
G01X-14920Y-7900D01*
G01X-14920Y-7900D02*
G01X-14950Y-7930D01*
G01X-12400Y-5000D02*
G01X-12441Y-5000D01*
G01X-12441Y-5000D02*
G01X-13055Y-5614D01*
G01X-13055Y-5614D02*
G01X-13055Y-8130D01*
G01X-13055Y-8130D02*
G01X-13499Y-8575D01*
G01X-13499Y-8575D02*
G01X-16304Y-8575D01*
G01X-16304Y-8575D02*
G01X-17950Y-6930D01*
G54D17*
G01X10845Y-2691D03*
G54D16*
G01X10845Y-2691D02*
G01X10845Y-2866D01*
G01X10845Y-2866D02*
G01X12558Y-4579D01*
G01X12558Y-4579D02*
G01X27820Y-4579D01*
G01X27820Y-4579D02*
G01X28400Y-4000D01*
G01X6200Y1000D02*
G01X5548Y1651D01*
G01X5548Y1651D02*
G01X5548Y4268D01*
G01X5548Y4268D02*
G01X8567Y7286D01*
G01X8567Y7286D02*
G01X24686Y7286D01*
G01X24686Y7286D02*
G01X25400Y8000D01*
G01X20400Y6000D02*
G01X18613Y6000D01*
G01X18613Y6000D02*
G01X18038Y6575D01*
G01X18038Y6575D02*
G01X17375Y6575D01*
G01X17375Y6575D02*
G01X16800Y6000D01*
G01X23400Y6000D02*
G01X20400Y6000D01*
G01X-800Y-26600D02*
G01X622Y-25177D01*
G01X622Y-25177D02*
G01X12622Y-25177D01*
G01X12622Y-25177D02*
G01X13200Y-24600D01*
G01X-22000Y-7400D02*
G01X-18530Y-3930D01*
G01X-18530Y-3930D02*
G01X-17950Y-3930D01*
G01X-19000Y-5950D02*
G01X-17970Y-5950D01*
G01X-17970Y-5950D02*
G01X-17950Y-5930D01*
G54D17*
G01X9649Y1468D03*
G54D16*
G01X9649Y1468D02*
G01X19931Y1468D01*
G01X19931Y1468D02*
G01X25400Y-4000D01*
G01X20400Y-6000D02*
G01X19820Y-5420D01*
G01X19820Y-5420D02*
G01X17379Y-5420D01*
G01X17379Y-5420D02*
G01X16800Y-6000D01*
G01X23400Y-6000D02*
G01X20400Y-6000D01*
G01X-12000Y11400D02*
G01X-12037Y11400D01*
G01X-12037Y11400D02*
G01X-12656Y10780D01*
G01X-12656Y10780D02*
G01X-12656Y8416D01*
G01X-12656Y8416D02*
G01X-13449Y7624D01*
G01X-13449Y7624D02*
G01X-16254Y7624D01*
G01X-16254Y7624D02*
G01X-17900Y9270D01*
G01X2300Y12700D02*
G01X1300Y11700D01*
G01X1300Y11700D02*
G01X-700Y11700D01*
G01X-2000Y11700D02*
G01X-700Y11700D01*
G01X-800Y-19600D02*
G01X1078Y-19600D01*
G01X1078Y-19600D02*
G01X2104Y-20625D01*
G01X2104Y-20625D02*
G01X9831Y-20625D01*
G01X9831Y-20625D02*
G01X13194Y-23988D01*
G01X13194Y-23988D02*
G01X17588Y-23988D01*
G01X17588Y-23988D02*
G01X18200Y-24600D01*
G01X-22000Y8600D02*
G01X-18330Y12270D01*
G01X-18330Y12270D02*
G01X-17900Y12270D01*
G01X29400Y11000D02*
G01X26400Y8000D01*
G01X24400Y-12200D02*
G01X23683Y-12916D01*
G01X23683Y-12916D02*
G01X23372Y-12916D01*
G54D17*
G01X23372Y-12916D03*
G54D16*
G01X8200Y-19600D02*
G01X11200Y-19600D01*
G01X-13730Y-15700D02*
G01X-14870Y-15700D01*
G01X-14870Y-15700D02*
G01X-14900Y-15730D01*
G01X-12400Y-12600D02*
G01X-12437Y-12600D01*
G01X-12437Y-12600D02*
G01X-13050Y-13212D01*
G01X-13050Y-13212D02*
G01X-13050Y-15977D01*
G01X-13050Y-15977D02*
G01X-13448Y-16375D01*
G01X-13448Y-16375D02*
G01X-16254Y-16375D01*
G01X-16254Y-16375D02*
G01X-17900Y-14730D01*
G01X1400Y-13600D02*
G01X400Y-13600D01*
G01X29400Y-1000D02*
G01X26400Y-4000D01*
G01X-6800Y-26600D02*
G01X-6800Y-24600D01*
G01X-22000Y-16800D02*
G01X-21347Y-17452D01*
G01X-21347Y-17452D02*
G01X-20728Y-17452D01*
G01X-20728Y-17452D02*
G01X-18625Y-15348D01*
G01X-18625Y-15348D02*
G01X-18625Y-13750D01*
G01X-18625Y-13750D02*
G01X-17920Y-13750D01*
G01X-17920Y-13750D02*
G01X-17900Y-13730D01*
G01X-18950Y-13750D02*
G01X-18625Y-13750D01*
G01X2300Y4100D02*
G01X-700Y4100D01*
G01X3800Y-4300D02*
G01X2400Y-4300D01*
G01X-21000Y7600D02*
G01X-21000Y7551D01*
G01X-21000Y7551D02*
G01X-21607Y6944D01*
G01X-21607Y6944D02*
G01X-22386Y6944D01*
G01X-22386Y6944D02*
G01X-23950Y8507D01*
G01X-23950Y8507D02*
G01X-23950Y10250D01*
G01X7200Y0D02*
G01X10825Y-3625D01*
G01X10825Y-3625D02*
G01X10825Y-7185D01*
G01X10825Y-7185D02*
G01X13099Y-9459D01*
G01X13099Y-9459D02*
G01X19293Y-9459D01*
G01X19293Y-9459D02*
G01X23190Y-13356D01*
G01X23190Y-13356D02*
G01X23556Y-13356D01*
G01X23556Y-13356D02*
G01X25400Y-15200D01*
G01X16200Y-19600D02*
G01X15524Y-20275D01*
G01X15524Y-20275D02*
G01X2376Y-20275D01*
G01X2376Y-20275D02*
G01X2118Y-20017D01*
G54D17*
G01X2118Y-20017D03*
G54D16*
G01X-15800Y-21600D02*
G01X-15222Y-22177D01*
G01X-15222Y-22177D02*
G01X-1377Y-22177D01*
G01X-1377Y-22177D02*
G01X-800Y-21600D01*
G01X6200Y0D02*
G01X6200Y-3056D01*
G01X6200Y-3056D02*
G01X13061Y-9917D01*
G01X13061Y-9917D02*
G01X16513Y-9917D01*
G01X16513Y-9917D02*
G01X22370Y-15775D01*
G01X22370Y-15775D02*
G01X27825Y-15775D01*
G01X27825Y-15775D02*
G01X28400Y-15200D01*
G01X22400Y-23000D02*
G01X15600Y-23000D01*
G01X15600Y-23000D02*
G01X14200Y-21600D01*
G01X-13730Y13300D02*
G01X-14870Y13300D01*
G01X-14870Y13300D02*
G01X-14900Y13270D01*
G01X-11000Y11400D02*
G01X-12900Y13300D01*
G01X-12900Y13300D02*
G01X-13730Y13300D01*
G01X-3800Y-1800D02*
G01X-1900Y100D01*
G01X-1900Y100D02*
G01X-700Y100D01*
G01X-18950Y14250D02*
G01X-18495Y14250D01*
G01X-18495Y14250D02*
G01X-18475Y14270D01*
G01X-18475Y14270D02*
G01X-17900Y14270D01*
G01X-22800Y-19600D02*
G01X-21800Y-19600D01*
G01X-21800Y-19600D02*
G01X-16800Y-24600D01*
G01X-13730Y8300D02*
G01X-14870Y8300D01*
G01X-14870Y8300D02*
G01X-14900Y8270D01*
G01X-13730Y5300D02*
G01X-14870Y5300D01*
G01X-14870Y5300D02*
G01X-14900Y5270D01*

G04 Draw Text*
M00*
M02*
