G04 FreePCB version 1.343*
G04 Z:\trinary\code\bb\CAM-logic\top_solder_mask.grb*
G04  layer *
G04 Scale: 100 percent, Rotated: No, Reflected: No *
%FSLAX24Y24*%
%MOIN*%
%LNTop*%
%ADD10C,0.005000*%
%ADD11R,0.071000X0.071000*%
%ADD12C,0.071000*%
%ADD13R,0.066000X0.066000*%
%ADD14C,0.066000*%
%ADD15C,0.044000*%
%ADD16C,0.016000*%
G90*
G70D02*

G04 Step and Repeat for panelization *

G04 ----------------------- Draw board outline (positive)*
%LPD*%
G54D10*
G01X-30000Y40000D02*
G01X20000Y40000D01*
G04 end of side 1*
G01X20000Y-20000D01*
G04 end of side 2*
G01X-30000Y-20000D01*
G04 end of side 3*
G01X-30000Y40000D01*

G04 -------------- Draw Parts, Pads, Traces, Vias and Text (positive)*
%LPD*%
G04 Draw part IC_CD4007_1*
G54D11*
G01X-21580Y38650D03*
G54D12*
G01X-22580Y38650D03*
G01X-23580Y38650D03*
G01X-24580Y38650D03*
G01X-25580Y38650D03*
G01X-26580Y38650D03*
G01X-27580Y38650D03*
G01X-27580Y35650D03*
G01X-26580Y35650D03*
G01X-25580Y35650D03*
G01X-24580Y35650D03*
G01X-23580Y35650D03*
G01X-22580Y35650D03*
G01X-21580Y35650D03*
G04 Draw part IC_MDP1403-12K_2*
G54D11*
G01X-8580Y29650D03*
G54D12*
G01X-9580Y29650D03*
G01X-10580Y29650D03*
G01X-11580Y29650D03*
G01X-12580Y29650D03*
G01X-13580Y29650D03*
G01X-14580Y29650D03*
G01X-14580Y26650D03*
G01X-13580Y26650D03*
G01X-12580Y26650D03*
G01X-11580Y26650D03*
G01X-10580Y26650D03*
G01X-9580Y26650D03*
G01X-8580Y26650D03*
G04 Draw part IC_CD4007_3*
G54D11*
G01X-8580Y38650D03*
G54D12*
G01X-9580Y38650D03*
G01X-10580Y38650D03*
G01X-11580Y38650D03*
G01X-12580Y38650D03*
G01X-13580Y38650D03*
G01X-14580Y38650D03*
G01X-14580Y35650D03*
G01X-13580Y35650D03*
G01X-12580Y35650D03*
G01X-11580Y35650D03*
G01X-10580Y35650D03*
G01X-9580Y35650D03*
G01X-8580Y35650D03*
G04 Draw part IC_CD4007_4*
G54D11*
G01X-21580Y20650D03*
G54D12*
G01X-22580Y20650D03*
G01X-23580Y20650D03*
G01X-24580Y20650D03*
G01X-25580Y20650D03*
G01X-26580Y20650D03*
G01X-27580Y20650D03*
G01X-27580Y17650D03*
G01X-26580Y17650D03*
G01X-25580Y17650D03*
G01X-24580Y17650D03*
G01X-23580Y17650D03*
G01X-22580Y17650D03*
G01X-21580Y17650D03*
G04 Draw part IC_MDP1403-12K_5*
G54D11*
G01X-8580Y2650D03*
G54D12*
G01X-9580Y2650D03*
G01X-10580Y2650D03*
G01X-11580Y2650D03*
G01X-12580Y2650D03*
G01X-13580Y2650D03*
G01X-14580Y2650D03*
G01X-14580Y-350D03*
G01X-13580Y-350D03*
G01X-12580Y-350D03*
G01X-11580Y-350D03*
G01X-10580Y-350D03*
G01X-9580Y-350D03*
G01X-8580Y-350D03*
G04 Draw part IC_CD4007_6*
G54D11*
G01X-8580Y11650D03*
G54D12*
G01X-9580Y11650D03*
G01X-10580Y11650D03*
G01X-11580Y11650D03*
G01X-12580Y11650D03*
G01X-13580Y11650D03*
G01X-14580Y11650D03*
G01X-14580Y8650D03*
G01X-13580Y8650D03*
G01X-12580Y8650D03*
G01X-11580Y8650D03*
G01X-10580Y8650D03*
G01X-9580Y8650D03*
G01X-8580Y8650D03*
G04 Draw part IC_CD4007_7*
G54D11*
G01X-21580Y11650D03*
G54D12*
G01X-22580Y11650D03*
G01X-23580Y11650D03*
G01X-24580Y11650D03*
G01X-25580Y11650D03*
G01X-26580Y11650D03*
G01X-27580Y11650D03*
G01X-27580Y8650D03*
G01X-26580Y8650D03*
G01X-25580Y8650D03*
G01X-24580Y8650D03*
G01X-23580Y8650D03*
G01X-22580Y8650D03*
G01X-21580Y8650D03*
G04 Draw part IC_MDP1403-12K_8*
G54D11*
G01X-8580Y20650D03*
G54D12*
G01X-9580Y20650D03*
G01X-10580Y20650D03*
G01X-11580Y20650D03*
G01X-12580Y20650D03*
G01X-13580Y20650D03*
G01X-14580Y20650D03*
G01X-14580Y17650D03*
G01X-13580Y17650D03*
G01X-12580Y17650D03*
G01X-11580Y17650D03*
G01X-10580Y17650D03*
G01X-9580Y17650D03*
G01X-8580Y17650D03*
G04 Draw part IC_CD4007_9*
G54D11*
G01X-21500Y30000D03*
G54D12*
G01X-22500Y30000D03*
G01X-23500Y30000D03*
G01X-24500Y30000D03*
G01X-25500Y30000D03*
G01X-26500Y30000D03*
G01X-27500Y30000D03*
G01X-27500Y27000D03*
G01X-26500Y27000D03*
G01X-25500Y27000D03*
G01X-24500Y27000D03*
G01X-23500Y27000D03*
G01X-22500Y27000D03*
G01X-21500Y27000D03*
G04 Draw part IC_CD4007_10*
G54D11*
G01X4420Y29650D03*
G54D12*
G01X3420Y29650D03*
G01X2420Y29650D03*
G01X1420Y29650D03*
G01X420Y29650D03*
G01X-580Y29650D03*
G01X-1580Y29650D03*
G01X-1580Y26650D03*
G01X-580Y26650D03*
G01X420Y26650D03*
G01X1420Y26650D03*
G01X2420Y26650D03*
G01X3420Y26650D03*
G01X4420Y26650D03*
G04 Draw part IC_CD4007_11*
G54D11*
G01X4420Y20650D03*
G54D12*
G01X3420Y20650D03*
G01X2420Y20650D03*
G01X1420Y20650D03*
G01X420Y20650D03*
G01X-580Y20650D03*
G01X-1580Y20650D03*
G01X-1580Y17650D03*
G01X-580Y17650D03*
G01X420Y17650D03*
G01X1420Y17650D03*
G01X2420Y17650D03*
G01X3420Y17650D03*
G01X4420Y17650D03*
G04 Draw part IC_MDP1403-12K_12*
G54D11*
G01X4420Y11650D03*
G54D12*
G01X3420Y11650D03*
G01X2420Y11650D03*
G01X1420Y11650D03*
G01X420Y11650D03*
G01X-580Y11650D03*
G01X-1580Y11650D03*
G01X-1580Y8650D03*
G01X-580Y8650D03*
G01X420Y8650D03*
G01X1420Y8650D03*
G01X2420Y8650D03*
G01X3420Y8650D03*
G01X4420Y8650D03*
G04 Draw part IC_CD4007_13*
G54D11*
G01X4420Y2650D03*
G54D12*
G01X3420Y2650D03*
G01X2420Y2650D03*
G01X1420Y2650D03*
G01X420Y2650D03*
G01X-580Y2650D03*
G01X-1580Y2650D03*
G01X-1580Y-350D03*
G01X-580Y-350D03*
G01X420Y-350D03*
G01X1420Y-350D03*
G01X2420Y-350D03*
G01X3420Y-350D03*
G01X4420Y-350D03*
G04 Draw part IC_CD4007_14*
G54D11*
G01X3670Y-6100D03*
G54D12*
G01X2670Y-6100D03*
G01X1670Y-6100D03*
G01X670Y-6100D03*
G01X-330Y-6100D03*
G01X-1330Y-6100D03*
G01X-2330Y-6100D03*
G01X-2330Y-9100D03*
G01X-1330Y-9100D03*
G01X-330Y-9100D03*
G01X670Y-9100D03*
G01X1670Y-9100D03*
G01X2670Y-9100D03*
G01X3670Y-9100D03*
G04 Draw part IC_CD4007_15*
G54D11*
G01X-21580Y-5850D03*
G54D12*
G01X-22580Y-5850D03*
G01X-23580Y-5850D03*
G01X-24580Y-5850D03*
G01X-25580Y-5850D03*
G01X-26580Y-5850D03*
G01X-27580Y-5850D03*
G01X-27580Y-8850D03*
G01X-26580Y-8850D03*
G01X-25580Y-8850D03*
G01X-24580Y-8850D03*
G01X-23580Y-8850D03*
G01X-22580Y-8850D03*
G01X-21580Y-8850D03*
G04 Draw part IC_MDP1403-12K_16*
G54D11*
G01X-9500Y-6000D03*
G54D12*
G01X-10500Y-6000D03*
G01X-11500Y-6000D03*
G01X-12500Y-6000D03*
G01X-13500Y-6000D03*
G01X-14500Y-6000D03*
G01X-15500Y-6000D03*
G01X-15500Y-9000D03*
G01X-14500Y-9000D03*
G01X-13500Y-9000D03*
G01X-12500Y-9000D03*
G01X-11500Y-9000D03*
G01X-10500Y-9000D03*
G01X-9500Y-9000D03*
G04 Draw part IC_CD4007_17*
G54D11*
G01X17170Y-13350D03*
G54D12*
G01X16170Y-13350D03*
G01X15170Y-13350D03*
G01X14170Y-13350D03*
G01X13170Y-13350D03*
G01X12170Y-13350D03*
G01X11170Y-13350D03*
G01X11170Y-16350D03*
G01X12170Y-16350D03*
G01X13170Y-16350D03*
G01X14170Y-16350D03*
G01X15170Y-16350D03*
G01X16170Y-16350D03*
G01X17170Y-16350D03*
G04 Draw part IC_MDP1403-12K_18*
G54D11*
G01X17420Y38650D03*
G54D12*
G01X16420Y38650D03*
G01X15420Y38650D03*
G01X14420Y38650D03*
G01X13420Y38650D03*
G01X12420Y38650D03*
G01X11420Y38650D03*
G01X11420Y35650D03*
G01X12420Y35650D03*
G01X13420Y35650D03*
G01X14420Y35650D03*
G01X15420Y35650D03*
G01X16420Y35650D03*
G01X17420Y35650D03*
G04 Draw part IC_CD4007_19*
G54D11*
G01X4420Y38650D03*
G54D12*
G01X3420Y38650D03*
G01X2420Y38650D03*
G01X1420Y38650D03*
G01X420Y38650D03*
G01X-580Y38650D03*
G01X-1580Y38650D03*
G01X-1580Y35650D03*
G01X-580Y35650D03*
G01X420Y35650D03*
G01X1420Y35650D03*
G01X2420Y35650D03*
G01X3420Y35650D03*
G01X4420Y35650D03*
G04 Draw part IC_CD4007_20*
G54D11*
G01X17420Y29650D03*
G54D12*
G01X16420Y29650D03*
G01X15420Y29650D03*
G01X14420Y29650D03*
G01X13420Y29650D03*
G01X12420Y29650D03*
G01X11420Y29650D03*
G01X11420Y26650D03*
G01X12420Y26650D03*
G01X13420Y26650D03*
G01X14420Y26650D03*
G01X15420Y26650D03*
G01X16420Y26650D03*
G01X17420Y26650D03*
G04 Draw part IC_MDP1403-12K_21*
G54D11*
G01X17420Y20650D03*
G54D12*
G01X16420Y20650D03*
G01X15420Y20650D03*
G01X14420Y20650D03*
G01X13420Y20650D03*
G01X12420Y20650D03*
G01X11420Y20650D03*
G01X11420Y17650D03*
G01X12420Y17650D03*
G01X13420Y17650D03*
G01X14420Y17650D03*
G01X15420Y17650D03*
G01X16420Y17650D03*
G01X17420Y17650D03*
G04 Draw part IC_CD4007_22*
G54D11*
G01X17420Y11650D03*
G54D12*
G01X16420Y11650D03*
G01X15420Y11650D03*
G01X14420Y11650D03*
G01X13420Y11650D03*
G01X12420Y11650D03*
G01X11420Y11650D03*
G01X11420Y8650D03*
G01X12420Y8650D03*
G01X13420Y8650D03*
G01X14420Y8650D03*
G01X15420Y8650D03*
G01X16420Y8650D03*
G01X17420Y8650D03*
G04 Draw part IC_CD4007_23*
G54D11*
G01X17420Y2650D03*
G54D12*
G01X16420Y2650D03*
G01X15420Y2650D03*
G01X14420Y2650D03*
G01X13420Y2650D03*
G01X12420Y2650D03*
G01X11420Y2650D03*
G01X11420Y-350D03*
G01X12420Y-350D03*
G01X13420Y-350D03*
G01X14420Y-350D03*
G01X15420Y-350D03*
G01X16420Y-350D03*
G01X17420Y-350D03*
G04 Draw part IC_MDP1403-12K_24*
G54D11*
G01X15920Y-6350D03*
G54D12*
G01X14920Y-6350D03*
G01X13920Y-6350D03*
G01X12920Y-6350D03*
G01X11920Y-6350D03*
G01X10920Y-6350D03*
G01X9920Y-6350D03*
G01X9920Y-9350D03*
G01X10920Y-9350D03*
G01X11920Y-9350D03*
G01X12920Y-9350D03*
G01X13920Y-9350D03*
G01X14920Y-9350D03*
G01X15920Y-9350D03*
G04 Draw part IC_CD4007_25*
G54D11*
G01X-21500Y3000D03*
G54D12*
G01X-22500Y3000D03*
G01X-23500Y3000D03*
G01X-24500Y3000D03*
G01X-25500Y3000D03*
G01X-26500Y3000D03*
G01X-27500Y3000D03*
G01X-27500Y0D03*
G01X-26500Y0D03*
G01X-25500Y0D03*
G01X-24500Y0D03*
G01X-23500Y0D03*
G01X-22500Y0D03*
G01X-21500Y0D03*
G04 Draw part LOGIC*
G54D13*
G01X-16000Y-15500D03*
G54D14*
G01X-16000Y-14500D03*
G01X-15000Y-15500D03*
G01X-15000Y-14500D03*
G01X-14000Y-15500D03*
G01X-14000Y-14500D03*
G01X-13000Y-15500D03*
G01X-13000Y-14500D03*
G01X-12000Y-15500D03*
G01X-12000Y-14500D03*
G01X-11000Y-15500D03*
G01X-11000Y-14500D03*
G01X-10000Y-15500D03*
G01X-10000Y-14500D03*
G01X-9000Y-15500D03*
G01X-9000Y-14500D03*
G01X-8000Y-15500D03*
G01X-8000Y-14500D03*
G01X-7000Y-15500D03*
G01X-7000Y-14500D03*
G01X-6000Y-15500D03*
G01X-6000Y-14500D03*
G01X-5000Y-15500D03*
G01X-5000Y-14500D03*
G01X-4000Y-15500D03*
G01X-4000Y-14500D03*
G01X-3000Y-15500D03*
G01X-3000Y-14500D03*
G01X-2000Y-15500D03*
G01X-2000Y-14500D03*
G01X-1000Y-15500D03*
G01X-1000Y-14500D03*
G01X0Y-15500D03*
G01X0Y-14500D03*
G01X1000Y-15500D03*
G01X1000Y-14500D03*
G01X2000Y-15500D03*
G01X2000Y-14500D03*
G01X3000Y-15500D03*
G01X3000Y-14500D03*
G01X4000Y-15500D03*
G01X4000Y-14500D03*
G01X5000Y-15500D03*
G01X5000Y-14500D03*
G01X6000Y-15500D03*
G01X6000Y-14500D03*
G01X7000Y-15500D03*
G01X7000Y-14500D03*
G01X8000Y-15500D03*
G01X8000Y-14500D03*

G04 Draw traces*
G54D15*
G01X-14554Y24191D03*
G01X235Y-16697D03*
G01X10530Y-13388D03*
G01X-5509Y-11218D03*
G01X-2543Y-11805D03*
G01X-4000Y35400D03*
G01X-6400Y34600D03*
G01X-6400Y32400D03*
G01X-2600Y32400D03*
G01X5345Y-12335D03*
G01X13826Y-11973D03*
G01X3420Y34664D03*
G01X-15740Y15121D03*
G01X-883Y-11718D03*
G01X-1513Y-12899D03*
G01X3854Y27555D03*
G01X-22541Y23073D03*
G01X-7068Y-17873D03*
G01X5964Y19665D03*
G01X-1363Y-11718D03*
G01X-3822Y-12692D03*
G01X-5448Y15430D03*
G01X-2094Y-7080D03*
G01X-21264Y23417D03*
G01X-12301Y30489D03*
G01X5995Y-6587D03*
G01X-23580Y-4611D03*
G01X-8063Y-2950D03*
G01X5323Y11762D03*
G01X6574Y-6612D03*
G01X14205Y13961D03*
G01X-8453Y-2646D03*
G01X-5125Y16535D03*
G01X-13458Y24517D03*
G01X-16329Y16723D03*
G01X-7088Y-16328D03*
G01X6991Y1747D03*
G01X-13632Y22655D03*
G01X-15462Y-13046D03*
G01X-16860Y20608D03*
G01X8051Y18435D03*
G01X16736Y-14647D03*
G01X-17586Y9787D03*
G01X-13946Y-10415D03*
G01X-5615Y2766D03*
G01X-4625Y-6909D03*
G01X-9912Y-17716D03*
G01X-1220Y-17978D03*
G01X-13500Y-7421D03*
G01X-579Y-12108D03*
G01X11881Y-11592D03*
G01X-16417Y17341D03*

G04 Draw Text*
G54D16*

G04 Draw solder mask cutouts*
M00*
M02*
