G04 FreePCB version 1.343*
G04 Z:\trinary\code\bb\CAM-logic\top_copper.grb*
G04 top copper layer *
G04 Scale: 100 percent, Rotated: No, Reflected: No *
%FSLAX24Y24*%
%MOIN*%
%LNTop*%
%ADD10C,0.005000*%
%ADD11R,0.055000X0.055000*%
%ADD12C,0.055000*%
%ADD13R,0.050000X0.050000*%
%ADD14C,0.050000*%
%ADD15C,0.010000*%
%ADD16C,0.028000*%
G90*
G70D02*

G04 Step and Repeat for panelization *

G04 ----------------------- Draw board outline (positive)*
%LPD*%
G54D10*
G01X-30000Y40000D02*
G01X20000Y40000D01*
G04 end of side 1*
G01X20000Y-20000D01*
G04 end of side 2*
G01X-30000Y-20000D01*
G04 end of side 3*
G01X-30000Y40000D01*

G04 -------------- Draw Parts, Pads, Traces, Vias and Text (positive)*
%LPD*%
G04 Draw part IC_CD4007_1*
G54D11*
G01X-21580Y38650D03*
G54D12*
G01X-22580Y38650D03*
G01X-23580Y38650D03*
G01X-24580Y38650D03*
G01X-25580Y38650D03*
G01X-26580Y38650D03*
G01X-27580Y38650D03*
G01X-27580Y35650D03*
G01X-26580Y35650D03*
G01X-25580Y35650D03*
G01X-24580Y35650D03*
G01X-23580Y35650D03*
G01X-22580Y35650D03*
G01X-21580Y35650D03*
G04 Draw part IC_MDP1403-12K_2*
G54D11*
G01X-8580Y29650D03*
G54D12*
G01X-9580Y29650D03*
G01X-10580Y29650D03*
G01X-11580Y29650D03*
G01X-12580Y29650D03*
G01X-13580Y29650D03*
G01X-14580Y29650D03*
G01X-14580Y26650D03*
G01X-13580Y26650D03*
G01X-12580Y26650D03*
G01X-11580Y26650D03*
G01X-10580Y26650D03*
G01X-9580Y26650D03*
G01X-8580Y26650D03*
G04 Draw part IC_CD4007_3*
G54D11*
G01X-8580Y38650D03*
G54D12*
G01X-9580Y38650D03*
G01X-10580Y38650D03*
G01X-11580Y38650D03*
G01X-12580Y38650D03*
G01X-13580Y38650D03*
G01X-14580Y38650D03*
G01X-14580Y35650D03*
G01X-13580Y35650D03*
G01X-12580Y35650D03*
G01X-11580Y35650D03*
G01X-10580Y35650D03*
G01X-9580Y35650D03*
G01X-8580Y35650D03*
G04 Draw part IC_CD4007_4*
G54D11*
G01X-21580Y20650D03*
G54D12*
G01X-22580Y20650D03*
G01X-23580Y20650D03*
G01X-24580Y20650D03*
G01X-25580Y20650D03*
G01X-26580Y20650D03*
G01X-27580Y20650D03*
G01X-27580Y17650D03*
G01X-26580Y17650D03*
G01X-25580Y17650D03*
G01X-24580Y17650D03*
G01X-23580Y17650D03*
G01X-22580Y17650D03*
G01X-21580Y17650D03*
G04 Draw part IC_MDP1403-12K_5*
G54D11*
G01X-8580Y2650D03*
G54D12*
G01X-9580Y2650D03*
G01X-10580Y2650D03*
G01X-11580Y2650D03*
G01X-12580Y2650D03*
G01X-13580Y2650D03*
G01X-14580Y2650D03*
G01X-14580Y-350D03*
G01X-13580Y-350D03*
G01X-12580Y-350D03*
G01X-11580Y-350D03*
G01X-10580Y-350D03*
G01X-9580Y-350D03*
G01X-8580Y-350D03*
G04 Draw part IC_CD4007_6*
G54D11*
G01X-8580Y11650D03*
G54D12*
G01X-9580Y11650D03*
G01X-10580Y11650D03*
G01X-11580Y11650D03*
G01X-12580Y11650D03*
G01X-13580Y11650D03*
G01X-14580Y11650D03*
G01X-14580Y8650D03*
G01X-13580Y8650D03*
G01X-12580Y8650D03*
G01X-11580Y8650D03*
G01X-10580Y8650D03*
G01X-9580Y8650D03*
G01X-8580Y8650D03*
G04 Draw part IC_CD4007_7*
G54D11*
G01X-21580Y11650D03*
G54D12*
G01X-22580Y11650D03*
G01X-23580Y11650D03*
G01X-24580Y11650D03*
G01X-25580Y11650D03*
G01X-26580Y11650D03*
G01X-27580Y11650D03*
G01X-27580Y8650D03*
G01X-26580Y8650D03*
G01X-25580Y8650D03*
G01X-24580Y8650D03*
G01X-23580Y8650D03*
G01X-22580Y8650D03*
G01X-21580Y8650D03*
G04 Draw part IC_MDP1403-12K_8*
G54D11*
G01X-8580Y20650D03*
G54D12*
G01X-9580Y20650D03*
G01X-10580Y20650D03*
G01X-11580Y20650D03*
G01X-12580Y20650D03*
G01X-13580Y20650D03*
G01X-14580Y20650D03*
G01X-14580Y17650D03*
G01X-13580Y17650D03*
G01X-12580Y17650D03*
G01X-11580Y17650D03*
G01X-10580Y17650D03*
G01X-9580Y17650D03*
G01X-8580Y17650D03*
G04 Draw part IC_CD4007_9*
G54D11*
G01X-21500Y30000D03*
G54D12*
G01X-22500Y30000D03*
G01X-23500Y30000D03*
G01X-24500Y30000D03*
G01X-25500Y30000D03*
G01X-26500Y30000D03*
G01X-27500Y30000D03*
G01X-27500Y27000D03*
G01X-26500Y27000D03*
G01X-25500Y27000D03*
G01X-24500Y27000D03*
G01X-23500Y27000D03*
G01X-22500Y27000D03*
G01X-21500Y27000D03*
G04 Draw part IC_CD4007_10*
G54D11*
G01X4420Y29650D03*
G54D12*
G01X3420Y29650D03*
G01X2420Y29650D03*
G01X1420Y29650D03*
G01X420Y29650D03*
G01X-580Y29650D03*
G01X-1580Y29650D03*
G01X-1580Y26650D03*
G01X-580Y26650D03*
G01X420Y26650D03*
G01X1420Y26650D03*
G01X2420Y26650D03*
G01X3420Y26650D03*
G01X4420Y26650D03*
G04 Draw part IC_CD4007_11*
G54D11*
G01X4420Y20650D03*
G54D12*
G01X3420Y20650D03*
G01X2420Y20650D03*
G01X1420Y20650D03*
G01X420Y20650D03*
G01X-580Y20650D03*
G01X-1580Y20650D03*
G01X-1580Y17650D03*
G01X-580Y17650D03*
G01X420Y17650D03*
G01X1420Y17650D03*
G01X2420Y17650D03*
G01X3420Y17650D03*
G01X4420Y17650D03*
G04 Draw part IC_MDP1403-12K_12*
G54D11*
G01X4420Y11650D03*
G54D12*
G01X3420Y11650D03*
G01X2420Y11650D03*
G01X1420Y11650D03*
G01X420Y11650D03*
G01X-580Y11650D03*
G01X-1580Y11650D03*
G01X-1580Y8650D03*
G01X-580Y8650D03*
G01X420Y8650D03*
G01X1420Y8650D03*
G01X2420Y8650D03*
G01X3420Y8650D03*
G01X4420Y8650D03*
G04 Draw part IC_CD4007_13*
G54D11*
G01X4420Y2650D03*
G54D12*
G01X3420Y2650D03*
G01X2420Y2650D03*
G01X1420Y2650D03*
G01X420Y2650D03*
G01X-580Y2650D03*
G01X-1580Y2650D03*
G01X-1580Y-350D03*
G01X-580Y-350D03*
G01X420Y-350D03*
G01X1420Y-350D03*
G01X2420Y-350D03*
G01X3420Y-350D03*
G01X4420Y-350D03*
G04 Draw part IC_CD4007_14*
G54D11*
G01X3670Y-6100D03*
G54D12*
G01X2670Y-6100D03*
G01X1670Y-6100D03*
G01X670Y-6100D03*
G01X-330Y-6100D03*
G01X-1330Y-6100D03*
G01X-2330Y-6100D03*
G01X-2330Y-9100D03*
G01X-1330Y-9100D03*
G01X-330Y-9100D03*
G01X670Y-9100D03*
G01X1670Y-9100D03*
G01X2670Y-9100D03*
G01X3670Y-9100D03*
G04 Draw part IC_CD4007_15*
G54D11*
G01X-21580Y-5850D03*
G54D12*
G01X-22580Y-5850D03*
G01X-23580Y-5850D03*
G01X-24580Y-5850D03*
G01X-25580Y-5850D03*
G01X-26580Y-5850D03*
G01X-27580Y-5850D03*
G01X-27580Y-8850D03*
G01X-26580Y-8850D03*
G01X-25580Y-8850D03*
G01X-24580Y-8850D03*
G01X-23580Y-8850D03*
G01X-22580Y-8850D03*
G01X-21580Y-8850D03*
G04 Draw part IC_MDP1403-12K_16*
G54D11*
G01X-9500Y-6000D03*
G54D12*
G01X-10500Y-6000D03*
G01X-11500Y-6000D03*
G01X-12500Y-6000D03*
G01X-13500Y-6000D03*
G01X-14500Y-6000D03*
G01X-15500Y-6000D03*
G01X-15500Y-9000D03*
G01X-14500Y-9000D03*
G01X-13500Y-9000D03*
G01X-12500Y-9000D03*
G01X-11500Y-9000D03*
G01X-10500Y-9000D03*
G01X-9500Y-9000D03*
G04 Draw part IC_CD4007_17*
G54D11*
G01X17170Y-13350D03*
G54D12*
G01X16170Y-13350D03*
G01X15170Y-13350D03*
G01X14170Y-13350D03*
G01X13170Y-13350D03*
G01X12170Y-13350D03*
G01X11170Y-13350D03*
G01X11170Y-16350D03*
G01X12170Y-16350D03*
G01X13170Y-16350D03*
G01X14170Y-16350D03*
G01X15170Y-16350D03*
G01X16170Y-16350D03*
G01X17170Y-16350D03*
G04 Draw part IC_MDP1403-12K_18*
G54D11*
G01X17420Y38650D03*
G54D12*
G01X16420Y38650D03*
G01X15420Y38650D03*
G01X14420Y38650D03*
G01X13420Y38650D03*
G01X12420Y38650D03*
G01X11420Y38650D03*
G01X11420Y35650D03*
G01X12420Y35650D03*
G01X13420Y35650D03*
G01X14420Y35650D03*
G01X15420Y35650D03*
G01X16420Y35650D03*
G01X17420Y35650D03*
G04 Draw part IC_CD4007_19*
G54D11*
G01X4420Y38650D03*
G54D12*
G01X3420Y38650D03*
G01X2420Y38650D03*
G01X1420Y38650D03*
G01X420Y38650D03*
G01X-580Y38650D03*
G01X-1580Y38650D03*
G01X-1580Y35650D03*
G01X-580Y35650D03*
G01X420Y35650D03*
G01X1420Y35650D03*
G01X2420Y35650D03*
G01X3420Y35650D03*
G01X4420Y35650D03*
G04 Draw part IC_CD4007_20*
G54D11*
G01X17420Y29650D03*
G54D12*
G01X16420Y29650D03*
G01X15420Y29650D03*
G01X14420Y29650D03*
G01X13420Y29650D03*
G01X12420Y29650D03*
G01X11420Y29650D03*
G01X11420Y26650D03*
G01X12420Y26650D03*
G01X13420Y26650D03*
G01X14420Y26650D03*
G01X15420Y26650D03*
G01X16420Y26650D03*
G01X17420Y26650D03*
G04 Draw part IC_MDP1403-12K_21*
G54D11*
G01X17420Y20650D03*
G54D12*
G01X16420Y20650D03*
G01X15420Y20650D03*
G01X14420Y20650D03*
G01X13420Y20650D03*
G01X12420Y20650D03*
G01X11420Y20650D03*
G01X11420Y17650D03*
G01X12420Y17650D03*
G01X13420Y17650D03*
G01X14420Y17650D03*
G01X15420Y17650D03*
G01X16420Y17650D03*
G01X17420Y17650D03*
G04 Draw part IC_CD4007_22*
G54D11*
G01X17420Y11650D03*
G54D12*
G01X16420Y11650D03*
G01X15420Y11650D03*
G01X14420Y11650D03*
G01X13420Y11650D03*
G01X12420Y11650D03*
G01X11420Y11650D03*
G01X11420Y8650D03*
G01X12420Y8650D03*
G01X13420Y8650D03*
G01X14420Y8650D03*
G01X15420Y8650D03*
G01X16420Y8650D03*
G01X17420Y8650D03*
G04 Draw part IC_CD4007_23*
G54D11*
G01X17420Y2650D03*
G54D12*
G01X16420Y2650D03*
G01X15420Y2650D03*
G01X14420Y2650D03*
G01X13420Y2650D03*
G01X12420Y2650D03*
G01X11420Y2650D03*
G01X11420Y-350D03*
G01X12420Y-350D03*
G01X13420Y-350D03*
G01X14420Y-350D03*
G01X15420Y-350D03*
G01X16420Y-350D03*
G01X17420Y-350D03*
G04 Draw part IC_MDP1403-12K_24*
G54D11*
G01X15920Y-6350D03*
G54D12*
G01X14920Y-6350D03*
G01X13920Y-6350D03*
G01X12920Y-6350D03*
G01X11920Y-6350D03*
G01X10920Y-6350D03*
G01X9920Y-6350D03*
G01X9920Y-9350D03*
G01X10920Y-9350D03*
G01X11920Y-9350D03*
G01X12920Y-9350D03*
G01X13920Y-9350D03*
G01X14920Y-9350D03*
G01X15920Y-9350D03*
G04 Draw part IC_CD4007_25*
G54D11*
G01X-21500Y3000D03*
G54D12*
G01X-22500Y3000D03*
G01X-23500Y3000D03*
G01X-24500Y3000D03*
G01X-25500Y3000D03*
G01X-26500Y3000D03*
G01X-27500Y3000D03*
G01X-27500Y0D03*
G01X-26500Y0D03*
G01X-25500Y0D03*
G01X-24500Y0D03*
G01X-23500Y0D03*
G01X-22500Y0D03*
G01X-21500Y0D03*
G04 Draw part LOGIC*
G54D13*
G01X-16000Y-15500D03*
G54D14*
G01X-16000Y-14500D03*
G01X-15000Y-15500D03*
G01X-15000Y-14500D03*
G01X-14000Y-15500D03*
G01X-14000Y-14500D03*
G01X-13000Y-15500D03*
G01X-13000Y-14500D03*
G01X-12000Y-15500D03*
G01X-12000Y-14500D03*
G01X-11000Y-15500D03*
G01X-11000Y-14500D03*
G01X-10000Y-15500D03*
G01X-10000Y-14500D03*
G01X-9000Y-15500D03*
G01X-9000Y-14500D03*
G01X-8000Y-15500D03*
G01X-8000Y-14500D03*
G01X-7000Y-15500D03*
G01X-7000Y-14500D03*
G01X-6000Y-15500D03*
G01X-6000Y-14500D03*
G01X-5000Y-15500D03*
G01X-5000Y-14500D03*
G01X-4000Y-15500D03*
G01X-4000Y-14500D03*
G01X-3000Y-15500D03*
G01X-3000Y-14500D03*
G01X-2000Y-15500D03*
G01X-2000Y-14500D03*
G01X-1000Y-15500D03*
G01X-1000Y-14500D03*
G01X0Y-15500D03*
G01X0Y-14500D03*
G01X1000Y-15500D03*
G01X1000Y-14500D03*
G01X2000Y-15500D03*
G01X2000Y-14500D03*
G01X3000Y-15500D03*
G01X3000Y-14500D03*
G01X4000Y-15500D03*
G01X4000Y-14500D03*
G01X5000Y-15500D03*
G01X5000Y-14500D03*
G01X6000Y-15500D03*
G01X6000Y-14500D03*
G01X7000Y-15500D03*
G01X7000Y-14500D03*
G01X8000Y-15500D03*
G01X8000Y-14500D03*

G04 Draw traces*
G54D15*
G01X-6000Y-14500D02*
G01X-5874Y-14374D01*
G01X-5874Y-14374D02*
G01X-5874Y-3394D01*
G01X-5874Y-3394D02*
G01X-7065Y-2202D01*
G01X-7065Y-2202D02*
G01X-10932Y-2202D01*
G01X-10932Y-2202D02*
G01X-14500Y-5770D01*
G01X-14500Y-5770D02*
G01X-14500Y-6000D01*
G54D16*
G01X9307Y-12125D03*
G54D15*
G01X9307Y-12125D02*
G01X9898Y-12716D01*
G01X9898Y-12716D02*
G01X9898Y-15078D01*
G01X9898Y-15078D02*
G01X11170Y-16350D01*
G54D16*
G01X8917Y-12986D03*
G54D15*
G01X8917Y-12986D02*
G01X8717Y-12786D01*
G01X8717Y-12786D02*
G01X8717Y29682D01*
G01X8717Y29682D02*
G01X3420Y34979D01*
G01X3420Y34979D02*
G01X3420Y35650D01*
G54D16*
G01X-3076Y-13758D03*
G54D15*
G01X-3076Y-13758D02*
G01X-3076Y-13482D01*
G01X-3076Y-13482D02*
G01X-2892Y-13298D01*
G01X-2892Y-13298D02*
G01X-2892Y-12462D01*
G01X-2892Y-12462D02*
G01X-4766Y-10589D01*
G01X-4766Y-10589D02*
G01X-4766Y36178D01*
G01X-4766Y36178D02*
G01X-8062Y39475D01*
G01X-8062Y39475D02*
G01X-12982Y39475D01*
G01X-12982Y39475D02*
G01X-13580Y38877D01*
G01X-13580Y38877D02*
G01X-14210Y39507D01*
G01X-14210Y39507D02*
G01X-25949Y39507D01*
G01X-25949Y39507D02*
G01X-26580Y38877D01*
G01X-26580Y38877D02*
G01X-26580Y38650D01*
G01X-13580Y38650D02*
G01X-13580Y38877D01*
G01X-27580Y-8850D02*
G01X-27580Y-8622D01*
G01X-27580Y-8622D02*
G01X-25920Y-6962D01*
G01X-25920Y-6962D02*
G01X-25414Y-6962D01*
G01X-25414Y-6962D02*
G01X-24580Y-6128D01*
G01X-24580Y-6128D02*
G01X-24580Y-5850D01*
G54D16*
G01X-14554Y23201D03*
G54D15*
G01X-14554Y23201D02*
G01X-13906Y23201D01*
G01X-13906Y23201D02*
G01X-11580Y20875D01*
G01X-11580Y20875D02*
G01X-11580Y20650D01*
G01X-27500Y27000D02*
G01X-27500Y27208D01*
G01X-27500Y27208D02*
G01X-25500Y29208D01*
G01X-25500Y29208D02*
G01X-25500Y30000D01*
G01X-8580Y20650D02*
G01X-8580Y19824D01*
G01X-8580Y19824D02*
G01X-9339Y19065D01*
G01X-9339Y19065D02*
G01X-14361Y19065D01*
G01X-14361Y19065D02*
G01X-15249Y18177D01*
G54D16*
G01X-15249Y18177D03*
G54D15*
G01X-21500Y27000D02*
G01X-20674Y27825D01*
G01X-20674Y27825D02*
G01X-20674Y34744D01*
G01X-20674Y34744D02*
G01X-21580Y35650D01*
G01X-21500Y27000D02*
G01X-20703Y26203D01*
G01X-20703Y26203D02*
G01X-20703Y21535D01*
G54D16*
G01X-20703Y21535D03*
G54D15*
G01X-21580Y8650D02*
G01X-20754Y9475D01*
G01X-20754Y9475D02*
G01X-20754Y16824D01*
G01X-20754Y16824D02*
G01X-21580Y17650D01*
G01X-21500Y0D02*
G01X-20674Y825D01*
G01X-20674Y825D02*
G01X-20674Y7744D01*
G01X-20674Y7744D02*
G01X-21580Y8650D01*
G54D16*
G01X5343Y32284D03*
G54D15*
G01X5343Y32284D02*
G01X3420Y30360D01*
G01X3420Y30360D02*
G01X3420Y29650D01*
G01X4420Y17650D02*
G01X5245Y18475D01*
G01X5245Y18475D02*
G01X5245Y21172D01*
G01X5245Y21172D02*
G01X4935Y21481D01*
G01X4935Y21481D02*
G01X4420Y21481D01*
G01X4420Y21481D02*
G01X4420Y26650D01*
G01X2670Y-6100D02*
G01X2670Y-2274D01*
G01X2670Y-2274D02*
G01X4420Y-524D01*
G01X4420Y-524D02*
G01X4420Y-350D01*
G01X3670Y-9100D02*
G01X3670Y-8425D01*
G01X3670Y-8425D02*
G01X2670Y-7425D01*
G01X2670Y-7425D02*
G01X2670Y-6100D01*
G01X-21500Y0D02*
G01X-21500Y-4143D01*
G01X-21500Y-4143D02*
G01X-21470Y-4172D01*
G01X-21470Y-4172D02*
G01X-21470Y-4626D01*
G01X-21470Y-4626D02*
G01X-21533Y-4689D01*
G01X-21533Y-4689D02*
G01X-21774Y-4689D01*
G01X-21774Y-4689D02*
G01X-22580Y-5495D01*
G01X-22580Y-5495D02*
G01X-22580Y-5850D01*
G01X17420Y-350D02*
G01X17420Y-10702D01*
G01X17420Y-10702D02*
G01X16170Y-11952D01*
G01X16170Y-11952D02*
G01X16170Y-13350D01*
G01X4420Y35650D02*
G01X4420Y36390D01*
G01X4420Y36390D02*
G01X3420Y37390D01*
G01X3420Y37390D02*
G01X3420Y38650D01*
G01X17420Y8650D02*
G01X17420Y9324D01*
G01X17420Y9324D02*
G01X16420Y10324D01*
G01X16420Y10324D02*
G01X16420Y11650D01*
G01X16420Y2650D02*
G01X16420Y6469D01*
G01X16420Y6469D02*
G01X17420Y7469D01*
G01X17420Y7469D02*
G01X17420Y8650D01*
G01X-16000Y-15500D02*
G01X-16000Y-14500D01*
G01X-21580Y-8850D02*
G01X-20754Y-8024D01*
G01X-20754Y-8024D02*
G01X-20754Y-5342D01*
G01X-20754Y-5342D02*
G01X-21470Y-4626D01*
G01X3420Y20650D02*
G01X3420Y21009D01*
G01X3420Y21009D02*
G01X3892Y21481D01*
G01X3892Y21481D02*
G01X4420Y21481D01*
G01X17420Y38650D02*
G01X17420Y37824D01*
G01X17420Y37824D02*
G01X18939Y36305D01*
G01X18939Y36305D02*
G01X18939Y-13266D01*
G01X18939Y-13266D02*
G01X17343Y-14862D01*
G01X17343Y-14862D02*
G01X14476Y-14862D01*
G01X14476Y-14862D02*
G01X13170Y-13556D01*
G01X13170Y-13556D02*
G01X13170Y-13350D01*
G01X11420Y26650D02*
G01X10316Y27753D01*
G01X10316Y27753D02*
G01X10316Y37546D01*
G01X10316Y37546D02*
G01X11420Y38650D01*
G01X420Y2650D02*
G01X420Y4118D01*
G01X420Y4118D02*
G01X-2633Y7172D01*
G01X-2633Y7172D02*
G01X-2633Y9145D01*
G01X-2633Y9145D02*
G01X-985Y10793D01*
G01X-985Y10793D02*
G01X-265Y10793D01*
G01X-265Y10793D02*
G01X420Y11479D01*
G01X420Y11479D02*
G01X420Y11650D01*
G01X-580Y8650D02*
G01X-1580Y8650D01*
G01X7000Y-14500D02*
G01X7000Y-13929D01*
G01X7000Y-13929D02*
G01X6281Y-13210D01*
G01X6281Y-13210D02*
G01X6281Y-7534D01*
G01X6281Y-7534D02*
G01X5646Y-6900D01*
G01X5646Y-6900D02*
G01X5646Y2759D01*
G01X5646Y2759D02*
G01X584Y7820D01*
G01X584Y7820D02*
G01X41Y7820D01*
G01X41Y7820D02*
G01X-580Y8442D01*
G01X-580Y8442D02*
G01X-580Y8650D01*
G01X7000Y-15500D02*
G01X7000Y-14500D01*
G01X-27580Y38650D02*
G01X-27580Y38455D01*
G01X-27580Y38455D02*
G01X-26912Y37788D01*
G01X-26912Y37788D02*
G01X-25163Y37788D01*
G01X-25163Y37788D02*
G01X-24580Y38371D01*
G01X-24580Y38371D02*
G01X-24580Y38650D01*
G01X-27500Y30000D02*
G01X-28565Y28934D01*
G01X-28565Y28934D02*
G01X-28565Y25565D01*
G01X-28565Y25565D02*
G01X-24580Y21580D01*
G01X-24580Y21580D02*
G01X-24580Y20650D01*
G01X-24580Y11650D02*
G01X-24580Y11871D01*
G01X-24580Y11871D02*
G01X-25239Y12530D01*
G01X-25239Y12530D02*
G01X-26934Y12530D01*
G01X-26934Y12530D02*
G01X-28411Y14007D01*
G01X-28411Y14007D02*
G01X-28411Y19818D01*
G01X-28411Y19818D02*
G01X-27580Y20650D01*
G01X-27500Y3000D02*
G01X-28405Y3905D01*
G01X-28405Y3905D02*
G01X-28405Y10824D01*
G01X-28405Y10824D02*
G01X-27580Y11650D01*
G01X-1580Y20650D02*
G01X-1771Y20650D01*
G01X-1771Y20650D02*
G01X-2607Y21486D01*
G01X-2607Y21486D02*
G01X-2607Y28622D01*
G01X-2607Y28622D02*
G01X-1580Y29650D01*
G01X670Y-6100D02*
G01X670Y-5817D01*
G01X670Y-5817D02*
G01X87Y-5234D01*
G01X87Y-5234D02*
G01X-1666Y-5234D01*
G01X-1666Y-5234D02*
G01X-2437Y-4463D01*
G01X-2437Y-4463D02*
G01X-2437Y1792D01*
G01X-2437Y1792D02*
G01X-1580Y2650D01*
G01X-27500Y3000D02*
G01X-28368Y2131D01*
G01X-28368Y2131D02*
G01X-28368Y-5061D01*
G01X-28368Y-5061D02*
G01X-27580Y-5850D01*
G01X14420Y2650D02*
G01X14420Y2371D01*
G01X14420Y2371D02*
G01X13831Y1783D01*
G01X13831Y1783D02*
G01X12090Y1783D01*
G01X12090Y1783D02*
G01X10574Y267D01*
G01X10574Y267D02*
G01X10574Y-673D01*
G01X10574Y-673D02*
G01X11198Y-1296D01*
G01X11198Y-1296D02*
G01X12544Y-1296D01*
G01X12544Y-1296D02*
G01X16982Y-5734D01*
G01X16982Y-5734D02*
G01X16982Y-9464D01*
G01X16982Y-9464D02*
G01X14170Y-12276D01*
G01X14170Y-12276D02*
G01X14170Y-13350D01*
G01X11420Y11650D02*
G01X11420Y11451D01*
G01X11420Y11451D02*
G01X12095Y10775D01*
G01X12095Y10775D02*
G01X13823Y10775D01*
G01X13823Y10775D02*
G01X14420Y11371D01*
G01X14420Y11371D02*
G01X14420Y11650D01*
G01X-14000Y-15500D02*
G01X-14000Y-14500D01*
G01X11420Y2650D02*
G01X11420Y2453D01*
G01X11420Y2453D02*
G01X12090Y1783D01*
G01X-2330Y-6100D02*
G01X-2330Y-5897D01*
G01X-2330Y-5897D02*
G01X-1666Y-5234D01*
G01X14420Y2650D02*
G01X14420Y4301D01*
G01X14420Y4301D02*
G01X10554Y8166D01*
G01X10554Y8166D02*
G01X10554Y9234D01*
G01X10554Y9234D02*
G01X12095Y10775D01*
G01X-27500Y30000D02*
G01X-28411Y30911D01*
G01X-28411Y30911D02*
G01X-28411Y36289D01*
G01X-28411Y36289D02*
G01X-26912Y37788D01*
G01X-27580Y11650D02*
G01X-27580Y11885D01*
G01X-27580Y11885D02*
G01X-26934Y12530D01*
G54D16*
G01X-3182Y-12923D03*
G54D15*
G01X-3182Y-12923D02*
G01X-4966Y-11140D01*
G01X-4966Y-11140D02*
G01X-4966Y2647D01*
G01X-4966Y2647D02*
G01X-7101Y4781D01*
G01X-7101Y4781D02*
G01X-7101Y16171D01*
G01X-7101Y16171D02*
G01X-8580Y17650D01*
G01X-2000Y-14500D02*
G01X-2000Y-11520D01*
G01X-2000Y-11520D02*
G01X-3985Y-9534D01*
G01X-3985Y-9534D02*
G01X-3985Y-6055D01*
G01X-3985Y-6055D02*
G01X-4067Y-5973D01*
G01X-4067Y-5973D02*
G01X-4067Y33162D01*
G01X-4067Y33162D02*
G01X-1580Y35650D01*
G01X-22580Y35650D02*
G01X-22580Y35850D01*
G01X-22580Y35850D02*
G01X-23580Y36850D01*
G01X-23580Y36850D02*
G01X-23580Y38650D01*
G01X5000Y-15500D02*
G01X5000Y-15636D01*
G01X5000Y-15636D02*
G01X5893Y-16530D01*
G01X5893Y-16530D02*
G01X8400Y-16530D01*
G01X8400Y-16530D02*
G01X9089Y-15841D01*
G01X9089Y-15841D02*
G01X9089Y-14135D01*
G01X9089Y-14135D02*
G01X6712Y-11758D01*
G01X6712Y-11758D02*
G01X6712Y4395D01*
G01X6712Y4395D02*
G01X3420Y7687D01*
G01X3420Y7687D02*
G01X3420Y8650D01*
G01X5000Y-15500D02*
G01X5000Y-14500D01*
G54D16*
G01X-13738Y24029D03*
G54D15*
G01X-13738Y24029D02*
G01X-10580Y20871D01*
G01X-10580Y20871D02*
G01X-10580Y20650D01*
G54D16*
G01X-15479Y22205D03*
G54D15*
G01X-15479Y22205D02*
G01X-15479Y26942D01*
G01X-15479Y26942D02*
G01X-13580Y28841D01*
G01X-13580Y28841D02*
G01X-13580Y29650D01*
G01X-14580Y35650D02*
G01X-14580Y31830D01*
G01X-14580Y31830D02*
G01X-13580Y30830D01*
G01X-13580Y30830D02*
G01X-13580Y29650D01*
G01X0Y-15500D02*
G01X0Y-15668D01*
G01X0Y-15668D02*
G01X-2050Y-17719D01*
G01X-2050Y-17719D02*
G01X-17170Y-17719D01*
G01X-17170Y-17719D02*
G01X-20433Y-14456D01*
G01X-20433Y-14456D02*
G01X-20433Y17727D01*
G01X-20433Y17727D02*
G01X-22243Y19537D01*
G01X-22243Y19537D02*
G01X-22745Y19537D01*
G01X-22745Y19537D02*
G01X-23580Y20371D01*
G01X-23580Y20371D02*
G01X-23580Y20650D01*
G01X2420Y11650D02*
G01X2420Y14440D01*
G01X2420Y14440D02*
G01X5448Y17469D01*
G01X5448Y17469D02*
G01X5448Y26857D01*
G01X5448Y26857D02*
G01X3768Y28537D01*
G01X3768Y28537D02*
G01X1254Y28537D01*
G01X1254Y28537D02*
G01X420Y29371D01*
G01X420Y29371D02*
G01X420Y29650D01*
G01X16420Y26650D02*
G01X16420Y26856D01*
G01X16420Y26856D02*
G01X15126Y28150D01*
G01X15126Y28150D02*
G01X11742Y28150D01*
G01X11742Y28150D02*
G01X10528Y29364D01*
G01X10528Y29364D02*
G01X10528Y35939D01*
G01X10528Y35939D02*
G01X12420Y37831D01*
G01X12420Y37831D02*
G01X12420Y38650D01*
G01X4420Y2650D02*
G01X4420Y3475D01*
G01X4420Y3475D02*
G01X2417Y3475D01*
G01X2417Y3475D02*
G01X-2429Y8321D01*
G01X-2429Y8321D02*
G01X-2429Y9002D01*
G01X-2429Y9002D02*
G01X-1827Y9605D01*
G01X-1827Y9605D02*
G01X-346Y9605D01*
G01X-346Y9605D02*
G01X1420Y11371D01*
G01X1420Y11371D02*
G01X1420Y11650D01*
G54D16*
G01X-3443Y-13200D03*
G54D15*
G01X-3443Y-13200D02*
G01X-5242Y-11401D01*
G01X-5242Y-11401D02*
G01X-5242Y2540D01*
G01X-5242Y2540D02*
G01X-7301Y4599D01*
G01X-7301Y4599D02*
G01X-7301Y12120D01*
G01X-7301Y12120D02*
G01X-12580Y17399D01*
G01X-12580Y17399D02*
G01X-12580Y17650D01*
G01X3000Y-15500D02*
G01X3000Y-14500D01*
G01X-9580Y35650D02*
G01X-9580Y33830D01*
G01X-9580Y33830D02*
G01X-12580Y30830D01*
G01X-12580Y30830D02*
G01X-12580Y29650D01*
G01X-3000Y-14500D02*
G01X-3000Y-14207D01*
G01X-3000Y-14207D02*
G01X-2643Y-13850D01*
G01X-2643Y-13850D02*
G01X-2643Y-12428D01*
G01X-2643Y-12428D02*
G01X-4565Y-10506D01*
G01X-4565Y-10506D02*
G01X-4565Y34149D01*
G01X-4565Y34149D02*
G01X-580Y38135D01*
G01X-580Y38135D02*
G01X-580Y38650D01*
G01X420Y38650D02*
G01X420Y38856D01*
G01X420Y38856D02*
G01X1122Y39558D01*
G01X1122Y39558D02*
G01X12738Y39558D01*
G01X12738Y39558D02*
G01X13420Y38877D01*
G01X13420Y38877D02*
G01X13420Y38650D01*
G01X-27580Y17650D02*
G01X-27580Y18234D01*
G01X-27580Y18234D02*
G01X-25580Y20234D01*
G01X-25580Y20234D02*
G01X-25580Y20650D01*
G54D16*
G01X-6810Y6686D03*
G54D15*
G01X-6810Y6686D02*
G01X-6810Y36055D01*
G01X-6810Y36055D02*
G01X-8580Y37824D01*
G01X-8580Y37824D02*
G01X-8580Y38650D01*
G01X-22580Y-8850D02*
G01X-22580Y-8076D01*
G01X-22580Y-8076D02*
G01X-21580Y-7076D01*
G01X-21580Y-7076D02*
G01X-21580Y-5850D01*
G01X1420Y8650D02*
G01X1420Y8817D01*
G01X1420Y8817D02*
G01X3058Y10455D01*
G01X3058Y10455D02*
G01X4614Y10455D01*
G01X4614Y10455D02*
G01X5245Y11086D01*
G01X5245Y11086D02*
G01X5245Y16348D01*
G01X5245Y16348D02*
G01X5048Y16545D01*
G01X5048Y16545D02*
G01X5048Y16785D01*
G01X5048Y16785D02*
G01X5702Y17440D01*
G01X5702Y17440D02*
G01X5702Y26886D01*
G01X5702Y26886D02*
G01X3807Y28781D01*
G01X3807Y28781D02*
G01X3114Y28781D01*
G01X3114Y28781D02*
G01X2420Y29476D01*
G01X2420Y29476D02*
G01X2420Y29650D01*
G01X1420Y8650D02*
G01X420Y8650D01*
G54D16*
G01X10077Y-11965D03*
G54D15*
G01X10077Y-11965D02*
G01X10998Y-11965D01*
G01X10998Y-11965D02*
G01X12170Y-13137D01*
G01X12170Y-13137D02*
G01X12170Y-13350D01*
G54D16*
G01X-1531Y-7061D03*
G54D15*
G01X-1531Y-7061D02*
G01X952Y-7061D01*
G01X952Y-7061D02*
G01X1670Y-6343D01*
G01X1670Y-6343D02*
G01X1670Y-6100D01*
G01X16420Y20650D02*
G01X16420Y23469D01*
G01X16420Y23469D02*
G01X18245Y25295D01*
G01X18245Y25295D02*
G01X18245Y27008D01*
G01X18245Y27008D02*
G01X16454Y28799D01*
G01X16454Y28799D02*
G01X14101Y28799D01*
G01X14101Y28799D02*
G01X13420Y29481D01*
G01X13420Y29481D02*
G01X13420Y29650D01*
G01X16420Y-350D02*
G01X16420Y-97D01*
G01X16420Y-97D02*
G01X18249Y1731D01*
G01X18249Y1731D02*
G01X18249Y18027D01*
G01X18249Y18027D02*
G01X16635Y19641D01*
G01X16635Y19641D02*
G01X12176Y19641D01*
G01X12176Y19641D02*
G01X11420Y20397D01*
G01X11420Y20397D02*
G01X11420Y20650D01*
G01X17420Y20650D02*
G01X17420Y21475D01*
G01X17420Y21475D02*
G01X18451Y22506D01*
G01X18451Y22506D02*
G01X18451Y27793D01*
G01X18451Y27793D02*
G01X17420Y28824D01*
G01X17420Y28824D02*
G01X17420Y29650D01*
G01X-22580Y8650D02*
G01X-22580Y11650D01*
G01X-580Y29650D02*
G01X-580Y28886D01*
G01X-580Y28886D02*
G01X-2406Y27060D01*
G01X-2406Y27060D02*
G01X-2406Y21695D01*
G01X-2406Y21695D02*
G01X-2317Y21606D01*
G54D16*
G01X-2317Y21606D03*
G54D15*
G01X-10000Y-14500D02*
G01X-10000Y-13699D01*
G01X-10000Y-13699D02*
G01X-6164Y-9864D01*
G01X-6164Y-9864D02*
G01X-6164Y-3543D01*
G54D16*
G01X-6164Y-3543D03*
G54D15*
G01X-9000Y-15500D02*
G01X-9000Y-15709D01*
G01X-9000Y-15709D02*
G01X-9796Y-16506D01*
G01X-9796Y-16506D02*
G01X-16578Y-16506D01*
G01X-16578Y-16506D02*
G01X-17039Y-16045D01*
G01X-17039Y-16045D02*
G01X-17039Y-13778D01*
G01X-17039Y-13778D02*
G01X-12500Y-9239D01*
G01X-12500Y-9239D02*
G01X-12500Y-9000D01*
G01X-11500Y-9000D02*
G01X-12500Y-9000D01*
G01X6000Y-14500D02*
G01X6000Y-7666D01*
G01X6000Y-7666D02*
G01X5987Y-7653D01*
G54D16*
G01X5987Y-7653D03*
G01X-16227Y7824D03*
G54D15*
G01X-16227Y7824D02*
G01X-16227Y35509D01*
G01X-16227Y35509D02*
G01X-14071Y37665D01*
G01X-14071Y37665D02*
G01X-13318Y37665D01*
G01X-13318Y37665D02*
G01X-12580Y38403D01*
G01X-12580Y38403D02*
G01X-12580Y38650D01*
G01X-13580Y11650D02*
G01X-13580Y12475D01*
G01X-13580Y12475D02*
G01X-15769Y14664D01*
G01X-15769Y14664D02*
G01X-15769Y35629D01*
G01X-15769Y35629D02*
G01X-14868Y36530D01*
G01X-14868Y36530D02*
G01X-12420Y36530D01*
G01X-12420Y36530D02*
G01X-10580Y38371D01*
G01X-10580Y38371D02*
G01X-10580Y38650D01*
G01X-13580Y11650D02*
G01X-13580Y11474D01*
G01X-13580Y11474D02*
G01X-15855Y9198D01*
G01X-15855Y9198D02*
G01X-15855Y925D01*
G01X-15855Y925D02*
G01X-14580Y-350D01*
G01X-13580Y-350D02*
G01X-14580Y-350D01*
G01X-14580Y8650D02*
G01X-14580Y6817D01*
G01X-14580Y6817D02*
G01X-12580Y4817D01*
G01X-12580Y4817D02*
G01X-12580Y2650D01*
G54D16*
G01X-16913Y33340D03*
G54D15*
G01X-16913Y33340D02*
G01X-21398Y37824D01*
G01X-21398Y37824D02*
G01X-21580Y37824D01*
G01X-21580Y37824D02*
G01X-21580Y38650D01*
G01X-11000Y-14500D02*
G01X-11000Y-13335D01*
G01X-11000Y-13335D02*
G01X-7175Y-9511D01*
G01X-7175Y-9511D02*
G01X-7175Y-2516D01*
G54D16*
G01X-7175Y-2516D03*
G54D15*
G01X-7000Y-15500D02*
G01X-7000Y-15700D01*
G01X-7000Y-15700D02*
G01X-7600Y-16300D01*
G01X-7600Y-16300D02*
G01X-8909Y-16300D01*
G01X-8909Y-16300D02*
G01X-9322Y-16713D01*
G01X-9322Y-16713D02*
G01X-16693Y-16713D01*
G01X-16693Y-16713D02*
G01X-17245Y-16161D01*
G01X-17245Y-16161D02*
G01X-17245Y-13531D01*
G01X-17245Y-13531D02*
G01X-14500Y-10786D01*
G01X-14500Y-10786D02*
G01X-14500Y-9000D01*
G01X12420Y29650D02*
G01X12420Y32514D01*
G01X12420Y32514D02*
G01X13420Y33514D01*
G01X13420Y33514D02*
G01X13420Y35650D01*
G01X-12580Y11650D02*
G01X-12580Y11443D01*
G01X-12580Y11443D02*
G01X-14149Y9873D01*
G01X-14149Y9873D02*
G01X-14897Y9873D01*
G01X-14897Y9873D02*
G01X-15647Y9123D01*
G01X-15647Y9123D02*
G01X-15647Y3717D01*
G01X-15647Y3717D02*
G01X-14580Y2650D01*
G01X4000Y-14500D02*
G01X4000Y-14195D01*
G01X4000Y-14195D02*
G01X5251Y-12943D01*
G01X5251Y-12943D02*
G01X5251Y4D01*
G01X5251Y4D02*
G01X3719Y1537D01*
G01X3719Y1537D02*
G01X3254Y1537D01*
G01X3254Y1537D02*
G01X2420Y2371D01*
G01X2420Y2371D02*
G01X2420Y2650D01*
G01X6000Y-15500D02*
G01X6000Y-15700D01*
G01X6000Y-15700D02*
G01X6629Y-16329D01*
G01X6629Y-16329D02*
G01X8317Y-16329D01*
G01X8317Y-16329D02*
G01X8834Y-15813D01*
G01X8834Y-15813D02*
G01X8834Y-14163D01*
G01X8834Y-14163D02*
G01X6481Y-11810D01*
G01X6481Y-11810D02*
G01X6481Y-6883D01*
G01X6481Y-6883D02*
G01X6419Y-6820D01*
G54D16*
G01X6419Y-6820D03*
G54D15*
G01X-12000Y-14500D02*
G01X-12000Y-13233D01*
G01X-12000Y-13233D02*
G01X-8082Y-9316D01*
G01X-8082Y-9316D02*
G01X-8082Y-2663D01*
G54D16*
G01X-8082Y-2663D03*
G54D15*
G01X4000Y-15500D02*
G01X4000Y-15700D01*
G01X4000Y-15700D02*
G01X5030Y-16730D01*
G01X5030Y-16730D02*
G01X8483Y-16730D01*
G01X8483Y-16730D02*
G01X9289Y-15924D01*
G01X9289Y-15924D02*
G01X9289Y-14051D01*
G01X9289Y-14051D02*
G01X7257Y-12019D01*
G01X7257Y-12019D02*
G01X7257Y1154D01*
G54D16*
G01X7257Y1154D03*
G54D15*
G01X12420Y11650D02*
G01X12420Y12469D01*
G01X12420Y12469D02*
G01X16420Y16469D01*
G01X16420Y16469D02*
G01X16420Y17650D01*
G01X-5000Y-15500D02*
G01X-5000Y-15656D01*
G01X-5000Y-15656D02*
G01X-5931Y-16587D01*
G01X-5931Y-16587D02*
G01X-8829Y-16587D01*
G01X-8829Y-16587D02*
G01X-9155Y-16913D01*
G01X-9155Y-16913D02*
G01X-16776Y-16913D01*
G01X-16776Y-16913D02*
G01X-17445Y-16244D01*
G01X-17445Y-16244D02*
G01X-17445Y-10945D01*
G01X-17445Y-10945D02*
G01X-15500Y-9000D01*
G54D16*
G01X-8721Y-3539D03*
G54D15*
G01X-8721Y-3539D02*
G01X-8674Y-3586D01*
G01X-8674Y-3586D02*
G01X-8674Y-6512D01*
G01X-8674Y-6512D02*
G01X-10308Y-8145D01*
G01X-10308Y-8145D02*
G01X-14880Y-8145D01*
G01X-14880Y-8145D02*
G01X-15500Y-8764D01*
G01X-15500Y-8764D02*
G01X-15500Y-9000D01*
G01X-1580Y-350D02*
G01X-1580Y-138D01*
G01X-1580Y-138D02*
G01X95Y1537D01*
G01X95Y1537D02*
G01X585Y1537D01*
G01X585Y1537D02*
G01X1420Y2371D01*
G01X1420Y2371D02*
G01X1420Y2650D01*
G01X2000Y-14500D02*
G01X2000Y-14368D01*
G01X2000Y-14368D02*
G01X-485Y-11883D01*
G01X-485Y-11883D02*
G01X-716Y-11883D01*
G01X-716Y-11883D02*
G01X-3561Y-9038D01*
G01X-3561Y-9038D02*
G01X-3561Y5763D01*
G01X-3561Y5763D02*
G01X-3487Y5837D01*
G01X-3487Y5837D02*
G01X-3487Y16922D01*
G01X-3487Y16922D02*
G01X-872Y19537D01*
G01X-872Y19537D02*
G01X1585Y19537D01*
G01X1585Y19537D02*
G01X2420Y20371D01*
G01X2420Y20371D02*
G01X2420Y20650D01*
G54D16*
G01X-4275Y-6176D03*
G54D15*
G01X-4275Y-6176D02*
G01X-4275Y34156D01*
G01X-4275Y34156D02*
G01X-895Y37537D01*
G01X-895Y37537D02*
G01X1585Y37537D01*
G01X1585Y37537D02*
G01X2420Y38371D01*
G01X2420Y38371D02*
G01X2420Y38650D01*
G54D16*
G01X-3728Y-13490D03*
G54D15*
G01X-3728Y-13490D02*
G01X-5442Y-11776D01*
G01X-5442Y-11776D02*
G01X-5442Y-2656D01*
G01X-5442Y-2656D02*
G01X-7748Y-350D01*
G01X-7748Y-350D02*
G01X-7748Y12207D01*
G01X-7748Y12207D02*
G01X-11694Y16153D01*
G01X-11694Y16153D02*
G01X-14309Y16153D01*
G01X-14309Y16153D02*
G01X-15546Y17390D01*
G01X-15546Y17390D02*
G01X-15546Y21642D01*
G01X-15546Y21642D02*
G01X-15188Y21999D01*
G01X-15188Y21999D02*
G01X-15188Y26041D01*
G01X-15188Y26041D02*
G01X-14580Y26650D01*
G01X-8580Y-350D02*
G01X-7748Y-350D01*
G01X-2330Y-9100D02*
G01X-3361Y-8068D01*
G01X-3361Y-8068D02*
G01X-3361Y5680D01*
G01X-3361Y5680D02*
G01X-3187Y5854D01*
G01X-3187Y5854D02*
G01X-3187Y10042D01*
G01X-3187Y10042D02*
G01X-1580Y11650D01*
G54D16*
G01X-8709Y-16877D03*
G54D15*
G01X-8709Y-16877D02*
G01X-8945Y-17113D01*
G01X-8945Y-17113D02*
G01X-16859Y-17113D01*
G01X-16859Y-17113D02*
G01X-17645Y-16326D01*
G01X-17645Y-16326D02*
G01X-17645Y-9975D01*
G01X-17645Y-9975D02*
G01X-15445Y-7774D01*
G01X-15445Y-7774D02*
G01X-13075Y-7774D01*
G01X-13075Y-7774D02*
G01X-11500Y-6199D01*
G01X-11500Y-6199D02*
G01X-11500Y-6000D01*
G01X-1000Y-14500D02*
G01X-1000Y-12160D01*
G01X-1000Y-12160D02*
G01X-3777Y-9382D01*
G01X-3777Y-9382D02*
G01X-3777Y8196D01*
G54D16*
G01X-3777Y8196D03*
G54D15*
G01X-9580Y8650D02*
G01X-9580Y5830D01*
G01X-9580Y5830D02*
G01X-11580Y3830D01*
G01X-11580Y3830D02*
G01X-11580Y2650D01*
G01X-26500Y30000D02*
G01X-26500Y29750D01*
G01X-26500Y29750D02*
G01X-28365Y27885D01*
G01X-28365Y27885D02*
G01X-28365Y26682D01*
G01X-28365Y26682D02*
G01X-23194Y21511D01*
G01X-23194Y21511D02*
G01X-21089Y21511D01*
G01X-21089Y21511D02*
G01X-16614Y17035D01*
G01X-16614Y17035D02*
G01X-16614Y10243D01*
G54D16*
G01X-16614Y10243D03*
G01X16356Y-14570D03*
G54D15*
G01X16356Y-14570D02*
G01X17347Y-14570D01*
G01X17347Y-14570D02*
G01X18701Y-13215D01*
G01X18701Y-13215D02*
G01X18701Y32187D01*
G01X18701Y32187D02*
G01X16420Y34469D01*
G01X16420Y34469D02*
G01X16420Y35650D01*
G01X-8580Y11650D02*
G01X-8580Y10824D01*
G01X-8580Y10824D02*
G01X-9759Y9645D01*
G01X-9759Y9645D02*
G01X-14768Y9645D01*
G01X-14768Y9645D02*
G01X-15447Y8966D01*
G01X-15447Y8966D02*
G01X-15447Y5348D01*
G01X-15447Y5348D02*
G01X-13580Y3480D01*
G01X-13580Y3480D02*
G01X-13580Y2650D01*
G01X2000Y-15500D02*
G01X2000Y-15700D01*
G01X2000Y-15700D02*
G01X3275Y-16975D01*
G01X3275Y-16975D02*
G01X8578Y-16975D01*
G01X8578Y-16975D02*
G01X9489Y-16065D01*
G01X9489Y-16065D02*
G01X9489Y-13969D01*
G01X9489Y-13969D02*
G01X8422Y-12901D01*
G01X8422Y-12901D02*
G01X8422Y13638D01*
G01X8422Y13638D02*
G01X5375Y16685D01*
G54D16*
G01X5375Y16685D03*
G54D15*
G01X-13000Y-15500D02*
G01X-13000Y-15700D01*
G01X-13000Y-15700D02*
G01X-13600Y-16300D01*
G01X-13600Y-16300D02*
G01X-16501Y-16300D01*
G01X-16501Y-16300D02*
G01X-16838Y-15962D01*
G01X-16838Y-15962D02*
G01X-16838Y-14187D01*
G01X-16838Y-14187D02*
G01X-12507Y-9856D01*
G01X-12507Y-9856D02*
G01X-9145Y-9856D01*
G01X-9145Y-9856D02*
G01X-8427Y-9138D01*
G01X-8427Y-9138D02*
G01X-8427Y-2529D01*
G01X-8427Y-2529D02*
G01X-8460Y-2497D01*
G54D16*
G01X-8460Y-2497D03*
G01X10818Y30495D03*
G54D15*
G01X10818Y30495D02*
G01X10818Y35048D01*
G01X10818Y35048D02*
G01X11420Y35650D01*
G01X13420Y17650D02*
G01X12420Y17650D01*
G01X12420Y2650D02*
G01X12420Y6018D01*
G01X12420Y6018D02*
G01X10354Y8083D01*
G01X10354Y8083D02*
G01X10354Y14404D01*
G01X10354Y14404D02*
G01X12420Y16469D01*
G01X12420Y16469D02*
G01X12420Y17650D01*
G01X-15000Y-15500D02*
G01X-15000Y-14500D01*
G01X3420Y17650D02*
G01X3420Y18720D01*
G01X3420Y18720D02*
G01X4420Y19720D01*
G01X4420Y19720D02*
G01X4420Y20650D01*
G01X1000Y-15500D02*
G01X1000Y-15633D01*
G01X1000Y-15633D02*
G01X-963Y-17596D01*
G01X-963Y-17596D02*
G01X-1137Y-17596D01*
G01X-1137Y-17596D02*
G01X-1518Y-17977D01*
G01X-1518Y-17977D02*
G01X-19682Y-17977D01*
G01X-19682Y-17977D02*
G01X-28612Y-9047D01*
G01X-28612Y-9047D02*
G01X-28612Y20785D01*
G01X-28612Y20785D02*
G01X-27921Y21477D01*
G01X-27921Y21477D02*
G01X-27136Y21477D01*
G01X-27136Y21477D02*
G01X-26580Y20920D01*
G01X-26580Y20920D02*
G01X-26580Y20650D01*
G54D16*
G01X-8276Y-17142D03*
G54D15*
G01X-8276Y-17142D02*
G01X-8447Y-17313D01*
G01X-8447Y-17313D02*
G01X-16941Y-17313D01*
G01X-16941Y-17313D02*
G01X-17845Y-16409D01*
G01X-17845Y-16409D02*
G01X-17845Y-9821D01*
G01X-17845Y-9821D02*
G01X-15527Y-7503D01*
G01X-15527Y-7503D02*
G01X-14792Y-7503D01*
G01X-14792Y-7503D02*
G01X-13500Y-6211D01*
G01X-13500Y-6211D02*
G01X-13500Y-6000D01*
G54D16*
G01X-1017Y-17886D03*
G54D15*
G01X-1017Y-17886D02*
G01X7957Y-17886D01*
G01X7957Y-17886D02*
G01X9698Y-16145D01*
G01X9698Y-16145D02*
G01X9698Y-13192D01*
G01X9698Y-13192D02*
G01X9017Y-12511D01*
G01X9017Y-12511D02*
G01X9017Y16443D01*
G01X9017Y16443D02*
G01X11058Y18484D01*
G01X11058Y18484D02*
G01X13815Y18484D01*
G01X13815Y18484D02*
G01X14420Y17880D01*
G01X14420Y17880D02*
G01X14420Y17650D01*
G01X15420Y17650D02*
G01X14420Y17650D01*
G01X-9580Y20650D02*
G01X-9580Y20482D01*
G01X-9580Y20482D02*
G01X-10707Y19355D01*
G01X-10707Y19355D02*
G01X-14425Y19355D01*
G54D16*
G01X-14425Y19355D03*
G54D15*
G01X15920Y-9350D02*
G01X16745Y-8524D01*
G01X16745Y-8524D02*
G01X16745Y-5818D01*
G01X16745Y-5818D02*
G01X13032Y-2105D01*
G01X13032Y-2105D02*
G01X11724Y-2105D01*
G01X11724Y-2105D02*
G01X10123Y-504D01*
G01X10123Y-504D02*
G01X10123Y16353D01*
G01X10123Y16353D02*
G01X11420Y17650D01*
G01X-4000Y-15500D02*
G01X-4000Y-15700D01*
G01X-4000Y-15700D02*
G01X-5813Y-17513D01*
G01X-5813Y-17513D02*
G01X-17075Y-17513D01*
G01X-17075Y-17513D02*
G01X-18045Y-16543D01*
G01X-18045Y-16543D02*
G01X-18045Y-8545D01*
G01X-18045Y-8545D02*
G01X-15500Y-6000D01*
G01X2670Y-9100D02*
G01X2670Y-8865D01*
G01X2670Y-8865D02*
G01X1156Y-7351D01*
G01X1156Y-7351D02*
G01X-2252Y-7351D01*
G01X-2252Y-7351D02*
G01X-3161Y-6442D01*
G01X-3161Y-6442D02*
G01X-3161Y5598D01*
G01X-3161Y5598D02*
G01X-2987Y5771D01*
G01X-2987Y5771D02*
G01X-2987Y9075D01*
G01X-2987Y9075D02*
G01X-580Y11482D01*
G01X-580Y11482D02*
G01X-580Y11650D01*

G04 Draw Text*
M00*
M02*
