G04 FreePCB version 1.343*
G04 Z:\trinary\code\bb\CAM-sign\bottom_copper.grb*
G04 bottom copper layer *
G04 Scale: 100 percent, Rotated: No, Reflected: No *
%FSLAX24Y24*%
%MOIN*%
%LNTop*%
%ADD10C,0.005000*%
%ADD11R,0.055000X0.055000*%
%ADD12C,0.055000*%
%ADD13C,0.030000*%
%ADD14C,0.070000*%
%ADD15C,0.075000*%
%ADD16C,0.010000*%
%ADD17C,0.028000*%
%ADD18C,0.020000*%
G90*
G70D02*

G04 Step and Repeat for panelization *

G04 ----------------------- Draw board outline (positive)*
%LPD*%
G54D10*
G01X0Y0D02*
G01X0Y37000D01*
G04 end of side 1*
G01X45500Y37000D01*
G04 end of side 2*
G01X45500Y0D01*
G04 end of side 3*
G01X0Y0D01*

G04 -------------- Draw Parts, Pads, Traces, Vias and Text (positive)*
%LPD*%
G04 Draw part IC_CD4016_1*
G54D11*
G01X11850Y10420D03*
G54D12*
G01X11850Y9420D03*
G01X11850Y8420D03*
G01X11850Y7420D03*
G01X11850Y6420D03*
G01X11850Y5420D03*
G01X11850Y4420D03*
G01X14850Y4420D03*
G01X14850Y5420D03*
G01X14850Y6420D03*
G01X14850Y7420D03*
G01X14850Y8420D03*
G01X14850Y9420D03*
G01X14850Y10420D03*
G04 Draw part IC_CD4007_2*
G54D11*
G01X31850Y10420D03*
G54D12*
G01X31850Y9420D03*
G01X31850Y8420D03*
G01X31850Y7420D03*
G01X31850Y6420D03*
G01X31850Y5420D03*
G01X31850Y4420D03*
G01X34850Y4420D03*
G01X34850Y5420D03*
G01X34850Y6420D03*
G01X34850Y7420D03*
G01X34850Y8420D03*
G01X34850Y9420D03*
G01X34850Y10420D03*
G04 Draw part R_12K_3*
G54D11*
G01X41850Y22420D03*
G54D12*
G01X41850Y21420D03*
G01X41850Y20420D03*
G01X41850Y19420D03*
G01X41850Y18420D03*
G01X41850Y17420D03*
G01X41850Y16420D03*
G01X44850Y16420D03*
G01X44850Y17420D03*
G01X44850Y18420D03*
G01X44850Y19420D03*
G01X44850Y20420D03*
G01X44850Y21420D03*
G01X44850Y22420D03*
G04 Draw part IC_CD4007_4*
G54D11*
G01X21850Y22420D03*
G54D12*
G01X21850Y21420D03*
G01X21850Y20420D03*
G01X21850Y19420D03*
G01X21850Y18420D03*
G01X21850Y17420D03*
G01X21850Y16420D03*
G01X24850Y16420D03*
G01X24850Y17420D03*
G01X24850Y18420D03*
G01X24850Y19420D03*
G01X24850Y20420D03*
G01X24850Y21420D03*
G01X24850Y22420D03*
G04 Draw part IC_CD4007_5*
G54D11*
G01X31850Y22420D03*
G54D12*
G01X31850Y21420D03*
G01X31850Y20420D03*
G01X31850Y19420D03*
G01X31850Y18420D03*
G01X31850Y17420D03*
G01X31850Y16420D03*
G01X34850Y16420D03*
G01X34850Y17420D03*
G01X34850Y18420D03*
G01X34850Y19420D03*
G01X34850Y20420D03*
G01X34850Y21420D03*
G01X34850Y22420D03*
G04 Draw part R_12K_6*
G54D11*
G01X21850Y10420D03*
G54D12*
G01X21850Y9420D03*
G01X21850Y8420D03*
G01X21850Y7420D03*
G01X21850Y6420D03*
G01X21850Y5420D03*
G01X21850Y4420D03*
G01X24850Y4420D03*
G01X24850Y5420D03*
G01X24850Y6420D03*
G01X24850Y7420D03*
G01X24850Y8420D03*
G01X24850Y9420D03*
G01X24850Y10420D03*
G04 Draw part IC_CD4016_7*
G54D11*
G01X1850Y22420D03*
G54D12*
G01X1850Y21420D03*
G01X1850Y20420D03*
G01X1850Y19420D03*
G01X1850Y18420D03*
G01X1850Y17420D03*
G01X1850Y16420D03*
G01X4850Y16420D03*
G01X4850Y17420D03*
G01X4850Y18420D03*
G01X4850Y19420D03*
G01X4850Y20420D03*
G01X4850Y21420D03*
G01X4850Y22420D03*
G04 Draw part IC_CD4007_8*
G54D11*
G01X11850Y22420D03*
G54D12*
G01X11850Y21420D03*
G01X11850Y20420D03*
G01X11850Y19420D03*
G01X11850Y18420D03*
G01X11850Y17420D03*
G01X11850Y16420D03*
G01X14850Y16420D03*
G01X14850Y17420D03*
G01X14850Y18420D03*
G01X14850Y19420D03*
G01X14850Y20420D03*
G01X14850Y21420D03*
G01X14850Y22420D03*
G04 Draw part IC_CD4007_9*
G54D11*
G01X1850Y10420D03*
G54D12*
G01X1850Y9420D03*
G01X1850Y8420D03*
G01X1850Y7420D03*
G01X1850Y6420D03*
G01X1850Y5420D03*
G01X1850Y4420D03*
G01X4850Y4420D03*
G01X4850Y5420D03*
G01X4850Y6420D03*
G01X4850Y7420D03*
G01X4850Y8420D03*
G01X4850Y9420D03*
G01X4850Y10420D03*
G04 Draw part R_12K_10*
G54D11*
G01X1850Y34420D03*
G54D12*
G01X1850Y33420D03*
G01X1850Y32420D03*
G01X1850Y31420D03*
G01X1850Y30420D03*
G01X1850Y29420D03*
G01X1850Y28420D03*
G01X4850Y28420D03*
G01X4850Y29420D03*
G01X4850Y30420D03*
G01X4850Y31420D03*
G01X4850Y32420D03*
G01X4850Y33420D03*
G01X4850Y34420D03*
G04 Draw part IC_CD4016_11*
G54D11*
G01X41850Y10420D03*
G54D12*
G01X41850Y9420D03*
G01X41850Y8420D03*
G01X41850Y7420D03*
G01X41850Y6420D03*
G01X41850Y5420D03*
G01X41850Y4420D03*
G01X44850Y4420D03*
G01X44850Y5420D03*
G01X44850Y6420D03*
G01X44850Y7420D03*
G01X44850Y8420D03*
G01X44850Y9420D03*
G01X44850Y10420D03*
G04 Draw part IC_CD4007_12*
G54D11*
G01X11850Y34420D03*
G54D12*
G01X11850Y33420D03*
G01X11850Y32420D03*
G01X11850Y31420D03*
G01X11850Y30420D03*
G01X11850Y29420D03*
G01X11850Y28420D03*
G01X14850Y28420D03*
G01X14850Y29420D03*
G01X14850Y30420D03*
G01X14850Y31420D03*
G01X14850Y32420D03*
G01X14850Y33420D03*
G01X14850Y34420D03*
G04 Draw part IC_CD4007_13*
G54D11*
G01X21850Y34420D03*
G54D12*
G01X21850Y33420D03*
G01X21850Y32420D03*
G01X21850Y31420D03*
G01X21850Y30420D03*
G01X21850Y29420D03*
G01X21850Y28420D03*
G01X24850Y28420D03*
G01X24850Y29420D03*
G01X24850Y30420D03*
G01X24850Y31420D03*
G01X24850Y32420D03*
G01X24850Y33420D03*
G01X24850Y34420D03*
G04 Draw part IC_CD4007_15*
G54D11*
G01X41850Y34420D03*
G54D12*
G01X41850Y33420D03*
G01X41850Y32420D03*
G01X41850Y31420D03*
G01X41850Y30420D03*
G01X41850Y29420D03*
G01X41850Y28420D03*
G01X44850Y28420D03*
G01X44850Y29420D03*
G01X44850Y30420D03*
G01X44850Y31420D03*
G01X44850Y32420D03*
G01X44850Y33420D03*
G01X44850Y34420D03*
G04 Draw part SD*
G54D13*
G01X26300Y1300D03*
G01X26700Y1300D03*
G01X26300Y1700D03*
G01X26700Y1700D03*
G36*
G01X26300Y1150D02*
G01X26300Y1850D01*
G01X26700Y1850D01*
G01X26700Y1150D01*
G01X26300Y1150D01*
G37*
G36*
G01X26150Y1300D02*
G01X26150Y1700D01*
G01X26850Y1700D01*
G01X26850Y1300D01*
G01X26150Y1300D01*
G37*
G54D14*
G01X26500Y2500D03*
G01X27500Y1500D03*
G01X27500Y2500D03*
G01X28500Y1500D03*
G01X28500Y2500D03*
G01X29500Y1500D03*
G01X29500Y2500D03*
G04 Draw part R1*
G54D15*
G01X31000Y34000D03*
G01X36000Y34000D03*
G04 Draw part R2*
G01X31000Y31000D03*
G01X36000Y31000D03*
G04 Draw part R3*
G01X31000Y28000D03*
G01X36000Y28000D03*

G04 Draw traces*
G54D16*
G01X41850Y20420D02*
G01X41824Y20420D01*
G01X41824Y20420D02*
G01X36779Y15375D01*
G01X36779Y15375D02*
G01X36779Y14542D01*
G54D17*
G01X36779Y14542D03*
G54D16*
G01X44850Y20420D02*
G01X44850Y19420D01*
G01X34850Y21420D02*
G01X31850Y21420D01*
G54D18*
G01X14850Y7420D02*
G01X14747Y7420D01*
G01X14747Y7420D02*
G01X13619Y6291D01*
G01X13619Y6291D02*
G01X13619Y6093D01*
G01X13619Y6093D02*
G01X11946Y4420D01*
G01X11946Y4420D02*
G01X11850Y4420D01*
G01X31850Y16420D02*
G01X31072Y15642D01*
G01X31072Y15642D02*
G01X31072Y8101D01*
G01X31072Y8101D02*
G01X31753Y7420D01*
G01X31753Y7420D02*
G01X31850Y7420D01*
G54D17*
G01X32479Y23957D03*
G54D18*
G01X32479Y23957D02*
G01X32128Y23957D01*
G01X32128Y23957D02*
G01X31075Y22903D01*
G01X31075Y22903D02*
G01X31075Y20098D01*
G01X31075Y20098D02*
G01X31753Y19420D01*
G01X31753Y19420D02*
G01X31850Y19420D01*
G01X11850Y28420D02*
G01X11947Y28420D01*
G01X11947Y28420D02*
G01X12625Y27742D01*
G01X12625Y27742D02*
G01X12625Y27644D01*
G01X12625Y27644D02*
G01X12625Y20098D01*
G01X12625Y20098D02*
G01X11946Y19420D01*
G01X11946Y19420D02*
G01X11850Y19420D01*
G01X1850Y4420D02*
G01X1754Y4420D01*
G01X1754Y4420D02*
G01X1069Y5104D01*
G01X1069Y5104D02*
G01X1069Y6745D01*
G01X1069Y6745D02*
G01X1744Y7420D01*
G01X1744Y7420D02*
G01X1850Y7420D01*
G01X41850Y28420D02*
G01X41952Y28420D01*
G01X41952Y28420D02*
G01X42625Y29092D01*
G01X42625Y29092D02*
G01X42625Y30748D01*
G01X42625Y30748D02*
G01X41953Y31420D01*
G01X41953Y31420D02*
G01X41850Y31420D01*
G01X21850Y28420D02*
G01X21074Y27644D01*
G01X21074Y27644D02*
G01X12625Y27644D01*
G01X11850Y31420D02*
G01X11946Y31420D01*
G01X11946Y31420D02*
G01X12626Y30740D01*
G01X12626Y30740D02*
G01X12626Y29099D01*
G01X12626Y29099D02*
G01X11947Y28420D01*
G54D16*
G01X1850Y33420D02*
G01X1824Y33420D01*
G01X1824Y33420D02*
G01X917Y32512D01*
G01X917Y32512D02*
G01X917Y15150D01*
G01X917Y15150D02*
G01X2575Y13492D01*
G01X2575Y13492D02*
G01X2575Y7114D01*
G01X2575Y7114D02*
G01X1880Y6420D01*
G01X1880Y6420D02*
G01X1850Y6420D01*
G54D18*
G01X14850Y10420D02*
G01X14747Y10420D01*
G01X14747Y10420D02*
G01X13533Y9205D01*
G01X13533Y9205D02*
G01X13533Y9007D01*
G01X13533Y9007D02*
G01X11946Y7420D01*
G01X11946Y7420D02*
G01X11850Y7420D01*
G01X34850Y22420D02*
G01X34947Y22420D01*
G01X34947Y22420D02*
G01X35625Y21742D01*
G01X35625Y21742D02*
G01X35625Y11195D01*
G01X35625Y11195D02*
G01X34850Y10420D01*
G01X44850Y34420D02*
G01X44075Y35195D01*
G01X44075Y35195D02*
G01X29282Y35195D01*
G01X29282Y35195D02*
G01X26729Y32643D01*
G01X26729Y32643D02*
G01X26729Y24299D01*
G01X26729Y24299D02*
G01X24850Y22420D01*
G01X4850Y10420D02*
G01X4074Y11195D01*
G01X4074Y11195D02*
G01X4074Y18741D01*
G01X4074Y18741D02*
G01X4753Y19420D01*
G01X4753Y19420D02*
G01X4850Y19420D01*
G01X24850Y34420D02*
G01X24952Y34420D01*
G01X24952Y34420D02*
G01X26729Y32643D01*
G01X34850Y22420D02*
G01X32970Y24299D01*
G01X32970Y24299D02*
G01X26729Y24299D01*
G54D16*
G01X21850Y8420D02*
G01X21875Y8420D01*
G01X21875Y8420D02*
G01X22575Y9119D01*
G01X22575Y9119D02*
G01X22575Y13791D01*
G01X22575Y13791D02*
G01X21124Y15242D01*
G01X21124Y15242D02*
G01X21124Y17722D01*
G01X21124Y17722D02*
G01X21821Y18420D01*
G01X21821Y18420D02*
G01X21850Y18420D01*
G01X44850Y22420D02*
G01X44850Y21420D01*
G01X1850Y34420D02*
G01X1125Y34420D01*
G01X1125Y34420D02*
G01X717Y34012D01*
G01X717Y34012D02*
G01X717Y12277D01*
G01X717Y12277D02*
G01X1850Y11145D01*
G01X1850Y11145D02*
G01X1850Y10420D01*
G01X14850Y16420D02*
G01X14850Y13394D01*
G01X14850Y13394D02*
G01X21824Y6420D01*
G01X21824Y6420D02*
G01X21850Y6420D01*
G54D17*
G01X11483Y14381D03*
G54D16*
G01X11483Y14381D02*
G01X11519Y14381D01*
G01X11519Y14381D02*
G01X15577Y10724D01*
G01X15577Y10724D02*
G01X15577Y9121D01*
G01X15577Y9121D02*
G01X14875Y8420D01*
G01X14875Y8420D02*
G01X14850Y8420D01*
G01X1850Y21420D02*
G01X2428Y21420D01*
G01X2428Y21420D02*
G01X4353Y23345D01*
G01X4353Y23345D02*
G01X5239Y23345D01*
G01X5239Y23345D02*
G01X6054Y22530D01*
G01X6054Y22530D02*
G01X6054Y20621D01*
G01X6054Y20621D02*
G01X15778Y10897D01*
G01X15778Y10897D02*
G01X15778Y7319D01*
G01X15778Y7319D02*
G01X14878Y6420D01*
G01X14878Y6420D02*
G01X14850Y6420D01*
G01X1850Y20420D02*
G01X1850Y21420D01*
G01X29500Y1500D02*
G01X29500Y1364D01*
G01X29500Y1364D02*
G01X28835Y700D01*
G01X28835Y700D02*
G01X22397Y700D01*
G01X22397Y700D02*
G01X15778Y7319D01*
G01X14850Y21420D02*
G01X14875Y21420D01*
G01X14875Y21420D02*
G01X18601Y17694D01*
G01X18601Y17694D02*
G01X18601Y10641D01*
G01X18601Y10641D02*
G01X21823Y7420D01*
G01X21823Y7420D02*
G01X21850Y7420D01*
G01X4850Y33420D02*
G01X4824Y33420D01*
G01X4824Y33420D02*
G01X4041Y32637D01*
G01X4041Y32637D02*
G01X4041Y29352D01*
G01X4041Y29352D02*
G01X1121Y26432D01*
G01X1121Y26432D02*
G01X1121Y19122D01*
G01X1121Y19122D02*
G01X1824Y18420D01*
G01X1824Y18420D02*
G01X1850Y18420D01*
G01X4850Y34420D02*
G01X4850Y33420D01*
G54D17*
G01X28677Y15101D03*
G54D16*
G01X28677Y15101D02*
G01X28677Y15273D01*
G01X28677Y15273D02*
G01X31824Y18420D01*
G01X31824Y18420D02*
G01X31850Y18420D01*
G54D17*
G01X3500Y4200D03*
G54D16*
G01X3500Y4200D02*
G01X7300Y400D01*
G01X7300Y400D02*
G01X14700Y400D01*
G01X14700Y400D02*
G01X16100Y1800D01*
G54D17*
G01X16100Y1800D03*
G54D16*
G01X24850Y7420D02*
G01X24850Y6420D01*
G01X1850Y5420D02*
G01X1878Y5420D01*
G01X1878Y5420D02*
G01X3479Y7021D01*
G01X3479Y7021D02*
G01X3479Y20076D01*
G01X3479Y20076D02*
G01X4822Y21420D01*
G01X4822Y21420D02*
G01X4850Y21420D01*
G01X24850Y9420D02*
G01X24850Y8420D01*
G01X36000Y34000D02*
G01X37580Y32420D01*
G01X37580Y32420D02*
G01X41850Y32420D01*
G01X4850Y17420D02*
G01X4881Y17420D01*
G01X4881Y17420D02*
G01X10749Y11552D01*
G01X10749Y11552D02*
G01X10749Y4492D01*
G01X10749Y4492D02*
G01X11546Y3694D01*
G01X11546Y3694D02*
G01X14124Y3694D01*
G01X14124Y3694D02*
G01X14850Y4420D01*
G01X41850Y9420D02*
G01X41824Y9420D01*
G01X41824Y9420D02*
G01X32903Y498D01*
G01X32903Y498D02*
G01X18771Y498D01*
G01X18771Y498D02*
G01X14850Y4420D01*
G01X4850Y18420D02*
G01X4850Y17420D01*
G01X29500Y2500D02*
G01X34246Y2500D01*
G01X34246Y2500D02*
G01X41125Y9379D01*
G01X41125Y9379D02*
G01X41125Y10420D01*
G01X41125Y10420D02*
G01X41850Y10420D01*
G01X31000Y28000D02*
G01X35236Y23764D01*
G01X35236Y23764D02*
G01X41694Y23764D01*
G01X41694Y23764D02*
G01X43852Y21605D01*
G01X43852Y21605D02*
G01X43852Y10392D01*
G01X43852Y10392D02*
G01X44824Y9420D01*
G01X44824Y9420D02*
G01X44850Y9420D01*
G01X1850Y19420D02*
G01X1882Y19420D01*
G01X1882Y19420D02*
G01X3279Y20817D01*
G01X3279Y20817D02*
G01X3279Y21880D01*
G01X3279Y21880D02*
G01X4543Y23145D01*
G01X4543Y23145D02*
G01X5157Y23145D01*
G01X5157Y23145D02*
G01X5575Y22127D01*
G01X5575Y22127D02*
G01X5575Y20280D01*
G01X5575Y20280D02*
G01X10973Y14882D01*
G01X10973Y14882D02*
G01X10973Y10108D01*
G01X10973Y10108D02*
G01X11662Y9420D01*
G01X11662Y9420D02*
G01X11850Y9420D01*
G01X11850Y8420D02*
G01X11850Y9420D01*
G01X44850Y18420D02*
G01X44850Y17420D01*
G01X28500Y2500D02*
G01X28500Y10369D01*
G01X28500Y10369D02*
G01X23303Y15565D01*
G01X23303Y15565D02*
G01X23303Y27992D01*
G01X23303Y27992D02*
G01X21875Y29420D01*
G01X21875Y29420D02*
G01X21850Y29420D01*
G54D17*
G01X9357Y25036D03*
G54D16*
G01X4850Y30420D02*
G01X4850Y29420D01*
G01X4850Y29420D02*
G01X4974Y29420D01*
G01X4974Y29420D02*
G01X9357Y25036D01*
G01X14850Y28420D02*
G01X14818Y28420D01*
G01X14818Y28420D02*
G01X13213Y30025D01*
G01X13213Y30025D02*
G01X13213Y34243D01*
G01X13213Y34243D02*
G01X12112Y35345D01*
G01X12112Y35345D02*
G01X4462Y35345D01*
G01X4462Y35345D02*
G01X2849Y33732D01*
G01X2849Y33732D02*
G01X2849Y32393D01*
G01X2849Y32393D02*
G01X1875Y31420D01*
G01X1875Y31420D02*
G01X1850Y31420D01*
G01X21850Y17420D02*
G01X21875Y17420D01*
G01X21875Y17420D02*
G01X22777Y16517D01*
G01X22777Y16517D02*
G01X22777Y13742D01*
G01X22777Y13742D02*
G01X26192Y10327D01*
G01X26192Y10327D02*
G01X26192Y3572D01*
G54D17*
G01X26192Y3572D03*
G54D16*
G01X11850Y22420D02*
G01X11125Y22420D01*
G01X11125Y22420D02*
G01X11125Y16119D01*
G01X11125Y16119D02*
G01X21824Y5420D01*
G01X21824Y5420D02*
G01X21850Y5420D01*
G01X26500Y2500D02*
G01X26500Y11214D01*
G01X26500Y11214D02*
G01X22977Y14737D01*
G01X22977Y14737D02*
G01X22977Y19317D01*
G01X22977Y19317D02*
G01X21875Y20420D01*
G01X21875Y20420D02*
G01X21850Y20420D01*
G01X11850Y34420D02*
G01X11125Y34420D01*
G01X11125Y34420D02*
G01X10399Y34945D01*
G01X10399Y34945D02*
G01X4745Y34945D01*
G01X4745Y34945D02*
G01X3258Y33458D01*
G01X3258Y33458D02*
G01X3058Y31600D01*
G01X3058Y31600D02*
G01X1878Y30420D01*
G01X1878Y30420D02*
G01X1850Y30420D01*
G01X34850Y9420D02*
G01X33906Y9420D01*
G01X33906Y9420D02*
G01X32906Y8420D01*
G01X32906Y8420D02*
G01X31850Y8420D01*
G01X41850Y22420D02*
G01X41125Y22420D01*
G01X41125Y22420D02*
G01X35996Y17291D01*
G01X35996Y17291D02*
G01X35996Y10537D01*
G01X35996Y10537D02*
G01X34879Y9420D01*
G01X34879Y9420D02*
G01X34850Y9420D01*
G01X41850Y21420D02*
G01X41824Y21420D01*
G01X41824Y21420D02*
G01X36477Y16072D01*
G01X36477Y16072D02*
G01X36477Y6016D01*
G01X36477Y6016D02*
G01X34880Y4420D01*
G01X34880Y4420D02*
G01X34850Y4420D01*
G01X4850Y32420D02*
G01X4850Y31420D01*
G01X24850Y16420D02*
G01X24327Y16420D01*
G01X24327Y16420D02*
G01X24393Y15086D01*
G54D17*
G01X24393Y15086D03*
G54D16*
G01X41850Y19420D02*
G01X41824Y19420D01*
G01X41824Y19420D02*
G01X37263Y14859D01*
G01X37263Y14859D02*
G01X37263Y5802D01*
G01X37263Y5802D02*
G01X35152Y3691D01*
G01X35152Y3691D02*
G01X34547Y3691D01*
G01X34547Y3691D02*
G01X33181Y5057D01*
G01X33181Y5057D02*
G01X33181Y5121D01*
G01X33181Y5121D02*
G01X31883Y6420D01*
G01X31883Y6420D02*
G01X31850Y6420D01*
G01X21850Y9420D02*
G01X21660Y9420D01*
G01X21660Y9420D02*
G01X20918Y10162D01*
G01X20918Y10162D02*
G01X20918Y22213D01*
G01X20918Y22213D02*
G01X21125Y22420D01*
G01X21125Y22420D02*
G01X21850Y22420D01*
G01X11850Y17420D02*
G01X11881Y17420D01*
G01X11881Y17420D02*
G01X13971Y19509D01*
G01X13971Y19509D02*
G01X13971Y22570D01*
G01X13971Y22570D02*
G01X14546Y23145D01*
G01X14546Y23145D02*
G01X20400Y23145D01*
G01X20400Y23145D02*
G01X21125Y22420D01*

G04 Draw Text*
M00*
M02*
