;Holesize 1 =   28.0 PLATED MILS
;Holesize 2 =   40.0 PLATED MILS
;Holesize 3 =   35.0 PLATED MILS
;Holesize 4 =   14.0 PLATED MILS
M48
INCH
T01C0.028
T02C0.040
T03C0.035
T04C0.014
%
G05
G90
T01
X011850Y010420
X011850Y009420
X011850Y008420
X011850Y007420
X011850Y006420
X011850Y005420
X011850Y004420
X014850Y004420
X014850Y005420
X014850Y006420
X014850Y007420
X014850Y008420
X014850Y009420
X014850Y010420
X031850Y010420
X031850Y009420
X031850Y008420
X031850Y007420
X031850Y006420
X031850Y005420
X031850Y004420
X034850Y004420
X034850Y005420
X034850Y006420
X034850Y007420
X034850Y008420
X034850Y009420
X034850Y010420
X041850Y022420
X041850Y021420
X041850Y020420
X041850Y019420
X041850Y018420
X041850Y017420
X041850Y016420
X044850Y016420
X044850Y017420
X044850Y018420
X044850Y019420
X044850Y020420
X044850Y021420
X044850Y022420
X021850Y022420
X021850Y021420
X021850Y020420
X021850Y019420
X021850Y018420
X021850Y017420
X021850Y016420
X024850Y016420
X024850Y017420
X024850Y018420
X024850Y019420
X024850Y020420
X024850Y021420
X024850Y022420
X031850Y022420
X031850Y021420
X031850Y020420
X031850Y019420
X031850Y018420
X031850Y017420
X031850Y016420
X034850Y016420
X034850Y017420
X034850Y018420
X034850Y019420
X034850Y020420
X034850Y021420
X034850Y022420
X021850Y010420
X021850Y009420
X021850Y008420
X021850Y007420
X021850Y006420
X021850Y005420
X021850Y004420
X024850Y004420
X024850Y005420
X024850Y006420
X024850Y007420
X024850Y008420
X024850Y009420
X024850Y010420
X001850Y022420
X001850Y021420
X001850Y020420
X001850Y019420
X001850Y018420
X001850Y017420
X001850Y016420
X004850Y016420
X004850Y017420
X004850Y018420
X004850Y019420
X004850Y020420
X004850Y021420
X004850Y022420
X011850Y022420
X011850Y021420
X011850Y020420
X011850Y019420
X011850Y018420
X011850Y017420
X011850Y016420
X014850Y016420
X014850Y017420
X014850Y018420
X014850Y019420
X014850Y020420
X014850Y021420
X014850Y022420
X001850Y010420
X001850Y009420
X001850Y008420
X001850Y007420
X001850Y006420
X001850Y005420
X001850Y004420
X004850Y004420
X004850Y005420
X004850Y006420
X004850Y007420
X004850Y008420
X004850Y009420
X004850Y010420
X001850Y034420
X001850Y033420
X001850Y032420
X001850Y031420
X001850Y030420
X001850Y029420
X001850Y028420
X004850Y028420
X004850Y029420
X004850Y030420
X004850Y031420
X004850Y032420
X004850Y033420
X004850Y034420
X041850Y010420
X041850Y009420
X041850Y008420
X041850Y007420
X041850Y006420
X041850Y005420
X041850Y004420
X044850Y004420
X044850Y005420
X044850Y006420
X044850Y007420
X044850Y008420
X044850Y009420
X044850Y010420
X011850Y034420
X011850Y033420
X011850Y032420
X011850Y031420
X011850Y030420
X011850Y029420
X011850Y028420
X014850Y028420
X014850Y029420
X014850Y030420
X014850Y031420
X014850Y032420
X014850Y033420
X014850Y034420
X021850Y034420
X021850Y033420
X021850Y032420
X021850Y031420
X021850Y030420
X021850Y029420
X021850Y028420
X024850Y028420
X024850Y029420
X024850Y030420
X024850Y031420
X024850Y032420
X024850Y033420
X024850Y034420
X041850Y034420
X041850Y033420
X041850Y032420
X041850Y031420
X041850Y030420
X041850Y029420
X041850Y028420
X044850Y028420
X044850Y029420
X044850Y030420
X044850Y031420
X044850Y032420
X044850Y033420
X044850Y034420
T02
X026500Y001500
X026500Y002500
X027500Y001500
X027500Y002500
X028500Y001500
X028500Y002500
X029500Y001500
X029500Y002500
T03
X031000Y034000
X036000Y034000
X031000Y031000
X036000Y031000
X031000Y028000
X036000Y028000
T04
X036779Y014542
X032479Y023957
X011483Y014381
X028677Y015101
X003500Y004200
X016100Y001800
X009357Y025036
X026192Y003572
X024393Y015086
M30
