G04 FreePCB version 1.343*
G04 Z:\trinary\code\bb\CAM-sign\top_silk.grb*
G04 top silk layer *
G04 Scale: 100 percent, Rotated: No, Reflected: No *
%FSLAX24Y24*%
%MOIN*%
%LNTop*%
%ADD10C,0.005000*%
%ADD11C,0.007000*%
G90*
G70D02*

G04 Step and Repeat for panelization *

G04 ----------------------- Draw board outline (positive)*
%LPD*%
G54D10*
G01X0Y0D02*
G01X0Y37000D01*
G04 end of side 1*
G01X45500Y37000D01*
G04 end of side 2*
G01X45500Y0D01*
G04 end of side 3*
G01X0Y0D01*

G04 -------------- Draw Parts, Pads, Traces, Vias and Text (positive)*
%LPD*%
G04 Draw part IC_CD4016_1*
G04 draw part outline for part IC_CD4016_1*
G54D11*
G01X12350Y10920D02*
G01X12350Y3920D01*
G01X12350Y3920D02*
G01X14350Y3920D01*
G01X14350Y3920D02*
G01X14350Y10920D01*
G01X14350Y10920D02*
G01X12350Y10920D01*
G01X12850Y10920D02*
G01X12850Y10420D01*
G01X12850Y10420D02*
G01X13850Y10420D01*
G01X13850Y10420D02*
G01X13850Y10920D01*
G01X13850Y10920D02*
G01X12850Y10920D01*
G04 draw reference designator for part IC_CD4016_1*
G01X11350Y11897D02*
G01X11350Y11420D01*
G01X11850Y11829D02*
G01X11872Y11783D01*
G01X11804Y11874D02*
G01X11850Y11829D01*
G01X11759Y11897D02*
G01X11804Y11874D01*
G01X11668Y11897D02*
G01X11759Y11897D01*
G01X11668Y11897D02*
G01X11622Y11874D01*
G01X11622Y11874D02*
G01X11577Y11829D01*
G01X11577Y11829D02*
G01X11554Y11783D01*
G01X11554Y11783D02*
G01X11531Y11715D01*
G01X11531Y11715D02*
G01X11531Y11601D01*
G01X11531Y11601D02*
G01X11554Y11533D01*
G01X11554Y11533D02*
G01X11577Y11488D01*
G01X11577Y11488D02*
G01X11622Y11442D01*
G01X11622Y11442D02*
G01X11668Y11420D01*
G01X11759Y11420D02*
G01X11668Y11420D01*
G01X11804Y11442D02*
G01X11759Y11420D01*
G01X11850Y11488D02*
G01X11804Y11442D01*
G01X11872Y11533D02*
G01X11850Y11488D01*
G01X12463Y11420D02*
G01X12054Y11420D01*
G01X12963Y11829D02*
G01X12986Y11783D01*
G01X12918Y11874D02*
G01X12963Y11829D01*
G01X12872Y11897D02*
G01X12918Y11874D01*
G01X12781Y11897D02*
G01X12872Y11897D01*
G01X12781Y11897D02*
G01X12736Y11874D01*
G01X12736Y11874D02*
G01X12690Y11829D01*
G01X12690Y11829D02*
G01X12668Y11783D01*
G01X12668Y11783D02*
G01X12645Y11715D01*
G01X12645Y11715D02*
G01X12645Y11601D01*
G01X12645Y11601D02*
G01X12668Y11533D01*
G01X12668Y11533D02*
G01X12690Y11488D01*
G01X12690Y11488D02*
G01X12736Y11442D01*
G01X12736Y11442D02*
G01X12781Y11420D01*
G01X12872Y11420D02*
G01X12781Y11420D01*
G01X12918Y11442D02*
G01X12872Y11420D01*
G01X12963Y11488D02*
G01X12918Y11442D01*
G01X12986Y11533D02*
G01X12963Y11488D01*
G01X13168Y11897D02*
G01X13168Y11420D01*
G01X13327Y11897D02*
G01X13168Y11897D01*
G01X13327Y11897D02*
G01X13395Y11874D01*
G01X13395Y11874D02*
G01X13440Y11829D01*
G01X13440Y11829D02*
G01X13463Y11783D01*
G01X13463Y11783D02*
G01X13486Y11715D01*
G01X13486Y11715D02*
G01X13486Y11601D01*
G01X13486Y11601D02*
G01X13463Y11533D01*
G01X13463Y11533D02*
G01X13440Y11488D01*
G01X13440Y11488D02*
G01X13395Y11442D01*
G01X13395Y11442D02*
G01X13327Y11420D01*
G01X13168Y11420D02*
G01X13327Y11420D01*
G01X13895Y11897D02*
G01X13668Y11579D01*
G01X14009Y11579D02*
G01X13668Y11579D01*
G01X13895Y11897D02*
G01X13895Y11420D01*
G01X14327Y11897D02*
G01X14259Y11874D01*
G01X14259Y11874D02*
G01X14213Y11806D01*
G01X14213Y11806D02*
G01X14190Y11692D01*
G01X14190Y11692D02*
G01X14190Y11624D01*
G01X14190Y11624D02*
G01X14213Y11510D01*
G01X14213Y11510D02*
G01X14259Y11442D01*
G01X14259Y11442D02*
G01X14327Y11420D01*
G01X14372Y11420D02*
G01X14327Y11420D01*
G01X14440Y11442D02*
G01X14372Y11420D01*
G01X14486Y11510D02*
G01X14440Y11442D01*
G01X14509Y11624D02*
G01X14486Y11510D01*
G01X14509Y11692D02*
G01X14509Y11624D01*
G01X14486Y11806D02*
G01X14509Y11692D01*
G01X14440Y11874D02*
G01X14486Y11806D01*
G01X14372Y11897D02*
G01X14440Y11874D01*
G01X14327Y11897D02*
G01X14372Y11897D01*
G01X14736Y11829D02*
G01X14690Y11806D01*
G01X14804Y11897D02*
G01X14736Y11829D01*
G01X14804Y11897D02*
G01X14804Y11420D01*
G01X15236Y11874D02*
G01X15259Y11829D01*
G01X15168Y11897D02*
G01X15236Y11874D01*
G01X15122Y11897D02*
G01X15168Y11897D01*
G01X15122Y11897D02*
G01X15054Y11874D01*
G01X15054Y11874D02*
G01X15009Y11806D01*
G01X15009Y11806D02*
G01X14986Y11692D01*
G01X14986Y11692D02*
G01X14986Y11579D01*
G01X14986Y11579D02*
G01X15009Y11488D01*
G01X15009Y11488D02*
G01X15054Y11442D01*
G01X15054Y11442D02*
G01X15122Y11420D01*
G01X15145Y11420D02*
G01X15122Y11420D01*
G01X15213Y11442D02*
G01X15145Y11420D01*
G01X15259Y11488D02*
G01X15213Y11442D01*
G01X15281Y11556D02*
G01X15259Y11488D01*
G01X15281Y11579D02*
G01X15281Y11556D01*
G01X15259Y11647D02*
G01X15281Y11579D01*
G01X15213Y11692D02*
G01X15259Y11647D01*
G01X15145Y11715D02*
G01X15213Y11692D01*
G01X15122Y11715D02*
G01X15145Y11715D01*
G01X15122Y11715D02*
G01X15054Y11692D01*
G01X15054Y11692D02*
G01X15009Y11647D01*
G01X15009Y11647D02*
G01X14986Y11579D01*
G01X15872Y11420D02*
G01X15463Y11420D01*
G01X16099Y11829D02*
G01X16054Y11806D01*
G01X16168Y11897D02*
G01X16099Y11829D01*
G01X16168Y11897D02*
G01X16168Y11420D01*
G04 Draw part IC_CD4007_2*
G04 draw part outline for part IC_CD4007_2*
G01X32350Y10920D02*
G01X32350Y3920D01*
G01X32350Y3920D02*
G01X34350Y3920D01*
G01X34350Y3920D02*
G01X34350Y10920D01*
G01X34350Y10920D02*
G01X32350Y10920D01*
G01X32850Y10920D02*
G01X32850Y10420D01*
G01X32850Y10420D02*
G01X33850Y10420D01*
G01X33850Y10420D02*
G01X33850Y10920D01*
G01X33850Y10920D02*
G01X32850Y10920D01*
G04 draw reference designator for part IC_CD4007_2*
G01X31350Y11897D02*
G01X31350Y11420D01*
G01X31850Y11829D02*
G01X31872Y11783D01*
G01X31804Y11874D02*
G01X31850Y11829D01*
G01X31759Y11897D02*
G01X31804Y11874D01*
G01X31668Y11897D02*
G01X31759Y11897D01*
G01X31668Y11897D02*
G01X31622Y11874D01*
G01X31622Y11874D02*
G01X31577Y11829D01*
G01X31577Y11829D02*
G01X31554Y11783D01*
G01X31554Y11783D02*
G01X31531Y11715D01*
G01X31531Y11715D02*
G01X31531Y11601D01*
G01X31531Y11601D02*
G01X31554Y11533D01*
G01X31554Y11533D02*
G01X31577Y11488D01*
G01X31577Y11488D02*
G01X31622Y11442D01*
G01X31622Y11442D02*
G01X31668Y11420D01*
G01X31759Y11420D02*
G01X31668Y11420D01*
G01X31804Y11442D02*
G01X31759Y11420D01*
G01X31850Y11488D02*
G01X31804Y11442D01*
G01X31872Y11533D02*
G01X31850Y11488D01*
G01X32463Y11420D02*
G01X32054Y11420D01*
G01X32963Y11829D02*
G01X32986Y11783D01*
G01X32918Y11874D02*
G01X32963Y11829D01*
G01X32872Y11897D02*
G01X32918Y11874D01*
G01X32781Y11897D02*
G01X32872Y11897D01*
G01X32781Y11897D02*
G01X32736Y11874D01*
G01X32736Y11874D02*
G01X32690Y11829D01*
G01X32690Y11829D02*
G01X32668Y11783D01*
G01X32668Y11783D02*
G01X32645Y11715D01*
G01X32645Y11715D02*
G01X32645Y11601D01*
G01X32645Y11601D02*
G01X32668Y11533D01*
G01X32668Y11533D02*
G01X32690Y11488D01*
G01X32690Y11488D02*
G01X32736Y11442D01*
G01X32736Y11442D02*
G01X32781Y11420D01*
G01X32872Y11420D02*
G01X32781Y11420D01*
G01X32918Y11442D02*
G01X32872Y11420D01*
G01X32963Y11488D02*
G01X32918Y11442D01*
G01X32986Y11533D02*
G01X32963Y11488D01*
G01X33168Y11897D02*
G01X33168Y11420D01*
G01X33327Y11897D02*
G01X33168Y11897D01*
G01X33327Y11897D02*
G01X33395Y11874D01*
G01X33395Y11874D02*
G01X33440Y11829D01*
G01X33440Y11829D02*
G01X33463Y11783D01*
G01X33463Y11783D02*
G01X33486Y11715D01*
G01X33486Y11715D02*
G01X33486Y11601D01*
G01X33486Y11601D02*
G01X33463Y11533D01*
G01X33463Y11533D02*
G01X33440Y11488D01*
G01X33440Y11488D02*
G01X33395Y11442D01*
G01X33395Y11442D02*
G01X33327Y11420D01*
G01X33168Y11420D02*
G01X33327Y11420D01*
G01X33895Y11897D02*
G01X33668Y11579D01*
G01X34009Y11579D02*
G01X33668Y11579D01*
G01X33895Y11897D02*
G01X33895Y11420D01*
G01X34327Y11897D02*
G01X34259Y11874D01*
G01X34259Y11874D02*
G01X34213Y11806D01*
G01X34213Y11806D02*
G01X34190Y11692D01*
G01X34190Y11692D02*
G01X34190Y11624D01*
G01X34190Y11624D02*
G01X34213Y11510D01*
G01X34213Y11510D02*
G01X34259Y11442D01*
G01X34259Y11442D02*
G01X34327Y11420D01*
G01X34372Y11420D02*
G01X34327Y11420D01*
G01X34440Y11442D02*
G01X34372Y11420D01*
G01X34486Y11510D02*
G01X34440Y11442D01*
G01X34509Y11624D02*
G01X34486Y11510D01*
G01X34509Y11692D02*
G01X34509Y11624D01*
G01X34486Y11806D02*
G01X34509Y11692D01*
G01X34440Y11874D02*
G01X34486Y11806D01*
G01X34372Y11897D02*
G01X34440Y11874D01*
G01X34327Y11897D02*
G01X34372Y11897D01*
G01X34827Y11897D02*
G01X34759Y11874D01*
G01X34759Y11874D02*
G01X34713Y11806D01*
G01X34713Y11806D02*
G01X34690Y11692D01*
G01X34690Y11692D02*
G01X34690Y11624D01*
G01X34690Y11624D02*
G01X34713Y11510D01*
G01X34713Y11510D02*
G01X34759Y11442D01*
G01X34759Y11442D02*
G01X34827Y11420D01*
G01X34872Y11420D02*
G01X34827Y11420D01*
G01X34940Y11442D02*
G01X34872Y11420D01*
G01X34986Y11510D02*
G01X34940Y11442D01*
G01X35009Y11624D02*
G01X34986Y11510D01*
G01X35009Y11692D02*
G01X35009Y11624D01*
G01X34986Y11806D02*
G01X35009Y11692D01*
G01X34940Y11874D02*
G01X34986Y11806D01*
G01X34872Y11897D02*
G01X34940Y11874D01*
G01X34827Y11897D02*
G01X34872Y11897D01*
G01X35509Y11897D02*
G01X35281Y11420D01*
G01X35509Y11897D02*
G01X35190Y11897D01*
G01X36099Y11420D02*
G01X35690Y11420D01*
G01X36304Y11806D02*
G01X36304Y11783D01*
G01X36327Y11851D02*
G01X36304Y11806D01*
G01X36349Y11874D02*
G01X36327Y11851D01*
G01X36395Y11897D02*
G01X36349Y11874D01*
G01X36486Y11897D02*
G01X36395Y11897D01*
G01X36486Y11897D02*
G01X36531Y11874D01*
G01X36531Y11874D02*
G01X36554Y11851D01*
G01X36554Y11851D02*
G01X36577Y11806D01*
G01X36577Y11806D02*
G01X36577Y11760D01*
G01X36577Y11760D02*
G01X36554Y11715D01*
G01X36554Y11715D02*
G01X36509Y11647D01*
G01X36509Y11647D02*
G01X36281Y11420D01*
G01X36599Y11420D02*
G01X36281Y11420D01*
G04 Draw part R_12K_3*
G04 draw part outline for part R_12K_3*
G01X42350Y22920D02*
G01X42350Y15920D01*
G01X42350Y15920D02*
G01X44350Y15920D01*
G01X44350Y15920D02*
G01X44350Y22920D01*
G01X44350Y22920D02*
G01X42350Y22920D01*
G01X42850Y22920D02*
G01X42850Y22420D01*
G01X42850Y22420D02*
G01X43850Y22420D01*
G01X43850Y22420D02*
G01X43850Y22920D01*
G01X43850Y22920D02*
G01X42850Y22920D01*
G04 draw reference designator for part R_12K_3*
G01X41350Y23897D02*
G01X41350Y23420D01*
G01X41554Y23897D02*
G01X41350Y23897D01*
G01X41554Y23897D02*
G01X41622Y23874D01*
G01X41622Y23874D02*
G01X41645Y23851D01*
G01X41645Y23851D02*
G01X41668Y23806D01*
G01X41668Y23806D02*
G01X41668Y23760D01*
G01X41668Y23760D02*
G01X41645Y23715D01*
G01X41645Y23715D02*
G01X41622Y23692D01*
G01X41622Y23692D02*
G01X41554Y23670D01*
G01X41350Y23670D02*
G01X41554Y23670D01*
G01X41509Y23670D02*
G01X41668Y23420D01*
G01X42259Y23420D02*
G01X41850Y23420D01*
G01X42486Y23829D02*
G01X42440Y23806D01*
G01X42554Y23897D02*
G01X42486Y23829D01*
G01X42554Y23897D02*
G01X42554Y23420D01*
G01X42759Y23806D02*
G01X42759Y23783D01*
G01X42781Y23851D02*
G01X42759Y23806D01*
G01X42804Y23874D02*
G01X42781Y23851D01*
G01X42850Y23897D02*
G01X42804Y23874D01*
G01X42940Y23897D02*
G01X42850Y23897D01*
G01X42940Y23897D02*
G01X42986Y23874D01*
G01X42986Y23874D02*
G01X43009Y23851D01*
G01X43009Y23851D02*
G01X43031Y23806D01*
G01X43031Y23806D02*
G01X43031Y23760D01*
G01X43031Y23760D02*
G01X43009Y23715D01*
G01X43009Y23715D02*
G01X42963Y23647D01*
G01X42963Y23647D02*
G01X42736Y23420D01*
G01X43054Y23420D02*
G01X42736Y23420D01*
G01X43236Y23897D02*
G01X43236Y23420D01*
G01X43554Y23897D02*
G01X43236Y23579D01*
G01X43350Y23692D02*
G01X43554Y23420D01*
G01X44145Y23420D02*
G01X43736Y23420D01*
G01X44622Y23897D02*
G01X44372Y23897D01*
G01X44622Y23897D02*
G01X44486Y23715D01*
G01X44554Y23715D02*
G01X44486Y23715D01*
G01X44554Y23715D02*
G01X44600Y23692D01*
G01X44600Y23692D02*
G01X44622Y23670D01*
G01X44622Y23670D02*
G01X44645Y23601D01*
G01X44645Y23601D02*
G01X44645Y23556D01*
G01X44645Y23556D02*
G01X44622Y23488D01*
G01X44622Y23488D02*
G01X44577Y23442D01*
G01X44577Y23442D02*
G01X44509Y23420D01*
G01X44440Y23420D02*
G01X44509Y23420D01*
G01X44372Y23442D02*
G01X44440Y23420D01*
G01X44350Y23465D02*
G01X44372Y23442D01*
G01X44327Y23510D02*
G01X44350Y23465D01*
G04 Draw part IC_CD4007_4*
G04 draw part outline for part IC_CD4007_4*
G01X22350Y22920D02*
G01X22350Y15920D01*
G01X22350Y15920D02*
G01X24350Y15920D01*
G01X24350Y15920D02*
G01X24350Y22920D01*
G01X24350Y22920D02*
G01X22350Y22920D01*
G01X22850Y22920D02*
G01X22850Y22420D01*
G01X22850Y22420D02*
G01X23850Y22420D01*
G01X23850Y22420D02*
G01X23850Y22920D01*
G01X23850Y22920D02*
G01X22850Y22920D01*
G04 draw reference designator for part IC_CD4007_4*
G01X21350Y23897D02*
G01X21350Y23420D01*
G01X21850Y23829D02*
G01X21872Y23783D01*
G01X21804Y23874D02*
G01X21850Y23829D01*
G01X21759Y23897D02*
G01X21804Y23874D01*
G01X21668Y23897D02*
G01X21759Y23897D01*
G01X21668Y23897D02*
G01X21622Y23874D01*
G01X21622Y23874D02*
G01X21577Y23829D01*
G01X21577Y23829D02*
G01X21554Y23783D01*
G01X21554Y23783D02*
G01X21531Y23715D01*
G01X21531Y23715D02*
G01X21531Y23601D01*
G01X21531Y23601D02*
G01X21554Y23533D01*
G01X21554Y23533D02*
G01X21577Y23488D01*
G01X21577Y23488D02*
G01X21622Y23442D01*
G01X21622Y23442D02*
G01X21668Y23420D01*
G01X21759Y23420D02*
G01X21668Y23420D01*
G01X21804Y23442D02*
G01X21759Y23420D01*
G01X21850Y23488D02*
G01X21804Y23442D01*
G01X21872Y23533D02*
G01X21850Y23488D01*
G01X22463Y23420D02*
G01X22054Y23420D01*
G01X22963Y23829D02*
G01X22986Y23783D01*
G01X22918Y23874D02*
G01X22963Y23829D01*
G01X22872Y23897D02*
G01X22918Y23874D01*
G01X22781Y23897D02*
G01X22872Y23897D01*
G01X22781Y23897D02*
G01X22736Y23874D01*
G01X22736Y23874D02*
G01X22690Y23829D01*
G01X22690Y23829D02*
G01X22668Y23783D01*
G01X22668Y23783D02*
G01X22645Y23715D01*
G01X22645Y23715D02*
G01X22645Y23601D01*
G01X22645Y23601D02*
G01X22668Y23533D01*
G01X22668Y23533D02*
G01X22690Y23488D01*
G01X22690Y23488D02*
G01X22736Y23442D01*
G01X22736Y23442D02*
G01X22781Y23420D01*
G01X22872Y23420D02*
G01X22781Y23420D01*
G01X22918Y23442D02*
G01X22872Y23420D01*
G01X22963Y23488D02*
G01X22918Y23442D01*
G01X22986Y23533D02*
G01X22963Y23488D01*
G01X23168Y23897D02*
G01X23168Y23420D01*
G01X23327Y23897D02*
G01X23168Y23897D01*
G01X23327Y23897D02*
G01X23395Y23874D01*
G01X23395Y23874D02*
G01X23440Y23829D01*
G01X23440Y23829D02*
G01X23463Y23783D01*
G01X23463Y23783D02*
G01X23486Y23715D01*
G01X23486Y23715D02*
G01X23486Y23601D01*
G01X23486Y23601D02*
G01X23463Y23533D01*
G01X23463Y23533D02*
G01X23440Y23488D01*
G01X23440Y23488D02*
G01X23395Y23442D01*
G01X23395Y23442D02*
G01X23327Y23420D01*
G01X23168Y23420D02*
G01X23327Y23420D01*
G01X23895Y23897D02*
G01X23668Y23579D01*
G01X24009Y23579D02*
G01X23668Y23579D01*
G01X23895Y23897D02*
G01X23895Y23420D01*
G01X24327Y23897D02*
G01X24259Y23874D01*
G01X24259Y23874D02*
G01X24213Y23806D01*
G01X24213Y23806D02*
G01X24190Y23692D01*
G01X24190Y23692D02*
G01X24190Y23624D01*
G01X24190Y23624D02*
G01X24213Y23510D01*
G01X24213Y23510D02*
G01X24259Y23442D01*
G01X24259Y23442D02*
G01X24327Y23420D01*
G01X24372Y23420D02*
G01X24327Y23420D01*
G01X24440Y23442D02*
G01X24372Y23420D01*
G01X24486Y23510D02*
G01X24440Y23442D01*
G01X24509Y23624D02*
G01X24486Y23510D01*
G01X24509Y23692D02*
G01X24509Y23624D01*
G01X24486Y23806D02*
G01X24509Y23692D01*
G01X24440Y23874D02*
G01X24486Y23806D01*
G01X24372Y23897D02*
G01X24440Y23874D01*
G01X24327Y23897D02*
G01X24372Y23897D01*
G01X24827Y23897D02*
G01X24759Y23874D01*
G01X24759Y23874D02*
G01X24713Y23806D01*
G01X24713Y23806D02*
G01X24690Y23692D01*
G01X24690Y23692D02*
G01X24690Y23624D01*
G01X24690Y23624D02*
G01X24713Y23510D01*
G01X24713Y23510D02*
G01X24759Y23442D01*
G01X24759Y23442D02*
G01X24827Y23420D01*
G01X24872Y23420D02*
G01X24827Y23420D01*
G01X24940Y23442D02*
G01X24872Y23420D01*
G01X24986Y23510D02*
G01X24940Y23442D01*
G01X25009Y23624D02*
G01X24986Y23510D01*
G01X25009Y23692D02*
G01X25009Y23624D01*
G01X24986Y23806D02*
G01X25009Y23692D01*
G01X24940Y23874D02*
G01X24986Y23806D01*
G01X24872Y23897D02*
G01X24940Y23874D01*
G01X24827Y23897D02*
G01X24872Y23897D01*
G01X25509Y23897D02*
G01X25281Y23420D01*
G01X25509Y23897D02*
G01X25190Y23897D01*
G01X26099Y23420D02*
G01X25690Y23420D01*
G01X26509Y23897D02*
G01X26281Y23579D01*
G01X26622Y23579D02*
G01X26281Y23579D01*
G01X26509Y23897D02*
G01X26509Y23420D01*
G04 Draw part IC_CD4007_5*
G04 draw part outline for part IC_CD4007_5*
G01X32350Y22920D02*
G01X32350Y15920D01*
G01X32350Y15920D02*
G01X34350Y15920D01*
G01X34350Y15920D02*
G01X34350Y22920D01*
G01X34350Y22920D02*
G01X32350Y22920D01*
G01X32850Y22920D02*
G01X32850Y22420D01*
G01X32850Y22420D02*
G01X33850Y22420D01*
G01X33850Y22420D02*
G01X33850Y22920D01*
G01X33850Y22920D02*
G01X32850Y22920D01*
G04 draw reference designator for part IC_CD4007_5*
G01X31350Y23897D02*
G01X31350Y23420D01*
G01X31850Y23829D02*
G01X31872Y23783D01*
G01X31804Y23874D02*
G01X31850Y23829D01*
G01X31759Y23897D02*
G01X31804Y23874D01*
G01X31668Y23897D02*
G01X31759Y23897D01*
G01X31668Y23897D02*
G01X31622Y23874D01*
G01X31622Y23874D02*
G01X31577Y23829D01*
G01X31577Y23829D02*
G01X31554Y23783D01*
G01X31554Y23783D02*
G01X31531Y23715D01*
G01X31531Y23715D02*
G01X31531Y23601D01*
G01X31531Y23601D02*
G01X31554Y23533D01*
G01X31554Y23533D02*
G01X31577Y23488D01*
G01X31577Y23488D02*
G01X31622Y23442D01*
G01X31622Y23442D02*
G01X31668Y23420D01*
G01X31759Y23420D02*
G01X31668Y23420D01*
G01X31804Y23442D02*
G01X31759Y23420D01*
G01X31850Y23488D02*
G01X31804Y23442D01*
G01X31872Y23533D02*
G01X31850Y23488D01*
G01X32463Y23420D02*
G01X32054Y23420D01*
G01X32963Y23829D02*
G01X32986Y23783D01*
G01X32918Y23874D02*
G01X32963Y23829D01*
G01X32872Y23897D02*
G01X32918Y23874D01*
G01X32781Y23897D02*
G01X32872Y23897D01*
G01X32781Y23897D02*
G01X32736Y23874D01*
G01X32736Y23874D02*
G01X32690Y23829D01*
G01X32690Y23829D02*
G01X32668Y23783D01*
G01X32668Y23783D02*
G01X32645Y23715D01*
G01X32645Y23715D02*
G01X32645Y23601D01*
G01X32645Y23601D02*
G01X32668Y23533D01*
G01X32668Y23533D02*
G01X32690Y23488D01*
G01X32690Y23488D02*
G01X32736Y23442D01*
G01X32736Y23442D02*
G01X32781Y23420D01*
G01X32872Y23420D02*
G01X32781Y23420D01*
G01X32918Y23442D02*
G01X32872Y23420D01*
G01X32963Y23488D02*
G01X32918Y23442D01*
G01X32986Y23533D02*
G01X32963Y23488D01*
G01X33168Y23897D02*
G01X33168Y23420D01*
G01X33327Y23897D02*
G01X33168Y23897D01*
G01X33327Y23897D02*
G01X33395Y23874D01*
G01X33395Y23874D02*
G01X33440Y23829D01*
G01X33440Y23829D02*
G01X33463Y23783D01*
G01X33463Y23783D02*
G01X33486Y23715D01*
G01X33486Y23715D02*
G01X33486Y23601D01*
G01X33486Y23601D02*
G01X33463Y23533D01*
G01X33463Y23533D02*
G01X33440Y23488D01*
G01X33440Y23488D02*
G01X33395Y23442D01*
G01X33395Y23442D02*
G01X33327Y23420D01*
G01X33168Y23420D02*
G01X33327Y23420D01*
G01X33895Y23897D02*
G01X33668Y23579D01*
G01X34009Y23579D02*
G01X33668Y23579D01*
G01X33895Y23897D02*
G01X33895Y23420D01*
G01X34327Y23897D02*
G01X34259Y23874D01*
G01X34259Y23874D02*
G01X34213Y23806D01*
G01X34213Y23806D02*
G01X34190Y23692D01*
G01X34190Y23692D02*
G01X34190Y23624D01*
G01X34190Y23624D02*
G01X34213Y23510D01*
G01X34213Y23510D02*
G01X34259Y23442D01*
G01X34259Y23442D02*
G01X34327Y23420D01*
G01X34372Y23420D02*
G01X34327Y23420D01*
G01X34440Y23442D02*
G01X34372Y23420D01*
G01X34486Y23510D02*
G01X34440Y23442D01*
G01X34509Y23624D02*
G01X34486Y23510D01*
G01X34509Y23692D02*
G01X34509Y23624D01*
G01X34486Y23806D02*
G01X34509Y23692D01*
G01X34440Y23874D02*
G01X34486Y23806D01*
G01X34372Y23897D02*
G01X34440Y23874D01*
G01X34327Y23897D02*
G01X34372Y23897D01*
G01X34827Y23897D02*
G01X34759Y23874D01*
G01X34759Y23874D02*
G01X34713Y23806D01*
G01X34713Y23806D02*
G01X34690Y23692D01*
G01X34690Y23692D02*
G01X34690Y23624D01*
G01X34690Y23624D02*
G01X34713Y23510D01*
G01X34713Y23510D02*
G01X34759Y23442D01*
G01X34759Y23442D02*
G01X34827Y23420D01*
G01X34872Y23420D02*
G01X34827Y23420D01*
G01X34940Y23442D02*
G01X34872Y23420D01*
G01X34986Y23510D02*
G01X34940Y23442D01*
G01X35009Y23624D02*
G01X34986Y23510D01*
G01X35009Y23692D02*
G01X35009Y23624D01*
G01X34986Y23806D02*
G01X35009Y23692D01*
G01X34940Y23874D02*
G01X34986Y23806D01*
G01X34872Y23897D02*
G01X34940Y23874D01*
G01X34827Y23897D02*
G01X34872Y23897D01*
G01X35509Y23897D02*
G01X35281Y23420D01*
G01X35509Y23897D02*
G01X35190Y23897D01*
G01X36099Y23420D02*
G01X35690Y23420D01*
G01X36327Y23897D02*
G01X36554Y23897D01*
G01X36327Y23897D02*
G01X36304Y23692D01*
G01X36327Y23715D02*
G01X36304Y23692D01*
G01X36395Y23738D02*
G01X36327Y23715D01*
G01X36463Y23738D02*
G01X36395Y23738D01*
G01X36463Y23738D02*
G01X36531Y23715D01*
G01X36531Y23715D02*
G01X36577Y23670D01*
G01X36577Y23670D02*
G01X36599Y23601D01*
G01X36599Y23601D02*
G01X36599Y23556D01*
G01X36599Y23556D02*
G01X36577Y23488D01*
G01X36577Y23488D02*
G01X36531Y23442D01*
G01X36531Y23442D02*
G01X36463Y23420D01*
G01X36395Y23420D02*
G01X36463Y23420D01*
G01X36327Y23442D02*
G01X36395Y23420D01*
G01X36304Y23465D02*
G01X36327Y23442D01*
G01X36281Y23510D02*
G01X36304Y23465D01*
G04 Draw part R_12K_6*
G04 draw part outline for part R_12K_6*
G01X22350Y10920D02*
G01X22350Y3920D01*
G01X22350Y3920D02*
G01X24350Y3920D01*
G01X24350Y3920D02*
G01X24350Y10920D01*
G01X24350Y10920D02*
G01X22350Y10920D01*
G01X22850Y10920D02*
G01X22850Y10420D01*
G01X22850Y10420D02*
G01X23850Y10420D01*
G01X23850Y10420D02*
G01X23850Y10920D01*
G01X23850Y10920D02*
G01X22850Y10920D01*
G04 draw reference designator for part R_12K_6*
G01X21350Y11897D02*
G01X21350Y11420D01*
G01X21554Y11897D02*
G01X21350Y11897D01*
G01X21554Y11897D02*
G01X21622Y11874D01*
G01X21622Y11874D02*
G01X21645Y11851D01*
G01X21645Y11851D02*
G01X21668Y11806D01*
G01X21668Y11806D02*
G01X21668Y11760D01*
G01X21668Y11760D02*
G01X21645Y11715D01*
G01X21645Y11715D02*
G01X21622Y11692D01*
G01X21622Y11692D02*
G01X21554Y11670D01*
G01X21350Y11670D02*
G01X21554Y11670D01*
G01X21509Y11670D02*
G01X21668Y11420D01*
G01X22259Y11420D02*
G01X21850Y11420D01*
G01X22486Y11829D02*
G01X22440Y11806D01*
G01X22554Y11897D02*
G01X22486Y11829D01*
G01X22554Y11897D02*
G01X22554Y11420D01*
G01X22759Y11806D02*
G01X22759Y11783D01*
G01X22781Y11851D02*
G01X22759Y11806D01*
G01X22804Y11874D02*
G01X22781Y11851D01*
G01X22850Y11897D02*
G01X22804Y11874D01*
G01X22940Y11897D02*
G01X22850Y11897D01*
G01X22940Y11897D02*
G01X22986Y11874D01*
G01X22986Y11874D02*
G01X23009Y11851D01*
G01X23009Y11851D02*
G01X23031Y11806D01*
G01X23031Y11806D02*
G01X23031Y11760D01*
G01X23031Y11760D02*
G01X23009Y11715D01*
G01X23009Y11715D02*
G01X22963Y11647D01*
G01X22963Y11647D02*
G01X22736Y11420D01*
G01X23054Y11420D02*
G01X22736Y11420D01*
G01X23236Y11897D02*
G01X23236Y11420D01*
G01X23554Y11897D02*
G01X23236Y11579D01*
G01X23350Y11692D02*
G01X23554Y11420D01*
G01X24145Y11420D02*
G01X23736Y11420D01*
G01X24577Y11874D02*
G01X24600Y11829D01*
G01X24509Y11897D02*
G01X24577Y11874D01*
G01X24463Y11897D02*
G01X24509Y11897D01*
G01X24463Y11897D02*
G01X24395Y11874D01*
G01X24395Y11874D02*
G01X24350Y11806D01*
G01X24350Y11806D02*
G01X24327Y11692D01*
G01X24327Y11692D02*
G01X24327Y11579D01*
G01X24327Y11579D02*
G01X24350Y11488D01*
G01X24350Y11488D02*
G01X24395Y11442D01*
G01X24395Y11442D02*
G01X24463Y11420D01*
G01X24486Y11420D02*
G01X24463Y11420D01*
G01X24554Y11442D02*
G01X24486Y11420D01*
G01X24600Y11488D02*
G01X24554Y11442D01*
G01X24622Y11556D02*
G01X24600Y11488D01*
G01X24622Y11579D02*
G01X24622Y11556D01*
G01X24600Y11647D02*
G01X24622Y11579D01*
G01X24554Y11692D02*
G01X24600Y11647D01*
G01X24486Y11715D02*
G01X24554Y11692D01*
G01X24463Y11715D02*
G01X24486Y11715D01*
G01X24463Y11715D02*
G01X24395Y11692D01*
G01X24395Y11692D02*
G01X24350Y11647D01*
G01X24350Y11647D02*
G01X24327Y11579D01*
G04 Draw part IC_CD4016_7*
G04 draw part outline for part IC_CD4016_7*
G01X2350Y22920D02*
G01X2350Y15920D01*
G01X2350Y15920D02*
G01X4350Y15920D01*
G01X4350Y15920D02*
G01X4350Y22920D01*
G01X4350Y22920D02*
G01X2350Y22920D01*
G01X2850Y22920D02*
G01X2850Y22420D01*
G01X2850Y22420D02*
G01X3850Y22420D01*
G01X3850Y22420D02*
G01X3850Y22920D01*
G01X3850Y22920D02*
G01X2850Y22920D01*
G04 draw reference designator for part IC_CD4016_7*
G01X1350Y23897D02*
G01X1350Y23420D01*
G01X1850Y23829D02*
G01X1872Y23783D01*
G01X1804Y23874D02*
G01X1850Y23829D01*
G01X1759Y23897D02*
G01X1804Y23874D01*
G01X1668Y23897D02*
G01X1759Y23897D01*
G01X1668Y23897D02*
G01X1622Y23874D01*
G01X1622Y23874D02*
G01X1577Y23829D01*
G01X1577Y23829D02*
G01X1554Y23783D01*
G01X1554Y23783D02*
G01X1531Y23715D01*
G01X1531Y23715D02*
G01X1531Y23601D01*
G01X1531Y23601D02*
G01X1554Y23533D01*
G01X1554Y23533D02*
G01X1577Y23488D01*
G01X1577Y23488D02*
G01X1622Y23442D01*
G01X1622Y23442D02*
G01X1668Y23420D01*
G01X1759Y23420D02*
G01X1668Y23420D01*
G01X1804Y23442D02*
G01X1759Y23420D01*
G01X1850Y23488D02*
G01X1804Y23442D01*
G01X1872Y23533D02*
G01X1850Y23488D01*
G01X2463Y23420D02*
G01X2054Y23420D01*
G01X2963Y23829D02*
G01X2986Y23783D01*
G01X2918Y23874D02*
G01X2963Y23829D01*
G01X2872Y23897D02*
G01X2918Y23874D01*
G01X2781Y23897D02*
G01X2872Y23897D01*
G01X2781Y23897D02*
G01X2736Y23874D01*
G01X2736Y23874D02*
G01X2690Y23829D01*
G01X2690Y23829D02*
G01X2668Y23783D01*
G01X2668Y23783D02*
G01X2645Y23715D01*
G01X2645Y23715D02*
G01X2645Y23601D01*
G01X2645Y23601D02*
G01X2668Y23533D01*
G01X2668Y23533D02*
G01X2690Y23488D01*
G01X2690Y23488D02*
G01X2736Y23442D01*
G01X2736Y23442D02*
G01X2781Y23420D01*
G01X2872Y23420D02*
G01X2781Y23420D01*
G01X2918Y23442D02*
G01X2872Y23420D01*
G01X2963Y23488D02*
G01X2918Y23442D01*
G01X2986Y23533D02*
G01X2963Y23488D01*
G01X3168Y23897D02*
G01X3168Y23420D01*
G01X3327Y23897D02*
G01X3168Y23897D01*
G01X3327Y23897D02*
G01X3395Y23874D01*
G01X3395Y23874D02*
G01X3440Y23829D01*
G01X3440Y23829D02*
G01X3463Y23783D01*
G01X3463Y23783D02*
G01X3486Y23715D01*
G01X3486Y23715D02*
G01X3486Y23601D01*
G01X3486Y23601D02*
G01X3463Y23533D01*
G01X3463Y23533D02*
G01X3440Y23488D01*
G01X3440Y23488D02*
G01X3395Y23442D01*
G01X3395Y23442D02*
G01X3327Y23420D01*
G01X3168Y23420D02*
G01X3327Y23420D01*
G01X3895Y23897D02*
G01X3668Y23579D01*
G01X4009Y23579D02*
G01X3668Y23579D01*
G01X3895Y23897D02*
G01X3895Y23420D01*
G01X4327Y23897D02*
G01X4259Y23874D01*
G01X4259Y23874D02*
G01X4213Y23806D01*
G01X4213Y23806D02*
G01X4190Y23692D01*
G01X4190Y23692D02*
G01X4190Y23624D01*
G01X4190Y23624D02*
G01X4213Y23510D01*
G01X4213Y23510D02*
G01X4259Y23442D01*
G01X4259Y23442D02*
G01X4327Y23420D01*
G01X4372Y23420D02*
G01X4327Y23420D01*
G01X4440Y23442D02*
G01X4372Y23420D01*
G01X4486Y23510D02*
G01X4440Y23442D01*
G01X4509Y23624D02*
G01X4486Y23510D01*
G01X4509Y23692D02*
G01X4509Y23624D01*
G01X4486Y23806D02*
G01X4509Y23692D01*
G01X4440Y23874D02*
G01X4486Y23806D01*
G01X4372Y23897D02*
G01X4440Y23874D01*
G01X4327Y23897D02*
G01X4372Y23897D01*
G01X4736Y23829D02*
G01X4690Y23806D01*
G01X4804Y23897D02*
G01X4736Y23829D01*
G01X4804Y23897D02*
G01X4804Y23420D01*
G01X5236Y23874D02*
G01X5259Y23829D01*
G01X5168Y23897D02*
G01X5236Y23874D01*
G01X5122Y23897D02*
G01X5168Y23897D01*
G01X5122Y23897D02*
G01X5054Y23874D01*
G01X5054Y23874D02*
G01X5009Y23806D01*
G01X5009Y23806D02*
G01X4986Y23692D01*
G01X4986Y23692D02*
G01X4986Y23579D01*
G01X4986Y23579D02*
G01X5009Y23488D01*
G01X5009Y23488D02*
G01X5054Y23442D01*
G01X5054Y23442D02*
G01X5122Y23420D01*
G01X5145Y23420D02*
G01X5122Y23420D01*
G01X5213Y23442D02*
G01X5145Y23420D01*
G01X5259Y23488D02*
G01X5213Y23442D01*
G01X5281Y23556D02*
G01X5259Y23488D01*
G01X5281Y23579D02*
G01X5281Y23556D01*
G01X5259Y23647D02*
G01X5281Y23579D01*
G01X5213Y23692D02*
G01X5259Y23647D01*
G01X5145Y23715D02*
G01X5213Y23692D01*
G01X5122Y23715D02*
G01X5145Y23715D01*
G01X5122Y23715D02*
G01X5054Y23692D01*
G01X5054Y23692D02*
G01X5009Y23647D01*
G01X5009Y23647D02*
G01X4986Y23579D01*
G01X5872Y23420D02*
G01X5463Y23420D01*
G01X6372Y23897D02*
G01X6145Y23420D01*
G01X6372Y23897D02*
G01X6054Y23897D01*
G04 Draw part IC_CD4007_8*
G04 draw part outline for part IC_CD4007_8*
G01X12350Y22920D02*
G01X12350Y15920D01*
G01X12350Y15920D02*
G01X14350Y15920D01*
G01X14350Y15920D02*
G01X14350Y22920D01*
G01X14350Y22920D02*
G01X12350Y22920D01*
G01X12850Y22920D02*
G01X12850Y22420D01*
G01X12850Y22420D02*
G01X13850Y22420D01*
G01X13850Y22420D02*
G01X13850Y22920D01*
G01X13850Y22920D02*
G01X12850Y22920D01*
G04 draw reference designator for part IC_CD4007_8*
G01X11350Y23897D02*
G01X11350Y23420D01*
G01X11850Y23829D02*
G01X11872Y23783D01*
G01X11804Y23874D02*
G01X11850Y23829D01*
G01X11759Y23897D02*
G01X11804Y23874D01*
G01X11668Y23897D02*
G01X11759Y23897D01*
G01X11668Y23897D02*
G01X11622Y23874D01*
G01X11622Y23874D02*
G01X11577Y23829D01*
G01X11577Y23829D02*
G01X11554Y23783D01*
G01X11554Y23783D02*
G01X11531Y23715D01*
G01X11531Y23715D02*
G01X11531Y23601D01*
G01X11531Y23601D02*
G01X11554Y23533D01*
G01X11554Y23533D02*
G01X11577Y23488D01*
G01X11577Y23488D02*
G01X11622Y23442D01*
G01X11622Y23442D02*
G01X11668Y23420D01*
G01X11759Y23420D02*
G01X11668Y23420D01*
G01X11804Y23442D02*
G01X11759Y23420D01*
G01X11850Y23488D02*
G01X11804Y23442D01*
G01X11872Y23533D02*
G01X11850Y23488D01*
G01X12463Y23420D02*
G01X12054Y23420D01*
G01X12963Y23829D02*
G01X12986Y23783D01*
G01X12918Y23874D02*
G01X12963Y23829D01*
G01X12872Y23897D02*
G01X12918Y23874D01*
G01X12781Y23897D02*
G01X12872Y23897D01*
G01X12781Y23897D02*
G01X12736Y23874D01*
G01X12736Y23874D02*
G01X12690Y23829D01*
G01X12690Y23829D02*
G01X12668Y23783D01*
G01X12668Y23783D02*
G01X12645Y23715D01*
G01X12645Y23715D02*
G01X12645Y23601D01*
G01X12645Y23601D02*
G01X12668Y23533D01*
G01X12668Y23533D02*
G01X12690Y23488D01*
G01X12690Y23488D02*
G01X12736Y23442D01*
G01X12736Y23442D02*
G01X12781Y23420D01*
G01X12872Y23420D02*
G01X12781Y23420D01*
G01X12918Y23442D02*
G01X12872Y23420D01*
G01X12963Y23488D02*
G01X12918Y23442D01*
G01X12986Y23533D02*
G01X12963Y23488D01*
G01X13168Y23897D02*
G01X13168Y23420D01*
G01X13327Y23897D02*
G01X13168Y23897D01*
G01X13327Y23897D02*
G01X13395Y23874D01*
G01X13395Y23874D02*
G01X13440Y23829D01*
G01X13440Y23829D02*
G01X13463Y23783D01*
G01X13463Y23783D02*
G01X13486Y23715D01*
G01X13486Y23715D02*
G01X13486Y23601D01*
G01X13486Y23601D02*
G01X13463Y23533D01*
G01X13463Y23533D02*
G01X13440Y23488D01*
G01X13440Y23488D02*
G01X13395Y23442D01*
G01X13395Y23442D02*
G01X13327Y23420D01*
G01X13168Y23420D02*
G01X13327Y23420D01*
G01X13895Y23897D02*
G01X13668Y23579D01*
G01X14009Y23579D02*
G01X13668Y23579D01*
G01X13895Y23897D02*
G01X13895Y23420D01*
G01X14327Y23897D02*
G01X14259Y23874D01*
G01X14259Y23874D02*
G01X14213Y23806D01*
G01X14213Y23806D02*
G01X14190Y23692D01*
G01X14190Y23692D02*
G01X14190Y23624D01*
G01X14190Y23624D02*
G01X14213Y23510D01*
G01X14213Y23510D02*
G01X14259Y23442D01*
G01X14259Y23442D02*
G01X14327Y23420D01*
G01X14372Y23420D02*
G01X14327Y23420D01*
G01X14440Y23442D02*
G01X14372Y23420D01*
G01X14486Y23510D02*
G01X14440Y23442D01*
G01X14509Y23624D02*
G01X14486Y23510D01*
G01X14509Y23692D02*
G01X14509Y23624D01*
G01X14486Y23806D02*
G01X14509Y23692D01*
G01X14440Y23874D02*
G01X14486Y23806D01*
G01X14372Y23897D02*
G01X14440Y23874D01*
G01X14327Y23897D02*
G01X14372Y23897D01*
G01X14827Y23897D02*
G01X14759Y23874D01*
G01X14759Y23874D02*
G01X14713Y23806D01*
G01X14713Y23806D02*
G01X14690Y23692D01*
G01X14690Y23692D02*
G01X14690Y23624D01*
G01X14690Y23624D02*
G01X14713Y23510D01*
G01X14713Y23510D02*
G01X14759Y23442D01*
G01X14759Y23442D02*
G01X14827Y23420D01*
G01X14872Y23420D02*
G01X14827Y23420D01*
G01X14940Y23442D02*
G01X14872Y23420D01*
G01X14986Y23510D02*
G01X14940Y23442D01*
G01X15009Y23624D02*
G01X14986Y23510D01*
G01X15009Y23692D02*
G01X15009Y23624D01*
G01X14986Y23806D02*
G01X15009Y23692D01*
G01X14940Y23874D02*
G01X14986Y23806D01*
G01X14872Y23897D02*
G01X14940Y23874D01*
G01X14827Y23897D02*
G01X14872Y23897D01*
G01X15509Y23897D02*
G01X15281Y23420D01*
G01X15509Y23897D02*
G01X15190Y23897D01*
G01X16099Y23420D02*
G01X15690Y23420D01*
G01X16395Y23897D02*
G01X16327Y23874D01*
G01X16327Y23874D02*
G01X16304Y23829D01*
G01X16304Y23829D02*
G01X16304Y23783D01*
G01X16304Y23783D02*
G01X16327Y23738D01*
G01X16327Y23738D02*
G01X16372Y23715D01*
G01X16372Y23715D02*
G01X16463Y23692D01*
G01X16463Y23692D02*
G01X16531Y23670D01*
G01X16531Y23670D02*
G01X16577Y23624D01*
G01X16577Y23624D02*
G01X16599Y23579D01*
G01X16599Y23579D02*
G01X16599Y23510D01*
G01X16599Y23510D02*
G01X16577Y23465D01*
G01X16577Y23465D02*
G01X16554Y23442D01*
G01X16554Y23442D02*
G01X16486Y23420D01*
G01X16395Y23420D02*
G01X16486Y23420D01*
G01X16327Y23442D02*
G01X16395Y23420D01*
G01X16304Y23465D02*
G01X16327Y23442D01*
G01X16281Y23510D02*
G01X16304Y23465D01*
G01X16281Y23579D02*
G01X16281Y23510D01*
G01X16304Y23624D02*
G01X16281Y23579D01*
G01X16349Y23670D02*
G01X16304Y23624D01*
G01X16418Y23692D02*
G01X16349Y23670D01*
G01X16509Y23715D02*
G01X16418Y23692D01*
G01X16554Y23738D02*
G01X16509Y23715D01*
G01X16577Y23783D02*
G01X16554Y23738D01*
G01X16577Y23829D02*
G01X16577Y23783D01*
G01X16554Y23874D02*
G01X16577Y23829D01*
G01X16486Y23897D02*
G01X16554Y23874D01*
G01X16395Y23897D02*
G01X16486Y23897D01*
G04 Draw part IC_CD4007_9*
G04 draw part outline for part IC_CD4007_9*
G01X2350Y10920D02*
G01X2350Y3920D01*
G01X2350Y3920D02*
G01X4350Y3920D01*
G01X4350Y3920D02*
G01X4350Y10920D01*
G01X4350Y10920D02*
G01X2350Y10920D01*
G01X2850Y10920D02*
G01X2850Y10420D01*
G01X2850Y10420D02*
G01X3850Y10420D01*
G01X3850Y10420D02*
G01X3850Y10920D01*
G01X3850Y10920D02*
G01X2850Y10920D01*
G04 draw reference designator for part IC_CD4007_9*
G01X1350Y11897D02*
G01X1350Y11420D01*
G01X1850Y11829D02*
G01X1872Y11783D01*
G01X1804Y11874D02*
G01X1850Y11829D01*
G01X1759Y11897D02*
G01X1804Y11874D01*
G01X1668Y11897D02*
G01X1759Y11897D01*
G01X1668Y11897D02*
G01X1622Y11874D01*
G01X1622Y11874D02*
G01X1577Y11829D01*
G01X1577Y11829D02*
G01X1554Y11783D01*
G01X1554Y11783D02*
G01X1531Y11715D01*
G01X1531Y11715D02*
G01X1531Y11601D01*
G01X1531Y11601D02*
G01X1554Y11533D01*
G01X1554Y11533D02*
G01X1577Y11488D01*
G01X1577Y11488D02*
G01X1622Y11442D01*
G01X1622Y11442D02*
G01X1668Y11420D01*
G01X1759Y11420D02*
G01X1668Y11420D01*
G01X1804Y11442D02*
G01X1759Y11420D01*
G01X1850Y11488D02*
G01X1804Y11442D01*
G01X1872Y11533D02*
G01X1850Y11488D01*
G01X2463Y11420D02*
G01X2054Y11420D01*
G01X2963Y11829D02*
G01X2986Y11783D01*
G01X2918Y11874D02*
G01X2963Y11829D01*
G01X2872Y11897D02*
G01X2918Y11874D01*
G01X2781Y11897D02*
G01X2872Y11897D01*
G01X2781Y11897D02*
G01X2736Y11874D01*
G01X2736Y11874D02*
G01X2690Y11829D01*
G01X2690Y11829D02*
G01X2668Y11783D01*
G01X2668Y11783D02*
G01X2645Y11715D01*
G01X2645Y11715D02*
G01X2645Y11601D01*
G01X2645Y11601D02*
G01X2668Y11533D01*
G01X2668Y11533D02*
G01X2690Y11488D01*
G01X2690Y11488D02*
G01X2736Y11442D01*
G01X2736Y11442D02*
G01X2781Y11420D01*
G01X2872Y11420D02*
G01X2781Y11420D01*
G01X2918Y11442D02*
G01X2872Y11420D01*
G01X2963Y11488D02*
G01X2918Y11442D01*
G01X2986Y11533D02*
G01X2963Y11488D01*
G01X3168Y11897D02*
G01X3168Y11420D01*
G01X3327Y11897D02*
G01X3168Y11897D01*
G01X3327Y11897D02*
G01X3395Y11874D01*
G01X3395Y11874D02*
G01X3440Y11829D01*
G01X3440Y11829D02*
G01X3463Y11783D01*
G01X3463Y11783D02*
G01X3486Y11715D01*
G01X3486Y11715D02*
G01X3486Y11601D01*
G01X3486Y11601D02*
G01X3463Y11533D01*
G01X3463Y11533D02*
G01X3440Y11488D01*
G01X3440Y11488D02*
G01X3395Y11442D01*
G01X3395Y11442D02*
G01X3327Y11420D01*
G01X3168Y11420D02*
G01X3327Y11420D01*
G01X3895Y11897D02*
G01X3668Y11579D01*
G01X4009Y11579D02*
G01X3668Y11579D01*
G01X3895Y11897D02*
G01X3895Y11420D01*
G01X4327Y11897D02*
G01X4259Y11874D01*
G01X4259Y11874D02*
G01X4213Y11806D01*
G01X4213Y11806D02*
G01X4190Y11692D01*
G01X4190Y11692D02*
G01X4190Y11624D01*
G01X4190Y11624D02*
G01X4213Y11510D01*
G01X4213Y11510D02*
G01X4259Y11442D01*
G01X4259Y11442D02*
G01X4327Y11420D01*
G01X4372Y11420D02*
G01X4327Y11420D01*
G01X4440Y11442D02*
G01X4372Y11420D01*
G01X4486Y11510D02*
G01X4440Y11442D01*
G01X4509Y11624D02*
G01X4486Y11510D01*
G01X4509Y11692D02*
G01X4509Y11624D01*
G01X4486Y11806D02*
G01X4509Y11692D01*
G01X4440Y11874D02*
G01X4486Y11806D01*
G01X4372Y11897D02*
G01X4440Y11874D01*
G01X4327Y11897D02*
G01X4372Y11897D01*
G01X4827Y11897D02*
G01X4759Y11874D01*
G01X4759Y11874D02*
G01X4713Y11806D01*
G01X4713Y11806D02*
G01X4690Y11692D01*
G01X4690Y11692D02*
G01X4690Y11624D01*
G01X4690Y11624D02*
G01X4713Y11510D01*
G01X4713Y11510D02*
G01X4759Y11442D01*
G01X4759Y11442D02*
G01X4827Y11420D01*
G01X4872Y11420D02*
G01X4827Y11420D01*
G01X4940Y11442D02*
G01X4872Y11420D01*
G01X4986Y11510D02*
G01X4940Y11442D01*
G01X5009Y11624D02*
G01X4986Y11510D01*
G01X5009Y11692D02*
G01X5009Y11624D01*
G01X4986Y11806D02*
G01X5009Y11692D01*
G01X4940Y11874D02*
G01X4986Y11806D01*
G01X4872Y11897D02*
G01X4940Y11874D01*
G01X4827Y11897D02*
G01X4872Y11897D01*
G01X5509Y11897D02*
G01X5281Y11420D01*
G01X5509Y11897D02*
G01X5190Y11897D01*
G01X6099Y11420D02*
G01X5690Y11420D01*
G01X6577Y11738D02*
G01X6554Y11670D01*
G01X6554Y11670D02*
G01X6509Y11624D01*
G01X6509Y11624D02*
G01X6440Y11601D01*
G01X6418Y11601D02*
G01X6440Y11601D01*
G01X6349Y11624D02*
G01X6418Y11601D01*
G01X6304Y11670D02*
G01X6349Y11624D01*
G01X6281Y11738D02*
G01X6304Y11670D01*
G01X6281Y11760D02*
G01X6281Y11738D01*
G01X6304Y11829D02*
G01X6281Y11760D01*
G01X6349Y11874D02*
G01X6304Y11829D01*
G01X6418Y11897D02*
G01X6349Y11874D01*
G01X6440Y11897D02*
G01X6418Y11897D01*
G01X6440Y11897D02*
G01X6509Y11874D01*
G01X6509Y11874D02*
G01X6554Y11829D01*
G01X6554Y11829D02*
G01X6577Y11738D01*
G01X6577Y11738D02*
G01X6577Y11624D01*
G01X6577Y11624D02*
G01X6554Y11510D01*
G01X6554Y11510D02*
G01X6509Y11442D01*
G01X6509Y11442D02*
G01X6440Y11420D01*
G01X6395Y11420D02*
G01X6440Y11420D01*
G01X6327Y11442D02*
G01X6395Y11420D01*
G01X6304Y11488D02*
G01X6327Y11442D01*
G04 Draw part R_12K_10*
G04 draw part outline for part R_12K_10*
G01X2350Y34920D02*
G01X2350Y27920D01*
G01X2350Y27920D02*
G01X4350Y27920D01*
G01X4350Y27920D02*
G01X4350Y34920D01*
G01X4350Y34920D02*
G01X2350Y34920D01*
G01X2850Y34920D02*
G01X2850Y34420D01*
G01X2850Y34420D02*
G01X3850Y34420D01*
G01X3850Y34420D02*
G01X3850Y34920D01*
G01X3850Y34920D02*
G01X2850Y34920D01*
G04 draw reference designator for part R_12K_10*
G01X1350Y36397D02*
G01X1350Y35920D01*
G01X1554Y36397D02*
G01X1350Y36397D01*
G01X1554Y36397D02*
G01X1622Y36374D01*
G01X1622Y36374D02*
G01X1645Y36351D01*
G01X1645Y36351D02*
G01X1668Y36306D01*
G01X1668Y36306D02*
G01X1668Y36260D01*
G01X1668Y36260D02*
G01X1645Y36215D01*
G01X1645Y36215D02*
G01X1622Y36192D01*
G01X1622Y36192D02*
G01X1554Y36170D01*
G01X1350Y36170D02*
G01X1554Y36170D01*
G01X1509Y36170D02*
G01X1668Y35920D01*
G01X2259Y35920D02*
G01X1850Y35920D01*
G01X2486Y36329D02*
G01X2440Y36306D01*
G01X2554Y36397D02*
G01X2486Y36329D01*
G01X2554Y36397D02*
G01X2554Y35920D01*
G01X2759Y36306D02*
G01X2759Y36283D01*
G01X2781Y36351D02*
G01X2759Y36306D01*
G01X2804Y36374D02*
G01X2781Y36351D01*
G01X2850Y36397D02*
G01X2804Y36374D01*
G01X2940Y36397D02*
G01X2850Y36397D01*
G01X2940Y36397D02*
G01X2986Y36374D01*
G01X2986Y36374D02*
G01X3009Y36351D01*
G01X3009Y36351D02*
G01X3031Y36306D01*
G01X3031Y36306D02*
G01X3031Y36260D01*
G01X3031Y36260D02*
G01X3009Y36215D01*
G01X3009Y36215D02*
G01X2963Y36147D01*
G01X2963Y36147D02*
G01X2736Y35920D01*
G01X3054Y35920D02*
G01X2736Y35920D01*
G01X3236Y36397D02*
G01X3236Y35920D01*
G01X3554Y36397D02*
G01X3236Y36079D01*
G01X3350Y36192D02*
G01X3554Y35920D01*
G01X4145Y35920D02*
G01X3736Y35920D01*
G01X4372Y36329D02*
G01X4327Y36306D01*
G01X4440Y36397D02*
G01X4372Y36329D01*
G01X4440Y36397D02*
G01X4440Y35920D01*
G01X4759Y36397D02*
G01X4690Y36374D01*
G01X4690Y36374D02*
G01X4645Y36306D01*
G01X4645Y36306D02*
G01X4622Y36192D01*
G01X4622Y36192D02*
G01X4622Y36124D01*
G01X4622Y36124D02*
G01X4645Y36010D01*
G01X4645Y36010D02*
G01X4690Y35942D01*
G01X4690Y35942D02*
G01X4759Y35920D01*
G01X4804Y35920D02*
G01X4759Y35920D01*
G01X4872Y35942D02*
G01X4804Y35920D01*
G01X4918Y36010D02*
G01X4872Y35942D01*
G01X4940Y36124D02*
G01X4918Y36010D01*
G01X4940Y36192D02*
G01X4940Y36124D01*
G01X4918Y36306D02*
G01X4940Y36192D01*
G01X4872Y36374D02*
G01X4918Y36306D01*
G01X4804Y36397D02*
G01X4872Y36374D01*
G01X4759Y36397D02*
G01X4804Y36397D01*
G04 Draw part IC_CD4016_11*
G04 draw part outline for part IC_CD4016_11*
G01X42350Y10920D02*
G01X42350Y3920D01*
G01X42350Y3920D02*
G01X44350Y3920D01*
G01X44350Y3920D02*
G01X44350Y10920D01*
G01X44350Y10920D02*
G01X42350Y10920D01*
G01X42850Y10920D02*
G01X42850Y10420D01*
G01X42850Y10420D02*
G01X43850Y10420D01*
G01X43850Y10420D02*
G01X43850Y10920D01*
G01X43850Y10920D02*
G01X42850Y10920D01*
G04 draw reference designator for part IC_CD4016_11*
G01X39850Y11897D02*
G01X39850Y11420D01*
G01X40350Y11829D02*
G01X40372Y11783D01*
G01X40304Y11874D02*
G01X40350Y11829D01*
G01X40259Y11897D02*
G01X40304Y11874D01*
G01X40168Y11897D02*
G01X40259Y11897D01*
G01X40168Y11897D02*
G01X40122Y11874D01*
G01X40122Y11874D02*
G01X40077Y11829D01*
G01X40077Y11829D02*
G01X40054Y11783D01*
G01X40054Y11783D02*
G01X40031Y11715D01*
G01X40031Y11715D02*
G01X40031Y11601D01*
G01X40031Y11601D02*
G01X40054Y11533D01*
G01X40054Y11533D02*
G01X40077Y11488D01*
G01X40077Y11488D02*
G01X40122Y11442D01*
G01X40122Y11442D02*
G01X40168Y11420D01*
G01X40259Y11420D02*
G01X40168Y11420D01*
G01X40304Y11442D02*
G01X40259Y11420D01*
G01X40350Y11488D02*
G01X40304Y11442D01*
G01X40372Y11533D02*
G01X40350Y11488D01*
G01X40963Y11420D02*
G01X40554Y11420D01*
G01X41463Y11829D02*
G01X41486Y11783D01*
G01X41418Y11874D02*
G01X41463Y11829D01*
G01X41372Y11897D02*
G01X41418Y11874D01*
G01X41281Y11897D02*
G01X41372Y11897D01*
G01X41281Y11897D02*
G01X41236Y11874D01*
G01X41236Y11874D02*
G01X41190Y11829D01*
G01X41190Y11829D02*
G01X41168Y11783D01*
G01X41168Y11783D02*
G01X41145Y11715D01*
G01X41145Y11715D02*
G01X41145Y11601D01*
G01X41145Y11601D02*
G01X41168Y11533D01*
G01X41168Y11533D02*
G01X41190Y11488D01*
G01X41190Y11488D02*
G01X41236Y11442D01*
G01X41236Y11442D02*
G01X41281Y11420D01*
G01X41372Y11420D02*
G01X41281Y11420D01*
G01X41418Y11442D02*
G01X41372Y11420D01*
G01X41463Y11488D02*
G01X41418Y11442D01*
G01X41486Y11533D02*
G01X41463Y11488D01*
G01X41668Y11897D02*
G01X41668Y11420D01*
G01X41827Y11897D02*
G01X41668Y11897D01*
G01X41827Y11897D02*
G01X41895Y11874D01*
G01X41895Y11874D02*
G01X41940Y11829D01*
G01X41940Y11829D02*
G01X41963Y11783D01*
G01X41963Y11783D02*
G01X41986Y11715D01*
G01X41986Y11715D02*
G01X41986Y11601D01*
G01X41986Y11601D02*
G01X41963Y11533D01*
G01X41963Y11533D02*
G01X41940Y11488D01*
G01X41940Y11488D02*
G01X41895Y11442D01*
G01X41895Y11442D02*
G01X41827Y11420D01*
G01X41668Y11420D02*
G01X41827Y11420D01*
G01X42395Y11897D02*
G01X42168Y11579D01*
G01X42509Y11579D02*
G01X42168Y11579D01*
G01X42395Y11897D02*
G01X42395Y11420D01*
G01X42827Y11897D02*
G01X42759Y11874D01*
G01X42759Y11874D02*
G01X42713Y11806D01*
G01X42713Y11806D02*
G01X42690Y11692D01*
G01X42690Y11692D02*
G01X42690Y11624D01*
G01X42690Y11624D02*
G01X42713Y11510D01*
G01X42713Y11510D02*
G01X42759Y11442D01*
G01X42759Y11442D02*
G01X42827Y11420D01*
G01X42872Y11420D02*
G01X42827Y11420D01*
G01X42940Y11442D02*
G01X42872Y11420D01*
G01X42986Y11510D02*
G01X42940Y11442D01*
G01X43009Y11624D02*
G01X42986Y11510D01*
G01X43009Y11692D02*
G01X43009Y11624D01*
G01X42986Y11806D02*
G01X43009Y11692D01*
G01X42940Y11874D02*
G01X42986Y11806D01*
G01X42872Y11897D02*
G01X42940Y11874D01*
G01X42827Y11897D02*
G01X42872Y11897D01*
G01X43236Y11829D02*
G01X43190Y11806D01*
G01X43304Y11897D02*
G01X43236Y11829D01*
G01X43304Y11897D02*
G01X43304Y11420D01*
G01X43736Y11874D02*
G01X43759Y11829D01*
G01X43668Y11897D02*
G01X43736Y11874D01*
G01X43622Y11897D02*
G01X43668Y11897D01*
G01X43622Y11897D02*
G01X43554Y11874D01*
G01X43554Y11874D02*
G01X43509Y11806D01*
G01X43509Y11806D02*
G01X43486Y11692D01*
G01X43486Y11692D02*
G01X43486Y11579D01*
G01X43486Y11579D02*
G01X43509Y11488D01*
G01X43509Y11488D02*
G01X43554Y11442D01*
G01X43554Y11442D02*
G01X43622Y11420D01*
G01X43645Y11420D02*
G01X43622Y11420D01*
G01X43713Y11442D02*
G01X43645Y11420D01*
G01X43759Y11488D02*
G01X43713Y11442D01*
G01X43781Y11556D02*
G01X43759Y11488D01*
G01X43781Y11579D02*
G01X43781Y11556D01*
G01X43759Y11647D02*
G01X43781Y11579D01*
G01X43713Y11692D02*
G01X43759Y11647D01*
G01X43645Y11715D02*
G01X43713Y11692D01*
G01X43622Y11715D02*
G01X43645Y11715D01*
G01X43622Y11715D02*
G01X43554Y11692D01*
G01X43554Y11692D02*
G01X43509Y11647D01*
G01X43509Y11647D02*
G01X43486Y11579D01*
G01X44372Y11420D02*
G01X43963Y11420D01*
G01X44599Y11829D02*
G01X44554Y11806D01*
G01X44668Y11897D02*
G01X44599Y11829D01*
G01X44668Y11897D02*
G01X44668Y11420D01*
G01X44895Y11829D02*
G01X44849Y11806D01*
G01X44963Y11897D02*
G01X44895Y11829D01*
G01X44963Y11897D02*
G01X44963Y11420D01*
G04 Draw part IC_CD4007_12*
G04 draw part outline for part IC_CD4007_12*
G01X12350Y34920D02*
G01X12350Y27920D01*
G01X12350Y27920D02*
G01X14350Y27920D01*
G01X14350Y27920D02*
G01X14350Y34920D01*
G01X14350Y34920D02*
G01X12350Y34920D01*
G01X12850Y34920D02*
G01X12850Y34420D01*
G01X12850Y34420D02*
G01X13850Y34420D01*
G01X13850Y34420D02*
G01X13850Y34920D01*
G01X13850Y34920D02*
G01X12850Y34920D01*
G04 draw reference designator for part IC_CD4007_12*
G01X11350Y36397D02*
G01X11350Y35920D01*
G01X11850Y36329D02*
G01X11872Y36283D01*
G01X11804Y36374D02*
G01X11850Y36329D01*
G01X11759Y36397D02*
G01X11804Y36374D01*
G01X11668Y36397D02*
G01X11759Y36397D01*
G01X11668Y36397D02*
G01X11622Y36374D01*
G01X11622Y36374D02*
G01X11577Y36329D01*
G01X11577Y36329D02*
G01X11554Y36283D01*
G01X11554Y36283D02*
G01X11531Y36215D01*
G01X11531Y36215D02*
G01X11531Y36101D01*
G01X11531Y36101D02*
G01X11554Y36033D01*
G01X11554Y36033D02*
G01X11577Y35988D01*
G01X11577Y35988D02*
G01X11622Y35942D01*
G01X11622Y35942D02*
G01X11668Y35920D01*
G01X11759Y35920D02*
G01X11668Y35920D01*
G01X11804Y35942D02*
G01X11759Y35920D01*
G01X11850Y35988D02*
G01X11804Y35942D01*
G01X11872Y36033D02*
G01X11850Y35988D01*
G01X12463Y35920D02*
G01X12054Y35920D01*
G01X12963Y36329D02*
G01X12986Y36283D01*
G01X12918Y36374D02*
G01X12963Y36329D01*
G01X12872Y36397D02*
G01X12918Y36374D01*
G01X12781Y36397D02*
G01X12872Y36397D01*
G01X12781Y36397D02*
G01X12736Y36374D01*
G01X12736Y36374D02*
G01X12690Y36329D01*
G01X12690Y36329D02*
G01X12668Y36283D01*
G01X12668Y36283D02*
G01X12645Y36215D01*
G01X12645Y36215D02*
G01X12645Y36101D01*
G01X12645Y36101D02*
G01X12668Y36033D01*
G01X12668Y36033D02*
G01X12690Y35988D01*
G01X12690Y35988D02*
G01X12736Y35942D01*
G01X12736Y35942D02*
G01X12781Y35920D01*
G01X12872Y35920D02*
G01X12781Y35920D01*
G01X12918Y35942D02*
G01X12872Y35920D01*
G01X12963Y35988D02*
G01X12918Y35942D01*
G01X12986Y36033D02*
G01X12963Y35988D01*
G01X13168Y36397D02*
G01X13168Y35920D01*
G01X13327Y36397D02*
G01X13168Y36397D01*
G01X13327Y36397D02*
G01X13395Y36374D01*
G01X13395Y36374D02*
G01X13440Y36329D01*
G01X13440Y36329D02*
G01X13463Y36283D01*
G01X13463Y36283D02*
G01X13486Y36215D01*
G01X13486Y36215D02*
G01X13486Y36101D01*
G01X13486Y36101D02*
G01X13463Y36033D01*
G01X13463Y36033D02*
G01X13440Y35988D01*
G01X13440Y35988D02*
G01X13395Y35942D01*
G01X13395Y35942D02*
G01X13327Y35920D01*
G01X13168Y35920D02*
G01X13327Y35920D01*
G01X13895Y36397D02*
G01X13668Y36079D01*
G01X14009Y36079D02*
G01X13668Y36079D01*
G01X13895Y36397D02*
G01X13895Y35920D01*
G01X14327Y36397D02*
G01X14259Y36374D01*
G01X14259Y36374D02*
G01X14213Y36306D01*
G01X14213Y36306D02*
G01X14190Y36192D01*
G01X14190Y36192D02*
G01X14190Y36124D01*
G01X14190Y36124D02*
G01X14213Y36010D01*
G01X14213Y36010D02*
G01X14259Y35942D01*
G01X14259Y35942D02*
G01X14327Y35920D01*
G01X14372Y35920D02*
G01X14327Y35920D01*
G01X14440Y35942D02*
G01X14372Y35920D01*
G01X14486Y36010D02*
G01X14440Y35942D01*
G01X14509Y36124D02*
G01X14486Y36010D01*
G01X14509Y36192D02*
G01X14509Y36124D01*
G01X14486Y36306D02*
G01X14509Y36192D01*
G01X14440Y36374D02*
G01X14486Y36306D01*
G01X14372Y36397D02*
G01X14440Y36374D01*
G01X14327Y36397D02*
G01X14372Y36397D01*
G01X14827Y36397D02*
G01X14759Y36374D01*
G01X14759Y36374D02*
G01X14713Y36306D01*
G01X14713Y36306D02*
G01X14690Y36192D01*
G01X14690Y36192D02*
G01X14690Y36124D01*
G01X14690Y36124D02*
G01X14713Y36010D01*
G01X14713Y36010D02*
G01X14759Y35942D01*
G01X14759Y35942D02*
G01X14827Y35920D01*
G01X14872Y35920D02*
G01X14827Y35920D01*
G01X14940Y35942D02*
G01X14872Y35920D01*
G01X14986Y36010D02*
G01X14940Y35942D01*
G01X15009Y36124D02*
G01X14986Y36010D01*
G01X15009Y36192D02*
G01X15009Y36124D01*
G01X14986Y36306D02*
G01X15009Y36192D01*
G01X14940Y36374D02*
G01X14986Y36306D01*
G01X14872Y36397D02*
G01X14940Y36374D01*
G01X14827Y36397D02*
G01X14872Y36397D01*
G01X15509Y36397D02*
G01X15281Y35920D01*
G01X15509Y36397D02*
G01X15190Y36397D01*
G01X16099Y35920D02*
G01X15690Y35920D01*
G01X16327Y36329D02*
G01X16281Y36306D01*
G01X16395Y36397D02*
G01X16327Y36329D01*
G01X16395Y36397D02*
G01X16395Y35920D01*
G01X16599Y36306D02*
G01X16599Y36283D01*
G01X16622Y36351D02*
G01X16599Y36306D01*
G01X16645Y36374D02*
G01X16622Y36351D01*
G01X16690Y36397D02*
G01X16645Y36374D01*
G01X16781Y36397D02*
G01X16690Y36397D01*
G01X16781Y36397D02*
G01X16827Y36374D01*
G01X16827Y36374D02*
G01X16849Y36351D01*
G01X16849Y36351D02*
G01X16872Y36306D01*
G01X16872Y36306D02*
G01X16872Y36260D01*
G01X16872Y36260D02*
G01X16849Y36215D01*
G01X16849Y36215D02*
G01X16804Y36147D01*
G01X16804Y36147D02*
G01X16577Y35920D01*
G01X16895Y35920D02*
G01X16577Y35920D01*
G04 Draw part IC_CD4007_13*
G04 draw part outline for part IC_CD4007_13*
G01X22350Y34920D02*
G01X22350Y27920D01*
G01X22350Y27920D02*
G01X24350Y27920D01*
G01X24350Y27920D02*
G01X24350Y34920D01*
G01X24350Y34920D02*
G01X22350Y34920D01*
G01X22850Y34920D02*
G01X22850Y34420D01*
G01X22850Y34420D02*
G01X23850Y34420D01*
G01X23850Y34420D02*
G01X23850Y34920D01*
G01X23850Y34920D02*
G01X22850Y34920D01*
G04 draw reference designator for part IC_CD4007_13*
G01X21350Y36397D02*
G01X21350Y35920D01*
G01X21850Y36329D02*
G01X21872Y36283D01*
G01X21804Y36374D02*
G01X21850Y36329D01*
G01X21759Y36397D02*
G01X21804Y36374D01*
G01X21668Y36397D02*
G01X21759Y36397D01*
G01X21668Y36397D02*
G01X21622Y36374D01*
G01X21622Y36374D02*
G01X21577Y36329D01*
G01X21577Y36329D02*
G01X21554Y36283D01*
G01X21554Y36283D02*
G01X21531Y36215D01*
G01X21531Y36215D02*
G01X21531Y36101D01*
G01X21531Y36101D02*
G01X21554Y36033D01*
G01X21554Y36033D02*
G01X21577Y35988D01*
G01X21577Y35988D02*
G01X21622Y35942D01*
G01X21622Y35942D02*
G01X21668Y35920D01*
G01X21759Y35920D02*
G01X21668Y35920D01*
G01X21804Y35942D02*
G01X21759Y35920D01*
G01X21850Y35988D02*
G01X21804Y35942D01*
G01X21872Y36033D02*
G01X21850Y35988D01*
G01X22463Y35920D02*
G01X22054Y35920D01*
G01X22963Y36329D02*
G01X22986Y36283D01*
G01X22918Y36374D02*
G01X22963Y36329D01*
G01X22872Y36397D02*
G01X22918Y36374D01*
G01X22781Y36397D02*
G01X22872Y36397D01*
G01X22781Y36397D02*
G01X22736Y36374D01*
G01X22736Y36374D02*
G01X22690Y36329D01*
G01X22690Y36329D02*
G01X22668Y36283D01*
G01X22668Y36283D02*
G01X22645Y36215D01*
G01X22645Y36215D02*
G01X22645Y36101D01*
G01X22645Y36101D02*
G01X22668Y36033D01*
G01X22668Y36033D02*
G01X22690Y35988D01*
G01X22690Y35988D02*
G01X22736Y35942D01*
G01X22736Y35942D02*
G01X22781Y35920D01*
G01X22872Y35920D02*
G01X22781Y35920D01*
G01X22918Y35942D02*
G01X22872Y35920D01*
G01X22963Y35988D02*
G01X22918Y35942D01*
G01X22986Y36033D02*
G01X22963Y35988D01*
G01X23168Y36397D02*
G01X23168Y35920D01*
G01X23327Y36397D02*
G01X23168Y36397D01*
G01X23327Y36397D02*
G01X23395Y36374D01*
G01X23395Y36374D02*
G01X23440Y36329D01*
G01X23440Y36329D02*
G01X23463Y36283D01*
G01X23463Y36283D02*
G01X23486Y36215D01*
G01X23486Y36215D02*
G01X23486Y36101D01*
G01X23486Y36101D02*
G01X23463Y36033D01*
G01X23463Y36033D02*
G01X23440Y35988D01*
G01X23440Y35988D02*
G01X23395Y35942D01*
G01X23395Y35942D02*
G01X23327Y35920D01*
G01X23168Y35920D02*
G01X23327Y35920D01*
G01X23895Y36397D02*
G01X23668Y36079D01*
G01X24009Y36079D02*
G01X23668Y36079D01*
G01X23895Y36397D02*
G01X23895Y35920D01*
G01X24327Y36397D02*
G01X24259Y36374D01*
G01X24259Y36374D02*
G01X24213Y36306D01*
G01X24213Y36306D02*
G01X24190Y36192D01*
G01X24190Y36192D02*
G01X24190Y36124D01*
G01X24190Y36124D02*
G01X24213Y36010D01*
G01X24213Y36010D02*
G01X24259Y35942D01*
G01X24259Y35942D02*
G01X24327Y35920D01*
G01X24372Y35920D02*
G01X24327Y35920D01*
G01X24440Y35942D02*
G01X24372Y35920D01*
G01X24486Y36010D02*
G01X24440Y35942D01*
G01X24509Y36124D02*
G01X24486Y36010D01*
G01X24509Y36192D02*
G01X24509Y36124D01*
G01X24486Y36306D02*
G01X24509Y36192D01*
G01X24440Y36374D02*
G01X24486Y36306D01*
G01X24372Y36397D02*
G01X24440Y36374D01*
G01X24327Y36397D02*
G01X24372Y36397D01*
G01X24827Y36397D02*
G01X24759Y36374D01*
G01X24759Y36374D02*
G01X24713Y36306D01*
G01X24713Y36306D02*
G01X24690Y36192D01*
G01X24690Y36192D02*
G01X24690Y36124D01*
G01X24690Y36124D02*
G01X24713Y36010D01*
G01X24713Y36010D02*
G01X24759Y35942D01*
G01X24759Y35942D02*
G01X24827Y35920D01*
G01X24872Y35920D02*
G01X24827Y35920D01*
G01X24940Y35942D02*
G01X24872Y35920D01*
G01X24986Y36010D02*
G01X24940Y35942D01*
G01X25009Y36124D02*
G01X24986Y36010D01*
G01X25009Y36192D02*
G01X25009Y36124D01*
G01X24986Y36306D02*
G01X25009Y36192D01*
G01X24940Y36374D02*
G01X24986Y36306D01*
G01X24872Y36397D02*
G01X24940Y36374D01*
G01X24827Y36397D02*
G01X24872Y36397D01*
G01X25509Y36397D02*
G01X25281Y35920D01*
G01X25509Y36397D02*
G01X25190Y36397D01*
G01X26099Y35920D02*
G01X25690Y35920D01*
G01X26327Y36329D02*
G01X26281Y36306D01*
G01X26395Y36397D02*
G01X26327Y36329D01*
G01X26395Y36397D02*
G01X26395Y35920D01*
G01X26872Y36397D02*
G01X26622Y36397D01*
G01X26872Y36397D02*
G01X26736Y36215D01*
G01X26804Y36215D02*
G01X26736Y36215D01*
G01X26804Y36215D02*
G01X26849Y36192D01*
G01X26849Y36192D02*
G01X26872Y36170D01*
G01X26872Y36170D02*
G01X26895Y36101D01*
G01X26895Y36101D02*
G01X26895Y36056D01*
G01X26895Y36056D02*
G01X26872Y35988D01*
G01X26872Y35988D02*
G01X26827Y35942D01*
G01X26827Y35942D02*
G01X26759Y35920D01*
G01X26690Y35920D02*
G01X26759Y35920D01*
G01X26622Y35942D02*
G01X26690Y35920D01*
G01X26599Y35965D02*
G01X26622Y35942D01*
G01X26577Y36010D02*
G01X26599Y35965D01*
G04 Draw part IC_CD4007_15*
G04 draw part outline for part IC_CD4007_15*
G01X42350Y34920D02*
G01X42350Y27920D01*
G01X42350Y27920D02*
G01X44350Y27920D01*
G01X44350Y27920D02*
G01X44350Y34920D01*
G01X44350Y34920D02*
G01X42350Y34920D01*
G01X42850Y34920D02*
G01X42850Y34420D01*
G01X42850Y34420D02*
G01X43850Y34420D01*
G01X43850Y34420D02*
G01X43850Y34920D01*
G01X43850Y34920D02*
G01X42850Y34920D01*
G04 draw reference designator for part IC_CD4007_15*
G01X39350Y36397D02*
G01X39350Y35920D01*
G01X39850Y36329D02*
G01X39872Y36283D01*
G01X39804Y36374D02*
G01X39850Y36329D01*
G01X39759Y36397D02*
G01X39804Y36374D01*
G01X39668Y36397D02*
G01X39759Y36397D01*
G01X39668Y36397D02*
G01X39622Y36374D01*
G01X39622Y36374D02*
G01X39577Y36329D01*
G01X39577Y36329D02*
G01X39554Y36283D01*
G01X39554Y36283D02*
G01X39531Y36215D01*
G01X39531Y36215D02*
G01X39531Y36101D01*
G01X39531Y36101D02*
G01X39554Y36033D01*
G01X39554Y36033D02*
G01X39577Y35988D01*
G01X39577Y35988D02*
G01X39622Y35942D01*
G01X39622Y35942D02*
G01X39668Y35920D01*
G01X39759Y35920D02*
G01X39668Y35920D01*
G01X39804Y35942D02*
G01X39759Y35920D01*
G01X39850Y35988D02*
G01X39804Y35942D01*
G01X39872Y36033D02*
G01X39850Y35988D01*
G01X40463Y35920D02*
G01X40054Y35920D01*
G01X40963Y36329D02*
G01X40986Y36283D01*
G01X40918Y36374D02*
G01X40963Y36329D01*
G01X40872Y36397D02*
G01X40918Y36374D01*
G01X40781Y36397D02*
G01X40872Y36397D01*
G01X40781Y36397D02*
G01X40736Y36374D01*
G01X40736Y36374D02*
G01X40690Y36329D01*
G01X40690Y36329D02*
G01X40668Y36283D01*
G01X40668Y36283D02*
G01X40645Y36215D01*
G01X40645Y36215D02*
G01X40645Y36101D01*
G01X40645Y36101D02*
G01X40668Y36033D01*
G01X40668Y36033D02*
G01X40690Y35988D01*
G01X40690Y35988D02*
G01X40736Y35942D01*
G01X40736Y35942D02*
G01X40781Y35920D01*
G01X40872Y35920D02*
G01X40781Y35920D01*
G01X40918Y35942D02*
G01X40872Y35920D01*
G01X40963Y35988D02*
G01X40918Y35942D01*
G01X40986Y36033D02*
G01X40963Y35988D01*
G01X41168Y36397D02*
G01X41168Y35920D01*
G01X41327Y36397D02*
G01X41168Y36397D01*
G01X41327Y36397D02*
G01X41395Y36374D01*
G01X41395Y36374D02*
G01X41440Y36329D01*
G01X41440Y36329D02*
G01X41463Y36283D01*
G01X41463Y36283D02*
G01X41486Y36215D01*
G01X41486Y36215D02*
G01X41486Y36101D01*
G01X41486Y36101D02*
G01X41463Y36033D01*
G01X41463Y36033D02*
G01X41440Y35988D01*
G01X41440Y35988D02*
G01X41395Y35942D01*
G01X41395Y35942D02*
G01X41327Y35920D01*
G01X41168Y35920D02*
G01X41327Y35920D01*
G01X41895Y36397D02*
G01X41668Y36079D01*
G01X42009Y36079D02*
G01X41668Y36079D01*
G01X41895Y36397D02*
G01X41895Y35920D01*
G01X42327Y36397D02*
G01X42259Y36374D01*
G01X42259Y36374D02*
G01X42213Y36306D01*
G01X42213Y36306D02*
G01X42190Y36192D01*
G01X42190Y36192D02*
G01X42190Y36124D01*
G01X42190Y36124D02*
G01X42213Y36010D01*
G01X42213Y36010D02*
G01X42259Y35942D01*
G01X42259Y35942D02*
G01X42327Y35920D01*
G01X42372Y35920D02*
G01X42327Y35920D01*
G01X42440Y35942D02*
G01X42372Y35920D01*
G01X42486Y36010D02*
G01X42440Y35942D01*
G01X42509Y36124D02*
G01X42486Y36010D01*
G01X42509Y36192D02*
G01X42509Y36124D01*
G01X42486Y36306D02*
G01X42509Y36192D01*
G01X42440Y36374D02*
G01X42486Y36306D01*
G01X42372Y36397D02*
G01X42440Y36374D01*
G01X42327Y36397D02*
G01X42372Y36397D01*
G01X42827Y36397D02*
G01X42759Y36374D01*
G01X42759Y36374D02*
G01X42713Y36306D01*
G01X42713Y36306D02*
G01X42690Y36192D01*
G01X42690Y36192D02*
G01X42690Y36124D01*
G01X42690Y36124D02*
G01X42713Y36010D01*
G01X42713Y36010D02*
G01X42759Y35942D01*
G01X42759Y35942D02*
G01X42827Y35920D01*
G01X42872Y35920D02*
G01X42827Y35920D01*
G01X42940Y35942D02*
G01X42872Y35920D01*
G01X42986Y36010D02*
G01X42940Y35942D01*
G01X43009Y36124D02*
G01X42986Y36010D01*
G01X43009Y36192D02*
G01X43009Y36124D01*
G01X42986Y36306D02*
G01X43009Y36192D01*
G01X42940Y36374D02*
G01X42986Y36306D01*
G01X42872Y36397D02*
G01X42940Y36374D01*
G01X42827Y36397D02*
G01X42872Y36397D01*
G01X43509Y36397D02*
G01X43281Y35920D01*
G01X43509Y36397D02*
G01X43190Y36397D01*
G01X44099Y35920D02*
G01X43690Y35920D01*
G01X44327Y36329D02*
G01X44281Y36306D01*
G01X44395Y36397D02*
G01X44327Y36329D01*
G01X44395Y36397D02*
G01X44395Y35920D01*
G01X44622Y36397D02*
G01X44849Y36397D01*
G01X44622Y36397D02*
G01X44599Y36192D01*
G01X44622Y36215D02*
G01X44599Y36192D01*
G01X44690Y36238D02*
G01X44622Y36215D01*
G01X44759Y36238D02*
G01X44690Y36238D01*
G01X44759Y36238D02*
G01X44827Y36215D01*
G01X44827Y36215D02*
G01X44872Y36170D01*
G01X44872Y36170D02*
G01X44895Y36101D01*
G01X44895Y36101D02*
G01X44895Y36056D01*
G01X44895Y36056D02*
G01X44872Y35988D01*
G01X44872Y35988D02*
G01X44827Y35942D01*
G01X44827Y35942D02*
G01X44759Y35920D01*
G01X44690Y35920D02*
G01X44759Y35920D01*
G01X44622Y35942D02*
G01X44690Y35920D01*
G01X44599Y35965D02*
G01X44622Y35942D01*
G01X44577Y36010D02*
G01X44599Y35965D01*
G04 Draw part SD*
G04 draw part outline for part SD*
G04 draw reference designator for part SD*
G01X27772Y5054D02*
G01X27818Y5009D01*
G01X27704Y5077D02*
G01X27772Y5054D01*
G01X27613Y5077D02*
G01X27704Y5077D01*
G01X27613Y5077D02*
G01X27545Y5054D01*
G01X27545Y5054D02*
G01X27500Y5009D01*
G01X27500Y5009D02*
G01X27500Y4963D01*
G01X27500Y4963D02*
G01X27522Y4918D01*
G01X27522Y4918D02*
G01X27545Y4895D01*
G01X27545Y4895D02*
G01X27590Y4872D01*
G01X27590Y4872D02*
G01X27727Y4827D01*
G01X27727Y4827D02*
G01X27772Y4804D01*
G01X27772Y4804D02*
G01X27795Y4781D01*
G01X27795Y4781D02*
G01X27818Y4736D01*
G01X27818Y4736D02*
G01X27818Y4668D01*
G01X27818Y4668D02*
G01X27772Y4622D01*
G01X27772Y4622D02*
G01X27704Y4600D01*
G01X27613Y4600D02*
G01X27704Y4600D01*
G01X27545Y4622D02*
G01X27613Y4600D01*
G01X27500Y4668D02*
G01X27545Y4622D01*
G01X28000Y5077D02*
G01X28000Y4600D01*
G01X28159Y5077D02*
G01X28000Y5077D01*
G01X28159Y5077D02*
G01X28227Y5054D01*
G01X28227Y5054D02*
G01X28272Y5009D01*
G01X28272Y5009D02*
G01X28295Y4963D01*
G01X28295Y4963D02*
G01X28318Y4895D01*
G01X28318Y4895D02*
G01X28318Y4781D01*
G01X28318Y4781D02*
G01X28295Y4713D01*
G01X28295Y4713D02*
G01X28272Y4668D01*
G01X28272Y4668D02*
G01X28227Y4622D01*
G01X28227Y4622D02*
G01X28159Y4600D01*
G01X28000Y4600D02*
G01X28159Y4600D01*
G04 Draw part R1*
G04 draw part outline for part R1*
G01X32090Y34490D02*
G01X34910Y34490D01*
G01X34910Y34490D02*
G01X34910Y33510D01*
G01X34910Y33510D02*
G01X32090Y33510D01*
G01X32090Y33510D02*
G01X32090Y34490D01*
G04 draw reference designator for part R1*
G01X33500Y35467D02*
G01X33500Y34990D01*
G01X33704Y35467D02*
G01X33500Y35467D01*
G01X33704Y35467D02*
G01X33772Y35444D01*
G01X33772Y35444D02*
G01X33795Y35421D01*
G01X33795Y35421D02*
G01X33818Y35376D01*
G01X33818Y35376D02*
G01X33818Y35330D01*
G01X33818Y35330D02*
G01X33795Y35285D01*
G01X33795Y35285D02*
G01X33772Y35262D01*
G01X33772Y35262D02*
G01X33704Y35240D01*
G01X33500Y35240D02*
G01X33704Y35240D01*
G01X33659Y35240D02*
G01X33818Y34990D01*
G01X34045Y35399D02*
G01X34000Y35376D01*
G01X34113Y35467D02*
G01X34045Y35399D01*
G01X34113Y35467D02*
G01X34113Y34990D01*
G04 Draw part R2*
G04 draw part outline for part R2*
G01X32090Y31490D02*
G01X34910Y31490D01*
G01X34910Y31490D02*
G01X34910Y30510D01*
G01X34910Y30510D02*
G01X32090Y30510D01*
G01X32090Y30510D02*
G01X32090Y31490D01*
G04 draw reference designator for part R2*
G01X33500Y32467D02*
G01X33500Y31990D01*
G01X33704Y32467D02*
G01X33500Y32467D01*
G01X33704Y32467D02*
G01X33772Y32444D01*
G01X33772Y32444D02*
G01X33795Y32421D01*
G01X33795Y32421D02*
G01X33818Y32376D01*
G01X33818Y32376D02*
G01X33818Y32330D01*
G01X33818Y32330D02*
G01X33795Y32285D01*
G01X33795Y32285D02*
G01X33772Y32262D01*
G01X33772Y32262D02*
G01X33704Y32240D01*
G01X33500Y32240D02*
G01X33704Y32240D01*
G01X33659Y32240D02*
G01X33818Y31990D01*
G01X34022Y32376D02*
G01X34022Y32353D01*
G01X34045Y32421D02*
G01X34022Y32376D01*
G01X34068Y32444D02*
G01X34045Y32421D01*
G01X34113Y32467D02*
G01X34068Y32444D01*
G01X34204Y32467D02*
G01X34113Y32467D01*
G01X34204Y32467D02*
G01X34250Y32444D01*
G01X34250Y32444D02*
G01X34272Y32421D01*
G01X34272Y32421D02*
G01X34295Y32376D01*
G01X34295Y32376D02*
G01X34295Y32330D01*
G01X34295Y32330D02*
G01X34272Y32285D01*
G01X34272Y32285D02*
G01X34227Y32217D01*
G01X34227Y32217D02*
G01X34000Y31990D01*
G01X34318Y31990D02*
G01X34000Y31990D01*
G04 Draw part R3*
G04 draw part outline for part R3*
G01X32090Y28490D02*
G01X34910Y28490D01*
G01X34910Y28490D02*
G01X34910Y27510D01*
G01X34910Y27510D02*
G01X32090Y27510D01*
G01X32090Y27510D02*
G01X32090Y28490D01*
G04 draw reference designator for part R3*
G01X33500Y29467D02*
G01X33500Y28990D01*
G01X33704Y29467D02*
G01X33500Y29467D01*
G01X33704Y29467D02*
G01X33772Y29444D01*
G01X33772Y29444D02*
G01X33795Y29421D01*
G01X33795Y29421D02*
G01X33818Y29376D01*
G01X33818Y29376D02*
G01X33818Y29330D01*
G01X33818Y29330D02*
G01X33795Y29285D01*
G01X33795Y29285D02*
G01X33772Y29262D01*
G01X33772Y29262D02*
G01X33704Y29240D01*
G01X33500Y29240D02*
G01X33704Y29240D01*
G01X33659Y29240D02*
G01X33818Y28990D01*
G01X34295Y29467D02*
G01X34045Y29467D01*
G01X34295Y29467D02*
G01X34159Y29285D01*
G01X34227Y29285D02*
G01X34159Y29285D01*
G01X34227Y29285D02*
G01X34272Y29262D01*
G01X34272Y29262D02*
G01X34295Y29240D01*
G01X34295Y29240D02*
G01X34318Y29171D01*
G01X34318Y29171D02*
G01X34318Y29126D01*
G01X34318Y29126D02*
G01X34295Y29058D01*
G01X34295Y29058D02*
G01X34250Y29012D01*
G01X34250Y29012D02*
G01X34181Y28990D01*
G01X34113Y28990D02*
G01X34181Y28990D01*
G01X34045Y29012D02*
G01X34113Y28990D01*
G01X34022Y29035D02*
G01X34045Y29012D01*
G01X34000Y29080D02*
G01X34022Y29035D01*

G04 Draw traces*

G04 Draw Text*
G54D10*
G01X26504Y909D02*
G01X26504Y500D01*
G01X26300Y704D02*
G01X26709Y704D01*
G01X27390Y977D02*
G01X27322Y954D01*
G01X27322Y954D02*
G01X27277Y886D01*
G01X27277Y886D02*
G01X27254Y772D01*
G01X27254Y772D02*
G01X27254Y704D01*
G01X27254Y704D02*
G01X27277Y590D01*
G01X27277Y590D02*
G01X27322Y522D01*
G01X27322Y522D02*
G01X27390Y500D01*
G01X27390Y500D02*
G01X27436Y500D01*
G01X27436Y500D02*
G01X27504Y522D01*
G01X27504Y522D02*
G01X27549Y590D01*
G01X27549Y590D02*
G01X27572Y704D01*
G01X27572Y704D02*
G01X27572Y772D01*
G01X27572Y772D02*
G01X27549Y886D01*
G01X27549Y886D02*
G01X27504Y954D01*
G01X27504Y954D02*
G01X27436Y977D01*
G01X27436Y977D02*
G01X27390Y977D01*
G01X28118Y704D02*
G01X28527Y704D01*
G01X29390Y909D02*
G01X29345Y954D01*
G01X29345Y954D02*
G01X29277Y977D01*
G01X29277Y977D02*
G01X29186Y977D01*
G01X29186Y977D02*
G01X29118Y954D01*
G01X29118Y954D02*
G01X29072Y909D01*
G01X29072Y909D02*
G01X29072Y863D01*
G01X29072Y863D02*
G01X29095Y818D01*
G01X29095Y818D02*
G01X29118Y795D01*
G01X29118Y795D02*
G01X29163Y772D01*
G01X29163Y772D02*
G01X29299Y727D01*
G01X29299Y727D02*
G01X29345Y704D01*
G01X29345Y704D02*
G01X29368Y681D01*
G01X29368Y681D02*
G01X29390Y636D01*
G01X29390Y636D02*
G01X29390Y568D01*
G01X29390Y568D02*
G01X29345Y522D01*
G01X29345Y522D02*
G01X29277Y500D01*
G01X29277Y500D02*
G01X29186Y500D01*
G01X29186Y500D02*
G01X29118Y522D01*
G01X29118Y522D02*
G01X29072Y568D01*
G01X29572Y977D02*
G01X29572Y500D01*
G01X30095Y863D02*
G01X30072Y909D01*
G01X30072Y909D02*
G01X30027Y954D01*
G01X30027Y954D02*
G01X29981Y977D01*
G01X29981Y977D02*
G01X29890Y977D01*
G01X29890Y977D02*
G01X29845Y954D01*
G01X29845Y954D02*
G01X29799Y909D01*
G01X29799Y909D02*
G01X29777Y863D01*
G01X29777Y863D02*
G01X29754Y795D01*
G01X29754Y795D02*
G01X29754Y681D01*
G01X29754Y681D02*
G01X29777Y613D01*
G01X29777Y613D02*
G01X29799Y568D01*
G01X29799Y568D02*
G01X29845Y522D01*
G01X29845Y522D02*
G01X29890Y500D01*
G01X29890Y500D02*
G01X29981Y500D01*
G01X29981Y500D02*
G01X30027Y522D01*
G01X30027Y522D02*
G01X30072Y568D01*
G01X30072Y568D02*
G01X30095Y613D01*
G01X30095Y613D02*
G01X30095Y681D01*
G01X29981Y681D02*
G01X30095Y681D01*
G01X30277Y977D02*
G01X30277Y500D01*
G01X30277Y977D02*
G01X30595Y500D01*
G01X30595Y977D02*
G01X30595Y500D01*
G01X26200Y3477D02*
G01X26200Y3000D01*
G01X26427Y3477D02*
G01X26677Y3477D01*
G01X26677Y3477D02*
G01X26540Y3295D01*
G01X26540Y3295D02*
G01X26609Y3295D01*
G01X26609Y3295D02*
G01X26654Y3272D01*
G01X26654Y3272D02*
G01X26677Y3250D01*
G01X26677Y3250D02*
G01X26699Y3181D01*
G01X26699Y3181D02*
G01X26699Y3136D01*
G01X26699Y3136D02*
G01X26677Y3068D01*
G01X26677Y3068D02*
G01X26631Y3022D01*
G01X26631Y3022D02*
G01X26563Y3000D01*
G01X26563Y3000D02*
G01X26495Y3000D01*
G01X26495Y3000D02*
G01X26427Y3022D01*
G01X26427Y3022D02*
G01X26404Y3045D01*
G01X26404Y3045D02*
G01X26381Y3090D01*
G01X27245Y3477D02*
G01X27245Y3000D01*
G01X27449Y3363D02*
G01X27449Y3386D01*
G01X27449Y3386D02*
G01X27472Y3431D01*
G01X27472Y3431D02*
G01X27495Y3454D01*
G01X27495Y3454D02*
G01X27540Y3477D01*
G01X27540Y3477D02*
G01X27631Y3477D01*
G01X27631Y3477D02*
G01X27677Y3454D01*
G01X27677Y3454D02*
G01X27699Y3431D01*
G01X27699Y3431D02*
G01X27722Y3386D01*
G01X27722Y3386D02*
G01X27722Y3340D01*
G01X27722Y3340D02*
G01X27699Y3295D01*
G01X27699Y3295D02*
G01X27654Y3227D01*
G01X27654Y3227D02*
G01X27427Y3000D01*
G01X27427Y3000D02*
G01X27745Y3000D01*
G01X28290Y3477D02*
G01X28290Y3000D01*
G01X28472Y3386D02*
G01X28518Y3409D01*
G01X28518Y3409D02*
G01X28586Y3477D01*
G01X28586Y3477D02*
G01X28586Y3000D01*
G01X29131Y3477D02*
G01X29131Y3000D01*
G01X29449Y3477D02*
G01X29381Y3454D01*
G01X29381Y3454D02*
G01X29336Y3386D01*
G01X29336Y3386D02*
G01X29313Y3272D01*
G01X29313Y3272D02*
G01X29313Y3204D01*
G01X29313Y3204D02*
G01X29336Y3090D01*
G01X29336Y3090D02*
G01X29381Y3022D01*
G01X29381Y3022D02*
G01X29449Y3000D01*
G01X29449Y3000D02*
G01X29495Y3000D01*
G01X29495Y3000D02*
G01X29563Y3022D01*
G01X29563Y3022D02*
G01X29609Y3090D01*
G01X29609Y3090D02*
G01X29631Y3204D01*
G01X29631Y3204D02*
G01X29631Y3272D01*
G01X29631Y3272D02*
G01X29609Y3386D01*
G01X29609Y3386D02*
G01X29563Y3454D01*
G01X29563Y3454D02*
G01X29495Y3477D01*
G01X29495Y3477D02*
G01X29449Y3477D01*
G01X2954Y1454D02*
G01X2500Y818D01*
G01X2500Y818D02*
G01X3181Y818D01*
G01X2954Y1454D02*
G01X2954Y500D01*
G01X3545Y909D02*
G01X4363Y909D01*
G01X5045Y1454D02*
G01X5045Y500D01*
G01X4727Y1454D02*
G01X5363Y1454D01*
G01X5727Y1454D02*
G01X5727Y500D01*
G01X5727Y1454D02*
G01X6136Y1454D01*
G01X6136Y1454D02*
G01X6272Y1409D01*
G01X6272Y1409D02*
G01X6318Y1363D01*
G01X6318Y1363D02*
G01X6363Y1272D01*
G01X6363Y1272D02*
G01X6363Y1181D01*
G01X6363Y1181D02*
G01X6318Y1090D01*
G01X6318Y1090D02*
G01X6272Y1045D01*
G01X6272Y1045D02*
G01X6136Y1000D01*
G01X6136Y1000D02*
G01X5727Y1000D01*
G01X6045Y1000D02*
G01X6363Y500D01*
G01X6727Y1454D02*
G01X6727Y500D01*
G01X7409Y1454D02*
G01X7409Y500D01*
G01X7090Y1454D02*
G01X7727Y1454D01*
G01X9454Y1318D02*
G01X9363Y1409D01*
G01X9363Y1409D02*
G01X9227Y1454D01*
G01X9227Y1454D02*
G01X9045Y1454D01*
G01X9045Y1454D02*
G01X8909Y1409D01*
G01X8909Y1409D02*
G01X8818Y1318D01*
G01X8818Y1318D02*
G01X8818Y1227D01*
G01X8818Y1227D02*
G01X8863Y1136D01*
G01X8863Y1136D02*
G01X8909Y1090D01*
G01X8909Y1090D02*
G01X8999Y1045D01*
G01X8999Y1045D02*
G01X9272Y954D01*
G01X9272Y954D02*
G01X9363Y909D01*
G01X9363Y909D02*
G01X9409Y863D01*
G01X9409Y863D02*
G01X9454Y772D01*
G01X9454Y772D02*
G01X9454Y636D01*
G01X9454Y636D02*
G01X9363Y545D01*
G01X9363Y545D02*
G01X9227Y500D01*
G01X9227Y500D02*
G01X9045Y500D01*
G01X9045Y500D02*
G01X8909Y545D01*
G01X8909Y545D02*
G01X8818Y636D01*
G01X9818Y1454D02*
G01X9818Y500D01*
G01X10863Y1227D02*
G01X10818Y1318D01*
G01X10818Y1318D02*
G01X10727Y1409D01*
G01X10727Y1409D02*
G01X10636Y1454D01*
G01X10636Y1454D02*
G01X10454Y1454D01*
G01X10454Y1454D02*
G01X10363Y1409D01*
G01X10363Y1409D02*
G01X10272Y1318D01*
G01X10272Y1318D02*
G01X10227Y1227D01*
G01X10227Y1227D02*
G01X10181Y1090D01*
G01X10181Y1090D02*
G01X10181Y863D01*
G01X10181Y863D02*
G01X10227Y727D01*
G01X10227Y727D02*
G01X10272Y636D01*
G01X10272Y636D02*
G01X10363Y545D01*
G01X10363Y545D02*
G01X10454Y500D01*
G01X10454Y500D02*
G01X10636Y500D01*
G01X10636Y500D02*
G01X10727Y545D01*
G01X10727Y545D02*
G01X10818Y636D01*
G01X10818Y636D02*
G01X10863Y727D01*
G01X10863Y727D02*
G01X10863Y863D01*
G01X10636Y863D02*
G01X10863Y863D01*
G01X11227Y1454D02*
G01X11227Y500D01*
G01X11227Y1454D02*
G01X11863Y500D01*
G01X11863Y1454D02*
G01X11863Y500D01*
G01X12954Y1454D02*
G01X12954Y500D01*
G01X12954Y1454D02*
G01X13272Y1454D01*
G01X13272Y1454D02*
G01X13409Y1409D01*
G01X13409Y1409D02*
G01X13499Y1318D01*
G01X13499Y1318D02*
G01X13545Y1227D01*
G01X13545Y1227D02*
G01X13590Y1090D01*
G01X13590Y1090D02*
G01X13590Y863D01*
G01X13590Y863D02*
G01X13545Y727D01*
G01X13545Y727D02*
G01X13499Y636D01*
G01X13499Y636D02*
G01X13409Y545D01*
G01X13409Y545D02*
G01X13272Y500D01*
G01X13272Y500D02*
G01X12954Y500D01*
G01X13954Y1454D02*
G01X13954Y500D01*
G01X13954Y1454D02*
G01X14545Y1454D01*
G01X13954Y1000D02*
G01X14318Y1000D01*
G01X13954Y500D02*
G01X14545Y500D01*
G01X15227Y1454D02*
G01X15227Y500D01*
G01X14909Y1454D02*
G01X15545Y1454D01*
G01X15909Y1454D02*
G01X15909Y500D01*
G01X15909Y1454D02*
G01X16499Y1454D01*
G01X15909Y1000D02*
G01X16272Y1000D01*
G01X15909Y500D02*
G01X16499Y500D01*
G01X17545Y1227D02*
G01X17499Y1318D01*
G01X17499Y1318D02*
G01X17409Y1409D01*
G01X17409Y1409D02*
G01X17318Y1454D01*
G01X17318Y1454D02*
G01X17136Y1454D01*
G01X17136Y1454D02*
G01X17045Y1409D01*
G01X17045Y1409D02*
G01X16954Y1318D01*
G01X16954Y1318D02*
G01X16909Y1227D01*
G01X16909Y1227D02*
G01X16863Y1090D01*
G01X16863Y1090D02*
G01X16863Y863D01*
G01X16863Y863D02*
G01X16909Y727D01*
G01X16909Y727D02*
G01X16954Y636D01*
G01X16954Y636D02*
G01X17045Y545D01*
G01X17045Y545D02*
G01X17136Y500D01*
G01X17136Y500D02*
G01X17318Y500D01*
G01X17318Y500D02*
G01X17409Y545D01*
G01X17409Y545D02*
G01X17499Y636D01*
G01X17499Y636D02*
G01X17545Y727D01*
G01X18227Y1454D02*
G01X18227Y500D01*
G01X17909Y1454D02*
G01X18545Y1454D01*
G01X19181Y1454D02*
G01X19090Y1409D01*
G01X19090Y1409D02*
G01X18999Y1318D01*
G01X18999Y1318D02*
G01X18954Y1227D01*
G01X18954Y1227D02*
G01X18909Y1090D01*
G01X18909Y1090D02*
G01X18909Y863D01*
G01X18909Y863D02*
G01X18954Y727D01*
G01X18954Y727D02*
G01X18999Y636D01*
G01X18999Y636D02*
G01X19090Y545D01*
G01X19090Y545D02*
G01X19181Y500D01*
G01X19181Y500D02*
G01X19363Y500D01*
G01X19363Y500D02*
G01X19454Y545D01*
G01X19454Y545D02*
G01X19545Y636D01*
G01X19545Y636D02*
G01X19590Y727D01*
G01X19590Y727D02*
G01X19636Y863D01*
G01X19636Y863D02*
G01X19636Y1090D01*
G01X19636Y1090D02*
G01X19590Y1227D01*
G01X19590Y1227D02*
G01X19545Y1318D01*
G01X19545Y1318D02*
G01X19454Y1409D01*
G01X19454Y1409D02*
G01X19363Y1454D01*
G01X19363Y1454D02*
G01X19181Y1454D01*
G01X20000Y1454D02*
G01X20000Y500D01*
G01X20000Y1454D02*
G01X20409Y1454D01*
G01X20409Y1454D02*
G01X20545Y1409D01*
G01X20545Y1409D02*
G01X20590Y1363D01*
G01X20590Y1363D02*
G01X20636Y1272D01*
G01X20636Y1272D02*
G01X20636Y1181D01*
G01X20636Y1181D02*
G01X20590Y1090D01*
G01X20590Y1090D02*
G01X20545Y1045D01*
G01X20545Y1045D02*
G01X20409Y1000D01*
G01X20409Y1000D02*
G01X20000Y1000D01*
G01X20318Y1000D02*
G01X20636Y500D01*
G01X32227Y2977D02*
G01X32227Y2613D01*
G01X32227Y2613D02*
G01X32204Y2545D01*
G01X32204Y2545D02*
G01X32181Y2522D01*
G01X32181Y2522D02*
G01X32136Y2500D01*
G01X32136Y2500D02*
G01X32090Y2500D01*
G01X32090Y2500D02*
G01X32045Y2522D01*
G01X32045Y2522D02*
G01X32022Y2545D01*
G01X32022Y2545D02*
G01X32000Y2613D01*
G01X32000Y2613D02*
G01X32000Y2659D01*
G01X32431Y2545D02*
G01X32409Y2522D01*
G01X32409Y2522D02*
G01X32431Y2500D01*
G01X32431Y2500D02*
G01X32454Y2522D01*
G01X32454Y2522D02*
G01X32431Y2545D01*
G01X33340Y2863D02*
G01X33318Y2909D01*
G01X33318Y2909D02*
G01X33272Y2954D01*
G01X33272Y2954D02*
G01X33227Y2977D01*
G01X33227Y2977D02*
G01X33136Y2977D01*
G01X33136Y2977D02*
G01X33090Y2954D01*
G01X33090Y2954D02*
G01X33045Y2909D01*
G01X33045Y2909D02*
G01X33022Y2863D01*
G01X33022Y2863D02*
G01X33000Y2795D01*
G01X33000Y2795D02*
G01X33000Y2681D01*
G01X33000Y2681D02*
G01X33022Y2613D01*
G01X33022Y2613D02*
G01X33045Y2568D01*
G01X33045Y2568D02*
G01X33090Y2522D01*
G01X33090Y2522D02*
G01X33136Y2500D01*
G01X33136Y2500D02*
G01X33227Y2500D01*
G01X33227Y2500D02*
G01X33272Y2522D01*
G01X33272Y2522D02*
G01X33318Y2568D01*
G01X33318Y2568D02*
G01X33340Y2613D01*
G01X33636Y2818D02*
G01X33590Y2795D01*
G01X33590Y2795D02*
G01X33545Y2750D01*
G01X33545Y2750D02*
G01X33522Y2681D01*
G01X33522Y2681D02*
G01X33522Y2636D01*
G01X33522Y2636D02*
G01X33545Y2568D01*
G01X33545Y2568D02*
G01X33590Y2522D01*
G01X33590Y2522D02*
G01X33636Y2500D01*
G01X33636Y2500D02*
G01X33704Y2500D01*
G01X33704Y2500D02*
G01X33749Y2522D01*
G01X33749Y2522D02*
G01X33795Y2568D01*
G01X33795Y2568D02*
G01X33818Y2636D01*
G01X33818Y2636D02*
G01X33818Y2681D01*
G01X33818Y2681D02*
G01X33795Y2750D01*
G01X33795Y2750D02*
G01X33749Y2795D01*
G01X33749Y2795D02*
G01X33704Y2818D01*
G01X33704Y2818D02*
G01X33636Y2818D01*
G01X34000Y2818D02*
G01X34000Y2500D01*
G01X34000Y2727D02*
G01X34068Y2795D01*
G01X34068Y2795D02*
G01X34113Y2818D01*
G01X34113Y2818D02*
G01X34181Y2818D01*
G01X34181Y2818D02*
G01X34227Y2795D01*
G01X34227Y2795D02*
G01X34250Y2727D01*
G01X34250Y2727D02*
G01X34250Y2500D01*
G01X34431Y2818D02*
G01X34431Y2500D01*
G01X34431Y2727D02*
G01X34499Y2795D01*
G01X34499Y2795D02*
G01X34545Y2818D01*
G01X34545Y2818D02*
G01X34613Y2818D01*
G01X34613Y2818D02*
G01X34659Y2795D01*
G01X34659Y2795D02*
G01X34681Y2727D01*
G01X34681Y2727D02*
G01X34681Y2500D01*
G01X34863Y2681D02*
G01X35136Y2681D01*
G01X35136Y2681D02*
G01X35136Y2727D01*
G01X35136Y2727D02*
G01X35113Y2772D01*
G01X35113Y2772D02*
G01X35090Y2795D01*
G01X35090Y2795D02*
G01X35045Y2818D01*
G01X35045Y2818D02*
G01X34977Y2818D01*
G01X34977Y2818D02*
G01X34931Y2795D01*
G01X34931Y2795D02*
G01X34886Y2750D01*
G01X34886Y2750D02*
G01X34863Y2681D01*
G01X34863Y2681D02*
G01X34863Y2636D01*
G01X34863Y2636D02*
G01X34886Y2568D01*
G01X34886Y2568D02*
G01X34931Y2522D01*
G01X34931Y2522D02*
G01X34977Y2500D01*
G01X34977Y2500D02*
G01X35045Y2500D01*
G01X35045Y2500D02*
G01X35090Y2522D01*
G01X35090Y2522D02*
G01X35136Y2568D01*
G01X35318Y2977D02*
G01X35318Y2500D01*
G01X35500Y2977D02*
G01X35500Y2500D01*
G01X35704Y2818D02*
G01X35840Y2500D01*
G01X35977Y2818D02*
G01X35840Y2500D01*
G01X35840Y2500D02*
G01X35795Y2409D01*
G01X35795Y2409D02*
G01X35749Y2363D01*
G01X35749Y2363D02*
G01X35704Y2340D01*
G01X35704Y2340D02*
G01X35681Y2340D01*
G01X36204Y2522D02*
G01X36181Y2500D01*
G01X36181Y2500D02*
G01X36159Y2522D01*
G01X36159Y2522D02*
G01X36181Y2545D01*
G01X36181Y2545D02*
G01X36204Y2522D01*
G01X36204Y2522D02*
G01X36204Y2477D01*
G01X36204Y2477D02*
G01X36181Y2431D01*
G01X36181Y2431D02*
G01X36159Y2409D01*
G01X37090Y2863D02*
G01X37068Y2909D01*
G01X37068Y2909D02*
G01X37022Y2954D01*
G01X37022Y2954D02*
G01X36977Y2977D01*
G01X36977Y2977D02*
G01X36886Y2977D01*
G01X36886Y2977D02*
G01X36840Y2954D01*
G01X36840Y2954D02*
G01X36795Y2909D01*
G01X36795Y2909D02*
G01X36772Y2863D01*
G01X36772Y2863D02*
G01X36749Y2795D01*
G01X36749Y2795D02*
G01X36749Y2681D01*
G01X36749Y2681D02*
G01X36772Y2613D01*
G01X36772Y2613D02*
G01X36795Y2568D01*
G01X36795Y2568D02*
G01X36840Y2522D01*
G01X36840Y2522D02*
G01X36886Y2500D01*
G01X36886Y2500D02*
G01X36977Y2500D01*
G01X36977Y2500D02*
G01X37022Y2522D01*
G01X37022Y2522D02*
G01X37068Y2568D01*
G01X37068Y2568D02*
G01X37090Y2613D01*
G01X37295Y2545D02*
G01X37272Y2522D01*
G01X37272Y2522D02*
G01X37295Y2500D01*
G01X37295Y2500D02*
G01X37318Y2522D01*
G01X37318Y2522D02*
G01X37295Y2545D01*
G01X37863Y2977D02*
G01X37863Y2500D01*
G01X37863Y2977D02*
G01X38068Y2977D01*
G01X38068Y2977D02*
G01X38136Y2954D01*
G01X38136Y2954D02*
G01X38159Y2931D01*
G01X38159Y2931D02*
G01X38181Y2886D01*
G01X38181Y2886D02*
G01X38181Y2818D01*
G01X38181Y2818D02*
G01X38159Y2772D01*
G01X38159Y2772D02*
G01X38136Y2750D01*
G01X38136Y2750D02*
G01X38068Y2727D01*
G01X38068Y2727D02*
G01X37863Y2727D01*
G01X38636Y2818D02*
G01X38636Y2500D01*
G01X38636Y2750D02*
G01X38590Y2795D01*
G01X38590Y2795D02*
G01X38545Y2818D01*
G01X38545Y2818D02*
G01X38477Y2818D01*
G01X38477Y2818D02*
G01X38431Y2795D01*
G01X38431Y2795D02*
G01X38386Y2750D01*
G01X38386Y2750D02*
G01X38363Y2681D01*
G01X38363Y2681D02*
G01X38363Y2636D01*
G01X38363Y2636D02*
G01X38386Y2568D01*
G01X38386Y2568D02*
G01X38431Y2522D01*
G01X38431Y2522D02*
G01X38477Y2500D01*
G01X38477Y2500D02*
G01X38545Y2500D01*
G01X38545Y2500D02*
G01X38590Y2522D01*
G01X38590Y2522D02*
G01X38636Y2568D01*
G01X38886Y2977D02*
G01X38886Y2590D01*
G01X38886Y2590D02*
G01X38909Y2522D01*
G01X38909Y2522D02*
G01X38954Y2500D01*
G01X38954Y2500D02*
G01X38999Y2500D01*
G01X38818Y2818D02*
G01X38977Y2818D01*
G01X39181Y2681D02*
G01X39454Y2681D01*
G01X39454Y2681D02*
G01X39454Y2727D01*
G01X39454Y2727D02*
G01X39431Y2772D01*
G01X39431Y2772D02*
G01X39409Y2795D01*
G01X39409Y2795D02*
G01X39363Y2818D01*
G01X39363Y2818D02*
G01X39295Y2818D01*
G01X39295Y2818D02*
G01X39249Y2795D01*
G01X39249Y2795D02*
G01X39204Y2750D01*
G01X39204Y2750D02*
G01X39181Y2681D01*
G01X39181Y2681D02*
G01X39181Y2636D01*
G01X39181Y2636D02*
G01X39204Y2568D01*
G01X39204Y2568D02*
G01X39249Y2522D01*
G01X39249Y2522D02*
G01X39295Y2500D01*
G01X39295Y2500D02*
G01X39363Y2500D01*
G01X39363Y2500D02*
G01X39409Y2522D01*
G01X39409Y2522D02*
G01X39454Y2568D01*
G01X39636Y2977D02*
G01X39636Y2500D01*
G01X39863Y2522D02*
G01X39840Y2500D01*
G01X39840Y2500D02*
G01X39818Y2522D01*
G01X39818Y2522D02*
G01X39840Y2545D01*
G01X39840Y2545D02*
G01X39863Y2522D01*
G01X39863Y2522D02*
G01X39863Y2477D01*
G01X39863Y2477D02*
G01X39840Y2431D01*
G01X39840Y2431D02*
G01X39818Y2409D01*
G01X40590Y2977D02*
G01X40409Y2500D01*
G01X40590Y2977D02*
G01X40772Y2500D01*
G01X40477Y2659D02*
G01X40704Y2659D01*
G01X40977Y2545D02*
G01X40954Y2522D01*
G01X40954Y2522D02*
G01X40977Y2500D01*
G01X40977Y2500D02*
G01X40999Y2522D01*
G01X40999Y2522D02*
G01X40977Y2545D01*
G01X41886Y2863D02*
G01X41863Y2909D01*
G01X41863Y2909D02*
G01X41818Y2954D01*
G01X41818Y2954D02*
G01X41772Y2977D01*
G01X41772Y2977D02*
G01X41681Y2977D01*
G01X41681Y2977D02*
G01X41636Y2954D01*
G01X41636Y2954D02*
G01X41590Y2909D01*
G01X41590Y2909D02*
G01X41568Y2863D01*
G01X41568Y2863D02*
G01X41545Y2795D01*
G01X41545Y2795D02*
G01X41545Y2681D01*
G01X41545Y2681D02*
G01X41568Y2613D01*
G01X41568Y2613D02*
G01X41590Y2568D01*
G01X41590Y2568D02*
G01X41636Y2522D01*
G01X41636Y2522D02*
G01X41681Y2500D01*
G01X41681Y2500D02*
G01X41772Y2500D01*
G01X41772Y2500D02*
G01X41818Y2522D01*
G01X41818Y2522D02*
G01X41863Y2568D01*
G01X41863Y2568D02*
G01X41886Y2613D01*
G01X42068Y2977D02*
G01X42068Y2500D01*
G01X42068Y2727D02*
G01X42136Y2795D01*
G01X42136Y2795D02*
G01X42181Y2818D01*
G01X42181Y2818D02*
G01X42249Y2818D01*
G01X42249Y2818D02*
G01X42295Y2795D01*
G01X42295Y2795D02*
G01X42318Y2727D01*
G01X42318Y2727D02*
G01X42318Y2500D01*
G01X42772Y2818D02*
G01X42772Y2500D01*
G01X42772Y2750D02*
G01X42727Y2795D01*
G01X42727Y2795D02*
G01X42681Y2818D01*
G01X42681Y2818D02*
G01X42613Y2818D01*
G01X42613Y2818D02*
G01X42568Y2795D01*
G01X42568Y2795D02*
G01X42522Y2750D01*
G01X42522Y2750D02*
G01X42500Y2681D01*
G01X42500Y2681D02*
G01X42500Y2636D01*
G01X42500Y2636D02*
G01X42522Y2568D01*
G01X42522Y2568D02*
G01X42568Y2522D01*
G01X42568Y2522D02*
G01X42613Y2500D01*
G01X42613Y2500D02*
G01X42681Y2500D01*
G01X42681Y2500D02*
G01X42727Y2522D01*
G01X42727Y2522D02*
G01X42772Y2568D01*
G01X42954Y2818D02*
G01X43090Y2500D01*
G01X43227Y2818D02*
G01X43090Y2500D01*
G01X43409Y2681D02*
G01X43681Y2681D01*
G01X43681Y2681D02*
G01X43681Y2727D01*
G01X43681Y2727D02*
G01X43659Y2772D01*
G01X43659Y2772D02*
G01X43636Y2795D01*
G01X43636Y2795D02*
G01X43590Y2818D01*
G01X43590Y2818D02*
G01X43522Y2818D01*
G01X43522Y2818D02*
G01X43477Y2795D01*
G01X43477Y2795D02*
G01X43431Y2750D01*
G01X43431Y2750D02*
G01X43409Y2681D01*
G01X43409Y2681D02*
G01X43409Y2636D01*
G01X43409Y2636D02*
G01X43431Y2568D01*
G01X43431Y2568D02*
G01X43477Y2522D01*
G01X43477Y2522D02*
G01X43522Y2500D01*
G01X43522Y2500D02*
G01X43590Y2500D01*
G01X43590Y2500D02*
G01X43636Y2522D01*
G01X43636Y2522D02*
G01X43681Y2568D01*
G01X44113Y2818D02*
G01X43863Y2500D01*
G01X43863Y2818D02*
G01X44113Y2818D01*
G01X43863Y2500D02*
G01X44113Y2500D01*
G01X36818Y1909D02*
G01X36772Y1954D01*
G01X36772Y1954D02*
G01X36704Y1977D01*
G01X36704Y1977D02*
G01X36613Y1977D01*
G01X36613Y1977D02*
G01X36545Y1954D01*
G01X36545Y1954D02*
G01X36500Y1909D01*
G01X36500Y1909D02*
G01X36500Y1863D01*
G01X36500Y1863D02*
G01X36522Y1818D01*
G01X36522Y1818D02*
G01X36545Y1795D01*
G01X36545Y1795D02*
G01X36590Y1772D01*
G01X36590Y1772D02*
G01X36727Y1727D01*
G01X36727Y1727D02*
G01X36772Y1704D01*
G01X36772Y1704D02*
G01X36795Y1681D01*
G01X36795Y1681D02*
G01X36818Y1636D01*
G01X36818Y1636D02*
G01X36818Y1568D01*
G01X36818Y1568D02*
G01X36772Y1522D01*
G01X36772Y1522D02*
G01X36704Y1500D01*
G01X36704Y1500D02*
G01X36613Y1500D01*
G01X36613Y1500D02*
G01X36545Y1522D01*
G01X36545Y1522D02*
G01X36500Y1568D01*
G01X37000Y1818D02*
G01X37000Y1340D01*
G01X37000Y1750D02*
G01X37045Y1795D01*
G01X37045Y1795D02*
G01X37090Y1818D01*
G01X37090Y1818D02*
G01X37159Y1818D01*
G01X37159Y1818D02*
G01X37204Y1795D01*
G01X37204Y1795D02*
G01X37250Y1750D01*
G01X37250Y1750D02*
G01X37272Y1681D01*
G01X37272Y1681D02*
G01X37272Y1636D01*
G01X37272Y1636D02*
G01X37250Y1568D01*
G01X37250Y1568D02*
G01X37204Y1522D01*
G01X37204Y1522D02*
G01X37159Y1500D01*
G01X37159Y1500D02*
G01X37090Y1500D01*
G01X37090Y1500D02*
G01X37045Y1522D01*
G01X37045Y1522D02*
G01X37000Y1568D01*
G01X37454Y1818D02*
G01X37454Y1500D01*
G01X37454Y1681D02*
G01X37477Y1750D01*
G01X37477Y1750D02*
G01X37522Y1795D01*
G01X37522Y1795D02*
G01X37568Y1818D01*
G01X37568Y1818D02*
G01X37636Y1818D01*
G01X37818Y1977D02*
G01X37840Y1954D01*
G01X37840Y1954D02*
G01X37863Y1977D01*
G01X37863Y1977D02*
G01X37840Y2000D01*
G01X37840Y2000D02*
G01X37818Y1977D01*
G01X37840Y1818D02*
G01X37840Y1500D01*
G01X38045Y1818D02*
G01X38045Y1500D01*
G01X38045Y1727D02*
G01X38113Y1795D01*
G01X38113Y1795D02*
G01X38159Y1818D01*
G01X38159Y1818D02*
G01X38227Y1818D01*
G01X38227Y1818D02*
G01X38272Y1795D01*
G01X38272Y1795D02*
G01X38295Y1727D01*
G01X38295Y1727D02*
G01X38295Y1500D01*
G01X38749Y1818D02*
G01X38749Y1454D01*
G01X38749Y1454D02*
G01X38727Y1386D01*
G01X38727Y1386D02*
G01X38704Y1363D01*
G01X38704Y1363D02*
G01X38659Y1340D01*
G01X38659Y1340D02*
G01X38590Y1340D01*
G01X38590Y1340D02*
G01X38545Y1363D01*
G01X38749Y1750D02*
G01X38704Y1795D01*
G01X38704Y1795D02*
G01X38659Y1818D01*
G01X38659Y1818D02*
G01X38590Y1818D01*
G01X38590Y1818D02*
G01X38545Y1795D01*
G01X38545Y1795D02*
G01X38499Y1750D01*
G01X38499Y1750D02*
G01X38477Y1681D01*
G01X38477Y1681D02*
G01X38477Y1636D01*
G01X38477Y1636D02*
G01X38499Y1568D01*
G01X38499Y1568D02*
G01X38545Y1522D01*
G01X38545Y1522D02*
G01X38590Y1500D01*
G01X38590Y1500D02*
G01X38659Y1500D01*
G01X38659Y1500D02*
G01X38704Y1522D01*
G01X38704Y1522D02*
G01X38749Y1568D01*
G01X39318Y1863D02*
G01X39318Y1886D01*
G01X39318Y1886D02*
G01X39340Y1931D01*
G01X39340Y1931D02*
G01X39363Y1954D01*
G01X39363Y1954D02*
G01X39409Y1977D01*
G01X39409Y1977D02*
G01X39499Y1977D01*
G01X39499Y1977D02*
G01X39545Y1954D01*
G01X39545Y1954D02*
G01X39568Y1931D01*
G01X39568Y1931D02*
G01X39590Y1886D01*
G01X39590Y1886D02*
G01X39590Y1840D01*
G01X39590Y1840D02*
G01X39568Y1795D01*
G01X39568Y1795D02*
G01X39522Y1727D01*
G01X39522Y1727D02*
G01X39295Y1500D01*
G01X39295Y1500D02*
G01X39613Y1500D01*
G01X39931Y1977D02*
G01X39863Y1954D01*
G01X39863Y1954D02*
G01X39818Y1886D01*
G01X39818Y1886D02*
G01X39795Y1772D01*
G01X39795Y1772D02*
G01X39795Y1704D01*
G01X39795Y1704D02*
G01X39818Y1590D01*
G01X39818Y1590D02*
G01X39863Y1522D01*
G01X39863Y1522D02*
G01X39931Y1500D01*
G01X39931Y1500D02*
G01X39977Y1500D01*
G01X39977Y1500D02*
G01X40045Y1522D01*
G01X40045Y1522D02*
G01X40090Y1590D01*
G01X40090Y1590D02*
G01X40113Y1704D01*
G01X40113Y1704D02*
G01X40113Y1772D01*
G01X40113Y1772D02*
G01X40090Y1886D01*
G01X40090Y1886D02*
G01X40045Y1954D01*
G01X40045Y1954D02*
G01X39977Y1977D01*
G01X39977Y1977D02*
G01X39931Y1977D01*
G01X40431Y1977D02*
G01X40363Y1954D01*
G01X40363Y1954D02*
G01X40318Y1886D01*
G01X40318Y1886D02*
G01X40295Y1772D01*
G01X40295Y1772D02*
G01X40295Y1704D01*
G01X40295Y1704D02*
G01X40318Y1590D01*
G01X40318Y1590D02*
G01X40363Y1522D01*
G01X40363Y1522D02*
G01X40431Y1500D01*
G01X40431Y1500D02*
G01X40477Y1500D01*
G01X40477Y1500D02*
G01X40545Y1522D01*
G01X40545Y1522D02*
G01X40590Y1590D01*
G01X40590Y1590D02*
G01X40613Y1704D01*
G01X40613Y1704D02*
G01X40613Y1772D01*
G01X40613Y1772D02*
G01X40590Y1886D01*
G01X40590Y1886D02*
G01X40545Y1954D01*
G01X40545Y1954D02*
G01X40477Y1977D01*
G01X40477Y1977D02*
G01X40431Y1977D01*
G01X40909Y1977D02*
G01X40840Y1954D01*
G01X40840Y1954D02*
G01X40818Y1909D01*
G01X40818Y1909D02*
G01X40818Y1863D01*
G01X40818Y1863D02*
G01X40840Y1818D01*
G01X40840Y1818D02*
G01X40886Y1795D01*
G01X40886Y1795D02*
G01X40977Y1772D01*
G01X40977Y1772D02*
G01X41045Y1750D01*
G01X41045Y1750D02*
G01X41090Y1704D01*
G01X41090Y1704D02*
G01X41113Y1659D01*
G01X41113Y1659D02*
G01X41113Y1590D01*
G01X41113Y1590D02*
G01X41090Y1545D01*
G01X41090Y1545D02*
G01X41068Y1522D01*
G01X41068Y1522D02*
G01X40999Y1500D01*
G01X40999Y1500D02*
G01X40909Y1500D01*
G01X40909Y1500D02*
G01X40840Y1522D01*
G01X40840Y1522D02*
G01X40818Y1545D01*
G01X40818Y1545D02*
G01X40795Y1590D01*
G01X40795Y1590D02*
G01X40795Y1659D01*
G01X40795Y1659D02*
G01X40818Y1704D01*
G01X40818Y1704D02*
G01X40863Y1750D01*
G01X40863Y1750D02*
G01X40931Y1772D01*
G01X40931Y1772D02*
G01X41022Y1795D01*
G01X41022Y1795D02*
G01X41068Y1818D01*
G01X41068Y1818D02*
G01X41090Y1863D01*
G01X41090Y1863D02*
G01X41090Y1909D01*
G01X41090Y1909D02*
G01X41068Y1954D01*
G01X41068Y1954D02*
G01X40999Y1977D01*
G01X40999Y1977D02*
G01X40909Y1977D01*
G01X33000Y977D02*
G01X33000Y500D01*
G01X33000Y727D02*
G01X33068Y795D01*
G01X33068Y795D02*
G01X33113Y818D01*
G01X33113Y818D02*
G01X33181Y818D01*
G01X33181Y818D02*
G01X33227Y795D01*
G01X33227Y795D02*
G01X33250Y727D01*
G01X33250Y727D02*
G01X33250Y500D01*
G01X33499Y977D02*
G01X33499Y590D01*
G01X33499Y590D02*
G01X33522Y522D01*
G01X33522Y522D02*
G01X33568Y500D01*
G01X33568Y500D02*
G01X33613Y500D01*
G01X33431Y818D02*
G01X33590Y818D01*
G01X33863Y977D02*
G01X33863Y590D01*
G01X33863Y590D02*
G01X33886Y522D01*
G01X33886Y522D02*
G01X33931Y500D01*
G01X33931Y500D02*
G01X33977Y500D01*
G01X33795Y818D02*
G01X33954Y818D01*
G01X34159Y818D02*
G01X34159Y340D01*
G01X34159Y750D02*
G01X34204Y795D01*
G01X34204Y795D02*
G01X34249Y818D01*
G01X34249Y818D02*
G01X34318Y818D01*
G01X34318Y818D02*
G01X34363Y795D01*
G01X34363Y795D02*
G01X34409Y750D01*
G01X34409Y750D02*
G01X34431Y681D01*
G01X34431Y681D02*
G01X34431Y636D01*
G01X34431Y636D02*
G01X34409Y568D01*
G01X34409Y568D02*
G01X34363Y522D01*
G01X34363Y522D02*
G01X34318Y500D01*
G01X34318Y500D02*
G01X34249Y500D01*
G01X34249Y500D02*
G01X34204Y522D01*
G01X34204Y522D02*
G01X34159Y568D01*
G01X34636Y818D02*
G01X34613Y795D01*
G01X34613Y795D02*
G01X34636Y772D01*
G01X34636Y772D02*
G01X34659Y795D01*
G01X34659Y795D02*
G01X34636Y818D01*
G01X34636Y545D02*
G01X34613Y522D01*
G01X34613Y522D02*
G01X34636Y500D01*
G01X34636Y500D02*
G01X34659Y522D01*
G01X34659Y522D02*
G01X34636Y545D01*
G01X35249Y1068D02*
G01X34840Y340D01*
G01X35840Y1068D02*
G01X35431Y340D01*
G01X36113Y977D02*
G01X36136Y954D01*
G01X36136Y954D02*
G01X36159Y977D01*
G01X36159Y977D02*
G01X36136Y1000D01*
G01X36136Y1000D02*
G01X36113Y977D01*
G01X36136Y818D02*
G01X36136Y431D01*
G01X36136Y431D02*
G01X36113Y363D01*
G01X36113Y363D02*
G01X36068Y340D01*
G01X36068Y340D02*
G01X36022Y340D01*
G01X36340Y681D02*
G01X36613Y681D01*
G01X36613Y681D02*
G01X36613Y727D01*
G01X36613Y727D02*
G01X36590Y772D01*
G01X36590Y772D02*
G01X36568Y795D01*
G01X36568Y795D02*
G01X36522Y818D01*
G01X36522Y818D02*
G01X36454Y818D01*
G01X36454Y818D02*
G01X36409Y795D01*
G01X36409Y795D02*
G01X36363Y750D01*
G01X36363Y750D02*
G01X36340Y681D01*
G01X36340Y681D02*
G01X36340Y636D01*
G01X36340Y636D02*
G01X36363Y568D01*
G01X36363Y568D02*
G01X36409Y522D01*
G01X36409Y522D02*
G01X36454Y500D01*
G01X36454Y500D02*
G01X36522Y500D01*
G01X36522Y500D02*
G01X36568Y522D01*
G01X36568Y522D02*
G01X36613Y568D01*
G01X36977Y977D02*
G01X36931Y977D01*
G01X36931Y977D02*
G01X36886Y954D01*
G01X36886Y954D02*
G01X36863Y886D01*
G01X36863Y886D02*
G01X36863Y500D01*
G01X36795Y818D02*
G01X36954Y818D01*
G01X37340Y977D02*
G01X37295Y977D01*
G01X37295Y977D02*
G01X37249Y954D01*
G01X37249Y954D02*
G01X37227Y886D01*
G01X37227Y886D02*
G01X37227Y500D01*
G01X37159Y818D02*
G01X37318Y818D01*
G01X37545Y545D02*
G01X37522Y522D01*
G01X37522Y522D02*
G01X37545Y500D01*
G01X37545Y500D02*
G01X37568Y522D01*
G01X37568Y522D02*
G01X37545Y545D01*
G01X37818Y977D02*
G01X37818Y590D01*
G01X37818Y590D02*
G01X37840Y522D01*
G01X37840Y522D02*
G01X37886Y500D01*
G01X37886Y500D02*
G01X37931Y500D01*
G01X37749Y818D02*
G01X37909Y818D01*
G01X38113Y977D02*
G01X38113Y500D01*
G01X38340Y818D02*
G01X38113Y590D01*
G01X38204Y681D02*
G01X38363Y500D01*
G01X38954Y1068D02*
G01X38545Y340D01*
G01X39136Y818D02*
G01X39227Y500D01*
G01X39318Y818D02*
G01X39227Y500D01*
G01X39318Y818D02*
G01X39409Y500D01*
G01X39499Y818D02*
G01X39409Y500D01*
G01X39681Y977D02*
G01X39704Y954D01*
G01X39704Y954D02*
G01X39727Y977D01*
G01X39727Y977D02*
G01X39704Y1000D01*
G01X39704Y1000D02*
G01X39681Y977D01*
G01X39704Y818D02*
G01X39704Y500D01*
G01X39909Y977D02*
G01X39909Y500D01*
G01X40136Y818D02*
G01X39909Y590D01*
G01X39999Y681D02*
G01X40159Y500D01*
G01X40340Y977D02*
G01X40363Y954D01*
G01X40363Y954D02*
G01X40386Y977D01*
G01X40386Y977D02*
G01X40363Y1000D01*
G01X40363Y1000D02*
G01X40340Y977D01*
G01X40363Y818D02*
G01X40363Y500D01*
G01X40977Y1068D02*
G01X40568Y340D01*
G01X41318Y977D02*
G01X41318Y500D01*
G01X41159Y977D02*
G01X41477Y977D01*
G01X41659Y818D02*
G01X41659Y500D01*
G01X41659Y681D02*
G01X41681Y750D01*
G01X41681Y750D02*
G01X41727Y795D01*
G01X41727Y795D02*
G01X41772Y818D01*
G01X41772Y818D02*
G01X41840Y818D01*
G01X42022Y977D02*
G01X42045Y954D01*
G01X42045Y954D02*
G01X42068Y977D01*
G01X42068Y977D02*
G01X42045Y1000D01*
G01X42045Y1000D02*
G01X42022Y977D01*
G01X42045Y818D02*
G01X42045Y500D01*
G01X42249Y818D02*
G01X42249Y500D01*
G01X42249Y727D02*
G01X42318Y795D01*
G01X42318Y795D02*
G01X42363Y818D01*
G01X42363Y818D02*
G01X42431Y818D01*
G01X42431Y818D02*
G01X42477Y795D01*
G01X42477Y795D02*
G01X42499Y727D01*
G01X42499Y727D02*
G01X42499Y500D01*
G01X42954Y818D02*
G01X42954Y500D01*
G01X42954Y750D02*
G01X42909Y795D01*
G01X42909Y795D02*
G01X42863Y818D01*
G01X42863Y818D02*
G01X42795Y818D01*
G01X42795Y818D02*
G01X42749Y795D01*
G01X42749Y795D02*
G01X42704Y750D01*
G01X42704Y750D02*
G01X42681Y681D01*
G01X42681Y681D02*
G01X42681Y636D01*
G01X42681Y636D02*
G01X42704Y568D01*
G01X42704Y568D02*
G01X42749Y522D01*
G01X42749Y522D02*
G01X42795Y500D01*
G01X42795Y500D02*
G01X42863Y500D01*
G01X42863Y500D02*
G01X42909Y522D01*
G01X42909Y522D02*
G01X42954Y568D01*
G01X43136Y818D02*
G01X43136Y500D01*
G01X43136Y681D02*
G01X43159Y750D01*
G01X43159Y750D02*
G01X43204Y795D01*
G01X43204Y795D02*
G01X43249Y818D01*
G01X43249Y818D02*
G01X43318Y818D01*
G01X43522Y818D02*
G01X43659Y500D01*
G01X43795Y818D02*
G01X43659Y500D01*
G01X43659Y500D02*
G01X43613Y409D01*
G01X43613Y409D02*
G01X43568Y363D01*
G01X43568Y363D02*
G01X43522Y340D01*
G01X43522Y340D02*
G01X43499Y340D01*
M00*
M02*
