G04 FreePCB version 1.343*
G04 Z:\trinary\code\bb\CAM-sign\top_copper.grb*
G04 top copper layer *
G04 Scale: 100 percent, Rotated: No, Reflected: No *
%FSLAX24Y24*%
%MOIN*%
%LNTop*%
%ADD10C,0.005000*%
%ADD11R,0.075000X0.075000*%
%ADD12C,0.075000*%
%ADD13C,0.090000*%
%ADD14C,0.095000*%
%ADD15C,0.048000*%
%ADD16C,0.030000*%
%ADD17C,0.001000*%
%ADD18C,0.040000*%
%ADD19R,0.055000X0.055000*%
%ADD20C,0.055000*%
%ADD21C,0.070000*%
%ADD22C,0.028000*%
%ADD23C,0.010000*%
%ADD24C,0.020000*%
G90*
G70D02*

G04 Step and Repeat for panelization *

G04 ----------------------- Draw board outline (positive)*
%LPD*%
G54D10*
G01X0Y0D02*
G01X0Y37000D01*
G04 end of side 1*
G01X45500Y37000D01*
G04 end of side 2*
G01X45500Y0D01*
G04 end of side 3*
G01X0Y0D01*

G04 ----------------------- Draw copper area (positive)*
G36*
G01X13500Y2000D02*
G01X11000Y2000D01*
G01X11000Y2500D01*
G01X13500Y2500D01*
G01X13500Y2000D01*
G37*

G04 ----------------------- Draw copper area (positive)*
G36*
G01X8500Y2500D02*
G01X9500Y2500D01*
G01X9500Y2000D01*
G01X8500Y2000D01*
G01X8500Y1000D01*
G01X8000Y1000D01*
G01X8000Y2000D01*
G01X7000Y2000D01*
G01X7000Y2500D01*
G01X8000Y2500D01*
G01X8000Y3500D01*
G01X8500Y3500D01*
G01X8500Y2500D01*
G37*

G04 -------------------- Draw copper area clearances (negative)*
%LPC*%

G04 Draw clearances for pads*
G54D11*
G01X11850Y10420D03*
G54D12*
G01X11850Y9420D03*
G01X11850Y8420D03*
G01X11850Y7420D03*
G01X11850Y6420D03*
G01X11850Y5420D03*
G01X11850Y4420D03*
G01X14850Y4420D03*
G01X14850Y5420D03*
G01X14850Y6420D03*
G01X14850Y7420D03*
G01X14850Y8420D03*
G01X14850Y9420D03*
G01X14850Y10420D03*
G54D11*
G01X31850Y10420D03*
G54D12*
G01X31850Y9420D03*
G01X31850Y8420D03*
G01X31850Y7420D03*
G01X31850Y6420D03*
G01X31850Y5420D03*
G01X31850Y4420D03*
G01X34850Y4420D03*
G01X34850Y5420D03*
G01X34850Y6420D03*
G01X34850Y7420D03*
G01X34850Y8420D03*
G01X34850Y9420D03*
G01X34850Y10420D03*
G54D11*
G01X41850Y22420D03*
G54D12*
G01X41850Y21420D03*
G01X41850Y20420D03*
G01X41850Y19420D03*
G01X41850Y18420D03*
G01X41850Y17420D03*
G01X41850Y16420D03*
G01X44850Y16420D03*
G01X44850Y17420D03*
G01X44850Y18420D03*
G01X44850Y19420D03*
G01X44850Y20420D03*
G01X44850Y21420D03*
G01X44850Y22420D03*
G54D11*
G01X21850Y22420D03*
G54D12*
G01X21850Y21420D03*
G01X21850Y20420D03*
G01X21850Y19420D03*
G01X21850Y18420D03*
G01X21850Y17420D03*
G01X21850Y16420D03*
G01X24850Y16420D03*
G01X24850Y17420D03*
G01X24850Y18420D03*
G01X24850Y19420D03*
G01X24850Y20420D03*
G01X24850Y21420D03*
G01X24850Y22420D03*
G54D11*
G01X31850Y22420D03*
G54D12*
G01X31850Y21420D03*
G01X31850Y20420D03*
G01X31850Y19420D03*
G01X31850Y18420D03*
G01X31850Y17420D03*
G01X31850Y16420D03*
G01X34850Y16420D03*
G01X34850Y17420D03*
G01X34850Y18420D03*
G01X34850Y19420D03*
G01X34850Y20420D03*
G01X34850Y21420D03*
G01X34850Y22420D03*
G54D11*
G01X21850Y10420D03*
G54D12*
G01X21850Y9420D03*
G01X21850Y8420D03*
G01X21850Y7420D03*
G01X21850Y6420D03*
G01X21850Y5420D03*
G01X21850Y4420D03*
G01X24850Y4420D03*
G01X24850Y5420D03*
G01X24850Y6420D03*
G01X24850Y7420D03*
G01X24850Y8420D03*
G01X24850Y9420D03*
G01X24850Y10420D03*
G54D11*
G01X1850Y22420D03*
G54D12*
G01X1850Y21420D03*
G01X1850Y20420D03*
G01X1850Y19420D03*
G01X1850Y18420D03*
G01X1850Y17420D03*
G01X1850Y16420D03*
G01X4850Y16420D03*
G01X4850Y17420D03*
G01X4850Y18420D03*
G01X4850Y19420D03*
G01X4850Y20420D03*
G01X4850Y21420D03*
G01X4850Y22420D03*
G54D11*
G01X11850Y22420D03*
G54D12*
G01X11850Y21420D03*
G01X11850Y20420D03*
G01X11850Y19420D03*
G01X11850Y18420D03*
G01X11850Y17420D03*
G01X11850Y16420D03*
G01X14850Y16420D03*
G01X14850Y17420D03*
G01X14850Y18420D03*
G01X14850Y19420D03*
G01X14850Y20420D03*
G01X14850Y21420D03*
G01X14850Y22420D03*
G54D11*
G01X1850Y10420D03*
G54D12*
G01X1850Y9420D03*
G01X1850Y8420D03*
G01X1850Y7420D03*
G01X1850Y6420D03*
G01X1850Y5420D03*
G01X1850Y4420D03*
G01X4850Y4420D03*
G01X4850Y5420D03*
G01X4850Y6420D03*
G01X4850Y7420D03*
G01X4850Y8420D03*
G01X4850Y9420D03*
G01X4850Y10420D03*
G54D11*
G01X1850Y34420D03*
G54D12*
G01X1850Y33420D03*
G01X1850Y32420D03*
G01X1850Y31420D03*
G01X1850Y30420D03*
G01X1850Y29420D03*
G01X1850Y28420D03*
G01X4850Y28420D03*
G01X4850Y29420D03*
G01X4850Y30420D03*
G01X4850Y31420D03*
G01X4850Y32420D03*
G01X4850Y33420D03*
G01X4850Y34420D03*
G54D11*
G01X41850Y10420D03*
G54D12*
G01X41850Y9420D03*
G01X41850Y8420D03*
G01X41850Y7420D03*
G01X41850Y6420D03*
G01X41850Y5420D03*
G01X41850Y4420D03*
G01X44850Y4420D03*
G01X44850Y5420D03*
G01X44850Y6420D03*
G01X44850Y7420D03*
G01X44850Y8420D03*
G01X44850Y9420D03*
G01X44850Y10420D03*
G54D11*
G01X11850Y34420D03*
G54D12*
G01X11850Y33420D03*
G01X11850Y32420D03*
G01X11850Y31420D03*
G01X11850Y30420D03*
G01X11850Y29420D03*
G01X11850Y28420D03*
G01X14850Y28420D03*
G01X14850Y29420D03*
G01X14850Y30420D03*
G01X14850Y31420D03*
G01X14850Y32420D03*
G01X14850Y33420D03*
G01X14850Y34420D03*
G54D11*
G01X21850Y34420D03*
G54D12*
G01X21850Y33420D03*
G01X21850Y32420D03*
G01X21850Y31420D03*
G01X21850Y30420D03*
G01X21850Y29420D03*
G01X21850Y28420D03*
G01X24850Y28420D03*
G01X24850Y29420D03*
G01X24850Y30420D03*
G01X24850Y31420D03*
G01X24850Y32420D03*
G01X24850Y33420D03*
G01X24850Y34420D03*
G54D11*
G01X41850Y34420D03*
G54D12*
G01X41850Y33420D03*
G01X41850Y32420D03*
G01X41850Y31420D03*
G01X41850Y30420D03*
G01X41850Y29420D03*
G01X41850Y28420D03*
G01X44850Y28420D03*
G01X44850Y29420D03*
G01X44850Y30420D03*
G01X44850Y31420D03*
G01X44850Y32420D03*
G01X44850Y33420D03*
G01X44850Y34420D03*
G36*
G01X26050Y1050D02*
G01X26050Y1950D01*
G01X26950Y1950D01*
G01X26950Y1050D01*
G01X26050Y1050D01*
G37*
G54D13*
G01X26500Y2500D03*
G01X27500Y1500D03*
G01X27500Y2500D03*
G01X28500Y1500D03*
G01X28500Y2500D03*
G01X29500Y1500D03*
G01X29500Y2500D03*
G54D14*
G01X31000Y34000D03*
G01X36000Y34000D03*
G01X31000Y31000D03*
G01X36000Y31000D03*
G01X31000Y28000D03*
G01X36000Y28000D03*

G04 Draw clearances for traces*
G54D15*
G01X36779Y14542D03*
G54D16*
G01X36779Y14542D02*
G01X32657Y10420D01*
G01X32657Y10420D02*
G01X31850Y10420D01*
G01X44850Y19420D02*
G01X44817Y19420D01*
G01X44817Y19420D02*
G01X43518Y18121D01*
G01X43518Y18121D02*
G01X43518Y17062D01*
G01X43518Y17062D02*
G01X42150Y15694D01*
G01X42150Y15694D02*
G01X33604Y15694D01*
G01X33604Y15694D02*
G01X32878Y16421D01*
G01X32878Y16421D02*
G01X31878Y15421D01*
G01X31878Y15421D02*
G01X29568Y15421D01*
G01X29568Y15421D02*
G01X25450Y11503D01*
G01X25450Y11503D02*
G01X24705Y11303D01*
G01X24705Y11303D02*
G01X22918Y9517D01*
G01X22918Y9517D02*
G01X22918Y4460D01*
G01X22918Y4460D02*
G01X22152Y3694D01*
G01X22152Y3694D02*
G01X14550Y3694D01*
G01X14550Y3694D02*
G01X13083Y5161D01*
G01X13083Y5161D02*
G01X13083Y5216D01*
G01X13083Y5216D02*
G01X11880Y6420D01*
G01X11880Y6420D02*
G01X11850Y6420D01*
G01X31850Y17420D02*
G01X31879Y17420D01*
G01X31879Y17420D02*
G01X32878Y16421D01*
G54D17*
G54D18*
G01X11850Y16420D02*
G01X12830Y15439D01*
G01X12830Y15439D02*
G01X12830Y10625D01*
G01X12830Y10625D02*
G01X12625Y10420D01*
G01X12625Y10420D02*
G01X11850Y10420D01*
G01X31850Y4420D02*
G01X31948Y4420D01*
G01X31948Y4420D02*
G01X32629Y5101D01*
G01X32629Y5101D02*
G01X32629Y6744D01*
G01X32629Y6744D02*
G01X31953Y7420D01*
G01X31953Y7420D02*
G01X31850Y7420D01*
G01X28500Y1500D02*
G01X28500Y1290D01*
G01X28500Y1290D02*
G01X29141Y648D01*
G01X29141Y648D02*
G01X29851Y648D01*
G01X29851Y648D02*
G01X31850Y2647D01*
G01X31850Y2647D02*
G01X31850Y4420D01*
G01X31850Y19420D02*
G01X31749Y19420D01*
G01X31749Y19420D02*
G01X31071Y18741D01*
G01X31071Y18741D02*
G01X31071Y17099D01*
G01X31071Y17099D02*
G01X29918Y17099D01*
G01X29918Y17099D02*
G01X28463Y15644D01*
G01X28463Y15644D02*
G01X24393Y15644D01*
G01X24393Y15644D02*
G01X22941Y17097D01*
G01X22941Y17097D02*
G01X22625Y17097D01*
G01X22625Y17097D02*
G01X22625Y18748D01*
G01X22625Y18748D02*
G01X21953Y19420D01*
G01X21953Y19420D02*
G01X21850Y19420D01*
G01X41850Y28420D02*
G01X37387Y23957D01*
G54D15*
G01X32479Y23957D03*
G54D18*
G01X37387Y23957D02*
G01X32479Y23957D01*
G01X1850Y7420D02*
G01X1744Y7420D01*
G01X1744Y7420D02*
G01X873Y8290D01*
G01X873Y8290D02*
G01X873Y15443D01*
G01X873Y15443D02*
G01X1850Y16420D01*
G01X4850Y16420D02*
G01X1850Y16420D01*
G01X11850Y19420D02*
G01X9308Y19420D01*
G01X9308Y19420D02*
G01X6308Y16420D01*
G01X6308Y16420D02*
G01X4850Y16420D01*
G01X11850Y16420D02*
G01X11947Y16420D01*
G01X11947Y16420D02*
G01X12626Y17099D01*
G01X12626Y17099D02*
G01X12626Y18743D01*
G01X12626Y18743D02*
G01X11950Y19420D01*
G01X11950Y19420D02*
G01X11850Y19420D01*
G01X21850Y16420D02*
G01X20869Y15439D01*
G01X20869Y15439D02*
G01X12830Y15439D01*
G01X14850Y7420D02*
G01X14753Y7420D01*
G01X14753Y7420D02*
G01X12625Y9548D01*
G01X12625Y9548D02*
G01X12625Y10420D01*
G01X31850Y16420D02*
G01X31751Y16420D01*
G01X31751Y16420D02*
G01X31071Y17099D01*
G01X21850Y16420D02*
G01X21948Y16420D01*
G01X21948Y16420D02*
G01X22625Y17097D01*
G01X41850Y4420D02*
G01X41073Y3643D01*
G01X41073Y3643D02*
G01X34087Y3643D01*
G01X34087Y3643D02*
G01X32629Y5101D01*
G54D16*
G01X4850Y4420D02*
G01X4093Y4420D01*
G01X4093Y4420D02*
G01X2093Y6420D01*
G01X2093Y6420D02*
G01X1850Y6420D01*
G54D18*
G01X11850Y7420D02*
G01X8100Y7420D01*
G54D17*
G54D18*
G01X26500Y1500D02*
G01X26296Y1500D01*
G01X26296Y1500D02*
G01X25646Y2149D01*
G01X25646Y2149D02*
G01X25646Y3508D01*
G01X25646Y3508D02*
G01X31558Y9420D01*
G01X31558Y9420D02*
G01X31850Y9420D01*
G01X34850Y10420D02*
G01X34462Y10420D01*
G01X34462Y10420D02*
G01X33462Y9420D01*
G01X33462Y9420D02*
G01X31850Y9420D01*
G01X44850Y10420D02*
G01X44075Y11195D01*
G01X44075Y11195D02*
G01X35625Y11195D01*
G01X35625Y11195D02*
G01X34850Y10420D01*
G01X24850Y22420D02*
G01X24139Y22420D01*
G01X24139Y22420D02*
G01X23139Y21420D01*
G01X23139Y21420D02*
G01X21850Y21420D01*
G01X14850Y22420D02*
G01X18056Y22420D01*
G01X18056Y22420D02*
G01X19056Y21420D01*
G01X19056Y21420D02*
G01X21850Y21420D01*
G01X4850Y22420D02*
G01X4260Y22420D01*
G01X4260Y22420D02*
G01X4073Y22232D01*
G01X4073Y22232D02*
G01X2812Y22232D01*
G01X2812Y22232D02*
G01X2625Y22420D01*
G01X2625Y22420D02*
G01X1850Y22420D01*
G01X11850Y21420D02*
G01X9260Y21420D01*
G01X9260Y21420D02*
G01X7260Y19420D01*
G01X7260Y19420D02*
G01X4850Y19420D01*
G01X14850Y22420D02*
G01X14061Y22420D01*
G01X14061Y22420D02*
G01X13061Y21420D01*
G01X13061Y21420D02*
G01X11850Y21420D01*
G01X14850Y34420D02*
G01X14462Y34420D01*
G01X14462Y34420D02*
G01X13462Y33420D01*
G01X13462Y33420D02*
G01X11850Y33420D01*
G01X24850Y34420D02*
G01X24075Y35195D01*
G01X24075Y35195D02*
G01X15625Y35195D01*
G01X15625Y35195D02*
G01X14850Y34420D01*
G01X4850Y19420D02*
G01X4753Y19420D01*
G01X4753Y19420D02*
G01X4073Y20099D01*
G01X4073Y20099D02*
G01X4073Y22232D01*
G01X4850Y10420D02*
G01X5100Y10420D01*
G01X5100Y10420D02*
G01X8100Y7420D01*
G54D16*
G01X24850Y33420D02*
G01X24824Y33420D01*
G01X24824Y33420D02*
G01X23096Y31691D01*
G01X23096Y31691D02*
G01X23096Y28639D01*
G01X23096Y28639D02*
G01X21750Y27294D01*
G01X21750Y27294D02*
G01X2975Y27294D01*
G01X2975Y27294D02*
G01X1850Y28420D01*
G01X1850Y8420D02*
G01X1819Y8420D01*
G01X1819Y8420D02*
G01X1125Y9114D01*
G01X1125Y9114D02*
G01X1125Y10882D01*
G01X1125Y10882D02*
G01X5424Y14381D01*
G54D15*
G01X11483Y14381D03*
G54D16*
G01X5424Y14381D02*
G01X11483Y14381D01*
G01X21850Y4420D02*
G01X21818Y4420D01*
G01X21818Y4420D02*
G01X17818Y8420D01*
G01X17818Y8420D02*
G01X14850Y8420D01*
G01X11850Y18420D02*
G01X11822Y18420D01*
G01X11822Y18420D02*
G01X11083Y17681D01*
G01X11083Y17681D02*
G01X11483Y14381D01*
G01X44850Y33420D02*
G01X41850Y33420D01*
G01X34850Y16420D02*
G01X33893Y16420D01*
G01X33893Y16420D02*
G01X31893Y18420D01*
G01X31893Y18420D02*
G01X31850Y18420D01*
G01X21850Y10420D02*
G01X22575Y10420D01*
G01X22575Y10420D02*
G01X27256Y15101D01*
G54D15*
G01X28677Y15101D03*
G54D16*
G01X27256Y15101D02*
G01X28677Y15101D01*
G01X31000Y34000D02*
G01X29551Y35448D01*
G01X29551Y35448D02*
G01X11691Y35448D01*
G01X11691Y35448D02*
G01X8181Y31938D01*
G01X8181Y31938D02*
G01X8181Y31724D01*
G01X8181Y31724D02*
G01X4876Y28420D01*
G01X4876Y28420D02*
G01X4850Y28420D01*
G01X1850Y5420D02*
G01X1700Y5400D01*
G01X1700Y5400D02*
G01X2300Y5400D01*
G54D15*
G01X3500Y4200D03*
G54D16*
G01X2300Y5400D02*
G01X3500Y4200D01*
G54D15*
G01X16100Y1800D03*
G54D16*
G01X16100Y1800D02*
G01X16449Y2149D01*
G01X16449Y2149D02*
G01X16849Y2149D01*
G01X16849Y2149D02*
G01X21173Y2149D01*
G01X21173Y2149D02*
G01X21750Y2150D01*
G01X21750Y2150D02*
G01X23800Y4200D01*
G01X23800Y4200D02*
G01X23905Y4305D01*
G01X23905Y4305D02*
G01X23905Y4882D01*
G01X23905Y4882D02*
G01X23905Y5507D01*
G01X23905Y5507D02*
G01X24818Y6420D01*
G01X24818Y6420D02*
G01X24850Y6420D01*
G01X31850Y22420D02*
G01X32575Y22420D01*
G01X32575Y22420D02*
G01X33300Y23145D01*
G01X33300Y23145D02*
G01X35150Y23145D01*
G01X35150Y23145D02*
G01X38518Y19777D01*
G01X38518Y19777D02*
G01X38518Y19724D01*
G01X38518Y19724D02*
G01X41823Y16420D01*
G01X41823Y16420D02*
G01X41850Y16420D01*
G01X24850Y21420D02*
G01X28554Y21420D01*
G01X28554Y21420D02*
G01X30681Y23546D01*
G01X30681Y23546D02*
G01X35722Y23546D01*
G01X35722Y23546D02*
G01X40849Y18420D01*
G01X40849Y18420D02*
G01X41850Y18420D01*
G01X24850Y28420D02*
G01X21882Y25452D01*
G01X21882Y25452D02*
G01X3694Y25452D01*
G01X3694Y25452D02*
G01X1122Y22880D01*
G01X1122Y22880D02*
G01X1122Y18116D01*
G01X1122Y18116D02*
G01X1818Y17420D01*
G01X1818Y17420D02*
G01X1850Y17420D01*
G01X36000Y34000D02*
G01X32830Y34000D01*
G01X32830Y34000D02*
G01X27250Y28420D01*
G01X27250Y28420D02*
G01X24850Y28420D01*
G01X31000Y31000D02*
G01X31000Y28000D01*
G01X11850Y32420D02*
G01X10108Y32420D01*
G01X10108Y32420D02*
G01X5383Y27695D01*
G01X5383Y27695D02*
G01X4546Y27695D01*
G01X4546Y27695D02*
G01X4125Y28116D01*
G01X4125Y28116D02*
G01X4125Y30178D01*
G01X4125Y30178D02*
G01X1883Y32420D01*
G01X1883Y32420D02*
G01X1850Y32420D01*
G01X14850Y33420D02*
G01X13906Y33420D01*
G01X13906Y33420D02*
G01X12906Y32420D01*
G01X12906Y32420D02*
G01X11850Y32420D01*
G01X44850Y28420D02*
G01X44824Y28420D01*
G01X44824Y28420D02*
G01X42824Y30420D01*
G01X42824Y30420D02*
G01X41850Y30420D01*
G01X36000Y28000D02*
G01X38420Y30420D01*
G01X38420Y30420D02*
G01X41850Y30420D01*
G01X14850Y5420D02*
G01X14823Y5420D01*
G01X14823Y5420D02*
G01X12894Y7349D01*
G01X12894Y7349D02*
G01X12894Y7403D01*
G01X12894Y7403D02*
G01X11877Y8420D01*
G01X11877Y8420D02*
G01X11850Y8420D01*
G01X21850Y29420D02*
G01X17831Y29420D01*
G01X17831Y29420D02*
G01X16106Y27695D01*
G01X16106Y27695D02*
G01X14546Y27695D01*
G01X14546Y27695D02*
G01X12821Y29420D01*
G01X12821Y29420D02*
G01X11850Y29420D01*
G01X41850Y29420D02*
G01X38742Y29420D01*
G01X38742Y29420D02*
G01X34359Y25036D01*
G54D15*
G01X9357Y25036D03*
G54D16*
G01X34359Y25036D02*
G01X9357Y25036D01*
G01X9357Y25036D02*
G01X9357Y24900D01*
G01X9357Y24900D02*
G01X4877Y20420D01*
G01X4877Y20420D02*
G01X4850Y20420D01*
G01X27500Y2500D02*
G01X27500Y2632D01*
G01X27500Y2632D02*
G01X30287Y5420D01*
G01X30287Y5420D02*
G01X31850Y5420D01*
G54D15*
G01X26192Y3572D03*
G54D16*
G01X26192Y3572D02*
G01X26560Y3572D01*
G01X26560Y3572D02*
G01X27500Y2632D01*
G01X36000Y31000D02*
G01X39420Y34420D01*
G01X39420Y34420D02*
G01X41850Y34420D01*
G01X11850Y30420D02*
G01X9383Y30420D01*
G01X9383Y30420D02*
G01X6457Y27494D01*
G01X6457Y27494D02*
G01X4463Y27494D01*
G01X4463Y27494D02*
G01X2537Y29420D01*
G01X2537Y29420D02*
G01X1850Y29420D01*
G01X11850Y20420D02*
G01X11875Y20420D01*
G01X11875Y20420D02*
G01X13823Y18472D01*
G01X13823Y18472D02*
G01X13823Y16421D01*
G01X13823Y16421D02*
G01X14555Y15689D01*
G01X14555Y15689D02*
G01X15144Y15689D01*
G01X15144Y15689D02*
G01X19875Y20420D01*
G01X19875Y20420D02*
G01X21850Y20420D01*
G01X4850Y9420D02*
G01X1850Y9420D01*
G01X24850Y5420D02*
G01X24850Y4420D01*
G54D15*
G01X24393Y15086D03*
G54D16*
G01X24393Y15086D02*
G01X17327Y9420D01*
G01X17327Y9420D02*
G01X14850Y9420D01*
G01X31850Y20420D02*
G01X31122Y20420D01*
G01X31122Y20420D02*
G01X31122Y22879D01*
G01X31122Y22879D02*
G01X31589Y23346D01*
G01X31589Y23346D02*
G01X35438Y23346D01*
G01X35438Y23346D02*
G01X41365Y17420D01*
G01X41365Y17420D02*
G01X41850Y17420D01*
G01X24850Y16420D02*
G01X27122Y16420D01*
G01X27122Y16420D02*
G01X31122Y20420D01*
G01X24850Y10420D02*
G01X24817Y10420D01*
G01X24817Y10420D02*
G01X23520Y9122D01*
G01X23520Y9122D02*
G01X23520Y4579D01*
G01X23520Y4579D02*
G01X22235Y3294D01*
G01X22235Y3294D02*
G01X14460Y3294D01*
G01X14460Y3294D02*
G01X12534Y5420D01*
G01X12534Y5420D02*
G01X11850Y5420D01*
G01X24850Y10420D02*
G01X29296Y14866D01*
G01X29296Y14866D02*
G01X43296Y14866D01*
G01X43296Y14866D02*
G01X44850Y16420D01*

G04 Draw clearances for text*

G04 -------------- Draw Parts, Pads, Traces, Vias and Text (positive)*
%LPD*%
G04 Draw part IC_CD4016_1*
G54D19*
G01X11850Y10420D03*
G54D20*
G01X11850Y9420D03*
G01X11850Y8420D03*
G01X11850Y7420D03*
G01X11850Y6420D03*
G01X11850Y5420D03*
G01X11850Y4420D03*
G01X14850Y4420D03*
G01X14850Y5420D03*
G01X14850Y6420D03*
G01X14850Y7420D03*
G01X14850Y8420D03*
G01X14850Y9420D03*
G01X14850Y10420D03*
G04 Draw part IC_CD4007_2*
G54D19*
G01X31850Y10420D03*
G54D20*
G01X31850Y9420D03*
G01X31850Y8420D03*
G01X31850Y7420D03*
G01X31850Y6420D03*
G01X31850Y5420D03*
G01X31850Y4420D03*
G01X34850Y4420D03*
G01X34850Y5420D03*
G01X34850Y6420D03*
G01X34850Y7420D03*
G01X34850Y8420D03*
G01X34850Y9420D03*
G01X34850Y10420D03*
G04 Draw part R_12K_3*
G54D19*
G01X41850Y22420D03*
G54D20*
G01X41850Y21420D03*
G01X41850Y20420D03*
G01X41850Y19420D03*
G01X41850Y18420D03*
G01X41850Y17420D03*
G01X41850Y16420D03*
G01X44850Y16420D03*
G01X44850Y17420D03*
G01X44850Y18420D03*
G01X44850Y19420D03*
G01X44850Y20420D03*
G01X44850Y21420D03*
G01X44850Y22420D03*
G04 Draw part IC_CD4007_4*
G54D19*
G01X21850Y22420D03*
G54D20*
G01X21850Y21420D03*
G01X21850Y20420D03*
G01X21850Y19420D03*
G01X21850Y18420D03*
G01X21850Y17420D03*
G01X21850Y16420D03*
G01X24850Y16420D03*
G01X24850Y17420D03*
G01X24850Y18420D03*
G01X24850Y19420D03*
G01X24850Y20420D03*
G01X24850Y21420D03*
G01X24850Y22420D03*
G04 Draw part IC_CD4007_5*
G54D19*
G01X31850Y22420D03*
G54D20*
G01X31850Y21420D03*
G01X31850Y20420D03*
G01X31850Y19420D03*
G01X31850Y18420D03*
G01X31850Y17420D03*
G01X31850Y16420D03*
G01X34850Y16420D03*
G01X34850Y17420D03*
G01X34850Y18420D03*
G01X34850Y19420D03*
G01X34850Y20420D03*
G01X34850Y21420D03*
G01X34850Y22420D03*
G04 Draw part R_12K_6*
G54D19*
G01X21850Y10420D03*
G54D20*
G01X21850Y9420D03*
G01X21850Y8420D03*
G01X21850Y7420D03*
G01X21850Y6420D03*
G01X21850Y5420D03*
G01X21850Y4420D03*
G01X24850Y4420D03*
G01X24850Y5420D03*
G01X24850Y6420D03*
G01X24850Y7420D03*
G01X24850Y8420D03*
G01X24850Y9420D03*
G01X24850Y10420D03*
G04 Draw part IC_CD4016_7*
G54D19*
G01X1850Y22420D03*
G54D20*
G01X1850Y21420D03*
G01X1850Y20420D03*
G01X1850Y19420D03*
G01X1850Y18420D03*
G01X1850Y17420D03*
G01X1850Y16420D03*
G01X4850Y16420D03*
G01X4850Y17420D03*
G01X4850Y18420D03*
G01X4850Y19420D03*
G01X4850Y20420D03*
G01X4850Y21420D03*
G01X4850Y22420D03*
G04 Draw part IC_CD4007_8*
G54D19*
G01X11850Y22420D03*
G54D20*
G01X11850Y21420D03*
G01X11850Y20420D03*
G01X11850Y19420D03*
G01X11850Y18420D03*
G01X11850Y17420D03*
G01X11850Y16420D03*
G01X14850Y16420D03*
G01X14850Y17420D03*
G01X14850Y18420D03*
G01X14850Y19420D03*
G01X14850Y20420D03*
G01X14850Y21420D03*
G01X14850Y22420D03*
G04 Draw part IC_CD4007_9*
G54D19*
G01X1850Y10420D03*
G54D20*
G01X1850Y9420D03*
G01X1850Y8420D03*
G01X1850Y7420D03*
G01X1850Y6420D03*
G01X1850Y5420D03*
G01X1850Y4420D03*
G01X4850Y4420D03*
G01X4850Y5420D03*
G01X4850Y6420D03*
G01X4850Y7420D03*
G01X4850Y8420D03*
G01X4850Y9420D03*
G01X4850Y10420D03*
G04 Draw part R_12K_10*
G54D19*
G01X1850Y34420D03*
G54D20*
G01X1850Y33420D03*
G01X1850Y32420D03*
G01X1850Y31420D03*
G01X1850Y30420D03*
G01X1850Y29420D03*
G01X1850Y28420D03*
G01X4850Y28420D03*
G01X4850Y29420D03*
G01X4850Y30420D03*
G01X4850Y31420D03*
G01X4850Y32420D03*
G01X4850Y33420D03*
G01X4850Y34420D03*
G04 Draw part IC_CD4016_11*
G54D19*
G01X41850Y10420D03*
G54D20*
G01X41850Y9420D03*
G01X41850Y8420D03*
G01X41850Y7420D03*
G01X41850Y6420D03*
G01X41850Y5420D03*
G01X41850Y4420D03*
G01X44850Y4420D03*
G01X44850Y5420D03*
G01X44850Y6420D03*
G01X44850Y7420D03*
G01X44850Y8420D03*
G01X44850Y9420D03*
G01X44850Y10420D03*
G04 Draw part IC_CD4007_12*
G54D19*
G01X11850Y34420D03*
G54D20*
G01X11850Y33420D03*
G01X11850Y32420D03*
G01X11850Y31420D03*
G01X11850Y30420D03*
G01X11850Y29420D03*
G01X11850Y28420D03*
G01X14850Y28420D03*
G01X14850Y29420D03*
G01X14850Y30420D03*
G01X14850Y31420D03*
G01X14850Y32420D03*
G01X14850Y33420D03*
G01X14850Y34420D03*
G04 Draw part IC_CD4007_13*
G54D19*
G01X21850Y34420D03*
G54D20*
G01X21850Y33420D03*
G01X21850Y32420D03*
G01X21850Y31420D03*
G01X21850Y30420D03*
G01X21850Y29420D03*
G01X21850Y28420D03*
G01X24850Y28420D03*
G01X24850Y29420D03*
G01X24850Y30420D03*
G01X24850Y31420D03*
G01X24850Y32420D03*
G01X24850Y33420D03*
G01X24850Y34420D03*
G04 Draw part IC_CD4007_15*
G54D19*
G01X41850Y34420D03*
G54D20*
G01X41850Y33420D03*
G01X41850Y32420D03*
G01X41850Y31420D03*
G01X41850Y30420D03*
G01X41850Y29420D03*
G01X41850Y28420D03*
G01X44850Y28420D03*
G01X44850Y29420D03*
G01X44850Y30420D03*
G01X44850Y31420D03*
G01X44850Y32420D03*
G01X44850Y33420D03*
G01X44850Y34420D03*
G04 Draw part SD*
G54D16*
G01X26300Y1300D03*
G01X26700Y1300D03*
G01X26300Y1700D03*
G01X26700Y1700D03*
G36*
G01X26300Y1150D02*
G01X26300Y1850D01*
G01X26700Y1850D01*
G01X26700Y1150D01*
G01X26300Y1150D01*
G37*
G36*
G01X26150Y1300D02*
G01X26150Y1700D01*
G01X26850Y1700D01*
G01X26850Y1300D01*
G01X26150Y1300D01*
G37*
G54D21*
G01X26500Y2500D03*
G01X27500Y1500D03*
G01X27500Y2500D03*
G01X28500Y1500D03*
G01X28500Y2500D03*
G01X29500Y1500D03*
G01X29500Y2500D03*
G04 Draw part R1*
G54D12*
G01X31000Y34000D03*
G01X36000Y34000D03*
G04 Draw part R2*
G01X31000Y31000D03*
G01X36000Y31000D03*
G04 Draw part R3*
G01X31000Y28000D03*
G01X36000Y28000D03*

G04 Draw traces*
G54D22*
G01X36779Y14542D03*
G54D23*
G01X36779Y14542D02*
G01X32657Y10420D01*
G01X32657Y10420D02*
G01X31850Y10420D01*
G01X44850Y19420D02*
G01X44817Y19420D01*
G01X44817Y19420D02*
G01X43518Y18121D01*
G01X43518Y18121D02*
G01X43518Y17062D01*
G01X43518Y17062D02*
G01X42150Y15694D01*
G01X42150Y15694D02*
G01X33604Y15694D01*
G01X33604Y15694D02*
G01X32878Y16421D01*
G01X32878Y16421D02*
G01X31878Y15421D01*
G01X31878Y15421D02*
G01X29568Y15421D01*
G01X29568Y15421D02*
G01X25450Y11503D01*
G01X25450Y11503D02*
G01X24705Y11303D01*
G01X24705Y11303D02*
G01X22918Y9517D01*
G01X22918Y9517D02*
G01X22918Y4460D01*
G01X22918Y4460D02*
G01X22152Y3694D01*
G01X22152Y3694D02*
G01X14550Y3694D01*
G01X14550Y3694D02*
G01X13083Y5161D01*
G01X13083Y5161D02*
G01X13083Y5216D01*
G01X13083Y5216D02*
G01X11880Y6420D01*
G01X11880Y6420D02*
G01X11850Y6420D01*
G01X31850Y17420D02*
G01X31879Y17420D01*
G01X31879Y17420D02*
G01X32878Y16421D01*
G54D24*
G01X11850Y4420D02*
G01X11850Y2587D01*
G01X11850Y2587D02*
G01X12033Y2403D01*
G01X11850Y16420D02*
G01X12830Y15439D01*
G01X12830Y15439D02*
G01X12830Y10625D01*
G01X12830Y10625D02*
G01X12625Y10420D01*
G01X12625Y10420D02*
G01X11850Y10420D01*
G01X31850Y4420D02*
G01X31948Y4420D01*
G01X31948Y4420D02*
G01X32629Y5101D01*
G01X32629Y5101D02*
G01X32629Y6744D01*
G01X32629Y6744D02*
G01X31953Y7420D01*
G01X31953Y7420D02*
G01X31850Y7420D01*
G01X28500Y1500D02*
G01X28500Y1290D01*
G01X28500Y1290D02*
G01X29141Y648D01*
G01X29141Y648D02*
G01X29851Y648D01*
G01X29851Y648D02*
G01X31850Y2647D01*
G01X31850Y2647D02*
G01X31850Y4420D01*
G01X31850Y19420D02*
G01X31749Y19420D01*
G01X31749Y19420D02*
G01X31071Y18741D01*
G01X31071Y18741D02*
G01X31071Y17099D01*
G01X31071Y17099D02*
G01X29918Y17099D01*
G01X29918Y17099D02*
G01X28463Y15644D01*
G01X28463Y15644D02*
G01X24393Y15644D01*
G01X24393Y15644D02*
G01X22941Y17097D01*
G01X22941Y17097D02*
G01X22625Y17097D01*
G01X22625Y17097D02*
G01X22625Y18748D01*
G01X22625Y18748D02*
G01X21953Y19420D01*
G01X21953Y19420D02*
G01X21850Y19420D01*
G01X41850Y28420D02*
G01X37387Y23957D01*
G01X37387Y23957D02*
G01X32479Y23957D01*
G54D22*
G01X32479Y23957D03*
G54D24*
G01X1850Y7420D02*
G01X1744Y7420D01*
G01X1744Y7420D02*
G01X873Y8290D01*
G01X873Y8290D02*
G01X873Y15443D01*
G01X873Y15443D02*
G01X1850Y16420D01*
G01X4850Y16420D02*
G01X1850Y16420D01*
G01X11850Y19420D02*
G01X9308Y19420D01*
G01X9308Y19420D02*
G01X6308Y16420D01*
G01X6308Y16420D02*
G01X4850Y16420D01*
G01X11850Y16420D02*
G01X11947Y16420D01*
G01X11947Y16420D02*
G01X12626Y17099D01*
G01X12626Y17099D02*
G01X12626Y18743D01*
G01X12626Y18743D02*
G01X11950Y19420D01*
G01X11950Y19420D02*
G01X11850Y19420D01*
G01X21850Y16420D02*
G01X20869Y15439D01*
G01X20869Y15439D02*
G01X12830Y15439D01*
G01X14850Y7420D02*
G01X14753Y7420D01*
G01X14753Y7420D02*
G01X12625Y9548D01*
G01X12625Y9548D02*
G01X12625Y10420D01*
G01X31850Y16420D02*
G01X31751Y16420D01*
G01X31751Y16420D02*
G01X31071Y17099D01*
G01X21850Y16420D02*
G01X21948Y16420D01*
G01X21948Y16420D02*
G01X22625Y17097D01*
G01X41850Y4420D02*
G01X41073Y3643D01*
G01X41073Y3643D02*
G01X34087Y3643D01*
G01X34087Y3643D02*
G01X32629Y5101D01*
G54D23*
G01X4850Y4420D02*
G01X4093Y4420D01*
G01X4093Y4420D02*
G01X2093Y6420D01*
G01X2093Y6420D02*
G01X1850Y6420D01*
G54D24*
G01X11850Y7420D02*
G01X8100Y7420D01*
G01X8100Y7420D02*
G01X8100Y3400D01*
G01X26500Y1500D02*
G01X26296Y1500D01*
G01X26296Y1500D02*
G01X25646Y2149D01*
G01X25646Y2149D02*
G01X25646Y3508D01*
G01X25646Y3508D02*
G01X31558Y9420D01*
G01X31558Y9420D02*
G01X31850Y9420D01*
G01X34850Y10420D02*
G01X34462Y10420D01*
G01X34462Y10420D02*
G01X33462Y9420D01*
G01X33462Y9420D02*
G01X31850Y9420D01*
G01X44850Y10420D02*
G01X44075Y11195D01*
G01X44075Y11195D02*
G01X35625Y11195D01*
G01X35625Y11195D02*
G01X34850Y10420D01*
G01X24850Y22420D02*
G01X24139Y22420D01*
G01X24139Y22420D02*
G01X23139Y21420D01*
G01X23139Y21420D02*
G01X21850Y21420D01*
G01X14850Y22420D02*
G01X18056Y22420D01*
G01X18056Y22420D02*
G01X19056Y21420D01*
G01X19056Y21420D02*
G01X21850Y21420D01*
G01X4850Y22420D02*
G01X4260Y22420D01*
G01X4260Y22420D02*
G01X4073Y22232D01*
G01X4073Y22232D02*
G01X2812Y22232D01*
G01X2812Y22232D02*
G01X2625Y22420D01*
G01X2625Y22420D02*
G01X1850Y22420D01*
G01X11850Y21420D02*
G01X9260Y21420D01*
G01X9260Y21420D02*
G01X7260Y19420D01*
G01X7260Y19420D02*
G01X4850Y19420D01*
G01X14850Y22420D02*
G01X14061Y22420D01*
G01X14061Y22420D02*
G01X13061Y21420D01*
G01X13061Y21420D02*
G01X11850Y21420D01*
G01X14850Y34420D02*
G01X14462Y34420D01*
G01X14462Y34420D02*
G01X13462Y33420D01*
G01X13462Y33420D02*
G01X11850Y33420D01*
G01X24850Y34420D02*
G01X24075Y35195D01*
G01X24075Y35195D02*
G01X15625Y35195D01*
G01X15625Y35195D02*
G01X14850Y34420D01*
G01X4850Y19420D02*
G01X4753Y19420D01*
G01X4753Y19420D02*
G01X4073Y20099D01*
G01X4073Y20099D02*
G01X4073Y22232D01*
G01X4850Y10420D02*
G01X5100Y10420D01*
G01X5100Y10420D02*
G01X8100Y7420D01*
G54D23*
G01X24850Y33420D02*
G01X24824Y33420D01*
G01X24824Y33420D02*
G01X23096Y31691D01*
G01X23096Y31691D02*
G01X23096Y28639D01*
G01X23096Y28639D02*
G01X21750Y27294D01*
G01X21750Y27294D02*
G01X2975Y27294D01*
G01X2975Y27294D02*
G01X1850Y28420D01*
G01X1850Y8420D02*
G01X1819Y8420D01*
G01X1819Y8420D02*
G01X1125Y9114D01*
G01X1125Y9114D02*
G01X1125Y10882D01*
G01X1125Y10882D02*
G01X5424Y14381D01*
G01X5424Y14381D02*
G01X11483Y14381D01*
G54D22*
G01X11483Y14381D03*
G54D23*
G01X21850Y4420D02*
G01X21818Y4420D01*
G01X21818Y4420D02*
G01X17818Y8420D01*
G01X17818Y8420D02*
G01X14850Y8420D01*
G01X11850Y18420D02*
G01X11822Y18420D01*
G01X11822Y18420D02*
G01X11083Y17681D01*
G01X11083Y17681D02*
G01X11483Y14381D01*
G01X44850Y33420D02*
G01X41850Y33420D01*
G01X34850Y16420D02*
G01X33893Y16420D01*
G01X33893Y16420D02*
G01X31893Y18420D01*
G01X31893Y18420D02*
G01X31850Y18420D01*
G01X21850Y10420D02*
G01X22575Y10420D01*
G01X22575Y10420D02*
G01X27256Y15101D01*
G01X27256Y15101D02*
G01X28677Y15101D01*
G54D22*
G01X28677Y15101D03*
G54D23*
G01X31000Y34000D02*
G01X29551Y35448D01*
G01X29551Y35448D02*
G01X11691Y35448D01*
G01X11691Y35448D02*
G01X8181Y31938D01*
G01X8181Y31938D02*
G01X8181Y31724D01*
G01X8181Y31724D02*
G01X4876Y28420D01*
G01X4876Y28420D02*
G01X4850Y28420D01*
G01X1850Y5420D02*
G01X1700Y5400D01*
G01X1700Y5400D02*
G01X2300Y5400D01*
G01X2300Y5400D02*
G01X3500Y4200D01*
G54D22*
G01X3500Y4200D03*
G01X16100Y1800D03*
G54D23*
G01X16100Y1800D02*
G01X16449Y2149D01*
G01X16449Y2149D02*
G01X16849Y2149D01*
G01X16849Y2149D02*
G01X21173Y2149D01*
G01X21173Y2149D02*
G01X21750Y2150D01*
G01X21750Y2150D02*
G01X23800Y4200D01*
G01X23800Y4200D02*
G01X23905Y4305D01*
G01X23905Y4305D02*
G01X23905Y4882D01*
G01X23905Y4882D02*
G01X23905Y5507D01*
G01X23905Y5507D02*
G01X24818Y6420D01*
G01X24818Y6420D02*
G01X24850Y6420D01*
G01X31850Y22420D02*
G01X32575Y22420D01*
G01X32575Y22420D02*
G01X33300Y23145D01*
G01X33300Y23145D02*
G01X35150Y23145D01*
G01X35150Y23145D02*
G01X38518Y19777D01*
G01X38518Y19777D02*
G01X38518Y19724D01*
G01X38518Y19724D02*
G01X41823Y16420D01*
G01X41823Y16420D02*
G01X41850Y16420D01*
G01X24850Y21420D02*
G01X28554Y21420D01*
G01X28554Y21420D02*
G01X30681Y23546D01*
G01X30681Y23546D02*
G01X35722Y23546D01*
G01X35722Y23546D02*
G01X40849Y18420D01*
G01X40849Y18420D02*
G01X41850Y18420D01*
G01X24850Y28420D02*
G01X21882Y25452D01*
G01X21882Y25452D02*
G01X3694Y25452D01*
G01X3694Y25452D02*
G01X1122Y22880D01*
G01X1122Y22880D02*
G01X1122Y18116D01*
G01X1122Y18116D02*
G01X1818Y17420D01*
G01X1818Y17420D02*
G01X1850Y17420D01*
G01X36000Y34000D02*
G01X32830Y34000D01*
G01X32830Y34000D02*
G01X27250Y28420D01*
G01X27250Y28420D02*
G01X24850Y28420D01*
G01X31000Y31000D02*
G01X31000Y28000D01*
G01X11850Y32420D02*
G01X10108Y32420D01*
G01X10108Y32420D02*
G01X5383Y27695D01*
G01X5383Y27695D02*
G01X4546Y27695D01*
G01X4546Y27695D02*
G01X4125Y28116D01*
G01X4125Y28116D02*
G01X4125Y30178D01*
G01X4125Y30178D02*
G01X1883Y32420D01*
G01X1883Y32420D02*
G01X1850Y32420D01*
G01X14850Y33420D02*
G01X13906Y33420D01*
G01X13906Y33420D02*
G01X12906Y32420D01*
G01X12906Y32420D02*
G01X11850Y32420D01*
G01X44850Y28420D02*
G01X44824Y28420D01*
G01X44824Y28420D02*
G01X42824Y30420D01*
G01X42824Y30420D02*
G01X41850Y30420D01*
G01X36000Y28000D02*
G01X38420Y30420D01*
G01X38420Y30420D02*
G01X41850Y30420D01*
G01X14850Y5420D02*
G01X14823Y5420D01*
G01X14823Y5420D02*
G01X12894Y7349D01*
G01X12894Y7349D02*
G01X12894Y7403D01*
G01X12894Y7403D02*
G01X11877Y8420D01*
G01X11877Y8420D02*
G01X11850Y8420D01*
G01X21850Y29420D02*
G01X17831Y29420D01*
G01X17831Y29420D02*
G01X16106Y27695D01*
G01X16106Y27695D02*
G01X14546Y27695D01*
G01X14546Y27695D02*
G01X12821Y29420D01*
G01X12821Y29420D02*
G01X11850Y29420D01*
G01X41850Y29420D02*
G01X38742Y29420D01*
G01X38742Y29420D02*
G01X34359Y25036D01*
G01X34359Y25036D02*
G01X9357Y25036D01*
G54D22*
G01X9357Y25036D03*
G54D23*
G01X9357Y25036D02*
G01X9357Y24900D01*
G01X9357Y24900D02*
G01X4877Y20420D01*
G01X4877Y20420D02*
G01X4850Y20420D01*
G01X27500Y2500D02*
G01X27500Y2632D01*
G01X27500Y2632D02*
G01X30287Y5420D01*
G01X30287Y5420D02*
G01X31850Y5420D01*
G54D22*
G01X26192Y3572D03*
G54D23*
G01X26192Y3572D02*
G01X26560Y3572D01*
G01X26560Y3572D02*
G01X27500Y2632D01*
G01X36000Y31000D02*
G01X39420Y34420D01*
G01X39420Y34420D02*
G01X41850Y34420D01*
G01X11850Y30420D02*
G01X9383Y30420D01*
G01X9383Y30420D02*
G01X6457Y27494D01*
G01X6457Y27494D02*
G01X4463Y27494D01*
G01X4463Y27494D02*
G01X2537Y29420D01*
G01X2537Y29420D02*
G01X1850Y29420D01*
G01X11850Y20420D02*
G01X11875Y20420D01*
G01X11875Y20420D02*
G01X13823Y18472D01*
G01X13823Y18472D02*
G01X13823Y16421D01*
G01X13823Y16421D02*
G01X14555Y15689D01*
G01X14555Y15689D02*
G01X15144Y15689D01*
G01X15144Y15689D02*
G01X19875Y20420D01*
G01X19875Y20420D02*
G01X21850Y20420D01*
G01X4850Y9420D02*
G01X1850Y9420D01*
G01X24850Y5420D02*
G01X24850Y4420D01*
G54D22*
G01X24393Y15086D03*
G54D23*
G01X24393Y15086D02*
G01X17327Y9420D01*
G01X17327Y9420D02*
G01X14850Y9420D01*
G01X31850Y20420D02*
G01X31122Y20420D01*
G01X31122Y20420D02*
G01X31122Y22879D01*
G01X31122Y22879D02*
G01X31589Y23346D01*
G01X31589Y23346D02*
G01X35438Y23346D01*
G01X35438Y23346D02*
G01X41365Y17420D01*
G01X41365Y17420D02*
G01X41850Y17420D01*
G01X24850Y16420D02*
G01X27122Y16420D01*
G01X27122Y16420D02*
G01X31122Y20420D01*
G01X24850Y10420D02*
G01X24817Y10420D01*
G01X24817Y10420D02*
G01X23520Y9122D01*
G01X23520Y9122D02*
G01X23520Y4579D01*
G01X23520Y4579D02*
G01X22235Y3294D01*
G01X22235Y3294D02*
G01X14460Y3294D01*
G01X14460Y3294D02*
G01X12534Y5420D01*
G01X12534Y5420D02*
G01X11850Y5420D01*
G01X24850Y10420D02*
G01X29296Y14866D01*
G01X29296Y14866D02*
G01X43296Y14866D01*
G01X43296Y14866D02*
G01X44850Y16420D01*

G04 Draw Text*
M00*
M02*
