G04 FreePCB version 1.343*
G04 Z:\trinary\code\bb\CAM-swrom-fixed\bottom_solder_mask.grb*
G04  layer *
G04 Scale: 100 percent, Rotated: No, Reflected: No *
%FSLAX24Y24*%
%MOIN*%
%LNTop*%
%ADD10C,0.005000*%
%ADD11R,0.071000X0.071000*%
%ADD12C,0.071000*%
%ADD13C,0.091000*%
%ADD14R,0.066000X0.066000*%
%ADD15C,0.066000*%
%ADD16C,0.044000*%
%ADD17C,0.016000*%
G90*
G70D02*

G04 Step and Repeat for panelization *

G04 ----------------------- Draw board outline (positive)*
%LPD*%
G54D10*
G01X10000Y44000D02*
G01X68000Y44000D01*
G04 end of side 1*
G01X68000Y-14000D01*
G04 end of side 2*
G01X10000Y-14000D01*
G04 end of side 3*
G01X10000Y44000D01*

G04 -------------- Draw Parts, Pads, Traces, Vias and Text (positive)*
%LPD*%
G04 Draw part X_IC_0_CD4007*
G54D11*
G01X26000Y-11000D03*
G54D12*
G01X27000Y-11000D03*
G01X28000Y-11000D03*
G01X29000Y-11000D03*
G01X30000Y-11000D03*
G01X31000Y-11000D03*
G01X32000Y-11000D03*
G01X32000Y-8000D03*
G01X31000Y-8000D03*
G01X30000Y-8000D03*
G01X29000Y-8000D03*
G01X28000Y-8000D03*
G01X27000Y-8000D03*
G01X26000Y-8000D03*
G04 Draw part X_IC_1_CD4007*
G54D11*
G01X45300Y-12000D03*
G54D12*
G01X46300Y-12000D03*
G01X47300Y-12000D03*
G01X48300Y-12000D03*
G01X49300Y-12000D03*
G01X50300Y-12000D03*
G01X51300Y-12000D03*
G01X51300Y-9000D03*
G01X50300Y-9000D03*
G01X49300Y-9000D03*
G01X48300Y-9000D03*
G01X47300Y-9000D03*
G01X46300Y-9000D03*
G01X45300Y-9000D03*
G04 Draw part X_IC_2_CD4007*
G54D11*
G01X45000Y2000D03*
G54D12*
G01X46000Y2000D03*
G01X47000Y2000D03*
G01X48000Y2000D03*
G01X49000Y2000D03*
G01X50000Y2000D03*
G01X51000Y2000D03*
G01X51000Y5000D03*
G01X50000Y5000D03*
G01X49000Y5000D03*
G01X48000Y5000D03*
G01X47000Y5000D03*
G01X46000Y5000D03*
G01X45000Y5000D03*
G04 Draw part X_IC_3_CD4007*
G54D11*
G01X59000Y39000D03*
G54D12*
G01X60000Y39000D03*
G01X61000Y39000D03*
G01X62000Y39000D03*
G01X63000Y39000D03*
G01X64000Y39000D03*
G01X65000Y39000D03*
G01X65000Y42000D03*
G01X64000Y42000D03*
G01X63000Y42000D03*
G01X62000Y42000D03*
G01X61000Y42000D03*
G01X60000Y42000D03*
G01X59000Y42000D03*
G04 Draw part X_IC_4_CD4007*
G54D11*
G01X45100Y27800D03*
G54D12*
G01X46100Y27800D03*
G01X47100Y27800D03*
G01X48100Y27800D03*
G01X49100Y27800D03*
G01X50100Y27800D03*
G01X51100Y27800D03*
G01X51100Y30800D03*
G01X50100Y30800D03*
G01X49100Y30800D03*
G01X48100Y30800D03*
G01X47100Y30800D03*
G01X46100Y30800D03*
G01X45100Y30800D03*
G04 Draw part X_IC_5_CD4007*
G54D11*
G01X26000Y40000D03*
G54D12*
G01X27000Y40000D03*
G01X28000Y40000D03*
G01X29000Y40000D03*
G01X30000Y40000D03*
G01X31000Y40000D03*
G01X32000Y40000D03*
G01X32000Y43000D03*
G01X31000Y43000D03*
G01X30000Y43000D03*
G01X29000Y43000D03*
G01X28000Y43000D03*
G01X27000Y43000D03*
G01X26000Y43000D03*
G04 Draw part X_IC_6_CD4007*
G54D11*
G01X60400Y15500D03*
G54D12*
G01X61400Y15500D03*
G01X62400Y15500D03*
G01X63400Y15500D03*
G01X64400Y15500D03*
G01X65400Y15500D03*
G01X66400Y15500D03*
G01X66400Y18500D03*
G01X65400Y18500D03*
G01X64400Y18500D03*
G01X63400Y18500D03*
G01X62400Y18500D03*
G01X61400Y18500D03*
G01X60400Y18500D03*
G04 Draw part X_IC_7_CD4007*
G54D11*
G01X60800Y1400D03*
G54D12*
G01X61800Y1400D03*
G01X62800Y1400D03*
G01X63800Y1400D03*
G01X64800Y1400D03*
G01X65800Y1400D03*
G01X66800Y1400D03*
G01X66800Y4400D03*
G01X65800Y4400D03*
G01X64800Y4400D03*
G01X63800Y4400D03*
G01X62800Y4400D03*
G01X61800Y4400D03*
G01X60800Y4400D03*
G04 Draw part X_IC_8_CD4007*
G54D11*
G01X61000Y28000D03*
G54D12*
G01X62000Y28000D03*
G01X63000Y28000D03*
G01X64000Y28000D03*
G01X65000Y28000D03*
G01X66000Y28000D03*
G01X67000Y28000D03*
G01X67000Y31000D03*
G01X66000Y31000D03*
G01X65000Y31000D03*
G01X64000Y31000D03*
G01X63000Y31000D03*
G01X62000Y31000D03*
G01X61000Y31000D03*
G04 Draw part X_IC_9_CD4007*
G54D11*
G01X26000Y2000D03*
G54D12*
G01X27000Y2000D03*
G01X28000Y2000D03*
G01X29000Y2000D03*
G01X30000Y2000D03*
G01X31000Y2000D03*
G01X32000Y2000D03*
G01X32000Y5000D03*
G01X31000Y5000D03*
G01X30000Y5000D03*
G01X29000Y5000D03*
G01X28000Y5000D03*
G01X27000Y5000D03*
G01X26000Y5000D03*
G04 Draw part X_IC_10_CD4007*
G54D11*
G01X25600Y15700D03*
G54D12*
G01X26600Y15700D03*
G01X27600Y15700D03*
G01X28600Y15700D03*
G01X29600Y15700D03*
G01X30600Y15700D03*
G01X31600Y15700D03*
G01X31600Y18700D03*
G01X30600Y18700D03*
G01X29600Y18700D03*
G01X28600Y18700D03*
G01X27600Y18700D03*
G01X26600Y18700D03*
G01X25600Y18700D03*
G04 Draw part X_IC_11_CD4007*
G54D11*
G01X25300Y28200D03*
G54D12*
G01X26300Y28200D03*
G01X27300Y28200D03*
G01X28300Y28200D03*
G01X29300Y28200D03*
G01X30300Y28200D03*
G01X31300Y28200D03*
G01X31300Y31200D03*
G01X30300Y31200D03*
G01X29300Y31200D03*
G01X28300Y31200D03*
G01X27300Y31200D03*
G01X26300Y31200D03*
G01X25300Y31200D03*
G04 Draw part X_IC_15_CD4016*
G54D11*
G01X13000Y40000D03*
G54D12*
G01X14000Y40000D03*
G01X15000Y40000D03*
G01X16000Y40000D03*
G01X17000Y40000D03*
G01X18000Y40000D03*
G01X19000Y40000D03*
G01X19000Y43000D03*
G01X18000Y43000D03*
G01X17000Y43000D03*
G01X16000Y43000D03*
G01X15000Y43000D03*
G01X14000Y43000D03*
G01X13000Y43000D03*
G04 Draw part X_IC_16_CD4016*
G54D11*
G01X45000Y16000D03*
G54D12*
G01X46000Y16000D03*
G01X47000Y16000D03*
G01X48000Y16000D03*
G01X49000Y16000D03*
G01X50000Y16000D03*
G01X51000Y16000D03*
G01X51000Y19000D03*
G01X50000Y19000D03*
G01X49000Y19000D03*
G01X48000Y19000D03*
G01X47000Y19000D03*
G01X46000Y19000D03*
G01X45000Y19000D03*
G04 Draw part X_IC_17_CD4016*
G54D11*
G01X45000Y40000D03*
G54D12*
G01X46000Y40000D03*
G01X47000Y40000D03*
G01X48000Y40000D03*
G01X49000Y40000D03*
G01X50000Y40000D03*
G01X51000Y40000D03*
G01X51000Y43000D03*
G01X50000Y43000D03*
G01X49000Y43000D03*
G01X48000Y43000D03*
G01X47000Y43000D03*
G01X46000Y43000D03*
G01X45000Y43000D03*
G04 Draw part R1*
G54D13*
G01X36000Y-5000D03*
G01X36000Y-10000D03*
G04 Draw part R2*
G01X41000Y-10000D03*
G01X41000Y-5000D03*
G04 Draw part R3*
G01X26000Y-3000D03*
G01X31000Y-3000D03*
G04 Draw part R4*
G01X26100Y-4700D03*
G01X31100Y-4700D03*
G04 Draw part R5*
G01X40000Y28200D03*
G01X40000Y23200D03*
G04 Draw part R6*
G01X40000Y19000D03*
G01X40000Y14000D03*
G04 Draw part R7*
G01X37000Y34000D03*
G01X37000Y29000D03*
G04 Draw part R8*
G01X46000Y-4900D03*
G01X51000Y-4900D03*
G04 Draw part R9*
G01X55000Y1000D03*
G01X55000Y6000D03*
G04 Draw part R10*
G01X46000Y-3000D03*
G01X51000Y-3000D03*
G04 Draw part R11*
G01X46000Y9000D03*
G01X51000Y9000D03*
G04 Draw part R12*
G01X46000Y12000D03*
G01X51000Y12000D03*
G04 Draw part R13*
G01X40000Y9000D03*
G01X40000Y4000D03*
G04 Draw part R14*
G01X55000Y15000D03*
G01X55000Y10000D03*
G04 Draw part R15*
G01X55000Y32000D03*
G01X55000Y27000D03*
G04 Draw part R16*
G01X46100Y35500D03*
G01X51100Y35500D03*
G04 Draw part R17*
G01X46000Y23000D03*
G01X51000Y23000D03*
G04 Draw part R18*
G01X46000Y25000D03*
G01X51000Y25000D03*
G04 Draw part R19*
G01X26000Y33000D03*
G01X31000Y33000D03*
G04 Draw part R20*
G01X26000Y36000D03*
G01X31000Y36000D03*
G04 Draw part R21*
G01X36000Y39000D03*
G01X41000Y39000D03*
G04 Draw part R22*
G01X55000Y39000D03*
G01X55000Y34000D03*
G04 Draw part R23*
G01X61000Y24000D03*
G01X66000Y24000D03*
G04 Draw part R24*
G01X62000Y34000D03*
G01X67000Y34000D03*
G04 Draw part R25*
G01X61200Y7900D03*
G01X66200Y7900D03*
G04 Draw part R26*
G01X55000Y-1000D03*
G01X55000Y-6000D03*
G04 Draw part R27*
G01X40000Y35000D03*
G01X40000Y30000D03*
G04 Draw part R28*
G01X61100Y10400D03*
G01X66100Y10400D03*
G04 Draw part R29*
G01X58000Y29000D03*
G01X58000Y24000D03*
G04 Draw part R30*
G01X62000Y36000D03*
G01X67000Y36000D03*
G04 Draw part R31*
G01X36000Y42000D03*
G01X41000Y42000D03*
G04 Draw part R32*
G01X55000Y23000D03*
G01X55000Y18000D03*
G04 Draw part R33*
G01X27000Y9000D03*
G01X32000Y9000D03*
G04 Draw part R34*
G01X61000Y22000D03*
G01X66000Y22000D03*
G04 Draw part R35*
G01X36000Y-2000D03*
G01X41000Y-2000D03*
G04 Draw part R36*
G01X36000Y1000D03*
G01X41000Y1000D03*
G04 Draw part R37*
G01X26000Y22300D03*
G01X31000Y22300D03*
G04 Draw part R38*
G01X27000Y11000D03*
G01X32000Y11000D03*
G04 Draw part R39*
G01X26000Y24600D03*
G01X31000Y24600D03*
G04 Draw part R40*
G01X37000Y28000D03*
G01X37000Y23000D03*
G04 Draw part R41*
G01X37000Y9000D03*
G01X37000Y4000D03*
G04 Draw part R42*
G01X37000Y19000D03*
G01X37000Y14000D03*
G04 Draw part X$XXiA$XXsw*
G01X11800Y36100D03*
G01X12800Y36100D03*
G01X13800Y36100D03*
G01X15800Y36100D03*
G04 Draw part X$XXiB$XXsw*
G01X11800Y31100D03*
G01X12800Y31100D03*
G01X13800Y31100D03*
G01X15800Y31100D03*
G04 Draw part X$XXiC$XXsw*
G01X11800Y26100D03*
G01X12800Y26100D03*
G01X13800Y26100D03*
G01X15800Y26100D03*
G04 Draw part X$XX0A$XXsw*
G01X11800Y18600D03*
G01X12800Y18600D03*
G01X13800Y18600D03*
G01X15800Y18600D03*
G04 Draw part X$XX0B$XXsw*
G01X11800Y13600D03*
G01X12800Y13600D03*
G01X13800Y13600D03*
G01X15800Y13600D03*
G04 Draw part X$XX0C$XXsw*
G01X11800Y8600D03*
G01X12800Y8600D03*
G01X13800Y8600D03*
G01X15800Y8600D03*
G04 Draw part X$XX1A$XXsw*
G01X11800Y1100D03*
G01X12800Y1100D03*
G01X13800Y1100D03*
G01X15800Y1100D03*
G04 Draw part X$XX1B$XXsw*
G01X11800Y-3900D03*
G01X12800Y-3900D03*
G01X13800Y-3900D03*
G01X15800Y-3900D03*
G04 Draw part X$XX1C$XXsw*
G01X11800Y-8900D03*
G01X12800Y-8900D03*
G01X13800Y-8900D03*
G01X15800Y-8900D03*
G04 Draw part V$XX1$Vdd*
G54D14*
G01X62000Y-10000D03*
G54D15*
G01X62000Y-11000D03*
G04 Draw part V$XX1$Vss*
G54D14*
G01X58000Y-11000D03*
G54D15*
G01X58000Y-10000D03*
G04 Draw part DATA_AND_ADDR*
G54D14*
G01X62000Y-4000D03*
G54D15*
G01X63000Y-4000D03*
G01X62000Y-5000D03*
G01X63000Y-5000D03*
G01X62000Y-6000D03*
G01X63000Y-6000D03*
G01X62000Y-7000D03*
G01X63000Y-7000D03*

G04 Draw traces*
G54D16*
G01X51920Y22695D03*
G01X39799Y27572D03*
G01X39560Y29383D03*
G01X33870Y37586D03*
G01X51375Y14016D03*
G01X59157Y41479D03*
G01X36875Y26702D03*
G01X43475Y-1088D03*
G01X17592Y21198D03*
G01X57516Y32800D03*
G01X47654Y17050D03*
G01X21965Y18354D03*
G01X38153Y9227D03*
G01X23072Y16670D03*
G01X22768Y1434D03*
G01X63500Y19699D03*
G01X53773Y32934D03*
G01X50994Y-3630D03*
G01X43769Y18659D03*
G01X18332Y22721D03*
G01X51840Y-3622D03*
G01X61973Y14321D03*
G01X51821Y14321D03*
G01X53088Y3686D03*

G04 Draw Text*
G54D17*

G04 Draw solder mask cutouts*
M00*
M02*
