;Holesize 1 =   28.0 PLATED MILS
;Holesize 2 =   35.0 PLATED MILS
;Holesize 3 =   45.0 PLATED MILS
;Holesize 4 =   14.0 PLATED MILS
M48
INCH
T01C0.028
T02C0.035
T03C0.045
T04C0.014
%
G05
G90
T01
X026000Y-011000
X027000Y-011000
X028000Y-011000
X029000Y-011000
X030000Y-011000
X031000Y-011000
X032000Y-011000
X032000Y-008000
X031000Y-008000
X030000Y-008000
X029000Y-008000
X028000Y-008000
X027000Y-008000
X026000Y-008000
X045300Y-012000
X046300Y-012000
X047300Y-012000
X048300Y-012000
X049300Y-012000
X050300Y-012000
X051300Y-012000
X051300Y-009000
X050300Y-009000
X049300Y-009000
X048300Y-009000
X047300Y-009000
X046300Y-009000
X045300Y-009000
X045000Y002000
X046000Y002000
X047000Y002000
X048000Y002000
X049000Y002000
X050000Y002000
X051000Y002000
X051000Y005000
X050000Y005000
X049000Y005000
X048000Y005000
X047000Y005000
X046000Y005000
X045000Y005000
X059000Y039000
X060000Y039000
X061000Y039000
X062000Y039000
X063000Y039000
X064000Y039000
X065000Y039000
X065000Y042000
X064000Y042000
X063000Y042000
X062000Y042000
X061000Y042000
X060000Y042000
X059000Y042000
X045100Y027800
X046100Y027800
X047100Y027800
X048100Y027800
X049100Y027800
X050100Y027800
X051100Y027800
X051100Y030800
X050100Y030800
X049100Y030800
X048100Y030800
X047100Y030800
X046100Y030800
X045100Y030800
X026000Y040000
X027000Y040000
X028000Y040000
X029000Y040000
X030000Y040000
X031000Y040000
X032000Y040000
X032000Y043000
X031000Y043000
X030000Y043000
X029000Y043000
X028000Y043000
X027000Y043000
X026000Y043000
X060400Y015500
X061400Y015500
X062400Y015500
X063400Y015500
X064400Y015500
X065400Y015500
X066400Y015500
X066400Y018500
X065400Y018500
X064400Y018500
X063400Y018500
X062400Y018500
X061400Y018500
X060400Y018500
X060800Y001400
X061800Y001400
X062800Y001400
X063800Y001400
X064800Y001400
X065800Y001400
X066800Y001400
X066800Y004400
X065800Y004400
X064800Y004400
X063800Y004400
X062800Y004400
X061800Y004400
X060800Y004400
X061000Y028000
X062000Y028000
X063000Y028000
X064000Y028000
X065000Y028000
X066000Y028000
X067000Y028000
X067000Y031000
X066000Y031000
X065000Y031000
X064000Y031000
X063000Y031000
X062000Y031000
X061000Y031000
X026000Y002000
X027000Y002000
X028000Y002000
X029000Y002000
X030000Y002000
X031000Y002000
X032000Y002000
X032000Y005000
X031000Y005000
X030000Y005000
X029000Y005000
X028000Y005000
X027000Y005000
X026000Y005000
X025600Y015700
X026600Y015700
X027600Y015700
X028600Y015700
X029600Y015700
X030600Y015700
X031600Y015700
X031600Y018700
X030600Y018700
X029600Y018700
X028600Y018700
X027600Y018700
X026600Y018700
X025600Y018700
X025300Y028200
X026300Y028200
X027300Y028200
X028300Y028200
X029300Y028200
X030300Y028200
X031300Y028200
X031300Y031200
X030300Y031200
X029300Y031200
X028300Y031200
X027300Y031200
X026300Y031200
X025300Y031200
X013000Y040000
X014000Y040000
X015000Y040000
X016000Y040000
X017000Y040000
X018000Y040000
X019000Y040000
X019000Y043000
X018000Y043000
X017000Y043000
X016000Y043000
X015000Y043000
X014000Y043000
X013000Y043000
X045000Y016000
X046000Y016000
X047000Y016000
X048000Y016000
X049000Y016000
X050000Y016000
X051000Y016000
X051000Y019000
X050000Y019000
X049000Y019000
X048000Y019000
X047000Y019000
X046000Y019000
X045000Y019000
X045000Y040000
X046000Y040000
X047000Y040000
X048000Y040000
X049000Y040000
X050000Y040000
X051000Y040000
X051000Y043000
X050000Y043000
X049000Y043000
X048000Y043000
X047000Y043000
X046000Y043000
X045000Y043000
X062000Y-010000
X062000Y-011000
X058000Y-011000
X058000Y-010000
X062000Y-004000
X063000Y-004000
X062000Y-005000
X063000Y-005000
X062000Y-006000
X063000Y-006000
X062000Y-007000
X063000Y-007000
T02
X036000Y-005000
X036000Y-010000
X041000Y-010000
X041000Y-005000
X026000Y-003000
X031000Y-003000
X026100Y-004700
X031100Y-004700
X040000Y028200
X040000Y023200
X040000Y019000
X040000Y014000
X037000Y034000
X037000Y029000
X046000Y-004900
X051000Y-004900
X055000Y001000
X055000Y006000
X046000Y-003000
X051000Y-003000
X046000Y009000
X051000Y009000
X046000Y012000
X051000Y012000
X040000Y009000
X040000Y004000
X055000Y015000
X055000Y010000
X055000Y032000
X055000Y027000
X046100Y035500
X051100Y035500
X046000Y023000
X051000Y023000
X046000Y025000
X051000Y025000
X026000Y033000
X031000Y033000
X026000Y036000
X031000Y036000
X036000Y039000
X041000Y039000
X055000Y039000
X055000Y034000
X061000Y024000
X066000Y024000
X062000Y034000
X067000Y034000
X061200Y007900
X066200Y007900
X055000Y-001000
X055000Y-006000
X040000Y035000
X040000Y030000
X061100Y010400
X066100Y010400
X058000Y029000
X058000Y024000
X062000Y036000
X067000Y036000
X036000Y042000
X041000Y042000
X055000Y023000
X055000Y018000
X027000Y009000
X032000Y009000
X061000Y022000
X066000Y022000
X036000Y-002000
X041000Y-002000
X036000Y001000
X041000Y001000
X026000Y022300
X031000Y022300
X027000Y011000
X032000Y011000
X026000Y024600
X031000Y024600
X037000Y028000
X037000Y023000
X037000Y009000
X037000Y004000
X037000Y019000
X037000Y014000
T03
X011800Y036100
X012800Y036100
X013800Y036100
X015800Y036100
X011800Y031100
X012800Y031100
X013800Y031100
X015800Y031100
X011800Y026100
X012800Y026100
X013800Y026100
X015800Y026100
X011800Y018600
X012800Y018600
X013800Y018600
X015800Y018600
X011800Y013600
X012800Y013600
X013800Y013600
X015800Y013600
X011800Y008600
X012800Y008600
X013800Y008600
X015800Y008600
X011800Y001100
X012800Y001100
X013800Y001100
X015800Y001100
X011800Y-003900
X012800Y-003900
X013800Y-003900
X015800Y-003900
X011800Y-008900
X012800Y-008900
X013800Y-008900
X015800Y-008900
T04
X051920Y022695
X039799Y027572
X039560Y029383
X033870Y037586
X051375Y014016
X059157Y041479
X036875Y026702
X043475Y-001088
X017592Y021198
X057516Y032800
X047654Y017050
X021965Y018354
X038153Y009227
X023072Y016670
X022768Y001434
X063500Y019699
X053773Y032934
X050994Y-003630
X043769Y018659
X018332Y022721
X051840Y-003622
X061973Y014321
X051821Y014321
X053088Y003686
M30
