G04 FreePCB version 1.343*
G04 Z:\trinary\bb\CAM-MUX\bottom_solder_mask.grb*
G04  layer *
G04 Scale: 100 percent, Rotated: No, Reflected: No *
%FSLAX24Y24*%
%MOIN*%
%LNTop*%
%ADD10C,0.005000*%
%ADD11R,0.066000X0.066000*%
%ADD12C,0.066000*%
%ADD13R,0.071000X0.071000*%
%ADD14C,0.071000*%
%ADD15C,0.091000*%
%ADD16C,0.044000*%
%ADD17C,0.016000*%
G90*
G70D02*

G04 Step and Repeat for panelization *

G04 ----------------------- Draw board outline (positive)*
%LPD*%
G54D10*
G01X-68000Y48000D02*
G01X12000Y48000D01*
G04 end of side 1*
G01X12000Y-8000D01*
G04 end of side 2*
G01X-68000Y-8000D01*
G04 end of side 3*
G01X-68000Y48000D01*

G04 -------------- Draw Parts, Pads, Traces, Vias and Text (positive)*
%LPD*%
G04 Draw part VA*
G54D11*
G01X-61670Y31070D03*
G54D12*
G01X-60670Y31070D03*
G04 Draw part VB*
G54D11*
G01X-58670Y31070D03*
G54D12*
G01X-57670Y31070D03*
G04 Draw part VC*
G54D11*
G01X-55670Y31070D03*
G54D12*
G01X-54670Y31070D03*
G04 Draw part VS*
G54D11*
G01X-52670Y31070D03*
G54D12*
G01X-51670Y31070D03*
G04 Draw part Vdd*
G54D11*
G01X-49670Y31070D03*
G54D12*
G01X-48670Y31070D03*
G04 Draw part Vss*
G54D11*
G01X-46670Y31070D03*
G54D12*
G01X-45670Y31070D03*
G04 Draw part CD4007_IC0*
G54D13*
G01X-51000Y32600D03*
G54D14*
G01X-50000Y32600D03*
G01X-49000Y32600D03*
G01X-48000Y32600D03*
G01X-47000Y32600D03*
G01X-46000Y32600D03*
G01X-45000Y32600D03*
G01X-45000Y35600D03*
G01X-46000Y35600D03*
G01X-47000Y35600D03*
G01X-48000Y35600D03*
G01X-49000Y35600D03*
G01X-50000Y35600D03*
G01X-51000Y35600D03*
G04 Draw part CD4007_IC1*
G54D13*
G01X-51000Y42400D03*
G54D14*
G01X-50000Y42400D03*
G01X-49000Y42400D03*
G01X-48000Y42400D03*
G01X-47000Y42400D03*
G01X-46000Y42400D03*
G01X-45000Y42400D03*
G01X-45000Y45400D03*
G01X-46000Y45400D03*
G01X-47000Y45400D03*
G01X-48000Y45400D03*
G01X-49000Y45400D03*
G01X-50000Y45400D03*
G01X-51000Y45400D03*
G04 Draw part CD4007_IC2*
G54D13*
G01X-62000Y42400D03*
G54D14*
G01X-61000Y42400D03*
G01X-60000Y42400D03*
G01X-59000Y42400D03*
G01X-58000Y42400D03*
G01X-57000Y42400D03*
G01X-56000Y42400D03*
G01X-56000Y45400D03*
G01X-57000Y45400D03*
G01X-58000Y45400D03*
G01X-59000Y45400D03*
G01X-60000Y45400D03*
G01X-61000Y45400D03*
G01X-62000Y45400D03*
G04 Draw part CD4016_IC0*
G54D13*
G01X-62000Y32600D03*
G54D14*
G01X-61000Y32600D03*
G01X-60000Y32600D03*
G01X-59000Y32600D03*
G01X-58000Y32600D03*
G01X-57000Y32600D03*
G01X-56000Y32600D03*
G01X-56000Y35600D03*
G01X-57000Y35600D03*
G01X-58000Y35600D03*
G01X-59000Y35600D03*
G01X-60000Y35600D03*
G01X-61000Y35600D03*
G01X-62000Y35600D03*
G04 Draw part R1*
G54D15*
G01X-51000Y40000D03*
G01X-46000Y40000D03*
G04 Draw part R2*
G01X-46000Y38000D03*
G01X-51000Y38000D03*
G04 Draw part R3*
G01X-65000Y40400D03*
G01X-65000Y45400D03*
G04 Draw part R4*
G01X-65000Y37800D03*
G01X-65000Y32800D03*
G04 Draw part R5*
G01X-43000Y45400D03*
G01X-43000Y40400D03*
G04 Draw part R6*
G01X-43000Y37500D03*
G01X-43000Y32500D03*
G04 Draw part R7*
G01X-62000Y40000D03*
G01X-57000Y40000D03*
G04 Draw part R8*
G01X-57000Y38000D03*
G01X-62000Y38000D03*
G04 Draw part Q*
G54D11*
G01X-64100Y31100D03*
G54D12*
G01X-63100Y31100D03*
G04 Draw part VA1*
G54D11*
G01X-61670Y13070D03*
G54D12*
G01X-60670Y13070D03*
G04 Draw part VB1*
G54D11*
G01X-58670Y13070D03*
G54D12*
G01X-57670Y13070D03*
G04 Draw part VC1*
G54D11*
G01X-55670Y13070D03*
G54D12*
G01X-54670Y13070D03*
G04 Draw part VS1*
G54D11*
G01X-52670Y13070D03*
G54D12*
G01X-51670Y13070D03*
G04 Draw part Vdd1*
G54D11*
G01X-49670Y13070D03*
G54D12*
G01X-48670Y13070D03*
G04 Draw part Vss1*
G54D11*
G01X-46670Y13070D03*
G54D12*
G01X-45670Y13070D03*
G04 Draw part CD4007_IC3*
G54D13*
G01X-51000Y14600D03*
G54D14*
G01X-50000Y14600D03*
G01X-49000Y14600D03*
G01X-48000Y14600D03*
G01X-47000Y14600D03*
G01X-46000Y14600D03*
G01X-45000Y14600D03*
G01X-45000Y17600D03*
G01X-46000Y17600D03*
G01X-47000Y17600D03*
G01X-48000Y17600D03*
G01X-49000Y17600D03*
G01X-50000Y17600D03*
G01X-51000Y17600D03*
G04 Draw part CD4007_IC4*
G54D13*
G01X-51000Y24400D03*
G54D14*
G01X-50000Y24400D03*
G01X-49000Y24400D03*
G01X-48000Y24400D03*
G01X-47000Y24400D03*
G01X-46000Y24400D03*
G01X-45000Y24400D03*
G01X-45000Y27400D03*
G01X-46000Y27400D03*
G01X-47000Y27400D03*
G01X-48000Y27400D03*
G01X-49000Y27400D03*
G01X-50000Y27400D03*
G01X-51000Y27400D03*
G04 Draw part CD4007_IC5*
G54D13*
G01X-62000Y24400D03*
G54D14*
G01X-61000Y24400D03*
G01X-60000Y24400D03*
G01X-59000Y24400D03*
G01X-58000Y24400D03*
G01X-57000Y24400D03*
G01X-56000Y24400D03*
G01X-56000Y27400D03*
G01X-57000Y27400D03*
G01X-58000Y27400D03*
G01X-59000Y27400D03*
G01X-60000Y27400D03*
G01X-61000Y27400D03*
G01X-62000Y27400D03*
G04 Draw part CD4016_IC1*
G54D13*
G01X-62000Y14600D03*
G54D14*
G01X-61000Y14600D03*
G01X-60000Y14600D03*
G01X-59000Y14600D03*
G01X-58000Y14600D03*
G01X-57000Y14600D03*
G01X-56000Y14600D03*
G01X-56000Y17600D03*
G01X-57000Y17600D03*
G01X-58000Y17600D03*
G01X-59000Y17600D03*
G01X-60000Y17600D03*
G01X-61000Y17600D03*
G01X-62000Y17600D03*
G04 Draw part R9*
G54D15*
G01X-51000Y22000D03*
G01X-46000Y22000D03*
G04 Draw part R10*
G01X-46000Y20000D03*
G01X-51000Y20000D03*
G04 Draw part R11*
G01X-65000Y22400D03*
G01X-65000Y27400D03*
G04 Draw part R12*
G01X-65000Y19800D03*
G01X-65000Y14800D03*
G04 Draw part R13*
G01X-43000Y27400D03*
G01X-43000Y22400D03*
G04 Draw part R14*
G01X-43000Y19500D03*
G01X-43000Y14500D03*
G04 Draw part R15*
G01X-62000Y22000D03*
G01X-57000Y22000D03*
G04 Draw part R16*
G01X-57000Y20000D03*
G01X-62000Y20000D03*
G04 Draw part Q1*
G54D11*
G01X-64100Y13100D03*
G54D12*
G01X-63100Y13100D03*
G04 Draw part VA2*
G54D11*
G01X-61670Y-4930D03*
G54D12*
G01X-60670Y-4930D03*
G04 Draw part VB2*
G54D11*
G01X-58670Y-4930D03*
G54D12*
G01X-57670Y-4930D03*
G04 Draw part VC2*
G54D11*
G01X-55670Y-4930D03*
G54D12*
G01X-54670Y-4930D03*
G04 Draw part VS2*
G54D11*
G01X-52670Y-4930D03*
G54D12*
G01X-51670Y-4930D03*
G04 Draw part Vdd2*
G54D11*
G01X-49670Y-4930D03*
G54D12*
G01X-48670Y-4930D03*
G04 Draw part Vss2*
G54D11*
G01X-46670Y-4930D03*
G54D12*
G01X-45670Y-4930D03*
G04 Draw part CD4007_IC6*
G54D13*
G01X-51000Y-3400D03*
G54D14*
G01X-50000Y-3400D03*
G01X-49000Y-3400D03*
G01X-48000Y-3400D03*
G01X-47000Y-3400D03*
G01X-46000Y-3400D03*
G01X-45000Y-3400D03*
G01X-45000Y-400D03*
G01X-46000Y-400D03*
G01X-47000Y-400D03*
G01X-48000Y-400D03*
G01X-49000Y-400D03*
G01X-50000Y-400D03*
G01X-51000Y-400D03*
G04 Draw part CD4007_IC7*
G54D13*
G01X-51000Y6400D03*
G54D14*
G01X-50000Y6400D03*
G01X-49000Y6400D03*
G01X-48000Y6400D03*
G01X-47000Y6400D03*
G01X-46000Y6400D03*
G01X-45000Y6400D03*
G01X-45000Y9400D03*
G01X-46000Y9400D03*
G01X-47000Y9400D03*
G01X-48000Y9400D03*
G01X-49000Y9400D03*
G01X-50000Y9400D03*
G01X-51000Y9400D03*
G04 Draw part CD4007_IC8*
G54D13*
G01X-62000Y6400D03*
G54D14*
G01X-61000Y6400D03*
G01X-60000Y6400D03*
G01X-59000Y6400D03*
G01X-58000Y6400D03*
G01X-57000Y6400D03*
G01X-56000Y6400D03*
G01X-56000Y9400D03*
G01X-57000Y9400D03*
G01X-58000Y9400D03*
G01X-59000Y9400D03*
G01X-60000Y9400D03*
G01X-61000Y9400D03*
G01X-62000Y9400D03*
G04 Draw part CD4016_IC2*
G54D13*
G01X-62000Y-3400D03*
G54D14*
G01X-61000Y-3400D03*
G01X-60000Y-3400D03*
G01X-59000Y-3400D03*
G01X-58000Y-3400D03*
G01X-57000Y-3400D03*
G01X-56000Y-3400D03*
G01X-56000Y-400D03*
G01X-57000Y-400D03*
G01X-58000Y-400D03*
G01X-59000Y-400D03*
G01X-60000Y-400D03*
G01X-61000Y-400D03*
G01X-62000Y-400D03*
G04 Draw part R17*
G54D15*
G01X-51000Y4000D03*
G01X-46000Y4000D03*
G04 Draw part R18*
G01X-46000Y2000D03*
G01X-51000Y2000D03*
G04 Draw part R19*
G01X-65000Y4400D03*
G01X-65000Y9400D03*
G04 Draw part R20*
G01X-65000Y1800D03*
G01X-65000Y-3200D03*
G04 Draw part R21*
G01X-43000Y9400D03*
G01X-43000Y4400D03*
G04 Draw part R22*
G01X-43000Y1500D03*
G01X-43000Y-3500D03*
G04 Draw part R23*
G01X-62000Y4000D03*
G01X-57000Y4000D03*
G04 Draw part R24*
G01X-57000Y2000D03*
G01X-62000Y2000D03*
G04 Draw part Q2*
G54D11*
G01X-64100Y-4900D03*
G54D12*
G01X-63100Y-4900D03*
G04 Draw part VA3*
G54D11*
G01X-35670Y31070D03*
G54D12*
G01X-34670Y31070D03*
G04 Draw part VB3*
G54D11*
G01X-32670Y31070D03*
G54D12*
G01X-31670Y31070D03*
G04 Draw part VC3*
G54D11*
G01X-29670Y31070D03*
G54D12*
G01X-28670Y31070D03*
G04 Draw part VS3*
G54D11*
G01X-26670Y31070D03*
G54D12*
G01X-25670Y31070D03*
G04 Draw part Vdd3*
G54D11*
G01X-23670Y31070D03*
G54D12*
G01X-22670Y31070D03*
G04 Draw part Vss3*
G54D11*
G01X-20670Y31070D03*
G54D12*
G01X-19670Y31070D03*
G04 Draw part CD4007_IC9*
G54D13*
G01X-25000Y32600D03*
G54D14*
G01X-24000Y32600D03*
G01X-23000Y32600D03*
G01X-22000Y32600D03*
G01X-21000Y32600D03*
G01X-20000Y32600D03*
G01X-19000Y32600D03*
G01X-19000Y35600D03*
G01X-20000Y35600D03*
G01X-21000Y35600D03*
G01X-22000Y35600D03*
G01X-23000Y35600D03*
G01X-24000Y35600D03*
G01X-25000Y35600D03*
G04 Draw part CD4007_IC10*
G54D13*
G01X-25000Y42400D03*
G54D14*
G01X-24000Y42400D03*
G01X-23000Y42400D03*
G01X-22000Y42400D03*
G01X-21000Y42400D03*
G01X-20000Y42400D03*
G01X-19000Y42400D03*
G01X-19000Y45400D03*
G01X-20000Y45400D03*
G01X-21000Y45400D03*
G01X-22000Y45400D03*
G01X-23000Y45400D03*
G01X-24000Y45400D03*
G01X-25000Y45400D03*
G04 Draw part CD4007_IC11*
G54D13*
G01X-36000Y42400D03*
G54D14*
G01X-35000Y42400D03*
G01X-34000Y42400D03*
G01X-33000Y42400D03*
G01X-32000Y42400D03*
G01X-31000Y42400D03*
G01X-30000Y42400D03*
G01X-30000Y45400D03*
G01X-31000Y45400D03*
G01X-32000Y45400D03*
G01X-33000Y45400D03*
G01X-34000Y45400D03*
G01X-35000Y45400D03*
G01X-36000Y45400D03*
G04 Draw part CD4016_IC3*
G54D13*
G01X-36000Y32600D03*
G54D14*
G01X-35000Y32600D03*
G01X-34000Y32600D03*
G01X-33000Y32600D03*
G01X-32000Y32600D03*
G01X-31000Y32600D03*
G01X-30000Y32600D03*
G01X-30000Y35600D03*
G01X-31000Y35600D03*
G01X-32000Y35600D03*
G01X-33000Y35600D03*
G01X-34000Y35600D03*
G01X-35000Y35600D03*
G01X-36000Y35600D03*
G04 Draw part R25*
G54D15*
G01X-25000Y40000D03*
G01X-20000Y40000D03*
G04 Draw part R26*
G01X-20000Y38000D03*
G01X-25000Y38000D03*
G04 Draw part R27*
G01X-39000Y40400D03*
G01X-39000Y45400D03*
G04 Draw part R28*
G01X-39000Y37800D03*
G01X-39000Y32800D03*
G04 Draw part R29*
G01X-17000Y45400D03*
G01X-17000Y40400D03*
G04 Draw part R30*
G01X-17000Y37500D03*
G01X-17000Y32500D03*
G04 Draw part R31*
G01X-36000Y40000D03*
G01X-31000Y40000D03*
G04 Draw part R32*
G01X-31000Y38000D03*
G01X-36000Y38000D03*
G04 Draw part Q3*
G54D11*
G01X-38100Y31100D03*
G54D12*
G01X-37100Y31100D03*
G04 Draw part VA4*
G54D11*
G01X-35670Y13070D03*
G54D12*
G01X-34670Y13070D03*
G04 Draw part VB4*
G54D11*
G01X-32670Y13070D03*
G54D12*
G01X-31670Y13070D03*
G04 Draw part VC4*
G54D11*
G01X-29670Y13070D03*
G54D12*
G01X-28670Y13070D03*
G04 Draw part VS4*
G54D11*
G01X-26670Y13070D03*
G54D12*
G01X-25670Y13070D03*
G04 Draw part Vdd4*
G54D11*
G01X-23670Y13070D03*
G54D12*
G01X-22670Y13070D03*
G04 Draw part Vss4*
G54D11*
G01X-20670Y13070D03*
G54D12*
G01X-19670Y13070D03*
G04 Draw part CD4007_IC12*
G54D13*
G01X-25000Y14600D03*
G54D14*
G01X-24000Y14600D03*
G01X-23000Y14600D03*
G01X-22000Y14600D03*
G01X-21000Y14600D03*
G01X-20000Y14600D03*
G01X-19000Y14600D03*
G01X-19000Y17600D03*
G01X-20000Y17600D03*
G01X-21000Y17600D03*
G01X-22000Y17600D03*
G01X-23000Y17600D03*
G01X-24000Y17600D03*
G01X-25000Y17600D03*
G04 Draw part CD4007_IC13*
G54D13*
G01X-25000Y24400D03*
G54D14*
G01X-24000Y24400D03*
G01X-23000Y24400D03*
G01X-22000Y24400D03*
G01X-21000Y24400D03*
G01X-20000Y24400D03*
G01X-19000Y24400D03*
G01X-19000Y27400D03*
G01X-20000Y27400D03*
G01X-21000Y27400D03*
G01X-22000Y27400D03*
G01X-23000Y27400D03*
G01X-24000Y27400D03*
G01X-25000Y27400D03*
G04 Draw part CD4007_IC14*
G54D13*
G01X-36000Y24400D03*
G54D14*
G01X-35000Y24400D03*
G01X-34000Y24400D03*
G01X-33000Y24400D03*
G01X-32000Y24400D03*
G01X-31000Y24400D03*
G01X-30000Y24400D03*
G01X-30000Y27400D03*
G01X-31000Y27400D03*
G01X-32000Y27400D03*
G01X-33000Y27400D03*
G01X-34000Y27400D03*
G01X-35000Y27400D03*
G01X-36000Y27400D03*
G04 Draw part CD4016_IC4*
G54D13*
G01X-36000Y14600D03*
G54D14*
G01X-35000Y14600D03*
G01X-34000Y14600D03*
G01X-33000Y14600D03*
G01X-32000Y14600D03*
G01X-31000Y14600D03*
G01X-30000Y14600D03*
G01X-30000Y17600D03*
G01X-31000Y17600D03*
G01X-32000Y17600D03*
G01X-33000Y17600D03*
G01X-34000Y17600D03*
G01X-35000Y17600D03*
G01X-36000Y17600D03*
G04 Draw part R33*
G54D15*
G01X-25000Y22000D03*
G01X-20000Y22000D03*
G04 Draw part R34*
G01X-20000Y20000D03*
G01X-25000Y20000D03*
G04 Draw part R35*
G01X-39000Y22400D03*
G01X-39000Y27400D03*
G04 Draw part R36*
G01X-39000Y19800D03*
G01X-39000Y14800D03*
G04 Draw part R37*
G01X-17000Y27400D03*
G01X-17000Y22400D03*
G04 Draw part R38*
G01X-17000Y19500D03*
G01X-17000Y14500D03*
G04 Draw part R39*
G01X-36000Y22000D03*
G01X-31000Y22000D03*
G04 Draw part R40*
G01X-31000Y20000D03*
G01X-36000Y20000D03*
G04 Draw part Q4*
G54D11*
G01X-38100Y13100D03*
G54D12*
G01X-37100Y13100D03*
G04 Draw part VA5*
G54D11*
G01X-35670Y-4930D03*
G54D12*
G01X-34670Y-4930D03*
G04 Draw part VB5*
G54D11*
G01X-32670Y-4930D03*
G54D12*
G01X-31670Y-4930D03*
G04 Draw part VC5*
G54D11*
G01X-29670Y-4930D03*
G54D12*
G01X-28670Y-4930D03*
G04 Draw part VS5*
G54D11*
G01X-26670Y-4930D03*
G54D12*
G01X-25670Y-4930D03*
G04 Draw part Vdd5*
G54D11*
G01X-23670Y-4930D03*
G54D12*
G01X-22670Y-4930D03*
G04 Draw part Vss5*
G54D11*
G01X-20670Y-4930D03*
G54D12*
G01X-19670Y-4930D03*
G04 Draw part CD4007_IC15*
G54D13*
G01X-25000Y-3400D03*
G54D14*
G01X-24000Y-3400D03*
G01X-23000Y-3400D03*
G01X-22000Y-3400D03*
G01X-21000Y-3400D03*
G01X-20000Y-3400D03*
G01X-19000Y-3400D03*
G01X-19000Y-400D03*
G01X-20000Y-400D03*
G01X-21000Y-400D03*
G01X-22000Y-400D03*
G01X-23000Y-400D03*
G01X-24000Y-400D03*
G01X-25000Y-400D03*
G04 Draw part CD4007_IC16*
G54D13*
G01X-25000Y6400D03*
G54D14*
G01X-24000Y6400D03*
G01X-23000Y6400D03*
G01X-22000Y6400D03*
G01X-21000Y6400D03*
G01X-20000Y6400D03*
G01X-19000Y6400D03*
G01X-19000Y9400D03*
G01X-20000Y9400D03*
G01X-21000Y9400D03*
G01X-22000Y9400D03*
G01X-23000Y9400D03*
G01X-24000Y9400D03*
G01X-25000Y9400D03*
G04 Draw part CD4007_IC17*
G54D13*
G01X-36000Y6400D03*
G54D14*
G01X-35000Y6400D03*
G01X-34000Y6400D03*
G01X-33000Y6400D03*
G01X-32000Y6400D03*
G01X-31000Y6400D03*
G01X-30000Y6400D03*
G01X-30000Y9400D03*
G01X-31000Y9400D03*
G01X-32000Y9400D03*
G01X-33000Y9400D03*
G01X-34000Y9400D03*
G01X-35000Y9400D03*
G01X-36000Y9400D03*
G04 Draw part CD4016_IC5*
G54D13*
G01X-36000Y-3400D03*
G54D14*
G01X-35000Y-3400D03*
G01X-34000Y-3400D03*
G01X-33000Y-3400D03*
G01X-32000Y-3400D03*
G01X-31000Y-3400D03*
G01X-30000Y-3400D03*
G01X-30000Y-400D03*
G01X-31000Y-400D03*
G01X-32000Y-400D03*
G01X-33000Y-400D03*
G01X-34000Y-400D03*
G01X-35000Y-400D03*
G01X-36000Y-400D03*
G04 Draw part R41*
G54D15*
G01X-25000Y4000D03*
G01X-20000Y4000D03*
G04 Draw part R42*
G01X-20000Y2000D03*
G01X-25000Y2000D03*
G04 Draw part R43*
G01X-39000Y4400D03*
G01X-39000Y9400D03*
G04 Draw part R44*
G01X-39000Y1800D03*
G01X-39000Y-3200D03*
G04 Draw part R45*
G01X-17000Y9400D03*
G01X-17000Y4400D03*
G04 Draw part R46*
G01X-17000Y1500D03*
G01X-17000Y-3500D03*
G04 Draw part R47*
G01X-36000Y4000D03*
G01X-31000Y4000D03*
G04 Draw part R48*
G01X-31000Y2000D03*
G01X-36000Y2000D03*
G04 Draw part Q5*
G54D11*
G01X-38100Y-4900D03*
G54D12*
G01X-37100Y-4900D03*
G04 Draw part VA6*
G54D11*
G01X-9670Y31070D03*
G54D12*
G01X-8670Y31070D03*
G04 Draw part VB6*
G54D11*
G01X-6670Y31070D03*
G54D12*
G01X-5670Y31070D03*
G04 Draw part VC6*
G54D11*
G01X-3670Y31070D03*
G54D12*
G01X-2670Y31070D03*
G04 Draw part VS6*
G54D11*
G01X-670Y31070D03*
G54D12*
G01X330Y31070D03*
G04 Draw part Vdd6*
G54D11*
G01X2330Y31070D03*
G54D12*
G01X3330Y31070D03*
G04 Draw part Vss6*
G54D11*
G01X5330Y31070D03*
G54D12*
G01X6330Y31070D03*
G04 Draw part CD4007_IC18*
G54D13*
G01X1000Y32600D03*
G54D14*
G01X2000Y32600D03*
G01X3000Y32600D03*
G01X4000Y32600D03*
G01X5000Y32600D03*
G01X6000Y32600D03*
G01X7000Y32600D03*
G01X7000Y35600D03*
G01X6000Y35600D03*
G01X5000Y35600D03*
G01X4000Y35600D03*
G01X3000Y35600D03*
G01X2000Y35600D03*
G01X1000Y35600D03*
G04 Draw part CD4007_IC19*
G54D13*
G01X1000Y42400D03*
G54D14*
G01X2000Y42400D03*
G01X3000Y42400D03*
G01X4000Y42400D03*
G01X5000Y42400D03*
G01X6000Y42400D03*
G01X7000Y42400D03*
G01X7000Y45400D03*
G01X6000Y45400D03*
G01X5000Y45400D03*
G01X4000Y45400D03*
G01X3000Y45400D03*
G01X2000Y45400D03*
G01X1000Y45400D03*
G04 Draw part CD4007_IC20*
G54D13*
G01X-10000Y42400D03*
G54D14*
G01X-9000Y42400D03*
G01X-8000Y42400D03*
G01X-7000Y42400D03*
G01X-6000Y42400D03*
G01X-5000Y42400D03*
G01X-4000Y42400D03*
G01X-4000Y45400D03*
G01X-5000Y45400D03*
G01X-6000Y45400D03*
G01X-7000Y45400D03*
G01X-8000Y45400D03*
G01X-9000Y45400D03*
G01X-10000Y45400D03*
G04 Draw part CD4016_IC6*
G54D13*
G01X-10000Y32600D03*
G54D14*
G01X-9000Y32600D03*
G01X-8000Y32600D03*
G01X-7000Y32600D03*
G01X-6000Y32600D03*
G01X-5000Y32600D03*
G01X-4000Y32600D03*
G01X-4000Y35600D03*
G01X-5000Y35600D03*
G01X-6000Y35600D03*
G01X-7000Y35600D03*
G01X-8000Y35600D03*
G01X-9000Y35600D03*
G01X-10000Y35600D03*
G04 Draw part R49*
G54D15*
G01X1000Y40000D03*
G01X6000Y40000D03*
G04 Draw part R50*
G01X6000Y38000D03*
G01X1000Y38000D03*
G04 Draw part R51*
G01X-13000Y40400D03*
G01X-13000Y45400D03*
G04 Draw part R52*
G01X-13000Y37800D03*
G01X-13000Y32800D03*
G04 Draw part R53*
G01X9000Y45400D03*
G01X9000Y40400D03*
G04 Draw part R54*
G01X9000Y37500D03*
G01X9000Y32500D03*
G04 Draw part R55*
G01X-10000Y40000D03*
G01X-5000Y40000D03*
G04 Draw part R56*
G01X-5000Y38000D03*
G01X-10000Y38000D03*
G04 Draw part Q6*
G54D11*
G01X-12100Y31100D03*
G54D12*
G01X-11100Y31100D03*
G04 Draw part VA7*
G54D11*
G01X-9670Y13070D03*
G54D12*
G01X-8670Y13070D03*
G04 Draw part VB7*
G54D11*
G01X-6670Y13070D03*
G54D12*
G01X-5670Y13070D03*
G04 Draw part VC7*
G54D11*
G01X-3670Y13070D03*
G54D12*
G01X-2670Y13070D03*
G04 Draw part VS7*
G54D11*
G01X-670Y13070D03*
G54D12*
G01X330Y13070D03*
G04 Draw part Vdd7*
G54D11*
G01X2330Y13070D03*
G54D12*
G01X3330Y13070D03*
G04 Draw part Vss7*
G54D11*
G01X5330Y13070D03*
G54D12*
G01X6330Y13070D03*
G04 Draw part CD4007_IC21*
G54D13*
G01X1000Y14600D03*
G54D14*
G01X2000Y14600D03*
G01X3000Y14600D03*
G01X4000Y14600D03*
G01X5000Y14600D03*
G01X6000Y14600D03*
G01X7000Y14600D03*
G01X7000Y17600D03*
G01X6000Y17600D03*
G01X5000Y17600D03*
G01X4000Y17600D03*
G01X3000Y17600D03*
G01X2000Y17600D03*
G01X1000Y17600D03*
G04 Draw part CD4007_IC22*
G54D13*
G01X1000Y24400D03*
G54D14*
G01X2000Y24400D03*
G01X3000Y24400D03*
G01X4000Y24400D03*
G01X5000Y24400D03*
G01X6000Y24400D03*
G01X7000Y24400D03*
G01X7000Y27400D03*
G01X6000Y27400D03*
G01X5000Y27400D03*
G01X4000Y27400D03*
G01X3000Y27400D03*
G01X2000Y27400D03*
G01X1000Y27400D03*
G04 Draw part CD4007_IC23*
G54D13*
G01X-10000Y24400D03*
G54D14*
G01X-9000Y24400D03*
G01X-8000Y24400D03*
G01X-7000Y24400D03*
G01X-6000Y24400D03*
G01X-5000Y24400D03*
G01X-4000Y24400D03*
G01X-4000Y27400D03*
G01X-5000Y27400D03*
G01X-6000Y27400D03*
G01X-7000Y27400D03*
G01X-8000Y27400D03*
G01X-9000Y27400D03*
G01X-10000Y27400D03*
G04 Draw part CD4016_IC7*
G54D13*
G01X-10000Y14600D03*
G54D14*
G01X-9000Y14600D03*
G01X-8000Y14600D03*
G01X-7000Y14600D03*
G01X-6000Y14600D03*
G01X-5000Y14600D03*
G01X-4000Y14600D03*
G01X-4000Y17600D03*
G01X-5000Y17600D03*
G01X-6000Y17600D03*
G01X-7000Y17600D03*
G01X-8000Y17600D03*
G01X-9000Y17600D03*
G01X-10000Y17600D03*
G04 Draw part R57*
G54D15*
G01X1000Y22000D03*
G01X6000Y22000D03*
G04 Draw part R58*
G01X6000Y20000D03*
G01X1000Y20000D03*
G04 Draw part R59*
G01X-13000Y22400D03*
G01X-13000Y27400D03*
G04 Draw part R60*
G01X-13000Y19800D03*
G01X-13000Y14800D03*
G04 Draw part R61*
G01X9000Y27400D03*
G01X9000Y22400D03*
G04 Draw part R62*
G01X9000Y19500D03*
G01X9000Y14500D03*
G04 Draw part R63*
G01X-10000Y22000D03*
G01X-5000Y22000D03*
G04 Draw part R64*
G01X-5000Y20000D03*
G01X-10000Y20000D03*
G04 Draw part Q7*
G54D11*
G01X-12100Y13100D03*
G54D12*
G01X-11100Y13100D03*
G04 Draw part VA8*
G54D11*
G01X-9670Y-4930D03*
G54D12*
G01X-8670Y-4930D03*
G04 Draw part VB8*
G54D11*
G01X-6670Y-4930D03*
G54D12*
G01X-5670Y-4930D03*
G04 Draw part VC8*
G54D11*
G01X-3670Y-4930D03*
G54D12*
G01X-2670Y-4930D03*
G04 Draw part VS8*
G54D11*
G01X-670Y-4930D03*
G54D12*
G01X330Y-4930D03*
G04 Draw part Vdd8*
G54D11*
G01X2330Y-4930D03*
G54D12*
G01X3330Y-4930D03*
G04 Draw part Vss8*
G54D11*
G01X5330Y-4930D03*
G54D12*
G01X6330Y-4930D03*
G04 Draw part CD4007_IC24*
G54D13*
G01X1000Y-3400D03*
G54D14*
G01X2000Y-3400D03*
G01X3000Y-3400D03*
G01X4000Y-3400D03*
G01X5000Y-3400D03*
G01X6000Y-3400D03*
G01X7000Y-3400D03*
G01X7000Y-400D03*
G01X6000Y-400D03*
G01X5000Y-400D03*
G01X4000Y-400D03*
G01X3000Y-400D03*
G01X2000Y-400D03*
G01X1000Y-400D03*
G04 Draw part CD4007_IC25*
G54D13*
G01X1000Y6400D03*
G54D14*
G01X2000Y6400D03*
G01X3000Y6400D03*
G01X4000Y6400D03*
G01X5000Y6400D03*
G01X6000Y6400D03*
G01X7000Y6400D03*
G01X7000Y9400D03*
G01X6000Y9400D03*
G01X5000Y9400D03*
G01X4000Y9400D03*
G01X3000Y9400D03*
G01X2000Y9400D03*
G01X1000Y9400D03*
G04 Draw part CD4007_IC26*
G54D13*
G01X-10000Y6400D03*
G54D14*
G01X-9000Y6400D03*
G01X-8000Y6400D03*
G01X-7000Y6400D03*
G01X-6000Y6400D03*
G01X-5000Y6400D03*
G01X-4000Y6400D03*
G01X-4000Y9400D03*
G01X-5000Y9400D03*
G01X-6000Y9400D03*
G01X-7000Y9400D03*
G01X-8000Y9400D03*
G01X-9000Y9400D03*
G01X-10000Y9400D03*
G04 Draw part CD4016_IC8*
G54D13*
G01X-10000Y-3400D03*
G54D14*
G01X-9000Y-3400D03*
G01X-8000Y-3400D03*
G01X-7000Y-3400D03*
G01X-6000Y-3400D03*
G01X-5000Y-3400D03*
G01X-4000Y-3400D03*
G01X-4000Y-400D03*
G01X-5000Y-400D03*
G01X-6000Y-400D03*
G01X-7000Y-400D03*
G01X-8000Y-400D03*
G01X-9000Y-400D03*
G01X-10000Y-400D03*
G04 Draw part R65*
G54D15*
G01X1000Y4000D03*
G01X6000Y4000D03*
G04 Draw part R66*
G01X6000Y2000D03*
G01X1000Y2000D03*
G04 Draw part R67*
G01X-13000Y4400D03*
G01X-13000Y9400D03*
G04 Draw part R68*
G01X-13000Y1800D03*
G01X-13000Y-3200D03*
G04 Draw part R69*
G01X9000Y9400D03*
G01X9000Y4400D03*
G04 Draw part R70*
G01X9000Y1500D03*
G01X9000Y-3500D03*
G04 Draw part R71*
G01X-10000Y4000D03*
G01X-5000Y4000D03*
G04 Draw part R72*
G01X-5000Y2000D03*
G01X-10000Y2000D03*
G04 Draw part Q8*
G54D11*
G01X-12100Y-4900D03*
G54D12*
G01X-11100Y-4900D03*

G04 Draw traces*
G54D16*
G01X-5825Y-2270D03*
G01X-3666Y-2270D03*
G01X-6469Y20942D03*
G01X-32469Y2942D03*
G01X-6469Y2942D03*
G01X-32966Y19132D03*
G01X-58469Y20942D03*
G01X-6966Y19132D03*
G01X-32966Y1132D03*
G01X-58469Y2942D03*
G01X-58966Y19132D03*
G01X-6966Y1132D03*
G01X-32469Y38942D03*
G01X-58966Y1132D03*
G01X-57825Y15729D03*
G01X-55666Y15729D03*
G01X-60815Y15757D03*
G01X-6469Y38942D03*
G01X-32966Y37132D03*
G01X-57825Y-2270D03*
G01X-55666Y-2270D03*
G01X-60815Y-2242D03*
G01X-6966Y37132D03*
G01X-31825Y33729D03*
G01X-29666Y33729D03*
G01X-34815Y33757D03*
G01X-5825Y33729D03*
G01X-3666Y33729D03*
G01X-8815Y33757D03*
G01X-34815Y15757D03*
G01X-8815Y15757D03*
G01X-34815Y-2242D03*
G01X-8815Y-2242D03*
G01X-58469Y38942D03*
G01X-31825Y15729D03*
G01X-29666Y15729D03*
G01X-60815Y33757D03*
G01X-58966Y37132D03*
G01X-5825Y15729D03*
G01X-3666Y15729D03*
G01X-31825Y-2270D03*
G01X-29666Y-2270D03*
G01X-32469Y20942D03*
G01X-57825Y33729D03*
G01X-55666Y33729D03*

G04 Draw Text*
G54D17*

G04 Draw solder mask cutouts*
M00*
M02*
