;Holesize 1 =   28.0 PLATED MILS
;Holesize 2 =   35.0 PLATED MILS
;Holesize 3 =   14.0 PLATED MILS
M48
INCH
T01C0.028
T02C0.035
T03C0.014
%
G05
G90
T01
X-061670Y031070
X-060670Y031070
X-058670Y031070
X-057670Y031070
X-055670Y031070
X-054670Y031070
X-052670Y031070
X-051670Y031070
X-049670Y031070
X-048670Y031070
X-046670Y031070
X-045670Y031070
X-051000Y032600
X-050000Y032600
X-049000Y032600
X-048000Y032600
X-047000Y032600
X-046000Y032600
X-045000Y032600
X-045000Y035600
X-046000Y035600
X-047000Y035600
X-048000Y035600
X-049000Y035600
X-050000Y035600
X-051000Y035600
X-051000Y042400
X-050000Y042400
X-049000Y042400
X-048000Y042400
X-047000Y042400
X-046000Y042400
X-045000Y042400
X-045000Y045400
X-046000Y045400
X-047000Y045400
X-048000Y045400
X-049000Y045400
X-050000Y045400
X-051000Y045400
X-062000Y042400
X-061000Y042400
X-060000Y042400
X-059000Y042400
X-058000Y042400
X-057000Y042400
X-056000Y042400
X-056000Y045400
X-057000Y045400
X-058000Y045400
X-059000Y045400
X-060000Y045400
X-061000Y045400
X-062000Y045400
X-062000Y032600
X-061000Y032600
X-060000Y032600
X-059000Y032600
X-058000Y032600
X-057000Y032600
X-056000Y032600
X-056000Y035600
X-057000Y035600
X-058000Y035600
X-059000Y035600
X-060000Y035600
X-061000Y035600
X-062000Y035600
X-064100Y031100
X-063100Y031100
X-061670Y013070
X-060670Y013070
X-058670Y013070
X-057670Y013070
X-055670Y013070
X-054670Y013070
X-052670Y013070
X-051670Y013070
X-049670Y013070
X-048670Y013070
X-046670Y013070
X-045670Y013070
X-051000Y014600
X-050000Y014600
X-049000Y014600
X-048000Y014600
X-047000Y014600
X-046000Y014600
X-045000Y014600
X-045000Y017600
X-046000Y017600
X-047000Y017600
X-048000Y017600
X-049000Y017600
X-050000Y017600
X-051000Y017600
X-051000Y024400
X-050000Y024400
X-049000Y024400
X-048000Y024400
X-047000Y024400
X-046000Y024400
X-045000Y024400
X-045000Y027400
X-046000Y027400
X-047000Y027400
X-048000Y027400
X-049000Y027400
X-050000Y027400
X-051000Y027400
X-062000Y024400
X-061000Y024400
X-060000Y024400
X-059000Y024400
X-058000Y024400
X-057000Y024400
X-056000Y024400
X-056000Y027400
X-057000Y027400
X-058000Y027400
X-059000Y027400
X-060000Y027400
X-061000Y027400
X-062000Y027400
X-062000Y014600
X-061000Y014600
X-060000Y014600
X-059000Y014600
X-058000Y014600
X-057000Y014600
X-056000Y014600
X-056000Y017600
X-057000Y017600
X-058000Y017600
X-059000Y017600
X-060000Y017600
X-061000Y017600
X-062000Y017600
X-064100Y013100
X-063100Y013100
X-061670Y-004930
X-060670Y-004930
X-058670Y-004930
X-057670Y-004930
X-055670Y-004930
X-054670Y-004930
X-052670Y-004930
X-051670Y-004930
X-049670Y-004930
X-048670Y-004930
X-046670Y-004930
X-045670Y-004930
X-051000Y-003400
X-050000Y-003400
X-049000Y-003400
X-048000Y-003400
X-047000Y-003400
X-046000Y-003400
X-045000Y-003400
X-045000Y-000400
X-046000Y-000400
X-047000Y-000400
X-048000Y-000400
X-049000Y-000400
X-050000Y-000400
X-051000Y-000400
X-051000Y006400
X-050000Y006400
X-049000Y006400
X-048000Y006400
X-047000Y006400
X-046000Y006400
X-045000Y006400
X-045000Y009400
X-046000Y009400
X-047000Y009400
X-048000Y009400
X-049000Y009400
X-050000Y009400
X-051000Y009400
X-062000Y006400
X-061000Y006400
X-060000Y006400
X-059000Y006400
X-058000Y006400
X-057000Y006400
X-056000Y006400
X-056000Y009400
X-057000Y009400
X-058000Y009400
X-059000Y009400
X-060000Y009400
X-061000Y009400
X-062000Y009400
X-062000Y-003400
X-061000Y-003400
X-060000Y-003400
X-059000Y-003400
X-058000Y-003400
X-057000Y-003400
X-056000Y-003400
X-056000Y-000400
X-057000Y-000400
X-058000Y-000400
X-059000Y-000400
X-060000Y-000400
X-061000Y-000400
X-062000Y-000400
X-064100Y-004900
X-063100Y-004900
X-035670Y031070
X-034670Y031070
X-032670Y031070
X-031670Y031070
X-029670Y031070
X-028670Y031070
X-026670Y031070
X-025670Y031070
X-023670Y031070
X-022670Y031070
X-020670Y031070
X-019670Y031070
X-025000Y032600
X-024000Y032600
X-023000Y032600
X-022000Y032600
X-021000Y032600
X-020000Y032600
X-019000Y032600
X-019000Y035600
X-020000Y035600
X-021000Y035600
X-022000Y035600
X-023000Y035600
X-024000Y035600
X-025000Y035600
X-025000Y042400
X-024000Y042400
X-023000Y042400
X-022000Y042400
X-021000Y042400
X-020000Y042400
X-019000Y042400
X-019000Y045400
X-020000Y045400
X-021000Y045400
X-022000Y045400
X-023000Y045400
X-024000Y045400
X-025000Y045400
X-036000Y042400
X-035000Y042400
X-034000Y042400
X-033000Y042400
X-032000Y042400
X-031000Y042400
X-030000Y042400
X-030000Y045400
X-031000Y045400
X-032000Y045400
X-033000Y045400
X-034000Y045400
X-035000Y045400
X-036000Y045400
X-036000Y032600
X-035000Y032600
X-034000Y032600
X-033000Y032600
X-032000Y032600
X-031000Y032600
X-030000Y032600
X-030000Y035600
X-031000Y035600
X-032000Y035600
X-033000Y035600
X-034000Y035600
X-035000Y035600
X-036000Y035600
X-038100Y031100
X-037100Y031100
X-035670Y013070
X-034670Y013070
X-032670Y013070
X-031670Y013070
X-029670Y013070
X-028670Y013070
X-026670Y013070
X-025670Y013070
X-023670Y013070
X-022670Y013070
X-020670Y013070
X-019670Y013070
X-025000Y014600
X-024000Y014600
X-023000Y014600
X-022000Y014600
X-021000Y014600
X-020000Y014600
X-019000Y014600
X-019000Y017600
X-020000Y017600
X-021000Y017600
X-022000Y017600
X-023000Y017600
X-024000Y017600
X-025000Y017600
X-025000Y024400
X-024000Y024400
X-023000Y024400
X-022000Y024400
X-021000Y024400
X-020000Y024400
X-019000Y024400
X-019000Y027400
X-020000Y027400
X-021000Y027400
X-022000Y027400
X-023000Y027400
X-024000Y027400
X-025000Y027400
X-036000Y024400
X-035000Y024400
X-034000Y024400
X-033000Y024400
X-032000Y024400
X-031000Y024400
X-030000Y024400
X-030000Y027400
X-031000Y027400
X-032000Y027400
X-033000Y027400
X-034000Y027400
X-035000Y027400
X-036000Y027400
X-036000Y014600
X-035000Y014600
X-034000Y014600
X-033000Y014600
X-032000Y014600
X-031000Y014600
X-030000Y014600
X-030000Y017600
X-031000Y017600
X-032000Y017600
X-033000Y017600
X-034000Y017600
X-035000Y017600
X-036000Y017600
X-038100Y013100
X-037100Y013100
X-035670Y-004930
X-034670Y-004930
X-032670Y-004930
X-031670Y-004930
X-029670Y-004930
X-028670Y-004930
X-026670Y-004930
X-025670Y-004930
X-023670Y-004930
X-022670Y-004930
X-020670Y-004930
X-019670Y-004930
X-025000Y-003400
X-024000Y-003400
X-023000Y-003400
X-022000Y-003400
X-021000Y-003400
X-020000Y-003400
X-019000Y-003400
X-019000Y-000400
X-020000Y-000400
X-021000Y-000400
X-022000Y-000400
X-023000Y-000400
X-024000Y-000400
X-025000Y-000400
X-025000Y006400
X-024000Y006400
X-023000Y006400
X-022000Y006400
X-021000Y006400
X-020000Y006400
X-019000Y006400
X-019000Y009400
X-020000Y009400
X-021000Y009400
X-022000Y009400
X-023000Y009400
X-024000Y009400
X-025000Y009400
X-036000Y006400
X-035000Y006400
X-034000Y006400
X-033000Y006400
X-032000Y006400
X-031000Y006400
X-030000Y006400
X-030000Y009400
X-031000Y009400
X-032000Y009400
X-033000Y009400
X-034000Y009400
X-035000Y009400
X-036000Y009400
X-036000Y-003400
X-035000Y-003400
X-034000Y-003400
X-033000Y-003400
X-032000Y-003400
X-031000Y-003400
X-030000Y-003400
X-030000Y-000400
X-031000Y-000400
X-032000Y-000400
X-033000Y-000400
X-034000Y-000400
X-035000Y-000400
X-036000Y-000400
X-038100Y-004900
X-037100Y-004900
X-009670Y031070
X-008670Y031070
X-006670Y031070
X-005670Y031070
X-003670Y031070
X-002670Y031070
X-000670Y031070
X000330Y031070
X002330Y031070
X003330Y031070
X005330Y031070
X006330Y031070
X001000Y032600
X002000Y032600
X003000Y032600
X004000Y032600
X005000Y032600
X006000Y032600
X007000Y032600
X007000Y035600
X006000Y035600
X005000Y035600
X004000Y035600
X003000Y035600
X002000Y035600
X001000Y035600
X001000Y042400
X002000Y042400
X003000Y042400
X004000Y042400
X005000Y042400
X006000Y042400
X007000Y042400
X007000Y045400
X006000Y045400
X005000Y045400
X004000Y045400
X003000Y045400
X002000Y045400
X001000Y045400
X-010000Y042400
X-009000Y042400
X-008000Y042400
X-007000Y042400
X-006000Y042400
X-005000Y042400
X-004000Y042400
X-004000Y045400
X-005000Y045400
X-006000Y045400
X-007000Y045400
X-008000Y045400
X-009000Y045400
X-010000Y045400
X-010000Y032600
X-009000Y032600
X-008000Y032600
X-007000Y032600
X-006000Y032600
X-005000Y032600
X-004000Y032600
X-004000Y035600
X-005000Y035600
X-006000Y035600
X-007000Y035600
X-008000Y035600
X-009000Y035600
X-010000Y035600
X-012100Y031100
X-011100Y031100
X-009670Y013070
X-008670Y013070
X-006670Y013070
X-005670Y013070
X-003670Y013070
X-002670Y013070
X-000670Y013070
X000330Y013070
X002330Y013070
X003330Y013070
X005330Y013070
X006330Y013070
X001000Y014600
X002000Y014600
X003000Y014600
X004000Y014600
X005000Y014600
X006000Y014600
X007000Y014600
X007000Y017600
X006000Y017600
X005000Y017600
X004000Y017600
X003000Y017600
X002000Y017600
X001000Y017600
X001000Y024400
X002000Y024400
X003000Y024400
X004000Y024400
X005000Y024400
X006000Y024400
X007000Y024400
X007000Y027400
X006000Y027400
X005000Y027400
X004000Y027400
X003000Y027400
X002000Y027400
X001000Y027400
X-010000Y024400
X-009000Y024400
X-008000Y024400
X-007000Y024400
X-006000Y024400
X-005000Y024400
X-004000Y024400
X-004000Y027400
X-005000Y027400
X-006000Y027400
X-007000Y027400
X-008000Y027400
X-009000Y027400
X-010000Y027400
X-010000Y014600
X-009000Y014600
X-008000Y014600
X-007000Y014600
X-006000Y014600
X-005000Y014600
X-004000Y014600
X-004000Y017600
X-005000Y017600
X-006000Y017600
X-007000Y017600
X-008000Y017600
X-009000Y017600
X-010000Y017600
X-012100Y013100
X-011100Y013100
X-009670Y-004930
X-008670Y-004930
X-006670Y-004930
X-005670Y-004930
X-003670Y-004930
X-002670Y-004930
X-000670Y-004930
X000330Y-004930
X002330Y-004930
X003330Y-004930
X005330Y-004930
X006330Y-004930
X001000Y-003400
X002000Y-003400
X003000Y-003400
X004000Y-003400
X005000Y-003400
X006000Y-003400
X007000Y-003400
X007000Y-000400
X006000Y-000400
X005000Y-000400
X004000Y-000400
X003000Y-000400
X002000Y-000400
X001000Y-000400
X001000Y006400
X002000Y006400
X003000Y006400
X004000Y006400
X005000Y006400
X006000Y006400
X007000Y006400
X007000Y009400
X006000Y009400
X005000Y009400
X004000Y009400
X003000Y009400
X002000Y009400
X001000Y009400
X-010000Y006400
X-009000Y006400
X-008000Y006400
X-007000Y006400
X-006000Y006400
X-005000Y006400
X-004000Y006400
X-004000Y009400
X-005000Y009400
X-006000Y009400
X-007000Y009400
X-008000Y009400
X-009000Y009400
X-010000Y009400
X-010000Y-003400
X-009000Y-003400
X-008000Y-003400
X-007000Y-003400
X-006000Y-003400
X-005000Y-003400
X-004000Y-003400
X-004000Y-000400
X-005000Y-000400
X-006000Y-000400
X-007000Y-000400
X-008000Y-000400
X-009000Y-000400
X-010000Y-000400
X-012100Y-004900
X-011100Y-004900
T02
X-051000Y040000
X-046000Y040000
X-046000Y038000
X-051000Y038000
X-065000Y040400
X-065000Y045400
X-065000Y037800
X-065000Y032800
X-043000Y045400
X-043000Y040400
X-043000Y037500
X-043000Y032500
X-062000Y040000
X-057000Y040000
X-057000Y038000
X-062000Y038000
X-051000Y022000
X-046000Y022000
X-046000Y020000
X-051000Y020000
X-065000Y022400
X-065000Y027400
X-065000Y019800
X-065000Y014800
X-043000Y027400
X-043000Y022400
X-043000Y019500
X-043000Y014500
X-062000Y022000
X-057000Y022000
X-057000Y020000
X-062000Y020000
X-051000Y004000
X-046000Y004000
X-046000Y002000
X-051000Y002000
X-065000Y004400
X-065000Y009400
X-065000Y001800
X-065000Y-003200
X-043000Y009400
X-043000Y004400
X-043000Y001500
X-043000Y-003500
X-062000Y004000
X-057000Y004000
X-057000Y002000
X-062000Y002000
X-025000Y040000
X-020000Y040000
X-020000Y038000
X-025000Y038000
X-039000Y040400
X-039000Y045400
X-039000Y037800
X-039000Y032800
X-017000Y045400
X-017000Y040400
X-017000Y037500
X-017000Y032500
X-036000Y040000
X-031000Y040000
X-031000Y038000
X-036000Y038000
X-025000Y022000
X-020000Y022000
X-020000Y020000
X-025000Y020000
X-039000Y022400
X-039000Y027400
X-039000Y019800
X-039000Y014800
X-017000Y027400
X-017000Y022400
X-017000Y019500
X-017000Y014500
X-036000Y022000
X-031000Y022000
X-031000Y020000
X-036000Y020000
X-025000Y004000
X-020000Y004000
X-020000Y002000
X-025000Y002000
X-039000Y004400
X-039000Y009400
X-039000Y001800
X-039000Y-003200
X-017000Y009400
X-017000Y004400
X-017000Y001500
X-017000Y-003500
X-036000Y004000
X-031000Y004000
X-031000Y002000
X-036000Y002000
X001000Y040000
X006000Y040000
X006000Y038000
X001000Y038000
X-013000Y040400
X-013000Y045400
X-013000Y037800
X-013000Y032800
X009000Y045400
X009000Y040400
X009000Y037500
X009000Y032500
X-010000Y040000
X-005000Y040000
X-005000Y038000
X-010000Y038000
X001000Y022000
X006000Y022000
X006000Y020000
X001000Y020000
X-013000Y022400
X-013000Y027400
X-013000Y019800
X-013000Y014800
X009000Y027400
X009000Y022400
X009000Y019500
X009000Y014500
X-010000Y022000
X-005000Y022000
X-005000Y020000
X-010000Y020000
X001000Y004000
X006000Y004000
X006000Y002000
X001000Y002000
X-013000Y004400
X-013000Y009400
X-013000Y001800
X-013000Y-003200
X009000Y009400
X009000Y004400
X009000Y001500
X009000Y-003500
X-010000Y004000
X-005000Y004000
X-005000Y002000
X-010000Y002000
T03
X-005825Y-002270
X-003666Y-002270
X-006469Y020942
X-032469Y002942
X-006469Y002942
X-032966Y019132
X-058469Y020942
X-006966Y019132
X-032966Y001132
X-058469Y002942
X-058966Y019132
X-006966Y001132
X-032469Y038942
X-058966Y001132
X-057825Y015729
X-055666Y015729
X-060815Y015757
X-006469Y038942
X-032966Y037132
X-057825Y-002270
X-055666Y-002270
X-060815Y-002242
X-006966Y037132
X-031825Y033729
X-029666Y033729
X-034815Y033757
X-005825Y033729
X-003666Y033729
X-008815Y033757
X-034815Y015757
X-008815Y015757
X-034815Y-002242
X-008815Y-002242
X-058469Y038942
X-031825Y015729
X-029666Y015729
X-060815Y033757
X-058966Y037132
X-005825Y015729
X-003666Y015729
X-031825Y-002270
X-029666Y-002270
X-032469Y020942
X-057825Y033729
X-055666Y033729
M30
