;Holesize 1 =   28.0 PLATED MILS
;Holesize 2 =   35.0 PLATED MILS
;Holesize 3 =   45.0 PLATED MILS
;Holesize 4 =   14.0 PLATED MILS
M48
INCH
T01C0.028
T02C0.035
T03C0.045
T04C0.014
%
G05
G90
T01
X-013000Y-027000
X-012000Y-027000
X-011000Y-027000
X-010000Y-027000
X-009000Y-027000
X-008000Y-027000
X-007000Y-027000
X-007000Y-024000
X-008000Y-024000
X-009000Y-024000
X-010000Y-024000
X-011000Y-024000
X-012000Y-024000
X-013000Y-024000
X006300Y-028000
X007300Y-028000
X008300Y-028000
X009300Y-028000
X010300Y-028000
X011300Y-028000
X012300Y-028000
X012300Y-025000
X011300Y-025000
X010300Y-025000
X009300Y-025000
X008300Y-025000
X007300Y-025000
X006300Y-025000
X006000Y-014000
X007000Y-014000
X008000Y-014000
X009000Y-014000
X010000Y-014000
X011000Y-014000
X012000Y-014000
X012000Y-011000
X011000Y-011000
X010000Y-011000
X009000Y-011000
X008000Y-011000
X007000Y-011000
X006000Y-011000
X020000Y023000
X021000Y023000
X022000Y023000
X023000Y023000
X024000Y023000
X025000Y023000
X026000Y023000
X026000Y026000
X025000Y026000
X024000Y026000
X023000Y026000
X022000Y026000
X021000Y026000
X020000Y026000
X006100Y011800
X007100Y011800
X008100Y011800
X009100Y011800
X010100Y011800
X011100Y011800
X012100Y011800
X012100Y014800
X011100Y014800
X010100Y014800
X009100Y014800
X008100Y014800
X007100Y014800
X006100Y014800
X-013000Y024000
X-012000Y024000
X-011000Y024000
X-010000Y024000
X-009000Y024000
X-008000Y024000
X-007000Y024000
X-007000Y027000
X-008000Y027000
X-009000Y027000
X-010000Y027000
X-011000Y027000
X-012000Y027000
X-013000Y027000
X021400Y-000500
X022400Y-000500
X023400Y-000500
X024400Y-000500
X025400Y-000500
X026400Y-000500
X027400Y-000500
X027400Y002500
X026400Y002500
X025400Y002500
X024400Y002500
X023400Y002500
X022400Y002500
X021400Y002500
X021800Y-014600
X022800Y-014600
X023800Y-014600
X024800Y-014600
X025800Y-014600
X026800Y-014600
X027800Y-014600
X027800Y-011600
X026800Y-011600
X025800Y-011600
X024800Y-011600
X023800Y-011600
X022800Y-011600
X021800Y-011600
X022000Y012000
X023000Y012000
X024000Y012000
X025000Y012000
X026000Y012000
X027000Y012000
X028000Y012000
X028000Y015000
X027000Y015000
X026000Y015000
X025000Y015000
X024000Y015000
X023000Y015000
X022000Y015000
X-013000Y-014000
X-012000Y-014000
X-011000Y-014000
X-010000Y-014000
X-009000Y-014000
X-008000Y-014000
X-007000Y-014000
X-007000Y-011000
X-008000Y-011000
X-009000Y-011000
X-010000Y-011000
X-011000Y-011000
X-012000Y-011000
X-013000Y-011000
X-013400Y-000300
X-012400Y-000300
X-011400Y-000300
X-010400Y-000300
X-009400Y-000300
X-008400Y-000300
X-007400Y-000300
X-007400Y002700
X-008400Y002700
X-009400Y002700
X-010400Y002700
X-011400Y002700
X-012400Y002700
X-013400Y002700
X-013700Y012200
X-012700Y012200
X-011700Y012200
X-010700Y012200
X-009700Y012200
X-008700Y012200
X-007700Y012200
X-007700Y015200
X-008700Y015200
X-009700Y015200
X-010700Y015200
X-011700Y015200
X-012700Y015200
X-013700Y015200
X-026000Y024000
X-025000Y024000
X-024000Y024000
X-023000Y024000
X-022000Y024000
X-021000Y024000
X-020000Y024000
X-020000Y027000
X-021000Y027000
X-022000Y027000
X-023000Y027000
X-024000Y027000
X-025000Y027000
X-026000Y027000
X006000Y000000
X007000Y000000
X008000Y000000
X009000Y000000
X010000Y000000
X011000Y000000
X012000Y000000
X012000Y003000
X011000Y003000
X010000Y003000
X009000Y003000
X008000Y003000
X007000Y003000
X006000Y003000
X006000Y024000
X007000Y024000
X008000Y024000
X009000Y024000
X010000Y024000
X011000Y024000
X012000Y024000
X012000Y027000
X011000Y027000
X010000Y027000
X009000Y027000
X008000Y027000
X007000Y027000
X006000Y027000
X023000Y-026000
X023000Y-027000
X019000Y-027000
X019000Y-026000
X023000Y-020000
X024000Y-020000
X023000Y-021000
X024000Y-021000
X023000Y-022000
X024000Y-022000
X023000Y-023000
X024000Y-023000
T02
X-003000Y-021000
X-003000Y-026000
X002000Y-026000
X002000Y-021000
X-013000Y-019000
X-008000Y-019000
X-012900Y-020700
X-007900Y-020700
X001000Y012200
X001000Y007200
X001000Y003000
X001000Y-002000
X-002000Y018000
X-002000Y013000
X007000Y-020900
X012000Y-020900
X016000Y-015000
X016000Y-010000
X007000Y-019000
X012000Y-019000
X007000Y-007000
X012000Y-007000
X007000Y-004000
X012000Y-004000
X001000Y-007000
X001000Y-012000
X016000Y-001000
X016000Y-006000
X016000Y016000
X016000Y011000
X007100Y019500
X012100Y019500
X007000Y007000
X012000Y007000
X007000Y009000
X012000Y009000
X-013000Y017000
X-008000Y017000
X-013000Y020000
X-008000Y020000
X-003000Y023000
X002000Y023000
X016000Y023000
X016000Y018000
X022000Y008000
X027000Y008000
X023000Y018000
X028000Y018000
X022200Y-008100
X027200Y-008100
X016000Y-017000
X016000Y-022000
X001000Y019000
X001000Y014000
X022100Y-005600
X027100Y-005600
X019000Y013000
X019000Y008000
X023000Y020000
X028000Y020000
X-003000Y026000
X002000Y026000
X016000Y007000
X016000Y002000
X-012000Y-007000
X-007000Y-007000
X022000Y006000
X027000Y006000
X-003000Y-018000
X002000Y-018000
X-003000Y-015000
X002000Y-015000
X-013000Y006300
X-008000Y006300
X-012000Y-005000
X-007000Y-005000
X-013000Y008600
X-008000Y008600
X-002000Y012000
X-002000Y007000
X-002000Y-007000
X-002000Y-012000
X-002000Y003000
X-002000Y-002000
T03
X-027200Y020100
X-026200Y020100
X-025200Y020100
X-023200Y020100
X-027200Y015100
X-026200Y015100
X-025200Y015100
X-023200Y015100
X-027200Y010100
X-026200Y010100
X-025200Y010100
X-023200Y010100
X-027200Y002600
X-026200Y002600
X-025200Y002600
X-023200Y002600
X-027200Y-002400
X-026200Y-002400
X-025200Y-002400
X-023200Y-002400
X-027200Y-007400
X-026200Y-007400
X-025200Y-007400
X-023200Y-007400
X-027200Y-014900
X-026200Y-014900
X-025200Y-014900
X-023200Y-014900
X-027200Y-019900
X-026200Y-019900
X-025200Y-019900
X-023200Y-019900
X-027200Y-024900
X-026200Y-024900
X-025200Y-024900
X-023200Y-024900
T04
X022898Y-005739
X002080Y018226
X013603Y-002667
X013166Y-000833
X017685Y017058
X010435Y-001337
X-003301Y-001149
X-003580Y017309
X-000483Y014496
X-013178Y001025
X012907Y-022478
X011893Y-012889
M30
