G04 FreePCB version 1.343*
G04 Z:\trinary\code\bb\swrom-blank-CAM\top_silk.grb*
G04 top silk layer *
G04 Scale: 100 percent, Rotated: No, Reflected: No *
%FSLAX24Y24*%
%MOIN*%
%LNTop*%
%ADD10C,0.005000*%
%ADD11C,0.007000*%
%ADD12C,0.010000*%
%ADD13C,0.007500*%
%ADD14C,0.050000*%
%ADD15C,0.020000*%
G90*
G70D02*

G04 Step and Repeat for panelization *

G04 ----------------------- Draw board outline (positive)*
%LPD*%
G54D10*
G01X-29000Y31500D02*
G01X-29000Y-29500D01*
G04 end of side 1*
G01X29500Y-29500D01*
G04 end of side 2*
G01X29500Y31500D01*
G04 end of side 3*
G01X-29000Y31500D01*

G04 -------------- Draw Parts, Pads, Traces, Vias and Text (positive)*
%LPD*%
G04 Draw part X_IC_0_CD4007*
G04 draw part outline for part X_IC_0_CD4007*
G54D11*
G01X-13500Y-26500D02*
G01X-6500Y-26500D01*
G01X-6500Y-26500D02*
G01X-6500Y-24500D01*
G01X-6500Y-24500D02*
G01X-13500Y-24500D01*
G01X-13500Y-24500D02*
G01X-13500Y-26500D01*
G01X-13500Y-26000D02*
G01X-13000Y-26000D01*
G01X-13000Y-26000D02*
G01X-13000Y-25000D01*
G01X-13000Y-25000D02*
G01X-13500Y-25000D01*
G01X-13500Y-25000D02*
G01X-13500Y-26000D01*
G04 draw reference designator for part X_IC_0_CD4007*
G01X-14477Y-25500D02*
G01X-14000Y-25181D01*
G01X-14477Y-25181D02*
G01X-14000Y-25500D01*
G01X-14000Y-24590D02*
G01X-14000Y-25000D01*
G01X-14477Y-24409D02*
G01X-14000Y-24409D01*
G01X-14409Y-23909D02*
G01X-14363Y-23886D01*
G01X-14454Y-23954D02*
G01X-14409Y-23909D01*
G01X-14477Y-24000D02*
G01X-14454Y-23954D01*
G01X-14477Y-24090D02*
G01X-14477Y-24000D01*
G01X-14477Y-24090D02*
G01X-14454Y-24136D01*
G01X-14454Y-24136D02*
G01X-14409Y-24181D01*
G01X-14409Y-24181D02*
G01X-14363Y-24204D01*
G01X-14363Y-24204D02*
G01X-14295Y-24227D01*
G01X-14295Y-24227D02*
G01X-14181Y-24227D01*
G01X-14181Y-24227D02*
G01X-14113Y-24204D01*
G01X-14113Y-24204D02*
G01X-14068Y-24181D01*
G01X-14068Y-24181D02*
G01X-14022Y-24136D01*
G01X-14022Y-24136D02*
G01X-14000Y-24090D01*
G01X-14000Y-24000D02*
G01X-14000Y-24090D01*
G01X-14022Y-23954D02*
G01X-14000Y-24000D01*
G01X-14068Y-23909D02*
G01X-14022Y-23954D01*
G01X-14113Y-23886D02*
G01X-14068Y-23909D01*
G01X-14000Y-23295D02*
G01X-14000Y-23704D01*
G01X-14477Y-22977D02*
G01X-14454Y-23045D01*
G01X-14454Y-23045D02*
G01X-14386Y-23090D01*
G01X-14386Y-23090D02*
G01X-14272Y-23113D01*
G01X-14272Y-23113D02*
G01X-14204Y-23113D01*
G01X-14204Y-23113D02*
G01X-14090Y-23090D01*
G01X-14090Y-23090D02*
G01X-14022Y-23045D01*
G01X-14022Y-23045D02*
G01X-14000Y-22977D01*
G01X-14000Y-22931D02*
G01X-14000Y-22977D01*
G01X-14022Y-22863D02*
G01X-14000Y-22931D01*
G01X-14090Y-22818D02*
G01X-14022Y-22863D01*
G01X-14204Y-22795D02*
G01X-14090Y-22818D01*
G01X-14272Y-22795D02*
G01X-14204Y-22795D01*
G01X-14386Y-22818D02*
G01X-14272Y-22795D01*
G01X-14454Y-22863D02*
G01X-14386Y-22818D01*
G01X-14477Y-22931D02*
G01X-14454Y-22863D01*
G01X-14477Y-22977D02*
G01X-14477Y-22931D01*
G01X-14000Y-22204D02*
G01X-14000Y-22613D01*
G01X-14409Y-21704D02*
G01X-14363Y-21681D01*
G01X-14454Y-21750D02*
G01X-14409Y-21704D01*
G01X-14477Y-21795D02*
G01X-14454Y-21750D01*
G01X-14477Y-21886D02*
G01X-14477Y-21795D01*
G01X-14477Y-21886D02*
G01X-14454Y-21931D01*
G01X-14454Y-21931D02*
G01X-14409Y-21977D01*
G01X-14409Y-21977D02*
G01X-14363Y-22000D01*
G01X-14363Y-22000D02*
G01X-14295Y-22022D01*
G01X-14295Y-22022D02*
G01X-14181Y-22022D01*
G01X-14181Y-22022D02*
G01X-14113Y-22000D01*
G01X-14113Y-22000D02*
G01X-14068Y-21977D01*
G01X-14068Y-21977D02*
G01X-14022Y-21931D01*
G01X-14022Y-21931D02*
G01X-14000Y-21886D01*
G01X-14000Y-21795D02*
G01X-14000Y-21886D01*
G01X-14022Y-21750D02*
G01X-14000Y-21795D01*
G01X-14068Y-21704D02*
G01X-14022Y-21750D01*
G01X-14113Y-21681D02*
G01X-14068Y-21704D01*
G01X-14477Y-21500D02*
G01X-14000Y-21500D01*
G01X-14477Y-21340D02*
G01X-14477Y-21500D01*
G01X-14477Y-21340D02*
G01X-14454Y-21272D01*
G01X-14454Y-21272D02*
G01X-14409Y-21227D01*
G01X-14409Y-21227D02*
G01X-14363Y-21204D01*
G01X-14363Y-21204D02*
G01X-14295Y-21181D01*
G01X-14295Y-21181D02*
G01X-14181Y-21181D01*
G01X-14181Y-21181D02*
G01X-14113Y-21204D01*
G01X-14113Y-21204D02*
G01X-14068Y-21227D01*
G01X-14068Y-21227D02*
G01X-14022Y-21272D01*
G01X-14022Y-21272D02*
G01X-14000Y-21340D01*
G01X-14000Y-21500D02*
G01X-14000Y-21340D01*
G01X-14477Y-20772D02*
G01X-14159Y-21000D01*
G01X-14159Y-20659D02*
G01X-14159Y-21000D01*
G01X-14477Y-20772D02*
G01X-14000Y-20772D01*
G01X-14477Y-20340D02*
G01X-14454Y-20409D01*
G01X-14454Y-20409D02*
G01X-14386Y-20454D01*
G01X-14386Y-20454D02*
G01X-14272Y-20477D01*
G01X-14272Y-20477D02*
G01X-14204Y-20477D01*
G01X-14204Y-20477D02*
G01X-14090Y-20454D01*
G01X-14090Y-20454D02*
G01X-14022Y-20409D01*
G01X-14022Y-20409D02*
G01X-14000Y-20340D01*
G01X-14000Y-20295D02*
G01X-14000Y-20340D01*
G01X-14022Y-20227D02*
G01X-14000Y-20295D01*
G01X-14090Y-20181D02*
G01X-14022Y-20227D01*
G01X-14204Y-20159D02*
G01X-14090Y-20181D01*
G01X-14272Y-20159D02*
G01X-14204Y-20159D01*
G01X-14386Y-20181D02*
G01X-14272Y-20159D01*
G01X-14454Y-20227D02*
G01X-14386Y-20181D01*
G01X-14477Y-20295D02*
G01X-14454Y-20227D01*
G01X-14477Y-20340D02*
G01X-14477Y-20295D01*
G01X-14477Y-19840D02*
G01X-14454Y-19909D01*
G01X-14454Y-19909D02*
G01X-14386Y-19954D01*
G01X-14386Y-19954D02*
G01X-14272Y-19977D01*
G01X-14272Y-19977D02*
G01X-14204Y-19977D01*
G01X-14204Y-19977D02*
G01X-14090Y-19954D01*
G01X-14090Y-19954D02*
G01X-14022Y-19909D01*
G01X-14022Y-19909D02*
G01X-14000Y-19840D01*
G01X-14000Y-19795D02*
G01X-14000Y-19840D01*
G01X-14022Y-19727D02*
G01X-14000Y-19795D01*
G01X-14090Y-19681D02*
G01X-14022Y-19727D01*
G01X-14204Y-19659D02*
G01X-14090Y-19681D01*
G01X-14272Y-19659D02*
G01X-14204Y-19659D01*
G01X-14386Y-19681D02*
G01X-14272Y-19659D01*
G01X-14454Y-19727D02*
G01X-14386Y-19681D01*
G01X-14477Y-19795D02*
G01X-14454Y-19727D01*
G01X-14477Y-19840D02*
G01X-14477Y-19795D01*
G01X-14477Y-19159D02*
G01X-14000Y-19386D01*
G01X-14477Y-19159D02*
G01X-14477Y-19477D01*
G04 Draw part X_IC_1_CD4007*
G04 draw part outline for part X_IC_1_CD4007*
G01X5800Y-27500D02*
G01X12800Y-27500D01*
G01X12800Y-27500D02*
G01X12800Y-25500D01*
G01X12800Y-25500D02*
G01X5800Y-25500D01*
G01X5800Y-25500D02*
G01X5800Y-27500D01*
G01X5800Y-27000D02*
G01X6300Y-27000D01*
G01X6300Y-27000D02*
G01X6300Y-26000D01*
G01X6300Y-26000D02*
G01X5800Y-26000D01*
G01X5800Y-26000D02*
G01X5800Y-27000D01*
G04 draw reference designator for part X_IC_1_CD4007*
G01X4822Y-26500D02*
G01X5300Y-26181D01*
G01X4822Y-26181D02*
G01X5300Y-26500D01*
G01X5300Y-25590D02*
G01X5300Y-26000D01*
G01X4822Y-25409D02*
G01X5300Y-25409D01*
G01X4890Y-24909D02*
G01X4936Y-24886D01*
G01X4845Y-24954D02*
G01X4890Y-24909D01*
G01X4822Y-25000D02*
G01X4845Y-24954D01*
G01X4822Y-25090D02*
G01X4822Y-25000D01*
G01X4822Y-25090D02*
G01X4845Y-25136D01*
G01X4845Y-25136D02*
G01X4890Y-25181D01*
G01X4890Y-25181D02*
G01X4936Y-25204D01*
G01X4936Y-25204D02*
G01X5004Y-25227D01*
G01X5004Y-25227D02*
G01X5118Y-25227D01*
G01X5118Y-25227D02*
G01X5186Y-25204D01*
G01X5186Y-25204D02*
G01X5231Y-25181D01*
G01X5231Y-25181D02*
G01X5277Y-25136D01*
G01X5277Y-25136D02*
G01X5300Y-25090D01*
G01X5300Y-25000D02*
G01X5300Y-25090D01*
G01X5277Y-24954D02*
G01X5300Y-25000D01*
G01X5231Y-24909D02*
G01X5277Y-24954D01*
G01X5186Y-24886D02*
G01X5231Y-24909D01*
G01X5300Y-24295D02*
G01X5300Y-24704D01*
G01X4890Y-24068D02*
G01X4913Y-24113D01*
G01X4822Y-24000D02*
G01X4890Y-24068D01*
G01X4822Y-24000D02*
G01X5300Y-24000D01*
G01X5300Y-23409D02*
G01X5300Y-23818D01*
G01X4890Y-22909D02*
G01X4936Y-22886D01*
G01X4845Y-22954D02*
G01X4890Y-22909D01*
G01X4822Y-23000D02*
G01X4845Y-22954D01*
G01X4822Y-23090D02*
G01X4822Y-23000D01*
G01X4822Y-23090D02*
G01X4845Y-23136D01*
G01X4845Y-23136D02*
G01X4890Y-23181D01*
G01X4890Y-23181D02*
G01X4936Y-23204D01*
G01X4936Y-23204D02*
G01X5004Y-23227D01*
G01X5004Y-23227D02*
G01X5118Y-23227D01*
G01X5118Y-23227D02*
G01X5186Y-23204D01*
G01X5186Y-23204D02*
G01X5231Y-23181D01*
G01X5231Y-23181D02*
G01X5277Y-23136D01*
G01X5277Y-23136D02*
G01X5300Y-23090D01*
G01X5300Y-23000D02*
G01X5300Y-23090D01*
G01X5277Y-22954D02*
G01X5300Y-23000D01*
G01X5231Y-22909D02*
G01X5277Y-22954D01*
G01X5186Y-22886D02*
G01X5231Y-22909D01*
G01X4822Y-22704D02*
G01X5300Y-22704D01*
G01X4822Y-22545D02*
G01X4822Y-22704D01*
G01X4822Y-22545D02*
G01X4845Y-22477D01*
G01X4845Y-22477D02*
G01X4890Y-22431D01*
G01X4890Y-22431D02*
G01X4936Y-22409D01*
G01X4936Y-22409D02*
G01X5004Y-22386D01*
G01X5004Y-22386D02*
G01X5118Y-22386D01*
G01X5118Y-22386D02*
G01X5186Y-22409D01*
G01X5186Y-22409D02*
G01X5231Y-22431D01*
G01X5231Y-22431D02*
G01X5277Y-22477D01*
G01X5277Y-22477D02*
G01X5300Y-22545D01*
G01X5300Y-22704D02*
G01X5300Y-22545D01*
G01X4822Y-21977D02*
G01X5140Y-22204D01*
G01X5140Y-21863D02*
G01X5140Y-22204D01*
G01X4822Y-21977D02*
G01X5300Y-21977D01*
G01X4822Y-21545D02*
G01X4845Y-21613D01*
G01X4845Y-21613D02*
G01X4913Y-21659D01*
G01X4913Y-21659D02*
G01X5027Y-21681D01*
G01X5027Y-21681D02*
G01X5095Y-21681D01*
G01X5095Y-21681D02*
G01X5209Y-21659D01*
G01X5209Y-21659D02*
G01X5277Y-21613D01*
G01X5277Y-21613D02*
G01X5300Y-21545D01*
G01X5300Y-21500D02*
G01X5300Y-21545D01*
G01X5277Y-21431D02*
G01X5300Y-21500D01*
G01X5209Y-21386D02*
G01X5277Y-21431D01*
G01X5095Y-21363D02*
G01X5209Y-21386D01*
G01X5027Y-21363D02*
G01X5095Y-21363D01*
G01X4913Y-21386D02*
G01X5027Y-21363D01*
G01X4845Y-21431D02*
G01X4913Y-21386D01*
G01X4822Y-21500D02*
G01X4845Y-21431D01*
G01X4822Y-21545D02*
G01X4822Y-21500D01*
G01X4822Y-21045D02*
G01X4845Y-21113D01*
G01X4845Y-21113D02*
G01X4913Y-21159D01*
G01X4913Y-21159D02*
G01X5027Y-21181D01*
G01X5027Y-21181D02*
G01X5095Y-21181D01*
G01X5095Y-21181D02*
G01X5209Y-21159D01*
G01X5209Y-21159D02*
G01X5277Y-21113D01*
G01X5277Y-21113D02*
G01X5300Y-21045D01*
G01X5300Y-21000D02*
G01X5300Y-21045D01*
G01X5277Y-20931D02*
G01X5300Y-21000D01*
G01X5209Y-20886D02*
G01X5277Y-20931D01*
G01X5095Y-20863D02*
G01X5209Y-20886D01*
G01X5027Y-20863D02*
G01X5095Y-20863D01*
G01X4913Y-20886D02*
G01X5027Y-20863D01*
G01X4845Y-20931D02*
G01X4913Y-20886D01*
G01X4822Y-21000D02*
G01X4845Y-20931D01*
G01X4822Y-21045D02*
G01X4822Y-21000D01*
G01X4822Y-20363D02*
G01X5300Y-20590D01*
G01X4822Y-20363D02*
G01X4822Y-20681D01*
G04 Draw part X_IC_2_CD4007*
G04 draw part outline for part X_IC_2_CD4007*
G01X5500Y-13500D02*
G01X12500Y-13500D01*
G01X12500Y-13500D02*
G01X12500Y-11500D01*
G01X12500Y-11500D02*
G01X5500Y-11500D01*
G01X5500Y-11500D02*
G01X5500Y-13500D01*
G01X5500Y-13000D02*
G01X6000Y-13000D01*
G01X6000Y-13000D02*
G01X6000Y-12000D01*
G01X6000Y-12000D02*
G01X5500Y-12000D01*
G01X5500Y-12000D02*
G01X5500Y-13000D01*
G04 draw reference designator for part X_IC_2_CD4007*
G01X4522Y-12500D02*
G01X5000Y-12181D01*
G01X4522Y-12181D02*
G01X5000Y-12500D01*
G01X5000Y-11590D02*
G01X5000Y-12000D01*
G01X4522Y-11409D02*
G01X5000Y-11409D01*
G01X4590Y-10909D02*
G01X4636Y-10886D01*
G01X4545Y-10954D02*
G01X4590Y-10909D01*
G01X4522Y-11000D02*
G01X4545Y-10954D01*
G01X4522Y-11090D02*
G01X4522Y-11000D01*
G01X4522Y-11090D02*
G01X4545Y-11136D01*
G01X4545Y-11136D02*
G01X4590Y-11181D01*
G01X4590Y-11181D02*
G01X4636Y-11204D01*
G01X4636Y-11204D02*
G01X4704Y-11227D01*
G01X4704Y-11227D02*
G01X4818Y-11227D01*
G01X4818Y-11227D02*
G01X4886Y-11204D01*
G01X4886Y-11204D02*
G01X4931Y-11181D01*
G01X4931Y-11181D02*
G01X4977Y-11136D01*
G01X4977Y-11136D02*
G01X5000Y-11090D01*
G01X5000Y-11000D02*
G01X5000Y-11090D01*
G01X4977Y-10954D02*
G01X5000Y-11000D01*
G01X4931Y-10909D02*
G01X4977Y-10954D01*
G01X4886Y-10886D02*
G01X4931Y-10909D01*
G01X5000Y-10295D02*
G01X5000Y-10704D01*
G01X4613Y-10090D02*
G01X4636Y-10090D01*
G01X4568Y-10068D02*
G01X4613Y-10090D01*
G01X4545Y-10045D02*
G01X4568Y-10068D01*
G01X4522Y-10000D02*
G01X4545Y-10045D01*
G01X4522Y-9909D02*
G01X4522Y-10000D01*
G01X4522Y-9909D02*
G01X4545Y-9863D01*
G01X4545Y-9863D02*
G01X4568Y-9840D01*
G01X4568Y-9840D02*
G01X4613Y-9818D01*
G01X4613Y-9818D02*
G01X4659Y-9818D01*
G01X4659Y-9818D02*
G01X4704Y-9840D01*
G01X4704Y-9840D02*
G01X4772Y-9886D01*
G01X4772Y-9886D02*
G01X5000Y-10113D01*
G01X5000Y-9795D02*
G01X5000Y-10113D01*
G01X5000Y-9204D02*
G01X5000Y-9613D01*
G01X4590Y-8704D02*
G01X4636Y-8681D01*
G01X4545Y-8750D02*
G01X4590Y-8704D01*
G01X4522Y-8795D02*
G01X4545Y-8750D01*
G01X4522Y-8886D02*
G01X4522Y-8795D01*
G01X4522Y-8886D02*
G01X4545Y-8931D01*
G01X4545Y-8931D02*
G01X4590Y-8977D01*
G01X4590Y-8977D02*
G01X4636Y-9000D01*
G01X4636Y-9000D02*
G01X4704Y-9022D01*
G01X4704Y-9022D02*
G01X4818Y-9022D01*
G01X4818Y-9022D02*
G01X4886Y-9000D01*
G01X4886Y-9000D02*
G01X4931Y-8977D01*
G01X4931Y-8977D02*
G01X4977Y-8931D01*
G01X4977Y-8931D02*
G01X5000Y-8886D01*
G01X5000Y-8795D02*
G01X5000Y-8886D01*
G01X4977Y-8750D02*
G01X5000Y-8795D01*
G01X4931Y-8704D02*
G01X4977Y-8750D01*
G01X4886Y-8681D02*
G01X4931Y-8704D01*
G01X4522Y-8500D02*
G01X5000Y-8500D01*
G01X4522Y-8340D02*
G01X4522Y-8500D01*
G01X4522Y-8340D02*
G01X4545Y-8272D01*
G01X4545Y-8272D02*
G01X4590Y-8227D01*
G01X4590Y-8227D02*
G01X4636Y-8204D01*
G01X4636Y-8204D02*
G01X4704Y-8181D01*
G01X4704Y-8181D02*
G01X4818Y-8181D01*
G01X4818Y-8181D02*
G01X4886Y-8204D01*
G01X4886Y-8204D02*
G01X4931Y-8227D01*
G01X4931Y-8227D02*
G01X4977Y-8272D01*
G01X4977Y-8272D02*
G01X5000Y-8340D01*
G01X5000Y-8500D02*
G01X5000Y-8340D01*
G01X4522Y-7772D02*
G01X4840Y-8000D01*
G01X4840Y-7659D02*
G01X4840Y-8000D01*
G01X4522Y-7772D02*
G01X5000Y-7772D01*
G01X4522Y-7340D02*
G01X4545Y-7409D01*
G01X4545Y-7409D02*
G01X4613Y-7454D01*
G01X4613Y-7454D02*
G01X4727Y-7477D01*
G01X4727Y-7477D02*
G01X4795Y-7477D01*
G01X4795Y-7477D02*
G01X4909Y-7454D01*
G01X4909Y-7454D02*
G01X4977Y-7409D01*
G01X4977Y-7409D02*
G01X5000Y-7340D01*
G01X5000Y-7295D02*
G01X5000Y-7340D01*
G01X4977Y-7227D02*
G01X5000Y-7295D01*
G01X4909Y-7181D02*
G01X4977Y-7227D01*
G01X4795Y-7159D02*
G01X4909Y-7181D01*
G01X4727Y-7159D02*
G01X4795Y-7159D01*
G01X4613Y-7181D02*
G01X4727Y-7159D01*
G01X4545Y-7227D02*
G01X4613Y-7181D01*
G01X4522Y-7295D02*
G01X4545Y-7227D01*
G01X4522Y-7340D02*
G01X4522Y-7295D01*
G01X4522Y-6840D02*
G01X4545Y-6909D01*
G01X4545Y-6909D02*
G01X4613Y-6954D01*
G01X4613Y-6954D02*
G01X4727Y-6977D01*
G01X4727Y-6977D02*
G01X4795Y-6977D01*
G01X4795Y-6977D02*
G01X4909Y-6954D01*
G01X4909Y-6954D02*
G01X4977Y-6909D01*
G01X4977Y-6909D02*
G01X5000Y-6840D01*
G01X5000Y-6795D02*
G01X5000Y-6840D01*
G01X4977Y-6727D02*
G01X5000Y-6795D01*
G01X4909Y-6681D02*
G01X4977Y-6727D01*
G01X4795Y-6659D02*
G01X4909Y-6681D01*
G01X4727Y-6659D02*
G01X4795Y-6659D01*
G01X4613Y-6681D02*
G01X4727Y-6659D01*
G01X4545Y-6727D02*
G01X4613Y-6681D01*
G01X4522Y-6795D02*
G01X4545Y-6727D01*
G01X4522Y-6840D02*
G01X4522Y-6795D01*
G01X4522Y-6159D02*
G01X5000Y-6386D01*
G01X4522Y-6159D02*
G01X4522Y-6477D01*
G04 Draw part X_IC_3_CD4007*
G04 draw part outline for part X_IC_3_CD4007*
G01X19500Y23500D02*
G01X26500Y23500D01*
G01X26500Y23500D02*
G01X26500Y25500D01*
G01X26500Y25500D02*
G01X19500Y25500D01*
G01X19500Y25500D02*
G01X19500Y23500D01*
G01X19500Y24000D02*
G01X20000Y24000D01*
G01X20000Y24000D02*
G01X20000Y25000D01*
G01X20000Y25000D02*
G01X19500Y25000D01*
G01X19500Y25000D02*
G01X19500Y24000D01*
G04 draw reference designator for part X_IC_3_CD4007*
G01X18522Y19500D02*
G01X19000Y19818D01*
G01X18522Y19818D02*
G01X19000Y19500D01*
G01X19000Y20409D02*
G01X19000Y20000D01*
G01X18522Y20590D02*
G01X19000Y20590D01*
G01X18590Y21090D02*
G01X18636Y21113D01*
G01X18545Y21045D02*
G01X18590Y21090D01*
G01X18522Y21000D02*
G01X18545Y21045D01*
G01X18522Y20909D02*
G01X18522Y21000D01*
G01X18522Y20909D02*
G01X18545Y20863D01*
G01X18545Y20863D02*
G01X18590Y20818D01*
G01X18590Y20818D02*
G01X18636Y20795D01*
G01X18636Y20795D02*
G01X18704Y20772D01*
G01X18704Y20772D02*
G01X18818Y20772D01*
G01X18818Y20772D02*
G01X18886Y20795D01*
G01X18886Y20795D02*
G01X18931Y20818D01*
G01X18931Y20818D02*
G01X18977Y20863D01*
G01X18977Y20863D02*
G01X19000Y20909D01*
G01X19000Y21000D02*
G01X19000Y20909D01*
G01X18977Y21045D02*
G01X19000Y21000D01*
G01X18931Y21090D02*
G01X18977Y21045D01*
G01X18886Y21113D02*
G01X18931Y21090D01*
G01X19000Y21704D02*
G01X19000Y21295D01*
G01X18522Y22181D02*
G01X18522Y21931D01*
G01X18522Y22181D02*
G01X18704Y22045D01*
G01X18704Y22113D02*
G01X18704Y22045D01*
G01X18704Y22113D02*
G01X18727Y22159D01*
G01X18727Y22159D02*
G01X18750Y22181D01*
G01X18750Y22181D02*
G01X18818Y22204D01*
G01X18818Y22204D02*
G01X18863Y22204D01*
G01X18863Y22204D02*
G01X18931Y22181D01*
G01X18931Y22181D02*
G01X18977Y22136D01*
G01X18977Y22136D02*
G01X19000Y22068D01*
G01X19000Y21999D02*
G01X19000Y22068D01*
G01X18977Y21931D02*
G01X19000Y21999D01*
G01X18954Y21909D02*
G01X18977Y21931D01*
G01X18909Y21886D02*
G01X18954Y21909D01*
G01X19000Y22795D02*
G01X19000Y22386D01*
G01X18590Y23295D02*
G01X18636Y23318D01*
G01X18545Y23250D02*
G01X18590Y23295D01*
G01X18522Y23204D02*
G01X18545Y23250D01*
G01X18522Y23113D02*
G01X18522Y23204D01*
G01X18522Y23113D02*
G01X18545Y23068D01*
G01X18545Y23068D02*
G01X18590Y23022D01*
G01X18590Y23022D02*
G01X18636Y23000D01*
G01X18636Y23000D02*
G01X18704Y22977D01*
G01X18704Y22977D02*
G01X18818Y22977D01*
G01X18818Y22977D02*
G01X18886Y23000D01*
G01X18886Y23000D02*
G01X18931Y23022D01*
G01X18931Y23022D02*
G01X18977Y23068D01*
G01X18977Y23068D02*
G01X19000Y23113D01*
G01X19000Y23204D02*
G01X19000Y23113D01*
G01X18977Y23250D02*
G01X19000Y23204D01*
G01X18931Y23295D02*
G01X18977Y23250D01*
G01X18886Y23318D02*
G01X18931Y23295D01*
G01X18522Y23500D02*
G01X19000Y23500D01*
G01X18522Y23659D02*
G01X18522Y23500D01*
G01X18522Y23659D02*
G01X18545Y23727D01*
G01X18545Y23727D02*
G01X18590Y23772D01*
G01X18590Y23772D02*
G01X18636Y23795D01*
G01X18636Y23795D02*
G01X18704Y23818D01*
G01X18704Y23818D02*
G01X18818Y23818D01*
G01X18818Y23818D02*
G01X18886Y23795D01*
G01X18886Y23795D02*
G01X18931Y23772D01*
G01X18931Y23772D02*
G01X18977Y23727D01*
G01X18977Y23727D02*
G01X19000Y23659D01*
G01X19000Y23500D02*
G01X19000Y23659D01*
G01X18522Y24227D02*
G01X18840Y24000D01*
G01X18840Y24340D02*
G01X18840Y24000D01*
G01X18522Y24227D02*
G01X19000Y24227D01*
G01X18522Y24659D02*
G01X18545Y24590D01*
G01X18545Y24590D02*
G01X18613Y24545D01*
G01X18613Y24545D02*
G01X18727Y24522D01*
G01X18727Y24522D02*
G01X18795Y24522D01*
G01X18795Y24522D02*
G01X18909Y24545D01*
G01X18909Y24545D02*
G01X18977Y24590D01*
G01X18977Y24590D02*
G01X19000Y24659D01*
G01X19000Y24704D02*
G01X19000Y24659D01*
G01X18977Y24772D02*
G01X19000Y24704D01*
G01X18909Y24818D02*
G01X18977Y24772D01*
G01X18795Y24840D02*
G01X18909Y24818D01*
G01X18727Y24840D02*
G01X18795Y24840D01*
G01X18613Y24818D02*
G01X18727Y24840D01*
G01X18545Y24772D02*
G01X18613Y24818D01*
G01X18522Y24704D02*
G01X18545Y24772D01*
G01X18522Y24659D02*
G01X18522Y24704D01*
G01X18522Y25159D02*
G01X18545Y25090D01*
G01X18545Y25090D02*
G01X18613Y25045D01*
G01X18613Y25045D02*
G01X18727Y25022D01*
G01X18727Y25022D02*
G01X18795Y25022D01*
G01X18795Y25022D02*
G01X18909Y25045D01*
G01X18909Y25045D02*
G01X18977Y25090D01*
G01X18977Y25090D02*
G01X19000Y25159D01*
G01X19000Y25204D02*
G01X19000Y25159D01*
G01X18977Y25272D02*
G01X19000Y25204D01*
G01X18909Y25318D02*
G01X18977Y25272D01*
G01X18795Y25340D02*
G01X18909Y25318D01*
G01X18727Y25340D02*
G01X18795Y25340D01*
G01X18613Y25318D02*
G01X18727Y25340D01*
G01X18545Y25272D02*
G01X18613Y25318D01*
G01X18522Y25204D02*
G01X18545Y25272D01*
G01X18522Y25159D02*
G01X18522Y25204D01*
G01X18522Y25840D02*
G01X19000Y25613D01*
G01X18522Y25840D02*
G01X18522Y25522D01*
G04 Draw part X_IC_4_CD4007*
G04 draw part outline for part X_IC_4_CD4007*
G01X5600Y12300D02*
G01X12600Y12300D01*
G01X12600Y12300D02*
G01X12600Y14300D01*
G01X12600Y14300D02*
G01X5600Y14300D01*
G01X5600Y14300D02*
G01X5600Y12300D01*
G01X5600Y12800D02*
G01X6100Y12800D01*
G01X6100Y12800D02*
G01X6100Y13800D01*
G01X6100Y13800D02*
G01X5600Y13800D01*
G01X5600Y13800D02*
G01X5600Y12800D01*
G04 draw reference designator for part X_IC_4_CD4007*
G01X4622Y10300D02*
G01X5100Y10618D01*
G01X4622Y10618D02*
G01X5100Y10300D01*
G01X5100Y11209D02*
G01X5100Y10800D01*
G01X4622Y11390D02*
G01X5100Y11390D01*
G01X4690Y11890D02*
G01X4736Y11913D01*
G01X4645Y11845D02*
G01X4690Y11890D01*
G01X4622Y11800D02*
G01X4645Y11845D01*
G01X4622Y11709D02*
G01X4622Y11800D01*
G01X4622Y11709D02*
G01X4645Y11663D01*
G01X4645Y11663D02*
G01X4690Y11618D01*
G01X4690Y11618D02*
G01X4736Y11595D01*
G01X4736Y11595D02*
G01X4804Y11572D01*
G01X4804Y11572D02*
G01X4918Y11572D01*
G01X4918Y11572D02*
G01X4986Y11595D01*
G01X4986Y11595D02*
G01X5031Y11618D01*
G01X5031Y11618D02*
G01X5077Y11663D01*
G01X5077Y11663D02*
G01X5100Y11709D01*
G01X5100Y11800D02*
G01X5100Y11709D01*
G01X5077Y11845D02*
G01X5100Y11800D01*
G01X5031Y11890D02*
G01X5077Y11845D01*
G01X4986Y11913D02*
G01X5031Y11890D01*
G01X5100Y12504D02*
G01X5100Y12095D01*
G01X4622Y12913D02*
G01X4940Y12686D01*
G01X4940Y13027D02*
G01X4940Y12686D01*
G01X4622Y12913D02*
G01X5100Y12913D01*
G01X5100Y13618D02*
G01X5100Y13209D01*
G01X4690Y14118D02*
G01X4736Y14140D01*
G01X4645Y14072D02*
G01X4690Y14118D01*
G01X4622Y14027D02*
G01X4645Y14072D01*
G01X4622Y13936D02*
G01X4622Y14027D01*
G01X4622Y13936D02*
G01X4645Y13890D01*
G01X4645Y13890D02*
G01X4690Y13845D01*
G01X4690Y13845D02*
G01X4736Y13822D01*
G01X4736Y13822D02*
G01X4804Y13800D01*
G01X4804Y13800D02*
G01X4918Y13800D01*
G01X4918Y13800D02*
G01X4986Y13822D01*
G01X4986Y13822D02*
G01X5031Y13845D01*
G01X5031Y13845D02*
G01X5077Y13890D01*
G01X5077Y13890D02*
G01X5100Y13936D01*
G01X5100Y14027D02*
G01X5100Y13936D01*
G01X5077Y14072D02*
G01X5100Y14027D01*
G01X5031Y14118D02*
G01X5077Y14072D01*
G01X4986Y14140D02*
G01X5031Y14118D01*
G01X4622Y14322D02*
G01X5100Y14322D01*
G01X4622Y14481D02*
G01X4622Y14322D01*
G01X4622Y14481D02*
G01X4645Y14550D01*
G01X4645Y14550D02*
G01X4690Y14595D01*
G01X4690Y14595D02*
G01X4736Y14618D01*
G01X4736Y14618D02*
G01X4804Y14640D01*
G01X4804Y14640D02*
G01X4918Y14640D01*
G01X4918Y14640D02*
G01X4986Y14618D01*
G01X4986Y14618D02*
G01X5031Y14595D01*
G01X5031Y14595D02*
G01X5077Y14550D01*
G01X5077Y14550D02*
G01X5100Y14481D01*
G01X5100Y14322D02*
G01X5100Y14481D01*
G01X4622Y15050D02*
G01X4940Y14822D01*
G01X4940Y15163D02*
G01X4940Y14822D01*
G01X4622Y15050D02*
G01X5100Y15050D01*
G01X4622Y15481D02*
G01X4645Y15413D01*
G01X4645Y15413D02*
G01X4713Y15368D01*
G01X4713Y15368D02*
G01X4827Y15345D01*
G01X4827Y15345D02*
G01X4895Y15345D01*
G01X4895Y15345D02*
G01X5009Y15368D01*
G01X5009Y15368D02*
G01X5077Y15413D01*
G01X5077Y15413D02*
G01X5100Y15481D01*
G01X5100Y15527D02*
G01X5100Y15481D01*
G01X5077Y15595D02*
G01X5100Y15527D01*
G01X5009Y15640D02*
G01X5077Y15595D01*
G01X4895Y15663D02*
G01X5009Y15640D01*
G01X4827Y15663D02*
G01X4895Y15663D01*
G01X4713Y15640D02*
G01X4827Y15663D01*
G01X4645Y15595D02*
G01X4713Y15640D01*
G01X4622Y15527D02*
G01X4645Y15595D01*
G01X4622Y15481D02*
G01X4622Y15527D01*
G01X4622Y15981D02*
G01X4645Y15913D01*
G01X4645Y15913D02*
G01X4713Y15868D01*
G01X4713Y15868D02*
G01X4827Y15845D01*
G01X4827Y15845D02*
G01X4895Y15845D01*
G01X4895Y15845D02*
G01X5009Y15868D01*
G01X5009Y15868D02*
G01X5077Y15913D01*
G01X5077Y15913D02*
G01X5100Y15981D01*
G01X5100Y16027D02*
G01X5100Y15981D01*
G01X5077Y16095D02*
G01X5100Y16027D01*
G01X5009Y16140D02*
G01X5077Y16095D01*
G01X4895Y16163D02*
G01X5009Y16140D01*
G01X4827Y16163D02*
G01X4895Y16163D01*
G01X4713Y16140D02*
G01X4827Y16163D01*
G01X4645Y16095D02*
G01X4713Y16140D01*
G01X4622Y16027D02*
G01X4645Y16095D01*
G01X4622Y15981D02*
G01X4622Y16027D01*
G01X4622Y16663D02*
G01X5100Y16436D01*
G01X4622Y16663D02*
G01X4622Y16345D01*
G04 Draw part X_IC_5_CD4007*
G04 draw part outline for part X_IC_5_CD4007*
G01X-13500Y24500D02*
G01X-6500Y24500D01*
G01X-6500Y24500D02*
G01X-6500Y26500D01*
G01X-6500Y26500D02*
G01X-13500Y26500D01*
G01X-13500Y26500D02*
G01X-13500Y24500D01*
G01X-13500Y25000D02*
G01X-13000Y25000D01*
G01X-13000Y25000D02*
G01X-13000Y26000D01*
G01X-13000Y26000D02*
G01X-13500Y26000D01*
G01X-13500Y26000D02*
G01X-13500Y25000D01*
G04 draw reference designator for part X_IC_5_CD4007*
G01X-15477Y20500D02*
G01X-15000Y20818D01*
G01X-15477Y20818D02*
G01X-15000Y20500D01*
G01X-15000Y21409D02*
G01X-15000Y21000D01*
G01X-15477Y21590D02*
G01X-15000Y21590D01*
G01X-15409Y22090D02*
G01X-15363Y22113D01*
G01X-15454Y22045D02*
G01X-15409Y22090D01*
G01X-15477Y22000D02*
G01X-15454Y22045D01*
G01X-15477Y21909D02*
G01X-15477Y22000D01*
G01X-15477Y21909D02*
G01X-15454Y21863D01*
G01X-15454Y21863D02*
G01X-15409Y21818D01*
G01X-15409Y21818D02*
G01X-15363Y21795D01*
G01X-15363Y21795D02*
G01X-15295Y21772D01*
G01X-15295Y21772D02*
G01X-15181Y21772D01*
G01X-15181Y21772D02*
G01X-15113Y21795D01*
G01X-15113Y21795D02*
G01X-15068Y21818D01*
G01X-15068Y21818D02*
G01X-15022Y21863D01*
G01X-15022Y21863D02*
G01X-15000Y21909D01*
G01X-15000Y22000D02*
G01X-15000Y21909D01*
G01X-15022Y22045D02*
G01X-15000Y22000D01*
G01X-15068Y22090D02*
G01X-15022Y22045D01*
G01X-15113Y22113D02*
G01X-15068Y22090D01*
G01X-15000Y22704D02*
G01X-15000Y22295D01*
G01X-15477Y22931D02*
G01X-15477Y23159D01*
G01X-15477Y22931D02*
G01X-15272Y22909D01*
G01X-15295Y22931D02*
G01X-15272Y22909D01*
G01X-15318Y22999D02*
G01X-15295Y22931D01*
G01X-15318Y23068D02*
G01X-15318Y22999D01*
G01X-15318Y23068D02*
G01X-15295Y23136D01*
G01X-15295Y23136D02*
G01X-15250Y23181D01*
G01X-15250Y23181D02*
G01X-15181Y23204D01*
G01X-15181Y23204D02*
G01X-15136Y23204D01*
G01X-15136Y23204D02*
G01X-15068Y23181D01*
G01X-15068Y23181D02*
G01X-15022Y23136D01*
G01X-15022Y23136D02*
G01X-15000Y23068D01*
G01X-15000Y22999D02*
G01X-15000Y23068D01*
G01X-15022Y22931D02*
G01X-15000Y22999D01*
G01X-15045Y22909D02*
G01X-15022Y22931D01*
G01X-15090Y22886D02*
G01X-15045Y22909D01*
G01X-15000Y23795D02*
G01X-15000Y23386D01*
G01X-15409Y24295D02*
G01X-15363Y24318D01*
G01X-15454Y24250D02*
G01X-15409Y24295D01*
G01X-15477Y24204D02*
G01X-15454Y24250D01*
G01X-15477Y24113D02*
G01X-15477Y24204D01*
G01X-15477Y24113D02*
G01X-15454Y24068D01*
G01X-15454Y24068D02*
G01X-15409Y24022D01*
G01X-15409Y24022D02*
G01X-15363Y24000D01*
G01X-15363Y24000D02*
G01X-15295Y23977D01*
G01X-15295Y23977D02*
G01X-15181Y23977D01*
G01X-15181Y23977D02*
G01X-15113Y24000D01*
G01X-15113Y24000D02*
G01X-15068Y24022D01*
G01X-15068Y24022D02*
G01X-15022Y24068D01*
G01X-15022Y24068D02*
G01X-15000Y24113D01*
G01X-15000Y24204D02*
G01X-15000Y24113D01*
G01X-15022Y24250D02*
G01X-15000Y24204D01*
G01X-15068Y24295D02*
G01X-15022Y24250D01*
G01X-15113Y24318D02*
G01X-15068Y24295D01*
G01X-15477Y24500D02*
G01X-15000Y24500D01*
G01X-15477Y24659D02*
G01X-15477Y24500D01*
G01X-15477Y24659D02*
G01X-15454Y24727D01*
G01X-15454Y24727D02*
G01X-15409Y24772D01*
G01X-15409Y24772D02*
G01X-15363Y24795D01*
G01X-15363Y24795D02*
G01X-15295Y24818D01*
G01X-15295Y24818D02*
G01X-15181Y24818D01*
G01X-15181Y24818D02*
G01X-15113Y24795D01*
G01X-15113Y24795D02*
G01X-15068Y24772D01*
G01X-15068Y24772D02*
G01X-15022Y24727D01*
G01X-15022Y24727D02*
G01X-15000Y24659D01*
G01X-15000Y24500D02*
G01X-15000Y24659D01*
G01X-15477Y25227D02*
G01X-15159Y25000D01*
G01X-15159Y25340D02*
G01X-15159Y25000D01*
G01X-15477Y25227D02*
G01X-15000Y25227D01*
G01X-15477Y25659D02*
G01X-15454Y25590D01*
G01X-15454Y25590D02*
G01X-15386Y25545D01*
G01X-15386Y25545D02*
G01X-15272Y25522D01*
G01X-15272Y25522D02*
G01X-15204Y25522D01*
G01X-15204Y25522D02*
G01X-15090Y25545D01*
G01X-15090Y25545D02*
G01X-15022Y25590D01*
G01X-15022Y25590D02*
G01X-15000Y25659D01*
G01X-15000Y25704D02*
G01X-15000Y25659D01*
G01X-15022Y25772D02*
G01X-15000Y25704D01*
G01X-15090Y25818D02*
G01X-15022Y25772D01*
G01X-15204Y25840D02*
G01X-15090Y25818D01*
G01X-15272Y25840D02*
G01X-15204Y25840D01*
G01X-15386Y25818D02*
G01X-15272Y25840D01*
G01X-15454Y25772D02*
G01X-15386Y25818D01*
G01X-15477Y25704D02*
G01X-15454Y25772D01*
G01X-15477Y25659D02*
G01X-15477Y25704D01*
G01X-15477Y26159D02*
G01X-15454Y26090D01*
G01X-15454Y26090D02*
G01X-15386Y26045D01*
G01X-15386Y26045D02*
G01X-15272Y26022D01*
G01X-15272Y26022D02*
G01X-15204Y26022D01*
G01X-15204Y26022D02*
G01X-15090Y26045D01*
G01X-15090Y26045D02*
G01X-15022Y26090D01*
G01X-15022Y26090D02*
G01X-15000Y26159D01*
G01X-15000Y26204D02*
G01X-15000Y26159D01*
G01X-15022Y26272D02*
G01X-15000Y26204D01*
G01X-15090Y26318D02*
G01X-15022Y26272D01*
G01X-15204Y26340D02*
G01X-15090Y26318D01*
G01X-15272Y26340D02*
G01X-15204Y26340D01*
G01X-15386Y26318D02*
G01X-15272Y26340D01*
G01X-15454Y26272D02*
G01X-15386Y26318D01*
G01X-15477Y26204D02*
G01X-15454Y26272D01*
G01X-15477Y26159D02*
G01X-15477Y26204D01*
G01X-15477Y26840D02*
G01X-15000Y26613D01*
G01X-15477Y26840D02*
G01X-15477Y26522D01*
G04 Draw part X_IC_6_CD4007*
G04 draw part outline for part X_IC_6_CD4007*
G01X20900Y0D02*
G01X27900Y0D01*
G01X27900Y0D02*
G01X27900Y2000D01*
G01X27900Y2000D02*
G01X20900Y2000D01*
G01X20900Y2000D02*
G01X20900Y0D01*
G01X20900Y500D02*
G01X21400Y500D01*
G01X21400Y500D02*
G01X21400Y1500D01*
G01X21400Y1500D02*
G01X20900Y1500D01*
G01X20900Y1500D02*
G01X20900Y500D01*
G04 draw reference designator for part X_IC_6_CD4007*
G01X19922Y1000D02*
G01X20400Y1318D01*
G01X19922Y1318D02*
G01X20400Y1000D01*
G01X20400Y1909D02*
G01X20400Y1500D01*
G01X19922Y2090D02*
G01X20400Y2090D01*
G01X19990Y2590D02*
G01X20036Y2613D01*
G01X19945Y2545D02*
G01X19990Y2590D01*
G01X19922Y2500D02*
G01X19945Y2545D01*
G01X19922Y2409D02*
G01X19922Y2500D01*
G01X19922Y2409D02*
G01X19945Y2363D01*
G01X19945Y2363D02*
G01X19990Y2318D01*
G01X19990Y2318D02*
G01X20036Y2295D01*
G01X20036Y2295D02*
G01X20104Y2272D01*
G01X20104Y2272D02*
G01X20218Y2272D01*
G01X20218Y2272D02*
G01X20286Y2295D01*
G01X20286Y2295D02*
G01X20331Y2318D01*
G01X20331Y2318D02*
G01X20377Y2363D01*
G01X20377Y2363D02*
G01X20400Y2409D01*
G01X20400Y2500D02*
G01X20400Y2409D01*
G01X20377Y2545D02*
G01X20400Y2500D01*
G01X20331Y2590D02*
G01X20377Y2545D01*
G01X20286Y2613D02*
G01X20331Y2590D01*
G01X20400Y3204D02*
G01X20400Y2795D01*
G01X19945Y3636D02*
G01X19990Y3659D01*
G01X19922Y3568D02*
G01X19945Y3636D01*
G01X19922Y3522D02*
G01X19922Y3568D01*
G01X19922Y3522D02*
G01X19945Y3454D01*
G01X19945Y3454D02*
G01X20013Y3409D01*
G01X20013Y3409D02*
G01X20127Y3386D01*
G01X20127Y3386D02*
G01X20240Y3386D01*
G01X20240Y3386D02*
G01X20331Y3409D01*
G01X20331Y3409D02*
G01X20377Y3454D01*
G01X20377Y3454D02*
G01X20400Y3522D01*
G01X20400Y3545D02*
G01X20400Y3522D01*
G01X20377Y3613D02*
G01X20400Y3545D01*
G01X20331Y3659D02*
G01X20377Y3613D01*
G01X20263Y3681D02*
G01X20331Y3659D01*
G01X20240Y3681D02*
G01X20263Y3681D01*
G01X20172Y3659D02*
G01X20240Y3681D01*
G01X20127Y3613D02*
G01X20172Y3659D01*
G01X20104Y3545D02*
G01X20127Y3613D01*
G01X20104Y3522D02*
G01X20104Y3545D01*
G01X20104Y3522D02*
G01X20127Y3454D01*
G01X20127Y3454D02*
G01X20172Y3409D01*
G01X20172Y3409D02*
G01X20240Y3386D01*
G01X20400Y4272D02*
G01X20400Y3863D01*
G01X19990Y4772D02*
G01X20036Y4795D01*
G01X19945Y4727D02*
G01X19990Y4772D01*
G01X19922Y4681D02*
G01X19945Y4727D01*
G01X19922Y4590D02*
G01X19922Y4681D01*
G01X19922Y4590D02*
G01X19945Y4545D01*
G01X19945Y4545D02*
G01X19990Y4499D01*
G01X19990Y4499D02*
G01X20036Y4477D01*
G01X20036Y4477D02*
G01X20104Y4454D01*
G01X20104Y4454D02*
G01X20218Y4454D01*
G01X20218Y4454D02*
G01X20286Y4477D01*
G01X20286Y4477D02*
G01X20331Y4499D01*
G01X20331Y4499D02*
G01X20377Y4545D01*
G01X20377Y4545D02*
G01X20400Y4590D01*
G01X20400Y4681D02*
G01X20400Y4590D01*
G01X20377Y4727D02*
G01X20400Y4681D01*
G01X20331Y4772D02*
G01X20377Y4727D01*
G01X20286Y4795D02*
G01X20331Y4772D01*
G01X19922Y4977D02*
G01X20400Y4977D01*
G01X19922Y5136D02*
G01X19922Y4977D01*
G01X19922Y5136D02*
G01X19945Y5204D01*
G01X19945Y5204D02*
G01X19990Y5250D01*
G01X19990Y5250D02*
G01X20036Y5272D01*
G01X20036Y5272D02*
G01X20104Y5295D01*
G01X20104Y5295D02*
G01X20218Y5295D01*
G01X20218Y5295D02*
G01X20286Y5272D01*
G01X20286Y5272D02*
G01X20331Y5250D01*
G01X20331Y5250D02*
G01X20377Y5204D01*
G01X20377Y5204D02*
G01X20400Y5136D01*
G01X20400Y4977D02*
G01X20400Y5136D01*
G01X19922Y5704D02*
G01X20240Y5477D01*
G01X20240Y5818D02*
G01X20240Y5477D01*
G01X19922Y5704D02*
G01X20400Y5704D01*
G01X19922Y6136D02*
G01X19945Y6068D01*
G01X19945Y6068D02*
G01X20013Y6022D01*
G01X20013Y6022D02*
G01X20127Y6000D01*
G01X20127Y6000D02*
G01X20195Y6000D01*
G01X20195Y6000D02*
G01X20309Y6022D01*
G01X20309Y6022D02*
G01X20377Y6068D01*
G01X20377Y6068D02*
G01X20400Y6136D01*
G01X20400Y6181D02*
G01X20400Y6136D01*
G01X20377Y6250D02*
G01X20400Y6181D01*
G01X20309Y6295D02*
G01X20377Y6250D01*
G01X20195Y6318D02*
G01X20309Y6295D01*
G01X20127Y6318D02*
G01X20195Y6318D01*
G01X20013Y6295D02*
G01X20127Y6318D01*
G01X19945Y6250D02*
G01X20013Y6295D01*
G01X19922Y6181D02*
G01X19945Y6250D01*
G01X19922Y6136D02*
G01X19922Y6181D01*
G01X19922Y6636D02*
G01X19945Y6568D01*
G01X19945Y6568D02*
G01X20013Y6522D01*
G01X20013Y6522D02*
G01X20127Y6500D01*
G01X20127Y6500D02*
G01X20195Y6500D01*
G01X20195Y6500D02*
G01X20309Y6522D01*
G01X20309Y6522D02*
G01X20377Y6568D01*
G01X20377Y6568D02*
G01X20400Y6636D01*
G01X20400Y6681D02*
G01X20400Y6636D01*
G01X20377Y6750D02*
G01X20400Y6681D01*
G01X20309Y6795D02*
G01X20377Y6750D01*
G01X20195Y6818D02*
G01X20309Y6795D01*
G01X20127Y6818D02*
G01X20195Y6818D01*
G01X20013Y6795D02*
G01X20127Y6818D01*
G01X19945Y6750D02*
G01X20013Y6795D01*
G01X19922Y6681D02*
G01X19945Y6750D01*
G01X19922Y6636D02*
G01X19922Y6681D01*
G01X19922Y7318D02*
G01X20400Y7090D01*
G01X19922Y7318D02*
G01X19922Y7000D01*
G04 Draw part X_IC_7_CD4007*
G04 draw part outline for part X_IC_7_CD4007*
G01X21300Y-14100D02*
G01X28300Y-14100D01*
G01X28300Y-14100D02*
G01X28300Y-12100D01*
G01X28300Y-12100D02*
G01X21300Y-12100D01*
G01X21300Y-12100D02*
G01X21300Y-14100D01*
G01X21300Y-13600D02*
G01X21800Y-13600D01*
G01X21800Y-13600D02*
G01X21800Y-12600D01*
G01X21800Y-12600D02*
G01X21300Y-12600D01*
G01X21300Y-12600D02*
G01X21300Y-13600D01*
G04 draw reference designator for part X_IC_7_CD4007*
G01X20322Y-13100D02*
G01X20800Y-12781D01*
G01X20322Y-12781D02*
G01X20800Y-13100D01*
G01X20800Y-12190D02*
G01X20800Y-12600D01*
G01X20322Y-12009D02*
G01X20800Y-12009D01*
G01X20390Y-11509D02*
G01X20436Y-11486D01*
G01X20345Y-11554D02*
G01X20390Y-11509D01*
G01X20322Y-11600D02*
G01X20345Y-11554D01*
G01X20322Y-11690D02*
G01X20322Y-11600D01*
G01X20322Y-11690D02*
G01X20345Y-11736D01*
G01X20345Y-11736D02*
G01X20390Y-11781D01*
G01X20390Y-11781D02*
G01X20436Y-11804D01*
G01X20436Y-11804D02*
G01X20504Y-11827D01*
G01X20504Y-11827D02*
G01X20618Y-11827D01*
G01X20618Y-11827D02*
G01X20686Y-11804D01*
G01X20686Y-11804D02*
G01X20731Y-11781D01*
G01X20731Y-11781D02*
G01X20777Y-11736D01*
G01X20777Y-11736D02*
G01X20800Y-11690D01*
G01X20800Y-11600D02*
G01X20800Y-11690D01*
G01X20777Y-11554D02*
G01X20800Y-11600D01*
G01X20731Y-11509D02*
G01X20777Y-11554D01*
G01X20686Y-11486D02*
G01X20731Y-11509D01*
G01X20800Y-10895D02*
G01X20800Y-11304D01*
G01X20322Y-10395D02*
G01X20800Y-10622D01*
G01X20322Y-10395D02*
G01X20322Y-10713D01*
G01X20800Y-9804D02*
G01X20800Y-10213D01*
G01X20390Y-9304D02*
G01X20436Y-9281D01*
G01X20345Y-9350D02*
G01X20390Y-9304D01*
G01X20322Y-9395D02*
G01X20345Y-9350D01*
G01X20322Y-9486D02*
G01X20322Y-9395D01*
G01X20322Y-9486D02*
G01X20345Y-9531D01*
G01X20345Y-9531D02*
G01X20390Y-9577D01*
G01X20390Y-9577D02*
G01X20436Y-9600D01*
G01X20436Y-9600D02*
G01X20504Y-9622D01*
G01X20504Y-9622D02*
G01X20618Y-9622D01*
G01X20618Y-9622D02*
G01X20686Y-9600D01*
G01X20686Y-9600D02*
G01X20731Y-9577D01*
G01X20731Y-9577D02*
G01X20777Y-9531D01*
G01X20777Y-9531D02*
G01X20800Y-9486D01*
G01X20800Y-9395D02*
G01X20800Y-9486D01*
G01X20777Y-9350D02*
G01X20800Y-9395D01*
G01X20731Y-9304D02*
G01X20777Y-9350D01*
G01X20686Y-9281D02*
G01X20731Y-9304D01*
G01X20322Y-9100D02*
G01X20800Y-9100D01*
G01X20322Y-8940D02*
G01X20322Y-9100D01*
G01X20322Y-8940D02*
G01X20345Y-8872D01*
G01X20345Y-8872D02*
G01X20390Y-8827D01*
G01X20390Y-8827D02*
G01X20436Y-8804D01*
G01X20436Y-8804D02*
G01X20504Y-8781D01*
G01X20504Y-8781D02*
G01X20618Y-8781D01*
G01X20618Y-8781D02*
G01X20686Y-8804D01*
G01X20686Y-8804D02*
G01X20731Y-8827D01*
G01X20731Y-8827D02*
G01X20777Y-8872D01*
G01X20777Y-8872D02*
G01X20800Y-8940D01*
G01X20800Y-9100D02*
G01X20800Y-8940D01*
G01X20322Y-8372D02*
G01X20640Y-8600D01*
G01X20640Y-8259D02*
G01X20640Y-8600D01*
G01X20322Y-8372D02*
G01X20800Y-8372D01*
G01X20322Y-7940D02*
G01X20345Y-8009D01*
G01X20345Y-8009D02*
G01X20413Y-8054D01*
G01X20413Y-8054D02*
G01X20527Y-8077D01*
G01X20527Y-8077D02*
G01X20595Y-8077D01*
G01X20595Y-8077D02*
G01X20709Y-8054D01*
G01X20709Y-8054D02*
G01X20777Y-8009D01*
G01X20777Y-8009D02*
G01X20800Y-7940D01*
G01X20800Y-7895D02*
G01X20800Y-7940D01*
G01X20777Y-7827D02*
G01X20800Y-7895D01*
G01X20709Y-7781D02*
G01X20777Y-7827D01*
G01X20595Y-7759D02*
G01X20709Y-7781D01*
G01X20527Y-7759D02*
G01X20595Y-7759D01*
G01X20413Y-7781D02*
G01X20527Y-7759D01*
G01X20345Y-7827D02*
G01X20413Y-7781D01*
G01X20322Y-7895D02*
G01X20345Y-7827D01*
G01X20322Y-7940D02*
G01X20322Y-7895D01*
G01X20322Y-7440D02*
G01X20345Y-7509D01*
G01X20345Y-7509D02*
G01X20413Y-7554D01*
G01X20413Y-7554D02*
G01X20527Y-7577D01*
G01X20527Y-7577D02*
G01X20595Y-7577D01*
G01X20595Y-7577D02*
G01X20709Y-7554D01*
G01X20709Y-7554D02*
G01X20777Y-7509D01*
G01X20777Y-7509D02*
G01X20800Y-7440D01*
G01X20800Y-7395D02*
G01X20800Y-7440D01*
G01X20777Y-7327D02*
G01X20800Y-7395D01*
G01X20709Y-7281D02*
G01X20777Y-7327D01*
G01X20595Y-7259D02*
G01X20709Y-7281D01*
G01X20527Y-7259D02*
G01X20595Y-7259D01*
G01X20413Y-7281D02*
G01X20527Y-7259D01*
G01X20345Y-7327D02*
G01X20413Y-7281D01*
G01X20322Y-7395D02*
G01X20345Y-7327D01*
G01X20322Y-7440D02*
G01X20322Y-7395D01*
G01X20322Y-6759D02*
G01X20800Y-6986D01*
G01X20322Y-6759D02*
G01X20322Y-7077D01*
G04 Draw part X_IC_8_CD4007*
G04 draw part outline for part X_IC_8_CD4007*
G01X21500Y12500D02*
G01X28500Y12500D01*
G01X28500Y12500D02*
G01X28500Y14500D01*
G01X28500Y14500D02*
G01X21500Y14500D01*
G01X21500Y14500D02*
G01X21500Y12500D01*
G01X21500Y13000D02*
G01X22000Y13000D01*
G01X22000Y13000D02*
G01X22000Y14000D01*
G01X22000Y14000D02*
G01X21500Y14000D01*
G01X21500Y14000D02*
G01X21500Y13000D01*
G04 draw reference designator for part X_IC_8_CD4007*
G01X20522Y10500D02*
G01X21000Y10818D01*
G01X20522Y10818D02*
G01X21000Y10500D01*
G01X21000Y11409D02*
G01X21000Y11000D01*
G01X20522Y11590D02*
G01X21000Y11590D01*
G01X20590Y12090D02*
G01X20636Y12113D01*
G01X20545Y12045D02*
G01X20590Y12090D01*
G01X20522Y12000D02*
G01X20545Y12045D01*
G01X20522Y11909D02*
G01X20522Y12000D01*
G01X20522Y11909D02*
G01X20545Y11863D01*
G01X20545Y11863D02*
G01X20590Y11818D01*
G01X20590Y11818D02*
G01X20636Y11795D01*
G01X20636Y11795D02*
G01X20704Y11772D01*
G01X20704Y11772D02*
G01X20818Y11772D01*
G01X20818Y11772D02*
G01X20886Y11795D01*
G01X20886Y11795D02*
G01X20931Y11818D01*
G01X20931Y11818D02*
G01X20977Y11863D01*
G01X20977Y11863D02*
G01X21000Y11909D01*
G01X21000Y12000D02*
G01X21000Y11909D01*
G01X20977Y12045D02*
G01X21000Y12000D01*
G01X20931Y12090D02*
G01X20977Y12045D01*
G01X20886Y12113D02*
G01X20931Y12090D01*
G01X21000Y12704D02*
G01X21000Y12295D01*
G01X20522Y12999D02*
G01X20545Y12931D01*
G01X20545Y12931D02*
G01X20590Y12909D01*
G01X20590Y12909D02*
G01X20636Y12909D01*
G01X20636Y12909D02*
G01X20681Y12931D01*
G01X20681Y12931D02*
G01X20704Y12977D01*
G01X20704Y12977D02*
G01X20727Y13068D01*
G01X20727Y13068D02*
G01X20750Y13136D01*
G01X20750Y13136D02*
G01X20795Y13181D01*
G01X20795Y13181D02*
G01X20840Y13204D01*
G01X20840Y13204D02*
G01X20909Y13204D01*
G01X20909Y13204D02*
G01X20954Y13181D01*
G01X20954Y13181D02*
G01X20977Y13159D01*
G01X20977Y13159D02*
G01X21000Y13090D01*
G01X21000Y12999D02*
G01X21000Y13090D01*
G01X20977Y12931D02*
G01X21000Y12999D01*
G01X20954Y12909D02*
G01X20977Y12931D01*
G01X20909Y12886D02*
G01X20954Y12909D01*
G01X20840Y12886D02*
G01X20909Y12886D01*
G01X20795Y12909D02*
G01X20840Y12886D01*
G01X20750Y12954D02*
G01X20795Y12909D01*
G01X20727Y13022D02*
G01X20750Y12954D01*
G01X20704Y13113D02*
G01X20727Y13022D01*
G01X20681Y13159D02*
G01X20704Y13113D01*
G01X20636Y13181D02*
G01X20681Y13159D01*
G01X20590Y13181D02*
G01X20636Y13181D01*
G01X20545Y13159D02*
G01X20590Y13181D01*
G01X20522Y13090D02*
G01X20545Y13159D01*
G01X20522Y12999D02*
G01X20522Y13090D01*
G01X21000Y13795D02*
G01X21000Y13386D01*
G01X20590Y14295D02*
G01X20636Y14318D01*
G01X20545Y14250D02*
G01X20590Y14295D01*
G01X20522Y14204D02*
G01X20545Y14250D01*
G01X20522Y14113D02*
G01X20522Y14204D01*
G01X20522Y14113D02*
G01X20545Y14068D01*
G01X20545Y14068D02*
G01X20590Y14022D01*
G01X20590Y14022D02*
G01X20636Y14000D01*
G01X20636Y14000D02*
G01X20704Y13977D01*
G01X20704Y13977D02*
G01X20818Y13977D01*
G01X20818Y13977D02*
G01X20886Y14000D01*
G01X20886Y14000D02*
G01X20931Y14022D01*
G01X20931Y14022D02*
G01X20977Y14068D01*
G01X20977Y14068D02*
G01X21000Y14113D01*
G01X21000Y14204D02*
G01X21000Y14113D01*
G01X20977Y14250D02*
G01X21000Y14204D01*
G01X20931Y14295D02*
G01X20977Y14250D01*
G01X20886Y14318D02*
G01X20931Y14295D01*
G01X20522Y14500D02*
G01X21000Y14500D01*
G01X20522Y14659D02*
G01X20522Y14500D01*
G01X20522Y14659D02*
G01X20545Y14727D01*
G01X20545Y14727D02*
G01X20590Y14772D01*
G01X20590Y14772D02*
G01X20636Y14795D01*
G01X20636Y14795D02*
G01X20704Y14818D01*
G01X20704Y14818D02*
G01X20818Y14818D01*
G01X20818Y14818D02*
G01X20886Y14795D01*
G01X20886Y14795D02*
G01X20931Y14772D01*
G01X20931Y14772D02*
G01X20977Y14727D01*
G01X20977Y14727D02*
G01X21000Y14659D01*
G01X21000Y14500D02*
G01X21000Y14659D01*
G01X20522Y15227D02*
G01X20840Y15000D01*
G01X20840Y15340D02*
G01X20840Y15000D01*
G01X20522Y15227D02*
G01X21000Y15227D01*
G01X20522Y15659D02*
G01X20545Y15590D01*
G01X20545Y15590D02*
G01X20613Y15545D01*
G01X20613Y15545D02*
G01X20727Y15522D01*
G01X20727Y15522D02*
G01X20795Y15522D01*
G01X20795Y15522D02*
G01X20909Y15545D01*
G01X20909Y15545D02*
G01X20977Y15590D01*
G01X20977Y15590D02*
G01X21000Y15659D01*
G01X21000Y15704D02*
G01X21000Y15659D01*
G01X20977Y15772D02*
G01X21000Y15704D01*
G01X20909Y15818D02*
G01X20977Y15772D01*
G01X20795Y15840D02*
G01X20909Y15818D01*
G01X20727Y15840D02*
G01X20795Y15840D01*
G01X20613Y15818D02*
G01X20727Y15840D01*
G01X20545Y15772D02*
G01X20613Y15818D01*
G01X20522Y15704D02*
G01X20545Y15772D01*
G01X20522Y15659D02*
G01X20522Y15704D01*
G01X20522Y16159D02*
G01X20545Y16090D01*
G01X20545Y16090D02*
G01X20613Y16045D01*
G01X20613Y16045D02*
G01X20727Y16022D01*
G01X20727Y16022D02*
G01X20795Y16022D01*
G01X20795Y16022D02*
G01X20909Y16045D01*
G01X20909Y16045D02*
G01X20977Y16090D01*
G01X20977Y16090D02*
G01X21000Y16159D01*
G01X21000Y16204D02*
G01X21000Y16159D01*
G01X20977Y16272D02*
G01X21000Y16204D01*
G01X20909Y16318D02*
G01X20977Y16272D01*
G01X20795Y16340D02*
G01X20909Y16318D01*
G01X20727Y16340D02*
G01X20795Y16340D01*
G01X20613Y16318D02*
G01X20727Y16340D01*
G01X20545Y16272D02*
G01X20613Y16318D01*
G01X20522Y16204D02*
G01X20545Y16272D01*
G01X20522Y16159D02*
G01X20522Y16204D01*
G01X20522Y16840D02*
G01X21000Y16613D01*
G01X20522Y16840D02*
G01X20522Y16522D01*
G04 Draw part X_IC_9_CD4007*
G04 draw part outline for part X_IC_9_CD4007*
G01X-13500Y-13500D02*
G01X-6500Y-13500D01*
G01X-6500Y-13500D02*
G01X-6500Y-11500D01*
G01X-6500Y-11500D02*
G01X-13500Y-11500D01*
G01X-13500Y-11500D02*
G01X-13500Y-13500D01*
G01X-13500Y-13000D02*
G01X-13000Y-13000D01*
G01X-13000Y-13000D02*
G01X-13000Y-12000D01*
G01X-13000Y-12000D02*
G01X-13500Y-12000D01*
G01X-13500Y-12000D02*
G01X-13500Y-13000D01*
G04 draw reference designator for part X_IC_9_CD4007*
G01X-14477Y-12500D02*
G01X-14000Y-12181D01*
G01X-14477Y-12181D02*
G01X-14000Y-12500D01*
G01X-14000Y-11590D02*
G01X-14000Y-12000D01*
G01X-14477Y-11409D02*
G01X-14000Y-11409D01*
G01X-14409Y-10909D02*
G01X-14363Y-10886D01*
G01X-14454Y-10954D02*
G01X-14409Y-10909D01*
G01X-14477Y-11000D02*
G01X-14454Y-10954D01*
G01X-14477Y-11090D02*
G01X-14477Y-11000D01*
G01X-14477Y-11090D02*
G01X-14454Y-11136D01*
G01X-14454Y-11136D02*
G01X-14409Y-11181D01*
G01X-14409Y-11181D02*
G01X-14363Y-11204D01*
G01X-14363Y-11204D02*
G01X-14295Y-11227D01*
G01X-14295Y-11227D02*
G01X-14181Y-11227D01*
G01X-14181Y-11227D02*
G01X-14113Y-11204D01*
G01X-14113Y-11204D02*
G01X-14068Y-11181D01*
G01X-14068Y-11181D02*
G01X-14022Y-11136D01*
G01X-14022Y-11136D02*
G01X-14000Y-11090D01*
G01X-14000Y-11000D02*
G01X-14000Y-11090D01*
G01X-14022Y-10954D02*
G01X-14000Y-11000D01*
G01X-14068Y-10909D02*
G01X-14022Y-10954D01*
G01X-14113Y-10886D02*
G01X-14068Y-10909D01*
G01X-14000Y-10295D02*
G01X-14000Y-10704D01*
G01X-14318Y-9818D02*
G01X-14250Y-9840D01*
G01X-14250Y-9840D02*
G01X-14204Y-9886D01*
G01X-14204Y-9886D02*
G01X-14181Y-9954D01*
G01X-14181Y-9977D02*
G01X-14181Y-9954D01*
G01X-14204Y-10045D02*
G01X-14181Y-9977D01*
G01X-14250Y-10090D02*
G01X-14204Y-10045D01*
G01X-14318Y-10113D02*
G01X-14250Y-10090D01*
G01X-14340Y-10113D02*
G01X-14318Y-10113D01*
G01X-14409Y-10090D02*
G01X-14340Y-10113D01*
G01X-14454Y-10045D02*
G01X-14409Y-10090D01*
G01X-14477Y-9977D02*
G01X-14454Y-10045D01*
G01X-14477Y-9954D02*
G01X-14477Y-9977D01*
G01X-14477Y-9954D02*
G01X-14454Y-9886D01*
G01X-14454Y-9886D02*
G01X-14409Y-9840D01*
G01X-14409Y-9840D02*
G01X-14318Y-9818D01*
G01X-14318Y-9818D02*
G01X-14204Y-9818D01*
G01X-14204Y-9818D02*
G01X-14090Y-9840D01*
G01X-14090Y-9840D02*
G01X-14022Y-9886D01*
G01X-14022Y-9886D02*
G01X-14000Y-9954D01*
G01X-14000Y-10000D02*
G01X-14000Y-9954D01*
G01X-14022Y-10068D02*
G01X-14000Y-10000D01*
G01X-14068Y-10090D02*
G01X-14022Y-10068D01*
G01X-14000Y-9227D02*
G01X-14000Y-9636D01*
G01X-14409Y-8727D02*
G01X-14363Y-8704D01*
G01X-14454Y-8772D02*
G01X-14409Y-8727D01*
G01X-14477Y-8818D02*
G01X-14454Y-8772D01*
G01X-14477Y-8909D02*
G01X-14477Y-8818D01*
G01X-14477Y-8909D02*
G01X-14454Y-8954D01*
G01X-14454Y-8954D02*
G01X-14409Y-9000D01*
G01X-14409Y-9000D02*
G01X-14363Y-9022D01*
G01X-14363Y-9022D02*
G01X-14295Y-9045D01*
G01X-14295Y-9045D02*
G01X-14181Y-9045D01*
G01X-14181Y-9045D02*
G01X-14113Y-9022D01*
G01X-14113Y-9022D02*
G01X-14068Y-9000D01*
G01X-14068Y-9000D02*
G01X-14022Y-8954D01*
G01X-14022Y-8954D02*
G01X-14000Y-8909D01*
G01X-14000Y-8818D02*
G01X-14000Y-8909D01*
G01X-14022Y-8772D02*
G01X-14000Y-8818D01*
G01X-14068Y-8727D02*
G01X-14022Y-8772D01*
G01X-14113Y-8704D02*
G01X-14068Y-8727D01*
G01X-14477Y-8522D02*
G01X-14000Y-8522D01*
G01X-14477Y-8363D02*
G01X-14477Y-8522D01*
G01X-14477Y-8363D02*
G01X-14454Y-8295D01*
G01X-14454Y-8295D02*
G01X-14409Y-8250D01*
G01X-14409Y-8250D02*
G01X-14363Y-8227D01*
G01X-14363Y-8227D02*
G01X-14295Y-8204D01*
G01X-14295Y-8204D02*
G01X-14181Y-8204D01*
G01X-14181Y-8204D02*
G01X-14113Y-8227D01*
G01X-14113Y-8227D02*
G01X-14068Y-8250D01*
G01X-14068Y-8250D02*
G01X-14022Y-8295D01*
G01X-14022Y-8295D02*
G01X-14000Y-8363D01*
G01X-14000Y-8522D02*
G01X-14000Y-8363D01*
G01X-14477Y-7795D02*
G01X-14159Y-8022D01*
G01X-14159Y-7681D02*
G01X-14159Y-8022D01*
G01X-14477Y-7795D02*
G01X-14000Y-7795D01*
G01X-14477Y-7363D02*
G01X-14454Y-7431D01*
G01X-14454Y-7431D02*
G01X-14386Y-7477D01*
G01X-14386Y-7477D02*
G01X-14272Y-7500D01*
G01X-14272Y-7500D02*
G01X-14204Y-7500D01*
G01X-14204Y-7500D02*
G01X-14090Y-7477D01*
G01X-14090Y-7477D02*
G01X-14022Y-7431D01*
G01X-14022Y-7431D02*
G01X-14000Y-7363D01*
G01X-14000Y-7318D02*
G01X-14000Y-7363D01*
G01X-14022Y-7250D02*
G01X-14000Y-7318D01*
G01X-14090Y-7204D02*
G01X-14022Y-7250D01*
G01X-14204Y-7181D02*
G01X-14090Y-7204D01*
G01X-14272Y-7181D02*
G01X-14204Y-7181D01*
G01X-14386Y-7204D02*
G01X-14272Y-7181D01*
G01X-14454Y-7250D02*
G01X-14386Y-7204D01*
G01X-14477Y-7318D02*
G01X-14454Y-7250D01*
G01X-14477Y-7363D02*
G01X-14477Y-7318D01*
G01X-14477Y-6863D02*
G01X-14454Y-6931D01*
G01X-14454Y-6931D02*
G01X-14386Y-6977D01*
G01X-14386Y-6977D02*
G01X-14272Y-7000D01*
G01X-14272Y-7000D02*
G01X-14204Y-7000D01*
G01X-14204Y-7000D02*
G01X-14090Y-6977D01*
G01X-14090Y-6977D02*
G01X-14022Y-6931D01*
G01X-14022Y-6931D02*
G01X-14000Y-6863D01*
G01X-14000Y-6818D02*
G01X-14000Y-6863D01*
G01X-14022Y-6750D02*
G01X-14000Y-6818D01*
G01X-14090Y-6704D02*
G01X-14022Y-6750D01*
G01X-14204Y-6681D02*
G01X-14090Y-6704D01*
G01X-14272Y-6681D02*
G01X-14204Y-6681D01*
G01X-14386Y-6704D02*
G01X-14272Y-6681D01*
G01X-14454Y-6750D02*
G01X-14386Y-6704D01*
G01X-14477Y-6818D02*
G01X-14454Y-6750D01*
G01X-14477Y-6863D02*
G01X-14477Y-6818D01*
G01X-14477Y-6181D02*
G01X-14000Y-6409D01*
G01X-14477Y-6181D02*
G01X-14477Y-6500D01*
G04 Draw part X_IC_10_CD4007*
G04 draw part outline for part X_IC_10_CD4007*
G01X-13900Y200D02*
G01X-6900Y200D01*
G01X-6900Y200D02*
G01X-6900Y2200D01*
G01X-6900Y2200D02*
G01X-13900Y2200D01*
G01X-13900Y2200D02*
G01X-13900Y200D01*
G01X-13900Y700D02*
G01X-13400Y700D01*
G01X-13400Y700D02*
G01X-13400Y1700D01*
G01X-13400Y1700D02*
G01X-13900Y1700D01*
G01X-13900Y1700D02*
G01X-13900Y700D01*
G04 draw reference designator for part X_IC_10_CD4007*
G01X-14877Y1200D02*
G01X-14400Y1518D01*
G01X-14877Y1518D02*
G01X-14400Y1200D01*
G01X-14400Y2109D02*
G01X-14400Y1700D01*
G01X-14877Y2290D02*
G01X-14400Y2290D01*
G01X-14809Y2790D02*
G01X-14763Y2813D01*
G01X-14854Y2745D02*
G01X-14809Y2790D01*
G01X-14877Y2700D02*
G01X-14854Y2745D01*
G01X-14877Y2609D02*
G01X-14877Y2700D01*
G01X-14877Y2609D02*
G01X-14854Y2563D01*
G01X-14854Y2563D02*
G01X-14809Y2518D01*
G01X-14809Y2518D02*
G01X-14763Y2495D01*
G01X-14763Y2495D02*
G01X-14695Y2472D01*
G01X-14695Y2472D02*
G01X-14581Y2472D01*
G01X-14581Y2472D02*
G01X-14513Y2495D01*
G01X-14513Y2495D02*
G01X-14468Y2518D01*
G01X-14468Y2518D02*
G01X-14422Y2563D01*
G01X-14422Y2563D02*
G01X-14400Y2609D01*
G01X-14400Y2700D02*
G01X-14400Y2609D01*
G01X-14422Y2745D02*
G01X-14400Y2700D01*
G01X-14468Y2790D02*
G01X-14422Y2745D01*
G01X-14513Y2813D02*
G01X-14468Y2790D01*
G01X-14400Y3404D02*
G01X-14400Y2995D01*
G01X-14809Y3631D02*
G01X-14786Y3586D01*
G01X-14877Y3699D02*
G01X-14809Y3631D01*
G01X-14877Y3699D02*
G01X-14400Y3699D01*
G01X-14877Y4018D02*
G01X-14854Y3950D01*
G01X-14854Y3950D02*
G01X-14786Y3904D01*
G01X-14786Y3904D02*
G01X-14672Y3881D01*
G01X-14672Y3881D02*
G01X-14604Y3881D01*
G01X-14604Y3881D02*
G01X-14490Y3904D01*
G01X-14490Y3904D02*
G01X-14422Y3950D01*
G01X-14422Y3950D02*
G01X-14400Y4018D01*
G01X-14400Y4063D02*
G01X-14400Y4018D01*
G01X-14422Y4131D02*
G01X-14400Y4063D01*
G01X-14490Y4177D02*
G01X-14422Y4131D01*
G01X-14604Y4200D02*
G01X-14490Y4177D01*
G01X-14672Y4200D02*
G01X-14604Y4200D01*
G01X-14786Y4177D02*
G01X-14672Y4200D01*
G01X-14854Y4131D02*
G01X-14786Y4177D01*
G01X-14877Y4063D02*
G01X-14854Y4131D01*
G01X-14877Y4018D02*
G01X-14877Y4063D01*
G01X-14400Y4790D02*
G01X-14400Y4381D01*
G01X-14809Y5290D02*
G01X-14763Y5313D01*
G01X-14854Y5245D02*
G01X-14809Y5290D01*
G01X-14877Y5200D02*
G01X-14854Y5245D01*
G01X-14877Y5109D02*
G01X-14877Y5200D01*
G01X-14877Y5109D02*
G01X-14854Y5063D01*
G01X-14854Y5063D02*
G01X-14809Y5018D01*
G01X-14809Y5018D02*
G01X-14763Y4995D01*
G01X-14763Y4995D02*
G01X-14695Y4972D01*
G01X-14695Y4972D02*
G01X-14581Y4972D01*
G01X-14581Y4972D02*
G01X-14513Y4995D01*
G01X-14513Y4995D02*
G01X-14468Y5018D01*
G01X-14468Y5018D02*
G01X-14422Y5063D01*
G01X-14422Y5063D02*
G01X-14400Y5109D01*
G01X-14400Y5200D02*
G01X-14400Y5109D01*
G01X-14422Y5245D02*
G01X-14400Y5200D01*
G01X-14468Y5290D02*
G01X-14422Y5245D01*
G01X-14513Y5313D02*
G01X-14468Y5290D01*
G01X-14877Y5495D02*
G01X-14400Y5495D01*
G01X-14877Y5654D02*
G01X-14877Y5495D01*
G01X-14877Y5654D02*
G01X-14854Y5722D01*
G01X-14854Y5722D02*
G01X-14809Y5768D01*
G01X-14809Y5768D02*
G01X-14763Y5790D01*
G01X-14763Y5790D02*
G01X-14695Y5813D01*
G01X-14695Y5813D02*
G01X-14581Y5813D01*
G01X-14581Y5813D02*
G01X-14513Y5790D01*
G01X-14513Y5790D02*
G01X-14468Y5768D01*
G01X-14468Y5768D02*
G01X-14422Y5722D01*
G01X-14422Y5722D02*
G01X-14400Y5654D01*
G01X-14400Y5495D02*
G01X-14400Y5654D01*
G01X-14877Y6222D02*
G01X-14559Y5995D01*
G01X-14559Y6336D02*
G01X-14559Y5995D01*
G01X-14877Y6222D02*
G01X-14400Y6222D01*
G01X-14877Y6654D02*
G01X-14854Y6586D01*
G01X-14854Y6586D02*
G01X-14786Y6540D01*
G01X-14786Y6540D02*
G01X-14672Y6518D01*
G01X-14672Y6518D02*
G01X-14604Y6518D01*
G01X-14604Y6518D02*
G01X-14490Y6540D01*
G01X-14490Y6540D02*
G01X-14422Y6586D01*
G01X-14422Y6586D02*
G01X-14400Y6654D01*
G01X-14400Y6700D02*
G01X-14400Y6654D01*
G01X-14422Y6768D02*
G01X-14400Y6700D01*
G01X-14490Y6813D02*
G01X-14422Y6768D01*
G01X-14604Y6836D02*
G01X-14490Y6813D01*
G01X-14672Y6836D02*
G01X-14604Y6836D01*
G01X-14786Y6813D02*
G01X-14672Y6836D01*
G01X-14854Y6768D02*
G01X-14786Y6813D01*
G01X-14877Y6700D02*
G01X-14854Y6768D01*
G01X-14877Y6654D02*
G01X-14877Y6700D01*
G01X-14877Y7154D02*
G01X-14854Y7086D01*
G01X-14854Y7086D02*
G01X-14786Y7040D01*
G01X-14786Y7040D02*
G01X-14672Y7018D01*
G01X-14672Y7018D02*
G01X-14604Y7018D01*
G01X-14604Y7018D02*
G01X-14490Y7040D01*
G01X-14490Y7040D02*
G01X-14422Y7086D01*
G01X-14422Y7086D02*
G01X-14400Y7154D01*
G01X-14400Y7200D02*
G01X-14400Y7154D01*
G01X-14422Y7268D02*
G01X-14400Y7200D01*
G01X-14490Y7313D02*
G01X-14422Y7268D01*
G01X-14604Y7336D02*
G01X-14490Y7313D01*
G01X-14672Y7336D02*
G01X-14604Y7336D01*
G01X-14786Y7313D02*
G01X-14672Y7336D01*
G01X-14854Y7268D02*
G01X-14786Y7313D01*
G01X-14877Y7200D02*
G01X-14854Y7268D01*
G01X-14877Y7154D02*
G01X-14877Y7200D01*
G01X-14877Y7836D02*
G01X-14400Y7609D01*
G01X-14877Y7836D02*
G01X-14877Y7518D01*
G04 Draw part X_IC_11_CD4007*
G04 draw part outline for part X_IC_11_CD4007*
G01X-14200Y12700D02*
G01X-7200Y12700D01*
G01X-7200Y12700D02*
G01X-7200Y14700D01*
G01X-7200Y14700D02*
G01X-14200Y14700D01*
G01X-14200Y14700D02*
G01X-14200Y12700D01*
G01X-14200Y13200D02*
G01X-13700Y13200D01*
G01X-13700Y13200D02*
G01X-13700Y14200D01*
G01X-13700Y14200D02*
G01X-14200Y14200D01*
G01X-14200Y14200D02*
G01X-14200Y13200D01*
G04 draw reference designator for part X_IC_11_CD4007*
G01X-15177Y13700D02*
G01X-14700Y14018D01*
G01X-15177Y14018D02*
G01X-14700Y13700D01*
G01X-14700Y14609D02*
G01X-14700Y14200D01*
G01X-15177Y14790D02*
G01X-14700Y14790D01*
G01X-15109Y15290D02*
G01X-15063Y15313D01*
G01X-15154Y15245D02*
G01X-15109Y15290D01*
G01X-15177Y15200D02*
G01X-15154Y15245D01*
G01X-15177Y15109D02*
G01X-15177Y15200D01*
G01X-15177Y15109D02*
G01X-15154Y15063D01*
G01X-15154Y15063D02*
G01X-15109Y15018D01*
G01X-15109Y15018D02*
G01X-15063Y14995D01*
G01X-15063Y14995D02*
G01X-14995Y14972D01*
G01X-14995Y14972D02*
G01X-14881Y14972D01*
G01X-14881Y14972D02*
G01X-14813Y14995D01*
G01X-14813Y14995D02*
G01X-14768Y15018D01*
G01X-14768Y15018D02*
G01X-14722Y15063D01*
G01X-14722Y15063D02*
G01X-14700Y15109D01*
G01X-14700Y15200D02*
G01X-14700Y15109D01*
G01X-14722Y15245D02*
G01X-14700Y15200D01*
G01X-14768Y15290D02*
G01X-14722Y15245D01*
G01X-14813Y15313D02*
G01X-14768Y15290D01*
G01X-14700Y15904D02*
G01X-14700Y15495D01*
G01X-15109Y16131D02*
G01X-15086Y16086D01*
G01X-15177Y16199D02*
G01X-15109Y16131D01*
G01X-15177Y16199D02*
G01X-14700Y16199D01*
G01X-15109Y16427D02*
G01X-15086Y16381D01*
G01X-15177Y16495D02*
G01X-15109Y16427D01*
G01X-15177Y16495D02*
G01X-14700Y16495D01*
G01X-14700Y17086D02*
G01X-14700Y16677D01*
G01X-15109Y17586D02*
G01X-15063Y17609D01*
G01X-15154Y17540D02*
G01X-15109Y17586D01*
G01X-15177Y17495D02*
G01X-15154Y17540D01*
G01X-15177Y17404D02*
G01X-15177Y17495D01*
G01X-15177Y17404D02*
G01X-15154Y17359D01*
G01X-15154Y17359D02*
G01X-15109Y17313D01*
G01X-15109Y17313D02*
G01X-15063Y17290D01*
G01X-15063Y17290D02*
G01X-14995Y17268D01*
G01X-14995Y17268D02*
G01X-14881Y17268D01*
G01X-14881Y17268D02*
G01X-14813Y17290D01*
G01X-14813Y17290D02*
G01X-14768Y17313D01*
G01X-14768Y17313D02*
G01X-14722Y17359D01*
G01X-14722Y17359D02*
G01X-14700Y17404D01*
G01X-14700Y17495D02*
G01X-14700Y17404D01*
G01X-14722Y17540D02*
G01X-14700Y17495D01*
G01X-14768Y17586D02*
G01X-14722Y17540D01*
G01X-14813Y17609D02*
G01X-14768Y17586D01*
G01X-15177Y17790D02*
G01X-14700Y17790D01*
G01X-15177Y17949D02*
G01X-15177Y17790D01*
G01X-15177Y17949D02*
G01X-15154Y18018D01*
G01X-15154Y18018D02*
G01X-15109Y18063D01*
G01X-15109Y18063D02*
G01X-15063Y18086D01*
G01X-15063Y18086D02*
G01X-14995Y18109D01*
G01X-14995Y18109D02*
G01X-14881Y18109D01*
G01X-14881Y18109D02*
G01X-14813Y18086D01*
G01X-14813Y18086D02*
G01X-14768Y18063D01*
G01X-14768Y18063D02*
G01X-14722Y18018D01*
G01X-14722Y18018D02*
G01X-14700Y17949D01*
G01X-14700Y17790D02*
G01X-14700Y17949D01*
G01X-15177Y18518D02*
G01X-14859Y18290D01*
G01X-14859Y18631D02*
G01X-14859Y18290D01*
G01X-15177Y18518D02*
G01X-14700Y18518D01*
G01X-15177Y18950D02*
G01X-15154Y18881D01*
G01X-15154Y18881D02*
G01X-15086Y18836D01*
G01X-15086Y18836D02*
G01X-14972Y18813D01*
G01X-14972Y18813D02*
G01X-14904Y18813D01*
G01X-14904Y18813D02*
G01X-14790Y18836D01*
G01X-14790Y18836D02*
G01X-14722Y18881D01*
G01X-14722Y18881D02*
G01X-14700Y18950D01*
G01X-14700Y18995D02*
G01X-14700Y18950D01*
G01X-14722Y19063D02*
G01X-14700Y18995D01*
G01X-14790Y19109D02*
G01X-14722Y19063D01*
G01X-14904Y19131D02*
G01X-14790Y19109D01*
G01X-14972Y19131D02*
G01X-14904Y19131D01*
G01X-15086Y19109D02*
G01X-14972Y19131D01*
G01X-15154Y19063D02*
G01X-15086Y19109D01*
G01X-15177Y18995D02*
G01X-15154Y19063D01*
G01X-15177Y18950D02*
G01X-15177Y18995D01*
G01X-15177Y19450D02*
G01X-15154Y19381D01*
G01X-15154Y19381D02*
G01X-15086Y19336D01*
G01X-15086Y19336D02*
G01X-14972Y19313D01*
G01X-14972Y19313D02*
G01X-14904Y19313D01*
G01X-14904Y19313D02*
G01X-14790Y19336D01*
G01X-14790Y19336D02*
G01X-14722Y19381D01*
G01X-14722Y19381D02*
G01X-14700Y19450D01*
G01X-14700Y19495D02*
G01X-14700Y19450D01*
G01X-14722Y19563D02*
G01X-14700Y19495D01*
G01X-14790Y19609D02*
G01X-14722Y19563D01*
G01X-14904Y19631D02*
G01X-14790Y19609D01*
G01X-14972Y19631D02*
G01X-14904Y19631D01*
G01X-15086Y19609D02*
G01X-14972Y19631D01*
G01X-15154Y19563D02*
G01X-15086Y19609D01*
G01X-15177Y19495D02*
G01X-15154Y19563D01*
G01X-15177Y19450D02*
G01X-15177Y19495D01*
G01X-15177Y20131D02*
G01X-14700Y19904D01*
G01X-15177Y20131D02*
G01X-15177Y19813D01*
G04 Draw part X_IC_15_CD4016*
G04 draw part outline for part X_IC_15_CD4016*
G01X-26500Y24500D02*
G01X-19500Y24500D01*
G01X-19500Y24500D02*
G01X-19500Y26500D01*
G01X-19500Y26500D02*
G01X-26500Y26500D01*
G01X-26500Y26500D02*
G01X-26500Y24500D01*
G01X-26500Y25000D02*
G01X-26000Y25000D01*
G01X-26000Y25000D02*
G01X-26000Y26000D01*
G01X-26000Y26000D02*
G01X-26500Y26000D01*
G01X-26500Y26000D02*
G01X-26500Y25000D01*
G04 draw reference designator for part X_IC_15_CD4016*
G01X-19477Y20500D02*
G01X-19000Y20818D01*
G01X-19477Y20818D02*
G01X-19000Y20500D01*
G01X-19000Y21409D02*
G01X-19000Y21000D01*
G01X-19477Y21590D02*
G01X-19000Y21590D01*
G01X-19409Y22090D02*
G01X-19363Y22113D01*
G01X-19454Y22045D02*
G01X-19409Y22090D01*
G01X-19477Y22000D02*
G01X-19454Y22045D01*
G01X-19477Y21909D02*
G01X-19477Y22000D01*
G01X-19477Y21909D02*
G01X-19454Y21863D01*
G01X-19454Y21863D02*
G01X-19409Y21818D01*
G01X-19409Y21818D02*
G01X-19363Y21795D01*
G01X-19363Y21795D02*
G01X-19295Y21772D01*
G01X-19295Y21772D02*
G01X-19181Y21772D01*
G01X-19181Y21772D02*
G01X-19113Y21795D01*
G01X-19113Y21795D02*
G01X-19068Y21818D01*
G01X-19068Y21818D02*
G01X-19022Y21863D01*
G01X-19022Y21863D02*
G01X-19000Y21909D01*
G01X-19000Y22000D02*
G01X-19000Y21909D01*
G01X-19022Y22045D02*
G01X-19000Y22000D01*
G01X-19068Y22090D02*
G01X-19022Y22045D01*
G01X-19113Y22113D02*
G01X-19068Y22090D01*
G01X-19000Y22704D02*
G01X-19000Y22295D01*
G01X-19409Y22931D02*
G01X-19386Y22886D01*
G01X-19477Y22999D02*
G01X-19409Y22931D01*
G01X-19477Y22999D02*
G01X-19000Y22999D01*
G01X-19477Y23227D02*
G01X-19477Y23454D01*
G01X-19477Y23227D02*
G01X-19272Y23204D01*
G01X-19295Y23227D02*
G01X-19272Y23204D01*
G01X-19318Y23295D02*
G01X-19295Y23227D01*
G01X-19318Y23363D02*
G01X-19318Y23295D01*
G01X-19318Y23363D02*
G01X-19295Y23431D01*
G01X-19295Y23431D02*
G01X-19250Y23477D01*
G01X-19250Y23477D02*
G01X-19181Y23500D01*
G01X-19181Y23500D02*
G01X-19136Y23500D01*
G01X-19136Y23500D02*
G01X-19068Y23477D01*
G01X-19068Y23477D02*
G01X-19022Y23431D01*
G01X-19022Y23431D02*
G01X-19000Y23363D01*
G01X-19000Y23295D02*
G01X-19000Y23363D01*
G01X-19022Y23227D02*
G01X-19000Y23295D01*
G01X-19045Y23204D02*
G01X-19022Y23227D01*
G01X-19090Y23181D02*
G01X-19045Y23204D01*
G01X-19000Y24090D02*
G01X-19000Y23681D01*
G01X-19409Y24590D02*
G01X-19363Y24613D01*
G01X-19454Y24545D02*
G01X-19409Y24590D01*
G01X-19477Y24500D02*
G01X-19454Y24545D01*
G01X-19477Y24409D02*
G01X-19477Y24500D01*
G01X-19477Y24409D02*
G01X-19454Y24363D01*
G01X-19454Y24363D02*
G01X-19409Y24318D01*
G01X-19409Y24318D02*
G01X-19363Y24295D01*
G01X-19363Y24295D02*
G01X-19295Y24272D01*
G01X-19295Y24272D02*
G01X-19181Y24272D01*
G01X-19181Y24272D02*
G01X-19113Y24295D01*
G01X-19113Y24295D02*
G01X-19068Y24318D01*
G01X-19068Y24318D02*
G01X-19022Y24363D01*
G01X-19022Y24363D02*
G01X-19000Y24409D01*
G01X-19000Y24500D02*
G01X-19000Y24409D01*
G01X-19022Y24545D02*
G01X-19000Y24500D01*
G01X-19068Y24590D02*
G01X-19022Y24545D01*
G01X-19113Y24613D02*
G01X-19068Y24590D01*
G01X-19477Y24795D02*
G01X-19000Y24795D01*
G01X-19477Y24954D02*
G01X-19477Y24795D01*
G01X-19477Y24954D02*
G01X-19454Y25022D01*
G01X-19454Y25022D02*
G01X-19409Y25068D01*
G01X-19409Y25068D02*
G01X-19363Y25090D01*
G01X-19363Y25090D02*
G01X-19295Y25113D01*
G01X-19295Y25113D02*
G01X-19181Y25113D01*
G01X-19181Y25113D02*
G01X-19113Y25090D01*
G01X-19113Y25090D02*
G01X-19068Y25068D01*
G01X-19068Y25068D02*
G01X-19022Y25022D01*
G01X-19022Y25022D02*
G01X-19000Y24954D01*
G01X-19000Y24795D02*
G01X-19000Y24954D01*
G01X-19477Y25522D02*
G01X-19159Y25295D01*
G01X-19159Y25636D02*
G01X-19159Y25295D01*
G01X-19477Y25522D02*
G01X-19000Y25522D01*
G01X-19477Y25954D02*
G01X-19454Y25886D01*
G01X-19454Y25886D02*
G01X-19386Y25840D01*
G01X-19386Y25840D02*
G01X-19272Y25818D01*
G01X-19272Y25818D02*
G01X-19204Y25818D01*
G01X-19204Y25818D02*
G01X-19090Y25840D01*
G01X-19090Y25840D02*
G01X-19022Y25886D01*
G01X-19022Y25886D02*
G01X-19000Y25954D01*
G01X-19000Y26000D02*
G01X-19000Y25954D01*
G01X-19022Y26068D02*
G01X-19000Y26000D01*
G01X-19090Y26113D02*
G01X-19022Y26068D01*
G01X-19204Y26136D02*
G01X-19090Y26113D01*
G01X-19272Y26136D02*
G01X-19204Y26136D01*
G01X-19386Y26113D02*
G01X-19272Y26136D01*
G01X-19454Y26068D02*
G01X-19386Y26113D01*
G01X-19477Y26000D02*
G01X-19454Y26068D01*
G01X-19477Y25954D02*
G01X-19477Y26000D01*
G01X-19409Y26363D02*
G01X-19386Y26318D01*
G01X-19477Y26431D02*
G01X-19409Y26363D01*
G01X-19477Y26431D02*
G01X-19000Y26431D01*
G01X-19454Y26863D02*
G01X-19409Y26886D01*
G01X-19477Y26795D02*
G01X-19454Y26863D01*
G01X-19477Y26750D02*
G01X-19477Y26795D01*
G01X-19477Y26750D02*
G01X-19454Y26681D01*
G01X-19454Y26681D02*
G01X-19386Y26636D01*
G01X-19386Y26636D02*
G01X-19272Y26613D01*
G01X-19272Y26613D02*
G01X-19159Y26613D01*
G01X-19159Y26613D02*
G01X-19068Y26636D01*
G01X-19068Y26636D02*
G01X-19022Y26681D01*
G01X-19022Y26681D02*
G01X-19000Y26750D01*
G01X-19000Y26772D02*
G01X-19000Y26750D01*
G01X-19022Y26840D02*
G01X-19000Y26772D01*
G01X-19068Y26886D02*
G01X-19022Y26840D01*
G01X-19136Y26909D02*
G01X-19068Y26886D01*
G01X-19159Y26909D02*
G01X-19136Y26909D01*
G01X-19227Y26886D02*
G01X-19159Y26909D01*
G01X-19272Y26840D02*
G01X-19227Y26886D01*
G01X-19295Y26772D02*
G01X-19272Y26840D01*
G01X-19295Y26750D02*
G01X-19295Y26772D01*
G01X-19295Y26750D02*
G01X-19272Y26681D01*
G01X-19272Y26681D02*
G01X-19227Y26636D01*
G01X-19227Y26636D02*
G01X-19159Y26613D01*
G04 Draw part X_IC_16_CD4016*
G04 draw part outline for part X_IC_16_CD4016*
G01X5500Y500D02*
G01X12500Y500D01*
G01X12500Y500D02*
G01X12500Y2500D01*
G01X12500Y2500D02*
G01X5500Y2500D01*
G01X5500Y2500D02*
G01X5500Y500D01*
G01X5500Y1000D02*
G01X6000Y1000D01*
G01X6000Y1000D02*
G01X6000Y2000D01*
G01X6000Y2000D02*
G01X5500Y2000D01*
G01X5500Y2000D02*
G01X5500Y1000D01*
G04 draw reference designator for part X_IC_16_CD4016*
G01X4522Y-4500D02*
G01X5000Y-4181D01*
G01X4522Y-4181D02*
G01X5000Y-4500D01*
G01X5000Y-3590D02*
G01X5000Y-4000D01*
G01X4522Y-3409D02*
G01X5000Y-3409D01*
G01X4590Y-2909D02*
G01X4636Y-2886D01*
G01X4545Y-2954D02*
G01X4590Y-2909D01*
G01X4522Y-3000D02*
G01X4545Y-2954D01*
G01X4522Y-3090D02*
G01X4522Y-3000D01*
G01X4522Y-3090D02*
G01X4545Y-3136D01*
G01X4545Y-3136D02*
G01X4590Y-3181D01*
G01X4590Y-3181D02*
G01X4636Y-3204D01*
G01X4636Y-3204D02*
G01X4704Y-3227D01*
G01X4704Y-3227D02*
G01X4818Y-3227D01*
G01X4818Y-3227D02*
G01X4886Y-3204D01*
G01X4886Y-3204D02*
G01X4931Y-3181D01*
G01X4931Y-3181D02*
G01X4977Y-3136D01*
G01X4977Y-3136D02*
G01X5000Y-3090D01*
G01X5000Y-3000D02*
G01X5000Y-3090D01*
G01X4977Y-2954D02*
G01X5000Y-3000D01*
G01X4931Y-2909D02*
G01X4977Y-2954D01*
G01X4886Y-2886D02*
G01X4931Y-2909D01*
G01X5000Y-2295D02*
G01X5000Y-2704D01*
G01X4590Y-2068D02*
G01X4613Y-2113D01*
G01X4522Y-2000D02*
G01X4590Y-2068D01*
G01X4522Y-2000D02*
G01X5000Y-2000D01*
G01X4545Y-1568D02*
G01X4590Y-1545D01*
G01X4522Y-1636D02*
G01X4545Y-1568D01*
G01X4522Y-1681D02*
G01X4522Y-1636D01*
G01X4522Y-1681D02*
G01X4545Y-1750D01*
G01X4545Y-1750D02*
G01X4613Y-1795D01*
G01X4613Y-1795D02*
G01X4727Y-1818D01*
G01X4727Y-1818D02*
G01X4840Y-1818D01*
G01X4840Y-1818D02*
G01X4931Y-1795D01*
G01X4931Y-1795D02*
G01X4977Y-1750D01*
G01X4977Y-1750D02*
G01X5000Y-1681D01*
G01X5000Y-1659D02*
G01X5000Y-1681D01*
G01X4977Y-1590D02*
G01X5000Y-1659D01*
G01X4931Y-1545D02*
G01X4977Y-1590D01*
G01X4863Y-1522D02*
G01X4931Y-1545D01*
G01X4840Y-1522D02*
G01X4863Y-1522D01*
G01X4772Y-1545D02*
G01X4840Y-1522D01*
G01X4727Y-1590D02*
G01X4772Y-1545D01*
G01X4704Y-1659D02*
G01X4727Y-1590D01*
G01X4704Y-1681D02*
G01X4704Y-1659D01*
G01X4704Y-1681D02*
G01X4727Y-1750D01*
G01X4727Y-1750D02*
G01X4772Y-1795D01*
G01X4772Y-1795D02*
G01X4840Y-1818D01*
G01X5000Y-931D02*
G01X5000Y-1340D01*
G01X4590Y-431D02*
G01X4636Y-409D01*
G01X4545Y-477D02*
G01X4590Y-431D01*
G01X4522Y-522D02*
G01X4545Y-477D01*
G01X4522Y-613D02*
G01X4522Y-522D01*
G01X4522Y-613D02*
G01X4545Y-659D01*
G01X4545Y-659D02*
G01X4590Y-704D01*
G01X4590Y-704D02*
G01X4636Y-727D01*
G01X4636Y-727D02*
G01X4704Y-750D01*
G01X4704Y-750D02*
G01X4818Y-750D01*
G01X4818Y-750D02*
G01X4886Y-727D01*
G01X4886Y-727D02*
G01X4931Y-704D01*
G01X4931Y-704D02*
G01X4977Y-659D01*
G01X4977Y-659D02*
G01X5000Y-613D01*
G01X5000Y-522D02*
G01X5000Y-613D01*
G01X4977Y-477D02*
G01X5000Y-522D01*
G01X4931Y-431D02*
G01X4977Y-477D01*
G01X4886Y-409D02*
G01X4931Y-431D01*
G01X4522Y-227D02*
G01X5000Y-227D01*
G01X4522Y-68D02*
G01X4522Y-227D01*
G01X4522Y-68D02*
G01X4545Y0D01*
G01X4545Y0D02*
G01X4590Y45D01*
G01X4590Y45D02*
G01X4636Y68D01*
G01X4636Y68D02*
G01X4704Y90D01*
G01X4704Y90D02*
G01X4818Y90D01*
G01X4818Y90D02*
G01X4886Y68D01*
G01X4886Y68D02*
G01X4931Y45D01*
G01X4931Y45D02*
G01X4977Y0D01*
G01X4977Y0D02*
G01X5000Y-68D01*
G01X5000Y-227D02*
G01X5000Y-68D01*
G01X4522Y500D02*
G01X4840Y272D01*
G01X4840Y613D02*
G01X4840Y272D01*
G01X4522Y500D02*
G01X5000Y500D01*
G01X4522Y931D02*
G01X4545Y863D01*
G01X4545Y863D02*
G01X4613Y818D01*
G01X4613Y818D02*
G01X4727Y795D01*
G01X4727Y795D02*
G01X4795Y795D01*
G01X4795Y795D02*
G01X4909Y818D01*
G01X4909Y818D02*
G01X4977Y863D01*
G01X4977Y863D02*
G01X5000Y931D01*
G01X5000Y977D02*
G01X5000Y931D01*
G01X4977Y1045D02*
G01X5000Y977D01*
G01X4909Y1090D02*
G01X4977Y1045D01*
G01X4795Y1113D02*
G01X4909Y1090D01*
G01X4727Y1113D02*
G01X4795Y1113D01*
G01X4613Y1090D02*
G01X4727Y1113D01*
G01X4545Y1045D02*
G01X4613Y1090D01*
G01X4522Y977D02*
G01X4545Y1045D01*
G01X4522Y931D02*
G01X4522Y977D01*
G01X4590Y1340D02*
G01X4613Y1295D01*
G01X4522Y1409D02*
G01X4590Y1340D01*
G01X4522Y1409D02*
G01X5000Y1409D01*
G01X4545Y1840D02*
G01X4590Y1863D01*
G01X4522Y1772D02*
G01X4545Y1840D01*
G01X4522Y1727D02*
G01X4522Y1772D01*
G01X4522Y1727D02*
G01X4545Y1659D01*
G01X4545Y1659D02*
G01X4613Y1613D01*
G01X4613Y1613D02*
G01X4727Y1590D01*
G01X4727Y1590D02*
G01X4840Y1590D01*
G01X4840Y1590D02*
G01X4931Y1613D01*
G01X4931Y1613D02*
G01X4977Y1659D01*
G01X4977Y1659D02*
G01X5000Y1727D01*
G01X5000Y1750D02*
G01X5000Y1727D01*
G01X4977Y1818D02*
G01X5000Y1750D01*
G01X4931Y1863D02*
G01X4977Y1818D01*
G01X4863Y1886D02*
G01X4931Y1863D01*
G01X4840Y1886D02*
G01X4863Y1886D01*
G01X4772Y1863D02*
G01X4840Y1886D01*
G01X4727Y1818D02*
G01X4772Y1863D01*
G01X4704Y1750D02*
G01X4727Y1818D01*
G01X4704Y1727D02*
G01X4704Y1750D01*
G01X4704Y1727D02*
G01X4727Y1659D01*
G01X4727Y1659D02*
G01X4772Y1613D01*
G01X4772Y1613D02*
G01X4840Y1590D01*
G04 Draw part X_IC_17_CD4016*
G04 draw part outline for part X_IC_17_CD4016*
G01X5500Y24500D02*
G01X12500Y24500D01*
G01X12500Y24500D02*
G01X12500Y26500D01*
G01X12500Y26500D02*
G01X5500Y26500D01*
G01X5500Y26500D02*
G01X5500Y24500D01*
G01X5500Y25000D02*
G01X6000Y25000D01*
G01X6000Y25000D02*
G01X6000Y26000D01*
G01X6000Y26000D02*
G01X5500Y26000D01*
G01X5500Y26000D02*
G01X5500Y25000D01*
G04 draw reference designator for part X_IC_17_CD4016*
G01X4522Y20500D02*
G01X5000Y20818D01*
G01X4522Y20818D02*
G01X5000Y20500D01*
G01X5000Y21409D02*
G01X5000Y21000D01*
G01X4522Y21590D02*
G01X5000Y21590D01*
G01X4590Y22090D02*
G01X4636Y22113D01*
G01X4545Y22045D02*
G01X4590Y22090D01*
G01X4522Y22000D02*
G01X4545Y22045D01*
G01X4522Y21909D02*
G01X4522Y22000D01*
G01X4522Y21909D02*
G01X4545Y21863D01*
G01X4545Y21863D02*
G01X4590Y21818D01*
G01X4590Y21818D02*
G01X4636Y21795D01*
G01X4636Y21795D02*
G01X4704Y21772D01*
G01X4704Y21772D02*
G01X4818Y21772D01*
G01X4818Y21772D02*
G01X4886Y21795D01*
G01X4886Y21795D02*
G01X4931Y21818D01*
G01X4931Y21818D02*
G01X4977Y21863D01*
G01X4977Y21863D02*
G01X5000Y21909D01*
G01X5000Y22000D02*
G01X5000Y21909D01*
G01X4977Y22045D02*
G01X5000Y22000D01*
G01X4931Y22090D02*
G01X4977Y22045D01*
G01X4886Y22113D02*
G01X4931Y22090D01*
G01X5000Y22704D02*
G01X5000Y22295D01*
G01X4590Y22931D02*
G01X4613Y22886D01*
G01X4522Y22999D02*
G01X4590Y22931D01*
G01X4522Y22999D02*
G01X5000Y22999D01*
G01X4522Y23500D02*
G01X5000Y23272D01*
G01X4522Y23500D02*
G01X4522Y23181D01*
G01X5000Y24090D02*
G01X5000Y23681D01*
G01X4590Y24590D02*
G01X4636Y24613D01*
G01X4545Y24545D02*
G01X4590Y24590D01*
G01X4522Y24500D02*
G01X4545Y24545D01*
G01X4522Y24409D02*
G01X4522Y24500D01*
G01X4522Y24409D02*
G01X4545Y24363D01*
G01X4545Y24363D02*
G01X4590Y24318D01*
G01X4590Y24318D02*
G01X4636Y24295D01*
G01X4636Y24295D02*
G01X4704Y24272D01*
G01X4704Y24272D02*
G01X4818Y24272D01*
G01X4818Y24272D02*
G01X4886Y24295D01*
G01X4886Y24295D02*
G01X4931Y24318D01*
G01X4931Y24318D02*
G01X4977Y24363D01*
G01X4977Y24363D02*
G01X5000Y24409D01*
G01X5000Y24500D02*
G01X5000Y24409D01*
G01X4977Y24545D02*
G01X5000Y24500D01*
G01X4931Y24590D02*
G01X4977Y24545D01*
G01X4886Y24613D02*
G01X4931Y24590D01*
G01X4522Y24795D02*
G01X5000Y24795D01*
G01X4522Y24954D02*
G01X4522Y24795D01*
G01X4522Y24954D02*
G01X4545Y25022D01*
G01X4545Y25022D02*
G01X4590Y25068D01*
G01X4590Y25068D02*
G01X4636Y25090D01*
G01X4636Y25090D02*
G01X4704Y25113D01*
G01X4704Y25113D02*
G01X4818Y25113D01*
G01X4818Y25113D02*
G01X4886Y25090D01*
G01X4886Y25090D02*
G01X4931Y25068D01*
G01X4931Y25068D02*
G01X4977Y25022D01*
G01X4977Y25022D02*
G01X5000Y24954D01*
G01X5000Y24795D02*
G01X5000Y24954D01*
G01X4522Y25522D02*
G01X4840Y25295D01*
G01X4840Y25636D02*
G01X4840Y25295D01*
G01X4522Y25522D02*
G01X5000Y25522D01*
G01X4522Y25954D02*
G01X4545Y25886D01*
G01X4545Y25886D02*
G01X4613Y25840D01*
G01X4613Y25840D02*
G01X4727Y25818D01*
G01X4727Y25818D02*
G01X4795Y25818D01*
G01X4795Y25818D02*
G01X4909Y25840D01*
G01X4909Y25840D02*
G01X4977Y25886D01*
G01X4977Y25886D02*
G01X5000Y25954D01*
G01X5000Y26000D02*
G01X5000Y25954D01*
G01X4977Y26068D02*
G01X5000Y26000D01*
G01X4909Y26113D02*
G01X4977Y26068D01*
G01X4795Y26136D02*
G01X4909Y26113D01*
G01X4727Y26136D02*
G01X4795Y26136D01*
G01X4613Y26113D02*
G01X4727Y26136D01*
G01X4545Y26068D02*
G01X4613Y26113D01*
G01X4522Y26000D02*
G01X4545Y26068D01*
G01X4522Y25954D02*
G01X4522Y26000D01*
G01X4590Y26363D02*
G01X4613Y26318D01*
G01X4522Y26431D02*
G01X4590Y26363D01*
G01X4522Y26431D02*
G01X5000Y26431D01*
G01X4545Y26863D02*
G01X4590Y26886D01*
G01X4522Y26795D02*
G01X4545Y26863D01*
G01X4522Y26750D02*
G01X4522Y26795D01*
G01X4522Y26750D02*
G01X4545Y26681D01*
G01X4545Y26681D02*
G01X4613Y26636D01*
G01X4613Y26636D02*
G01X4727Y26613D01*
G01X4727Y26613D02*
G01X4840Y26613D01*
G01X4840Y26613D02*
G01X4931Y26636D01*
G01X4931Y26636D02*
G01X4977Y26681D01*
G01X4977Y26681D02*
G01X5000Y26750D01*
G01X5000Y26772D02*
G01X5000Y26750D01*
G01X4977Y26840D02*
G01X5000Y26772D01*
G01X4931Y26886D02*
G01X4977Y26840D01*
G01X4863Y26909D02*
G01X4931Y26886D01*
G01X4840Y26909D02*
G01X4863Y26909D01*
G01X4772Y26886D02*
G01X4840Y26909D01*
G01X4727Y26840D02*
G01X4772Y26886D01*
G01X4704Y26772D02*
G01X4727Y26840D01*
G01X4704Y26750D02*
G01X4704Y26772D01*
G01X4704Y26750D02*
G01X4727Y26681D01*
G01X4727Y26681D02*
G01X4772Y26636D01*
G01X4772Y26636D02*
G01X4840Y26613D01*
G04 Draw part R1*
G04 draw part outline for part R1*
G01X-2510Y-22090D02*
G01X-2510Y-24910D01*
G01X-2510Y-24910D02*
G01X-3490Y-24910D01*
G01X-3490Y-24910D02*
G01X-3490Y-22090D01*
G01X-3490Y-22090D02*
G01X-2510Y-22090D01*
G04 draw reference designator for part R1*
G01X-1532Y-23500D02*
G01X-2010Y-23500D01*
G01X-1532Y-23704D02*
G01X-1532Y-23500D01*
G01X-1532Y-23704D02*
G01X-1555Y-23772D01*
G01X-1555Y-23772D02*
G01X-1578Y-23795D01*
G01X-1578Y-23795D02*
G01X-1623Y-23818D01*
G01X-1623Y-23818D02*
G01X-1669Y-23818D01*
G01X-1669Y-23818D02*
G01X-1714Y-23795D01*
G01X-1714Y-23795D02*
G01X-1737Y-23772D01*
G01X-1737Y-23772D02*
G01X-1760Y-23704D01*
G01X-1760Y-23500D02*
G01X-1760Y-23704D01*
G01X-1760Y-23659D02*
G01X-2010Y-23818D01*
G01X-1600Y-24045D02*
G01X-1623Y-24000D01*
G01X-1532Y-24113D02*
G01X-1600Y-24045D01*
G01X-1532Y-24113D02*
G01X-2010Y-24113D01*
G04 Draw part R2*
G04 draw part outline for part R2*
G01X1510Y-24910D02*
G01X1510Y-22090D01*
G01X1510Y-22090D02*
G01X2490Y-22090D01*
G01X2490Y-22090D02*
G01X2490Y-24910D01*
G01X2490Y-24910D02*
G01X1510Y-24910D01*
G04 draw reference designator for part R2*
G01X532Y-23500D02*
G01X1010Y-23500D01*
G01X532Y-23295D02*
G01X532Y-23500D01*
G01X532Y-23295D02*
G01X555Y-23227D01*
G01X555Y-23227D02*
G01X578Y-23204D01*
G01X578Y-23204D02*
G01X623Y-23181D01*
G01X623Y-23181D02*
G01X669Y-23181D01*
G01X669Y-23181D02*
G01X714Y-23204D01*
G01X714Y-23204D02*
G01X737Y-23227D01*
G01X737Y-23227D02*
G01X760Y-23295D01*
G01X760Y-23500D02*
G01X760Y-23295D01*
G01X760Y-23340D02*
G01X1010Y-23181D01*
G01X623Y-22977D02*
G01X646Y-22977D01*
G01X578Y-22954D02*
G01X623Y-22977D01*
G01X555Y-22931D02*
G01X578Y-22954D01*
G01X532Y-22886D02*
G01X555Y-22931D01*
G01X532Y-22795D02*
G01X532Y-22886D01*
G01X532Y-22795D02*
G01X555Y-22750D01*
G01X555Y-22750D02*
G01X578Y-22727D01*
G01X578Y-22727D02*
G01X623Y-22704D01*
G01X623Y-22704D02*
G01X669Y-22704D01*
G01X669Y-22704D02*
G01X714Y-22727D01*
G01X714Y-22727D02*
G01X782Y-22772D01*
G01X782Y-22772D02*
G01X1010Y-23000D01*
G01X1010Y-22681D02*
G01X1010Y-23000D01*
G04 Draw part R3*
G04 draw part outline for part R3*
G01X-11910Y-18510D02*
G01X-9090Y-18510D01*
G01X-9090Y-18510D02*
G01X-9090Y-19490D01*
G01X-9090Y-19490D02*
G01X-11910Y-19490D01*
G01X-11910Y-19490D02*
G01X-11910Y-18510D01*
G04 draw reference designator for part R3*
G01X-10500Y-17532D02*
G01X-10500Y-18010D01*
G01X-10295Y-17532D02*
G01X-10500Y-17532D01*
G01X-10295Y-17532D02*
G01X-10227Y-17555D01*
G01X-10227Y-17555D02*
G01X-10204Y-17578D01*
G01X-10204Y-17578D02*
G01X-10181Y-17623D01*
G01X-10181Y-17623D02*
G01X-10181Y-17669D01*
G01X-10181Y-17669D02*
G01X-10204Y-17714D01*
G01X-10204Y-17714D02*
G01X-10227Y-17737D01*
G01X-10227Y-17737D02*
G01X-10295Y-17760D01*
G01X-10500Y-17760D02*
G01X-10295Y-17760D01*
G01X-10340Y-17760D02*
G01X-10181Y-18010D01*
G01X-9704Y-17532D02*
G01X-9954Y-17532D01*
G01X-9704Y-17532D02*
G01X-9840Y-17714D01*
G01X-9772Y-17714D02*
G01X-9840Y-17714D01*
G01X-9772Y-17714D02*
G01X-9727Y-17737D01*
G01X-9727Y-17737D02*
G01X-9704Y-17760D01*
G01X-9704Y-17760D02*
G01X-9681Y-17828D01*
G01X-9681Y-17828D02*
G01X-9681Y-17873D01*
G01X-9681Y-17873D02*
G01X-9704Y-17941D01*
G01X-9704Y-17941D02*
G01X-9750Y-17987D01*
G01X-9750Y-17987D02*
G01X-9818Y-18010D01*
G01X-9886Y-18010D02*
G01X-9818Y-18010D01*
G01X-9954Y-17987D02*
G01X-9886Y-18010D01*
G01X-9977Y-17964D02*
G01X-9954Y-17987D01*
G01X-10000Y-17919D02*
G01X-9977Y-17964D01*
G04 Draw part R4*
G04 draw part outline for part R4*
G01X-11810Y-20210D02*
G01X-8990Y-20210D01*
G01X-8990Y-20210D02*
G01X-8990Y-21190D01*
G01X-8990Y-21190D02*
G01X-11810Y-21190D01*
G01X-11810Y-21190D02*
G01X-11810Y-20210D01*
G04 draw reference designator for part R4*
G01X-10400Y-19232D02*
G01X-10400Y-19710D01*
G01X-10195Y-19232D02*
G01X-10400Y-19232D01*
G01X-10195Y-19232D02*
G01X-10127Y-19255D01*
G01X-10127Y-19255D02*
G01X-10104Y-19278D01*
G01X-10104Y-19278D02*
G01X-10081Y-19323D01*
G01X-10081Y-19323D02*
G01X-10081Y-19369D01*
G01X-10081Y-19369D02*
G01X-10104Y-19414D01*
G01X-10104Y-19414D02*
G01X-10127Y-19437D01*
G01X-10127Y-19437D02*
G01X-10195Y-19460D01*
G01X-10400Y-19460D02*
G01X-10195Y-19460D01*
G01X-10240Y-19460D02*
G01X-10081Y-19710D01*
G01X-9672Y-19232D02*
G01X-9900Y-19550D01*
G01X-9559Y-19550D02*
G01X-9900Y-19550D01*
G01X-9672Y-19232D02*
G01X-9672Y-19710D01*
G04 Draw part R5*
G04 draw part outline for part R5*
G01X1490Y11110D02*
G01X1490Y8290D01*
G01X1490Y8290D02*
G01X510Y8290D01*
G01X510Y8290D02*
G01X510Y11110D01*
G01X510Y11110D02*
G01X1490Y11110D01*
G04 draw reference designator for part R5*
G01X2467Y9700D02*
G01X1990Y9700D01*
G01X2467Y9495D02*
G01X2467Y9700D01*
G01X2467Y9495D02*
G01X2444Y9427D01*
G01X2444Y9427D02*
G01X2421Y9404D01*
G01X2421Y9404D02*
G01X2376Y9381D01*
G01X2376Y9381D02*
G01X2330Y9381D01*
G01X2330Y9381D02*
G01X2285Y9404D01*
G01X2285Y9404D02*
G01X2262Y9427D01*
G01X2262Y9427D02*
G01X2240Y9495D01*
G01X2240Y9700D02*
G01X2240Y9495D01*
G01X2240Y9540D02*
G01X1990Y9381D01*
G01X2467Y9154D02*
G01X2467Y8927D01*
G01X2467Y9154D02*
G01X2262Y9177D01*
G01X2285Y9154D02*
G01X2262Y9177D01*
G01X2308Y9086D02*
G01X2285Y9154D01*
G01X2308Y9018D02*
G01X2308Y9086D01*
G01X2308Y9018D02*
G01X2285Y8950D01*
G01X2285Y8950D02*
G01X2240Y8904D01*
G01X2240Y8904D02*
G01X2171Y8881D01*
G01X2171Y8881D02*
G01X2126Y8881D01*
G01X2126Y8881D02*
G01X2058Y8904D01*
G01X2058Y8904D02*
G01X2012Y8950D01*
G01X2012Y8950D02*
G01X1990Y9018D01*
G01X1990Y9086D02*
G01X1990Y9018D01*
G01X2012Y9154D02*
G01X1990Y9086D01*
G01X2035Y9177D02*
G01X2012Y9154D01*
G01X2080Y9200D02*
G01X2035Y9177D01*
G04 Draw part R6*
G04 draw part outline for part R6*
G01X1490Y1910D02*
G01X1490Y-910D01*
G01X1490Y-910D02*
G01X510Y-910D01*
G01X510Y-910D02*
G01X510Y1910D01*
G01X510Y1910D02*
G01X1490Y1910D01*
G04 draw reference designator for part R6*
G01X2467Y500D02*
G01X1990Y500D01*
G01X2467Y295D02*
G01X2467Y500D01*
G01X2467Y295D02*
G01X2444Y227D01*
G01X2444Y227D02*
G01X2421Y204D01*
G01X2421Y204D02*
G01X2376Y181D01*
G01X2376Y181D02*
G01X2330Y181D01*
G01X2330Y181D02*
G01X2285Y204D01*
G01X2285Y204D02*
G01X2262Y227D01*
G01X2262Y227D02*
G01X2240Y295D01*
G01X2240Y500D02*
G01X2240Y295D01*
G01X2240Y340D02*
G01X1990Y181D01*
G01X2444Y-250D02*
G01X2399Y-272D01*
G01X2467Y-181D02*
G01X2444Y-250D01*
G01X2467Y-136D02*
G01X2467Y-181D01*
G01X2467Y-136D02*
G01X2444Y-68D01*
G01X2444Y-68D02*
G01X2376Y-22D01*
G01X2376Y-22D02*
G01X2262Y0D01*
G01X2262Y0D02*
G01X2149Y0D01*
G01X2149Y0D02*
G01X2058Y-22D01*
G01X2058Y-22D02*
G01X2012Y-68D01*
G01X2012Y-68D02*
G01X1990Y-136D01*
G01X1990Y-159D02*
G01X1990Y-136D01*
G01X2012Y-227D02*
G01X1990Y-159D01*
G01X2058Y-272D02*
G01X2012Y-227D01*
G01X2126Y-295D02*
G01X2058Y-272D01*
G01X2149Y-295D02*
G01X2126Y-295D01*
G01X2217Y-272D02*
G01X2149Y-295D01*
G01X2262Y-227D02*
G01X2217Y-272D01*
G01X2285Y-159D02*
G01X2262Y-227D01*
G01X2285Y-136D02*
G01X2285Y-159D01*
G01X2285Y-136D02*
G01X2262Y-68D01*
G01X2262Y-68D02*
G01X2217Y-22D01*
G01X2217Y-22D02*
G01X2149Y0D01*
G04 Draw part R7*
G04 draw part outline for part R7*
G01X-1510Y16910D02*
G01X-1510Y14090D01*
G01X-1510Y14090D02*
G01X-2490Y14090D01*
G01X-2490Y14090D02*
G01X-2490Y16910D01*
G01X-2490Y16910D02*
G01X-1510Y16910D01*
G04 draw reference designator for part R7*
G01X-532Y15500D02*
G01X-1010Y15500D01*
G01X-532Y15295D02*
G01X-532Y15500D01*
G01X-532Y15295D02*
G01X-555Y15227D01*
G01X-555Y15227D02*
G01X-578Y15204D01*
G01X-578Y15204D02*
G01X-623Y15181D01*
G01X-623Y15181D02*
G01X-669Y15181D01*
G01X-669Y15181D02*
G01X-714Y15204D01*
G01X-714Y15204D02*
G01X-737Y15227D01*
G01X-737Y15227D02*
G01X-760Y15295D01*
G01X-760Y15500D02*
G01X-760Y15295D01*
G01X-760Y15340D02*
G01X-1010Y15181D01*
G01X-532Y14681D02*
G01X-1010Y14909D01*
G01X-532Y14681D02*
G01X-532Y15000D01*
G04 Draw part R8*
G04 draw part outline for part R8*
G01X8090Y-20410D02*
G01X10910Y-20410D01*
G01X10910Y-20410D02*
G01X10910Y-21390D01*
G01X10910Y-21390D02*
G01X8090Y-21390D01*
G01X8090Y-21390D02*
G01X8090Y-20410D01*
G04 draw reference designator for part R8*
G01X9500Y-19432D02*
G01X9500Y-19910D01*
G01X9704Y-19432D02*
G01X9500Y-19432D01*
G01X9704Y-19432D02*
G01X9772Y-19455D01*
G01X9772Y-19455D02*
G01X9795Y-19478D01*
G01X9795Y-19478D02*
G01X9818Y-19523D01*
G01X9818Y-19523D02*
G01X9818Y-19569D01*
G01X9818Y-19569D02*
G01X9795Y-19614D01*
G01X9795Y-19614D02*
G01X9772Y-19637D01*
G01X9772Y-19637D02*
G01X9704Y-19660D01*
G01X9500Y-19660D02*
G01X9704Y-19660D01*
G01X9659Y-19660D02*
G01X9818Y-19910D01*
G01X10113Y-19432D02*
G01X10045Y-19455D01*
G01X10045Y-19455D02*
G01X10022Y-19500D01*
G01X10022Y-19500D02*
G01X10022Y-19546D01*
G01X10022Y-19546D02*
G01X10045Y-19591D01*
G01X10045Y-19591D02*
G01X10090Y-19614D01*
G01X10090Y-19614D02*
G01X10181Y-19637D01*
G01X10181Y-19637D02*
G01X10250Y-19660D01*
G01X10250Y-19660D02*
G01X10295Y-19705D01*
G01X10295Y-19705D02*
G01X10318Y-19750D01*
G01X10318Y-19750D02*
G01X10318Y-19819D01*
G01X10318Y-19819D02*
G01X10295Y-19864D01*
G01X10295Y-19864D02*
G01X10272Y-19887D01*
G01X10272Y-19887D02*
G01X10204Y-19910D01*
G01X10113Y-19910D02*
G01X10204Y-19910D01*
G01X10045Y-19887D02*
G01X10113Y-19910D01*
G01X10022Y-19864D02*
G01X10045Y-19887D01*
G01X10000Y-19819D02*
G01X10022Y-19864D01*
G01X10000Y-19750D02*
G01X10000Y-19819D01*
G01X10022Y-19705D02*
G01X10000Y-19750D01*
G01X10068Y-19660D02*
G01X10022Y-19705D01*
G01X10136Y-19637D02*
G01X10068Y-19660D01*
G01X10227Y-19614D02*
G01X10136Y-19637D01*
G01X10272Y-19591D02*
G01X10227Y-19614D01*
G01X10295Y-19546D02*
G01X10272Y-19591D01*
G01X10295Y-19500D02*
G01X10295Y-19546D01*
G01X10272Y-19455D02*
G01X10295Y-19500D01*
G01X10204Y-19432D02*
G01X10272Y-19455D01*
G01X10113Y-19432D02*
G01X10204Y-19432D01*
G04 Draw part R9*
G04 draw part outline for part R9*
G01X15510Y-13910D02*
G01X15510Y-11090D01*
G01X15510Y-11090D02*
G01X16490Y-11090D01*
G01X16490Y-11090D02*
G01X16490Y-13910D01*
G01X16490Y-13910D02*
G01X15510Y-13910D01*
G04 draw reference designator for part R9*
G01X14532Y-12500D02*
G01X15010Y-12500D01*
G01X14532Y-12295D02*
G01X14532Y-12500D01*
G01X14532Y-12295D02*
G01X14555Y-12227D01*
G01X14555Y-12227D02*
G01X14578Y-12204D01*
G01X14578Y-12204D02*
G01X14623Y-12181D01*
G01X14623Y-12181D02*
G01X14669Y-12181D01*
G01X14669Y-12181D02*
G01X14714Y-12204D01*
G01X14714Y-12204D02*
G01X14737Y-12227D01*
G01X14737Y-12227D02*
G01X14760Y-12295D01*
G01X14760Y-12500D02*
G01X14760Y-12295D01*
G01X14760Y-12340D02*
G01X15010Y-12181D01*
G01X14691Y-11704D02*
G01X14760Y-11727D01*
G01X14760Y-11727D02*
G01X14805Y-11772D01*
G01X14805Y-11772D02*
G01X14828Y-11840D01*
G01X14828Y-11863D02*
G01X14828Y-11840D01*
G01X14805Y-11931D02*
G01X14828Y-11863D01*
G01X14760Y-11977D02*
G01X14805Y-11931D01*
G01X14691Y-12000D02*
G01X14760Y-11977D01*
G01X14669Y-12000D02*
G01X14691Y-12000D01*
G01X14600Y-11977D02*
G01X14669Y-12000D01*
G01X14555Y-11931D02*
G01X14600Y-11977D01*
G01X14532Y-11863D02*
G01X14555Y-11931D01*
G01X14532Y-11840D02*
G01X14532Y-11863D01*
G01X14532Y-11840D02*
G01X14555Y-11772D01*
G01X14555Y-11772D02*
G01X14600Y-11727D01*
G01X14600Y-11727D02*
G01X14691Y-11704D01*
G01X14691Y-11704D02*
G01X14805Y-11704D01*
G01X14805Y-11704D02*
G01X14919Y-11727D01*
G01X14919Y-11727D02*
G01X14987Y-11772D01*
G01X14987Y-11772D02*
G01X15010Y-11840D01*
G01X15010Y-11886D02*
G01X15010Y-11840D01*
G01X14987Y-11954D02*
G01X15010Y-11886D01*
G01X14941Y-11977D02*
G01X14987Y-11954D01*
G04 Draw part R10*
G04 draw part outline for part R10*
G01X8090Y-18510D02*
G01X10910Y-18510D01*
G01X10910Y-18510D02*
G01X10910Y-19490D01*
G01X10910Y-19490D02*
G01X8090Y-19490D01*
G01X8090Y-19490D02*
G01X8090Y-18510D01*
G04 draw reference designator for part R10*
G01X9500Y-17532D02*
G01X9500Y-18010D01*
G01X9704Y-17532D02*
G01X9500Y-17532D01*
G01X9704Y-17532D02*
G01X9772Y-17555D01*
G01X9772Y-17555D02*
G01X9795Y-17578D01*
G01X9795Y-17578D02*
G01X9818Y-17623D01*
G01X9818Y-17623D02*
G01X9818Y-17669D01*
G01X9818Y-17669D02*
G01X9795Y-17714D01*
G01X9795Y-17714D02*
G01X9772Y-17737D01*
G01X9772Y-17737D02*
G01X9704Y-17760D01*
G01X9500Y-17760D02*
G01X9704Y-17760D01*
G01X9659Y-17760D02*
G01X9818Y-18010D01*
G01X10045Y-17600D02*
G01X10000Y-17623D01*
G01X10113Y-17532D02*
G01X10045Y-17600D01*
G01X10113Y-17532D02*
G01X10113Y-18010D01*
G01X10431Y-17532D02*
G01X10363Y-17555D01*
G01X10363Y-17555D02*
G01X10318Y-17623D01*
G01X10318Y-17623D02*
G01X10295Y-17737D01*
G01X10295Y-17737D02*
G01X10295Y-17805D01*
G01X10295Y-17805D02*
G01X10318Y-17919D01*
G01X10318Y-17919D02*
G01X10363Y-17987D01*
G01X10363Y-17987D02*
G01X10431Y-18010D01*
G01X10477Y-18010D02*
G01X10431Y-18010D01*
G01X10545Y-17987D02*
G01X10477Y-18010D01*
G01X10590Y-17919D02*
G01X10545Y-17987D01*
G01X10613Y-17805D02*
G01X10590Y-17919D01*
G01X10613Y-17737D02*
G01X10613Y-17805D01*
G01X10590Y-17623D02*
G01X10613Y-17737D01*
G01X10545Y-17555D02*
G01X10590Y-17623D01*
G01X10477Y-17532D02*
G01X10545Y-17555D01*
G01X10431Y-17532D02*
G01X10477Y-17532D01*
G04 Draw part R11*
G04 draw part outline for part R11*
G01X8090Y-6510D02*
G01X10910Y-6510D01*
G01X10910Y-6510D02*
G01X10910Y-7490D01*
G01X10910Y-7490D02*
G01X8090Y-7490D01*
G01X8090Y-7490D02*
G01X8090Y-6510D01*
G04 draw reference designator for part R11*
G01X9500Y-5532D02*
G01X9500Y-6010D01*
G01X9704Y-5532D02*
G01X9500Y-5532D01*
G01X9704Y-5532D02*
G01X9772Y-5555D01*
G01X9772Y-5555D02*
G01X9795Y-5578D01*
G01X9795Y-5578D02*
G01X9818Y-5623D01*
G01X9818Y-5623D02*
G01X9818Y-5669D01*
G01X9818Y-5669D02*
G01X9795Y-5714D01*
G01X9795Y-5714D02*
G01X9772Y-5737D01*
G01X9772Y-5737D02*
G01X9704Y-5760D01*
G01X9500Y-5760D02*
G01X9704Y-5760D01*
G01X9659Y-5760D02*
G01X9818Y-6010D01*
G01X10045Y-5600D02*
G01X10000Y-5623D01*
G01X10113Y-5532D02*
G01X10045Y-5600D01*
G01X10113Y-5532D02*
G01X10113Y-6010D01*
G01X10340Y-5600D02*
G01X10295Y-5623D01*
G01X10409Y-5532D02*
G01X10340Y-5600D01*
G01X10409Y-5532D02*
G01X10409Y-6010D01*
G04 Draw part R12*
G04 draw part outline for part R12*
G01X8090Y-3510D02*
G01X10910Y-3510D01*
G01X10910Y-3510D02*
G01X10910Y-4490D01*
G01X10910Y-4490D02*
G01X8090Y-4490D01*
G01X8090Y-4490D02*
G01X8090Y-3510D01*
G04 draw reference designator for part R12*
G01X9500Y-2532D02*
G01X9500Y-3010D01*
G01X9704Y-2532D02*
G01X9500Y-2532D01*
G01X9704Y-2532D02*
G01X9772Y-2555D01*
G01X9772Y-2555D02*
G01X9795Y-2578D01*
G01X9795Y-2578D02*
G01X9818Y-2623D01*
G01X9818Y-2623D02*
G01X9818Y-2669D01*
G01X9818Y-2669D02*
G01X9795Y-2714D01*
G01X9795Y-2714D02*
G01X9772Y-2737D01*
G01X9772Y-2737D02*
G01X9704Y-2760D01*
G01X9500Y-2760D02*
G01X9704Y-2760D01*
G01X9659Y-2760D02*
G01X9818Y-3010D01*
G01X10045Y-2600D02*
G01X10000Y-2623D01*
G01X10113Y-2532D02*
G01X10045Y-2600D01*
G01X10113Y-2532D02*
G01X10113Y-3010D01*
G01X10318Y-2623D02*
G01X10318Y-2646D01*
G01X10340Y-2578D02*
G01X10318Y-2623D01*
G01X10363Y-2555D02*
G01X10340Y-2578D01*
G01X10409Y-2532D02*
G01X10363Y-2555D01*
G01X10500Y-2532D02*
G01X10409Y-2532D01*
G01X10500Y-2532D02*
G01X10545Y-2555D01*
G01X10545Y-2555D02*
G01X10568Y-2578D01*
G01X10568Y-2578D02*
G01X10590Y-2623D01*
G01X10590Y-2623D02*
G01X10590Y-2669D01*
G01X10590Y-2669D02*
G01X10568Y-2714D01*
G01X10568Y-2714D02*
G01X10522Y-2782D01*
G01X10522Y-2782D02*
G01X10295Y-3010D01*
G01X10613Y-3010D02*
G01X10295Y-3010D01*
G04 Draw part R13*
G04 draw part outline for part R13*
G01X1490Y-8090D02*
G01X1490Y-10910D01*
G01X1490Y-10910D02*
G01X510Y-10910D01*
G01X510Y-10910D02*
G01X510Y-8090D01*
G01X510Y-8090D02*
G01X1490Y-8090D01*
G04 draw reference designator for part R13*
G01X2467Y-9500D02*
G01X1990Y-9500D01*
G01X2467Y-9704D02*
G01X2467Y-9500D01*
G01X2467Y-9704D02*
G01X2444Y-9772D01*
G01X2444Y-9772D02*
G01X2421Y-9795D01*
G01X2421Y-9795D02*
G01X2376Y-9818D01*
G01X2376Y-9818D02*
G01X2330Y-9818D01*
G01X2330Y-9818D02*
G01X2285Y-9795D01*
G01X2285Y-9795D02*
G01X2262Y-9772D01*
G01X2262Y-9772D02*
G01X2240Y-9704D01*
G01X2240Y-9500D02*
G01X2240Y-9704D01*
G01X2240Y-9659D02*
G01X1990Y-9818D01*
G01X2399Y-10045D02*
G01X2376Y-10000D01*
G01X2467Y-10113D02*
G01X2399Y-10045D01*
G01X2467Y-10113D02*
G01X1990Y-10113D01*
G01X2467Y-10590D02*
G01X2467Y-10340D01*
G01X2467Y-10590D02*
G01X2285Y-10454D01*
G01X2285Y-10522D02*
G01X2285Y-10454D01*
G01X2285Y-10522D02*
G01X2262Y-10568D01*
G01X2262Y-10568D02*
G01X2240Y-10590D01*
G01X2240Y-10590D02*
G01X2171Y-10613D01*
G01X2171Y-10613D02*
G01X2126Y-10613D01*
G01X2126Y-10613D02*
G01X2058Y-10590D01*
G01X2058Y-10590D02*
G01X2012Y-10545D01*
G01X2012Y-10545D02*
G01X1990Y-10477D01*
G01X1990Y-10409D02*
G01X1990Y-10477D01*
G01X2012Y-10340D02*
G01X1990Y-10409D01*
G01X2035Y-10318D02*
G01X2012Y-10340D01*
G01X2080Y-10295D02*
G01X2035Y-10318D01*
G04 Draw part R14*
G04 draw part outline for part R14*
G01X16490Y-2090D02*
G01X16490Y-4910D01*
G01X16490Y-4910D02*
G01X15510Y-4910D01*
G01X15510Y-4910D02*
G01X15510Y-2090D01*
G01X15510Y-2090D02*
G01X16490Y-2090D01*
G04 draw reference designator for part R14*
G01X17467Y-3500D02*
G01X16990Y-3500D01*
G01X17467Y-3704D02*
G01X17467Y-3500D01*
G01X17467Y-3704D02*
G01X17444Y-3772D01*
G01X17444Y-3772D02*
G01X17421Y-3795D01*
G01X17421Y-3795D02*
G01X17376Y-3818D01*
G01X17376Y-3818D02*
G01X17330Y-3818D01*
G01X17330Y-3818D02*
G01X17285Y-3795D01*
G01X17285Y-3795D02*
G01X17262Y-3772D01*
G01X17262Y-3772D02*
G01X17240Y-3704D01*
G01X17240Y-3500D02*
G01X17240Y-3704D01*
G01X17240Y-3659D02*
G01X16990Y-3818D01*
G01X17399Y-4045D02*
G01X17376Y-4000D01*
G01X17467Y-4113D02*
G01X17399Y-4045D01*
G01X17467Y-4113D02*
G01X16990Y-4113D01*
G01X17467Y-4522D02*
G01X17149Y-4295D01*
G01X17149Y-4636D02*
G01X17149Y-4295D01*
G01X17467Y-4522D02*
G01X16990Y-4522D01*
G04 Draw part R15*
G04 draw part outline for part R15*
G01X16490Y14910D02*
G01X16490Y12090D01*
G01X16490Y12090D02*
G01X15510Y12090D01*
G01X15510Y12090D02*
G01X15510Y14910D01*
G01X15510Y14910D02*
G01X16490Y14910D01*
G04 draw reference designator for part R15*
G01X17467Y13500D02*
G01X16990Y13500D01*
G01X17467Y13295D02*
G01X17467Y13500D01*
G01X17467Y13295D02*
G01X17444Y13227D01*
G01X17444Y13227D02*
G01X17421Y13204D01*
G01X17421Y13204D02*
G01X17376Y13181D01*
G01X17376Y13181D02*
G01X17330Y13181D01*
G01X17330Y13181D02*
G01X17285Y13204D01*
G01X17285Y13204D02*
G01X17262Y13227D01*
G01X17262Y13227D02*
G01X17240Y13295D01*
G01X17240Y13500D02*
G01X17240Y13295D01*
G01X17240Y13340D02*
G01X16990Y13181D01*
G01X17399Y12954D02*
G01X17376Y13000D01*
G01X17467Y12886D02*
G01X17399Y12954D01*
G01X17467Y12886D02*
G01X16990Y12886D01*
G01X17467Y12659D02*
G01X17467Y12431D01*
G01X17467Y12659D02*
G01X17262Y12681D01*
G01X17285Y12659D02*
G01X17262Y12681D01*
G01X17308Y12590D02*
G01X17285Y12659D01*
G01X17308Y12522D02*
G01X17308Y12590D01*
G01X17308Y12522D02*
G01X17285Y12454D01*
G01X17285Y12454D02*
G01X17240Y12409D01*
G01X17240Y12409D02*
G01X17171Y12386D01*
G01X17171Y12386D02*
G01X17126Y12386D01*
G01X17126Y12386D02*
G01X17058Y12409D01*
G01X17058Y12409D02*
G01X17012Y12454D01*
G01X17012Y12454D02*
G01X16990Y12522D01*
G01X16990Y12590D02*
G01X16990Y12522D01*
G01X17012Y12659D02*
G01X16990Y12590D01*
G01X17035Y12681D02*
G01X17012Y12659D01*
G01X17080Y12704D02*
G01X17035Y12681D01*
G04 Draw part R16*
G04 draw part outline for part R16*
G01X8190Y19990D02*
G01X11010Y19990D01*
G01X11010Y19990D02*
G01X11010Y19010D01*
G01X11010Y19010D02*
G01X8190Y19010D01*
G01X8190Y19010D02*
G01X8190Y19990D01*
G04 draw reference designator for part R16*
G01X9600Y20967D02*
G01X9600Y20490D01*
G01X9804Y20967D02*
G01X9600Y20967D01*
G01X9804Y20967D02*
G01X9872Y20944D01*
G01X9872Y20944D02*
G01X9895Y20921D01*
G01X9895Y20921D02*
G01X9918Y20876D01*
G01X9918Y20876D02*
G01X9918Y20830D01*
G01X9918Y20830D02*
G01X9895Y20785D01*
G01X9895Y20785D02*
G01X9872Y20762D01*
G01X9872Y20762D02*
G01X9804Y20740D01*
G01X9600Y20740D02*
G01X9804Y20740D01*
G01X9759Y20740D02*
G01X9918Y20490D01*
G01X10145Y20899D02*
G01X10100Y20876D01*
G01X10213Y20967D02*
G01X10145Y20899D01*
G01X10213Y20967D02*
G01X10213Y20490D01*
G01X10645Y20944D02*
G01X10668Y20899D01*
G01X10577Y20967D02*
G01X10645Y20944D01*
G01X10531Y20967D02*
G01X10577Y20967D01*
G01X10531Y20967D02*
G01X10463Y20944D01*
G01X10463Y20944D02*
G01X10418Y20876D01*
G01X10418Y20876D02*
G01X10395Y20762D01*
G01X10395Y20762D02*
G01X10395Y20649D01*
G01X10395Y20649D02*
G01X10418Y20558D01*
G01X10418Y20558D02*
G01X10463Y20512D01*
G01X10463Y20512D02*
G01X10531Y20490D01*
G01X10554Y20490D02*
G01X10531Y20490D01*
G01X10622Y20512D02*
G01X10554Y20490D01*
G01X10668Y20558D02*
G01X10622Y20512D01*
G01X10690Y20626D02*
G01X10668Y20558D01*
G01X10690Y20649D02*
G01X10690Y20626D01*
G01X10668Y20717D02*
G01X10690Y20649D01*
G01X10622Y20762D02*
G01X10668Y20717D01*
G01X10554Y20785D02*
G01X10622Y20762D01*
G01X10531Y20785D02*
G01X10554Y20785D01*
G01X10531Y20785D02*
G01X10463Y20762D01*
G01X10463Y20762D02*
G01X10418Y20717D01*
G01X10418Y20717D02*
G01X10395Y20649D01*
G04 Draw part R17*
G04 draw part outline for part R17*
G01X8090Y7490D02*
G01X10910Y7490D01*
G01X10910Y7490D02*
G01X10910Y6510D01*
G01X10910Y6510D02*
G01X8090Y6510D01*
G01X8090Y6510D02*
G01X8090Y7490D01*
G04 draw reference designator for part R17*
G01X9500Y8467D02*
G01X9500Y7990D01*
G01X9704Y8467D02*
G01X9500Y8467D01*
G01X9704Y8467D02*
G01X9772Y8444D01*
G01X9772Y8444D02*
G01X9795Y8421D01*
G01X9795Y8421D02*
G01X9818Y8376D01*
G01X9818Y8376D02*
G01X9818Y8330D01*
G01X9818Y8330D02*
G01X9795Y8285D01*
G01X9795Y8285D02*
G01X9772Y8262D01*
G01X9772Y8262D02*
G01X9704Y8240D01*
G01X9500Y8240D02*
G01X9704Y8240D01*
G01X9659Y8240D02*
G01X9818Y7990D01*
G01X10045Y8399D02*
G01X10000Y8376D01*
G01X10113Y8467D02*
G01X10045Y8399D01*
G01X10113Y8467D02*
G01X10113Y7990D01*
G01X10613Y8467D02*
G01X10386Y7990D01*
G01X10613Y8467D02*
G01X10295Y8467D01*
G04 Draw part R18*
G04 draw part outline for part R18*
G01X8090Y9490D02*
G01X10910Y9490D01*
G01X10910Y9490D02*
G01X10910Y8510D01*
G01X10910Y8510D02*
G01X8090Y8510D01*
G01X8090Y8510D02*
G01X8090Y9490D01*
G04 draw reference designator for part R18*
G01X9500Y10467D02*
G01X9500Y9990D01*
G01X9704Y10467D02*
G01X9500Y10467D01*
G01X9704Y10467D02*
G01X9772Y10444D01*
G01X9772Y10444D02*
G01X9795Y10421D01*
G01X9795Y10421D02*
G01X9818Y10376D01*
G01X9818Y10376D02*
G01X9818Y10330D01*
G01X9818Y10330D02*
G01X9795Y10285D01*
G01X9795Y10285D02*
G01X9772Y10262D01*
G01X9772Y10262D02*
G01X9704Y10240D01*
G01X9500Y10240D02*
G01X9704Y10240D01*
G01X9659Y10240D02*
G01X9818Y9990D01*
G01X10045Y10399D02*
G01X10000Y10376D01*
G01X10113Y10467D02*
G01X10045Y10399D01*
G01X10113Y10467D02*
G01X10113Y9990D01*
G01X10409Y10467D02*
G01X10340Y10444D01*
G01X10340Y10444D02*
G01X10318Y10399D01*
G01X10318Y10399D02*
G01X10318Y10353D01*
G01X10318Y10353D02*
G01X10340Y10308D01*
G01X10340Y10308D02*
G01X10386Y10285D01*
G01X10386Y10285D02*
G01X10477Y10262D01*
G01X10477Y10262D02*
G01X10545Y10240D01*
G01X10545Y10240D02*
G01X10590Y10194D01*
G01X10590Y10194D02*
G01X10613Y10149D01*
G01X10613Y10149D02*
G01X10613Y10080D01*
G01X10613Y10080D02*
G01X10590Y10035D01*
G01X10590Y10035D02*
G01X10568Y10012D01*
G01X10568Y10012D02*
G01X10500Y9990D01*
G01X10409Y9990D02*
G01X10500Y9990D01*
G01X10340Y10012D02*
G01X10409Y9990D01*
G01X10318Y10035D02*
G01X10340Y10012D01*
G01X10295Y10080D02*
G01X10318Y10035D01*
G01X10295Y10149D02*
G01X10295Y10080D01*
G01X10318Y10194D02*
G01X10295Y10149D01*
G01X10363Y10240D02*
G01X10318Y10194D01*
G01X10431Y10262D02*
G01X10363Y10240D01*
G01X10522Y10285D02*
G01X10431Y10262D01*
G01X10568Y10308D02*
G01X10522Y10285D01*
G01X10590Y10353D02*
G01X10568Y10308D01*
G01X10590Y10399D02*
G01X10590Y10353D01*
G01X10568Y10444D02*
G01X10590Y10399D01*
G01X10500Y10467D02*
G01X10568Y10444D01*
G01X10409Y10467D02*
G01X10500Y10467D01*
G04 Draw part R19*
G04 draw part outline for part R19*
G01X-11910Y17490D02*
G01X-9090Y17490D01*
G01X-9090Y17490D02*
G01X-9090Y16510D01*
G01X-9090Y16510D02*
G01X-11910Y16510D01*
G01X-11910Y16510D02*
G01X-11910Y17490D01*
G04 draw reference designator for part R19*
G01X-10500Y18467D02*
G01X-10500Y17990D01*
G01X-10295Y18467D02*
G01X-10500Y18467D01*
G01X-10295Y18467D02*
G01X-10227Y18444D01*
G01X-10227Y18444D02*
G01X-10204Y18421D01*
G01X-10204Y18421D02*
G01X-10181Y18376D01*
G01X-10181Y18376D02*
G01X-10181Y18330D01*
G01X-10181Y18330D02*
G01X-10204Y18285D01*
G01X-10204Y18285D02*
G01X-10227Y18262D01*
G01X-10227Y18262D02*
G01X-10295Y18240D01*
G01X-10500Y18240D02*
G01X-10295Y18240D01*
G01X-10340Y18240D02*
G01X-10181Y17990D01*
G01X-9954Y18399D02*
G01X-10000Y18376D01*
G01X-9886Y18467D02*
G01X-9954Y18399D01*
G01X-9886Y18467D02*
G01X-9886Y17990D01*
G01X-9409Y18308D02*
G01X-9431Y18240D01*
G01X-9431Y18240D02*
G01X-9477Y18194D01*
G01X-9477Y18194D02*
G01X-9545Y18171D01*
G01X-9568Y18171D02*
G01X-9545Y18171D01*
G01X-9636Y18194D02*
G01X-9568Y18171D01*
G01X-9681Y18240D02*
G01X-9636Y18194D01*
G01X-9704Y18308D02*
G01X-9681Y18240D01*
G01X-9704Y18330D02*
G01X-9704Y18308D01*
G01X-9681Y18399D02*
G01X-9704Y18330D01*
G01X-9636Y18444D02*
G01X-9681Y18399D01*
G01X-9568Y18467D02*
G01X-9636Y18444D01*
G01X-9545Y18467D02*
G01X-9568Y18467D01*
G01X-9545Y18467D02*
G01X-9477Y18444D01*
G01X-9477Y18444D02*
G01X-9431Y18399D01*
G01X-9431Y18399D02*
G01X-9409Y18308D01*
G01X-9409Y18308D02*
G01X-9409Y18194D01*
G01X-9409Y18194D02*
G01X-9431Y18080D01*
G01X-9431Y18080D02*
G01X-9477Y18012D01*
G01X-9477Y18012D02*
G01X-9545Y17990D01*
G01X-9590Y17990D02*
G01X-9545Y17990D01*
G01X-9659Y18012D02*
G01X-9590Y17990D01*
G01X-9681Y18058D02*
G01X-9659Y18012D01*
G04 Draw part R20*
G04 draw part outline for part R20*
G01X-11910Y20490D02*
G01X-9090Y20490D01*
G01X-9090Y20490D02*
G01X-9090Y19510D01*
G01X-9090Y19510D02*
G01X-11910Y19510D01*
G01X-11910Y19510D02*
G01X-11910Y20490D01*
G04 draw reference designator for part R20*
G01X-10500Y21467D02*
G01X-10500Y20990D01*
G01X-10295Y21467D02*
G01X-10500Y21467D01*
G01X-10295Y21467D02*
G01X-10227Y21444D01*
G01X-10227Y21444D02*
G01X-10204Y21421D01*
G01X-10204Y21421D02*
G01X-10181Y21376D01*
G01X-10181Y21376D02*
G01X-10181Y21330D01*
G01X-10181Y21330D02*
G01X-10204Y21285D01*
G01X-10204Y21285D02*
G01X-10227Y21262D01*
G01X-10227Y21262D02*
G01X-10295Y21240D01*
G01X-10500Y21240D02*
G01X-10295Y21240D01*
G01X-10340Y21240D02*
G01X-10181Y20990D01*
G01X-9977Y21376D02*
G01X-9977Y21353D01*
G01X-9954Y21421D02*
G01X-9977Y21376D01*
G01X-9931Y21444D02*
G01X-9954Y21421D01*
G01X-9886Y21467D02*
G01X-9931Y21444D01*
G01X-9795Y21467D02*
G01X-9886Y21467D01*
G01X-9795Y21467D02*
G01X-9750Y21444D01*
G01X-9750Y21444D02*
G01X-9727Y21421D01*
G01X-9727Y21421D02*
G01X-9704Y21376D01*
G01X-9704Y21376D02*
G01X-9704Y21330D01*
G01X-9704Y21330D02*
G01X-9727Y21285D01*
G01X-9727Y21285D02*
G01X-9772Y21217D01*
G01X-9772Y21217D02*
G01X-10000Y20990D01*
G01X-9681Y20990D02*
G01X-10000Y20990D01*
G01X-9363Y21467D02*
G01X-9431Y21444D01*
G01X-9431Y21444D02*
G01X-9477Y21376D01*
G01X-9477Y21376D02*
G01X-9500Y21262D01*
G01X-9500Y21262D02*
G01X-9500Y21194D01*
G01X-9500Y21194D02*
G01X-9477Y21080D01*
G01X-9477Y21080D02*
G01X-9431Y21012D01*
G01X-9431Y21012D02*
G01X-9363Y20990D01*
G01X-9318Y20990D02*
G01X-9363Y20990D01*
G01X-9250Y21012D02*
G01X-9318Y20990D01*
G01X-9204Y21080D02*
G01X-9250Y21012D01*
G01X-9181Y21194D02*
G01X-9204Y21080D01*
G01X-9181Y21262D02*
G01X-9181Y21194D01*
G01X-9204Y21376D02*
G01X-9181Y21262D01*
G01X-9250Y21444D02*
G01X-9204Y21376D01*
G01X-9318Y21467D02*
G01X-9250Y21444D01*
G01X-9363Y21467D02*
G01X-9318Y21467D01*
G04 Draw part R21*
G04 draw part outline for part R21*
G01X-1910Y23490D02*
G01X910Y23490D01*
G01X910Y23490D02*
G01X910Y22510D01*
G01X910Y22510D02*
G01X-1910Y22510D01*
G01X-1910Y22510D02*
G01X-1910Y23490D01*
G04 draw reference designator for part R21*
G01X-500Y24467D02*
G01X-500Y23990D01*
G01X-295Y24467D02*
G01X-500Y24467D01*
G01X-295Y24467D02*
G01X-227Y24444D01*
G01X-227Y24444D02*
G01X-204Y24421D01*
G01X-204Y24421D02*
G01X-181Y24376D01*
G01X-181Y24376D02*
G01X-181Y24330D01*
G01X-181Y24330D02*
G01X-204Y24285D01*
G01X-204Y24285D02*
G01X-227Y24262D01*
G01X-227Y24262D02*
G01X-295Y24240D01*
G01X-500Y24240D02*
G01X-295Y24240D01*
G01X-340Y24240D02*
G01X-181Y23990D01*
G01X22Y24376D02*
G01X22Y24353D01*
G01X45Y24421D02*
G01X22Y24376D01*
G01X68Y24444D02*
G01X45Y24421D01*
G01X113Y24467D02*
G01X68Y24444D01*
G01X204Y24467D02*
G01X113Y24467D01*
G01X204Y24467D02*
G01X250Y24444D01*
G01X250Y24444D02*
G01X272Y24421D01*
G01X272Y24421D02*
G01X295Y24376D01*
G01X295Y24376D02*
G01X295Y24330D01*
G01X295Y24330D02*
G01X272Y24285D01*
G01X272Y24285D02*
G01X227Y24217D01*
G01X227Y24217D02*
G01X0Y23990D01*
G01X318Y23990D02*
G01X0Y23990D01*
G01X545Y24399D02*
G01X500Y24376D01*
G01X613Y24467D02*
G01X545Y24399D01*
G01X613Y24467D02*
G01X613Y23990D01*
G04 Draw part R22*
G04 draw part outline for part R22*
G01X16490Y21910D02*
G01X16490Y19090D01*
G01X16490Y19090D02*
G01X15510Y19090D01*
G01X15510Y19090D02*
G01X15510Y21910D01*
G01X15510Y21910D02*
G01X16490Y21910D01*
G04 draw reference designator for part R22*
G01X17467Y20500D02*
G01X16990Y20500D01*
G01X17467Y20295D02*
G01X17467Y20500D01*
G01X17467Y20295D02*
G01X17444Y20227D01*
G01X17444Y20227D02*
G01X17421Y20204D01*
G01X17421Y20204D02*
G01X17376Y20181D01*
G01X17376Y20181D02*
G01X17330Y20181D01*
G01X17330Y20181D02*
G01X17285Y20204D01*
G01X17285Y20204D02*
G01X17262Y20227D01*
G01X17262Y20227D02*
G01X17240Y20295D01*
G01X17240Y20500D02*
G01X17240Y20295D01*
G01X17240Y20340D02*
G01X16990Y20181D01*
G01X17376Y19977D02*
G01X17353Y19977D01*
G01X17421Y19954D02*
G01X17376Y19977D01*
G01X17444Y19931D02*
G01X17421Y19954D01*
G01X17467Y19886D02*
G01X17444Y19931D01*
G01X17467Y19795D02*
G01X17467Y19886D01*
G01X17467Y19795D02*
G01X17444Y19750D01*
G01X17444Y19750D02*
G01X17421Y19727D01*
G01X17421Y19727D02*
G01X17376Y19704D01*
G01X17376Y19704D02*
G01X17330Y19704D01*
G01X17330Y19704D02*
G01X17285Y19727D01*
G01X17285Y19727D02*
G01X17217Y19772D01*
G01X17217Y19772D02*
G01X16990Y20000D01*
G01X16990Y19681D02*
G01X16990Y20000D01*
G01X17376Y19477D02*
G01X17353Y19477D01*
G01X17421Y19454D02*
G01X17376Y19477D01*
G01X17444Y19431D02*
G01X17421Y19454D01*
G01X17467Y19386D02*
G01X17444Y19431D01*
G01X17467Y19295D02*
G01X17467Y19386D01*
G01X17467Y19295D02*
G01X17444Y19250D01*
G01X17444Y19250D02*
G01X17421Y19227D01*
G01X17421Y19227D02*
G01X17376Y19204D01*
G01X17376Y19204D02*
G01X17330Y19204D01*
G01X17330Y19204D02*
G01X17285Y19227D01*
G01X17285Y19227D02*
G01X17217Y19272D01*
G01X17217Y19272D02*
G01X16990Y19500D01*
G01X16990Y19181D02*
G01X16990Y19500D01*
G04 Draw part R23*
G04 draw part outline for part R23*
G01X23090Y8490D02*
G01X25910Y8490D01*
G01X25910Y8490D02*
G01X25910Y7510D01*
G01X25910Y7510D02*
G01X23090Y7510D01*
G01X23090Y7510D02*
G01X23090Y8490D01*
G04 draw reference designator for part R23*
G01X24500Y9467D02*
G01X24500Y8990D01*
G01X24704Y9467D02*
G01X24500Y9467D01*
G01X24704Y9467D02*
G01X24772Y9444D01*
G01X24772Y9444D02*
G01X24795Y9421D01*
G01X24795Y9421D02*
G01X24818Y9376D01*
G01X24818Y9376D02*
G01X24818Y9330D01*
G01X24818Y9330D02*
G01X24795Y9285D01*
G01X24795Y9285D02*
G01X24772Y9262D01*
G01X24772Y9262D02*
G01X24704Y9240D01*
G01X24500Y9240D02*
G01X24704Y9240D01*
G01X24659Y9240D02*
G01X24818Y8990D01*
G01X25022Y9376D02*
G01X25022Y9353D01*
G01X25045Y9421D02*
G01X25022Y9376D01*
G01X25068Y9444D02*
G01X25045Y9421D01*
G01X25113Y9467D02*
G01X25068Y9444D01*
G01X25204Y9467D02*
G01X25113Y9467D01*
G01X25204Y9467D02*
G01X25250Y9444D01*
G01X25250Y9444D02*
G01X25272Y9421D01*
G01X25272Y9421D02*
G01X25295Y9376D01*
G01X25295Y9376D02*
G01X25295Y9330D01*
G01X25295Y9330D02*
G01X25272Y9285D01*
G01X25272Y9285D02*
G01X25227Y9217D01*
G01X25227Y9217D02*
G01X25000Y8990D01*
G01X25318Y8990D02*
G01X25000Y8990D01*
G01X25795Y9467D02*
G01X25545Y9467D01*
G01X25795Y9467D02*
G01X25659Y9285D01*
G01X25727Y9285D02*
G01X25659Y9285D01*
G01X25727Y9285D02*
G01X25772Y9262D01*
G01X25772Y9262D02*
G01X25795Y9240D01*
G01X25795Y9240D02*
G01X25818Y9171D01*
G01X25818Y9171D02*
G01X25818Y9126D01*
G01X25818Y9126D02*
G01X25795Y9058D01*
G01X25795Y9058D02*
G01X25750Y9012D01*
G01X25750Y9012D02*
G01X25681Y8990D01*
G01X25613Y8990D02*
G01X25681Y8990D01*
G01X25545Y9012D02*
G01X25613Y8990D01*
G01X25522Y9035D02*
G01X25545Y9012D01*
G01X25500Y9080D02*
G01X25522Y9035D01*
G04 Draw part R24*
G04 draw part outline for part R24*
G01X24090Y18490D02*
G01X26910Y18490D01*
G01X26910Y18490D02*
G01X26910Y17510D01*
G01X26910Y17510D02*
G01X24090Y17510D01*
G01X24090Y17510D02*
G01X24090Y18490D01*
G04 draw reference designator for part R24*
G01X25500Y19467D02*
G01X25500Y18990D01*
G01X25704Y19467D02*
G01X25500Y19467D01*
G01X25704Y19467D02*
G01X25772Y19444D01*
G01X25772Y19444D02*
G01X25795Y19421D01*
G01X25795Y19421D02*
G01X25818Y19376D01*
G01X25818Y19376D02*
G01X25818Y19330D01*
G01X25818Y19330D02*
G01X25795Y19285D01*
G01X25795Y19285D02*
G01X25772Y19262D01*
G01X25772Y19262D02*
G01X25704Y19240D01*
G01X25500Y19240D02*
G01X25704Y19240D01*
G01X25659Y19240D02*
G01X25818Y18990D01*
G01X26022Y19376D02*
G01X26022Y19353D01*
G01X26045Y19421D02*
G01X26022Y19376D01*
G01X26068Y19444D02*
G01X26045Y19421D01*
G01X26113Y19467D02*
G01X26068Y19444D01*
G01X26204Y19467D02*
G01X26113Y19467D01*
G01X26204Y19467D02*
G01X26250Y19444D01*
G01X26250Y19444D02*
G01X26272Y19421D01*
G01X26272Y19421D02*
G01X26295Y19376D01*
G01X26295Y19376D02*
G01X26295Y19330D01*
G01X26295Y19330D02*
G01X26272Y19285D01*
G01X26272Y19285D02*
G01X26227Y19217D01*
G01X26227Y19217D02*
G01X26000Y18990D01*
G01X26318Y18990D02*
G01X26000Y18990D01*
G01X26727Y19467D02*
G01X26500Y19149D01*
G01X26840Y19149D02*
G01X26500Y19149D01*
G01X26727Y19467D02*
G01X26727Y18990D01*
G04 Draw part R25*
G04 draw part outline for part R25*
G01X23290Y-7610D02*
G01X26110Y-7610D01*
G01X26110Y-7610D02*
G01X26110Y-8590D01*
G01X26110Y-8590D02*
G01X23290Y-8590D01*
G01X23290Y-8590D02*
G01X23290Y-7610D01*
G04 draw reference designator for part R25*
G01X24700Y-6632D02*
G01X24700Y-7110D01*
G01X24904Y-6632D02*
G01X24700Y-6632D01*
G01X24904Y-6632D02*
G01X24972Y-6655D01*
G01X24972Y-6655D02*
G01X24995Y-6678D01*
G01X24995Y-6678D02*
G01X25018Y-6723D01*
G01X25018Y-6723D02*
G01X25018Y-6769D01*
G01X25018Y-6769D02*
G01X24995Y-6814D01*
G01X24995Y-6814D02*
G01X24972Y-6837D01*
G01X24972Y-6837D02*
G01X24904Y-6860D01*
G01X24700Y-6860D02*
G01X24904Y-6860D01*
G01X24859Y-6860D02*
G01X25018Y-7110D01*
G01X25222Y-6723D02*
G01X25222Y-6746D01*
G01X25245Y-6678D02*
G01X25222Y-6723D01*
G01X25268Y-6655D02*
G01X25245Y-6678D01*
G01X25313Y-6632D02*
G01X25268Y-6655D01*
G01X25404Y-6632D02*
G01X25313Y-6632D01*
G01X25404Y-6632D02*
G01X25450Y-6655D01*
G01X25450Y-6655D02*
G01X25472Y-6678D01*
G01X25472Y-6678D02*
G01X25495Y-6723D01*
G01X25495Y-6723D02*
G01X25495Y-6769D01*
G01X25495Y-6769D02*
G01X25472Y-6814D01*
G01X25472Y-6814D02*
G01X25427Y-6882D01*
G01X25427Y-6882D02*
G01X25200Y-7110D01*
G01X25518Y-7110D02*
G01X25200Y-7110D01*
G01X25745Y-6632D02*
G01X25972Y-6632D01*
G01X25745Y-6632D02*
G01X25722Y-6837D01*
G01X25745Y-6814D02*
G01X25722Y-6837D01*
G01X25813Y-6791D02*
G01X25745Y-6814D01*
G01X25881Y-6791D02*
G01X25813Y-6791D01*
G01X25881Y-6791D02*
G01X25950Y-6814D01*
G01X25950Y-6814D02*
G01X25995Y-6860D01*
G01X25995Y-6860D02*
G01X26018Y-6928D01*
G01X26018Y-6928D02*
G01X26018Y-6973D01*
G01X26018Y-6973D02*
G01X25995Y-7041D01*
G01X25995Y-7041D02*
G01X25950Y-7087D01*
G01X25950Y-7087D02*
G01X25881Y-7110D01*
G01X25813Y-7110D02*
G01X25881Y-7110D01*
G01X25745Y-7087D02*
G01X25813Y-7110D01*
G01X25722Y-7064D02*
G01X25745Y-7087D01*
G01X25700Y-7019D02*
G01X25722Y-7064D01*
G04 Draw part R26*
G04 draw part outline for part R26*
G01X16490Y-18090D02*
G01X16490Y-20910D01*
G01X16490Y-20910D02*
G01X15510Y-20910D01*
G01X15510Y-20910D02*
G01X15510Y-18090D01*
G01X15510Y-18090D02*
G01X16490Y-18090D01*
G04 draw reference designator for part R26*
G01X17467Y-19500D02*
G01X16990Y-19500D01*
G01X17467Y-19704D02*
G01X17467Y-19500D01*
G01X17467Y-19704D02*
G01X17444Y-19772D01*
G01X17444Y-19772D02*
G01X17421Y-19795D01*
G01X17421Y-19795D02*
G01X17376Y-19818D01*
G01X17376Y-19818D02*
G01X17330Y-19818D01*
G01X17330Y-19818D02*
G01X17285Y-19795D01*
G01X17285Y-19795D02*
G01X17262Y-19772D01*
G01X17262Y-19772D02*
G01X17240Y-19704D01*
G01X17240Y-19500D02*
G01X17240Y-19704D01*
G01X17240Y-19659D02*
G01X16990Y-19818D01*
G01X17376Y-20022D02*
G01X17353Y-20022D01*
G01X17421Y-20045D02*
G01X17376Y-20022D01*
G01X17444Y-20068D02*
G01X17421Y-20045D01*
G01X17467Y-20113D02*
G01X17444Y-20068D01*
G01X17467Y-20204D02*
G01X17467Y-20113D01*
G01X17467Y-20204D02*
G01X17444Y-20250D01*
G01X17444Y-20250D02*
G01X17421Y-20272D01*
G01X17421Y-20272D02*
G01X17376Y-20295D01*
G01X17376Y-20295D02*
G01X17330Y-20295D01*
G01X17330Y-20295D02*
G01X17285Y-20272D01*
G01X17285Y-20272D02*
G01X17217Y-20227D01*
G01X17217Y-20227D02*
G01X16990Y-20000D01*
G01X16990Y-20318D02*
G01X16990Y-20000D01*
G01X17444Y-20750D02*
G01X17399Y-20772D01*
G01X17467Y-20681D02*
G01X17444Y-20750D01*
G01X17467Y-20636D02*
G01X17467Y-20681D01*
G01X17467Y-20636D02*
G01X17444Y-20568D01*
G01X17444Y-20568D02*
G01X17376Y-20522D01*
G01X17376Y-20522D02*
G01X17262Y-20500D01*
G01X17262Y-20500D02*
G01X17149Y-20500D01*
G01X17149Y-20500D02*
G01X17058Y-20522D01*
G01X17058Y-20522D02*
G01X17012Y-20568D01*
G01X17012Y-20568D02*
G01X16990Y-20636D01*
G01X16990Y-20659D02*
G01X16990Y-20636D01*
G01X17012Y-20727D02*
G01X16990Y-20659D01*
G01X17058Y-20772D02*
G01X17012Y-20727D01*
G01X17126Y-20795D02*
G01X17058Y-20772D01*
G01X17149Y-20795D02*
G01X17126Y-20795D01*
G01X17217Y-20772D02*
G01X17149Y-20795D01*
G01X17262Y-20727D02*
G01X17217Y-20772D01*
G01X17285Y-20659D02*
G01X17262Y-20727D01*
G01X17285Y-20636D02*
G01X17285Y-20659D01*
G01X17285Y-20636D02*
G01X17262Y-20568D01*
G01X17262Y-20568D02*
G01X17217Y-20522D01*
G01X17217Y-20522D02*
G01X17149Y-20500D01*
G04 Draw part R27*
G04 draw part outline for part R27*
G01X1490Y17910D02*
G01X1490Y15090D01*
G01X1490Y15090D02*
G01X510Y15090D01*
G01X510Y15090D02*
G01X510Y17910D01*
G01X510Y17910D02*
G01X1490Y17910D01*
G04 draw reference designator for part R27*
G01X2467Y16500D02*
G01X1990Y16500D01*
G01X2467Y16295D02*
G01X2467Y16500D01*
G01X2467Y16295D02*
G01X2444Y16227D01*
G01X2444Y16227D02*
G01X2421Y16204D01*
G01X2421Y16204D02*
G01X2376Y16181D01*
G01X2376Y16181D02*
G01X2330Y16181D01*
G01X2330Y16181D02*
G01X2285Y16204D01*
G01X2285Y16204D02*
G01X2262Y16227D01*
G01X2262Y16227D02*
G01X2240Y16295D01*
G01X2240Y16500D02*
G01X2240Y16295D01*
G01X2240Y16340D02*
G01X1990Y16181D01*
G01X2376Y15977D02*
G01X2353Y15977D01*
G01X2421Y15954D02*
G01X2376Y15977D01*
G01X2444Y15931D02*
G01X2421Y15954D01*
G01X2467Y15886D02*
G01X2444Y15931D01*
G01X2467Y15795D02*
G01X2467Y15886D01*
G01X2467Y15795D02*
G01X2444Y15750D01*
G01X2444Y15750D02*
G01X2421Y15727D01*
G01X2421Y15727D02*
G01X2376Y15704D01*
G01X2376Y15704D02*
G01X2330Y15704D01*
G01X2330Y15704D02*
G01X2285Y15727D01*
G01X2285Y15727D02*
G01X2217Y15772D01*
G01X2217Y15772D02*
G01X1990Y16000D01*
G01X1990Y15681D02*
G01X1990Y16000D01*
G01X2467Y15181D02*
G01X1990Y15409D01*
G01X2467Y15181D02*
G01X2467Y15500D01*
G04 Draw part R28*
G04 draw part outline for part R28*
G01X23190Y-5110D02*
G01X26010Y-5110D01*
G01X26010Y-5110D02*
G01X26010Y-6090D01*
G01X26010Y-6090D02*
G01X23190Y-6090D01*
G01X23190Y-6090D02*
G01X23190Y-5110D01*
G04 draw reference designator for part R28*
G01X24600Y-4132D02*
G01X24600Y-4610D01*
G01X24804Y-4132D02*
G01X24600Y-4132D01*
G01X24804Y-4132D02*
G01X24872Y-4155D01*
G01X24872Y-4155D02*
G01X24895Y-4178D01*
G01X24895Y-4178D02*
G01X24918Y-4223D01*
G01X24918Y-4223D02*
G01X24918Y-4269D01*
G01X24918Y-4269D02*
G01X24895Y-4314D01*
G01X24895Y-4314D02*
G01X24872Y-4337D01*
G01X24872Y-4337D02*
G01X24804Y-4360D01*
G01X24600Y-4360D02*
G01X24804Y-4360D01*
G01X24759Y-4360D02*
G01X24918Y-4610D01*
G01X25122Y-4223D02*
G01X25122Y-4246D01*
G01X25145Y-4178D02*
G01X25122Y-4223D01*
G01X25168Y-4155D02*
G01X25145Y-4178D01*
G01X25213Y-4132D02*
G01X25168Y-4155D01*
G01X25304Y-4132D02*
G01X25213Y-4132D01*
G01X25304Y-4132D02*
G01X25350Y-4155D01*
G01X25350Y-4155D02*
G01X25372Y-4178D01*
G01X25372Y-4178D02*
G01X25395Y-4223D01*
G01X25395Y-4223D02*
G01X25395Y-4269D01*
G01X25395Y-4269D02*
G01X25372Y-4314D01*
G01X25372Y-4314D02*
G01X25327Y-4382D01*
G01X25327Y-4382D02*
G01X25100Y-4610D01*
G01X25418Y-4610D02*
G01X25100Y-4610D01*
G01X25713Y-4132D02*
G01X25645Y-4155D01*
G01X25645Y-4155D02*
G01X25622Y-4200D01*
G01X25622Y-4200D02*
G01X25622Y-4246D01*
G01X25622Y-4246D02*
G01X25645Y-4291D01*
G01X25645Y-4291D02*
G01X25690Y-4314D01*
G01X25690Y-4314D02*
G01X25781Y-4337D01*
G01X25781Y-4337D02*
G01X25850Y-4360D01*
G01X25850Y-4360D02*
G01X25895Y-4405D01*
G01X25895Y-4405D02*
G01X25918Y-4450D01*
G01X25918Y-4450D02*
G01X25918Y-4519D01*
G01X25918Y-4519D02*
G01X25895Y-4564D01*
G01X25895Y-4564D02*
G01X25872Y-4587D01*
G01X25872Y-4587D02*
G01X25804Y-4610D01*
G01X25713Y-4610D02*
G01X25804Y-4610D01*
G01X25645Y-4587D02*
G01X25713Y-4610D01*
G01X25622Y-4564D02*
G01X25645Y-4587D01*
G01X25600Y-4519D02*
G01X25622Y-4564D01*
G01X25600Y-4450D02*
G01X25600Y-4519D01*
G01X25622Y-4405D02*
G01X25600Y-4450D01*
G01X25668Y-4360D02*
G01X25622Y-4405D01*
G01X25736Y-4337D02*
G01X25668Y-4360D01*
G01X25827Y-4314D02*
G01X25736Y-4337D01*
G01X25872Y-4291D02*
G01X25827Y-4314D01*
G01X25895Y-4246D02*
G01X25872Y-4291D01*
G01X25895Y-4200D02*
G01X25895Y-4246D01*
G01X25872Y-4155D02*
G01X25895Y-4200D01*
G01X25804Y-4132D02*
G01X25872Y-4155D01*
G01X25713Y-4132D02*
G01X25804Y-4132D01*
G04 Draw part R29*
G04 draw part outline for part R29*
G01X19490Y11910D02*
G01X19490Y9090D01*
G01X19490Y9090D02*
G01X18510Y9090D01*
G01X18510Y9090D02*
G01X18510Y11910D01*
G01X18510Y11910D02*
G01X19490Y11910D01*
G04 draw reference designator for part R29*
G01X20467Y10500D02*
G01X19990Y10500D01*
G01X20467Y10295D02*
G01X20467Y10500D01*
G01X20467Y10295D02*
G01X20444Y10227D01*
G01X20444Y10227D02*
G01X20421Y10204D01*
G01X20421Y10204D02*
G01X20376Y10181D01*
G01X20376Y10181D02*
G01X20330Y10181D01*
G01X20330Y10181D02*
G01X20285Y10204D01*
G01X20285Y10204D02*
G01X20262Y10227D01*
G01X20262Y10227D02*
G01X20240Y10295D01*
G01X20240Y10500D02*
G01X20240Y10295D01*
G01X20240Y10340D02*
G01X19990Y10181D01*
G01X20376Y9977D02*
G01X20353Y9977D01*
G01X20421Y9954D02*
G01X20376Y9977D01*
G01X20444Y9931D02*
G01X20421Y9954D01*
G01X20467Y9886D02*
G01X20444Y9931D01*
G01X20467Y9795D02*
G01X20467Y9886D01*
G01X20467Y9795D02*
G01X20444Y9750D01*
G01X20444Y9750D02*
G01X20421Y9727D01*
G01X20421Y9727D02*
G01X20376Y9704D01*
G01X20376Y9704D02*
G01X20330Y9704D01*
G01X20330Y9704D02*
G01X20285Y9727D01*
G01X20285Y9727D02*
G01X20217Y9772D01*
G01X20217Y9772D02*
G01X19990Y10000D01*
G01X19990Y9681D02*
G01X19990Y10000D01*
G01X20308Y9204D02*
G01X20240Y9227D01*
G01X20240Y9227D02*
G01X20194Y9272D01*
G01X20194Y9272D02*
G01X20171Y9340D01*
G01X20171Y9363D02*
G01X20171Y9340D01*
G01X20194Y9431D02*
G01X20171Y9363D01*
G01X20240Y9477D02*
G01X20194Y9431D01*
G01X20308Y9500D02*
G01X20240Y9477D01*
G01X20330Y9500D02*
G01X20308Y9500D01*
G01X20399Y9477D02*
G01X20330Y9500D01*
G01X20444Y9431D02*
G01X20399Y9477D01*
G01X20467Y9363D02*
G01X20444Y9431D01*
G01X20467Y9340D02*
G01X20467Y9363D01*
G01X20467Y9340D02*
G01X20444Y9272D01*
G01X20444Y9272D02*
G01X20399Y9227D01*
G01X20399Y9227D02*
G01X20308Y9204D01*
G01X20308Y9204D02*
G01X20194Y9204D01*
G01X20194Y9204D02*
G01X20080Y9227D01*
G01X20080Y9227D02*
G01X20012Y9272D01*
G01X20012Y9272D02*
G01X19990Y9340D01*
G01X19990Y9386D02*
G01X19990Y9340D01*
G01X20012Y9454D02*
G01X19990Y9386D01*
G01X20058Y9477D02*
G01X20012Y9454D01*
G04 Draw part R30*
G04 draw part outline for part R30*
G01X24090Y20490D02*
G01X26910Y20490D01*
G01X26910Y20490D02*
G01X26910Y19510D01*
G01X26910Y19510D02*
G01X24090Y19510D01*
G01X24090Y19510D02*
G01X24090Y20490D01*
G04 draw reference designator for part R30*
G01X25500Y21467D02*
G01X25500Y20990D01*
G01X25704Y21467D02*
G01X25500Y21467D01*
G01X25704Y21467D02*
G01X25772Y21444D01*
G01X25772Y21444D02*
G01X25795Y21421D01*
G01X25795Y21421D02*
G01X25818Y21376D01*
G01X25818Y21376D02*
G01X25818Y21330D01*
G01X25818Y21330D02*
G01X25795Y21285D01*
G01X25795Y21285D02*
G01X25772Y21262D01*
G01X25772Y21262D02*
G01X25704Y21240D01*
G01X25500Y21240D02*
G01X25704Y21240D01*
G01X25659Y21240D02*
G01X25818Y20990D01*
G01X26295Y21467D02*
G01X26045Y21467D01*
G01X26295Y21467D02*
G01X26159Y21285D01*
G01X26227Y21285D02*
G01X26159Y21285D01*
G01X26227Y21285D02*
G01X26272Y21262D01*
G01X26272Y21262D02*
G01X26295Y21240D01*
G01X26295Y21240D02*
G01X26318Y21171D01*
G01X26318Y21171D02*
G01X26318Y21126D01*
G01X26318Y21126D02*
G01X26295Y21058D01*
G01X26295Y21058D02*
G01X26250Y21012D01*
G01X26250Y21012D02*
G01X26181Y20990D01*
G01X26113Y20990D02*
G01X26181Y20990D01*
G01X26045Y21012D02*
G01X26113Y20990D01*
G01X26022Y21035D02*
G01X26045Y21012D01*
G01X26000Y21080D02*
G01X26022Y21035D01*
G01X26636Y21467D02*
G01X26568Y21444D01*
G01X26568Y21444D02*
G01X26522Y21376D01*
G01X26522Y21376D02*
G01X26500Y21262D01*
G01X26500Y21262D02*
G01X26500Y21194D01*
G01X26500Y21194D02*
G01X26522Y21080D01*
G01X26522Y21080D02*
G01X26568Y21012D01*
G01X26568Y21012D02*
G01X26636Y20990D01*
G01X26681Y20990D02*
G01X26636Y20990D01*
G01X26750Y21012D02*
G01X26681Y20990D01*
G01X26795Y21080D02*
G01X26750Y21012D01*
G01X26818Y21194D02*
G01X26795Y21080D01*
G01X26818Y21262D02*
G01X26818Y21194D01*
G01X26795Y21376D02*
G01X26818Y21262D01*
G01X26750Y21444D02*
G01X26795Y21376D01*
G01X26681Y21467D02*
G01X26750Y21444D01*
G01X26636Y21467D02*
G01X26681Y21467D01*
G04 Draw part R31*
G04 draw part outline for part R31*
G01X-1910Y26490D02*
G01X910Y26490D01*
G01X910Y26490D02*
G01X910Y25510D01*
G01X910Y25510D02*
G01X-1910Y25510D01*
G01X-1910Y25510D02*
G01X-1910Y26490D01*
G04 draw reference designator for part R31*
G01X-500Y27467D02*
G01X-500Y26990D01*
G01X-295Y27467D02*
G01X-500Y27467D01*
G01X-295Y27467D02*
G01X-227Y27444D01*
G01X-227Y27444D02*
G01X-204Y27421D01*
G01X-204Y27421D02*
G01X-181Y27376D01*
G01X-181Y27376D02*
G01X-181Y27330D01*
G01X-181Y27330D02*
G01X-204Y27285D01*
G01X-204Y27285D02*
G01X-227Y27262D01*
G01X-227Y27262D02*
G01X-295Y27240D01*
G01X-500Y27240D02*
G01X-295Y27240D01*
G01X-340Y27240D02*
G01X-181Y26990D01*
G01X295Y27467D02*
G01X45Y27467D01*
G01X295Y27467D02*
G01X159Y27285D01*
G01X227Y27285D02*
G01X159Y27285D01*
G01X227Y27285D02*
G01X272Y27262D01*
G01X272Y27262D02*
G01X295Y27240D01*
G01X295Y27240D02*
G01X318Y27171D01*
G01X318Y27171D02*
G01X318Y27126D01*
G01X318Y27126D02*
G01X295Y27058D01*
G01X295Y27058D02*
G01X250Y27012D01*
G01X250Y27012D02*
G01X181Y26990D01*
G01X113Y26990D02*
G01X181Y26990D01*
G01X45Y27012D02*
G01X113Y26990D01*
G01X22Y27035D02*
G01X45Y27012D01*
G01X0Y27080D02*
G01X22Y27035D01*
G01X545Y27399D02*
G01X500Y27376D01*
G01X613Y27467D02*
G01X545Y27399D01*
G01X613Y27467D02*
G01X613Y26990D01*
G04 Draw part R32*
G04 draw part outline for part R32*
G01X16490Y5910D02*
G01X16490Y3090D01*
G01X16490Y3090D02*
G01X15510Y3090D01*
G01X15510Y3090D02*
G01X15510Y5910D01*
G01X15510Y5910D02*
G01X16490Y5910D01*
G04 draw reference designator for part R32*
G01X17467Y4500D02*
G01X16990Y4500D01*
G01X17467Y4295D02*
G01X17467Y4500D01*
G01X17467Y4295D02*
G01X17444Y4227D01*
G01X17444Y4227D02*
G01X17421Y4204D01*
G01X17421Y4204D02*
G01X17376Y4181D01*
G01X17376Y4181D02*
G01X17330Y4181D01*
G01X17330Y4181D02*
G01X17285Y4204D01*
G01X17285Y4204D02*
G01X17262Y4227D01*
G01X17262Y4227D02*
G01X17240Y4295D01*
G01X17240Y4500D02*
G01X17240Y4295D01*
G01X17240Y4340D02*
G01X16990Y4181D01*
G01X17467Y3704D02*
G01X17467Y3954D01*
G01X17467Y3704D02*
G01X17285Y3840D01*
G01X17285Y3772D02*
G01X17285Y3840D01*
G01X17285Y3772D02*
G01X17262Y3727D01*
G01X17262Y3727D02*
G01X17240Y3704D01*
G01X17240Y3704D02*
G01X17171Y3681D01*
G01X17171Y3681D02*
G01X17126Y3681D01*
G01X17126Y3681D02*
G01X17058Y3704D01*
G01X17058Y3704D02*
G01X17012Y3750D01*
G01X17012Y3750D02*
G01X16990Y3818D01*
G01X16990Y3886D02*
G01X16990Y3818D01*
G01X17012Y3954D02*
G01X16990Y3886D01*
G01X17035Y3977D02*
G01X17012Y3954D01*
G01X17080Y4000D02*
G01X17035Y3977D01*
G01X17376Y3477D02*
G01X17353Y3477D01*
G01X17421Y3454D02*
G01X17376Y3477D01*
G01X17444Y3431D02*
G01X17421Y3454D01*
G01X17467Y3386D02*
G01X17444Y3431D01*
G01X17467Y3295D02*
G01X17467Y3386D01*
G01X17467Y3295D02*
G01X17444Y3250D01*
G01X17444Y3250D02*
G01X17421Y3227D01*
G01X17421Y3227D02*
G01X17376Y3204D01*
G01X17376Y3204D02*
G01X17330Y3204D01*
G01X17330Y3204D02*
G01X17285Y3227D01*
G01X17285Y3227D02*
G01X17217Y3272D01*
G01X17217Y3272D02*
G01X16990Y3500D01*
G01X16990Y3181D02*
G01X16990Y3500D01*
G04 Draw part R33*
G04 draw part outline for part R33*
G01X-10910Y-6510D02*
G01X-8090Y-6510D01*
G01X-8090Y-6510D02*
G01X-8090Y-7490D01*
G01X-8090Y-7490D02*
G01X-10910Y-7490D01*
G01X-10910Y-7490D02*
G01X-10910Y-6510D01*
G04 draw reference designator for part R33*
G01X-9500Y-5532D02*
G01X-9500Y-6010D01*
G01X-9295Y-5532D02*
G01X-9500Y-5532D01*
G01X-9295Y-5532D02*
G01X-9227Y-5555D01*
G01X-9227Y-5555D02*
G01X-9204Y-5578D01*
G01X-9204Y-5578D02*
G01X-9181Y-5623D01*
G01X-9181Y-5623D02*
G01X-9181Y-5669D01*
G01X-9181Y-5669D02*
G01X-9204Y-5714D01*
G01X-9204Y-5714D02*
G01X-9227Y-5737D01*
G01X-9227Y-5737D02*
G01X-9295Y-5760D01*
G01X-9500Y-5760D02*
G01X-9295Y-5760D01*
G01X-9340Y-5760D02*
G01X-9181Y-6010D01*
G01X-8704Y-5532D02*
G01X-8954Y-5532D01*
G01X-8704Y-5532D02*
G01X-8840Y-5714D01*
G01X-8772Y-5714D02*
G01X-8840Y-5714D01*
G01X-8772Y-5714D02*
G01X-8727Y-5737D01*
G01X-8727Y-5737D02*
G01X-8704Y-5760D01*
G01X-8704Y-5760D02*
G01X-8681Y-5828D01*
G01X-8681Y-5828D02*
G01X-8681Y-5873D01*
G01X-8681Y-5873D02*
G01X-8704Y-5941D01*
G01X-8704Y-5941D02*
G01X-8750Y-5987D01*
G01X-8750Y-5987D02*
G01X-8818Y-6010D01*
G01X-8886Y-6010D02*
G01X-8818Y-6010D01*
G01X-8954Y-5987D02*
G01X-8886Y-6010D01*
G01X-8977Y-5964D02*
G01X-8954Y-5987D01*
G01X-9000Y-5919D02*
G01X-8977Y-5964D01*
G01X-8204Y-5532D02*
G01X-8454Y-5532D01*
G01X-8204Y-5532D02*
G01X-8340Y-5714D01*
G01X-8272Y-5714D02*
G01X-8340Y-5714D01*
G01X-8272Y-5714D02*
G01X-8227Y-5737D01*
G01X-8227Y-5737D02*
G01X-8204Y-5760D01*
G01X-8204Y-5760D02*
G01X-8181Y-5828D01*
G01X-8181Y-5828D02*
G01X-8181Y-5873D01*
G01X-8181Y-5873D02*
G01X-8204Y-5941D01*
G01X-8204Y-5941D02*
G01X-8250Y-5987D01*
G01X-8250Y-5987D02*
G01X-8318Y-6010D01*
G01X-8386Y-6010D02*
G01X-8318Y-6010D01*
G01X-8454Y-5987D02*
G01X-8386Y-6010D01*
G01X-8477Y-5964D02*
G01X-8454Y-5987D01*
G01X-8500Y-5919D02*
G01X-8477Y-5964D01*
G04 Draw part R34*
G04 draw part outline for part R34*
G01X23090Y6490D02*
G01X25910Y6490D01*
G01X25910Y6490D02*
G01X25910Y5510D01*
G01X25910Y5510D02*
G01X23090Y5510D01*
G01X23090Y5510D02*
G01X23090Y6490D01*
G04 draw reference designator for part R34*
G01X24500Y7467D02*
G01X24500Y6990D01*
G01X24704Y7467D02*
G01X24500Y7467D01*
G01X24704Y7467D02*
G01X24772Y7444D01*
G01X24772Y7444D02*
G01X24795Y7421D01*
G01X24795Y7421D02*
G01X24818Y7376D01*
G01X24818Y7376D02*
G01X24818Y7330D01*
G01X24818Y7330D02*
G01X24795Y7285D01*
G01X24795Y7285D02*
G01X24772Y7262D01*
G01X24772Y7262D02*
G01X24704Y7240D01*
G01X24500Y7240D02*
G01X24704Y7240D01*
G01X24659Y7240D02*
G01X24818Y6990D01*
G01X25295Y7467D02*
G01X25045Y7467D01*
G01X25295Y7467D02*
G01X25159Y7285D01*
G01X25227Y7285D02*
G01X25159Y7285D01*
G01X25227Y7285D02*
G01X25272Y7262D01*
G01X25272Y7262D02*
G01X25295Y7240D01*
G01X25295Y7240D02*
G01X25318Y7171D01*
G01X25318Y7171D02*
G01X25318Y7126D01*
G01X25318Y7126D02*
G01X25295Y7058D01*
G01X25295Y7058D02*
G01X25250Y7012D01*
G01X25250Y7012D02*
G01X25181Y6990D01*
G01X25113Y6990D02*
G01X25181Y6990D01*
G01X25045Y7012D02*
G01X25113Y6990D01*
G01X25022Y7035D02*
G01X25045Y7012D01*
G01X25000Y7080D02*
G01X25022Y7035D01*
G01X25727Y7467D02*
G01X25500Y7149D01*
G01X25840Y7149D02*
G01X25500Y7149D01*
G01X25727Y7467D02*
G01X25727Y6990D01*
G04 Draw part R35*
G04 draw part outline for part R35*
G01X-1910Y-17510D02*
G01X910Y-17510D01*
G01X910Y-17510D02*
G01X910Y-18490D01*
G01X910Y-18490D02*
G01X-1910Y-18490D01*
G01X-1910Y-18490D02*
G01X-1910Y-17510D01*
G04 draw reference designator for part R35*
G01X-500Y-16532D02*
G01X-500Y-17010D01*
G01X-295Y-16532D02*
G01X-500Y-16532D01*
G01X-295Y-16532D02*
G01X-227Y-16555D01*
G01X-227Y-16555D02*
G01X-204Y-16578D01*
G01X-204Y-16578D02*
G01X-181Y-16623D01*
G01X-181Y-16623D02*
G01X-181Y-16669D01*
G01X-181Y-16669D02*
G01X-204Y-16714D01*
G01X-204Y-16714D02*
G01X-227Y-16737D01*
G01X-227Y-16737D02*
G01X-295Y-16760D01*
G01X-500Y-16760D02*
G01X-295Y-16760D01*
G01X-340Y-16760D02*
G01X-181Y-17010D01*
G01X295Y-16532D02*
G01X45Y-16532D01*
G01X295Y-16532D02*
G01X159Y-16714D01*
G01X227Y-16714D02*
G01X159Y-16714D01*
G01X227Y-16714D02*
G01X272Y-16737D01*
G01X272Y-16737D02*
G01X295Y-16760D01*
G01X295Y-16760D02*
G01X318Y-16828D01*
G01X318Y-16828D02*
G01X318Y-16873D01*
G01X318Y-16873D02*
G01X295Y-16941D01*
G01X295Y-16941D02*
G01X250Y-16987D01*
G01X250Y-16987D02*
G01X181Y-17010D01*
G01X113Y-17010D02*
G01X181Y-17010D01*
G01X45Y-16987D02*
G01X113Y-17010D01*
G01X22Y-16964D02*
G01X45Y-16987D01*
G01X0Y-16919D02*
G01X22Y-16964D01*
G01X545Y-16532D02*
G01X772Y-16532D01*
G01X545Y-16532D02*
G01X522Y-16737D01*
G01X545Y-16714D02*
G01X522Y-16737D01*
G01X613Y-16691D02*
G01X545Y-16714D01*
G01X681Y-16691D02*
G01X613Y-16691D01*
G01X681Y-16691D02*
G01X750Y-16714D01*
G01X750Y-16714D02*
G01X795Y-16760D01*
G01X795Y-16760D02*
G01X818Y-16828D01*
G01X818Y-16828D02*
G01X818Y-16873D01*
G01X818Y-16873D02*
G01X795Y-16941D01*
G01X795Y-16941D02*
G01X750Y-16987D01*
G01X750Y-16987D02*
G01X681Y-17010D01*
G01X613Y-17010D02*
G01X681Y-17010D01*
G01X545Y-16987D02*
G01X613Y-17010D01*
G01X522Y-16964D02*
G01X545Y-16987D01*
G01X500Y-16919D02*
G01X522Y-16964D01*
G04 Draw part R36*
G04 draw part outline for part R36*
G01X-1910Y-14510D02*
G01X910Y-14510D01*
G01X910Y-14510D02*
G01X910Y-15490D01*
G01X910Y-15490D02*
G01X-1910Y-15490D01*
G01X-1910Y-15490D02*
G01X-1910Y-14510D01*
G04 draw reference designator for part R36*
G01X-500Y-13532D02*
G01X-500Y-14010D01*
G01X-295Y-13532D02*
G01X-500Y-13532D01*
G01X-295Y-13532D02*
G01X-227Y-13555D01*
G01X-227Y-13555D02*
G01X-204Y-13578D01*
G01X-204Y-13578D02*
G01X-181Y-13623D01*
G01X-181Y-13623D02*
G01X-181Y-13669D01*
G01X-181Y-13669D02*
G01X-204Y-13714D01*
G01X-204Y-13714D02*
G01X-227Y-13737D01*
G01X-227Y-13737D02*
G01X-295Y-13760D01*
G01X-500Y-13760D02*
G01X-295Y-13760D01*
G01X-340Y-13760D02*
G01X-181Y-14010D01*
G01X295Y-13532D02*
G01X45Y-13532D01*
G01X295Y-13532D02*
G01X159Y-13714D01*
G01X227Y-13714D02*
G01X159Y-13714D01*
G01X227Y-13714D02*
G01X272Y-13737D01*
G01X272Y-13737D02*
G01X295Y-13760D01*
G01X295Y-13760D02*
G01X318Y-13828D01*
G01X318Y-13828D02*
G01X318Y-13873D01*
G01X318Y-13873D02*
G01X295Y-13941D01*
G01X295Y-13941D02*
G01X250Y-13987D01*
G01X250Y-13987D02*
G01X181Y-14010D01*
G01X113Y-14010D02*
G01X181Y-14010D01*
G01X45Y-13987D02*
G01X113Y-14010D01*
G01X22Y-13964D02*
G01X45Y-13987D01*
G01X0Y-13919D02*
G01X22Y-13964D01*
G01X750Y-13555D02*
G01X772Y-13600D01*
G01X681Y-13532D02*
G01X750Y-13555D01*
G01X636Y-13532D02*
G01X681Y-13532D01*
G01X636Y-13532D02*
G01X568Y-13555D01*
G01X568Y-13555D02*
G01X522Y-13623D01*
G01X522Y-13623D02*
G01X500Y-13737D01*
G01X500Y-13737D02*
G01X500Y-13850D01*
G01X500Y-13850D02*
G01X522Y-13941D01*
G01X522Y-13941D02*
G01X568Y-13987D01*
G01X568Y-13987D02*
G01X636Y-14010D01*
G01X659Y-14010D02*
G01X636Y-14010D01*
G01X727Y-13987D02*
G01X659Y-14010D01*
G01X772Y-13941D02*
G01X727Y-13987D01*
G01X795Y-13873D02*
G01X772Y-13941D01*
G01X795Y-13850D02*
G01X795Y-13873D01*
G01X772Y-13782D02*
G01X795Y-13850D01*
G01X727Y-13737D02*
G01X772Y-13782D01*
G01X659Y-13714D02*
G01X727Y-13737D01*
G01X636Y-13714D02*
G01X659Y-13714D01*
G01X636Y-13714D02*
G01X568Y-13737D01*
G01X568Y-13737D02*
G01X522Y-13782D01*
G01X522Y-13782D02*
G01X500Y-13850D01*
G04 Draw part R37*
G04 draw part outline for part R37*
G01X-11910Y6790D02*
G01X-9090Y6790D01*
G01X-9090Y6790D02*
G01X-9090Y5810D01*
G01X-9090Y5810D02*
G01X-11910Y5810D01*
G01X-11910Y5810D02*
G01X-11910Y6790D01*
G04 draw reference designator for part R37*
G01X-10500Y7767D02*
G01X-10500Y7290D01*
G01X-10295Y7767D02*
G01X-10500Y7767D01*
G01X-10295Y7767D02*
G01X-10227Y7744D01*
G01X-10227Y7744D02*
G01X-10204Y7721D01*
G01X-10204Y7721D02*
G01X-10181Y7676D01*
G01X-10181Y7676D02*
G01X-10181Y7630D01*
G01X-10181Y7630D02*
G01X-10204Y7585D01*
G01X-10204Y7585D02*
G01X-10227Y7562D01*
G01X-10227Y7562D02*
G01X-10295Y7540D01*
G01X-10500Y7540D02*
G01X-10295Y7540D01*
G01X-10340Y7540D02*
G01X-10181Y7290D01*
G01X-9704Y7767D02*
G01X-9954Y7767D01*
G01X-9704Y7767D02*
G01X-9840Y7585D01*
G01X-9772Y7585D02*
G01X-9840Y7585D01*
G01X-9772Y7585D02*
G01X-9727Y7562D01*
G01X-9727Y7562D02*
G01X-9704Y7540D01*
G01X-9704Y7540D02*
G01X-9681Y7471D01*
G01X-9681Y7471D02*
G01X-9681Y7426D01*
G01X-9681Y7426D02*
G01X-9704Y7358D01*
G01X-9704Y7358D02*
G01X-9750Y7312D01*
G01X-9750Y7312D02*
G01X-9818Y7290D01*
G01X-9886Y7290D02*
G01X-9818Y7290D01*
G01X-9954Y7312D02*
G01X-9886Y7290D01*
G01X-9977Y7335D02*
G01X-9954Y7312D01*
G01X-10000Y7380D02*
G01X-9977Y7335D01*
G01X-9181Y7767D02*
G01X-9409Y7290D01*
G01X-9181Y7767D02*
G01X-9500Y7767D01*
G04 Draw part R38*
G04 draw part outline for part R38*
G01X-10910Y-4510D02*
G01X-8090Y-4510D01*
G01X-8090Y-4510D02*
G01X-8090Y-5490D01*
G01X-8090Y-5490D02*
G01X-10910Y-5490D01*
G01X-10910Y-5490D02*
G01X-10910Y-4510D01*
G04 draw reference designator for part R38*
G01X-9500Y-3532D02*
G01X-9500Y-4010D01*
G01X-9295Y-3532D02*
G01X-9500Y-3532D01*
G01X-9295Y-3532D02*
G01X-9227Y-3555D01*
G01X-9227Y-3555D02*
G01X-9204Y-3578D01*
G01X-9204Y-3578D02*
G01X-9181Y-3623D01*
G01X-9181Y-3623D02*
G01X-9181Y-3669D01*
G01X-9181Y-3669D02*
G01X-9204Y-3714D01*
G01X-9204Y-3714D02*
G01X-9227Y-3737D01*
G01X-9227Y-3737D02*
G01X-9295Y-3760D01*
G01X-9500Y-3760D02*
G01X-9295Y-3760D01*
G01X-9340Y-3760D02*
G01X-9181Y-4010D01*
G01X-8704Y-3532D02*
G01X-8954Y-3532D01*
G01X-8704Y-3532D02*
G01X-8840Y-3714D01*
G01X-8772Y-3714D02*
G01X-8840Y-3714D01*
G01X-8772Y-3714D02*
G01X-8727Y-3737D01*
G01X-8727Y-3737D02*
G01X-8704Y-3760D01*
G01X-8704Y-3760D02*
G01X-8681Y-3828D01*
G01X-8681Y-3828D02*
G01X-8681Y-3873D01*
G01X-8681Y-3873D02*
G01X-8704Y-3941D01*
G01X-8704Y-3941D02*
G01X-8750Y-3987D01*
G01X-8750Y-3987D02*
G01X-8818Y-4010D01*
G01X-8886Y-4010D02*
G01X-8818Y-4010D01*
G01X-8954Y-3987D02*
G01X-8886Y-4010D01*
G01X-8977Y-3964D02*
G01X-8954Y-3987D01*
G01X-9000Y-3919D02*
G01X-8977Y-3964D01*
G01X-8386Y-3532D02*
G01X-8454Y-3555D01*
G01X-8454Y-3555D02*
G01X-8477Y-3600D01*
G01X-8477Y-3600D02*
G01X-8477Y-3646D01*
G01X-8477Y-3646D02*
G01X-8454Y-3691D01*
G01X-8454Y-3691D02*
G01X-8409Y-3714D01*
G01X-8409Y-3714D02*
G01X-8318Y-3737D01*
G01X-8318Y-3737D02*
G01X-8250Y-3760D01*
G01X-8250Y-3760D02*
G01X-8204Y-3805D01*
G01X-8204Y-3805D02*
G01X-8181Y-3850D01*
G01X-8181Y-3850D02*
G01X-8181Y-3919D01*
G01X-8181Y-3919D02*
G01X-8204Y-3964D01*
G01X-8204Y-3964D02*
G01X-8227Y-3987D01*
G01X-8227Y-3987D02*
G01X-8295Y-4010D01*
G01X-8386Y-4010D02*
G01X-8295Y-4010D01*
G01X-8454Y-3987D02*
G01X-8386Y-4010D01*
G01X-8477Y-3964D02*
G01X-8454Y-3987D01*
G01X-8500Y-3919D02*
G01X-8477Y-3964D01*
G01X-8500Y-3850D02*
G01X-8500Y-3919D01*
G01X-8477Y-3805D02*
G01X-8500Y-3850D01*
G01X-8431Y-3760D02*
G01X-8477Y-3805D01*
G01X-8363Y-3737D02*
G01X-8431Y-3760D01*
G01X-8272Y-3714D02*
G01X-8363Y-3737D01*
G01X-8227Y-3691D02*
G01X-8272Y-3714D01*
G01X-8204Y-3646D02*
G01X-8227Y-3691D01*
G01X-8204Y-3600D02*
G01X-8204Y-3646D01*
G01X-8227Y-3555D02*
G01X-8204Y-3600D01*
G01X-8295Y-3532D02*
G01X-8227Y-3555D01*
G01X-8386Y-3532D02*
G01X-8295Y-3532D01*
G04 Draw part R39*
G04 draw part outline for part R39*
G01X-11910Y9090D02*
G01X-9090Y9090D01*
G01X-9090Y9090D02*
G01X-9090Y8110D01*
G01X-9090Y8110D02*
G01X-11910Y8110D01*
G01X-11910Y8110D02*
G01X-11910Y9090D01*
G04 draw reference designator for part R39*
G01X-10500Y10067D02*
G01X-10500Y9590D01*
G01X-10295Y10067D02*
G01X-10500Y10067D01*
G01X-10295Y10067D02*
G01X-10227Y10044D01*
G01X-10227Y10044D02*
G01X-10204Y10021D01*
G01X-10204Y10021D02*
G01X-10181Y9976D01*
G01X-10181Y9976D02*
G01X-10181Y9930D01*
G01X-10181Y9930D02*
G01X-10204Y9885D01*
G01X-10204Y9885D02*
G01X-10227Y9862D01*
G01X-10227Y9862D02*
G01X-10295Y9840D01*
G01X-10500Y9840D02*
G01X-10295Y9840D01*
G01X-10340Y9840D02*
G01X-10181Y9590D01*
G01X-9704Y10067D02*
G01X-9954Y10067D01*
G01X-9704Y10067D02*
G01X-9840Y9885D01*
G01X-9772Y9885D02*
G01X-9840Y9885D01*
G01X-9772Y9885D02*
G01X-9727Y9862D01*
G01X-9727Y9862D02*
G01X-9704Y9840D01*
G01X-9704Y9840D02*
G01X-9681Y9771D01*
G01X-9681Y9771D02*
G01X-9681Y9726D01*
G01X-9681Y9726D02*
G01X-9704Y9658D01*
G01X-9704Y9658D02*
G01X-9750Y9612D01*
G01X-9750Y9612D02*
G01X-9818Y9590D01*
G01X-9886Y9590D02*
G01X-9818Y9590D01*
G01X-9954Y9612D02*
G01X-9886Y9590D01*
G01X-9977Y9635D02*
G01X-9954Y9612D01*
G01X-10000Y9680D02*
G01X-9977Y9635D01*
G01X-9204Y9908D02*
G01X-9227Y9840D01*
G01X-9227Y9840D02*
G01X-9272Y9794D01*
G01X-9272Y9794D02*
G01X-9340Y9771D01*
G01X-9363Y9771D02*
G01X-9340Y9771D01*
G01X-9431Y9794D02*
G01X-9363Y9771D01*
G01X-9477Y9840D02*
G01X-9431Y9794D01*
G01X-9500Y9908D02*
G01X-9477Y9840D01*
G01X-9500Y9930D02*
G01X-9500Y9908D01*
G01X-9477Y9999D02*
G01X-9500Y9930D01*
G01X-9431Y10044D02*
G01X-9477Y9999D01*
G01X-9363Y10067D02*
G01X-9431Y10044D01*
G01X-9340Y10067D02*
G01X-9363Y10067D01*
G01X-9340Y10067D02*
G01X-9272Y10044D01*
G01X-9272Y10044D02*
G01X-9227Y9999D01*
G01X-9227Y9999D02*
G01X-9204Y9908D01*
G01X-9204Y9908D02*
G01X-9204Y9794D01*
G01X-9204Y9794D02*
G01X-9227Y9680D01*
G01X-9227Y9680D02*
G01X-9272Y9612D01*
G01X-9272Y9612D02*
G01X-9340Y9590D01*
G01X-9386Y9590D02*
G01X-9340Y9590D01*
G01X-9454Y9612D02*
G01X-9386Y9590D01*
G01X-9477Y9658D02*
G01X-9454Y9612D01*
G04 Draw part R40*
G04 draw part outline for part R40*
G01X-1510Y10910D02*
G01X-1510Y8090D01*
G01X-1510Y8090D02*
G01X-2490Y8090D01*
G01X-2490Y8090D02*
G01X-2490Y10910D01*
G01X-2490Y10910D02*
G01X-1510Y10910D01*
G04 draw reference designator for part R40*
G01X-532Y9500D02*
G01X-1010Y9500D01*
G01X-532Y9295D02*
G01X-532Y9500D01*
G01X-532Y9295D02*
G01X-555Y9227D01*
G01X-555Y9227D02*
G01X-578Y9204D01*
G01X-578Y9204D02*
G01X-623Y9181D01*
G01X-623Y9181D02*
G01X-669Y9181D01*
G01X-669Y9181D02*
G01X-714Y9204D01*
G01X-714Y9204D02*
G01X-737Y9227D01*
G01X-737Y9227D02*
G01X-760Y9295D01*
G01X-760Y9500D02*
G01X-760Y9295D01*
G01X-760Y9340D02*
G01X-1010Y9181D01*
G01X-532Y8772D02*
G01X-850Y9000D01*
G01X-850Y8659D02*
G01X-850Y9000D01*
G01X-532Y8772D02*
G01X-1010Y8772D01*
G01X-532Y8340D02*
G01X-555Y8409D01*
G01X-555Y8409D02*
G01X-623Y8454D01*
G01X-623Y8454D02*
G01X-737Y8477D01*
G01X-737Y8477D02*
G01X-805Y8477D01*
G01X-805Y8477D02*
G01X-919Y8454D01*
G01X-919Y8454D02*
G01X-987Y8409D01*
G01X-987Y8409D02*
G01X-1010Y8340D01*
G01X-1010Y8295D02*
G01X-1010Y8340D01*
G01X-987Y8227D02*
G01X-1010Y8295D01*
G01X-919Y8181D02*
G01X-987Y8227D01*
G01X-805Y8159D02*
G01X-919Y8181D01*
G01X-737Y8159D02*
G01X-805Y8159D01*
G01X-623Y8181D02*
G01X-737Y8159D01*
G01X-555Y8227D02*
G01X-623Y8181D01*
G01X-532Y8295D02*
G01X-555Y8227D01*
G01X-532Y8340D02*
G01X-532Y8295D01*
G04 Draw part R41*
G04 draw part outline for part R41*
G01X-1510Y-8090D02*
G01X-1510Y-10910D01*
G01X-1510Y-10910D02*
G01X-2490Y-10910D01*
G01X-2490Y-10910D02*
G01X-2490Y-8090D01*
G01X-2490Y-8090D02*
G01X-1510Y-8090D01*
G04 draw reference designator for part R41*
G01X-532Y-9200D02*
G01X-1010Y-9200D01*
G01X-532Y-9404D02*
G01X-532Y-9200D01*
G01X-532Y-9404D02*
G01X-555Y-9472D01*
G01X-555Y-9472D02*
G01X-578Y-9495D01*
G01X-578Y-9495D02*
G01X-623Y-9518D01*
G01X-623Y-9518D02*
G01X-669Y-9518D01*
G01X-669Y-9518D02*
G01X-714Y-9495D01*
G01X-714Y-9495D02*
G01X-737Y-9472D01*
G01X-737Y-9472D02*
G01X-760Y-9404D01*
G01X-760Y-9200D02*
G01X-760Y-9404D01*
G01X-760Y-9359D02*
G01X-1010Y-9518D01*
G01X-532Y-9927D02*
G01X-850Y-9700D01*
G01X-850Y-10040D02*
G01X-850Y-9700D01*
G01X-532Y-9927D02*
G01X-1010Y-9927D01*
G01X-600Y-10268D02*
G01X-623Y-10222D01*
G01X-532Y-10336D02*
G01X-600Y-10268D01*
G01X-532Y-10336D02*
G01X-1010Y-10336D01*
G04 Draw part R42*
G04 draw part outline for part R42*
G01X-1510Y1910D02*
G01X-1510Y-910D01*
G01X-1510Y-910D02*
G01X-2490Y-910D01*
G01X-2490Y-910D02*
G01X-2490Y1910D01*
G01X-2490Y1910D02*
G01X-1510Y1910D01*
G04 draw reference designator for part R42*
G01X-532Y500D02*
G01X-1010Y500D01*
G01X-532Y295D02*
G01X-532Y500D01*
G01X-532Y295D02*
G01X-555Y227D01*
G01X-555Y227D02*
G01X-578Y204D01*
G01X-578Y204D02*
G01X-623Y181D01*
G01X-623Y181D02*
G01X-669Y181D01*
G01X-669Y181D02*
G01X-714Y204D01*
G01X-714Y204D02*
G01X-737Y227D01*
G01X-737Y227D02*
G01X-760Y295D01*
G01X-760Y500D02*
G01X-760Y295D01*
G01X-760Y340D02*
G01X-1010Y181D01*
G01X-532Y-227D02*
G01X-850Y0D01*
G01X-850Y-340D02*
G01X-850Y0D01*
G01X-532Y-227D02*
G01X-1010Y-227D01*
G01X-623Y-545D02*
G01X-646Y-545D01*
G01X-578Y-568D02*
G01X-623Y-545D01*
G01X-555Y-590D02*
G01X-578Y-568D01*
G01X-532Y-636D02*
G01X-555Y-590D01*
G01X-532Y-727D02*
G01X-532Y-636D01*
G01X-532Y-727D02*
G01X-555Y-772D01*
G01X-555Y-772D02*
G01X-578Y-795D01*
G01X-578Y-795D02*
G01X-623Y-818D01*
G01X-623Y-818D02*
G01X-669Y-818D01*
G01X-669Y-818D02*
G01X-714Y-795D01*
G01X-714Y-795D02*
G01X-782Y-750D01*
G01X-782Y-750D02*
G01X-1010Y-522D01*
G01X-1010Y-840D02*
G01X-1010Y-522D01*
G04 Draw part X$XXiA$XXsw*
G04 draw part outline for part X$XXiA$XXsw*
G54D12*
G01X-28200Y21100D02*
G01X-28200Y19100D01*
G01X-28200Y19100D02*
G01X-21200Y19100D01*
G01X-21200Y19100D02*
G01X-21200Y21100D01*
G01X-21200Y21100D02*
G01X-28200Y21100D01*
G04 draw reference designator for part X$XXiA$XXsw*
G54D10*
G01X-14722Y18100D02*
G01X-15200Y17781D01*
G01X-14722Y17781D02*
G01X-15200Y18100D01*
G01X-14631Y17486D02*
G01X-15290Y17486D01*
G01X-14631Y17395D02*
G01X-15290Y17395D01*
G01X-14745Y17327D02*
G01X-14790Y17281D01*
G01X-14722Y17395D02*
G01X-14745Y17327D01*
G01X-14722Y17486D02*
G01X-14722Y17395D01*
G01X-14722Y17486D02*
G01X-14745Y17554D01*
G01X-14745Y17554D02*
G01X-14790Y17600D01*
G01X-14790Y17600D02*
G01X-14836Y17600D01*
G01X-14836Y17600D02*
G01X-14881Y17577D01*
G01X-14881Y17577D02*
G01X-14904Y17554D01*
G01X-14904Y17554D02*
G01X-14927Y17509D01*
G01X-14927Y17509D02*
G01X-14972Y17372D01*
G01X-14972Y17372D02*
G01X-14995Y17327D01*
G01X-14995Y17327D02*
G01X-15018Y17304D01*
G01X-15018Y17304D02*
G01X-15063Y17281D01*
G01X-15063Y17281D02*
G01X-15131Y17281D01*
G01X-15131Y17281D02*
G01X-15177Y17327D01*
G01X-15177Y17327D02*
G01X-15200Y17395D01*
G01X-15200Y17486D02*
G01X-15200Y17395D01*
G01X-15177Y17554D02*
G01X-15200Y17486D01*
G01X-15131Y17600D02*
G01X-15177Y17554D01*
G01X-14722Y17100D02*
G01X-15200Y16781D01*
G01X-14722Y16781D02*
G01X-15200Y17100D01*
G01X-14722Y16600D02*
G01X-15200Y16281D01*
G01X-14722Y16281D02*
G01X-15200Y16600D01*
G01X-14722Y16100D02*
G01X-14745Y16077D01*
G01X-14722Y16054D02*
G01X-14745Y16077D01*
G01X-14700Y16077D02*
G01X-14722Y16054D01*
G01X-14700Y16077D02*
G01X-14722Y16100D01*
G01X-14881Y16077D02*
G01X-15200Y16077D01*
G01X-14722Y15690D02*
G01X-15200Y15872D01*
G01X-14722Y15690D02*
G01X-15200Y15509D01*
G01X-15040Y15577D02*
G01X-15040Y15804D01*
G01X-14631Y15213D02*
G01X-15290Y15213D01*
G01X-14631Y15122D02*
G01X-15290Y15122D01*
G01X-14745Y15054D02*
G01X-14790Y15009D01*
G01X-14722Y15122D02*
G01X-14745Y15054D01*
G01X-14722Y15213D02*
G01X-14722Y15122D01*
G01X-14722Y15213D02*
G01X-14745Y15281D01*
G01X-14745Y15281D02*
G01X-14790Y15327D01*
G01X-14790Y15327D02*
G01X-14836Y15327D01*
G01X-14836Y15327D02*
G01X-14881Y15304D01*
G01X-14881Y15304D02*
G01X-14904Y15281D01*
G01X-14904Y15281D02*
G01X-14927Y15236D01*
G01X-14927Y15236D02*
G01X-14972Y15100D01*
G01X-14972Y15100D02*
G01X-14995Y15054D01*
G01X-14995Y15054D02*
G01X-15018Y15031D01*
G01X-15018Y15031D02*
G01X-15063Y15009D01*
G01X-15063Y15009D02*
G01X-15131Y15009D01*
G01X-15131Y15009D02*
G01X-15177Y15054D01*
G01X-15177Y15054D02*
G01X-15200Y15122D01*
G01X-15200Y15213D02*
G01X-15200Y15122D01*
G01X-15177Y15281D02*
G01X-15200Y15213D01*
G01X-15131Y15327D02*
G01X-15177Y15281D01*
G01X-14722Y14827D02*
G01X-15200Y14509D01*
G01X-14722Y14509D02*
G01X-15200Y14827D01*
G01X-14722Y14327D02*
G01X-15200Y14009D01*
G01X-14722Y14009D02*
G01X-15200Y14327D01*
G01X-14904Y13600D02*
G01X-14950Y13577D01*
G01X-14881Y13668D02*
G01X-14904Y13600D01*
G01X-14881Y13736D02*
G01X-14881Y13668D01*
G01X-14881Y13736D02*
G01X-14904Y13804D01*
G01X-14904Y13804D02*
G01X-14950Y13827D01*
G01X-14950Y13827D02*
G01X-14995Y13804D01*
G01X-14995Y13804D02*
G01X-15018Y13759D01*
G01X-15018Y13759D02*
G01X-15040Y13645D01*
G01X-15040Y13645D02*
G01X-15063Y13600D01*
G01X-15063Y13600D02*
G01X-15109Y13577D01*
G01X-15109Y13577D02*
G01X-15131Y13577D01*
G01X-15131Y13577D02*
G01X-15177Y13600D01*
G01X-15177Y13600D02*
G01X-15200Y13668D01*
G01X-15200Y13736D02*
G01X-15200Y13668D01*
G01X-15177Y13804D02*
G01X-15200Y13736D01*
G01X-15131Y13827D02*
G01X-15177Y13804D01*
G01X-14881Y13395D02*
G01X-15200Y13304D01*
G01X-14881Y13213D02*
G01X-15200Y13304D01*
G01X-14881Y13213D02*
G01X-15200Y13122D01*
G01X-14881Y13031D02*
G01X-15200Y13122D01*
G04 Draw part X$XXiB$XXsw*
G04 draw part outline for part X$XXiB$XXsw*
G54D12*
G01X-28200Y16100D02*
G01X-28200Y14100D01*
G01X-28200Y14100D02*
G01X-21200Y14100D01*
G01X-21200Y14100D02*
G01X-21200Y16100D01*
G01X-21200Y16100D02*
G01X-28200Y16100D01*
G04 Draw part X$XXiC$XXsw*
G04 draw part outline for part X$XXiC$XXsw*
G01X-28200Y11100D02*
G01X-28200Y9100D01*
G01X-28200Y9100D02*
G01X-21200Y9100D01*
G01X-21200Y9100D02*
G01X-21200Y11100D01*
G01X-21200Y11100D02*
G01X-28200Y11100D01*
G04 Draw part X$XX0A$XXsw*
G04 draw part outline for part X$XX0A$XXsw*
G01X-28200Y3600D02*
G01X-28200Y1600D01*
G01X-28200Y1600D02*
G01X-21200Y1600D01*
G01X-21200Y1600D02*
G01X-21200Y3600D01*
G01X-21200Y3600D02*
G01X-28200Y3600D01*
G04 Draw part X$XX0B$XXsw*
G04 draw part outline for part X$XX0B$XXsw*
G01X-28200Y-1400D02*
G01X-28200Y-3400D01*
G01X-28200Y-3400D02*
G01X-21200Y-3400D01*
G01X-21200Y-3400D02*
G01X-21200Y-1400D01*
G01X-21200Y-1400D02*
G01X-28200Y-1400D01*
G04 Draw part X$XX0C$XXsw*
G04 draw part outline for part X$XX0C$XXsw*
G01X-28200Y-6400D02*
G01X-28200Y-8400D01*
G01X-28200Y-8400D02*
G01X-21200Y-8400D01*
G01X-21200Y-8400D02*
G01X-21200Y-6400D01*
G01X-21200Y-6400D02*
G01X-28200Y-6400D01*
G04 Draw part X$XX1A$XXsw*
G04 draw part outline for part X$XX1A$XXsw*
G01X-28200Y-13900D02*
G01X-28200Y-15900D01*
G01X-28200Y-15900D02*
G01X-21200Y-15900D01*
G01X-21200Y-15900D02*
G01X-21200Y-13900D01*
G01X-21200Y-13900D02*
G01X-28200Y-13900D01*
G04 Draw part X$XX1B$XXsw*
G04 draw part outline for part X$XX1B$XXsw*
G01X-28200Y-18900D02*
G01X-28200Y-20900D01*
G01X-28200Y-20900D02*
G01X-21200Y-20900D01*
G01X-21200Y-20900D02*
G01X-21200Y-18900D01*
G01X-21200Y-18900D02*
G01X-28200Y-18900D01*
G04 Draw part X$XX1C$XXsw*
G04 draw part outline for part X$XX1C$XXsw*
G01X-28200Y-23900D02*
G01X-28200Y-25900D01*
G01X-28200Y-25900D02*
G01X-21200Y-25900D01*
G01X-21200Y-25900D02*
G01X-21200Y-23900D01*
G01X-21200Y-23900D02*
G01X-28200Y-23900D01*
G04 Draw part V$XX1$Vdd*
G04 draw part outline for part V$XX1$Vdd*
G04 draw reference designator for part V$XX1$Vdd*
G54D11*
G01X23000Y-28077D02*
G01X22818Y-27600D01*
G01X22636Y-28077D02*
G01X22818Y-27600D01*
G01X22340Y-28168D02*
G01X22340Y-27509D01*
G01X22250Y-28168D02*
G01X22250Y-27509D01*
G01X22181Y-28054D02*
G01X22136Y-28009D01*
G01X22250Y-28077D02*
G01X22181Y-28054D01*
G01X22340Y-28077D02*
G01X22250Y-28077D01*
G01X22340Y-28077D02*
G01X22409Y-28054D01*
G01X22409Y-28054D02*
G01X22454Y-28009D01*
G01X22454Y-28009D02*
G01X22454Y-27963D01*
G01X22454Y-27963D02*
G01X22431Y-27918D01*
G01X22431Y-27918D02*
G01X22409Y-27895D01*
G01X22409Y-27895D02*
G01X22363Y-27872D01*
G01X22363Y-27872D02*
G01X22227Y-27827D01*
G01X22227Y-27827D02*
G01X22181Y-27804D01*
G01X22181Y-27804D02*
G01X22159Y-27781D01*
G01X22159Y-27781D02*
G01X22136Y-27736D01*
G01X22136Y-27736D02*
G01X22136Y-27668D01*
G01X22136Y-27668D02*
G01X22181Y-27622D01*
G01X22181Y-27622D02*
G01X22250Y-27600D01*
G01X22340Y-27600D02*
G01X22250Y-27600D01*
G01X22409Y-27622D02*
G01X22340Y-27600D01*
G01X22454Y-27668D02*
G01X22409Y-27622D01*
G01X21954Y-28077D02*
G01X21636Y-27600D01*
G01X21636Y-28077D02*
G01X21954Y-27600D01*
G01X21454Y-28077D02*
G01X21136Y-27600D01*
G01X21136Y-28077D02*
G01X21454Y-27600D01*
G01X20909Y-28009D02*
G01X20954Y-27986D01*
G01X20840Y-28077D02*
G01X20909Y-28009D01*
G01X20840Y-28077D02*
G01X20840Y-27600D01*
G01X20545Y-28168D02*
G01X20545Y-27509D01*
G01X20454Y-28168D02*
G01X20454Y-27509D01*
G01X20386Y-28054D02*
G01X20340Y-28009D01*
G01X20454Y-28077D02*
G01X20386Y-28054D01*
G01X20545Y-28077D02*
G01X20454Y-28077D01*
G01X20545Y-28077D02*
G01X20613Y-28054D01*
G01X20613Y-28054D02*
G01X20659Y-28009D01*
G01X20659Y-28009D02*
G01X20659Y-27963D01*
G01X20659Y-27963D02*
G01X20636Y-27918D01*
G01X20636Y-27918D02*
G01X20613Y-27895D01*
G01X20613Y-27895D02*
G01X20568Y-27872D01*
G01X20568Y-27872D02*
G01X20431Y-27827D01*
G01X20431Y-27827D02*
G01X20386Y-27804D01*
G01X20386Y-27804D02*
G01X20363Y-27781D01*
G01X20363Y-27781D02*
G01X20340Y-27736D01*
G01X20340Y-27736D02*
G01X20340Y-27668D01*
G01X20340Y-27668D02*
G01X20386Y-27622D01*
G01X20386Y-27622D02*
G01X20454Y-27600D01*
G01X20545Y-27600D02*
G01X20454Y-27600D01*
G01X20613Y-27622D02*
G01X20545Y-27600D01*
G01X20659Y-27668D02*
G01X20613Y-27622D01*
G01X20159Y-28077D02*
G01X19977Y-27600D01*
G01X19795Y-28077D02*
G01X19977Y-27600D01*
G01X19340Y-28077D02*
G01X19340Y-27600D01*
G01X19386Y-27895D02*
G01X19340Y-27850D01*
G01X19431Y-27918D02*
G01X19386Y-27895D01*
G01X19500Y-27918D02*
G01X19431Y-27918D01*
G01X19500Y-27918D02*
G01X19545Y-27895D01*
G01X19545Y-27895D02*
G01X19590Y-27850D01*
G01X19590Y-27850D02*
G01X19613Y-27781D01*
G01X19613Y-27781D02*
G01X19613Y-27736D01*
G01X19613Y-27736D02*
G01X19590Y-27668D01*
G01X19590Y-27668D02*
G01X19545Y-27622D01*
G01X19545Y-27622D02*
G01X19500Y-27600D01*
G01X19431Y-27600D02*
G01X19500Y-27600D01*
G01X19386Y-27622D02*
G01X19431Y-27600D01*
G01X19340Y-27668D02*
G01X19386Y-27622D01*
G01X18886Y-28077D02*
G01X18886Y-27600D01*
G01X18931Y-27895D02*
G01X18886Y-27850D01*
G01X18977Y-27918D02*
G01X18931Y-27895D01*
G01X19045Y-27918D02*
G01X18977Y-27918D01*
G01X19045Y-27918D02*
G01X19090Y-27895D01*
G01X19090Y-27895D02*
G01X19136Y-27850D01*
G01X19136Y-27850D02*
G01X19159Y-27781D01*
G01X19159Y-27781D02*
G01X19159Y-27736D01*
G01X19159Y-27736D02*
G01X19136Y-27668D01*
G01X19136Y-27668D02*
G01X19090Y-27622D01*
G01X19090Y-27622D02*
G01X19045Y-27600D01*
G01X18977Y-27600D02*
G01X19045Y-27600D01*
G01X18931Y-27622D02*
G01X18977Y-27600D01*
G01X18886Y-27668D02*
G01X18931Y-27622D01*
G04 Draw part V$XX1$Vss*
G04 draw part outline for part V$XX1$Vss*
G04 draw reference designator for part V$XX1$Vss*
G01X19000Y-24922D02*
G01X19181Y-25400D01*
G01X19363Y-24922D02*
G01X19181Y-25400D01*
G01X19659Y-24831D02*
G01X19659Y-25490D01*
G01X19750Y-24831D02*
G01X19750Y-25490D01*
G01X19818Y-24945D02*
G01X19863Y-24990D01*
G01X19750Y-24922D02*
G01X19818Y-24945D01*
G01X19659Y-24922D02*
G01X19750Y-24922D01*
G01X19659Y-24922D02*
G01X19590Y-24945D01*
G01X19590Y-24945D02*
G01X19545Y-24990D01*
G01X19545Y-24990D02*
G01X19545Y-25036D01*
G01X19545Y-25036D02*
G01X19568Y-25081D01*
G01X19568Y-25081D02*
G01X19590Y-25104D01*
G01X19590Y-25104D02*
G01X19636Y-25127D01*
G01X19636Y-25127D02*
G01X19772Y-25172D01*
G01X19772Y-25172D02*
G01X19818Y-25195D01*
G01X19818Y-25195D02*
G01X19840Y-25218D01*
G01X19840Y-25218D02*
G01X19863Y-25263D01*
G01X19863Y-25263D02*
G01X19863Y-25331D01*
G01X19863Y-25331D02*
G01X19818Y-25377D01*
G01X19818Y-25377D02*
G01X19750Y-25400D01*
G01X19659Y-25400D02*
G01X19750Y-25400D01*
G01X19590Y-25377D02*
G01X19659Y-25400D01*
G01X19545Y-25331D02*
G01X19590Y-25377D01*
G01X20045Y-24922D02*
G01X20363Y-25400D01*
G01X20363Y-24922D02*
G01X20045Y-25400D01*
G01X20545Y-24922D02*
G01X20863Y-25400D01*
G01X20863Y-24922D02*
G01X20545Y-25400D01*
G01X21090Y-24990D02*
G01X21045Y-25013D01*
G01X21159Y-24922D02*
G01X21090Y-24990D01*
G01X21159Y-24922D02*
G01X21159Y-25400D01*
G01X21454Y-24831D02*
G01X21454Y-25490D01*
G01X21545Y-24831D02*
G01X21545Y-25490D01*
G01X21613Y-24945D02*
G01X21659Y-24990D01*
G01X21545Y-24922D02*
G01X21613Y-24945D01*
G01X21454Y-24922D02*
G01X21545Y-24922D01*
G01X21454Y-24922D02*
G01X21386Y-24945D01*
G01X21386Y-24945D02*
G01X21340Y-24990D01*
G01X21340Y-24990D02*
G01X21340Y-25036D01*
G01X21340Y-25036D02*
G01X21363Y-25081D01*
G01X21363Y-25081D02*
G01X21386Y-25104D01*
G01X21386Y-25104D02*
G01X21431Y-25127D01*
G01X21431Y-25127D02*
G01X21568Y-25172D01*
G01X21568Y-25172D02*
G01X21613Y-25195D01*
G01X21613Y-25195D02*
G01X21636Y-25218D01*
G01X21636Y-25218D02*
G01X21659Y-25263D01*
G01X21659Y-25263D02*
G01X21659Y-25331D01*
G01X21659Y-25331D02*
G01X21613Y-25377D01*
G01X21613Y-25377D02*
G01X21545Y-25400D01*
G01X21454Y-25400D02*
G01X21545Y-25400D01*
G01X21386Y-25377D02*
G01X21454Y-25400D01*
G01X21340Y-25331D02*
G01X21386Y-25377D01*
G01X21840Y-24922D02*
G01X22022Y-25400D01*
G01X22204Y-24922D02*
G01X22022Y-25400D01*
G01X22613Y-25104D02*
G01X22636Y-25150D01*
G01X22545Y-25081D02*
G01X22613Y-25104D01*
G01X22477Y-25081D02*
G01X22545Y-25081D01*
G01X22477Y-25081D02*
G01X22409Y-25104D01*
G01X22409Y-25104D02*
G01X22386Y-25150D01*
G01X22386Y-25150D02*
G01X22409Y-25195D01*
G01X22409Y-25195D02*
G01X22454Y-25218D01*
G01X22454Y-25218D02*
G01X22568Y-25240D01*
G01X22568Y-25240D02*
G01X22613Y-25263D01*
G01X22613Y-25263D02*
G01X22636Y-25309D01*
G01X22636Y-25309D02*
G01X22636Y-25331D01*
G01X22636Y-25331D02*
G01X22613Y-25377D01*
G01X22613Y-25377D02*
G01X22545Y-25400D01*
G01X22477Y-25400D02*
G01X22545Y-25400D01*
G01X22409Y-25377D02*
G01X22477Y-25400D01*
G01X22386Y-25331D02*
G01X22409Y-25377D01*
G01X23045Y-25104D02*
G01X23068Y-25150D01*
G01X22977Y-25081D02*
G01X23045Y-25104D01*
G01X22909Y-25081D02*
G01X22977Y-25081D01*
G01X22909Y-25081D02*
G01X22840Y-25104D01*
G01X22840Y-25104D02*
G01X22818Y-25150D01*
G01X22818Y-25150D02*
G01X22840Y-25195D01*
G01X22840Y-25195D02*
G01X22886Y-25218D01*
G01X22886Y-25218D02*
G01X22999Y-25240D01*
G01X22999Y-25240D02*
G01X23045Y-25263D01*
G01X23045Y-25263D02*
G01X23068Y-25309D01*
G01X23068Y-25309D02*
G01X23068Y-25331D01*
G01X23068Y-25331D02*
G01X23045Y-25377D01*
G01X23045Y-25377D02*
G01X22977Y-25400D01*
G01X22909Y-25400D02*
G01X22977Y-25400D01*
G01X22840Y-25377D02*
G01X22909Y-25400D01*
G01X22818Y-25331D02*
G01X22840Y-25377D01*
G04 Draw part DATA_AND_ADDR*
G04 draw part outline for part DATA_AND_ADDR*
G04 draw reference designator for part DATA_AND_ADDR*
G01X25077Y-20500D02*
G01X24600Y-20500D01*
G01X25077Y-20659D02*
G01X25077Y-20500D01*
G01X25077Y-20659D02*
G01X25054Y-20727D01*
G01X25054Y-20727D02*
G01X25009Y-20772D01*
G01X25009Y-20772D02*
G01X24963Y-20795D01*
G01X24963Y-20795D02*
G01X24895Y-20818D01*
G01X24895Y-20818D02*
G01X24781Y-20818D01*
G01X24781Y-20818D02*
G01X24713Y-20795D01*
G01X24713Y-20795D02*
G01X24668Y-20772D01*
G01X24668Y-20772D02*
G01X24622Y-20727D01*
G01X24622Y-20727D02*
G01X24600Y-20659D01*
G01X24600Y-20500D02*
G01X24600Y-20659D01*
G01X25077Y-21181D02*
G01X24600Y-21000D01*
G01X25077Y-21181D02*
G01X24600Y-21363D01*
G01X24759Y-21295D02*
G01X24759Y-21068D01*
G01X25077Y-21704D02*
G01X24600Y-21704D01*
G01X25077Y-21863D02*
G01X25077Y-21545D01*
G01X25077Y-22227D02*
G01X24600Y-22045D01*
G01X25077Y-22227D02*
G01X24600Y-22409D01*
G01X24759Y-22340D02*
G01X24759Y-22113D01*
G01X24600Y-23000D02*
G01X24600Y-22590D01*
G01X25077Y-23363D02*
G01X24600Y-23181D01*
G01X25077Y-23363D02*
G01X24600Y-23545D01*
G01X24759Y-23477D02*
G01X24759Y-23250D01*
G01X25077Y-23727D02*
G01X24600Y-23727D01*
G01X25077Y-23727D02*
G01X24600Y-24045D01*
G01X25077Y-24045D02*
G01X24600Y-24045D01*
G01X25077Y-24227D02*
G01X24600Y-24227D01*
G01X25077Y-24386D02*
G01X25077Y-24227D01*
G01X25077Y-24386D02*
G01X25054Y-24454D01*
G01X25054Y-24454D02*
G01X25009Y-24500D01*
G01X25009Y-24500D02*
G01X24963Y-24522D01*
G01X24963Y-24522D02*
G01X24895Y-24545D01*
G01X24895Y-24545D02*
G01X24781Y-24545D01*
G01X24781Y-24545D02*
G01X24713Y-24522D01*
G01X24713Y-24522D02*
G01X24668Y-24500D01*
G01X24668Y-24500D02*
G01X24622Y-24454D01*
G01X24622Y-24454D02*
G01X24600Y-24386D01*
G01X24600Y-24227D02*
G01X24600Y-24386D01*
G01X24600Y-25136D02*
G01X24600Y-24727D01*
G01X25077Y-25499D02*
G01X24600Y-25318D01*
G01X25077Y-25499D02*
G01X24600Y-25681D01*
G01X24759Y-25613D02*
G01X24759Y-25386D01*
G01X25077Y-25863D02*
G01X24600Y-25863D01*
G01X25077Y-26022D02*
G01X25077Y-25863D01*
G01X25077Y-26022D02*
G01X25054Y-26090D01*
G01X25054Y-26090D02*
G01X25009Y-26136D01*
G01X25009Y-26136D02*
G01X24963Y-26159D01*
G01X24963Y-26159D02*
G01X24895Y-26181D01*
G01X24895Y-26181D02*
G01X24781Y-26181D01*
G01X24781Y-26181D02*
G01X24713Y-26159D01*
G01X24713Y-26159D02*
G01X24668Y-26136D01*
G01X24668Y-26136D02*
G01X24622Y-26090D01*
G01X24622Y-26090D02*
G01X24600Y-26022D01*
G01X24600Y-25863D02*
G01X24600Y-26022D01*
G01X25077Y-26363D02*
G01X24600Y-26363D01*
G01X25077Y-26522D02*
G01X25077Y-26363D01*
G01X25077Y-26522D02*
G01X25054Y-26590D01*
G01X25054Y-26590D02*
G01X25009Y-26636D01*
G01X25009Y-26636D02*
G01X24963Y-26659D01*
G01X24963Y-26659D02*
G01X24895Y-26681D01*
G01X24895Y-26681D02*
G01X24781Y-26681D01*
G01X24781Y-26681D02*
G01X24713Y-26659D01*
G01X24713Y-26659D02*
G01X24668Y-26636D01*
G01X24668Y-26636D02*
G01X24622Y-26590D01*
G01X24622Y-26590D02*
G01X24600Y-26522D01*
G01X24600Y-26363D02*
G01X24600Y-26522D01*
G01X25077Y-26863D02*
G01X24600Y-26863D01*
G01X25077Y-27068D02*
G01X25077Y-26863D01*
G01X25077Y-27068D02*
G01X25054Y-27136D01*
G01X25054Y-27136D02*
G01X25031Y-27159D01*
G01X25031Y-27159D02*
G01X24986Y-27181D01*
G01X24986Y-27181D02*
G01X24940Y-27181D01*
G01X24940Y-27181D02*
G01X24895Y-27159D01*
G01X24895Y-27159D02*
G01X24872Y-27136D01*
G01X24872Y-27136D02*
G01X24850Y-27068D01*
G01X24850Y-26863D02*
G01X24850Y-27068D01*
G01X24850Y-27022D02*
G01X24600Y-27181D01*

G04 Draw traces*

G04 Draw Text*
G54D12*
G01X21272Y-18284D02*
G01X21000Y-19000D01*
G01X21272Y-18284D02*
G01X21545Y-19000D01*
G01X21102Y-18761D02*
G01X21443Y-18761D01*
G01X21818Y-18284D02*
G01X21818Y-19000D01*
G01X21818Y-18284D02*
G01X22056Y-18284D01*
G01X22056Y-18284D02*
G01X22159Y-18318D01*
G01X22159Y-18318D02*
G01X22227Y-18386D01*
G01X22227Y-18386D02*
G01X22261Y-18454D01*
G01X22261Y-18454D02*
G01X22295Y-18556D01*
G01X22295Y-18556D02*
G01X22295Y-18727D01*
G01X22295Y-18727D02*
G01X22261Y-18829D01*
G01X22261Y-18829D02*
G01X22227Y-18897D01*
G01X22227Y-18897D02*
G01X22159Y-18965D01*
G01X22159Y-18965D02*
G01X22056Y-19000D01*
G01X22056Y-19000D02*
G01X21818Y-19000D01*
G01X22568Y-18284D02*
G01X22568Y-19000D01*
G01X22568Y-18284D02*
G01X22806Y-18284D01*
G01X22806Y-18284D02*
G01X22909Y-18318D01*
G01X22909Y-18318D02*
G01X22977Y-18386D01*
G01X22977Y-18386D02*
G01X23011Y-18454D01*
G01X23011Y-18454D02*
G01X23045Y-18556D01*
G01X23045Y-18556D02*
G01X23045Y-18727D01*
G01X23045Y-18727D02*
G01X23011Y-18829D01*
G01X23011Y-18829D02*
G01X22977Y-18897D01*
G01X22977Y-18897D02*
G01X22909Y-18965D01*
G01X22909Y-18965D02*
G01X22806Y-19000D01*
G01X22806Y-19000D02*
G01X22568Y-19000D01*
G01X23318Y-18284D02*
G01X23318Y-19000D01*
G01X23318Y-18284D02*
G01X23624Y-18284D01*
G01X23624Y-18284D02*
G01X23727Y-18318D01*
G01X23727Y-18318D02*
G01X23761Y-18352D01*
G01X23761Y-18352D02*
G01X23795Y-18420D01*
G01X23795Y-18420D02*
G01X23795Y-18488D01*
G01X23795Y-18488D02*
G01X23761Y-18556D01*
G01X23761Y-18556D02*
G01X23727Y-18590D01*
G01X23727Y-18590D02*
G01X23624Y-18625D01*
G01X23624Y-18625D02*
G01X23318Y-18625D01*
G01X23556Y-18625D02*
G01X23795Y-19000D01*
G01X24068Y-18284D02*
G01X24068Y-19000D01*
G01X24068Y-18284D02*
G01X24511Y-18284D01*
G01X24068Y-18625D02*
G01X24340Y-18625D01*
G01X24068Y-19000D02*
G01X24511Y-19000D01*
G01X25261Y-18386D02*
G01X25193Y-18318D01*
G01X25193Y-18318D02*
G01X25090Y-18284D01*
G01X25090Y-18284D02*
G01X24954Y-18284D01*
G01X24954Y-18284D02*
G01X24852Y-18318D01*
G01X24852Y-18318D02*
G01X24784Y-18386D01*
G01X24784Y-18386D02*
G01X24784Y-18454D01*
G01X24784Y-18454D02*
G01X24818Y-18522D01*
G01X24818Y-18522D02*
G01X24852Y-18556D01*
G01X24852Y-18556D02*
G01X24920Y-18590D01*
G01X24920Y-18590D02*
G01X25124Y-18659D01*
G01X25124Y-18659D02*
G01X25193Y-18693D01*
G01X25193Y-18693D02*
G01X25227Y-18727D01*
G01X25227Y-18727D02*
G01X25261Y-18795D01*
G01X25261Y-18795D02*
G01X25261Y-18897D01*
G01X25261Y-18897D02*
G01X25193Y-18965D01*
G01X25193Y-18965D02*
G01X25090Y-19000D01*
G01X25090Y-19000D02*
G01X24954Y-19000D01*
G01X24954Y-19000D02*
G01X24852Y-18965D01*
G01X24852Y-18965D02*
G01X24784Y-18897D01*
G01X26011Y-18386D02*
G01X25943Y-18318D01*
G01X25943Y-18318D02*
G01X25840Y-18284D01*
G01X25840Y-18284D02*
G01X25704Y-18284D01*
G01X25704Y-18284D02*
G01X25602Y-18318D01*
G01X25602Y-18318D02*
G01X25534Y-18386D01*
G01X25534Y-18386D02*
G01X25534Y-18454D01*
G01X25534Y-18454D02*
G01X25568Y-18522D01*
G01X25568Y-18522D02*
G01X25602Y-18556D01*
G01X25602Y-18556D02*
G01X25670Y-18590D01*
G01X25670Y-18590D02*
G01X25874Y-18659D01*
G01X25874Y-18659D02*
G01X25943Y-18693D01*
G01X25943Y-18693D02*
G01X25977Y-18727D01*
G01X25977Y-18727D02*
G01X26011Y-18795D01*
G01X26011Y-18795D02*
G01X26011Y-18897D01*
G01X26011Y-18897D02*
G01X25943Y-18965D01*
G01X25943Y-18965D02*
G01X25840Y-19000D01*
G01X25840Y-19000D02*
G01X25704Y-19000D01*
G01X25704Y-19000D02*
G01X25602Y-18965D01*
G01X25602Y-18965D02*
G01X25534Y-18897D01*
G01X20800Y-20284D02*
G01X20800Y-21000D01*
G01X20800Y-20284D02*
G01X21038Y-20284D01*
G01X21038Y-20284D02*
G01X21140Y-20318D01*
G01X21140Y-20318D02*
G01X21209Y-20386D01*
G01X21209Y-20386D02*
G01X21243Y-20454D01*
G01X21243Y-20454D02*
G01X21277Y-20556D01*
G01X21277Y-20556D02*
G01X21277Y-20727D01*
G01X21277Y-20727D02*
G01X21243Y-20829D01*
G01X21243Y-20829D02*
G01X21209Y-20897D01*
G01X21209Y-20897D02*
G01X21140Y-20965D01*
G01X21140Y-20965D02*
G01X21038Y-21000D01*
G01X21038Y-21000D02*
G01X20800Y-21000D01*
G01X21584Y-20454D02*
G01X21584Y-20420D01*
G01X21584Y-20420D02*
G01X21618Y-20352D01*
G01X21618Y-20352D02*
G01X21652Y-20318D01*
G01X21652Y-20318D02*
G01X21720Y-20284D01*
G01X21720Y-20284D02*
G01X21856Y-20284D01*
G01X21856Y-20284D02*
G01X21925Y-20318D01*
G01X21925Y-20318D02*
G01X21959Y-20352D01*
G01X21959Y-20352D02*
G01X21993Y-20420D01*
G01X21993Y-20420D02*
G01X21993Y-20488D01*
G01X21993Y-20488D02*
G01X21959Y-20556D01*
G01X21959Y-20556D02*
G01X21890Y-20659D01*
G01X21890Y-20659D02*
G01X21550Y-21000D01*
G01X21550Y-21000D02*
G01X22027Y-21000D01*
G54D11*
G01X20800Y-21484D02*
G01X20800Y-22200D01*
G01X20800Y-21484D02*
G01X21038Y-21484D01*
G01X21038Y-21484D02*
G01X21140Y-21518D01*
G01X21140Y-21518D02*
G01X21209Y-21586D01*
G01X21209Y-21586D02*
G01X21243Y-21654D01*
G01X21243Y-21654D02*
G01X21277Y-21756D01*
G01X21277Y-21756D02*
G01X21277Y-21927D01*
G01X21277Y-21927D02*
G01X21243Y-22029D01*
G01X21243Y-22029D02*
G01X21209Y-22097D01*
G01X21209Y-22097D02*
G01X21140Y-22165D01*
G01X21140Y-22165D02*
G01X21038Y-22200D01*
G01X21038Y-22200D02*
G01X20800Y-22200D01*
G01X21550Y-21620D02*
G01X21618Y-21586D01*
G01X21618Y-21586D02*
G01X21720Y-21484D01*
G01X21720Y-21484D02*
G01X21720Y-22200D01*
G54D13*
G01X20800Y-22784D02*
G01X20800Y-23500D01*
G01X20800Y-22784D02*
G01X21038Y-22784D01*
G01X21038Y-22784D02*
G01X21140Y-22818D01*
G01X21140Y-22818D02*
G01X21209Y-22886D01*
G01X21209Y-22886D02*
G01X21243Y-22954D01*
G01X21243Y-22954D02*
G01X21277Y-23056D01*
G01X21277Y-23056D02*
G01X21277Y-23227D01*
G01X21277Y-23227D02*
G01X21243Y-23329D01*
G01X21243Y-23329D02*
G01X21209Y-23397D01*
G01X21209Y-23397D02*
G01X21140Y-23465D01*
G01X21140Y-23465D02*
G01X21038Y-23500D01*
G01X21038Y-23500D02*
G01X20800Y-23500D01*
G01X21754Y-22784D02*
G01X21652Y-22818D01*
G01X21652Y-22818D02*
G01X21584Y-22920D01*
G01X21584Y-22920D02*
G01X21550Y-23090D01*
G01X21550Y-23090D02*
G01X21550Y-23193D01*
G01X21550Y-23193D02*
G01X21584Y-23363D01*
G01X21584Y-23363D02*
G01X21652Y-23465D01*
G01X21652Y-23465D02*
G01X21754Y-23500D01*
G01X21754Y-23500D02*
G01X21822Y-23500D01*
G01X21822Y-23500D02*
G01X21925Y-23465D01*
G01X21925Y-23465D02*
G01X21993Y-23363D01*
G01X21993Y-23363D02*
G01X22027Y-23193D01*
G01X22027Y-23193D02*
G01X22027Y-23090D01*
G01X22027Y-23090D02*
G01X21993Y-22920D01*
G01X21993Y-22920D02*
G01X21925Y-22818D01*
G01X21925Y-22818D02*
G01X21822Y-22784D01*
G01X21822Y-22784D02*
G01X21754Y-22784D01*
G01X-18000Y19772D02*
G01X-17772Y19545D01*
G01X-17772Y19545D02*
G01X-17545Y19772D01*
G01X-17545Y19772D02*
G01X-17772Y20000D01*
G01X-17772Y20000D02*
G01X-18000Y19772D01*
G01X-17772Y18181D02*
G01X-17772Y15000D01*
G54D14*
G01X-17636Y-227D02*
G01X-18318Y-454D01*
G01X-18318Y-454D02*
G01X-18772Y-1136D01*
G01X-18772Y-1136D02*
G01X-19000Y-2272D01*
G01X-19000Y-2272D02*
G01X-19000Y-2954D01*
G01X-19000Y-2954D02*
G01X-18772Y-4090D01*
G01X-18772Y-4090D02*
G01X-18318Y-4772D01*
G01X-18318Y-4772D02*
G01X-17636Y-5000D01*
G01X-17636Y-5000D02*
G01X-17181Y-5000D01*
G01X-17181Y-5000D02*
G01X-16500Y-4772D01*
G01X-16500Y-4772D02*
G01X-16045Y-4090D01*
G01X-16045Y-4090D02*
G01X-15818Y-2954D01*
G01X-15818Y-2954D02*
G01X-15818Y-2272D01*
G01X-15818Y-2272D02*
G01X-16045Y-1136D01*
G01X-16045Y-1136D02*
G01X-16500Y-454D01*
G01X-16500Y-454D02*
G01X-17181Y-227D01*
G01X-17181Y-227D02*
G01X-17636Y-227D01*
G01X-18000Y-17136D02*
G01X-17545Y-16909D01*
G01X-17545Y-16909D02*
G01X-16863Y-16227D01*
G01X-16863Y-16227D02*
G01X-16863Y-21000D01*
G54D15*
G01X-27000Y22954D02*
G01X-26954Y22909D01*
G01X-26954Y22909D02*
G01X-26909Y22954D01*
G01X-26909Y22954D02*
G01X-26954Y23000D01*
G01X-26954Y23000D02*
G01X-27000Y22954D01*
G01X-26954Y22636D02*
G01X-26954Y22000D01*
G01X-26227Y22954D02*
G01X-26363Y22909D01*
G01X-26363Y22909D02*
G01X-26454Y22772D01*
G01X-26454Y22772D02*
G01X-26500Y22545D01*
G01X-26500Y22545D02*
G01X-26500Y22409D01*
G01X-26500Y22409D02*
G01X-26454Y22181D01*
G01X-26454Y22181D02*
G01X-26363Y22045D01*
G01X-26363Y22045D02*
G01X-26227Y22000D01*
G01X-26227Y22000D02*
G01X-26136Y22000D01*
G01X-26136Y22000D02*
G01X-26000Y22045D01*
G01X-26000Y22045D02*
G01X-25909Y22181D01*
G01X-25909Y22181D02*
G01X-25863Y22409D01*
G01X-25863Y22409D02*
G01X-25863Y22545D01*
G01X-25863Y22545D02*
G01X-25909Y22772D01*
G01X-25909Y22772D02*
G01X-26000Y22909D01*
G01X-26000Y22909D02*
G01X-26136Y22954D01*
G01X-26136Y22954D02*
G01X-26227Y22954D01*
G01X-25500Y22772D02*
G01X-25409Y22818D01*
G01X-25409Y22818D02*
G01X-25272Y22954D01*
G01X-25272Y22954D02*
G01X-25272Y22000D01*
G54D10*
G01X19318Y27909D02*
G01X19272Y27954D01*
G01X19272Y27954D02*
G01X19204Y27977D01*
G01X19204Y27977D02*
G01X19113Y27977D01*
G01X19113Y27977D02*
G01X19045Y27954D01*
G01X19045Y27954D02*
G01X19000Y27909D01*
G01X19000Y27909D02*
G01X19000Y27863D01*
G01X19000Y27863D02*
G01X19022Y27818D01*
G01X19022Y27818D02*
G01X19045Y27795D01*
G01X19045Y27795D02*
G01X19090Y27772D01*
G01X19090Y27772D02*
G01X19227Y27727D01*
G01X19227Y27727D02*
G01X19272Y27704D01*
G01X19272Y27704D02*
G01X19295Y27681D01*
G01X19295Y27681D02*
G01X19318Y27636D01*
G01X19318Y27636D02*
G01X19318Y27568D01*
G01X19318Y27568D02*
G01X19272Y27522D01*
G01X19272Y27522D02*
G01X19204Y27500D01*
G01X19204Y27500D02*
G01X19113Y27500D01*
G01X19113Y27500D02*
G01X19045Y27522D01*
G01X19045Y27522D02*
G01X19000Y27568D01*
G01X19500Y27818D02*
G01X19500Y27340D01*
G01X19500Y27750D02*
G01X19545Y27795D01*
G01X19545Y27795D02*
G01X19590Y27818D01*
G01X19590Y27818D02*
G01X19659Y27818D01*
G01X19659Y27818D02*
G01X19704Y27795D01*
G01X19704Y27795D02*
G01X19750Y27750D01*
G01X19750Y27750D02*
G01X19772Y27681D01*
G01X19772Y27681D02*
G01X19772Y27636D01*
G01X19772Y27636D02*
G01X19750Y27568D01*
G01X19750Y27568D02*
G01X19704Y27522D01*
G01X19704Y27522D02*
G01X19659Y27500D01*
G01X19659Y27500D02*
G01X19590Y27500D01*
G01X19590Y27500D02*
G01X19545Y27522D01*
G01X19545Y27522D02*
G01X19500Y27568D01*
G01X19954Y27818D02*
G01X19954Y27500D01*
G01X19954Y27681D02*
G01X19977Y27750D01*
G01X19977Y27750D02*
G01X20022Y27795D01*
G01X20022Y27795D02*
G01X20068Y27818D01*
G01X20068Y27818D02*
G01X20136Y27818D01*
G01X20318Y27977D02*
G01X20340Y27954D01*
G01X20340Y27954D02*
G01X20363Y27977D01*
G01X20363Y27977D02*
G01X20340Y28000D01*
G01X20340Y28000D02*
G01X20318Y27977D01*
G01X20340Y27818D02*
G01X20340Y27500D01*
G01X20545Y27818D02*
G01X20545Y27500D01*
G01X20545Y27727D02*
G01X20613Y27795D01*
G01X20613Y27795D02*
G01X20659Y27818D01*
G01X20659Y27818D02*
G01X20727Y27818D01*
G01X20727Y27818D02*
G01X20772Y27795D01*
G01X20772Y27795D02*
G01X20795Y27727D01*
G01X20795Y27727D02*
G01X20795Y27500D01*
G01X21249Y27818D02*
G01X21249Y27454D01*
G01X21249Y27454D02*
G01X21227Y27386D01*
G01X21227Y27386D02*
G01X21204Y27363D01*
G01X21204Y27363D02*
G01X21159Y27340D01*
G01X21159Y27340D02*
G01X21090Y27340D01*
G01X21090Y27340D02*
G01X21045Y27363D01*
G01X21249Y27750D02*
G01X21204Y27795D01*
G01X21204Y27795D02*
G01X21159Y27818D01*
G01X21159Y27818D02*
G01X21090Y27818D01*
G01X21090Y27818D02*
G01X21045Y27795D01*
G01X21045Y27795D02*
G01X20999Y27750D01*
G01X20999Y27750D02*
G01X20977Y27681D01*
G01X20977Y27681D02*
G01X20977Y27636D01*
G01X20977Y27636D02*
G01X20999Y27568D01*
G01X20999Y27568D02*
G01X21045Y27522D01*
G01X21045Y27522D02*
G01X21090Y27500D01*
G01X21090Y27500D02*
G01X21159Y27500D01*
G01X21159Y27500D02*
G01X21204Y27522D01*
G01X21204Y27522D02*
G01X21249Y27568D01*
G01X21818Y27863D02*
G01X21818Y27886D01*
G01X21818Y27886D02*
G01X21840Y27931D01*
G01X21840Y27931D02*
G01X21863Y27954D01*
G01X21863Y27954D02*
G01X21909Y27977D01*
G01X21909Y27977D02*
G01X21999Y27977D01*
G01X21999Y27977D02*
G01X22045Y27954D01*
G01X22045Y27954D02*
G01X22068Y27931D01*
G01X22068Y27931D02*
G01X22090Y27886D01*
G01X22090Y27886D02*
G01X22090Y27840D01*
G01X22090Y27840D02*
G01X22068Y27795D01*
G01X22068Y27795D02*
G01X22022Y27727D01*
G01X22022Y27727D02*
G01X21795Y27500D01*
G01X21795Y27500D02*
G01X22113Y27500D01*
G01X22431Y27977D02*
G01X22363Y27954D01*
G01X22363Y27954D02*
G01X22318Y27886D01*
G01X22318Y27886D02*
G01X22295Y27772D01*
G01X22295Y27772D02*
G01X22295Y27704D01*
G01X22295Y27704D02*
G01X22318Y27590D01*
G01X22318Y27590D02*
G01X22363Y27522D01*
G01X22363Y27522D02*
G01X22431Y27500D01*
G01X22431Y27500D02*
G01X22477Y27500D01*
G01X22477Y27500D02*
G01X22545Y27522D01*
G01X22545Y27522D02*
G01X22590Y27590D01*
G01X22590Y27590D02*
G01X22613Y27704D01*
G01X22613Y27704D02*
G01X22613Y27772D01*
G01X22613Y27772D02*
G01X22590Y27886D01*
G01X22590Y27886D02*
G01X22545Y27954D01*
G01X22545Y27954D02*
G01X22477Y27977D01*
G01X22477Y27977D02*
G01X22431Y27977D01*
G01X22931Y27977D02*
G01X22863Y27954D01*
G01X22863Y27954D02*
G01X22818Y27886D01*
G01X22818Y27886D02*
G01X22795Y27772D01*
G01X22795Y27772D02*
G01X22795Y27704D01*
G01X22795Y27704D02*
G01X22818Y27590D01*
G01X22818Y27590D02*
G01X22863Y27522D01*
G01X22863Y27522D02*
G01X22931Y27500D01*
G01X22931Y27500D02*
G01X22977Y27500D01*
G01X22977Y27500D02*
G01X23045Y27522D01*
G01X23045Y27522D02*
G01X23090Y27590D01*
G01X23090Y27590D02*
G01X23113Y27704D01*
G01X23113Y27704D02*
G01X23113Y27772D01*
G01X23113Y27772D02*
G01X23090Y27886D01*
G01X23090Y27886D02*
G01X23045Y27954D01*
G01X23045Y27954D02*
G01X22977Y27977D01*
G01X22977Y27977D02*
G01X22931Y27977D01*
G01X23409Y27977D02*
G01X23340Y27954D01*
G01X23340Y27954D02*
G01X23318Y27909D01*
G01X23318Y27909D02*
G01X23318Y27863D01*
G01X23318Y27863D02*
G01X23340Y27818D01*
G01X23340Y27818D02*
G01X23386Y27795D01*
G01X23386Y27795D02*
G01X23477Y27772D01*
G01X23477Y27772D02*
G01X23545Y27750D01*
G01X23545Y27750D02*
G01X23590Y27704D01*
G01X23590Y27704D02*
G01X23613Y27659D01*
G01X23613Y27659D02*
G01X23613Y27590D01*
G01X23613Y27590D02*
G01X23590Y27545D01*
G01X23590Y27545D02*
G01X23568Y27522D01*
G01X23568Y27522D02*
G01X23499Y27500D01*
G01X23499Y27500D02*
G01X23409Y27500D01*
G01X23409Y27500D02*
G01X23340Y27522D01*
G01X23340Y27522D02*
G01X23318Y27545D01*
G01X23318Y27545D02*
G01X23295Y27590D01*
G01X23295Y27590D02*
G01X23295Y27659D01*
G01X23295Y27659D02*
G01X23318Y27704D01*
G01X23318Y27704D02*
G01X23363Y27750D01*
G01X23363Y27750D02*
G01X23431Y27772D01*
G01X23431Y27772D02*
G01X23522Y27795D01*
G01X23522Y27795D02*
G01X23568Y27818D01*
G01X23568Y27818D02*
G01X23590Y27863D01*
G01X23590Y27863D02*
G01X23590Y27909D01*
G01X23590Y27909D02*
G01X23568Y27954D01*
G01X23568Y27954D02*
G01X23499Y27977D01*
G01X23499Y27977D02*
G01X23409Y27977D01*
G54D15*
G01X-13318Y30409D02*
G01X-12318Y30409D01*
G01X-12318Y30409D02*
G01X-12863Y29681D01*
G01X-12863Y29681D02*
G01X-12590Y29681D01*
G01X-12590Y29681D02*
G01X-12409Y29590D01*
G01X-12409Y29590D02*
G01X-12318Y29500D01*
G01X-12318Y29500D02*
G01X-12227Y29227D01*
G01X-12227Y29227D02*
G01X-12227Y29045D01*
G01X-12227Y29045D02*
G01X-12318Y28772D01*
G01X-12318Y28772D02*
G01X-12500Y28590D01*
G01X-12500Y28590D02*
G01X-12772Y28500D01*
G01X-12772Y28500D02*
G01X-13045Y28500D01*
G01X-13045Y28500D02*
G01X-13318Y28590D01*
G01X-13318Y28590D02*
G01X-13409Y28681D01*
G01X-13409Y28681D02*
G01X-13500Y28863D01*
G01X-11500Y29772D02*
G01X-10500Y28500D01*
G01X-10500Y29772D02*
G01X-11500Y28500D01*
G01X-9590Y30409D02*
G01X-8590Y30409D01*
G01X-8590Y30409D02*
G01X-9136Y29681D01*
G01X-9136Y29681D02*
G01X-8863Y29681D01*
G01X-8863Y29681D02*
G01X-8681Y29590D01*
G01X-8681Y29590D02*
G01X-8590Y29500D01*
G01X-8590Y29500D02*
G01X-8500Y29227D01*
G01X-8500Y29227D02*
G01X-8500Y29045D01*
G01X-8500Y29045D02*
G01X-8590Y28772D01*
G01X-8590Y28772D02*
G01X-8772Y28590D01*
G01X-8772Y28590D02*
G01X-9045Y28500D01*
G01X-9045Y28500D02*
G01X-9318Y28500D01*
G01X-9318Y28500D02*
G01X-9590Y28590D01*
G01X-9590Y28590D02*
G01X-9681Y28681D01*
G01X-9681Y28681D02*
G01X-9772Y28863D01*
G01X-7772Y29318D02*
G01X-6136Y29318D01*
G01X-4772Y30409D02*
G01X-4772Y28500D01*
G01X-5409Y30409D02*
G01X-4136Y30409D01*
G01X-3409Y30409D02*
G01X-3409Y28500D01*
G01X-3409Y30409D02*
G01X-2590Y30409D01*
G01X-2590Y30409D02*
G01X-2318Y30318D01*
G01X-2318Y30318D02*
G01X-2227Y30227D01*
G01X-2227Y30227D02*
G01X-2136Y30045D01*
G01X-2136Y30045D02*
G01X-2136Y29863D01*
G01X-2136Y29863D02*
G01X-2227Y29681D01*
G01X-2227Y29681D02*
G01X-2318Y29590D01*
G01X-2318Y29590D02*
G01X-2590Y29500D01*
G01X-2590Y29500D02*
G01X-3409Y29500D01*
G01X-2772Y29500D02*
G01X-2136Y28500D01*
G01X-1409Y30409D02*
G01X-1409Y28500D01*
G01X-45Y30409D02*
G01X-45Y28500D01*
G01X-681Y30409D02*
G01X590Y30409D01*
G01X4045Y30136D02*
G01X3863Y30318D01*
G01X3863Y30318D02*
G01X3590Y30409D01*
G01X3590Y30409D02*
G01X3227Y30409D01*
G01X3227Y30409D02*
G01X2954Y30318D01*
G01X2954Y30318D02*
G01X2772Y30136D01*
G01X2772Y30136D02*
G01X2772Y29954D01*
G01X2772Y29954D02*
G01X2863Y29772D01*
G01X2863Y29772D02*
G01X2954Y29681D01*
G01X2954Y29681D02*
G01X3136Y29590D01*
G01X3136Y29590D02*
G01X3681Y29409D01*
G01X3681Y29409D02*
G01X3863Y29318D01*
G01X3863Y29318D02*
G01X3954Y29227D01*
G01X3954Y29227D02*
G01X4045Y29045D01*
G01X4045Y29045D02*
G01X4045Y28772D01*
G01X4045Y28772D02*
G01X3863Y28590D01*
G01X3863Y28590D02*
G01X3590Y28500D01*
G01X3590Y28500D02*
G01X3227Y28500D01*
G01X3227Y28500D02*
G01X2954Y28590D01*
G01X2954Y28590D02*
G01X2772Y28772D01*
G01X4772Y30409D02*
G01X5227Y28500D01*
G01X5681Y30409D02*
G01X5227Y28500D01*
G01X5681Y30409D02*
G01X6136Y28500D01*
G01X6590Y30409D02*
G01X6136Y28500D01*
G01X7318Y30409D02*
G01X7318Y28500D01*
G01X7318Y30409D02*
G01X8136Y30409D01*
G01X8136Y30409D02*
G01X8409Y30318D01*
G01X8409Y30318D02*
G01X8499Y30227D01*
G01X8499Y30227D02*
G01X8590Y30045D01*
G01X8590Y30045D02*
G01X8590Y29863D01*
G01X8590Y29863D02*
G01X8499Y29681D01*
G01X8499Y29681D02*
G01X8409Y29590D01*
G01X8409Y29590D02*
G01X8136Y29500D01*
G01X8136Y29500D02*
G01X7318Y29500D01*
G01X7954Y29500D02*
G01X8590Y28500D01*
G01X9863Y30409D02*
G01X9681Y30318D01*
G01X9681Y30318D02*
G01X9499Y30136D01*
G01X9499Y30136D02*
G01X9409Y29954D01*
G01X9409Y29954D02*
G01X9318Y29681D01*
G01X9318Y29681D02*
G01X9318Y29227D01*
G01X9318Y29227D02*
G01X9409Y28954D01*
G01X9409Y28954D02*
G01X9499Y28772D01*
G01X9499Y28772D02*
G01X9681Y28590D01*
G01X9681Y28590D02*
G01X9863Y28500D01*
G01X9863Y28500D02*
G01X10227Y28500D01*
G01X10227Y28500D02*
G01X10409Y28590D01*
G01X10409Y28590D02*
G01X10590Y28772D01*
G01X10590Y28772D02*
G01X10681Y28954D01*
G01X10681Y28954D02*
G01X10772Y29227D01*
G01X10772Y29227D02*
G01X10772Y29681D01*
G01X10772Y29681D02*
G01X10681Y29954D01*
G01X10681Y29954D02*
G01X10590Y30136D01*
G01X10590Y30136D02*
G01X10409Y30318D01*
G01X10409Y30318D02*
G01X10227Y30409D01*
G01X10227Y30409D02*
G01X9863Y30409D01*
G01X11499Y30409D02*
G01X11499Y28500D01*
G01X11499Y30409D02*
G01X12227Y28500D01*
G01X12954Y30409D02*
G01X12227Y28500D01*
G01X12954Y30409D02*
G01X12954Y28500D01*
G54D12*
G01X16227Y28977D02*
G01X16227Y28613D01*
G01X16227Y28613D02*
G01X16204Y28545D01*
G01X16204Y28545D02*
G01X16181Y28522D01*
G01X16181Y28522D02*
G01X16136Y28500D01*
G01X16136Y28500D02*
G01X16090Y28500D01*
G01X16090Y28500D02*
G01X16045Y28522D01*
G01X16045Y28522D02*
G01X16022Y28545D01*
G01X16022Y28545D02*
G01X16000Y28613D01*
G01X16000Y28613D02*
G01X16000Y28659D01*
G01X16431Y28545D02*
G01X16409Y28522D01*
G01X16409Y28522D02*
G01X16431Y28500D01*
G01X16431Y28500D02*
G01X16454Y28522D01*
G01X16454Y28522D02*
G01X16431Y28545D01*
G01X17340Y28863D02*
G01X17318Y28909D01*
G01X17318Y28909D02*
G01X17272Y28954D01*
G01X17272Y28954D02*
G01X17227Y28977D01*
G01X17227Y28977D02*
G01X17136Y28977D01*
G01X17136Y28977D02*
G01X17090Y28954D01*
G01X17090Y28954D02*
G01X17045Y28909D01*
G01X17045Y28909D02*
G01X17022Y28863D01*
G01X17022Y28863D02*
G01X17000Y28795D01*
G01X17000Y28795D02*
G01X17000Y28681D01*
G01X17000Y28681D02*
G01X17022Y28613D01*
G01X17022Y28613D02*
G01X17045Y28568D01*
G01X17045Y28568D02*
G01X17090Y28522D01*
G01X17090Y28522D02*
G01X17136Y28500D01*
G01X17136Y28500D02*
G01X17227Y28500D01*
G01X17227Y28500D02*
G01X17272Y28522D01*
G01X17272Y28522D02*
G01X17318Y28568D01*
G01X17318Y28568D02*
G01X17340Y28613D01*
G01X17636Y28818D02*
G01X17590Y28795D01*
G01X17590Y28795D02*
G01X17545Y28750D01*
G01X17545Y28750D02*
G01X17522Y28681D01*
G01X17522Y28681D02*
G01X17522Y28636D01*
G01X17522Y28636D02*
G01X17545Y28568D01*
G01X17545Y28568D02*
G01X17590Y28522D01*
G01X17590Y28522D02*
G01X17636Y28500D01*
G01X17636Y28500D02*
G01X17704Y28500D01*
G01X17704Y28500D02*
G01X17749Y28522D01*
G01X17749Y28522D02*
G01X17795Y28568D01*
G01X17795Y28568D02*
G01X17818Y28636D01*
G01X17818Y28636D02*
G01X17818Y28681D01*
G01X17818Y28681D02*
G01X17795Y28750D01*
G01X17795Y28750D02*
G01X17749Y28795D01*
G01X17749Y28795D02*
G01X17704Y28818D01*
G01X17704Y28818D02*
G01X17636Y28818D01*
G01X18000Y28818D02*
G01X18000Y28500D01*
G01X18000Y28727D02*
G01X18068Y28795D01*
G01X18068Y28795D02*
G01X18113Y28818D01*
G01X18113Y28818D02*
G01X18181Y28818D01*
G01X18181Y28818D02*
G01X18227Y28795D01*
G01X18227Y28795D02*
G01X18250Y28727D01*
G01X18250Y28727D02*
G01X18250Y28500D01*
G01X18431Y28818D02*
G01X18431Y28500D01*
G01X18431Y28727D02*
G01X18499Y28795D01*
G01X18499Y28795D02*
G01X18545Y28818D01*
G01X18545Y28818D02*
G01X18613Y28818D01*
G01X18613Y28818D02*
G01X18659Y28795D01*
G01X18659Y28795D02*
G01X18681Y28727D01*
G01X18681Y28727D02*
G01X18681Y28500D01*
G01X18863Y28681D02*
G01X19136Y28681D01*
G01X19136Y28681D02*
G01X19136Y28727D01*
G01X19136Y28727D02*
G01X19113Y28772D01*
G01X19113Y28772D02*
G01X19090Y28795D01*
G01X19090Y28795D02*
G01X19045Y28818D01*
G01X19045Y28818D02*
G01X18977Y28818D01*
G01X18977Y28818D02*
G01X18931Y28795D01*
G01X18931Y28795D02*
G01X18886Y28750D01*
G01X18886Y28750D02*
G01X18863Y28681D01*
G01X18863Y28681D02*
G01X18863Y28636D01*
G01X18863Y28636D02*
G01X18886Y28568D01*
G01X18886Y28568D02*
G01X18931Y28522D01*
G01X18931Y28522D02*
G01X18977Y28500D01*
G01X18977Y28500D02*
G01X19045Y28500D01*
G01X19045Y28500D02*
G01X19090Y28522D01*
G01X19090Y28522D02*
G01X19136Y28568D01*
G01X19318Y28977D02*
G01X19318Y28500D01*
G01X19500Y28977D02*
G01X19500Y28500D01*
G01X19704Y28818D02*
G01X19840Y28500D01*
G01X19977Y28818D02*
G01X19840Y28500D01*
G01X19840Y28500D02*
G01X19795Y28409D01*
G01X19795Y28409D02*
G01X19749Y28363D01*
G01X19749Y28363D02*
G01X19704Y28340D01*
G01X19704Y28340D02*
G01X19681Y28340D01*
G01X20204Y28522D02*
G01X20181Y28500D01*
G01X20181Y28500D02*
G01X20159Y28522D01*
G01X20159Y28522D02*
G01X20181Y28545D01*
G01X20181Y28545D02*
G01X20204Y28522D01*
G01X20204Y28522D02*
G01X20204Y28477D01*
G01X20204Y28477D02*
G01X20181Y28431D01*
G01X20181Y28431D02*
G01X20159Y28409D01*
G01X21090Y28863D02*
G01X21068Y28909D01*
G01X21068Y28909D02*
G01X21022Y28954D01*
G01X21022Y28954D02*
G01X20977Y28977D01*
G01X20977Y28977D02*
G01X20886Y28977D01*
G01X20886Y28977D02*
G01X20840Y28954D01*
G01X20840Y28954D02*
G01X20795Y28909D01*
G01X20795Y28909D02*
G01X20772Y28863D01*
G01X20772Y28863D02*
G01X20749Y28795D01*
G01X20749Y28795D02*
G01X20749Y28681D01*
G01X20749Y28681D02*
G01X20772Y28613D01*
G01X20772Y28613D02*
G01X20795Y28568D01*
G01X20795Y28568D02*
G01X20840Y28522D01*
G01X20840Y28522D02*
G01X20886Y28500D01*
G01X20886Y28500D02*
G01X20977Y28500D01*
G01X20977Y28500D02*
G01X21022Y28522D01*
G01X21022Y28522D02*
G01X21068Y28568D01*
G01X21068Y28568D02*
G01X21090Y28613D01*
G01X21295Y28545D02*
G01X21272Y28522D01*
G01X21272Y28522D02*
G01X21295Y28500D01*
G01X21295Y28500D02*
G01X21318Y28522D01*
G01X21318Y28522D02*
G01X21295Y28545D01*
G01X21863Y28977D02*
G01X21863Y28500D01*
G01X21863Y28977D02*
G01X22068Y28977D01*
G01X22068Y28977D02*
G01X22136Y28954D01*
G01X22136Y28954D02*
G01X22159Y28931D01*
G01X22159Y28931D02*
G01X22181Y28886D01*
G01X22181Y28886D02*
G01X22181Y28818D01*
G01X22181Y28818D02*
G01X22159Y28772D01*
G01X22159Y28772D02*
G01X22136Y28750D01*
G01X22136Y28750D02*
G01X22068Y28727D01*
G01X22068Y28727D02*
G01X21863Y28727D01*
G01X22636Y28818D02*
G01X22636Y28500D01*
G01X22636Y28750D02*
G01X22590Y28795D01*
G01X22590Y28795D02*
G01X22545Y28818D01*
G01X22545Y28818D02*
G01X22477Y28818D01*
G01X22477Y28818D02*
G01X22431Y28795D01*
G01X22431Y28795D02*
G01X22386Y28750D01*
G01X22386Y28750D02*
G01X22363Y28681D01*
G01X22363Y28681D02*
G01X22363Y28636D01*
G01X22363Y28636D02*
G01X22386Y28568D01*
G01X22386Y28568D02*
G01X22431Y28522D01*
G01X22431Y28522D02*
G01X22477Y28500D01*
G01X22477Y28500D02*
G01X22545Y28500D01*
G01X22545Y28500D02*
G01X22590Y28522D01*
G01X22590Y28522D02*
G01X22636Y28568D01*
G01X22886Y28977D02*
G01X22886Y28590D01*
G01X22886Y28590D02*
G01X22909Y28522D01*
G01X22909Y28522D02*
G01X22954Y28500D01*
G01X22954Y28500D02*
G01X22999Y28500D01*
G01X22818Y28818D02*
G01X22977Y28818D01*
G01X23181Y28681D02*
G01X23454Y28681D01*
G01X23454Y28681D02*
G01X23454Y28727D01*
G01X23454Y28727D02*
G01X23431Y28772D01*
G01X23431Y28772D02*
G01X23409Y28795D01*
G01X23409Y28795D02*
G01X23363Y28818D01*
G01X23363Y28818D02*
G01X23295Y28818D01*
G01X23295Y28818D02*
G01X23249Y28795D01*
G01X23249Y28795D02*
G01X23204Y28750D01*
G01X23204Y28750D02*
G01X23181Y28681D01*
G01X23181Y28681D02*
G01X23181Y28636D01*
G01X23181Y28636D02*
G01X23204Y28568D01*
G01X23204Y28568D02*
G01X23249Y28522D01*
G01X23249Y28522D02*
G01X23295Y28500D01*
G01X23295Y28500D02*
G01X23363Y28500D01*
G01X23363Y28500D02*
G01X23409Y28522D01*
G01X23409Y28522D02*
G01X23454Y28568D01*
G01X23636Y28977D02*
G01X23636Y28500D01*
G01X23863Y28522D02*
G01X23840Y28500D01*
G01X23840Y28500D02*
G01X23818Y28522D01*
G01X23818Y28522D02*
G01X23840Y28545D01*
G01X23840Y28545D02*
G01X23863Y28522D01*
G01X23863Y28522D02*
G01X23863Y28477D01*
G01X23863Y28477D02*
G01X23840Y28431D01*
G01X23840Y28431D02*
G01X23818Y28409D01*
G01X24590Y28977D02*
G01X24409Y28500D01*
G01X24590Y28977D02*
G01X24772Y28500D01*
G01X24477Y28659D02*
G01X24704Y28659D01*
G01X24977Y28545D02*
G01X24954Y28522D01*
G01X24954Y28522D02*
G01X24977Y28500D01*
G01X24977Y28500D02*
G01X24999Y28522D01*
G01X24999Y28522D02*
G01X24977Y28545D01*
G01X25886Y28863D02*
G01X25863Y28909D01*
G01X25863Y28909D02*
G01X25818Y28954D01*
G01X25818Y28954D02*
G01X25772Y28977D01*
G01X25772Y28977D02*
G01X25681Y28977D01*
G01X25681Y28977D02*
G01X25636Y28954D01*
G01X25636Y28954D02*
G01X25590Y28909D01*
G01X25590Y28909D02*
G01X25568Y28863D01*
G01X25568Y28863D02*
G01X25545Y28795D01*
G01X25545Y28795D02*
G01X25545Y28681D01*
G01X25545Y28681D02*
G01X25568Y28613D01*
G01X25568Y28613D02*
G01X25590Y28568D01*
G01X25590Y28568D02*
G01X25636Y28522D01*
G01X25636Y28522D02*
G01X25681Y28500D01*
G01X25681Y28500D02*
G01X25772Y28500D01*
G01X25772Y28500D02*
G01X25818Y28522D01*
G01X25818Y28522D02*
G01X25863Y28568D01*
G01X25863Y28568D02*
G01X25886Y28613D01*
G01X26068Y28977D02*
G01X26068Y28500D01*
G01X26068Y28727D02*
G01X26136Y28795D01*
G01X26136Y28795D02*
G01X26181Y28818D01*
G01X26181Y28818D02*
G01X26249Y28818D01*
G01X26249Y28818D02*
G01X26295Y28795D01*
G01X26295Y28795D02*
G01X26318Y28727D01*
G01X26318Y28727D02*
G01X26318Y28500D01*
G01X26772Y28818D02*
G01X26772Y28500D01*
G01X26772Y28750D02*
G01X26727Y28795D01*
G01X26727Y28795D02*
G01X26681Y28818D01*
G01X26681Y28818D02*
G01X26613Y28818D01*
G01X26613Y28818D02*
G01X26568Y28795D01*
G01X26568Y28795D02*
G01X26522Y28750D01*
G01X26522Y28750D02*
G01X26500Y28681D01*
G01X26500Y28681D02*
G01X26500Y28636D01*
G01X26500Y28636D02*
G01X26522Y28568D01*
G01X26522Y28568D02*
G01X26568Y28522D01*
G01X26568Y28522D02*
G01X26613Y28500D01*
G01X26613Y28500D02*
G01X26681Y28500D01*
G01X26681Y28500D02*
G01X26727Y28522D01*
G01X26727Y28522D02*
G01X26772Y28568D01*
G01X26954Y28818D02*
G01X27090Y28500D01*
G01X27227Y28818D02*
G01X27090Y28500D01*
G01X27409Y28681D02*
G01X27681Y28681D01*
G01X27681Y28681D02*
G01X27681Y28727D01*
G01X27681Y28727D02*
G01X27659Y28772D01*
G01X27659Y28772D02*
G01X27636Y28795D01*
G01X27636Y28795D02*
G01X27590Y28818D01*
G01X27590Y28818D02*
G01X27522Y28818D01*
G01X27522Y28818D02*
G01X27477Y28795D01*
G01X27477Y28795D02*
G01X27431Y28750D01*
G01X27431Y28750D02*
G01X27409Y28681D01*
G01X27409Y28681D02*
G01X27409Y28636D01*
G01X27409Y28636D02*
G01X27431Y28568D01*
G01X27431Y28568D02*
G01X27477Y28522D01*
G01X27477Y28522D02*
G01X27522Y28500D01*
G01X27522Y28500D02*
G01X27590Y28500D01*
G01X27590Y28500D02*
G01X27636Y28522D01*
G01X27636Y28522D02*
G01X27681Y28568D01*
G01X28113Y28818D02*
G01X27863Y28500D01*
G01X27863Y28818D02*
G01X28113Y28818D01*
G01X27863Y28500D02*
G01X28113Y28500D01*
M00*
M02*
