G04 FreePCB version 1.343*
G04 Z:\trinary\code\bb\swrom-blank-CAM\top_copper.grb*
G04 top copper layer *
G04 Scale: 100 percent, Rotated: No, Reflected: No *
%FSLAX24Y24*%
%MOIN*%
%LNTop*%
%ADD10C,0.005000*%
%ADD11R,0.055000X0.055000*%
%ADD12C,0.055000*%
%ADD13C,0.075000*%
%ADD14R,0.050000X0.050000*%
%ADD15C,0.050000*%
%ADD16C,0.010000*%
%ADD17C,0.028000*%
%ADD18C,0.020000*%
G90*
G70D02*

G04 Step and Repeat for panelization *

G04 ----------------------- Draw board outline (positive)*
%LPD*%
G54D10*
G01X-29000Y31500D02*
G01X-29000Y-29500D01*
G04 end of side 1*
G01X29500Y-29500D01*
G04 end of side 2*
G01X29500Y31500D01*
G04 end of side 3*
G01X-29000Y31500D01*

G04 -------------- Draw Parts, Pads, Traces, Vias and Text (positive)*
%LPD*%
G04 Draw part X_IC_0_CD4007*
G54D11*
G01X-13000Y-27000D03*
G54D12*
G01X-12000Y-27000D03*
G01X-11000Y-27000D03*
G01X-10000Y-27000D03*
G01X-9000Y-27000D03*
G01X-8000Y-27000D03*
G01X-7000Y-27000D03*
G01X-7000Y-24000D03*
G01X-8000Y-24000D03*
G01X-9000Y-24000D03*
G01X-10000Y-24000D03*
G01X-11000Y-24000D03*
G01X-12000Y-24000D03*
G01X-13000Y-24000D03*
G04 Draw part X_IC_1_CD4007*
G54D11*
G01X6300Y-28000D03*
G54D12*
G01X7300Y-28000D03*
G01X8300Y-28000D03*
G01X9300Y-28000D03*
G01X10300Y-28000D03*
G01X11300Y-28000D03*
G01X12300Y-28000D03*
G01X12300Y-25000D03*
G01X11300Y-25000D03*
G01X10300Y-25000D03*
G01X9300Y-25000D03*
G01X8300Y-25000D03*
G01X7300Y-25000D03*
G01X6300Y-25000D03*
G04 Draw part X_IC_2_CD4007*
G54D11*
G01X6000Y-14000D03*
G54D12*
G01X7000Y-14000D03*
G01X8000Y-14000D03*
G01X9000Y-14000D03*
G01X10000Y-14000D03*
G01X11000Y-14000D03*
G01X12000Y-14000D03*
G01X12000Y-11000D03*
G01X11000Y-11000D03*
G01X10000Y-11000D03*
G01X9000Y-11000D03*
G01X8000Y-11000D03*
G01X7000Y-11000D03*
G01X6000Y-11000D03*
G04 Draw part X_IC_3_CD4007*
G54D11*
G01X20000Y23000D03*
G54D12*
G01X21000Y23000D03*
G01X22000Y23000D03*
G01X23000Y23000D03*
G01X24000Y23000D03*
G01X25000Y23000D03*
G01X26000Y23000D03*
G01X26000Y26000D03*
G01X25000Y26000D03*
G01X24000Y26000D03*
G01X23000Y26000D03*
G01X22000Y26000D03*
G01X21000Y26000D03*
G01X20000Y26000D03*
G04 Draw part X_IC_4_CD4007*
G54D11*
G01X6100Y11800D03*
G54D12*
G01X7100Y11800D03*
G01X8100Y11800D03*
G01X9100Y11800D03*
G01X10100Y11800D03*
G01X11100Y11800D03*
G01X12100Y11800D03*
G01X12100Y14800D03*
G01X11100Y14800D03*
G01X10100Y14800D03*
G01X9100Y14800D03*
G01X8100Y14800D03*
G01X7100Y14800D03*
G01X6100Y14800D03*
G04 Draw part X_IC_5_CD4007*
G54D11*
G01X-13000Y24000D03*
G54D12*
G01X-12000Y24000D03*
G01X-11000Y24000D03*
G01X-10000Y24000D03*
G01X-9000Y24000D03*
G01X-8000Y24000D03*
G01X-7000Y24000D03*
G01X-7000Y27000D03*
G01X-8000Y27000D03*
G01X-9000Y27000D03*
G01X-10000Y27000D03*
G01X-11000Y27000D03*
G01X-12000Y27000D03*
G01X-13000Y27000D03*
G04 Draw part X_IC_6_CD4007*
G54D11*
G01X21400Y-500D03*
G54D12*
G01X22400Y-500D03*
G01X23400Y-500D03*
G01X24400Y-500D03*
G01X25400Y-500D03*
G01X26400Y-500D03*
G01X27400Y-500D03*
G01X27400Y2500D03*
G01X26400Y2500D03*
G01X25400Y2500D03*
G01X24400Y2500D03*
G01X23400Y2500D03*
G01X22400Y2500D03*
G01X21400Y2500D03*
G04 Draw part X_IC_7_CD4007*
G54D11*
G01X21800Y-14600D03*
G54D12*
G01X22800Y-14600D03*
G01X23800Y-14600D03*
G01X24800Y-14600D03*
G01X25800Y-14600D03*
G01X26800Y-14600D03*
G01X27800Y-14600D03*
G01X27800Y-11600D03*
G01X26800Y-11600D03*
G01X25800Y-11600D03*
G01X24800Y-11600D03*
G01X23800Y-11600D03*
G01X22800Y-11600D03*
G01X21800Y-11600D03*
G04 Draw part X_IC_8_CD4007*
G54D11*
G01X22000Y12000D03*
G54D12*
G01X23000Y12000D03*
G01X24000Y12000D03*
G01X25000Y12000D03*
G01X26000Y12000D03*
G01X27000Y12000D03*
G01X28000Y12000D03*
G01X28000Y15000D03*
G01X27000Y15000D03*
G01X26000Y15000D03*
G01X25000Y15000D03*
G01X24000Y15000D03*
G01X23000Y15000D03*
G01X22000Y15000D03*
G04 Draw part X_IC_9_CD4007*
G54D11*
G01X-13000Y-14000D03*
G54D12*
G01X-12000Y-14000D03*
G01X-11000Y-14000D03*
G01X-10000Y-14000D03*
G01X-9000Y-14000D03*
G01X-8000Y-14000D03*
G01X-7000Y-14000D03*
G01X-7000Y-11000D03*
G01X-8000Y-11000D03*
G01X-9000Y-11000D03*
G01X-10000Y-11000D03*
G01X-11000Y-11000D03*
G01X-12000Y-11000D03*
G01X-13000Y-11000D03*
G04 Draw part X_IC_10_CD4007*
G54D11*
G01X-13400Y-300D03*
G54D12*
G01X-12400Y-300D03*
G01X-11400Y-300D03*
G01X-10400Y-300D03*
G01X-9400Y-300D03*
G01X-8400Y-300D03*
G01X-7400Y-300D03*
G01X-7400Y2700D03*
G01X-8400Y2700D03*
G01X-9400Y2700D03*
G01X-10400Y2700D03*
G01X-11400Y2700D03*
G01X-12400Y2700D03*
G01X-13400Y2700D03*
G04 Draw part X_IC_11_CD4007*
G54D11*
G01X-13700Y12200D03*
G54D12*
G01X-12700Y12200D03*
G01X-11700Y12200D03*
G01X-10700Y12200D03*
G01X-9700Y12200D03*
G01X-8700Y12200D03*
G01X-7700Y12200D03*
G01X-7700Y15200D03*
G01X-8700Y15200D03*
G01X-9700Y15200D03*
G01X-10700Y15200D03*
G01X-11700Y15200D03*
G01X-12700Y15200D03*
G01X-13700Y15200D03*
G04 Draw part X_IC_15_CD4016*
G54D11*
G01X-26000Y24000D03*
G54D12*
G01X-25000Y24000D03*
G01X-24000Y24000D03*
G01X-23000Y24000D03*
G01X-22000Y24000D03*
G01X-21000Y24000D03*
G01X-20000Y24000D03*
G01X-20000Y27000D03*
G01X-21000Y27000D03*
G01X-22000Y27000D03*
G01X-23000Y27000D03*
G01X-24000Y27000D03*
G01X-25000Y27000D03*
G01X-26000Y27000D03*
G04 Draw part X_IC_16_CD4016*
G54D11*
G01X6000Y0D03*
G54D12*
G01X7000Y0D03*
G01X8000Y0D03*
G01X9000Y0D03*
G01X10000Y0D03*
G01X11000Y0D03*
G01X12000Y0D03*
G01X12000Y3000D03*
G01X11000Y3000D03*
G01X10000Y3000D03*
G01X9000Y3000D03*
G01X8000Y3000D03*
G01X7000Y3000D03*
G01X6000Y3000D03*
G04 Draw part X_IC_17_CD4016*
G54D11*
G01X6000Y24000D03*
G54D12*
G01X7000Y24000D03*
G01X8000Y24000D03*
G01X9000Y24000D03*
G01X10000Y24000D03*
G01X11000Y24000D03*
G01X12000Y24000D03*
G01X12000Y27000D03*
G01X11000Y27000D03*
G01X10000Y27000D03*
G01X9000Y27000D03*
G01X8000Y27000D03*
G01X7000Y27000D03*
G01X6000Y27000D03*
G04 Draw part R1*
G54D13*
G01X-3000Y-21000D03*
G01X-3000Y-26000D03*
G04 Draw part R2*
G01X2000Y-26000D03*
G01X2000Y-21000D03*
G04 Draw part R3*
G01X-13000Y-19000D03*
G01X-8000Y-19000D03*
G04 Draw part R4*
G01X-12900Y-20700D03*
G01X-7900Y-20700D03*
G04 Draw part R5*
G01X1000Y12200D03*
G01X1000Y7200D03*
G04 Draw part R6*
G01X1000Y3000D03*
G01X1000Y-2000D03*
G04 Draw part R7*
G01X-2000Y18000D03*
G01X-2000Y13000D03*
G04 Draw part R8*
G01X7000Y-20900D03*
G01X12000Y-20900D03*
G04 Draw part R9*
G01X16000Y-15000D03*
G01X16000Y-10000D03*
G04 Draw part R10*
G01X7000Y-19000D03*
G01X12000Y-19000D03*
G04 Draw part R11*
G01X7000Y-7000D03*
G01X12000Y-7000D03*
G04 Draw part R12*
G01X7000Y-4000D03*
G01X12000Y-4000D03*
G04 Draw part R13*
G01X1000Y-7000D03*
G01X1000Y-12000D03*
G04 Draw part R14*
G01X16000Y-1000D03*
G01X16000Y-6000D03*
G04 Draw part R15*
G01X16000Y16000D03*
G01X16000Y11000D03*
G04 Draw part R16*
G01X7100Y19500D03*
G01X12100Y19500D03*
G04 Draw part R17*
G01X7000Y7000D03*
G01X12000Y7000D03*
G04 Draw part R18*
G01X7000Y9000D03*
G01X12000Y9000D03*
G04 Draw part R19*
G01X-13000Y17000D03*
G01X-8000Y17000D03*
G04 Draw part R20*
G01X-13000Y20000D03*
G01X-8000Y20000D03*
G04 Draw part R21*
G01X-3000Y23000D03*
G01X2000Y23000D03*
G04 Draw part R22*
G01X16000Y23000D03*
G01X16000Y18000D03*
G04 Draw part R23*
G01X22000Y8000D03*
G01X27000Y8000D03*
G04 Draw part R24*
G01X23000Y18000D03*
G01X28000Y18000D03*
G04 Draw part R25*
G01X22200Y-8100D03*
G01X27200Y-8100D03*
G04 Draw part R26*
G01X16000Y-17000D03*
G01X16000Y-22000D03*
G04 Draw part R27*
G01X1000Y19000D03*
G01X1000Y14000D03*
G04 Draw part R28*
G01X22100Y-5600D03*
G01X27100Y-5600D03*
G04 Draw part R29*
G01X19000Y13000D03*
G01X19000Y8000D03*
G04 Draw part R30*
G01X23000Y20000D03*
G01X28000Y20000D03*
G04 Draw part R31*
G01X-3000Y26000D03*
G01X2000Y26000D03*
G04 Draw part R32*
G01X16000Y7000D03*
G01X16000Y2000D03*
G04 Draw part R33*
G01X-12000Y-7000D03*
G01X-7000Y-7000D03*
G04 Draw part R34*
G01X22000Y6000D03*
G01X27000Y6000D03*
G04 Draw part R35*
G01X-3000Y-18000D03*
G01X2000Y-18000D03*
G04 Draw part R36*
G01X-3000Y-15000D03*
G01X2000Y-15000D03*
G04 Draw part R37*
G01X-13000Y6300D03*
G01X-8000Y6300D03*
G04 Draw part R38*
G01X-12000Y-5000D03*
G01X-7000Y-5000D03*
G04 Draw part R39*
G01X-13000Y8600D03*
G01X-8000Y8600D03*
G04 Draw part R40*
G01X-2000Y12000D03*
G01X-2000Y7000D03*
G04 Draw part R41*
G01X-2000Y-7000D03*
G01X-2000Y-12000D03*
G04 Draw part R42*
G01X-2000Y3000D03*
G01X-2000Y-2000D03*
G04 Draw part X$XXiA$XXsw*
G01X-27200Y20100D03*
G01X-26200Y20100D03*
G01X-25200Y20100D03*
G01X-23200Y20100D03*
G04 Draw part X$XXiB$XXsw*
G01X-27200Y15100D03*
G01X-26200Y15100D03*
G01X-25200Y15100D03*
G01X-23200Y15100D03*
G04 Draw part X$XXiC$XXsw*
G01X-27200Y10100D03*
G01X-26200Y10100D03*
G01X-25200Y10100D03*
G01X-23200Y10100D03*
G04 Draw part X$XX0A$XXsw*
G01X-27200Y2600D03*
G01X-26200Y2600D03*
G01X-25200Y2600D03*
G01X-23200Y2600D03*
G04 Draw part X$XX0B$XXsw*
G01X-27200Y-2400D03*
G01X-26200Y-2400D03*
G01X-25200Y-2400D03*
G01X-23200Y-2400D03*
G04 Draw part X$XX0C$XXsw*
G01X-27200Y-7400D03*
G01X-26200Y-7400D03*
G01X-25200Y-7400D03*
G01X-23200Y-7400D03*
G04 Draw part X$XX1A$XXsw*
G01X-27200Y-14900D03*
G01X-26200Y-14900D03*
G01X-25200Y-14900D03*
G01X-23200Y-14900D03*
G04 Draw part X$XX1B$XXsw*
G01X-27200Y-19900D03*
G01X-26200Y-19900D03*
G01X-25200Y-19900D03*
G01X-23200Y-19900D03*
G04 Draw part X$XX1C$XXsw*
G01X-27200Y-24900D03*
G01X-26200Y-24900D03*
G01X-25200Y-24900D03*
G01X-23200Y-24900D03*
G04 Draw part V$XX1$Vdd*
G54D14*
G01X23000Y-26000D03*
G54D15*
G01X23000Y-27000D03*
G04 Draw part V$XX1$Vss*
G54D14*
G01X19000Y-27000D03*
G54D15*
G01X19000Y-26000D03*
G04 Draw part DATA_AND_ADDR*
G54D14*
G01X23000Y-20000D03*
G54D15*
G01X24000Y-20000D03*
G01X23000Y-21000D03*
G01X24000Y-21000D03*
G01X23000Y-22000D03*
G01X24000Y-22000D03*
G01X23000Y-23000D03*
G01X24000Y-23000D03*

G04 Draw traces*
G54D16*
G01X16000Y18000D02*
G01X15876Y17876D01*
G01X15876Y17876D02*
G01X868Y17876D01*
G01X868Y17876D02*
G01X-5680Y24425D01*
G01X-5680Y24425D02*
G01X-8574Y24425D01*
G01X-8574Y24425D02*
G01X-9000Y24000D01*
G01X16000Y-10000D02*
G01X18637Y-10000D01*
G01X18637Y-10000D02*
G01X22898Y-5739D01*
G54D17*
G01X22898Y-5739D03*
G54D16*
G01X7000Y-19000D02*
G01X7625Y-19000D01*
G01X7625Y-19000D02*
G01X16000Y-10625D01*
G01X16000Y-10625D02*
G01X16000Y-10000D01*
G01X-24000Y27000D02*
G01X-23574Y27425D01*
G01X-23574Y27425D02*
G01X-7425Y27425D01*
G01X-7425Y27425D02*
G01X-7000Y27000D01*
G01X-3000Y23000D02*
G01X-4775Y24775D01*
G01X-4775Y24775D02*
G01X-11906Y24775D01*
G01X-11906Y24775D02*
G01X-12574Y24106D01*
G01X-12574Y24106D02*
G01X-12574Y24000D01*
G01X-12574Y24000D02*
G01X-13000Y24000D01*
G01X-3000Y23000D02*
G01X-3000Y22239D01*
G01X-3000Y22239D02*
G01X1013Y18226D01*
G01X1013Y18226D02*
G01X2080Y18226D01*
G54D17*
G01X2080Y18226D03*
G54D16*
G01X-2000Y-12000D02*
G01X-9000Y-12000D01*
G01X-9000Y-12000D02*
G01X-11000Y-14000D01*
G01X1000Y14000D02*
G01X-7986Y22986D01*
G01X-7986Y22986D02*
G01X-9986Y22986D01*
G01X-9986Y22986D02*
G01X-11000Y24000D01*
G01X22100Y-5600D02*
G01X19167Y-2667D01*
G01X19167Y-2667D02*
G01X13603Y-2667D01*
G54D17*
G01X13603Y-2667D03*
G54D16*
G01X23000Y20000D02*
G01X24500Y18500D01*
G01X24500Y18500D02*
G01X24500Y11876D01*
G01X24500Y11876D02*
G01X20623Y8000D01*
G01X20623Y8000D02*
G01X19000Y8000D01*
G01X-12900Y-20700D02*
G01X-11200Y-19000D01*
G01X-11200Y-19000D02*
G01X-8000Y-19000D01*
G01X16000Y-1000D02*
G01X14222Y-1000D01*
G01X14222Y-1000D02*
G01X3222Y-12000D01*
G01X3222Y-12000D02*
G01X1000Y-12000D01*
G01X-26000Y24000D02*
G01X-26000Y22900D01*
G01X-26000Y22900D02*
G01X-23200Y20100D01*
G01X2000Y-21000D02*
G01X-1000Y-24000D01*
G01X-1000Y-24000D02*
G01X-7000Y-24000D01*
G01X16000Y23000D02*
G01X2000Y23000D01*
G01X2000Y-15000D02*
G01X531Y-13531D01*
G01X531Y-13531D02*
G01X-8531Y-13531D01*
G01X-8531Y-13531D02*
G01X-9000Y-14000D01*
G01X16000Y-17000D02*
G01X16000Y-16777D01*
G01X16000Y-16777D02*
G01X24677Y-8100D01*
G01X24677Y-8100D02*
G01X27200Y-8100D01*
G01X12000Y3000D02*
G01X11219Y2219D01*
G01X11219Y2219D02*
G01X-15319Y2219D01*
G01X-15319Y2219D02*
G01X-23200Y10100D01*
G01X2000Y-26000D02*
G01X-3000Y-26000D01*
G01X-8000Y6300D02*
G01X-11700Y10000D01*
G01X-11700Y10000D02*
G01X-11700Y12200D01*
G01X7000Y-7000D02*
G01X13166Y-833D01*
G54D17*
G01X13166Y-833D03*
G54D16*
G01X11000Y0D02*
G01X9116Y-1883D01*
G01X9116Y-1883D02*
G01X8338Y-1883D01*
G01X8338Y-1883D02*
G01X-778Y-11000D01*
G01X-778Y-11000D02*
G01X-7000Y-11000D01*
G01X27000Y6000D02*
G01X24294Y6000D01*
G01X24294Y6000D02*
G01X18922Y627D01*
G01X18922Y627D02*
G01X11627Y627D01*
G01X11627Y627D02*
G01X11000Y0D01*
G01X-3000Y-15000D02*
G01X0Y-18000D01*
G01X0Y-18000D02*
G01X2000Y-18000D01*
G01X-3000Y-18000D02*
G01X-8681Y-18000D01*
G01X-8681Y-18000D02*
G01X-12574Y-14106D01*
G01X-12574Y-14106D02*
G01X-12574Y-14000D01*
G01X-12574Y-14000D02*
G01X-13000Y-14000D01*
G01X-12000Y-24000D02*
G01X-11734Y-24000D01*
G01X-11734Y-24000D02*
G01X-11688Y-24045D01*
G01X-11688Y-24045D02*
G01X-11000Y-24734D01*
G01X-11000Y-24734D02*
G01X-11000Y-27000D01*
G01X-3000Y-21000D02*
G01X-4232Y-22232D01*
G01X-4232Y-22232D02*
G01X-9875Y-22232D01*
G01X-9875Y-22232D02*
G01X-11688Y-24045D01*
G01X16000Y16000D02*
G01X8300Y16000D01*
G01X8300Y16000D02*
G01X7100Y14800D01*
G54D18*
G01X-10700Y12200D02*
G01X-11700Y13200D01*
G01X-11700Y13200D02*
G01X-25300Y13200D01*
G01X-25300Y13200D02*
G01X-27124Y15024D01*
G01X-27124Y15024D02*
G01X-27124Y15100D01*
G01X-27124Y15100D02*
G01X-27124Y18922D01*
G01X-27124Y18922D02*
G01X-26573Y19473D01*
G01X-26573Y19473D02*
G01X-27200Y20100D01*
G01X-7000Y-27000D02*
G01X-7500Y-26499D01*
G01X-7500Y-26499D02*
G01X-9499Y-26499D01*
G01X-9499Y-26499D02*
G01X-10000Y-27000D01*
G01X12300Y-28000D02*
G01X11812Y-27512D01*
G01X11812Y-27512D02*
G01X10046Y-27512D01*
G01X10046Y-27512D02*
G01X9558Y-28000D01*
G01X9558Y-28000D02*
G01X9300Y-28000D01*
G01X-7000Y-14000D02*
G01X-2862Y-14000D01*
G01X-2862Y-14000D02*
G01X-1246Y-15615D01*
G01X-1246Y-15615D02*
G01X2274Y-15615D01*
G01X2274Y-15615D02*
G01X4390Y-13499D01*
G01X4390Y-13499D02*
G01X8499Y-13499D01*
G01X8499Y-13499D02*
G01X9000Y-14000D01*
G01X12000Y-14000D02*
G01X11524Y-13524D01*
G01X11524Y-13524D02*
G01X9475Y-13524D01*
G01X9475Y-13524D02*
G01X9000Y-14000D01*
G01X26000Y23000D02*
G01X25512Y23487D01*
G01X25512Y23487D02*
G01X23487Y23487D01*
G01X23487Y23487D02*
G01X23000Y23000D01*
G01X12000Y24000D02*
G01X22000Y24000D01*
G01X22000Y24000D02*
G01X23000Y23000D01*
G01X28000Y12000D02*
G01X27499Y12500D01*
G01X27499Y12500D02*
G01X25500Y12500D01*
G01X25500Y12500D02*
G01X25500Y22500D01*
G01X25500Y22500D02*
G01X26000Y23000D01*
G01X12100Y11800D02*
G01X11599Y12300D01*
G01X11599Y12300D02*
G01X9600Y12300D01*
G01X9600Y12300D02*
G01X9100Y11800D01*
G01X-7000Y24000D02*
G01X-7483Y23516D01*
G01X-7483Y23516D02*
G01X-9516Y23516D01*
G01X-9516Y23516D02*
G01X-10000Y24000D01*
G01X27400Y-500D02*
G01X26899Y0D01*
G01X26899Y0D02*
G01X24900Y0D01*
G01X24900Y0D02*
G01X24400Y-500D01*
G01X12000Y0D02*
G01X23900Y0D01*
G01X23900Y0D02*
G01X24400Y-500D01*
G01X19000Y-26000D02*
G01X19000Y-25353D01*
G01X19000Y-25353D02*
G01X22853Y-21500D01*
G01X22853Y-21500D02*
G01X24174Y-21500D01*
G01X24174Y-21500D02*
G01X27800Y-17874D01*
G01X27800Y-17874D02*
G01X27800Y-14600D01*
G01X-7000Y-14000D02*
G01X-7483Y-14483D01*
G01X-7483Y-14483D02*
G01X-9517Y-14483D01*
G01X-9517Y-14483D02*
G01X-10000Y-14000D01*
G01X-7400Y-300D02*
G01X-7883Y-783D01*
G01X-7883Y-783D02*
G01X-9916Y-783D01*
G01X-9916Y-783D02*
G01X-10400Y-300D01*
G01X-7700Y12200D02*
G01X-8200Y12700D01*
G01X-8200Y12700D02*
G01X-10199Y12700D01*
G01X-10199Y12700D02*
G01X-10700Y12200D01*
G01X-27200Y15100D02*
G01X-27124Y15100D01*
G01X-20000Y24000D02*
G01X-20000Y22420D01*
G01X-20000Y22420D02*
G01X-22946Y19473D01*
G01X-22946Y19473D02*
G01X-26573Y19473D01*
G01X-27200Y10100D02*
G01X-27200Y11300D01*
G01X-27200Y11300D02*
G01X-25300Y13200D01*
G01X28000Y12000D02*
G01X28000Y1100D01*
G01X28000Y1100D02*
G01X26899Y0D01*
G01X25000Y12000D02*
G01X25500Y12500D01*
G54D16*
G01X-3000Y26000D02*
G01X1693Y21306D01*
G01X1693Y21306D02*
G01X14426Y21306D01*
G01X14426Y21306D02*
G01X18450Y17283D01*
G01X18450Y17283D02*
G01X18450Y12783D01*
G01X18450Y12783D02*
G01X18509Y12724D01*
G01X18509Y12724D02*
G01X19234Y12000D01*
G01X19234Y12000D02*
G01X22000Y12000D01*
G01X8000Y3000D02*
G01X8927Y3927D01*
G01X8927Y3927D02*
G01X9712Y3927D01*
G01X9712Y3927D02*
G01X18509Y12724D01*
G54D18*
G01X-13700Y15200D02*
G01X-14392Y14508D01*
G01X-14392Y14508D02*
G01X-24608Y14508D01*
G01X-24608Y14508D02*
G01X-25200Y15100D01*
G01X-13000Y-24000D02*
G01X-12000Y-25000D01*
G01X-12000Y-25000D02*
G01X-12000Y-27000D01*
G01X23000Y-26000D02*
G01X22549Y-26000D01*
G01X22549Y-26000D02*
G01X20067Y-28482D01*
G01X20067Y-28482D02*
G01X7782Y-28482D01*
G01X7782Y-28482D02*
G01X7300Y-28000D01*
G01X7000Y-14000D02*
G01X6300Y-14700D01*
G01X6300Y-14700D02*
G01X6300Y-25000D01*
G01X6000Y27000D02*
G01X7000Y26000D01*
G01X7000Y26000D02*
G01X20000Y26000D01*
G01X6100Y14800D02*
G01X7100Y13800D01*
G01X7100Y13800D02*
G01X7100Y11800D01*
G01X6000Y27000D02*
G01X-4795Y27000D01*
G01X-4795Y27000D02*
G01X-5272Y26523D01*
G01X-5272Y26523D02*
G01X-12523Y26523D01*
G01X-12523Y26523D02*
G01X-13000Y27000D01*
G54D16*
G01X12000Y-4000D02*
G01X12000Y-3775D01*
G01X12000Y-3775D02*
G01X13458Y-2316D01*
G01X13458Y-2316D02*
G01X26198Y-2316D01*
G01X26198Y-2316D02*
G01X28430Y-85D01*
G01X28430Y-85D02*
G01X28430Y15206D01*
G01X28430Y15206D02*
G01X27051Y16585D01*
G01X27051Y16585D02*
G01X27051Y24948D01*
G01X27051Y24948D02*
G01X26000Y26000D01*
G01X16000Y-22000D02*
G01X18400Y-22000D01*
G01X18400Y-22000D02*
G01X25800Y-14600D01*
G01X27800Y-11600D02*
G01X25800Y-13600D01*
G01X25800Y-13600D02*
G01X25800Y-14600D01*
G01X1000Y19000D02*
G01X1062Y18937D01*
G01X1062Y18937D02*
G01X15806Y18937D01*
G01X15806Y18937D02*
G01X17685Y17058D01*
G54D17*
G01X17685Y17058D03*
G54D16*
G01X6000Y0D02*
G01X5574Y0D01*
G01X5574Y0D02*
G01X5574Y-220D01*
G01X5574Y-220D02*
G01X-1734Y-7530D01*
G01X-1734Y-7530D02*
G01X-3883Y-7530D01*
G01X-3883Y-7530D02*
G01X-4979Y-6434D01*
G01X-4979Y-6434D02*
G01X-9734Y-6434D01*
G01X-9734Y-6434D02*
G01X-23200Y-19900D01*
G01X19000Y13000D02*
G01X22275Y13000D01*
G01X22275Y13000D02*
G01X22637Y13362D01*
G01X22637Y13362D02*
G01X24000Y12000D01*
G01X23000Y15000D02*
G01X22637Y14637D01*
G01X22637Y14637D02*
G01X22637Y13362D01*
G01X-2000Y-7000D02*
G01X-7288Y-1711D01*
G01X-7288Y-1711D02*
G01X-11669Y-1711D01*
G01X-11669Y-1711D02*
G01X-12974Y-406D01*
G01X-12974Y-406D02*
G01X-12974Y-300D01*
G01X-12974Y-300D02*
G01X-13400Y-300D01*
G01X7000Y9000D02*
G01X9000Y7000D01*
G01X9000Y7000D02*
G01X12000Y7000D01*
G01X9000Y0D02*
G01X7623Y1376D01*
G01X7623Y1376D02*
G01X-19423Y1376D01*
G01X-19423Y1376D02*
G01X-23200Y-2400D01*
G01X-13000Y20000D02*
G01X-10000Y17000D01*
G01X-10000Y17000D02*
G01X-8000Y17000D01*
G54D17*
G01X10435Y-1337D03*
G54D16*
G01X10435Y-1337D02*
G01X323Y-11449D01*
G01X323Y-11449D02*
G01X-11222Y-11449D01*
G01X-11222Y-11449D02*
G01X-23200Y-23427D01*
G01X-23200Y-23427D02*
G01X-23200Y-24900D01*
G01X-2000Y-2000D02*
G01X-2000Y-1955D01*
G01X-2000Y-1955D02*
G01X-4107Y151D01*
G01X-4107Y151D02*
G01X-8948Y151D01*
G01X-8948Y151D02*
G01X-9400Y-300D01*
G54D17*
G01X-3301Y-1149D03*
G54D16*
G01X-3301Y-1149D02*
G01X-3352Y-1200D01*
G01X-3352Y-1200D02*
G01X-11162Y-1200D01*
G01X-11162Y-1200D02*
G01X-11900Y-463D01*
G01X-11900Y-463D02*
G01X-11900Y-162D01*
G01X-11900Y-162D02*
G01X-12212Y150D01*
G01X-12212Y150D02*
G01X-15649Y150D01*
G01X-15649Y150D02*
G01X-23200Y-7400D01*
G01X1000Y-2000D02*
G01X-1522Y522D01*
G01X-1522Y522D02*
G01X-19353Y522D01*
G01X-19353Y522D02*
G01X-22848Y-2973D01*
G01X-22848Y-2973D02*
G01X-23400Y-2973D01*
G01X-23400Y-2973D02*
G01X-27771Y1397D01*
G01X-27771Y1397D02*
G01X-27771Y24228D01*
G01X-27771Y24228D02*
G01X-25000Y27000D01*
G01X-21000Y24000D02*
G01X-20555Y24444D01*
G01X-20555Y24444D02*
G01X-19505Y24444D01*
G01X-19505Y24444D02*
G01X-15698Y20637D01*
G01X-15698Y20637D02*
G01X-6908Y20637D01*
G01X-6908Y20637D02*
G01X-3580Y17309D01*
G54D17*
G01X-3580Y17309D03*
G54D16*
G01X-2000Y12000D02*
G01X-5400Y8600D01*
G01X-5400Y8600D02*
G01X-8000Y8600D01*
G01X-24000Y24000D02*
G01X-25000Y24000D01*
G01X-21000Y27000D02*
G01X-24000Y24000D01*
G54D17*
G01X-483Y14496D03*
G54D16*
G01X-483Y14496D02*
G01X-483Y14707D01*
G01X-483Y14707D02*
G01X-6938Y21162D01*
G01X-6938Y21162D02*
G01X-15162Y21162D01*
G01X-15162Y21162D02*
G01X-21000Y27000D01*
G01X24000Y-23000D02*
G01X23000Y-23000D01*
G01X16000Y2000D02*
G01X18747Y2000D01*
G01X18747Y2000D02*
G01X26000Y9252D01*
G01X26000Y9252D02*
G01X26000Y12000D01*
G54D18*
G01X19000Y-27000D02*
G01X9888Y-27000D01*
G01X9888Y-27000D02*
G01X9388Y-27499D01*
G01X9388Y-27499D02*
G01X-23600Y-27499D01*
G01X-23600Y-27499D02*
G01X-26200Y-24900D01*
G54D16*
G01X7100Y19500D02*
G01X7634Y20034D01*
G01X7634Y20034D02*
G01X15204Y20034D01*
G01X15204Y20034D02*
G01X18035Y17203D01*
G01X18035Y17203D02*
G01X18035Y13035D01*
G01X18035Y13035D02*
G01X16000Y11000D01*
G01X-2000Y7000D02*
G01X-7206Y7000D01*
G01X-7206Y7000D02*
G01X-9700Y9494D01*
G01X-9700Y9494D02*
G01X-9700Y12200D01*
G01X7000Y0D02*
G01X5974Y1025D01*
G01X5974Y1025D02*
G01X-13178Y1025D01*
G54D17*
G01X-13178Y1025D03*
G54D16*
G01X8000Y0D02*
G01X7000Y0D01*
G01X24000Y-22000D02*
G01X23000Y-22000D01*
G01X23000Y-20000D02*
G01X22599Y-20000D01*
G01X22599Y-20000D02*
G01X20052Y-22547D01*
G01X20052Y-22547D02*
G01X12976Y-22547D01*
G01X12976Y-22547D02*
G01X12907Y-22478D01*
G54D17*
G01X12907Y-22478D03*
G54D16*
G01X-8700Y12200D02*
G01X-8243Y11743D01*
G01X-8243Y11743D02*
G01X-4016Y11743D01*
G01X-4016Y11743D02*
G01X-2232Y13528D01*
G01X-2232Y13528D02*
G01X450Y13528D01*
G01X450Y13528D02*
G01X2638Y11339D01*
G01X2638Y11339D02*
G01X10639Y11339D01*
G01X10639Y11339D02*
G01X11100Y11800D01*
G01X24000Y-20000D02*
G01X24000Y-17400D01*
G01X24000Y-17400D02*
G01X26800Y-14600D01*
G01X24000Y-20000D02*
G01X23000Y-20000D01*
G01X22000Y6000D02*
G01X15611Y6000D01*
G01X15611Y6000D02*
G01X10640Y1029D01*
G01X10640Y1029D02*
G01X10396Y1029D01*
G01X10396Y1029D02*
G01X9500Y132D01*
G01X9500Y132D02*
G01X9500Y-158D01*
G01X9500Y-158D02*
G01X1766Y-7892D01*
G01X1766Y-7892D02*
G01X-6108Y-7892D01*
G01X-6108Y-7892D02*
G01X-7000Y-7000D01*
G01X10000Y3000D02*
G01X11000Y3000D01*
G01X24000Y-21000D02*
G01X23000Y-21000D01*
G54D17*
G01X11893Y-12889D03*
G54D16*
G01X11893Y-12889D02*
G01X8889Y-12889D01*
G01X8889Y-12889D02*
G01X7000Y-11000D01*

G04 Draw Text*
M00*
M02*
