;Holesize 1 =   28.0 PLATED MILS
;Holesize 2 =   40.0 PLATED MILS
;Holesize 3 =   14.0 PLATED MILS
M48
INCH
T01C0.028
T02C0.040
T03C0.014
%
G05
G90
T01
X054000Y043000
X054000Y042000
X054000Y041000
X054000Y040000
X054000Y039000
X054000Y038000
X054000Y037000
X057000Y037000
X057000Y038000
X057000Y039000
X057000Y040000
X057000Y041000
X057000Y042000
X057000Y043000
X024000Y043000
X024000Y042000
X024000Y041000
X024000Y040000
X024000Y039000
X024000Y038000
X024000Y037000
X027000Y037000
X027000Y038000
X027000Y039000
X027000Y040000
X027000Y041000
X027000Y042000
X027000Y043000
X004000Y043000
X004000Y042000
X004000Y041000
X004000Y040000
X004000Y039000
X004000Y038000
X004000Y037000
X007000Y037000
X007000Y038000
X007000Y039000
X007000Y040000
X007000Y041000
X007000Y042000
X007000Y043000
X014000Y043000
X014000Y042000
X014000Y041000
X014000Y040000
X014000Y039000
X014000Y038000
X014000Y037000
X017000Y037000
X017000Y038000
X017000Y039000
X017000Y040000
X017000Y041000
X017000Y042000
X017000Y043000
X014000Y031000
X014000Y030000
X014000Y029000
X014000Y028000
X014000Y027000
X014000Y026000
X014000Y025000
X017000Y025000
X017000Y026000
X017000Y027000
X017000Y028000
X017000Y029000
X017000Y030000
X017000Y031000
X054000Y031000
X054000Y030000
X054000Y029000
X054000Y028000
X054000Y027000
X054000Y026000
X054000Y025000
X057000Y025000
X057000Y026000
X057000Y027000
X057000Y028000
X057000Y029000
X057000Y030000
X057000Y031000
X024000Y007000
X024000Y006000
X024000Y005000
X024000Y004000
X024000Y003000
X024000Y002000
X024000Y001000
X027000Y001000
X027000Y002000
X027000Y003000
X027000Y004000
X027000Y005000
X027000Y006000
X027000Y007000
X004000Y007000
X004000Y006000
X004000Y005000
X004000Y004000
X004000Y003000
X004000Y002000
X004000Y001000
X007000Y001000
X007000Y002000
X007000Y003000
X007000Y004000
X007000Y005000
X007000Y006000
X007000Y007000
X034000Y007000
X034000Y006000
X034000Y005000
X034000Y004000
X034000Y003000
X034000Y002000
X034000Y001000
X037000Y001000
X037000Y002000
X037000Y003000
X037000Y004000
X037000Y005000
X037000Y006000
X037000Y007000
X054000Y019000
X054000Y018000
X054000Y017000
X054000Y016000
X054000Y015000
X054000Y014000
X054000Y013000
X057000Y013000
X057000Y014000
X057000Y015000
X057000Y016000
X057000Y017000
X057000Y018000
X057000Y019000
X034000Y019000
X034000Y018000
X034000Y017000
X034000Y016000
X034000Y015000
X034000Y014000
X034000Y013000
X037000Y013000
X037000Y014000
X037000Y015000
X037000Y016000
X037000Y017000
X037000Y018000
X037000Y019000
X044000Y019000
X044000Y018000
X044000Y017000
X044000Y016000
X044000Y015000
X044000Y014000
X044000Y013000
X047000Y013000
X047000Y014000
X047000Y015000
X047000Y016000
X047000Y017000
X047000Y018000
X047000Y019000
X014000Y019000
X014000Y018000
X014000Y017000
X014000Y016000
X014000Y015000
X014000Y014000
X014000Y013000
X017000Y013000
X017000Y014000
X017000Y015000
X017000Y016000
X017000Y017000
X017000Y018000
X017000Y019000
X004000Y019000
X004000Y018000
X004000Y017000
X004000Y016000
X004000Y015000
X004000Y014000
X004000Y013000
X007000Y013000
X007000Y014000
X007000Y015000
X007000Y016000
X007000Y017000
X007000Y018000
X007000Y019000
X004000Y031000
X004000Y030000
X004000Y029000
X004000Y028000
X004000Y027000
X004000Y026000
X004000Y025000
X007000Y025000
X007000Y026000
X007000Y027000
X007000Y028000
X007000Y029000
X007000Y030000
X007000Y031000
X044000Y031000
X044000Y030000
X044000Y029000
X044000Y028000
X044000Y027000
X044000Y026000
X044000Y025000
X047000Y025000
X047000Y026000
X047000Y027000
X047000Y028000
X047000Y029000
X047000Y030000
X047000Y031000
X044000Y043000
X044000Y042000
X044000Y041000
X044000Y040000
X044000Y039000
X044000Y038000
X044000Y037000
X047000Y037000
X047000Y038000
X047000Y039000
X047000Y040000
X047000Y041000
X047000Y042000
X047000Y043000
X044000Y007000
X044000Y006000
X044000Y005000
X044000Y004000
X044000Y003000
X044000Y002000
X044000Y001000
X047000Y001000
X047000Y002000
X047000Y003000
X047000Y004000
X047000Y005000
X047000Y006000
X047000Y007000
X033950Y031020
X033950Y030020
X033950Y029020
X033950Y028020
X033950Y027020
X033950Y026020
X033950Y025020
X036950Y025020
X036950Y026020
X036950Y027020
X036950Y028020
X036950Y029020
X036950Y030020
X036950Y031020
X034000Y043000
X034000Y042000
X034000Y041000
X034000Y040000
X034000Y039000
X034000Y038000
X034000Y037000
X037000Y037000
X037000Y038000
X037000Y039000
X037000Y040000
X037000Y041000
X037000Y042000
X037000Y043000
X024000Y031000
X024000Y030000
X024000Y029000
X024000Y028000
X024000Y027000
X024000Y026000
X024000Y025000
X027000Y025000
X027000Y026000
X027000Y027000
X027000Y028000
X027000Y029000
X027000Y030000
X027000Y031000
X024000Y019000
X024000Y018000
X024000Y017000
X024000Y016000
X024000Y015000
X024000Y014000
X024000Y013000
X027000Y013000
X027000Y014000
X027000Y015000
X027000Y016000
X027000Y017000
X027000Y018000
X027000Y019000
X014000Y007000
X014000Y006000
X014000Y005000
X014000Y004000
X014000Y003000
X014000Y002000
X014000Y001000
X017000Y001000
X017000Y002000
X017000Y003000
X017000Y004000
X017000Y005000
X017000Y006000
X017000Y007000
T02
X052900Y004000
X052900Y005000
X053900Y004000
X053900Y005000
X054900Y004000
X054900Y005000
X055900Y004000
X055900Y005000
T03
X022326Y008965
X028287Y008965
X031722Y032562
X042827Y017160
X028224Y006304
X030342Y023382
X041787Y011856
X015594Y024706
X043377Y020865
X016366Y011473
X029899Y031369
X032197Y022572
X002800Y002683
X047251Y011037
X035468Y030564
X027204Y022500
X028879Y021819
X012917Y011092
X038756Y009721
X030055Y014198
X043648Y009364
X042367Y034559
X034047Y024172
X019219Y010745
X032073Y012814
X046761Y010174
X045046Y022259
X027393Y011441
X038257Y019000
X008072Y009002
X042310Y010164
X042190Y039000
X029312Y012342
X014301Y012176
X049305Y011474
X024552Y022663
X048650Y007493
X038297Y019574
M30
