G04 FreePCB version 1.343*
G04 Z:\trinary\code\bb\CAM-adder\top_silk.grb*
G04 top silk layer *
G04 Scale: 100 percent, Rotated: No, Reflected: No *
%FSLAX24Y24*%
%MOIN*%
%LNTop*%
%ADD10C,0.005000*%
%ADD11C,0.007000*%
%ADD12C,0.010000*%
%ADD13C,0.007500*%
G90*
G70D02*

G04 Step and Repeat for panelization *

G04 ----------------------- Draw board outline (positive)*
%LPD*%
G54D10*
G01X0Y45000D02*
G01X60000Y45000D01*
G04 end of side 1*
G01X60000Y0D01*
G04 end of side 2*
G01X0Y0D01*
G04 end of side 3*
G01X0Y45000D01*

G04 -------------- Draw Parts, Pads, Traces, Vias and Text (positive)*
%LPD*%
G04 Draw part IC_CD4007_1*
G04 draw part outline for part IC_CD4007_1*
G54D11*
G01X54500Y43500D02*
G01X54500Y36500D01*
G01X54500Y36500D02*
G01X56500Y36500D01*
G01X56500Y36500D02*
G01X56500Y43500D01*
G01X56500Y43500D02*
G01X54500Y43500D01*
G01X55000Y43500D02*
G01X55000Y43000D01*
G01X55000Y43000D02*
G01X56000Y43000D01*
G01X56000Y43000D02*
G01X56000Y43500D01*
G01X56000Y43500D02*
G01X55000Y43500D01*
G04 draw reference designator for part IC_CD4007_1*
G01X53500Y44477D02*
G01X53500Y44000D01*
G01X54000Y44409D02*
G01X54022Y44363D01*
G01X53954Y44454D02*
G01X54000Y44409D01*
G01X53909Y44477D02*
G01X53954Y44454D01*
G01X53818Y44477D02*
G01X53909Y44477D01*
G01X53818Y44477D02*
G01X53772Y44454D01*
G01X53772Y44454D02*
G01X53727Y44409D01*
G01X53727Y44409D02*
G01X53704Y44363D01*
G01X53704Y44363D02*
G01X53681Y44295D01*
G01X53681Y44295D02*
G01X53681Y44181D01*
G01X53681Y44181D02*
G01X53704Y44113D01*
G01X53704Y44113D02*
G01X53727Y44068D01*
G01X53727Y44068D02*
G01X53772Y44022D01*
G01X53772Y44022D02*
G01X53818Y44000D01*
G01X53909Y44000D02*
G01X53818Y44000D01*
G01X53954Y44022D02*
G01X53909Y44000D01*
G01X54000Y44068D02*
G01X53954Y44022D01*
G01X54022Y44113D02*
G01X54000Y44068D01*
G01X54613Y44000D02*
G01X54204Y44000D01*
G01X55113Y44409D02*
G01X55136Y44363D01*
G01X55068Y44454D02*
G01X55113Y44409D01*
G01X55022Y44477D02*
G01X55068Y44454D01*
G01X54931Y44477D02*
G01X55022Y44477D01*
G01X54931Y44477D02*
G01X54886Y44454D01*
G01X54886Y44454D02*
G01X54840Y44409D01*
G01X54840Y44409D02*
G01X54818Y44363D01*
G01X54818Y44363D02*
G01X54795Y44295D01*
G01X54795Y44295D02*
G01X54795Y44181D01*
G01X54795Y44181D02*
G01X54818Y44113D01*
G01X54818Y44113D02*
G01X54840Y44068D01*
G01X54840Y44068D02*
G01X54886Y44022D01*
G01X54886Y44022D02*
G01X54931Y44000D01*
G01X55022Y44000D02*
G01X54931Y44000D01*
G01X55068Y44022D02*
G01X55022Y44000D01*
G01X55113Y44068D02*
G01X55068Y44022D01*
G01X55136Y44113D02*
G01X55113Y44068D01*
G01X55318Y44477D02*
G01X55318Y44000D01*
G01X55477Y44477D02*
G01X55318Y44477D01*
G01X55477Y44477D02*
G01X55545Y44454D01*
G01X55545Y44454D02*
G01X55590Y44409D01*
G01X55590Y44409D02*
G01X55613Y44363D01*
G01X55613Y44363D02*
G01X55636Y44295D01*
G01X55636Y44295D02*
G01X55636Y44181D01*
G01X55636Y44181D02*
G01X55613Y44113D01*
G01X55613Y44113D02*
G01X55590Y44068D01*
G01X55590Y44068D02*
G01X55545Y44022D01*
G01X55545Y44022D02*
G01X55477Y44000D01*
G01X55318Y44000D02*
G01X55477Y44000D01*
G01X56045Y44477D02*
G01X55818Y44159D01*
G01X56159Y44159D02*
G01X55818Y44159D01*
G01X56045Y44477D02*
G01X56045Y44000D01*
G01X56477Y44477D02*
G01X56409Y44454D01*
G01X56409Y44454D02*
G01X56363Y44386D01*
G01X56363Y44386D02*
G01X56340Y44272D01*
G01X56340Y44272D02*
G01X56340Y44204D01*
G01X56340Y44204D02*
G01X56363Y44090D01*
G01X56363Y44090D02*
G01X56409Y44022D01*
G01X56409Y44022D02*
G01X56477Y44000D01*
G01X56522Y44000D02*
G01X56477Y44000D01*
G01X56590Y44022D02*
G01X56522Y44000D01*
G01X56636Y44090D02*
G01X56590Y44022D01*
G01X56659Y44204D02*
G01X56636Y44090D01*
G01X56659Y44272D02*
G01X56659Y44204D01*
G01X56636Y44386D02*
G01X56659Y44272D01*
G01X56590Y44454D02*
G01X56636Y44386D01*
G01X56522Y44477D02*
G01X56590Y44454D01*
G01X56477Y44477D02*
G01X56522Y44477D01*
G01X56977Y44477D02*
G01X56909Y44454D01*
G01X56909Y44454D02*
G01X56863Y44386D01*
G01X56863Y44386D02*
G01X56840Y44272D01*
G01X56840Y44272D02*
G01X56840Y44204D01*
G01X56840Y44204D02*
G01X56863Y44090D01*
G01X56863Y44090D02*
G01X56909Y44022D01*
G01X56909Y44022D02*
G01X56977Y44000D01*
G01X57022Y44000D02*
G01X56977Y44000D01*
G01X57090Y44022D02*
G01X57022Y44000D01*
G01X57136Y44090D02*
G01X57090Y44022D01*
G01X57159Y44204D02*
G01X57136Y44090D01*
G01X57159Y44272D02*
G01X57159Y44204D01*
G01X57136Y44386D02*
G01X57159Y44272D01*
G01X57090Y44454D02*
G01X57136Y44386D01*
G01X57022Y44477D02*
G01X57090Y44454D01*
G01X56977Y44477D02*
G01X57022Y44477D01*
G01X57659Y44477D02*
G01X57431Y44000D01*
G01X57659Y44477D02*
G01X57340Y44477D01*
G01X58249Y44000D02*
G01X57840Y44000D01*
G01X58477Y44409D02*
G01X58431Y44386D01*
G01X58545Y44477D02*
G01X58477Y44409D01*
G01X58545Y44477D02*
G01X58545Y44000D01*
G04 Draw part R_12K_2*
G04 draw part outline for part R_12K_2*
G01X24500Y43500D02*
G01X24500Y36500D01*
G01X24500Y36500D02*
G01X26500Y36500D01*
G01X26500Y36500D02*
G01X26500Y43500D01*
G01X26500Y43500D02*
G01X24500Y43500D01*
G01X25000Y43500D02*
G01X25000Y43000D01*
G01X25000Y43000D02*
G01X26000Y43000D01*
G01X26000Y43000D02*
G01X26000Y43500D01*
G01X26000Y43500D02*
G01X25000Y43500D01*
G04 draw reference designator for part R_12K_2*
G01X23500Y44477D02*
G01X23500Y44000D01*
G01X23704Y44477D02*
G01X23500Y44477D01*
G01X23704Y44477D02*
G01X23772Y44454D01*
G01X23772Y44454D02*
G01X23795Y44431D01*
G01X23795Y44431D02*
G01X23818Y44386D01*
G01X23818Y44386D02*
G01X23818Y44340D01*
G01X23818Y44340D02*
G01X23795Y44295D01*
G01X23795Y44295D02*
G01X23772Y44272D01*
G01X23772Y44272D02*
G01X23704Y44250D01*
G01X23500Y44250D02*
G01X23704Y44250D01*
G01X23659Y44250D02*
G01X23818Y44000D01*
G01X24409Y44000D02*
G01X24000Y44000D01*
G01X24636Y44409D02*
G01X24590Y44386D01*
G01X24704Y44477D02*
G01X24636Y44409D01*
G01X24704Y44477D02*
G01X24704Y44000D01*
G01X24909Y44386D02*
G01X24909Y44363D01*
G01X24931Y44431D02*
G01X24909Y44386D01*
G01X24954Y44454D02*
G01X24931Y44431D01*
G01X25000Y44477D02*
G01X24954Y44454D01*
G01X25090Y44477D02*
G01X25000Y44477D01*
G01X25090Y44477D02*
G01X25136Y44454D01*
G01X25136Y44454D02*
G01X25159Y44431D01*
G01X25159Y44431D02*
G01X25181Y44386D01*
G01X25181Y44386D02*
G01X25181Y44340D01*
G01X25181Y44340D02*
G01X25159Y44295D01*
G01X25159Y44295D02*
G01X25113Y44227D01*
G01X25113Y44227D02*
G01X24886Y44000D01*
G01X25204Y44000D02*
G01X24886Y44000D01*
G01X25386Y44477D02*
G01X25386Y44000D01*
G01X25704Y44477D02*
G01X25386Y44159D01*
G01X25500Y44272D02*
G01X25704Y44000D01*
G01X26295Y44000D02*
G01X25886Y44000D01*
G01X26500Y44386D02*
G01X26500Y44363D01*
G01X26522Y44431D02*
G01X26500Y44386D01*
G01X26545Y44454D02*
G01X26522Y44431D01*
G01X26590Y44477D02*
G01X26545Y44454D01*
G01X26681Y44477D02*
G01X26590Y44477D01*
G01X26681Y44477D02*
G01X26727Y44454D01*
G01X26727Y44454D02*
G01X26750Y44431D01*
G01X26750Y44431D02*
G01X26772Y44386D01*
G01X26772Y44386D02*
G01X26772Y44340D01*
G01X26772Y44340D02*
G01X26750Y44295D01*
G01X26750Y44295D02*
G01X26704Y44227D01*
G01X26704Y44227D02*
G01X26477Y44000D01*
G01X26795Y44000D02*
G01X26477Y44000D01*
G04 Draw part IC_CD4007_3*
G04 draw part outline for part IC_CD4007_3*
G01X4500Y43500D02*
G01X4500Y36500D01*
G01X4500Y36500D02*
G01X6500Y36500D01*
G01X6500Y36500D02*
G01X6500Y43500D01*
G01X6500Y43500D02*
G01X4500Y43500D01*
G01X5000Y43500D02*
G01X5000Y43000D01*
G01X5000Y43000D02*
G01X6000Y43000D01*
G01X6000Y43000D02*
G01X6000Y43500D01*
G01X6000Y43500D02*
G01X5000Y43500D01*
G04 draw reference designator for part IC_CD4007_3*
G01X3500Y44477D02*
G01X3500Y44000D01*
G01X4000Y44409D02*
G01X4022Y44363D01*
G01X3954Y44454D02*
G01X4000Y44409D01*
G01X3909Y44477D02*
G01X3954Y44454D01*
G01X3818Y44477D02*
G01X3909Y44477D01*
G01X3818Y44477D02*
G01X3772Y44454D01*
G01X3772Y44454D02*
G01X3727Y44409D01*
G01X3727Y44409D02*
G01X3704Y44363D01*
G01X3704Y44363D02*
G01X3681Y44295D01*
G01X3681Y44295D02*
G01X3681Y44181D01*
G01X3681Y44181D02*
G01X3704Y44113D01*
G01X3704Y44113D02*
G01X3727Y44068D01*
G01X3727Y44068D02*
G01X3772Y44022D01*
G01X3772Y44022D02*
G01X3818Y44000D01*
G01X3909Y44000D02*
G01X3818Y44000D01*
G01X3954Y44022D02*
G01X3909Y44000D01*
G01X4000Y44068D02*
G01X3954Y44022D01*
G01X4022Y44113D02*
G01X4000Y44068D01*
G01X4613Y44000D02*
G01X4204Y44000D01*
G01X5113Y44409D02*
G01X5136Y44363D01*
G01X5068Y44454D02*
G01X5113Y44409D01*
G01X5022Y44477D02*
G01X5068Y44454D01*
G01X4931Y44477D02*
G01X5022Y44477D01*
G01X4931Y44477D02*
G01X4886Y44454D01*
G01X4886Y44454D02*
G01X4840Y44409D01*
G01X4840Y44409D02*
G01X4818Y44363D01*
G01X4818Y44363D02*
G01X4795Y44295D01*
G01X4795Y44295D02*
G01X4795Y44181D01*
G01X4795Y44181D02*
G01X4818Y44113D01*
G01X4818Y44113D02*
G01X4840Y44068D01*
G01X4840Y44068D02*
G01X4886Y44022D01*
G01X4886Y44022D02*
G01X4931Y44000D01*
G01X5022Y44000D02*
G01X4931Y44000D01*
G01X5068Y44022D02*
G01X5022Y44000D01*
G01X5113Y44068D02*
G01X5068Y44022D01*
G01X5136Y44113D02*
G01X5113Y44068D01*
G01X5318Y44477D02*
G01X5318Y44000D01*
G01X5477Y44477D02*
G01X5318Y44477D01*
G01X5477Y44477D02*
G01X5545Y44454D01*
G01X5545Y44454D02*
G01X5590Y44409D01*
G01X5590Y44409D02*
G01X5613Y44363D01*
G01X5613Y44363D02*
G01X5636Y44295D01*
G01X5636Y44295D02*
G01X5636Y44181D01*
G01X5636Y44181D02*
G01X5613Y44113D01*
G01X5613Y44113D02*
G01X5590Y44068D01*
G01X5590Y44068D02*
G01X5545Y44022D01*
G01X5545Y44022D02*
G01X5477Y44000D01*
G01X5318Y44000D02*
G01X5477Y44000D01*
G01X6045Y44477D02*
G01X5818Y44159D01*
G01X6159Y44159D02*
G01X5818Y44159D01*
G01X6045Y44477D02*
G01X6045Y44000D01*
G01X6477Y44477D02*
G01X6409Y44454D01*
G01X6409Y44454D02*
G01X6363Y44386D01*
G01X6363Y44386D02*
G01X6340Y44272D01*
G01X6340Y44272D02*
G01X6340Y44204D01*
G01X6340Y44204D02*
G01X6363Y44090D01*
G01X6363Y44090D02*
G01X6409Y44022D01*
G01X6409Y44022D02*
G01X6477Y44000D01*
G01X6522Y44000D02*
G01X6477Y44000D01*
G01X6590Y44022D02*
G01X6522Y44000D01*
G01X6636Y44090D02*
G01X6590Y44022D01*
G01X6659Y44204D02*
G01X6636Y44090D01*
G01X6659Y44272D02*
G01X6659Y44204D01*
G01X6636Y44386D02*
G01X6659Y44272D01*
G01X6590Y44454D02*
G01X6636Y44386D01*
G01X6522Y44477D02*
G01X6590Y44454D01*
G01X6477Y44477D02*
G01X6522Y44477D01*
G01X6977Y44477D02*
G01X6909Y44454D01*
G01X6909Y44454D02*
G01X6863Y44386D01*
G01X6863Y44386D02*
G01X6840Y44272D01*
G01X6840Y44272D02*
G01X6840Y44204D01*
G01X6840Y44204D02*
G01X6863Y44090D01*
G01X6863Y44090D02*
G01X6909Y44022D01*
G01X6909Y44022D02*
G01X6977Y44000D01*
G01X7022Y44000D02*
G01X6977Y44000D01*
G01X7090Y44022D02*
G01X7022Y44000D01*
G01X7136Y44090D02*
G01X7090Y44022D01*
G01X7159Y44204D02*
G01X7136Y44090D01*
G01X7159Y44272D02*
G01X7159Y44204D01*
G01X7136Y44386D02*
G01X7159Y44272D01*
G01X7090Y44454D02*
G01X7136Y44386D01*
G01X7022Y44477D02*
G01X7090Y44454D01*
G01X6977Y44477D02*
G01X7022Y44477D01*
G01X7659Y44477D02*
G01X7431Y44000D01*
G01X7659Y44477D02*
G01X7340Y44477D01*
G01X8249Y44000D02*
G01X7840Y44000D01*
G01X8727Y44477D02*
G01X8477Y44477D01*
G01X8727Y44477D02*
G01X8590Y44295D01*
G01X8659Y44295D02*
G01X8590Y44295D01*
G01X8659Y44295D02*
G01X8704Y44272D01*
G01X8704Y44272D02*
G01X8727Y44250D01*
G01X8727Y44250D02*
G01X8749Y44181D01*
G01X8749Y44181D02*
G01X8749Y44136D01*
G01X8749Y44136D02*
G01X8727Y44068D01*
G01X8727Y44068D02*
G01X8681Y44022D01*
G01X8681Y44022D02*
G01X8613Y44000D01*
G01X8545Y44000D02*
G01X8613Y44000D01*
G01X8477Y44022D02*
G01X8545Y44000D01*
G01X8454Y44045D02*
G01X8477Y44022D01*
G01X8431Y44090D02*
G01X8454Y44045D01*
G04 Draw part IC_CD4007_4*
G04 draw part outline for part IC_CD4007_4*
G01X14500Y43500D02*
G01X14500Y36500D01*
G01X14500Y36500D02*
G01X16500Y36500D01*
G01X16500Y36500D02*
G01X16500Y43500D01*
G01X16500Y43500D02*
G01X14500Y43500D01*
G01X15000Y43500D02*
G01X15000Y43000D01*
G01X15000Y43000D02*
G01X16000Y43000D01*
G01X16000Y43000D02*
G01X16000Y43500D01*
G01X16000Y43500D02*
G01X15000Y43500D01*
G04 draw reference designator for part IC_CD4007_4*
G01X13500Y44477D02*
G01X13500Y44000D01*
G01X14000Y44409D02*
G01X14022Y44363D01*
G01X13954Y44454D02*
G01X14000Y44409D01*
G01X13909Y44477D02*
G01X13954Y44454D01*
G01X13818Y44477D02*
G01X13909Y44477D01*
G01X13818Y44477D02*
G01X13772Y44454D01*
G01X13772Y44454D02*
G01X13727Y44409D01*
G01X13727Y44409D02*
G01X13704Y44363D01*
G01X13704Y44363D02*
G01X13681Y44295D01*
G01X13681Y44295D02*
G01X13681Y44181D01*
G01X13681Y44181D02*
G01X13704Y44113D01*
G01X13704Y44113D02*
G01X13727Y44068D01*
G01X13727Y44068D02*
G01X13772Y44022D01*
G01X13772Y44022D02*
G01X13818Y44000D01*
G01X13909Y44000D02*
G01X13818Y44000D01*
G01X13954Y44022D02*
G01X13909Y44000D01*
G01X14000Y44068D02*
G01X13954Y44022D01*
G01X14022Y44113D02*
G01X14000Y44068D01*
G01X14613Y44000D02*
G01X14204Y44000D01*
G01X15113Y44409D02*
G01X15136Y44363D01*
G01X15068Y44454D02*
G01X15113Y44409D01*
G01X15022Y44477D02*
G01X15068Y44454D01*
G01X14931Y44477D02*
G01X15022Y44477D01*
G01X14931Y44477D02*
G01X14886Y44454D01*
G01X14886Y44454D02*
G01X14840Y44409D01*
G01X14840Y44409D02*
G01X14818Y44363D01*
G01X14818Y44363D02*
G01X14795Y44295D01*
G01X14795Y44295D02*
G01X14795Y44181D01*
G01X14795Y44181D02*
G01X14818Y44113D01*
G01X14818Y44113D02*
G01X14840Y44068D01*
G01X14840Y44068D02*
G01X14886Y44022D01*
G01X14886Y44022D02*
G01X14931Y44000D01*
G01X15022Y44000D02*
G01X14931Y44000D01*
G01X15068Y44022D02*
G01X15022Y44000D01*
G01X15113Y44068D02*
G01X15068Y44022D01*
G01X15136Y44113D02*
G01X15113Y44068D01*
G01X15318Y44477D02*
G01X15318Y44000D01*
G01X15477Y44477D02*
G01X15318Y44477D01*
G01X15477Y44477D02*
G01X15545Y44454D01*
G01X15545Y44454D02*
G01X15590Y44409D01*
G01X15590Y44409D02*
G01X15613Y44363D01*
G01X15613Y44363D02*
G01X15636Y44295D01*
G01X15636Y44295D02*
G01X15636Y44181D01*
G01X15636Y44181D02*
G01X15613Y44113D01*
G01X15613Y44113D02*
G01X15590Y44068D01*
G01X15590Y44068D02*
G01X15545Y44022D01*
G01X15545Y44022D02*
G01X15477Y44000D01*
G01X15318Y44000D02*
G01X15477Y44000D01*
G01X16045Y44477D02*
G01X15818Y44159D01*
G01X16159Y44159D02*
G01X15818Y44159D01*
G01X16045Y44477D02*
G01X16045Y44000D01*
G01X16477Y44477D02*
G01X16409Y44454D01*
G01X16409Y44454D02*
G01X16363Y44386D01*
G01X16363Y44386D02*
G01X16340Y44272D01*
G01X16340Y44272D02*
G01X16340Y44204D01*
G01X16340Y44204D02*
G01X16363Y44090D01*
G01X16363Y44090D02*
G01X16409Y44022D01*
G01X16409Y44022D02*
G01X16477Y44000D01*
G01X16522Y44000D02*
G01X16477Y44000D01*
G01X16590Y44022D02*
G01X16522Y44000D01*
G01X16636Y44090D02*
G01X16590Y44022D01*
G01X16659Y44204D02*
G01X16636Y44090D01*
G01X16659Y44272D02*
G01X16659Y44204D01*
G01X16636Y44386D02*
G01X16659Y44272D01*
G01X16590Y44454D02*
G01X16636Y44386D01*
G01X16522Y44477D02*
G01X16590Y44454D01*
G01X16477Y44477D02*
G01X16522Y44477D01*
G01X16977Y44477D02*
G01X16909Y44454D01*
G01X16909Y44454D02*
G01X16863Y44386D01*
G01X16863Y44386D02*
G01X16840Y44272D01*
G01X16840Y44272D02*
G01X16840Y44204D01*
G01X16840Y44204D02*
G01X16863Y44090D01*
G01X16863Y44090D02*
G01X16909Y44022D01*
G01X16909Y44022D02*
G01X16977Y44000D01*
G01X17022Y44000D02*
G01X16977Y44000D01*
G01X17090Y44022D02*
G01X17022Y44000D01*
G01X17136Y44090D02*
G01X17090Y44022D01*
G01X17159Y44204D02*
G01X17136Y44090D01*
G01X17159Y44272D02*
G01X17159Y44204D01*
G01X17136Y44386D02*
G01X17159Y44272D01*
G01X17090Y44454D02*
G01X17136Y44386D01*
G01X17022Y44477D02*
G01X17090Y44454D01*
G01X16977Y44477D02*
G01X17022Y44477D01*
G01X17659Y44477D02*
G01X17431Y44000D01*
G01X17659Y44477D02*
G01X17340Y44477D01*
G01X18249Y44000D02*
G01X17840Y44000D01*
G01X18659Y44477D02*
G01X18431Y44159D01*
G01X18772Y44159D02*
G01X18431Y44159D01*
G01X18659Y44477D02*
G01X18659Y44000D01*
G04 Draw part R_12K_5*
G04 draw part outline for part R_12K_5*
G01X14500Y31500D02*
G01X14500Y24500D01*
G01X14500Y24500D02*
G01X16500Y24500D01*
G01X16500Y24500D02*
G01X16500Y31500D01*
G01X16500Y31500D02*
G01X14500Y31500D01*
G01X15000Y31500D02*
G01X15000Y31000D01*
G01X15000Y31000D02*
G01X16000Y31000D01*
G01X16000Y31000D02*
G01X16000Y31500D01*
G01X16000Y31500D02*
G01X15000Y31500D01*
G04 draw reference designator for part R_12K_5*
G01X13500Y32477D02*
G01X13500Y32000D01*
G01X13704Y32477D02*
G01X13500Y32477D01*
G01X13704Y32477D02*
G01X13772Y32454D01*
G01X13772Y32454D02*
G01X13795Y32431D01*
G01X13795Y32431D02*
G01X13818Y32386D01*
G01X13818Y32386D02*
G01X13818Y32340D01*
G01X13818Y32340D02*
G01X13795Y32295D01*
G01X13795Y32295D02*
G01X13772Y32272D01*
G01X13772Y32272D02*
G01X13704Y32250D01*
G01X13500Y32250D02*
G01X13704Y32250D01*
G01X13659Y32250D02*
G01X13818Y32000D01*
G01X14409Y32000D02*
G01X14000Y32000D01*
G01X14636Y32409D02*
G01X14590Y32386D01*
G01X14704Y32477D02*
G01X14636Y32409D01*
G01X14704Y32477D02*
G01X14704Y32000D01*
G01X14909Y32386D02*
G01X14909Y32363D01*
G01X14931Y32431D02*
G01X14909Y32386D01*
G01X14954Y32454D02*
G01X14931Y32431D01*
G01X15000Y32477D02*
G01X14954Y32454D01*
G01X15090Y32477D02*
G01X15000Y32477D01*
G01X15090Y32477D02*
G01X15136Y32454D01*
G01X15136Y32454D02*
G01X15159Y32431D01*
G01X15159Y32431D02*
G01X15181Y32386D01*
G01X15181Y32386D02*
G01X15181Y32340D01*
G01X15181Y32340D02*
G01X15159Y32295D01*
G01X15159Y32295D02*
G01X15113Y32227D01*
G01X15113Y32227D02*
G01X14886Y32000D01*
G01X15204Y32000D02*
G01X14886Y32000D01*
G01X15386Y32477D02*
G01X15386Y32000D01*
G01X15704Y32477D02*
G01X15386Y32159D01*
G01X15500Y32272D02*
G01X15704Y32000D01*
G01X16295Y32000D02*
G01X15886Y32000D01*
G01X16522Y32477D02*
G01X16750Y32477D01*
G01X16522Y32477D02*
G01X16500Y32272D01*
G01X16522Y32295D02*
G01X16500Y32272D01*
G01X16590Y32318D02*
G01X16522Y32295D01*
G01X16659Y32318D02*
G01X16590Y32318D01*
G01X16659Y32318D02*
G01X16727Y32295D01*
G01X16727Y32295D02*
G01X16772Y32250D01*
G01X16772Y32250D02*
G01X16795Y32181D01*
G01X16795Y32181D02*
G01X16795Y32136D01*
G01X16795Y32136D02*
G01X16772Y32068D01*
G01X16772Y32068D02*
G01X16727Y32022D01*
G01X16727Y32022D02*
G01X16659Y32000D01*
G01X16590Y32000D02*
G01X16659Y32000D01*
G01X16522Y32022D02*
G01X16590Y32000D01*
G01X16500Y32045D02*
G01X16522Y32022D01*
G01X16477Y32090D02*
G01X16500Y32045D01*
G04 Draw part IC_CD4016_6*
G04 draw part outline for part IC_CD4016_6*
G01X54500Y31500D02*
G01X54500Y24500D01*
G01X54500Y24500D02*
G01X56500Y24500D01*
G01X56500Y24500D02*
G01X56500Y31500D01*
G01X56500Y31500D02*
G01X54500Y31500D01*
G01X55000Y31500D02*
G01X55000Y31000D01*
G01X55000Y31000D02*
G01X56000Y31000D01*
G01X56000Y31000D02*
G01X56000Y31500D01*
G01X56000Y31500D02*
G01X55000Y31500D01*
G04 draw reference designator for part IC_CD4016_6*
G01X53500Y32477D02*
G01X53500Y32000D01*
G01X54000Y32409D02*
G01X54022Y32363D01*
G01X53954Y32454D02*
G01X54000Y32409D01*
G01X53909Y32477D02*
G01X53954Y32454D01*
G01X53818Y32477D02*
G01X53909Y32477D01*
G01X53818Y32477D02*
G01X53772Y32454D01*
G01X53772Y32454D02*
G01X53727Y32409D01*
G01X53727Y32409D02*
G01X53704Y32363D01*
G01X53704Y32363D02*
G01X53681Y32295D01*
G01X53681Y32295D02*
G01X53681Y32181D01*
G01X53681Y32181D02*
G01X53704Y32113D01*
G01X53704Y32113D02*
G01X53727Y32068D01*
G01X53727Y32068D02*
G01X53772Y32022D01*
G01X53772Y32022D02*
G01X53818Y32000D01*
G01X53909Y32000D02*
G01X53818Y32000D01*
G01X53954Y32022D02*
G01X53909Y32000D01*
G01X54000Y32068D02*
G01X53954Y32022D01*
G01X54022Y32113D02*
G01X54000Y32068D01*
G01X54613Y32000D02*
G01X54204Y32000D01*
G01X55113Y32409D02*
G01X55136Y32363D01*
G01X55068Y32454D02*
G01X55113Y32409D01*
G01X55022Y32477D02*
G01X55068Y32454D01*
G01X54931Y32477D02*
G01X55022Y32477D01*
G01X54931Y32477D02*
G01X54886Y32454D01*
G01X54886Y32454D02*
G01X54840Y32409D01*
G01X54840Y32409D02*
G01X54818Y32363D01*
G01X54818Y32363D02*
G01X54795Y32295D01*
G01X54795Y32295D02*
G01X54795Y32181D01*
G01X54795Y32181D02*
G01X54818Y32113D01*
G01X54818Y32113D02*
G01X54840Y32068D01*
G01X54840Y32068D02*
G01X54886Y32022D01*
G01X54886Y32022D02*
G01X54931Y32000D01*
G01X55022Y32000D02*
G01X54931Y32000D01*
G01X55068Y32022D02*
G01X55022Y32000D01*
G01X55113Y32068D02*
G01X55068Y32022D01*
G01X55136Y32113D02*
G01X55113Y32068D01*
G01X55318Y32477D02*
G01X55318Y32000D01*
G01X55477Y32477D02*
G01X55318Y32477D01*
G01X55477Y32477D02*
G01X55545Y32454D01*
G01X55545Y32454D02*
G01X55590Y32409D01*
G01X55590Y32409D02*
G01X55613Y32363D01*
G01X55613Y32363D02*
G01X55636Y32295D01*
G01X55636Y32295D02*
G01X55636Y32181D01*
G01X55636Y32181D02*
G01X55613Y32113D01*
G01X55613Y32113D02*
G01X55590Y32068D01*
G01X55590Y32068D02*
G01X55545Y32022D01*
G01X55545Y32022D02*
G01X55477Y32000D01*
G01X55318Y32000D02*
G01X55477Y32000D01*
G01X56045Y32477D02*
G01X55818Y32159D01*
G01X56159Y32159D02*
G01X55818Y32159D01*
G01X56045Y32477D02*
G01X56045Y32000D01*
G01X56477Y32477D02*
G01X56409Y32454D01*
G01X56409Y32454D02*
G01X56363Y32386D01*
G01X56363Y32386D02*
G01X56340Y32272D01*
G01X56340Y32272D02*
G01X56340Y32204D01*
G01X56340Y32204D02*
G01X56363Y32090D01*
G01X56363Y32090D02*
G01X56409Y32022D01*
G01X56409Y32022D02*
G01X56477Y32000D01*
G01X56522Y32000D02*
G01X56477Y32000D01*
G01X56590Y32022D02*
G01X56522Y32000D01*
G01X56636Y32090D02*
G01X56590Y32022D01*
G01X56659Y32204D02*
G01X56636Y32090D01*
G01X56659Y32272D02*
G01X56659Y32204D01*
G01X56636Y32386D02*
G01X56659Y32272D01*
G01X56590Y32454D02*
G01X56636Y32386D01*
G01X56522Y32477D02*
G01X56590Y32454D01*
G01X56477Y32477D02*
G01X56522Y32477D01*
G01X56886Y32409D02*
G01X56840Y32386D01*
G01X56954Y32477D02*
G01X56886Y32409D01*
G01X56954Y32477D02*
G01X56954Y32000D01*
G01X57386Y32454D02*
G01X57409Y32409D01*
G01X57318Y32477D02*
G01X57386Y32454D01*
G01X57272Y32477D02*
G01X57318Y32477D01*
G01X57272Y32477D02*
G01X57204Y32454D01*
G01X57204Y32454D02*
G01X57159Y32386D01*
G01X57159Y32386D02*
G01X57136Y32272D01*
G01X57136Y32272D02*
G01X57136Y32159D01*
G01X57136Y32159D02*
G01X57159Y32068D01*
G01X57159Y32068D02*
G01X57204Y32022D01*
G01X57204Y32022D02*
G01X57272Y32000D01*
G01X57295Y32000D02*
G01X57272Y32000D01*
G01X57363Y32022D02*
G01X57295Y32000D01*
G01X57409Y32068D02*
G01X57363Y32022D01*
G01X57431Y32136D02*
G01X57409Y32068D01*
G01X57431Y32159D02*
G01X57431Y32136D01*
G01X57409Y32227D02*
G01X57431Y32159D01*
G01X57363Y32272D02*
G01X57409Y32227D01*
G01X57295Y32295D02*
G01X57363Y32272D01*
G01X57272Y32295D02*
G01X57295Y32295D01*
G01X57272Y32295D02*
G01X57204Y32272D01*
G01X57204Y32272D02*
G01X57159Y32227D01*
G01X57159Y32227D02*
G01X57136Y32159D01*
G01X58022Y32000D02*
G01X57613Y32000D01*
G01X58454Y32454D02*
G01X58477Y32409D01*
G01X58386Y32477D02*
G01X58454Y32454D01*
G01X58340Y32477D02*
G01X58386Y32477D01*
G01X58340Y32477D02*
G01X58272Y32454D01*
G01X58272Y32454D02*
G01X58227Y32386D01*
G01X58227Y32386D02*
G01X58204Y32272D01*
G01X58204Y32272D02*
G01X58204Y32159D01*
G01X58204Y32159D02*
G01X58227Y32068D01*
G01X58227Y32068D02*
G01X58272Y32022D01*
G01X58272Y32022D02*
G01X58340Y32000D01*
G01X58363Y32000D02*
G01X58340Y32000D01*
G01X58431Y32022D02*
G01X58363Y32000D01*
G01X58477Y32068D02*
G01X58431Y32022D01*
G01X58499Y32136D02*
G01X58477Y32068D01*
G01X58499Y32159D02*
G01X58499Y32136D01*
G01X58477Y32227D02*
G01X58499Y32159D01*
G01X58431Y32272D02*
G01X58477Y32227D01*
G01X58363Y32295D02*
G01X58431Y32272D01*
G01X58340Y32295D02*
G01X58363Y32295D01*
G01X58340Y32295D02*
G01X58272Y32272D01*
G01X58272Y32272D02*
G01X58227Y32227D01*
G01X58227Y32227D02*
G01X58204Y32159D01*
G04 Draw part IC_CD4016_7*
G04 draw part outline for part IC_CD4016_7*
G01X24500Y7500D02*
G01X24500Y500D01*
G01X24500Y500D02*
G01X26500Y500D01*
G01X26500Y500D02*
G01X26500Y7500D01*
G01X26500Y7500D02*
G01X24500Y7500D01*
G01X25000Y7500D02*
G01X25000Y7000D01*
G01X25000Y7000D02*
G01X26000Y7000D01*
G01X26000Y7000D02*
G01X26000Y7500D01*
G01X26000Y7500D02*
G01X25000Y7500D01*
G04 draw reference designator for part IC_CD4016_7*
G01X23500Y8477D02*
G01X23500Y8000D01*
G01X24000Y8409D02*
G01X24022Y8363D01*
G01X23954Y8454D02*
G01X24000Y8409D01*
G01X23909Y8477D02*
G01X23954Y8454D01*
G01X23818Y8477D02*
G01X23909Y8477D01*
G01X23818Y8477D02*
G01X23772Y8454D01*
G01X23772Y8454D02*
G01X23727Y8409D01*
G01X23727Y8409D02*
G01X23704Y8363D01*
G01X23704Y8363D02*
G01X23681Y8295D01*
G01X23681Y8295D02*
G01X23681Y8181D01*
G01X23681Y8181D02*
G01X23704Y8113D01*
G01X23704Y8113D02*
G01X23727Y8068D01*
G01X23727Y8068D02*
G01X23772Y8022D01*
G01X23772Y8022D02*
G01X23818Y8000D01*
G01X23909Y8000D02*
G01X23818Y8000D01*
G01X23954Y8022D02*
G01X23909Y8000D01*
G01X24000Y8068D02*
G01X23954Y8022D01*
G01X24022Y8113D02*
G01X24000Y8068D01*
G01X24613Y8000D02*
G01X24204Y8000D01*
G01X25113Y8409D02*
G01X25136Y8363D01*
G01X25068Y8454D02*
G01X25113Y8409D01*
G01X25022Y8477D02*
G01X25068Y8454D01*
G01X24931Y8477D02*
G01X25022Y8477D01*
G01X24931Y8477D02*
G01X24886Y8454D01*
G01X24886Y8454D02*
G01X24840Y8409D01*
G01X24840Y8409D02*
G01X24818Y8363D01*
G01X24818Y8363D02*
G01X24795Y8295D01*
G01X24795Y8295D02*
G01X24795Y8181D01*
G01X24795Y8181D02*
G01X24818Y8113D01*
G01X24818Y8113D02*
G01X24840Y8068D01*
G01X24840Y8068D02*
G01X24886Y8022D01*
G01X24886Y8022D02*
G01X24931Y8000D01*
G01X25022Y8000D02*
G01X24931Y8000D01*
G01X25068Y8022D02*
G01X25022Y8000D01*
G01X25113Y8068D02*
G01X25068Y8022D01*
G01X25136Y8113D02*
G01X25113Y8068D01*
G01X25318Y8477D02*
G01X25318Y8000D01*
G01X25477Y8477D02*
G01X25318Y8477D01*
G01X25477Y8477D02*
G01X25545Y8454D01*
G01X25545Y8454D02*
G01X25590Y8409D01*
G01X25590Y8409D02*
G01X25613Y8363D01*
G01X25613Y8363D02*
G01X25636Y8295D01*
G01X25636Y8295D02*
G01X25636Y8181D01*
G01X25636Y8181D02*
G01X25613Y8113D01*
G01X25613Y8113D02*
G01X25590Y8068D01*
G01X25590Y8068D02*
G01X25545Y8022D01*
G01X25545Y8022D02*
G01X25477Y8000D01*
G01X25318Y8000D02*
G01X25477Y8000D01*
G01X26045Y8477D02*
G01X25818Y8159D01*
G01X26159Y8159D02*
G01X25818Y8159D01*
G01X26045Y8477D02*
G01X26045Y8000D01*
G01X26477Y8477D02*
G01X26409Y8454D01*
G01X26409Y8454D02*
G01X26363Y8386D01*
G01X26363Y8386D02*
G01X26340Y8272D01*
G01X26340Y8272D02*
G01X26340Y8204D01*
G01X26340Y8204D02*
G01X26363Y8090D01*
G01X26363Y8090D02*
G01X26409Y8022D01*
G01X26409Y8022D02*
G01X26477Y8000D01*
G01X26522Y8000D02*
G01X26477Y8000D01*
G01X26590Y8022D02*
G01X26522Y8000D01*
G01X26636Y8090D02*
G01X26590Y8022D01*
G01X26659Y8204D02*
G01X26636Y8090D01*
G01X26659Y8272D02*
G01X26659Y8204D01*
G01X26636Y8386D02*
G01X26659Y8272D01*
G01X26590Y8454D02*
G01X26636Y8386D01*
G01X26522Y8477D02*
G01X26590Y8454D01*
G01X26477Y8477D02*
G01X26522Y8477D01*
G01X26886Y8409D02*
G01X26840Y8386D01*
G01X26954Y8477D02*
G01X26886Y8409D01*
G01X26954Y8477D02*
G01X26954Y8000D01*
G01X27386Y8454D02*
G01X27409Y8409D01*
G01X27318Y8477D02*
G01X27386Y8454D01*
G01X27272Y8477D02*
G01X27318Y8477D01*
G01X27272Y8477D02*
G01X27204Y8454D01*
G01X27204Y8454D02*
G01X27159Y8386D01*
G01X27159Y8386D02*
G01X27136Y8272D01*
G01X27136Y8272D02*
G01X27136Y8159D01*
G01X27136Y8159D02*
G01X27159Y8068D01*
G01X27159Y8068D02*
G01X27204Y8022D01*
G01X27204Y8022D02*
G01X27272Y8000D01*
G01X27295Y8000D02*
G01X27272Y8000D01*
G01X27363Y8022D02*
G01X27295Y8000D01*
G01X27409Y8068D02*
G01X27363Y8022D01*
G01X27431Y8136D02*
G01X27409Y8068D01*
G01X27431Y8159D02*
G01X27431Y8136D01*
G01X27409Y8227D02*
G01X27431Y8159D01*
G01X27363Y8272D02*
G01X27409Y8227D01*
G01X27295Y8295D02*
G01X27363Y8272D01*
G01X27272Y8295D02*
G01X27295Y8295D01*
G01X27272Y8295D02*
G01X27204Y8272D01*
G01X27204Y8272D02*
G01X27159Y8227D01*
G01X27159Y8227D02*
G01X27136Y8159D01*
G01X28022Y8000D02*
G01X27613Y8000D01*
G01X28522Y8477D02*
G01X28295Y8000D01*
G01X28522Y8477D02*
G01X28204Y8477D01*
G04 Draw part IC_CD4016_8*
G04 draw part outline for part IC_CD4016_8*
G01X4500Y7500D02*
G01X4500Y500D01*
G01X4500Y500D02*
G01X6500Y500D01*
G01X6500Y500D02*
G01X6500Y7500D01*
G01X6500Y7500D02*
G01X4500Y7500D01*
G01X5000Y7500D02*
G01X5000Y7000D01*
G01X5000Y7000D02*
G01X6000Y7000D01*
G01X6000Y7000D02*
G01X6000Y7500D01*
G01X6000Y7500D02*
G01X5000Y7500D01*
G04 draw reference designator for part IC_CD4016_8*
G01X3500Y8477D02*
G01X3500Y8000D01*
G01X4000Y8409D02*
G01X4022Y8363D01*
G01X3954Y8454D02*
G01X4000Y8409D01*
G01X3909Y8477D02*
G01X3954Y8454D01*
G01X3818Y8477D02*
G01X3909Y8477D01*
G01X3818Y8477D02*
G01X3772Y8454D01*
G01X3772Y8454D02*
G01X3727Y8409D01*
G01X3727Y8409D02*
G01X3704Y8363D01*
G01X3704Y8363D02*
G01X3681Y8295D01*
G01X3681Y8295D02*
G01X3681Y8181D01*
G01X3681Y8181D02*
G01X3704Y8113D01*
G01X3704Y8113D02*
G01X3727Y8068D01*
G01X3727Y8068D02*
G01X3772Y8022D01*
G01X3772Y8022D02*
G01X3818Y8000D01*
G01X3909Y8000D02*
G01X3818Y8000D01*
G01X3954Y8022D02*
G01X3909Y8000D01*
G01X4000Y8068D02*
G01X3954Y8022D01*
G01X4022Y8113D02*
G01X4000Y8068D01*
G01X4613Y8000D02*
G01X4204Y8000D01*
G01X5113Y8409D02*
G01X5136Y8363D01*
G01X5068Y8454D02*
G01X5113Y8409D01*
G01X5022Y8477D02*
G01X5068Y8454D01*
G01X4931Y8477D02*
G01X5022Y8477D01*
G01X4931Y8477D02*
G01X4886Y8454D01*
G01X4886Y8454D02*
G01X4840Y8409D01*
G01X4840Y8409D02*
G01X4818Y8363D01*
G01X4818Y8363D02*
G01X4795Y8295D01*
G01X4795Y8295D02*
G01X4795Y8181D01*
G01X4795Y8181D02*
G01X4818Y8113D01*
G01X4818Y8113D02*
G01X4840Y8068D01*
G01X4840Y8068D02*
G01X4886Y8022D01*
G01X4886Y8022D02*
G01X4931Y8000D01*
G01X5022Y8000D02*
G01X4931Y8000D01*
G01X5068Y8022D02*
G01X5022Y8000D01*
G01X5113Y8068D02*
G01X5068Y8022D01*
G01X5136Y8113D02*
G01X5113Y8068D01*
G01X5318Y8477D02*
G01X5318Y8000D01*
G01X5477Y8477D02*
G01X5318Y8477D01*
G01X5477Y8477D02*
G01X5545Y8454D01*
G01X5545Y8454D02*
G01X5590Y8409D01*
G01X5590Y8409D02*
G01X5613Y8363D01*
G01X5613Y8363D02*
G01X5636Y8295D01*
G01X5636Y8295D02*
G01X5636Y8181D01*
G01X5636Y8181D02*
G01X5613Y8113D01*
G01X5613Y8113D02*
G01X5590Y8068D01*
G01X5590Y8068D02*
G01X5545Y8022D01*
G01X5545Y8022D02*
G01X5477Y8000D01*
G01X5318Y8000D02*
G01X5477Y8000D01*
G01X6045Y8477D02*
G01X5818Y8159D01*
G01X6159Y8159D02*
G01X5818Y8159D01*
G01X6045Y8477D02*
G01X6045Y8000D01*
G01X6477Y8477D02*
G01X6409Y8454D01*
G01X6409Y8454D02*
G01X6363Y8386D01*
G01X6363Y8386D02*
G01X6340Y8272D01*
G01X6340Y8272D02*
G01X6340Y8204D01*
G01X6340Y8204D02*
G01X6363Y8090D01*
G01X6363Y8090D02*
G01X6409Y8022D01*
G01X6409Y8022D02*
G01X6477Y8000D01*
G01X6522Y8000D02*
G01X6477Y8000D01*
G01X6590Y8022D02*
G01X6522Y8000D01*
G01X6636Y8090D02*
G01X6590Y8022D01*
G01X6659Y8204D02*
G01X6636Y8090D01*
G01X6659Y8272D02*
G01X6659Y8204D01*
G01X6636Y8386D02*
G01X6659Y8272D01*
G01X6590Y8454D02*
G01X6636Y8386D01*
G01X6522Y8477D02*
G01X6590Y8454D01*
G01X6477Y8477D02*
G01X6522Y8477D01*
G01X6886Y8409D02*
G01X6840Y8386D01*
G01X6954Y8477D02*
G01X6886Y8409D01*
G01X6954Y8477D02*
G01X6954Y8000D01*
G01X7386Y8454D02*
G01X7409Y8409D01*
G01X7318Y8477D02*
G01X7386Y8454D01*
G01X7272Y8477D02*
G01X7318Y8477D01*
G01X7272Y8477D02*
G01X7204Y8454D01*
G01X7204Y8454D02*
G01X7159Y8386D01*
G01X7159Y8386D02*
G01X7136Y8272D01*
G01X7136Y8272D02*
G01X7136Y8159D01*
G01X7136Y8159D02*
G01X7159Y8068D01*
G01X7159Y8068D02*
G01X7204Y8022D01*
G01X7204Y8022D02*
G01X7272Y8000D01*
G01X7295Y8000D02*
G01X7272Y8000D01*
G01X7363Y8022D02*
G01X7295Y8000D01*
G01X7409Y8068D02*
G01X7363Y8022D01*
G01X7431Y8136D02*
G01X7409Y8068D01*
G01X7431Y8159D02*
G01X7431Y8136D01*
G01X7409Y8227D02*
G01X7431Y8159D01*
G01X7363Y8272D02*
G01X7409Y8227D01*
G01X7295Y8295D02*
G01X7363Y8272D01*
G01X7272Y8295D02*
G01X7295Y8295D01*
G01X7272Y8295D02*
G01X7204Y8272D01*
G01X7204Y8272D02*
G01X7159Y8227D01*
G01X7159Y8227D02*
G01X7136Y8159D01*
G01X8022Y8000D02*
G01X7613Y8000D01*
G01X8318Y8477D02*
G01X8249Y8454D01*
G01X8249Y8454D02*
G01X8227Y8409D01*
G01X8227Y8409D02*
G01X8227Y8363D01*
G01X8227Y8363D02*
G01X8249Y8318D01*
G01X8249Y8318D02*
G01X8295Y8295D01*
G01X8295Y8295D02*
G01X8386Y8272D01*
G01X8386Y8272D02*
G01X8454Y8250D01*
G01X8454Y8250D02*
G01X8499Y8204D01*
G01X8499Y8204D02*
G01X8522Y8159D01*
G01X8522Y8159D02*
G01X8522Y8090D01*
G01X8522Y8090D02*
G01X8499Y8045D01*
G01X8499Y8045D02*
G01X8477Y8022D01*
G01X8477Y8022D02*
G01X8409Y8000D01*
G01X8318Y8000D02*
G01X8409Y8000D01*
G01X8249Y8022D02*
G01X8318Y8000D01*
G01X8227Y8045D02*
G01X8249Y8022D01*
G01X8204Y8090D02*
G01X8227Y8045D01*
G01X8204Y8159D02*
G01X8204Y8090D01*
G01X8227Y8204D02*
G01X8204Y8159D01*
G01X8272Y8250D02*
G01X8227Y8204D01*
G01X8340Y8272D02*
G01X8272Y8250D01*
G01X8431Y8295D02*
G01X8340Y8272D01*
G01X8477Y8318D02*
G01X8431Y8295D01*
G01X8499Y8363D02*
G01X8477Y8318D01*
G01X8499Y8409D02*
G01X8499Y8363D01*
G01X8477Y8454D02*
G01X8499Y8409D01*
G01X8409Y8477D02*
G01X8477Y8454D01*
G01X8318Y8477D02*
G01X8409Y8477D01*
G04 Draw part IC_CD4016_9*
G04 draw part outline for part IC_CD4016_9*
G01X34500Y7500D02*
G01X34500Y500D01*
G01X34500Y500D02*
G01X36500Y500D01*
G01X36500Y500D02*
G01X36500Y7500D01*
G01X36500Y7500D02*
G01X34500Y7500D01*
G01X35000Y7500D02*
G01X35000Y7000D01*
G01X35000Y7000D02*
G01X36000Y7000D01*
G01X36000Y7000D02*
G01X36000Y7500D01*
G01X36000Y7500D02*
G01X35000Y7500D01*
G04 draw reference designator for part IC_CD4016_9*
G01X33500Y8477D02*
G01X33500Y8000D01*
G01X34000Y8409D02*
G01X34022Y8363D01*
G01X33954Y8454D02*
G01X34000Y8409D01*
G01X33909Y8477D02*
G01X33954Y8454D01*
G01X33818Y8477D02*
G01X33909Y8477D01*
G01X33818Y8477D02*
G01X33772Y8454D01*
G01X33772Y8454D02*
G01X33727Y8409D01*
G01X33727Y8409D02*
G01X33704Y8363D01*
G01X33704Y8363D02*
G01X33681Y8295D01*
G01X33681Y8295D02*
G01X33681Y8181D01*
G01X33681Y8181D02*
G01X33704Y8113D01*
G01X33704Y8113D02*
G01X33727Y8068D01*
G01X33727Y8068D02*
G01X33772Y8022D01*
G01X33772Y8022D02*
G01X33818Y8000D01*
G01X33909Y8000D02*
G01X33818Y8000D01*
G01X33954Y8022D02*
G01X33909Y8000D01*
G01X34000Y8068D02*
G01X33954Y8022D01*
G01X34022Y8113D02*
G01X34000Y8068D01*
G01X34613Y8000D02*
G01X34204Y8000D01*
G01X35113Y8409D02*
G01X35136Y8363D01*
G01X35068Y8454D02*
G01X35113Y8409D01*
G01X35022Y8477D02*
G01X35068Y8454D01*
G01X34931Y8477D02*
G01X35022Y8477D01*
G01X34931Y8477D02*
G01X34886Y8454D01*
G01X34886Y8454D02*
G01X34840Y8409D01*
G01X34840Y8409D02*
G01X34818Y8363D01*
G01X34818Y8363D02*
G01X34795Y8295D01*
G01X34795Y8295D02*
G01X34795Y8181D01*
G01X34795Y8181D02*
G01X34818Y8113D01*
G01X34818Y8113D02*
G01X34840Y8068D01*
G01X34840Y8068D02*
G01X34886Y8022D01*
G01X34886Y8022D02*
G01X34931Y8000D01*
G01X35022Y8000D02*
G01X34931Y8000D01*
G01X35068Y8022D02*
G01X35022Y8000D01*
G01X35113Y8068D02*
G01X35068Y8022D01*
G01X35136Y8113D02*
G01X35113Y8068D01*
G01X35318Y8477D02*
G01X35318Y8000D01*
G01X35477Y8477D02*
G01X35318Y8477D01*
G01X35477Y8477D02*
G01X35545Y8454D01*
G01X35545Y8454D02*
G01X35590Y8409D01*
G01X35590Y8409D02*
G01X35613Y8363D01*
G01X35613Y8363D02*
G01X35636Y8295D01*
G01X35636Y8295D02*
G01X35636Y8181D01*
G01X35636Y8181D02*
G01X35613Y8113D01*
G01X35613Y8113D02*
G01X35590Y8068D01*
G01X35590Y8068D02*
G01X35545Y8022D01*
G01X35545Y8022D02*
G01X35477Y8000D01*
G01X35318Y8000D02*
G01X35477Y8000D01*
G01X36045Y8477D02*
G01X35818Y8159D01*
G01X36159Y8159D02*
G01X35818Y8159D01*
G01X36045Y8477D02*
G01X36045Y8000D01*
G01X36477Y8477D02*
G01X36409Y8454D01*
G01X36409Y8454D02*
G01X36363Y8386D01*
G01X36363Y8386D02*
G01X36340Y8272D01*
G01X36340Y8272D02*
G01X36340Y8204D01*
G01X36340Y8204D02*
G01X36363Y8090D01*
G01X36363Y8090D02*
G01X36409Y8022D01*
G01X36409Y8022D02*
G01X36477Y8000D01*
G01X36522Y8000D02*
G01X36477Y8000D01*
G01X36590Y8022D02*
G01X36522Y8000D01*
G01X36636Y8090D02*
G01X36590Y8022D01*
G01X36659Y8204D02*
G01X36636Y8090D01*
G01X36659Y8272D02*
G01X36659Y8204D01*
G01X36636Y8386D02*
G01X36659Y8272D01*
G01X36590Y8454D02*
G01X36636Y8386D01*
G01X36522Y8477D02*
G01X36590Y8454D01*
G01X36477Y8477D02*
G01X36522Y8477D01*
G01X36886Y8409D02*
G01X36840Y8386D01*
G01X36954Y8477D02*
G01X36886Y8409D01*
G01X36954Y8477D02*
G01X36954Y8000D01*
G01X37386Y8454D02*
G01X37409Y8409D01*
G01X37318Y8477D02*
G01X37386Y8454D01*
G01X37272Y8477D02*
G01X37318Y8477D01*
G01X37272Y8477D02*
G01X37204Y8454D01*
G01X37204Y8454D02*
G01X37159Y8386D01*
G01X37159Y8386D02*
G01X37136Y8272D01*
G01X37136Y8272D02*
G01X37136Y8159D01*
G01X37136Y8159D02*
G01X37159Y8068D01*
G01X37159Y8068D02*
G01X37204Y8022D01*
G01X37204Y8022D02*
G01X37272Y8000D01*
G01X37295Y8000D02*
G01X37272Y8000D01*
G01X37363Y8022D02*
G01X37295Y8000D01*
G01X37409Y8068D02*
G01X37363Y8022D01*
G01X37431Y8136D02*
G01X37409Y8068D01*
G01X37431Y8159D02*
G01X37431Y8136D01*
G01X37409Y8227D02*
G01X37431Y8159D01*
G01X37363Y8272D02*
G01X37409Y8227D01*
G01X37295Y8295D02*
G01X37363Y8272D01*
G01X37272Y8295D02*
G01X37295Y8295D01*
G01X37272Y8295D02*
G01X37204Y8272D01*
G01X37204Y8272D02*
G01X37159Y8227D01*
G01X37159Y8227D02*
G01X37136Y8159D01*
G01X38022Y8000D02*
G01X37613Y8000D01*
G01X38499Y8318D02*
G01X38477Y8250D01*
G01X38477Y8250D02*
G01X38431Y8204D01*
G01X38431Y8204D02*
G01X38363Y8181D01*
G01X38340Y8181D02*
G01X38363Y8181D01*
G01X38272Y8204D02*
G01X38340Y8181D01*
G01X38227Y8250D02*
G01X38272Y8204D01*
G01X38204Y8318D02*
G01X38227Y8250D01*
G01X38204Y8340D02*
G01X38204Y8318D01*
G01X38227Y8409D02*
G01X38204Y8340D01*
G01X38272Y8454D02*
G01X38227Y8409D01*
G01X38340Y8477D02*
G01X38272Y8454D01*
G01X38363Y8477D02*
G01X38340Y8477D01*
G01X38363Y8477D02*
G01X38431Y8454D01*
G01X38431Y8454D02*
G01X38477Y8409D01*
G01X38477Y8409D02*
G01X38499Y8318D01*
G01X38499Y8318D02*
G01X38499Y8204D01*
G01X38499Y8204D02*
G01X38477Y8090D01*
G01X38477Y8090D02*
G01X38431Y8022D01*
G01X38431Y8022D02*
G01X38363Y8000D01*
G01X38318Y8000D02*
G01X38363Y8000D01*
G01X38249Y8022D02*
G01X38318Y8000D01*
G01X38227Y8068D02*
G01X38249Y8022D01*
G04 Draw part IC_CD4016_10*
G04 draw part outline for part IC_CD4016_10*
G01X54500Y19500D02*
G01X54500Y12500D01*
G01X54500Y12500D02*
G01X56500Y12500D01*
G01X56500Y12500D02*
G01X56500Y19500D01*
G01X56500Y19500D02*
G01X54500Y19500D01*
G01X55000Y19500D02*
G01X55000Y19000D01*
G01X55000Y19000D02*
G01X56000Y19000D01*
G01X56000Y19000D02*
G01X56000Y19500D01*
G01X56000Y19500D02*
G01X55000Y19500D01*
G04 draw reference designator for part IC_CD4016_10*
G01X53500Y20477D02*
G01X53500Y20000D01*
G01X54000Y20409D02*
G01X54022Y20363D01*
G01X53954Y20454D02*
G01X54000Y20409D01*
G01X53909Y20477D02*
G01X53954Y20454D01*
G01X53818Y20477D02*
G01X53909Y20477D01*
G01X53818Y20477D02*
G01X53772Y20454D01*
G01X53772Y20454D02*
G01X53727Y20409D01*
G01X53727Y20409D02*
G01X53704Y20363D01*
G01X53704Y20363D02*
G01X53681Y20295D01*
G01X53681Y20295D02*
G01X53681Y20181D01*
G01X53681Y20181D02*
G01X53704Y20113D01*
G01X53704Y20113D02*
G01X53727Y20068D01*
G01X53727Y20068D02*
G01X53772Y20022D01*
G01X53772Y20022D02*
G01X53818Y20000D01*
G01X53909Y20000D02*
G01X53818Y20000D01*
G01X53954Y20022D02*
G01X53909Y20000D01*
G01X54000Y20068D02*
G01X53954Y20022D01*
G01X54022Y20113D02*
G01X54000Y20068D01*
G01X54613Y20000D02*
G01X54204Y20000D01*
G01X55113Y20409D02*
G01X55136Y20363D01*
G01X55068Y20454D02*
G01X55113Y20409D01*
G01X55022Y20477D02*
G01X55068Y20454D01*
G01X54931Y20477D02*
G01X55022Y20477D01*
G01X54931Y20477D02*
G01X54886Y20454D01*
G01X54886Y20454D02*
G01X54840Y20409D01*
G01X54840Y20409D02*
G01X54818Y20363D01*
G01X54818Y20363D02*
G01X54795Y20295D01*
G01X54795Y20295D02*
G01X54795Y20181D01*
G01X54795Y20181D02*
G01X54818Y20113D01*
G01X54818Y20113D02*
G01X54840Y20068D01*
G01X54840Y20068D02*
G01X54886Y20022D01*
G01X54886Y20022D02*
G01X54931Y20000D01*
G01X55022Y20000D02*
G01X54931Y20000D01*
G01X55068Y20022D02*
G01X55022Y20000D01*
G01X55113Y20068D02*
G01X55068Y20022D01*
G01X55136Y20113D02*
G01X55113Y20068D01*
G01X55318Y20477D02*
G01X55318Y20000D01*
G01X55477Y20477D02*
G01X55318Y20477D01*
G01X55477Y20477D02*
G01X55545Y20454D01*
G01X55545Y20454D02*
G01X55590Y20409D01*
G01X55590Y20409D02*
G01X55613Y20363D01*
G01X55613Y20363D02*
G01X55636Y20295D01*
G01X55636Y20295D02*
G01X55636Y20181D01*
G01X55636Y20181D02*
G01X55613Y20113D01*
G01X55613Y20113D02*
G01X55590Y20068D01*
G01X55590Y20068D02*
G01X55545Y20022D01*
G01X55545Y20022D02*
G01X55477Y20000D01*
G01X55318Y20000D02*
G01X55477Y20000D01*
G01X56045Y20477D02*
G01X55818Y20159D01*
G01X56159Y20159D02*
G01X55818Y20159D01*
G01X56045Y20477D02*
G01X56045Y20000D01*
G01X56477Y20477D02*
G01X56409Y20454D01*
G01X56409Y20454D02*
G01X56363Y20386D01*
G01X56363Y20386D02*
G01X56340Y20272D01*
G01X56340Y20272D02*
G01X56340Y20204D01*
G01X56340Y20204D02*
G01X56363Y20090D01*
G01X56363Y20090D02*
G01X56409Y20022D01*
G01X56409Y20022D02*
G01X56477Y20000D01*
G01X56522Y20000D02*
G01X56477Y20000D01*
G01X56590Y20022D02*
G01X56522Y20000D01*
G01X56636Y20090D02*
G01X56590Y20022D01*
G01X56659Y20204D02*
G01X56636Y20090D01*
G01X56659Y20272D02*
G01X56659Y20204D01*
G01X56636Y20386D02*
G01X56659Y20272D01*
G01X56590Y20454D02*
G01X56636Y20386D01*
G01X56522Y20477D02*
G01X56590Y20454D01*
G01X56477Y20477D02*
G01X56522Y20477D01*
G01X56886Y20409D02*
G01X56840Y20386D01*
G01X56954Y20477D02*
G01X56886Y20409D01*
G01X56954Y20477D02*
G01X56954Y20000D01*
G01X57386Y20454D02*
G01X57409Y20409D01*
G01X57318Y20477D02*
G01X57386Y20454D01*
G01X57272Y20477D02*
G01X57318Y20477D01*
G01X57272Y20477D02*
G01X57204Y20454D01*
G01X57204Y20454D02*
G01X57159Y20386D01*
G01X57159Y20386D02*
G01X57136Y20272D01*
G01X57136Y20272D02*
G01X57136Y20159D01*
G01X57136Y20159D02*
G01X57159Y20068D01*
G01X57159Y20068D02*
G01X57204Y20022D01*
G01X57204Y20022D02*
G01X57272Y20000D01*
G01X57295Y20000D02*
G01X57272Y20000D01*
G01X57363Y20022D02*
G01X57295Y20000D01*
G01X57409Y20068D02*
G01X57363Y20022D01*
G01X57431Y20136D02*
G01X57409Y20068D01*
G01X57431Y20159D02*
G01X57431Y20136D01*
G01X57409Y20227D02*
G01X57431Y20159D01*
G01X57363Y20272D02*
G01X57409Y20227D01*
G01X57295Y20295D02*
G01X57363Y20272D01*
G01X57272Y20295D02*
G01X57295Y20295D01*
G01X57272Y20295D02*
G01X57204Y20272D01*
G01X57204Y20272D02*
G01X57159Y20227D01*
G01X57159Y20227D02*
G01X57136Y20159D01*
G01X58022Y20000D02*
G01X57613Y20000D01*
G01X58249Y20409D02*
G01X58204Y20386D01*
G01X58318Y20477D02*
G01X58249Y20409D01*
G01X58318Y20477D02*
G01X58318Y20000D01*
G01X58636Y20477D02*
G01X58568Y20454D01*
G01X58568Y20454D02*
G01X58522Y20386D01*
G01X58522Y20386D02*
G01X58499Y20272D01*
G01X58499Y20272D02*
G01X58499Y20204D01*
G01X58499Y20204D02*
G01X58522Y20090D01*
G01X58522Y20090D02*
G01X58568Y20022D01*
G01X58568Y20022D02*
G01X58636Y20000D01*
G01X58681Y20000D02*
G01X58636Y20000D01*
G01X58749Y20022D02*
G01X58681Y20000D01*
G01X58795Y20090D02*
G01X58749Y20022D01*
G01X58818Y20204D02*
G01X58795Y20090D01*
G01X58818Y20272D02*
G01X58818Y20204D01*
G01X58795Y20386D02*
G01X58818Y20272D01*
G01X58749Y20454D02*
G01X58795Y20386D01*
G01X58681Y20477D02*
G01X58749Y20454D01*
G01X58636Y20477D02*
G01X58681Y20477D01*
G04 Draw part IC_CD4016_11*
G04 draw part outline for part IC_CD4016_11*
G01X34500Y19500D02*
G01X34500Y12500D01*
G01X34500Y12500D02*
G01X36500Y12500D01*
G01X36500Y12500D02*
G01X36500Y19500D01*
G01X36500Y19500D02*
G01X34500Y19500D01*
G01X35000Y19500D02*
G01X35000Y19000D01*
G01X35000Y19000D02*
G01X36000Y19000D01*
G01X36000Y19000D02*
G01X36000Y19500D01*
G01X36000Y19500D02*
G01X35000Y19500D01*
G04 draw reference designator for part IC_CD4016_11*
G01X33500Y20477D02*
G01X33500Y20000D01*
G01X34000Y20409D02*
G01X34022Y20363D01*
G01X33954Y20454D02*
G01X34000Y20409D01*
G01X33909Y20477D02*
G01X33954Y20454D01*
G01X33818Y20477D02*
G01X33909Y20477D01*
G01X33818Y20477D02*
G01X33772Y20454D01*
G01X33772Y20454D02*
G01X33727Y20409D01*
G01X33727Y20409D02*
G01X33704Y20363D01*
G01X33704Y20363D02*
G01X33681Y20295D01*
G01X33681Y20295D02*
G01X33681Y20181D01*
G01X33681Y20181D02*
G01X33704Y20113D01*
G01X33704Y20113D02*
G01X33727Y20068D01*
G01X33727Y20068D02*
G01X33772Y20022D01*
G01X33772Y20022D02*
G01X33818Y20000D01*
G01X33909Y20000D02*
G01X33818Y20000D01*
G01X33954Y20022D02*
G01X33909Y20000D01*
G01X34000Y20068D02*
G01X33954Y20022D01*
G01X34022Y20113D02*
G01X34000Y20068D01*
G01X34613Y20000D02*
G01X34204Y20000D01*
G01X35113Y20409D02*
G01X35136Y20363D01*
G01X35068Y20454D02*
G01X35113Y20409D01*
G01X35022Y20477D02*
G01X35068Y20454D01*
G01X34931Y20477D02*
G01X35022Y20477D01*
G01X34931Y20477D02*
G01X34886Y20454D01*
G01X34886Y20454D02*
G01X34840Y20409D01*
G01X34840Y20409D02*
G01X34818Y20363D01*
G01X34818Y20363D02*
G01X34795Y20295D01*
G01X34795Y20295D02*
G01X34795Y20181D01*
G01X34795Y20181D02*
G01X34818Y20113D01*
G01X34818Y20113D02*
G01X34840Y20068D01*
G01X34840Y20068D02*
G01X34886Y20022D01*
G01X34886Y20022D02*
G01X34931Y20000D01*
G01X35022Y20000D02*
G01X34931Y20000D01*
G01X35068Y20022D02*
G01X35022Y20000D01*
G01X35113Y20068D02*
G01X35068Y20022D01*
G01X35136Y20113D02*
G01X35113Y20068D01*
G01X35318Y20477D02*
G01X35318Y20000D01*
G01X35477Y20477D02*
G01X35318Y20477D01*
G01X35477Y20477D02*
G01X35545Y20454D01*
G01X35545Y20454D02*
G01X35590Y20409D01*
G01X35590Y20409D02*
G01X35613Y20363D01*
G01X35613Y20363D02*
G01X35636Y20295D01*
G01X35636Y20295D02*
G01X35636Y20181D01*
G01X35636Y20181D02*
G01X35613Y20113D01*
G01X35613Y20113D02*
G01X35590Y20068D01*
G01X35590Y20068D02*
G01X35545Y20022D01*
G01X35545Y20022D02*
G01X35477Y20000D01*
G01X35318Y20000D02*
G01X35477Y20000D01*
G01X36045Y20477D02*
G01X35818Y20159D01*
G01X36159Y20159D02*
G01X35818Y20159D01*
G01X36045Y20477D02*
G01X36045Y20000D01*
G01X36477Y20477D02*
G01X36409Y20454D01*
G01X36409Y20454D02*
G01X36363Y20386D01*
G01X36363Y20386D02*
G01X36340Y20272D01*
G01X36340Y20272D02*
G01X36340Y20204D01*
G01X36340Y20204D02*
G01X36363Y20090D01*
G01X36363Y20090D02*
G01X36409Y20022D01*
G01X36409Y20022D02*
G01X36477Y20000D01*
G01X36522Y20000D02*
G01X36477Y20000D01*
G01X36590Y20022D02*
G01X36522Y20000D01*
G01X36636Y20090D02*
G01X36590Y20022D01*
G01X36659Y20204D02*
G01X36636Y20090D01*
G01X36659Y20272D02*
G01X36659Y20204D01*
G01X36636Y20386D02*
G01X36659Y20272D01*
G01X36590Y20454D02*
G01X36636Y20386D01*
G01X36522Y20477D02*
G01X36590Y20454D01*
G01X36477Y20477D02*
G01X36522Y20477D01*
G01X36886Y20409D02*
G01X36840Y20386D01*
G01X36954Y20477D02*
G01X36886Y20409D01*
G01X36954Y20477D02*
G01X36954Y20000D01*
G01X37386Y20454D02*
G01X37409Y20409D01*
G01X37318Y20477D02*
G01X37386Y20454D01*
G01X37272Y20477D02*
G01X37318Y20477D01*
G01X37272Y20477D02*
G01X37204Y20454D01*
G01X37204Y20454D02*
G01X37159Y20386D01*
G01X37159Y20386D02*
G01X37136Y20272D01*
G01X37136Y20272D02*
G01X37136Y20159D01*
G01X37136Y20159D02*
G01X37159Y20068D01*
G01X37159Y20068D02*
G01X37204Y20022D01*
G01X37204Y20022D02*
G01X37272Y20000D01*
G01X37295Y20000D02*
G01X37272Y20000D01*
G01X37363Y20022D02*
G01X37295Y20000D01*
G01X37409Y20068D02*
G01X37363Y20022D01*
G01X37431Y20136D02*
G01X37409Y20068D01*
G01X37431Y20159D02*
G01X37431Y20136D01*
G01X37409Y20227D02*
G01X37431Y20159D01*
G01X37363Y20272D02*
G01X37409Y20227D01*
G01X37295Y20295D02*
G01X37363Y20272D01*
G01X37272Y20295D02*
G01X37295Y20295D01*
G01X37272Y20295D02*
G01X37204Y20272D01*
G01X37204Y20272D02*
G01X37159Y20227D01*
G01X37159Y20227D02*
G01X37136Y20159D01*
G01X38022Y20000D02*
G01X37613Y20000D01*
G01X38249Y20409D02*
G01X38204Y20386D01*
G01X38318Y20477D02*
G01X38249Y20409D01*
G01X38318Y20477D02*
G01X38318Y20000D01*
G01X38545Y20409D02*
G01X38499Y20386D01*
G01X38613Y20477D02*
G01X38545Y20409D01*
G01X38613Y20477D02*
G01X38613Y20000D01*
G04 Draw part IC_CD4016_12*
G04 draw part outline for part IC_CD4016_12*
G01X44500Y19500D02*
G01X44500Y12500D01*
G01X44500Y12500D02*
G01X46500Y12500D01*
G01X46500Y12500D02*
G01X46500Y19500D01*
G01X46500Y19500D02*
G01X44500Y19500D01*
G01X45000Y19500D02*
G01X45000Y19000D01*
G01X45000Y19000D02*
G01X46000Y19000D01*
G01X46000Y19000D02*
G01X46000Y19500D01*
G01X46000Y19500D02*
G01X45000Y19500D01*
G04 draw reference designator for part IC_CD4016_12*
G01X43500Y20477D02*
G01X43500Y20000D01*
G01X44000Y20409D02*
G01X44022Y20363D01*
G01X43954Y20454D02*
G01X44000Y20409D01*
G01X43909Y20477D02*
G01X43954Y20454D01*
G01X43818Y20477D02*
G01X43909Y20477D01*
G01X43818Y20477D02*
G01X43772Y20454D01*
G01X43772Y20454D02*
G01X43727Y20409D01*
G01X43727Y20409D02*
G01X43704Y20363D01*
G01X43704Y20363D02*
G01X43681Y20295D01*
G01X43681Y20295D02*
G01X43681Y20181D01*
G01X43681Y20181D02*
G01X43704Y20113D01*
G01X43704Y20113D02*
G01X43727Y20068D01*
G01X43727Y20068D02*
G01X43772Y20022D01*
G01X43772Y20022D02*
G01X43818Y20000D01*
G01X43909Y20000D02*
G01X43818Y20000D01*
G01X43954Y20022D02*
G01X43909Y20000D01*
G01X44000Y20068D02*
G01X43954Y20022D01*
G01X44022Y20113D02*
G01X44000Y20068D01*
G01X44613Y20000D02*
G01X44204Y20000D01*
G01X45113Y20409D02*
G01X45136Y20363D01*
G01X45068Y20454D02*
G01X45113Y20409D01*
G01X45022Y20477D02*
G01X45068Y20454D01*
G01X44931Y20477D02*
G01X45022Y20477D01*
G01X44931Y20477D02*
G01X44886Y20454D01*
G01X44886Y20454D02*
G01X44840Y20409D01*
G01X44840Y20409D02*
G01X44818Y20363D01*
G01X44818Y20363D02*
G01X44795Y20295D01*
G01X44795Y20295D02*
G01X44795Y20181D01*
G01X44795Y20181D02*
G01X44818Y20113D01*
G01X44818Y20113D02*
G01X44840Y20068D01*
G01X44840Y20068D02*
G01X44886Y20022D01*
G01X44886Y20022D02*
G01X44931Y20000D01*
G01X45022Y20000D02*
G01X44931Y20000D01*
G01X45068Y20022D02*
G01X45022Y20000D01*
G01X45113Y20068D02*
G01X45068Y20022D01*
G01X45136Y20113D02*
G01X45113Y20068D01*
G01X45318Y20477D02*
G01X45318Y20000D01*
G01X45477Y20477D02*
G01X45318Y20477D01*
G01X45477Y20477D02*
G01X45545Y20454D01*
G01X45545Y20454D02*
G01X45590Y20409D01*
G01X45590Y20409D02*
G01X45613Y20363D01*
G01X45613Y20363D02*
G01X45636Y20295D01*
G01X45636Y20295D02*
G01X45636Y20181D01*
G01X45636Y20181D02*
G01X45613Y20113D01*
G01X45613Y20113D02*
G01X45590Y20068D01*
G01X45590Y20068D02*
G01X45545Y20022D01*
G01X45545Y20022D02*
G01X45477Y20000D01*
G01X45318Y20000D02*
G01X45477Y20000D01*
G01X46045Y20477D02*
G01X45818Y20159D01*
G01X46159Y20159D02*
G01X45818Y20159D01*
G01X46045Y20477D02*
G01X46045Y20000D01*
G01X46477Y20477D02*
G01X46409Y20454D01*
G01X46409Y20454D02*
G01X46363Y20386D01*
G01X46363Y20386D02*
G01X46340Y20272D01*
G01X46340Y20272D02*
G01X46340Y20204D01*
G01X46340Y20204D02*
G01X46363Y20090D01*
G01X46363Y20090D02*
G01X46409Y20022D01*
G01X46409Y20022D02*
G01X46477Y20000D01*
G01X46522Y20000D02*
G01X46477Y20000D01*
G01X46590Y20022D02*
G01X46522Y20000D01*
G01X46636Y20090D02*
G01X46590Y20022D01*
G01X46659Y20204D02*
G01X46636Y20090D01*
G01X46659Y20272D02*
G01X46659Y20204D01*
G01X46636Y20386D02*
G01X46659Y20272D01*
G01X46590Y20454D02*
G01X46636Y20386D01*
G01X46522Y20477D02*
G01X46590Y20454D01*
G01X46477Y20477D02*
G01X46522Y20477D01*
G01X46886Y20409D02*
G01X46840Y20386D01*
G01X46954Y20477D02*
G01X46886Y20409D01*
G01X46954Y20477D02*
G01X46954Y20000D01*
G01X47386Y20454D02*
G01X47409Y20409D01*
G01X47318Y20477D02*
G01X47386Y20454D01*
G01X47272Y20477D02*
G01X47318Y20477D01*
G01X47272Y20477D02*
G01X47204Y20454D01*
G01X47204Y20454D02*
G01X47159Y20386D01*
G01X47159Y20386D02*
G01X47136Y20272D01*
G01X47136Y20272D02*
G01X47136Y20159D01*
G01X47136Y20159D02*
G01X47159Y20068D01*
G01X47159Y20068D02*
G01X47204Y20022D01*
G01X47204Y20022D02*
G01X47272Y20000D01*
G01X47295Y20000D02*
G01X47272Y20000D01*
G01X47363Y20022D02*
G01X47295Y20000D01*
G01X47409Y20068D02*
G01X47363Y20022D01*
G01X47431Y20136D02*
G01X47409Y20068D01*
G01X47431Y20159D02*
G01X47431Y20136D01*
G01X47409Y20227D02*
G01X47431Y20159D01*
G01X47363Y20272D02*
G01X47409Y20227D01*
G01X47295Y20295D02*
G01X47363Y20272D01*
G01X47272Y20295D02*
G01X47295Y20295D01*
G01X47272Y20295D02*
G01X47204Y20272D01*
G01X47204Y20272D02*
G01X47159Y20227D01*
G01X47159Y20227D02*
G01X47136Y20159D01*
G01X48022Y20000D02*
G01X47613Y20000D01*
G01X48249Y20409D02*
G01X48204Y20386D01*
G01X48318Y20477D02*
G01X48249Y20409D01*
G01X48318Y20477D02*
G01X48318Y20000D01*
G01X48522Y20386D02*
G01X48522Y20363D01*
G01X48545Y20431D02*
G01X48522Y20386D01*
G01X48568Y20454D02*
G01X48545Y20431D01*
G01X48613Y20477D02*
G01X48568Y20454D01*
G01X48704Y20477D02*
G01X48613Y20477D01*
G01X48704Y20477D02*
G01X48749Y20454D01*
G01X48749Y20454D02*
G01X48772Y20431D01*
G01X48772Y20431D02*
G01X48795Y20386D01*
G01X48795Y20386D02*
G01X48795Y20340D01*
G01X48795Y20340D02*
G01X48772Y20295D01*
G01X48772Y20295D02*
G01X48727Y20227D01*
G01X48727Y20227D02*
G01X48499Y20000D01*
G01X48818Y20000D02*
G01X48499Y20000D01*
G04 Draw part IC_CD4016_13*
G04 draw part outline for part IC_CD4016_13*
G01X14500Y19500D02*
G01X14500Y12500D01*
G01X14500Y12500D02*
G01X16500Y12500D01*
G01X16500Y12500D02*
G01X16500Y19500D01*
G01X16500Y19500D02*
G01X14500Y19500D01*
G01X15000Y19500D02*
G01X15000Y19000D01*
G01X15000Y19000D02*
G01X16000Y19000D01*
G01X16000Y19000D02*
G01X16000Y19500D01*
G01X16000Y19500D02*
G01X15000Y19500D01*
G04 draw reference designator for part IC_CD4016_13*
G01X13500Y20477D02*
G01X13500Y20000D01*
G01X14000Y20409D02*
G01X14022Y20363D01*
G01X13954Y20454D02*
G01X14000Y20409D01*
G01X13909Y20477D02*
G01X13954Y20454D01*
G01X13818Y20477D02*
G01X13909Y20477D01*
G01X13818Y20477D02*
G01X13772Y20454D01*
G01X13772Y20454D02*
G01X13727Y20409D01*
G01X13727Y20409D02*
G01X13704Y20363D01*
G01X13704Y20363D02*
G01X13681Y20295D01*
G01X13681Y20295D02*
G01X13681Y20181D01*
G01X13681Y20181D02*
G01X13704Y20113D01*
G01X13704Y20113D02*
G01X13727Y20068D01*
G01X13727Y20068D02*
G01X13772Y20022D01*
G01X13772Y20022D02*
G01X13818Y20000D01*
G01X13909Y20000D02*
G01X13818Y20000D01*
G01X13954Y20022D02*
G01X13909Y20000D01*
G01X14000Y20068D02*
G01X13954Y20022D01*
G01X14022Y20113D02*
G01X14000Y20068D01*
G01X14613Y20000D02*
G01X14204Y20000D01*
G01X15113Y20409D02*
G01X15136Y20363D01*
G01X15068Y20454D02*
G01X15113Y20409D01*
G01X15022Y20477D02*
G01X15068Y20454D01*
G01X14931Y20477D02*
G01X15022Y20477D01*
G01X14931Y20477D02*
G01X14886Y20454D01*
G01X14886Y20454D02*
G01X14840Y20409D01*
G01X14840Y20409D02*
G01X14818Y20363D01*
G01X14818Y20363D02*
G01X14795Y20295D01*
G01X14795Y20295D02*
G01X14795Y20181D01*
G01X14795Y20181D02*
G01X14818Y20113D01*
G01X14818Y20113D02*
G01X14840Y20068D01*
G01X14840Y20068D02*
G01X14886Y20022D01*
G01X14886Y20022D02*
G01X14931Y20000D01*
G01X15022Y20000D02*
G01X14931Y20000D01*
G01X15068Y20022D02*
G01X15022Y20000D01*
G01X15113Y20068D02*
G01X15068Y20022D01*
G01X15136Y20113D02*
G01X15113Y20068D01*
G01X15318Y20477D02*
G01X15318Y20000D01*
G01X15477Y20477D02*
G01X15318Y20477D01*
G01X15477Y20477D02*
G01X15545Y20454D01*
G01X15545Y20454D02*
G01X15590Y20409D01*
G01X15590Y20409D02*
G01X15613Y20363D01*
G01X15613Y20363D02*
G01X15636Y20295D01*
G01X15636Y20295D02*
G01X15636Y20181D01*
G01X15636Y20181D02*
G01X15613Y20113D01*
G01X15613Y20113D02*
G01X15590Y20068D01*
G01X15590Y20068D02*
G01X15545Y20022D01*
G01X15545Y20022D02*
G01X15477Y20000D01*
G01X15318Y20000D02*
G01X15477Y20000D01*
G01X16045Y20477D02*
G01X15818Y20159D01*
G01X16159Y20159D02*
G01X15818Y20159D01*
G01X16045Y20477D02*
G01X16045Y20000D01*
G01X16477Y20477D02*
G01X16409Y20454D01*
G01X16409Y20454D02*
G01X16363Y20386D01*
G01X16363Y20386D02*
G01X16340Y20272D01*
G01X16340Y20272D02*
G01X16340Y20204D01*
G01X16340Y20204D02*
G01X16363Y20090D01*
G01X16363Y20090D02*
G01X16409Y20022D01*
G01X16409Y20022D02*
G01X16477Y20000D01*
G01X16522Y20000D02*
G01X16477Y20000D01*
G01X16590Y20022D02*
G01X16522Y20000D01*
G01X16636Y20090D02*
G01X16590Y20022D01*
G01X16659Y20204D02*
G01X16636Y20090D01*
G01X16659Y20272D02*
G01X16659Y20204D01*
G01X16636Y20386D02*
G01X16659Y20272D01*
G01X16590Y20454D02*
G01X16636Y20386D01*
G01X16522Y20477D02*
G01X16590Y20454D01*
G01X16477Y20477D02*
G01X16522Y20477D01*
G01X16886Y20409D02*
G01X16840Y20386D01*
G01X16954Y20477D02*
G01X16886Y20409D01*
G01X16954Y20477D02*
G01X16954Y20000D01*
G01X17386Y20454D02*
G01X17409Y20409D01*
G01X17318Y20477D02*
G01X17386Y20454D01*
G01X17272Y20477D02*
G01X17318Y20477D01*
G01X17272Y20477D02*
G01X17204Y20454D01*
G01X17204Y20454D02*
G01X17159Y20386D01*
G01X17159Y20386D02*
G01X17136Y20272D01*
G01X17136Y20272D02*
G01X17136Y20159D01*
G01X17136Y20159D02*
G01X17159Y20068D01*
G01X17159Y20068D02*
G01X17204Y20022D01*
G01X17204Y20022D02*
G01X17272Y20000D01*
G01X17295Y20000D02*
G01X17272Y20000D01*
G01X17363Y20022D02*
G01X17295Y20000D01*
G01X17409Y20068D02*
G01X17363Y20022D01*
G01X17431Y20136D02*
G01X17409Y20068D01*
G01X17431Y20159D02*
G01X17431Y20136D01*
G01X17409Y20227D02*
G01X17431Y20159D01*
G01X17363Y20272D02*
G01X17409Y20227D01*
G01X17295Y20295D02*
G01X17363Y20272D01*
G01X17272Y20295D02*
G01X17295Y20295D01*
G01X17272Y20295D02*
G01X17204Y20272D01*
G01X17204Y20272D02*
G01X17159Y20227D01*
G01X17159Y20227D02*
G01X17136Y20159D01*
G01X18022Y20000D02*
G01X17613Y20000D01*
G01X18249Y20409D02*
G01X18204Y20386D01*
G01X18318Y20477D02*
G01X18249Y20409D01*
G01X18318Y20477D02*
G01X18318Y20000D01*
G01X18795Y20477D02*
G01X18545Y20477D01*
G01X18795Y20477D02*
G01X18659Y20295D01*
G01X18727Y20295D02*
G01X18659Y20295D01*
G01X18727Y20295D02*
G01X18772Y20272D01*
G01X18772Y20272D02*
G01X18795Y20250D01*
G01X18795Y20250D02*
G01X18818Y20181D01*
G01X18818Y20181D02*
G01X18818Y20136D01*
G01X18818Y20136D02*
G01X18795Y20068D01*
G01X18795Y20068D02*
G01X18749Y20022D01*
G01X18749Y20022D02*
G01X18681Y20000D01*
G01X18613Y20000D02*
G01X18681Y20000D01*
G01X18545Y20022D02*
G01X18613Y20000D01*
G01X18522Y20045D02*
G01X18545Y20022D01*
G01X18499Y20090D02*
G01X18522Y20045D01*
G04 Draw part IC_CD4016_14*
G04 draw part outline for part IC_CD4016_14*
G01X4500Y19500D02*
G01X4500Y12500D01*
G01X4500Y12500D02*
G01X6500Y12500D01*
G01X6500Y12500D02*
G01X6500Y19500D01*
G01X6500Y19500D02*
G01X4500Y19500D01*
G01X5000Y19500D02*
G01X5000Y19000D01*
G01X5000Y19000D02*
G01X6000Y19000D01*
G01X6000Y19000D02*
G01X6000Y19500D01*
G01X6000Y19500D02*
G01X5000Y19500D01*
G04 draw reference designator for part IC_CD4016_14*
G01X3500Y20477D02*
G01X3500Y20000D01*
G01X4000Y20409D02*
G01X4022Y20363D01*
G01X3954Y20454D02*
G01X4000Y20409D01*
G01X3909Y20477D02*
G01X3954Y20454D01*
G01X3818Y20477D02*
G01X3909Y20477D01*
G01X3818Y20477D02*
G01X3772Y20454D01*
G01X3772Y20454D02*
G01X3727Y20409D01*
G01X3727Y20409D02*
G01X3704Y20363D01*
G01X3704Y20363D02*
G01X3681Y20295D01*
G01X3681Y20295D02*
G01X3681Y20181D01*
G01X3681Y20181D02*
G01X3704Y20113D01*
G01X3704Y20113D02*
G01X3727Y20068D01*
G01X3727Y20068D02*
G01X3772Y20022D01*
G01X3772Y20022D02*
G01X3818Y20000D01*
G01X3909Y20000D02*
G01X3818Y20000D01*
G01X3954Y20022D02*
G01X3909Y20000D01*
G01X4000Y20068D02*
G01X3954Y20022D01*
G01X4022Y20113D02*
G01X4000Y20068D01*
G01X4613Y20000D02*
G01X4204Y20000D01*
G01X5113Y20409D02*
G01X5136Y20363D01*
G01X5068Y20454D02*
G01X5113Y20409D01*
G01X5022Y20477D02*
G01X5068Y20454D01*
G01X4931Y20477D02*
G01X5022Y20477D01*
G01X4931Y20477D02*
G01X4886Y20454D01*
G01X4886Y20454D02*
G01X4840Y20409D01*
G01X4840Y20409D02*
G01X4818Y20363D01*
G01X4818Y20363D02*
G01X4795Y20295D01*
G01X4795Y20295D02*
G01X4795Y20181D01*
G01X4795Y20181D02*
G01X4818Y20113D01*
G01X4818Y20113D02*
G01X4840Y20068D01*
G01X4840Y20068D02*
G01X4886Y20022D01*
G01X4886Y20022D02*
G01X4931Y20000D01*
G01X5022Y20000D02*
G01X4931Y20000D01*
G01X5068Y20022D02*
G01X5022Y20000D01*
G01X5113Y20068D02*
G01X5068Y20022D01*
G01X5136Y20113D02*
G01X5113Y20068D01*
G01X5318Y20477D02*
G01X5318Y20000D01*
G01X5477Y20477D02*
G01X5318Y20477D01*
G01X5477Y20477D02*
G01X5545Y20454D01*
G01X5545Y20454D02*
G01X5590Y20409D01*
G01X5590Y20409D02*
G01X5613Y20363D01*
G01X5613Y20363D02*
G01X5636Y20295D01*
G01X5636Y20295D02*
G01X5636Y20181D01*
G01X5636Y20181D02*
G01X5613Y20113D01*
G01X5613Y20113D02*
G01X5590Y20068D01*
G01X5590Y20068D02*
G01X5545Y20022D01*
G01X5545Y20022D02*
G01X5477Y20000D01*
G01X5318Y20000D02*
G01X5477Y20000D01*
G01X6045Y20477D02*
G01X5818Y20159D01*
G01X6159Y20159D02*
G01X5818Y20159D01*
G01X6045Y20477D02*
G01X6045Y20000D01*
G01X6477Y20477D02*
G01X6409Y20454D01*
G01X6409Y20454D02*
G01X6363Y20386D01*
G01X6363Y20386D02*
G01X6340Y20272D01*
G01X6340Y20272D02*
G01X6340Y20204D01*
G01X6340Y20204D02*
G01X6363Y20090D01*
G01X6363Y20090D02*
G01X6409Y20022D01*
G01X6409Y20022D02*
G01X6477Y20000D01*
G01X6522Y20000D02*
G01X6477Y20000D01*
G01X6590Y20022D02*
G01X6522Y20000D01*
G01X6636Y20090D02*
G01X6590Y20022D01*
G01X6659Y20204D02*
G01X6636Y20090D01*
G01X6659Y20272D02*
G01X6659Y20204D01*
G01X6636Y20386D02*
G01X6659Y20272D01*
G01X6590Y20454D02*
G01X6636Y20386D01*
G01X6522Y20477D02*
G01X6590Y20454D01*
G01X6477Y20477D02*
G01X6522Y20477D01*
G01X6886Y20409D02*
G01X6840Y20386D01*
G01X6954Y20477D02*
G01X6886Y20409D01*
G01X6954Y20477D02*
G01X6954Y20000D01*
G01X7386Y20454D02*
G01X7409Y20409D01*
G01X7318Y20477D02*
G01X7386Y20454D01*
G01X7272Y20477D02*
G01X7318Y20477D01*
G01X7272Y20477D02*
G01X7204Y20454D01*
G01X7204Y20454D02*
G01X7159Y20386D01*
G01X7159Y20386D02*
G01X7136Y20272D01*
G01X7136Y20272D02*
G01X7136Y20159D01*
G01X7136Y20159D02*
G01X7159Y20068D01*
G01X7159Y20068D02*
G01X7204Y20022D01*
G01X7204Y20022D02*
G01X7272Y20000D01*
G01X7295Y20000D02*
G01X7272Y20000D01*
G01X7363Y20022D02*
G01X7295Y20000D01*
G01X7409Y20068D02*
G01X7363Y20022D01*
G01X7431Y20136D02*
G01X7409Y20068D01*
G01X7431Y20159D02*
G01X7431Y20136D01*
G01X7409Y20227D02*
G01X7431Y20159D01*
G01X7363Y20272D02*
G01X7409Y20227D01*
G01X7295Y20295D02*
G01X7363Y20272D01*
G01X7272Y20295D02*
G01X7295Y20295D01*
G01X7272Y20295D02*
G01X7204Y20272D01*
G01X7204Y20272D02*
G01X7159Y20227D01*
G01X7159Y20227D02*
G01X7136Y20159D01*
G01X8022Y20000D02*
G01X7613Y20000D01*
G01X8249Y20409D02*
G01X8204Y20386D01*
G01X8318Y20477D02*
G01X8249Y20409D01*
G01X8318Y20477D02*
G01X8318Y20000D01*
G01X8727Y20477D02*
G01X8499Y20159D01*
G01X8840Y20159D02*
G01X8499Y20159D01*
G01X8727Y20477D02*
G01X8727Y20000D01*
G04 Draw part IC_CD4007_15*
G04 draw part outline for part IC_CD4007_15*
G01X4500Y31500D02*
G01X4500Y24500D01*
G01X4500Y24500D02*
G01X6500Y24500D01*
G01X6500Y24500D02*
G01X6500Y31500D01*
G01X6500Y31500D02*
G01X4500Y31500D01*
G01X5000Y31500D02*
G01X5000Y31000D01*
G01X5000Y31000D02*
G01X6000Y31000D01*
G01X6000Y31000D02*
G01X6000Y31500D01*
G01X6000Y31500D02*
G01X5000Y31500D01*
G04 draw reference designator for part IC_CD4007_15*
G01X3500Y32477D02*
G01X3500Y32000D01*
G01X4000Y32409D02*
G01X4022Y32363D01*
G01X3954Y32454D02*
G01X4000Y32409D01*
G01X3909Y32477D02*
G01X3954Y32454D01*
G01X3818Y32477D02*
G01X3909Y32477D01*
G01X3818Y32477D02*
G01X3772Y32454D01*
G01X3772Y32454D02*
G01X3727Y32409D01*
G01X3727Y32409D02*
G01X3704Y32363D01*
G01X3704Y32363D02*
G01X3681Y32295D01*
G01X3681Y32295D02*
G01X3681Y32181D01*
G01X3681Y32181D02*
G01X3704Y32113D01*
G01X3704Y32113D02*
G01X3727Y32068D01*
G01X3727Y32068D02*
G01X3772Y32022D01*
G01X3772Y32022D02*
G01X3818Y32000D01*
G01X3909Y32000D02*
G01X3818Y32000D01*
G01X3954Y32022D02*
G01X3909Y32000D01*
G01X4000Y32068D02*
G01X3954Y32022D01*
G01X4022Y32113D02*
G01X4000Y32068D01*
G01X4613Y32000D02*
G01X4204Y32000D01*
G01X5113Y32409D02*
G01X5136Y32363D01*
G01X5068Y32454D02*
G01X5113Y32409D01*
G01X5022Y32477D02*
G01X5068Y32454D01*
G01X4931Y32477D02*
G01X5022Y32477D01*
G01X4931Y32477D02*
G01X4886Y32454D01*
G01X4886Y32454D02*
G01X4840Y32409D01*
G01X4840Y32409D02*
G01X4818Y32363D01*
G01X4818Y32363D02*
G01X4795Y32295D01*
G01X4795Y32295D02*
G01X4795Y32181D01*
G01X4795Y32181D02*
G01X4818Y32113D01*
G01X4818Y32113D02*
G01X4840Y32068D01*
G01X4840Y32068D02*
G01X4886Y32022D01*
G01X4886Y32022D02*
G01X4931Y32000D01*
G01X5022Y32000D02*
G01X4931Y32000D01*
G01X5068Y32022D02*
G01X5022Y32000D01*
G01X5113Y32068D02*
G01X5068Y32022D01*
G01X5136Y32113D02*
G01X5113Y32068D01*
G01X5318Y32477D02*
G01X5318Y32000D01*
G01X5477Y32477D02*
G01X5318Y32477D01*
G01X5477Y32477D02*
G01X5545Y32454D01*
G01X5545Y32454D02*
G01X5590Y32409D01*
G01X5590Y32409D02*
G01X5613Y32363D01*
G01X5613Y32363D02*
G01X5636Y32295D01*
G01X5636Y32295D02*
G01X5636Y32181D01*
G01X5636Y32181D02*
G01X5613Y32113D01*
G01X5613Y32113D02*
G01X5590Y32068D01*
G01X5590Y32068D02*
G01X5545Y32022D01*
G01X5545Y32022D02*
G01X5477Y32000D01*
G01X5318Y32000D02*
G01X5477Y32000D01*
G01X6045Y32477D02*
G01X5818Y32159D01*
G01X6159Y32159D02*
G01X5818Y32159D01*
G01X6045Y32477D02*
G01X6045Y32000D01*
G01X6477Y32477D02*
G01X6409Y32454D01*
G01X6409Y32454D02*
G01X6363Y32386D01*
G01X6363Y32386D02*
G01X6340Y32272D01*
G01X6340Y32272D02*
G01X6340Y32204D01*
G01X6340Y32204D02*
G01X6363Y32090D01*
G01X6363Y32090D02*
G01X6409Y32022D01*
G01X6409Y32022D02*
G01X6477Y32000D01*
G01X6522Y32000D02*
G01X6477Y32000D01*
G01X6590Y32022D02*
G01X6522Y32000D01*
G01X6636Y32090D02*
G01X6590Y32022D01*
G01X6659Y32204D02*
G01X6636Y32090D01*
G01X6659Y32272D02*
G01X6659Y32204D01*
G01X6636Y32386D02*
G01X6659Y32272D01*
G01X6590Y32454D02*
G01X6636Y32386D01*
G01X6522Y32477D02*
G01X6590Y32454D01*
G01X6477Y32477D02*
G01X6522Y32477D01*
G01X6977Y32477D02*
G01X6909Y32454D01*
G01X6909Y32454D02*
G01X6863Y32386D01*
G01X6863Y32386D02*
G01X6840Y32272D01*
G01X6840Y32272D02*
G01X6840Y32204D01*
G01X6840Y32204D02*
G01X6863Y32090D01*
G01X6863Y32090D02*
G01X6909Y32022D01*
G01X6909Y32022D02*
G01X6977Y32000D01*
G01X7022Y32000D02*
G01X6977Y32000D01*
G01X7090Y32022D02*
G01X7022Y32000D01*
G01X7136Y32090D02*
G01X7090Y32022D01*
G01X7159Y32204D02*
G01X7136Y32090D01*
G01X7159Y32272D02*
G01X7159Y32204D01*
G01X7136Y32386D02*
G01X7159Y32272D01*
G01X7090Y32454D02*
G01X7136Y32386D01*
G01X7022Y32477D02*
G01X7090Y32454D01*
G01X6977Y32477D02*
G01X7022Y32477D01*
G01X7659Y32477D02*
G01X7431Y32000D01*
G01X7659Y32477D02*
G01X7340Y32477D01*
G01X8249Y32000D02*
G01X7840Y32000D01*
G01X8477Y32409D02*
G01X8431Y32386D01*
G01X8545Y32477D02*
G01X8477Y32409D01*
G01X8545Y32477D02*
G01X8545Y32000D01*
G01X8772Y32477D02*
G01X8999Y32477D01*
G01X8772Y32477D02*
G01X8749Y32272D01*
G01X8772Y32295D02*
G01X8749Y32272D01*
G01X8840Y32318D02*
G01X8772Y32295D01*
G01X8909Y32318D02*
G01X8840Y32318D01*
G01X8909Y32318D02*
G01X8977Y32295D01*
G01X8977Y32295D02*
G01X9022Y32250D01*
G01X9022Y32250D02*
G01X9045Y32181D01*
G01X9045Y32181D02*
G01X9045Y32136D01*
G01X9045Y32136D02*
G01X9022Y32068D01*
G01X9022Y32068D02*
G01X8977Y32022D01*
G01X8977Y32022D02*
G01X8909Y32000D01*
G01X8840Y32000D02*
G01X8909Y32000D01*
G01X8772Y32022D02*
G01X8840Y32000D01*
G01X8749Y32045D02*
G01X8772Y32022D01*
G01X8727Y32090D02*
G01X8749Y32045D01*
G04 Draw part IC_CD4007_16*
G04 draw part outline for part IC_CD4007_16*
G01X44500Y31500D02*
G01X44500Y24500D01*
G01X44500Y24500D02*
G01X46500Y24500D01*
G01X46500Y24500D02*
G01X46500Y31500D01*
G01X46500Y31500D02*
G01X44500Y31500D01*
G01X45000Y31500D02*
G01X45000Y31000D01*
G01X45000Y31000D02*
G01X46000Y31000D01*
G01X46000Y31000D02*
G01X46000Y31500D01*
G01X46000Y31500D02*
G01X45000Y31500D01*
G04 draw reference designator for part IC_CD4007_16*
G01X43500Y32477D02*
G01X43500Y32000D01*
G01X44000Y32409D02*
G01X44022Y32363D01*
G01X43954Y32454D02*
G01X44000Y32409D01*
G01X43909Y32477D02*
G01X43954Y32454D01*
G01X43818Y32477D02*
G01X43909Y32477D01*
G01X43818Y32477D02*
G01X43772Y32454D01*
G01X43772Y32454D02*
G01X43727Y32409D01*
G01X43727Y32409D02*
G01X43704Y32363D01*
G01X43704Y32363D02*
G01X43681Y32295D01*
G01X43681Y32295D02*
G01X43681Y32181D01*
G01X43681Y32181D02*
G01X43704Y32113D01*
G01X43704Y32113D02*
G01X43727Y32068D01*
G01X43727Y32068D02*
G01X43772Y32022D01*
G01X43772Y32022D02*
G01X43818Y32000D01*
G01X43909Y32000D02*
G01X43818Y32000D01*
G01X43954Y32022D02*
G01X43909Y32000D01*
G01X44000Y32068D02*
G01X43954Y32022D01*
G01X44022Y32113D02*
G01X44000Y32068D01*
G01X44613Y32000D02*
G01X44204Y32000D01*
G01X45113Y32409D02*
G01X45136Y32363D01*
G01X45068Y32454D02*
G01X45113Y32409D01*
G01X45022Y32477D02*
G01X45068Y32454D01*
G01X44931Y32477D02*
G01X45022Y32477D01*
G01X44931Y32477D02*
G01X44886Y32454D01*
G01X44886Y32454D02*
G01X44840Y32409D01*
G01X44840Y32409D02*
G01X44818Y32363D01*
G01X44818Y32363D02*
G01X44795Y32295D01*
G01X44795Y32295D02*
G01X44795Y32181D01*
G01X44795Y32181D02*
G01X44818Y32113D01*
G01X44818Y32113D02*
G01X44840Y32068D01*
G01X44840Y32068D02*
G01X44886Y32022D01*
G01X44886Y32022D02*
G01X44931Y32000D01*
G01X45022Y32000D02*
G01X44931Y32000D01*
G01X45068Y32022D02*
G01X45022Y32000D01*
G01X45113Y32068D02*
G01X45068Y32022D01*
G01X45136Y32113D02*
G01X45113Y32068D01*
G01X45318Y32477D02*
G01X45318Y32000D01*
G01X45477Y32477D02*
G01X45318Y32477D01*
G01X45477Y32477D02*
G01X45545Y32454D01*
G01X45545Y32454D02*
G01X45590Y32409D01*
G01X45590Y32409D02*
G01X45613Y32363D01*
G01X45613Y32363D02*
G01X45636Y32295D01*
G01X45636Y32295D02*
G01X45636Y32181D01*
G01X45636Y32181D02*
G01X45613Y32113D01*
G01X45613Y32113D02*
G01X45590Y32068D01*
G01X45590Y32068D02*
G01X45545Y32022D01*
G01X45545Y32022D02*
G01X45477Y32000D01*
G01X45318Y32000D02*
G01X45477Y32000D01*
G01X46045Y32477D02*
G01X45818Y32159D01*
G01X46159Y32159D02*
G01X45818Y32159D01*
G01X46045Y32477D02*
G01X46045Y32000D01*
G01X46477Y32477D02*
G01X46409Y32454D01*
G01X46409Y32454D02*
G01X46363Y32386D01*
G01X46363Y32386D02*
G01X46340Y32272D01*
G01X46340Y32272D02*
G01X46340Y32204D01*
G01X46340Y32204D02*
G01X46363Y32090D01*
G01X46363Y32090D02*
G01X46409Y32022D01*
G01X46409Y32022D02*
G01X46477Y32000D01*
G01X46522Y32000D02*
G01X46477Y32000D01*
G01X46590Y32022D02*
G01X46522Y32000D01*
G01X46636Y32090D02*
G01X46590Y32022D01*
G01X46659Y32204D02*
G01X46636Y32090D01*
G01X46659Y32272D02*
G01X46659Y32204D01*
G01X46636Y32386D02*
G01X46659Y32272D01*
G01X46590Y32454D02*
G01X46636Y32386D01*
G01X46522Y32477D02*
G01X46590Y32454D01*
G01X46477Y32477D02*
G01X46522Y32477D01*
G01X46977Y32477D02*
G01X46909Y32454D01*
G01X46909Y32454D02*
G01X46863Y32386D01*
G01X46863Y32386D02*
G01X46840Y32272D01*
G01X46840Y32272D02*
G01X46840Y32204D01*
G01X46840Y32204D02*
G01X46863Y32090D01*
G01X46863Y32090D02*
G01X46909Y32022D01*
G01X46909Y32022D02*
G01X46977Y32000D01*
G01X47022Y32000D02*
G01X46977Y32000D01*
G01X47090Y32022D02*
G01X47022Y32000D01*
G01X47136Y32090D02*
G01X47090Y32022D01*
G01X47159Y32204D02*
G01X47136Y32090D01*
G01X47159Y32272D02*
G01X47159Y32204D01*
G01X47136Y32386D02*
G01X47159Y32272D01*
G01X47090Y32454D02*
G01X47136Y32386D01*
G01X47022Y32477D02*
G01X47090Y32454D01*
G01X46977Y32477D02*
G01X47022Y32477D01*
G01X47659Y32477D02*
G01X47431Y32000D01*
G01X47659Y32477D02*
G01X47340Y32477D01*
G01X48249Y32000D02*
G01X47840Y32000D01*
G01X48477Y32409D02*
G01X48431Y32386D01*
G01X48545Y32477D02*
G01X48477Y32409D01*
G01X48545Y32477D02*
G01X48545Y32000D01*
G01X48977Y32454D02*
G01X48999Y32409D01*
G01X48909Y32477D02*
G01X48977Y32454D01*
G01X48863Y32477D02*
G01X48909Y32477D01*
G01X48863Y32477D02*
G01X48795Y32454D01*
G01X48795Y32454D02*
G01X48749Y32386D01*
G01X48749Y32386D02*
G01X48727Y32272D01*
G01X48727Y32272D02*
G01X48727Y32159D01*
G01X48727Y32159D02*
G01X48749Y32068D01*
G01X48749Y32068D02*
G01X48795Y32022D01*
G01X48795Y32022D02*
G01X48863Y32000D01*
G01X48886Y32000D02*
G01X48863Y32000D01*
G01X48954Y32022D02*
G01X48886Y32000D01*
G01X48999Y32068D02*
G01X48954Y32022D01*
G01X49022Y32136D02*
G01X48999Y32068D01*
G01X49022Y32159D02*
G01X49022Y32136D01*
G01X48999Y32227D02*
G01X49022Y32159D01*
G01X48954Y32272D02*
G01X48999Y32227D01*
G01X48886Y32295D02*
G01X48954Y32272D01*
G01X48863Y32295D02*
G01X48886Y32295D01*
G01X48863Y32295D02*
G01X48795Y32272D01*
G01X48795Y32272D02*
G01X48749Y32227D01*
G01X48749Y32227D02*
G01X48727Y32159D01*
G04 Draw part R_12K_17*
G04 draw part outline for part R_12K_17*
G01X44500Y43500D02*
G01X44500Y36500D01*
G01X44500Y36500D02*
G01X46500Y36500D01*
G01X46500Y36500D02*
G01X46500Y43500D01*
G01X46500Y43500D02*
G01X44500Y43500D01*
G01X45000Y43500D02*
G01X45000Y43000D01*
G01X45000Y43000D02*
G01X46000Y43000D01*
G01X46000Y43000D02*
G01X46000Y43500D01*
G01X46000Y43500D02*
G01X45000Y43500D01*
G04 draw reference designator for part R_12K_17*
G01X43500Y44477D02*
G01X43500Y44000D01*
G01X43704Y44477D02*
G01X43500Y44477D01*
G01X43704Y44477D02*
G01X43772Y44454D01*
G01X43772Y44454D02*
G01X43795Y44431D01*
G01X43795Y44431D02*
G01X43818Y44386D01*
G01X43818Y44386D02*
G01X43818Y44340D01*
G01X43818Y44340D02*
G01X43795Y44295D01*
G01X43795Y44295D02*
G01X43772Y44272D01*
G01X43772Y44272D02*
G01X43704Y44250D01*
G01X43500Y44250D02*
G01X43704Y44250D01*
G01X43659Y44250D02*
G01X43818Y44000D01*
G01X44409Y44000D02*
G01X44000Y44000D01*
G01X44636Y44409D02*
G01X44590Y44386D01*
G01X44704Y44477D02*
G01X44636Y44409D01*
G01X44704Y44477D02*
G01X44704Y44000D01*
G01X44909Y44386D02*
G01X44909Y44363D01*
G01X44931Y44431D02*
G01X44909Y44386D01*
G01X44954Y44454D02*
G01X44931Y44431D01*
G01X45000Y44477D02*
G01X44954Y44454D01*
G01X45090Y44477D02*
G01X45000Y44477D01*
G01X45090Y44477D02*
G01X45136Y44454D01*
G01X45136Y44454D02*
G01X45159Y44431D01*
G01X45159Y44431D02*
G01X45181Y44386D01*
G01X45181Y44386D02*
G01X45181Y44340D01*
G01X45181Y44340D02*
G01X45159Y44295D01*
G01X45159Y44295D02*
G01X45113Y44227D01*
G01X45113Y44227D02*
G01X44886Y44000D01*
G01X45204Y44000D02*
G01X44886Y44000D01*
G01X45386Y44477D02*
G01X45386Y44000D01*
G01X45704Y44477D02*
G01X45386Y44159D01*
G01X45500Y44272D02*
G01X45704Y44000D01*
G01X46295Y44000D02*
G01X45886Y44000D01*
G01X46522Y44409D02*
G01X46477Y44386D01*
G01X46590Y44477D02*
G01X46522Y44409D01*
G01X46590Y44477D02*
G01X46590Y44000D01*
G01X47090Y44477D02*
G01X46863Y44000D01*
G01X47090Y44477D02*
G01X46772Y44477D01*
G04 Draw part IC_CD4016_18*
G04 draw part outline for part IC_CD4016_18*
G01X44500Y7500D02*
G01X44500Y500D01*
G01X44500Y500D02*
G01X46500Y500D01*
G01X46500Y500D02*
G01X46500Y7500D01*
G01X46500Y7500D02*
G01X44500Y7500D01*
G01X45000Y7500D02*
G01X45000Y7000D01*
G01X45000Y7000D02*
G01X46000Y7000D01*
G01X46000Y7000D02*
G01X46000Y7500D01*
G01X46000Y7500D02*
G01X45000Y7500D01*
G04 draw reference designator for part IC_CD4016_18*
G01X43500Y8477D02*
G01X43500Y8000D01*
G01X44000Y8409D02*
G01X44022Y8363D01*
G01X43954Y8454D02*
G01X44000Y8409D01*
G01X43909Y8477D02*
G01X43954Y8454D01*
G01X43818Y8477D02*
G01X43909Y8477D01*
G01X43818Y8477D02*
G01X43772Y8454D01*
G01X43772Y8454D02*
G01X43727Y8409D01*
G01X43727Y8409D02*
G01X43704Y8363D01*
G01X43704Y8363D02*
G01X43681Y8295D01*
G01X43681Y8295D02*
G01X43681Y8181D01*
G01X43681Y8181D02*
G01X43704Y8113D01*
G01X43704Y8113D02*
G01X43727Y8068D01*
G01X43727Y8068D02*
G01X43772Y8022D01*
G01X43772Y8022D02*
G01X43818Y8000D01*
G01X43909Y8000D02*
G01X43818Y8000D01*
G01X43954Y8022D02*
G01X43909Y8000D01*
G01X44000Y8068D02*
G01X43954Y8022D01*
G01X44022Y8113D02*
G01X44000Y8068D01*
G01X44613Y8000D02*
G01X44204Y8000D01*
G01X45113Y8409D02*
G01X45136Y8363D01*
G01X45068Y8454D02*
G01X45113Y8409D01*
G01X45022Y8477D02*
G01X45068Y8454D01*
G01X44931Y8477D02*
G01X45022Y8477D01*
G01X44931Y8477D02*
G01X44886Y8454D01*
G01X44886Y8454D02*
G01X44840Y8409D01*
G01X44840Y8409D02*
G01X44818Y8363D01*
G01X44818Y8363D02*
G01X44795Y8295D01*
G01X44795Y8295D02*
G01X44795Y8181D01*
G01X44795Y8181D02*
G01X44818Y8113D01*
G01X44818Y8113D02*
G01X44840Y8068D01*
G01X44840Y8068D02*
G01X44886Y8022D01*
G01X44886Y8022D02*
G01X44931Y8000D01*
G01X45022Y8000D02*
G01X44931Y8000D01*
G01X45068Y8022D02*
G01X45022Y8000D01*
G01X45113Y8068D02*
G01X45068Y8022D01*
G01X45136Y8113D02*
G01X45113Y8068D01*
G01X45318Y8477D02*
G01X45318Y8000D01*
G01X45477Y8477D02*
G01X45318Y8477D01*
G01X45477Y8477D02*
G01X45545Y8454D01*
G01X45545Y8454D02*
G01X45590Y8409D01*
G01X45590Y8409D02*
G01X45613Y8363D01*
G01X45613Y8363D02*
G01X45636Y8295D01*
G01X45636Y8295D02*
G01X45636Y8181D01*
G01X45636Y8181D02*
G01X45613Y8113D01*
G01X45613Y8113D02*
G01X45590Y8068D01*
G01X45590Y8068D02*
G01X45545Y8022D01*
G01X45545Y8022D02*
G01X45477Y8000D01*
G01X45318Y8000D02*
G01X45477Y8000D01*
G01X46045Y8477D02*
G01X45818Y8159D01*
G01X46159Y8159D02*
G01X45818Y8159D01*
G01X46045Y8477D02*
G01X46045Y8000D01*
G01X46477Y8477D02*
G01X46409Y8454D01*
G01X46409Y8454D02*
G01X46363Y8386D01*
G01X46363Y8386D02*
G01X46340Y8272D01*
G01X46340Y8272D02*
G01X46340Y8204D01*
G01X46340Y8204D02*
G01X46363Y8090D01*
G01X46363Y8090D02*
G01X46409Y8022D01*
G01X46409Y8022D02*
G01X46477Y8000D01*
G01X46522Y8000D02*
G01X46477Y8000D01*
G01X46590Y8022D02*
G01X46522Y8000D01*
G01X46636Y8090D02*
G01X46590Y8022D01*
G01X46659Y8204D02*
G01X46636Y8090D01*
G01X46659Y8272D02*
G01X46659Y8204D01*
G01X46636Y8386D02*
G01X46659Y8272D01*
G01X46590Y8454D02*
G01X46636Y8386D01*
G01X46522Y8477D02*
G01X46590Y8454D01*
G01X46477Y8477D02*
G01X46522Y8477D01*
G01X46886Y8409D02*
G01X46840Y8386D01*
G01X46954Y8477D02*
G01X46886Y8409D01*
G01X46954Y8477D02*
G01X46954Y8000D01*
G01X47386Y8454D02*
G01X47409Y8409D01*
G01X47318Y8477D02*
G01X47386Y8454D01*
G01X47272Y8477D02*
G01X47318Y8477D01*
G01X47272Y8477D02*
G01X47204Y8454D01*
G01X47204Y8454D02*
G01X47159Y8386D01*
G01X47159Y8386D02*
G01X47136Y8272D01*
G01X47136Y8272D02*
G01X47136Y8159D01*
G01X47136Y8159D02*
G01X47159Y8068D01*
G01X47159Y8068D02*
G01X47204Y8022D01*
G01X47204Y8022D02*
G01X47272Y8000D01*
G01X47295Y8000D02*
G01X47272Y8000D01*
G01X47363Y8022D02*
G01X47295Y8000D01*
G01X47409Y8068D02*
G01X47363Y8022D01*
G01X47431Y8136D02*
G01X47409Y8068D01*
G01X47431Y8159D02*
G01X47431Y8136D01*
G01X47409Y8227D02*
G01X47431Y8159D01*
G01X47363Y8272D02*
G01X47409Y8227D01*
G01X47295Y8295D02*
G01X47363Y8272D01*
G01X47272Y8295D02*
G01X47295Y8295D01*
G01X47272Y8295D02*
G01X47204Y8272D01*
G01X47204Y8272D02*
G01X47159Y8227D01*
G01X47159Y8227D02*
G01X47136Y8159D01*
G01X48022Y8000D02*
G01X47613Y8000D01*
G01X48249Y8409D02*
G01X48204Y8386D01*
G01X48318Y8477D02*
G01X48249Y8409D01*
G01X48318Y8477D02*
G01X48318Y8000D01*
G01X48613Y8477D02*
G01X48545Y8454D01*
G01X48545Y8454D02*
G01X48522Y8409D01*
G01X48522Y8409D02*
G01X48522Y8363D01*
G01X48522Y8363D02*
G01X48545Y8318D01*
G01X48545Y8318D02*
G01X48590Y8295D01*
G01X48590Y8295D02*
G01X48681Y8272D01*
G01X48681Y8272D02*
G01X48749Y8250D01*
G01X48749Y8250D02*
G01X48795Y8204D01*
G01X48795Y8204D02*
G01X48818Y8159D01*
G01X48818Y8159D02*
G01X48818Y8090D01*
G01X48818Y8090D02*
G01X48795Y8045D01*
G01X48795Y8045D02*
G01X48772Y8022D01*
G01X48772Y8022D02*
G01X48704Y8000D01*
G01X48613Y8000D02*
G01X48704Y8000D01*
G01X48545Y8022D02*
G01X48613Y8000D01*
G01X48522Y8045D02*
G01X48545Y8022D01*
G01X48499Y8090D02*
G01X48522Y8045D01*
G01X48499Y8159D02*
G01X48499Y8090D01*
G01X48522Y8204D02*
G01X48499Y8159D01*
G01X48568Y8250D02*
G01X48522Y8204D01*
G01X48636Y8272D02*
G01X48568Y8250D01*
G01X48727Y8295D02*
G01X48636Y8272D01*
G01X48772Y8318D02*
G01X48727Y8295D01*
G01X48795Y8363D02*
G01X48772Y8318D01*
G01X48795Y8409D02*
G01X48795Y8363D01*
G01X48772Y8454D02*
G01X48795Y8409D01*
G01X48704Y8477D02*
G01X48772Y8454D01*
G01X48613Y8477D02*
G01X48704Y8477D01*
G04 Draw part IC_CD4016_19*
G04 draw part outline for part IC_CD4016_19*
G01X34450Y31520D02*
G01X34450Y24520D01*
G01X34450Y24520D02*
G01X36450Y24520D01*
G01X36450Y24520D02*
G01X36450Y31520D01*
G01X36450Y31520D02*
G01X34450Y31520D01*
G01X34950Y31520D02*
G01X34950Y31020D01*
G01X34950Y31020D02*
G01X35950Y31020D01*
G01X35950Y31020D02*
G01X35950Y31520D01*
G01X35950Y31520D02*
G01X34950Y31520D01*
G04 draw reference designator for part IC_CD4016_19*
G01X33450Y32497D02*
G01X33450Y32020D01*
G01X33950Y32429D02*
G01X33972Y32383D01*
G01X33904Y32474D02*
G01X33950Y32429D01*
G01X33859Y32497D02*
G01X33904Y32474D01*
G01X33768Y32497D02*
G01X33859Y32497D01*
G01X33768Y32497D02*
G01X33722Y32474D01*
G01X33722Y32474D02*
G01X33677Y32429D01*
G01X33677Y32429D02*
G01X33654Y32383D01*
G01X33654Y32383D02*
G01X33631Y32315D01*
G01X33631Y32315D02*
G01X33631Y32201D01*
G01X33631Y32201D02*
G01X33654Y32133D01*
G01X33654Y32133D02*
G01X33677Y32088D01*
G01X33677Y32088D02*
G01X33722Y32042D01*
G01X33722Y32042D02*
G01X33768Y32020D01*
G01X33859Y32020D02*
G01X33768Y32020D01*
G01X33904Y32042D02*
G01X33859Y32020D01*
G01X33950Y32088D02*
G01X33904Y32042D01*
G01X33972Y32133D02*
G01X33950Y32088D01*
G01X34563Y32020D02*
G01X34154Y32020D01*
G01X35063Y32429D02*
G01X35086Y32383D01*
G01X35018Y32474D02*
G01X35063Y32429D01*
G01X34972Y32497D02*
G01X35018Y32474D01*
G01X34881Y32497D02*
G01X34972Y32497D01*
G01X34881Y32497D02*
G01X34836Y32474D01*
G01X34836Y32474D02*
G01X34790Y32429D01*
G01X34790Y32429D02*
G01X34768Y32383D01*
G01X34768Y32383D02*
G01X34745Y32315D01*
G01X34745Y32315D02*
G01X34745Y32201D01*
G01X34745Y32201D02*
G01X34768Y32133D01*
G01X34768Y32133D02*
G01X34790Y32088D01*
G01X34790Y32088D02*
G01X34836Y32042D01*
G01X34836Y32042D02*
G01X34881Y32020D01*
G01X34972Y32020D02*
G01X34881Y32020D01*
G01X35018Y32042D02*
G01X34972Y32020D01*
G01X35063Y32088D02*
G01X35018Y32042D01*
G01X35086Y32133D02*
G01X35063Y32088D01*
G01X35268Y32497D02*
G01X35268Y32020D01*
G01X35427Y32497D02*
G01X35268Y32497D01*
G01X35427Y32497D02*
G01X35495Y32474D01*
G01X35495Y32474D02*
G01X35540Y32429D01*
G01X35540Y32429D02*
G01X35563Y32383D01*
G01X35563Y32383D02*
G01X35586Y32315D01*
G01X35586Y32315D02*
G01X35586Y32201D01*
G01X35586Y32201D02*
G01X35563Y32133D01*
G01X35563Y32133D02*
G01X35540Y32088D01*
G01X35540Y32088D02*
G01X35495Y32042D01*
G01X35495Y32042D02*
G01X35427Y32020D01*
G01X35268Y32020D02*
G01X35427Y32020D01*
G01X35995Y32497D02*
G01X35768Y32179D01*
G01X36109Y32179D02*
G01X35768Y32179D01*
G01X35995Y32497D02*
G01X35995Y32020D01*
G01X36427Y32497D02*
G01X36359Y32474D01*
G01X36359Y32474D02*
G01X36313Y32406D01*
G01X36313Y32406D02*
G01X36290Y32292D01*
G01X36290Y32292D02*
G01X36290Y32224D01*
G01X36290Y32224D02*
G01X36313Y32110D01*
G01X36313Y32110D02*
G01X36359Y32042D01*
G01X36359Y32042D02*
G01X36427Y32020D01*
G01X36472Y32020D02*
G01X36427Y32020D01*
G01X36540Y32042D02*
G01X36472Y32020D01*
G01X36586Y32110D02*
G01X36540Y32042D01*
G01X36609Y32224D02*
G01X36586Y32110D01*
G01X36609Y32292D02*
G01X36609Y32224D01*
G01X36586Y32406D02*
G01X36609Y32292D01*
G01X36540Y32474D02*
G01X36586Y32406D01*
G01X36472Y32497D02*
G01X36540Y32474D01*
G01X36427Y32497D02*
G01X36472Y32497D01*
G01X36836Y32429D02*
G01X36790Y32406D01*
G01X36904Y32497D02*
G01X36836Y32429D01*
G01X36904Y32497D02*
G01X36904Y32020D01*
G01X37336Y32474D02*
G01X37359Y32429D01*
G01X37268Y32497D02*
G01X37336Y32474D01*
G01X37222Y32497D02*
G01X37268Y32497D01*
G01X37222Y32497D02*
G01X37154Y32474D01*
G01X37154Y32474D02*
G01X37109Y32406D01*
G01X37109Y32406D02*
G01X37086Y32292D01*
G01X37086Y32292D02*
G01X37086Y32179D01*
G01X37086Y32179D02*
G01X37109Y32088D01*
G01X37109Y32088D02*
G01X37154Y32042D01*
G01X37154Y32042D02*
G01X37222Y32020D01*
G01X37245Y32020D02*
G01X37222Y32020D01*
G01X37313Y32042D02*
G01X37245Y32020D01*
G01X37359Y32088D02*
G01X37313Y32042D01*
G01X37381Y32156D02*
G01X37359Y32088D01*
G01X37381Y32179D02*
G01X37381Y32156D01*
G01X37359Y32247D02*
G01X37381Y32179D01*
G01X37313Y32292D02*
G01X37359Y32247D01*
G01X37245Y32315D02*
G01X37313Y32292D01*
G01X37222Y32315D02*
G01X37245Y32315D01*
G01X37222Y32315D02*
G01X37154Y32292D01*
G01X37154Y32292D02*
G01X37109Y32247D01*
G01X37109Y32247D02*
G01X37086Y32179D01*
G01X37972Y32020D02*
G01X37563Y32020D01*
G01X38199Y32429D02*
G01X38154Y32406D01*
G01X38268Y32497D02*
G01X38199Y32429D01*
G01X38268Y32497D02*
G01X38268Y32020D01*
G01X38745Y32338D02*
G01X38722Y32270D01*
G01X38722Y32270D02*
G01X38677Y32224D01*
G01X38677Y32224D02*
G01X38609Y32201D01*
G01X38586Y32201D02*
G01X38609Y32201D01*
G01X38518Y32224D02*
G01X38586Y32201D01*
G01X38472Y32270D02*
G01X38518Y32224D01*
G01X38449Y32338D02*
G01X38472Y32270D01*
G01X38449Y32360D02*
G01X38449Y32338D01*
G01X38472Y32429D02*
G01X38449Y32360D01*
G01X38518Y32474D02*
G01X38472Y32429D01*
G01X38586Y32497D02*
G01X38518Y32474D01*
G01X38609Y32497D02*
G01X38586Y32497D01*
G01X38609Y32497D02*
G01X38677Y32474D01*
G01X38677Y32474D02*
G01X38722Y32429D01*
G01X38722Y32429D02*
G01X38745Y32338D01*
G01X38745Y32338D02*
G01X38745Y32224D01*
G01X38745Y32224D02*
G01X38722Y32110D01*
G01X38722Y32110D02*
G01X38677Y32042D01*
G01X38677Y32042D02*
G01X38609Y32020D01*
G01X38563Y32020D02*
G01X38609Y32020D01*
G01X38495Y32042D02*
G01X38563Y32020D01*
G01X38472Y32088D02*
G01X38495Y32042D01*
G04 Draw part IC_CD4007_20*
G04 draw part outline for part IC_CD4007_20*
G01X34500Y43500D02*
G01X34500Y36500D01*
G01X34500Y36500D02*
G01X36500Y36500D01*
G01X36500Y36500D02*
G01X36500Y43500D01*
G01X36500Y43500D02*
G01X34500Y43500D01*
G01X35000Y43500D02*
G01X35000Y43000D01*
G01X35000Y43000D02*
G01X36000Y43000D01*
G01X36000Y43000D02*
G01X36000Y43500D01*
G01X36000Y43500D02*
G01X35000Y43500D01*
G04 draw reference designator for part IC_CD4007_20*
G01X33500Y44477D02*
G01X33500Y44000D01*
G01X34000Y44409D02*
G01X34022Y44363D01*
G01X33954Y44454D02*
G01X34000Y44409D01*
G01X33909Y44477D02*
G01X33954Y44454D01*
G01X33818Y44477D02*
G01X33909Y44477D01*
G01X33818Y44477D02*
G01X33772Y44454D01*
G01X33772Y44454D02*
G01X33727Y44409D01*
G01X33727Y44409D02*
G01X33704Y44363D01*
G01X33704Y44363D02*
G01X33681Y44295D01*
G01X33681Y44295D02*
G01X33681Y44181D01*
G01X33681Y44181D02*
G01X33704Y44113D01*
G01X33704Y44113D02*
G01X33727Y44068D01*
G01X33727Y44068D02*
G01X33772Y44022D01*
G01X33772Y44022D02*
G01X33818Y44000D01*
G01X33909Y44000D02*
G01X33818Y44000D01*
G01X33954Y44022D02*
G01X33909Y44000D01*
G01X34000Y44068D02*
G01X33954Y44022D01*
G01X34022Y44113D02*
G01X34000Y44068D01*
G01X34613Y44000D02*
G01X34204Y44000D01*
G01X35113Y44409D02*
G01X35136Y44363D01*
G01X35068Y44454D02*
G01X35113Y44409D01*
G01X35022Y44477D02*
G01X35068Y44454D01*
G01X34931Y44477D02*
G01X35022Y44477D01*
G01X34931Y44477D02*
G01X34886Y44454D01*
G01X34886Y44454D02*
G01X34840Y44409D01*
G01X34840Y44409D02*
G01X34818Y44363D01*
G01X34818Y44363D02*
G01X34795Y44295D01*
G01X34795Y44295D02*
G01X34795Y44181D01*
G01X34795Y44181D02*
G01X34818Y44113D01*
G01X34818Y44113D02*
G01X34840Y44068D01*
G01X34840Y44068D02*
G01X34886Y44022D01*
G01X34886Y44022D02*
G01X34931Y44000D01*
G01X35022Y44000D02*
G01X34931Y44000D01*
G01X35068Y44022D02*
G01X35022Y44000D01*
G01X35113Y44068D02*
G01X35068Y44022D01*
G01X35136Y44113D02*
G01X35113Y44068D01*
G01X35318Y44477D02*
G01X35318Y44000D01*
G01X35477Y44477D02*
G01X35318Y44477D01*
G01X35477Y44477D02*
G01X35545Y44454D01*
G01X35545Y44454D02*
G01X35590Y44409D01*
G01X35590Y44409D02*
G01X35613Y44363D01*
G01X35613Y44363D02*
G01X35636Y44295D01*
G01X35636Y44295D02*
G01X35636Y44181D01*
G01X35636Y44181D02*
G01X35613Y44113D01*
G01X35613Y44113D02*
G01X35590Y44068D01*
G01X35590Y44068D02*
G01X35545Y44022D01*
G01X35545Y44022D02*
G01X35477Y44000D01*
G01X35318Y44000D02*
G01X35477Y44000D01*
G01X36045Y44477D02*
G01X35818Y44159D01*
G01X36159Y44159D02*
G01X35818Y44159D01*
G01X36045Y44477D02*
G01X36045Y44000D01*
G01X36477Y44477D02*
G01X36409Y44454D01*
G01X36409Y44454D02*
G01X36363Y44386D01*
G01X36363Y44386D02*
G01X36340Y44272D01*
G01X36340Y44272D02*
G01X36340Y44204D01*
G01X36340Y44204D02*
G01X36363Y44090D01*
G01X36363Y44090D02*
G01X36409Y44022D01*
G01X36409Y44022D02*
G01X36477Y44000D01*
G01X36522Y44000D02*
G01X36477Y44000D01*
G01X36590Y44022D02*
G01X36522Y44000D01*
G01X36636Y44090D02*
G01X36590Y44022D01*
G01X36659Y44204D02*
G01X36636Y44090D01*
G01X36659Y44272D02*
G01X36659Y44204D01*
G01X36636Y44386D02*
G01X36659Y44272D01*
G01X36590Y44454D02*
G01X36636Y44386D01*
G01X36522Y44477D02*
G01X36590Y44454D01*
G01X36477Y44477D02*
G01X36522Y44477D01*
G01X36977Y44477D02*
G01X36909Y44454D01*
G01X36909Y44454D02*
G01X36863Y44386D01*
G01X36863Y44386D02*
G01X36840Y44272D01*
G01X36840Y44272D02*
G01X36840Y44204D01*
G01X36840Y44204D02*
G01X36863Y44090D01*
G01X36863Y44090D02*
G01X36909Y44022D01*
G01X36909Y44022D02*
G01X36977Y44000D01*
G01X37022Y44000D02*
G01X36977Y44000D01*
G01X37090Y44022D02*
G01X37022Y44000D01*
G01X37136Y44090D02*
G01X37090Y44022D01*
G01X37159Y44204D02*
G01X37136Y44090D01*
G01X37159Y44272D02*
G01X37159Y44204D01*
G01X37136Y44386D02*
G01X37159Y44272D01*
G01X37090Y44454D02*
G01X37136Y44386D01*
G01X37022Y44477D02*
G01X37090Y44454D01*
G01X36977Y44477D02*
G01X37022Y44477D01*
G01X37659Y44477D02*
G01X37431Y44000D01*
G01X37659Y44477D02*
G01X37340Y44477D01*
G01X38249Y44000D02*
G01X37840Y44000D01*
G01X38454Y44386D02*
G01X38454Y44363D01*
G01X38477Y44431D02*
G01X38454Y44386D01*
G01X38499Y44454D02*
G01X38477Y44431D01*
G01X38545Y44477D02*
G01X38499Y44454D01*
G01X38636Y44477D02*
G01X38545Y44477D01*
G01X38636Y44477D02*
G01X38681Y44454D01*
G01X38681Y44454D02*
G01X38704Y44431D01*
G01X38704Y44431D02*
G01X38727Y44386D01*
G01X38727Y44386D02*
G01X38727Y44340D01*
G01X38727Y44340D02*
G01X38704Y44295D01*
G01X38704Y44295D02*
G01X38659Y44227D01*
G01X38659Y44227D02*
G01X38431Y44000D01*
G01X38749Y44000D02*
G01X38431Y44000D01*
G01X39068Y44477D02*
G01X38999Y44454D01*
G01X38999Y44454D02*
G01X38954Y44386D01*
G01X38954Y44386D02*
G01X38931Y44272D01*
G01X38931Y44272D02*
G01X38931Y44204D01*
G01X38931Y44204D02*
G01X38954Y44090D01*
G01X38954Y44090D02*
G01X38999Y44022D01*
G01X38999Y44022D02*
G01X39068Y44000D01*
G01X39113Y44000D02*
G01X39068Y44000D01*
G01X39181Y44022D02*
G01X39113Y44000D01*
G01X39227Y44090D02*
G01X39181Y44022D01*
G01X39249Y44204D02*
G01X39227Y44090D01*
G01X39249Y44272D02*
G01X39249Y44204D01*
G01X39227Y44386D02*
G01X39249Y44272D01*
G01X39181Y44454D02*
G01X39227Y44386D01*
G01X39113Y44477D02*
G01X39181Y44454D01*
G01X39068Y44477D02*
G01X39113Y44477D01*
G04 Draw part IC_CD4007_21*
G04 draw part outline for part IC_CD4007_21*
G01X24500Y31500D02*
G01X24500Y24500D01*
G01X24500Y24500D02*
G01X26500Y24500D01*
G01X26500Y24500D02*
G01X26500Y31500D01*
G01X26500Y31500D02*
G01X24500Y31500D01*
G01X25000Y31500D02*
G01X25000Y31000D01*
G01X25000Y31000D02*
G01X26000Y31000D01*
G01X26000Y31000D02*
G01X26000Y31500D01*
G01X26000Y31500D02*
G01X25000Y31500D01*
G04 draw reference designator for part IC_CD4007_21*
G01X23500Y32477D02*
G01X23500Y32000D01*
G01X24000Y32409D02*
G01X24022Y32363D01*
G01X23954Y32454D02*
G01X24000Y32409D01*
G01X23909Y32477D02*
G01X23954Y32454D01*
G01X23818Y32477D02*
G01X23909Y32477D01*
G01X23818Y32477D02*
G01X23772Y32454D01*
G01X23772Y32454D02*
G01X23727Y32409D01*
G01X23727Y32409D02*
G01X23704Y32363D01*
G01X23704Y32363D02*
G01X23681Y32295D01*
G01X23681Y32295D02*
G01X23681Y32181D01*
G01X23681Y32181D02*
G01X23704Y32113D01*
G01X23704Y32113D02*
G01X23727Y32068D01*
G01X23727Y32068D02*
G01X23772Y32022D01*
G01X23772Y32022D02*
G01X23818Y32000D01*
G01X23909Y32000D02*
G01X23818Y32000D01*
G01X23954Y32022D02*
G01X23909Y32000D01*
G01X24000Y32068D02*
G01X23954Y32022D01*
G01X24022Y32113D02*
G01X24000Y32068D01*
G01X24613Y32000D02*
G01X24204Y32000D01*
G01X25113Y32409D02*
G01X25136Y32363D01*
G01X25068Y32454D02*
G01X25113Y32409D01*
G01X25022Y32477D02*
G01X25068Y32454D01*
G01X24931Y32477D02*
G01X25022Y32477D01*
G01X24931Y32477D02*
G01X24886Y32454D01*
G01X24886Y32454D02*
G01X24840Y32409D01*
G01X24840Y32409D02*
G01X24818Y32363D01*
G01X24818Y32363D02*
G01X24795Y32295D01*
G01X24795Y32295D02*
G01X24795Y32181D01*
G01X24795Y32181D02*
G01X24818Y32113D01*
G01X24818Y32113D02*
G01X24840Y32068D01*
G01X24840Y32068D02*
G01X24886Y32022D01*
G01X24886Y32022D02*
G01X24931Y32000D01*
G01X25022Y32000D02*
G01X24931Y32000D01*
G01X25068Y32022D02*
G01X25022Y32000D01*
G01X25113Y32068D02*
G01X25068Y32022D01*
G01X25136Y32113D02*
G01X25113Y32068D01*
G01X25318Y32477D02*
G01X25318Y32000D01*
G01X25477Y32477D02*
G01X25318Y32477D01*
G01X25477Y32477D02*
G01X25545Y32454D01*
G01X25545Y32454D02*
G01X25590Y32409D01*
G01X25590Y32409D02*
G01X25613Y32363D01*
G01X25613Y32363D02*
G01X25636Y32295D01*
G01X25636Y32295D02*
G01X25636Y32181D01*
G01X25636Y32181D02*
G01X25613Y32113D01*
G01X25613Y32113D02*
G01X25590Y32068D01*
G01X25590Y32068D02*
G01X25545Y32022D01*
G01X25545Y32022D02*
G01X25477Y32000D01*
G01X25318Y32000D02*
G01X25477Y32000D01*
G01X26045Y32477D02*
G01X25818Y32159D01*
G01X26159Y32159D02*
G01X25818Y32159D01*
G01X26045Y32477D02*
G01X26045Y32000D01*
G01X26477Y32477D02*
G01X26409Y32454D01*
G01X26409Y32454D02*
G01X26363Y32386D01*
G01X26363Y32386D02*
G01X26340Y32272D01*
G01X26340Y32272D02*
G01X26340Y32204D01*
G01X26340Y32204D02*
G01X26363Y32090D01*
G01X26363Y32090D02*
G01X26409Y32022D01*
G01X26409Y32022D02*
G01X26477Y32000D01*
G01X26522Y32000D02*
G01X26477Y32000D01*
G01X26590Y32022D02*
G01X26522Y32000D01*
G01X26636Y32090D02*
G01X26590Y32022D01*
G01X26659Y32204D02*
G01X26636Y32090D01*
G01X26659Y32272D02*
G01X26659Y32204D01*
G01X26636Y32386D02*
G01X26659Y32272D01*
G01X26590Y32454D02*
G01X26636Y32386D01*
G01X26522Y32477D02*
G01X26590Y32454D01*
G01X26477Y32477D02*
G01X26522Y32477D01*
G01X26977Y32477D02*
G01X26909Y32454D01*
G01X26909Y32454D02*
G01X26863Y32386D01*
G01X26863Y32386D02*
G01X26840Y32272D01*
G01X26840Y32272D02*
G01X26840Y32204D01*
G01X26840Y32204D02*
G01X26863Y32090D01*
G01X26863Y32090D02*
G01X26909Y32022D01*
G01X26909Y32022D02*
G01X26977Y32000D01*
G01X27022Y32000D02*
G01X26977Y32000D01*
G01X27090Y32022D02*
G01X27022Y32000D01*
G01X27136Y32090D02*
G01X27090Y32022D01*
G01X27159Y32204D02*
G01X27136Y32090D01*
G01X27159Y32272D02*
G01X27159Y32204D01*
G01X27136Y32386D02*
G01X27159Y32272D01*
G01X27090Y32454D02*
G01X27136Y32386D01*
G01X27022Y32477D02*
G01X27090Y32454D01*
G01X26977Y32477D02*
G01X27022Y32477D01*
G01X27659Y32477D02*
G01X27431Y32000D01*
G01X27659Y32477D02*
G01X27340Y32477D01*
G01X28249Y32000D02*
G01X27840Y32000D01*
G01X28454Y32386D02*
G01X28454Y32363D01*
G01X28477Y32431D02*
G01X28454Y32386D01*
G01X28499Y32454D02*
G01X28477Y32431D01*
G01X28545Y32477D02*
G01X28499Y32454D01*
G01X28636Y32477D02*
G01X28545Y32477D01*
G01X28636Y32477D02*
G01X28681Y32454D01*
G01X28681Y32454D02*
G01X28704Y32431D01*
G01X28704Y32431D02*
G01X28727Y32386D01*
G01X28727Y32386D02*
G01X28727Y32340D01*
G01X28727Y32340D02*
G01X28704Y32295D01*
G01X28704Y32295D02*
G01X28659Y32227D01*
G01X28659Y32227D02*
G01X28431Y32000D01*
G01X28749Y32000D02*
G01X28431Y32000D01*
G01X28977Y32409D02*
G01X28931Y32386D01*
G01X29045Y32477D02*
G01X28977Y32409D01*
G01X29045Y32477D02*
G01X29045Y32000D01*
G04 Draw part R_12K_22*
G04 draw part outline for part R_12K_22*
G01X24500Y19500D02*
G01X24500Y12500D01*
G01X24500Y12500D02*
G01X26500Y12500D01*
G01X26500Y12500D02*
G01X26500Y19500D01*
G01X26500Y19500D02*
G01X24500Y19500D01*
G01X25000Y19500D02*
G01X25000Y19000D01*
G01X25000Y19000D02*
G01X26000Y19000D01*
G01X26000Y19000D02*
G01X26000Y19500D01*
G01X26000Y19500D02*
G01X25000Y19500D01*
G04 draw reference designator for part R_12K_22*
G01X23500Y20477D02*
G01X23500Y20000D01*
G01X23704Y20477D02*
G01X23500Y20477D01*
G01X23704Y20477D02*
G01X23772Y20454D01*
G01X23772Y20454D02*
G01X23795Y20431D01*
G01X23795Y20431D02*
G01X23818Y20386D01*
G01X23818Y20386D02*
G01X23818Y20340D01*
G01X23818Y20340D02*
G01X23795Y20295D01*
G01X23795Y20295D02*
G01X23772Y20272D01*
G01X23772Y20272D02*
G01X23704Y20250D01*
G01X23500Y20250D02*
G01X23704Y20250D01*
G01X23659Y20250D02*
G01X23818Y20000D01*
G01X24409Y20000D02*
G01X24000Y20000D01*
G01X24636Y20409D02*
G01X24590Y20386D01*
G01X24704Y20477D02*
G01X24636Y20409D01*
G01X24704Y20477D02*
G01X24704Y20000D01*
G01X24909Y20386D02*
G01X24909Y20363D01*
G01X24931Y20431D02*
G01X24909Y20386D01*
G01X24954Y20454D02*
G01X24931Y20431D01*
G01X25000Y20477D02*
G01X24954Y20454D01*
G01X25090Y20477D02*
G01X25000Y20477D01*
G01X25090Y20477D02*
G01X25136Y20454D01*
G01X25136Y20454D02*
G01X25159Y20431D01*
G01X25159Y20431D02*
G01X25181Y20386D01*
G01X25181Y20386D02*
G01X25181Y20340D01*
G01X25181Y20340D02*
G01X25159Y20295D01*
G01X25159Y20295D02*
G01X25113Y20227D01*
G01X25113Y20227D02*
G01X24886Y20000D01*
G01X25204Y20000D02*
G01X24886Y20000D01*
G01X25386Y20477D02*
G01X25386Y20000D01*
G01X25704Y20477D02*
G01X25386Y20159D01*
G01X25500Y20272D02*
G01X25704Y20000D01*
G01X26295Y20000D02*
G01X25886Y20000D01*
G01X26500Y20386D02*
G01X26500Y20363D01*
G01X26522Y20431D02*
G01X26500Y20386D01*
G01X26545Y20454D02*
G01X26522Y20431D01*
G01X26590Y20477D02*
G01X26545Y20454D01*
G01X26681Y20477D02*
G01X26590Y20477D01*
G01X26681Y20477D02*
G01X26727Y20454D01*
G01X26727Y20454D02*
G01X26750Y20431D01*
G01X26750Y20431D02*
G01X26772Y20386D01*
G01X26772Y20386D02*
G01X26772Y20340D01*
G01X26772Y20340D02*
G01X26750Y20295D01*
G01X26750Y20295D02*
G01X26704Y20227D01*
G01X26704Y20227D02*
G01X26477Y20000D01*
G01X26795Y20000D02*
G01X26477Y20000D01*
G01X27000Y20386D02*
G01X27000Y20363D01*
G01X27022Y20431D02*
G01X27000Y20386D01*
G01X27045Y20454D02*
G01X27022Y20431D01*
G01X27090Y20477D02*
G01X27045Y20454D01*
G01X27181Y20477D02*
G01X27090Y20477D01*
G01X27181Y20477D02*
G01X27227Y20454D01*
G01X27227Y20454D02*
G01X27250Y20431D01*
G01X27250Y20431D02*
G01X27272Y20386D01*
G01X27272Y20386D02*
G01X27272Y20340D01*
G01X27272Y20340D02*
G01X27250Y20295D01*
G01X27250Y20295D02*
G01X27204Y20227D01*
G01X27204Y20227D02*
G01X26977Y20000D01*
G01X27295Y20000D02*
G01X26977Y20000D01*
G04 Draw part IC_CD4007_23*
G04 draw part outline for part IC_CD4007_23*
G01X14500Y7500D02*
G01X14500Y500D01*
G01X14500Y500D02*
G01X16500Y500D01*
G01X16500Y500D02*
G01X16500Y7500D01*
G01X16500Y7500D02*
G01X14500Y7500D01*
G01X15000Y7500D02*
G01X15000Y7000D01*
G01X15000Y7000D02*
G01X16000Y7000D01*
G01X16000Y7000D02*
G01X16000Y7500D01*
G01X16000Y7500D02*
G01X15000Y7500D01*
G04 draw reference designator for part IC_CD4007_23*
G01X13500Y8477D02*
G01X13500Y8000D01*
G01X14000Y8409D02*
G01X14022Y8363D01*
G01X13954Y8454D02*
G01X14000Y8409D01*
G01X13909Y8477D02*
G01X13954Y8454D01*
G01X13818Y8477D02*
G01X13909Y8477D01*
G01X13818Y8477D02*
G01X13772Y8454D01*
G01X13772Y8454D02*
G01X13727Y8409D01*
G01X13727Y8409D02*
G01X13704Y8363D01*
G01X13704Y8363D02*
G01X13681Y8295D01*
G01X13681Y8295D02*
G01X13681Y8181D01*
G01X13681Y8181D02*
G01X13704Y8113D01*
G01X13704Y8113D02*
G01X13727Y8068D01*
G01X13727Y8068D02*
G01X13772Y8022D01*
G01X13772Y8022D02*
G01X13818Y8000D01*
G01X13909Y8000D02*
G01X13818Y8000D01*
G01X13954Y8022D02*
G01X13909Y8000D01*
G01X14000Y8068D02*
G01X13954Y8022D01*
G01X14022Y8113D02*
G01X14000Y8068D01*
G01X14613Y8000D02*
G01X14204Y8000D01*
G01X15113Y8409D02*
G01X15136Y8363D01*
G01X15068Y8454D02*
G01X15113Y8409D01*
G01X15022Y8477D02*
G01X15068Y8454D01*
G01X14931Y8477D02*
G01X15022Y8477D01*
G01X14931Y8477D02*
G01X14886Y8454D01*
G01X14886Y8454D02*
G01X14840Y8409D01*
G01X14840Y8409D02*
G01X14818Y8363D01*
G01X14818Y8363D02*
G01X14795Y8295D01*
G01X14795Y8295D02*
G01X14795Y8181D01*
G01X14795Y8181D02*
G01X14818Y8113D01*
G01X14818Y8113D02*
G01X14840Y8068D01*
G01X14840Y8068D02*
G01X14886Y8022D01*
G01X14886Y8022D02*
G01X14931Y8000D01*
G01X15022Y8000D02*
G01X14931Y8000D01*
G01X15068Y8022D02*
G01X15022Y8000D01*
G01X15113Y8068D02*
G01X15068Y8022D01*
G01X15136Y8113D02*
G01X15113Y8068D01*
G01X15318Y8477D02*
G01X15318Y8000D01*
G01X15477Y8477D02*
G01X15318Y8477D01*
G01X15477Y8477D02*
G01X15545Y8454D01*
G01X15545Y8454D02*
G01X15590Y8409D01*
G01X15590Y8409D02*
G01X15613Y8363D01*
G01X15613Y8363D02*
G01X15636Y8295D01*
G01X15636Y8295D02*
G01X15636Y8181D01*
G01X15636Y8181D02*
G01X15613Y8113D01*
G01X15613Y8113D02*
G01X15590Y8068D01*
G01X15590Y8068D02*
G01X15545Y8022D01*
G01X15545Y8022D02*
G01X15477Y8000D01*
G01X15318Y8000D02*
G01X15477Y8000D01*
G01X16045Y8477D02*
G01X15818Y8159D01*
G01X16159Y8159D02*
G01X15818Y8159D01*
G01X16045Y8477D02*
G01X16045Y8000D01*
G01X16477Y8477D02*
G01X16409Y8454D01*
G01X16409Y8454D02*
G01X16363Y8386D01*
G01X16363Y8386D02*
G01X16340Y8272D01*
G01X16340Y8272D02*
G01X16340Y8204D01*
G01X16340Y8204D02*
G01X16363Y8090D01*
G01X16363Y8090D02*
G01X16409Y8022D01*
G01X16409Y8022D02*
G01X16477Y8000D01*
G01X16522Y8000D02*
G01X16477Y8000D01*
G01X16590Y8022D02*
G01X16522Y8000D01*
G01X16636Y8090D02*
G01X16590Y8022D01*
G01X16659Y8204D02*
G01X16636Y8090D01*
G01X16659Y8272D02*
G01X16659Y8204D01*
G01X16636Y8386D02*
G01X16659Y8272D01*
G01X16590Y8454D02*
G01X16636Y8386D01*
G01X16522Y8477D02*
G01X16590Y8454D01*
G01X16477Y8477D02*
G01X16522Y8477D01*
G01X16977Y8477D02*
G01X16909Y8454D01*
G01X16909Y8454D02*
G01X16863Y8386D01*
G01X16863Y8386D02*
G01X16840Y8272D01*
G01X16840Y8272D02*
G01X16840Y8204D01*
G01X16840Y8204D02*
G01X16863Y8090D01*
G01X16863Y8090D02*
G01X16909Y8022D01*
G01X16909Y8022D02*
G01X16977Y8000D01*
G01X17022Y8000D02*
G01X16977Y8000D01*
G01X17090Y8022D02*
G01X17022Y8000D01*
G01X17136Y8090D02*
G01X17090Y8022D01*
G01X17159Y8204D02*
G01X17136Y8090D01*
G01X17159Y8272D02*
G01X17159Y8204D01*
G01X17136Y8386D02*
G01X17159Y8272D01*
G01X17090Y8454D02*
G01X17136Y8386D01*
G01X17022Y8477D02*
G01X17090Y8454D01*
G01X16977Y8477D02*
G01X17022Y8477D01*
G01X17659Y8477D02*
G01X17431Y8000D01*
G01X17659Y8477D02*
G01X17340Y8477D01*
G01X18249Y8000D02*
G01X17840Y8000D01*
G01X18454Y8386D02*
G01X18454Y8363D01*
G01X18477Y8431D02*
G01X18454Y8386D01*
G01X18499Y8454D02*
G01X18477Y8431D01*
G01X18545Y8477D02*
G01X18499Y8454D01*
G01X18636Y8477D02*
G01X18545Y8477D01*
G01X18636Y8477D02*
G01X18681Y8454D01*
G01X18681Y8454D02*
G01X18704Y8431D01*
G01X18704Y8431D02*
G01X18727Y8386D01*
G01X18727Y8386D02*
G01X18727Y8340D01*
G01X18727Y8340D02*
G01X18704Y8295D01*
G01X18704Y8295D02*
G01X18659Y8227D01*
G01X18659Y8227D02*
G01X18431Y8000D01*
G01X18749Y8000D02*
G01X18431Y8000D01*
G01X19227Y8477D02*
G01X18977Y8477D01*
G01X19227Y8477D02*
G01X19090Y8295D01*
G01X19159Y8295D02*
G01X19090Y8295D01*
G01X19159Y8295D02*
G01X19204Y8272D01*
G01X19204Y8272D02*
G01X19227Y8250D01*
G01X19227Y8250D02*
G01X19249Y8181D01*
G01X19249Y8181D02*
G01X19249Y8136D01*
G01X19249Y8136D02*
G01X19227Y8068D01*
G01X19227Y8068D02*
G01X19181Y8022D01*
G01X19181Y8022D02*
G01X19113Y8000D01*
G01X19045Y8000D02*
G01X19113Y8000D01*
G01X18977Y8022D02*
G01X19045Y8000D01*
G01X18954Y8045D02*
G01X18977Y8022D01*
G01X18931Y8090D02*
G01X18954Y8045D01*
G04 Draw part FULL_ADDER*
G04 draw part outline for part FULL_ADDER*
G04 draw reference designator for part FULL_ADDER*
G01X52400Y9077D02*
G01X52400Y8600D01*
G01X52695Y9077D02*
G01X52400Y9077D01*
G01X52581Y8850D02*
G01X52400Y8850D01*
G01X52877Y9077D02*
G01X52877Y8736D01*
G01X52877Y8736D02*
G01X52900Y8668D01*
G01X52900Y8668D02*
G01X52945Y8622D01*
G01X52945Y8622D02*
G01X53013Y8600D01*
G01X53059Y8600D02*
G01X53013Y8600D01*
G01X53127Y8622D02*
G01X53059Y8600D01*
G01X53172Y8668D02*
G01X53127Y8622D01*
G01X53195Y8736D02*
G01X53172Y8668D01*
G01X53195Y9077D02*
G01X53195Y8736D01*
G01X53377Y9077D02*
G01X53377Y8600D01*
G01X53650Y8600D02*
G01X53377Y8600D01*
G01X53831Y9077D02*
G01X53831Y8600D01*
G01X54104Y8600D02*
G01X53831Y8600D01*
G01X54695Y8600D02*
G01X54286Y8600D01*
G01X55059Y9077D02*
G01X54877Y8600D01*
G01X55059Y9077D02*
G01X55240Y8600D01*
G01X55172Y8759D02*
G01X54945Y8759D01*
G01X55422Y9077D02*
G01X55422Y8600D01*
G01X55581Y9077D02*
G01X55422Y9077D01*
G01X55581Y9077D02*
G01X55650Y9054D01*
G01X55650Y9054D02*
G01X55695Y9009D01*
G01X55695Y9009D02*
G01X55718Y8963D01*
G01X55718Y8963D02*
G01X55740Y8895D01*
G01X55740Y8895D02*
G01X55740Y8781D01*
G01X55740Y8781D02*
G01X55718Y8713D01*
G01X55718Y8713D02*
G01X55695Y8668D01*
G01X55695Y8668D02*
G01X55650Y8622D01*
G01X55650Y8622D02*
G01X55581Y8600D01*
G01X55422Y8600D02*
G01X55581Y8600D01*
G01X55922Y9077D02*
G01X55922Y8600D01*
G01X56081Y9077D02*
G01X55922Y9077D01*
G01X56081Y9077D02*
G01X56150Y9054D01*
G01X56150Y9054D02*
G01X56195Y9009D01*
G01X56195Y9009D02*
G01X56218Y8963D01*
G01X56218Y8963D02*
G01X56240Y8895D01*
G01X56240Y8895D02*
G01X56240Y8781D01*
G01X56240Y8781D02*
G01X56218Y8713D01*
G01X56218Y8713D02*
G01X56195Y8668D01*
G01X56195Y8668D02*
G01X56150Y8622D01*
G01X56150Y8622D02*
G01X56081Y8600D01*
G01X55922Y8600D02*
G01X56081Y8600D01*
G01X56422Y9077D02*
G01X56422Y8600D01*
G01X56718Y9077D02*
G01X56422Y9077D01*
G01X56604Y8850D02*
G01X56422Y8850D01*
G01X56718Y8600D02*
G01X56422Y8600D01*
G01X56900Y9077D02*
G01X56900Y8600D01*
G01X57104Y9077D02*
G01X56900Y9077D01*
G01X57104Y9077D02*
G01X57172Y9054D01*
G01X57172Y9054D02*
G01X57195Y9031D01*
G01X57195Y9031D02*
G01X57218Y8986D01*
G01X57218Y8986D02*
G01X57218Y8940D01*
G01X57218Y8940D02*
G01X57195Y8895D01*
G01X57195Y8895D02*
G01X57172Y8872D01*
G01X57172Y8872D02*
G01X57104Y8850D01*
G01X56900Y8850D02*
G01X57104Y8850D01*
G01X57059Y8850D02*
G01X57218Y8600D01*

G04 Draw traces*

G04 Draw Text*
G54D12*
G01X52940Y5863D02*
G01X52918Y5909D01*
G01X52918Y5909D02*
G01X52872Y5954D01*
G01X52872Y5954D02*
G01X52827Y5977D01*
G01X52827Y5977D02*
G01X52736Y5977D01*
G01X52736Y5977D02*
G01X52690Y5954D01*
G01X52690Y5954D02*
G01X52645Y5909D01*
G01X52645Y5909D02*
G01X52622Y5863D01*
G01X52622Y5863D02*
G01X52600Y5795D01*
G01X52600Y5795D02*
G01X52600Y5681D01*
G01X52600Y5681D02*
G01X52622Y5613D01*
G01X52622Y5613D02*
G01X52645Y5568D01*
G01X52645Y5568D02*
G01X52690Y5522D01*
G01X52690Y5522D02*
G01X52736Y5500D01*
G01X52736Y5500D02*
G01X52827Y5500D01*
G01X52827Y5500D02*
G01X52872Y5522D01*
G01X52872Y5522D02*
G01X52918Y5568D01*
G01X52918Y5568D02*
G01X52940Y5613D01*
G01X53122Y5977D02*
G01X53122Y5500D01*
G01X53849Y5977D02*
G01X53668Y5500D01*
G01X53849Y5977D02*
G01X54031Y5500D01*
G01X53736Y5659D02*
G01X53963Y5659D01*
G01X54577Y5977D02*
G01X54577Y5500D01*
G01X54577Y5977D02*
G01X54781Y5977D01*
G01X54781Y5977D02*
G01X54849Y5954D01*
G01X54849Y5954D02*
G01X54872Y5931D01*
G01X54872Y5931D02*
G01X54895Y5886D01*
G01X54895Y5886D02*
G01X54895Y5840D01*
G01X54895Y5840D02*
G01X54872Y5795D01*
G01X54872Y5795D02*
G01X54849Y5772D01*
G01X54849Y5772D02*
G01X54781Y5750D01*
G01X54577Y5750D02*
G01X54781Y5750D01*
G01X54781Y5750D02*
G01X54849Y5727D01*
G01X54849Y5727D02*
G01X54872Y5704D01*
G01X54872Y5704D02*
G01X54895Y5659D01*
G01X54895Y5659D02*
G01X54895Y5590D01*
G01X54895Y5590D02*
G01X54872Y5545D01*
G01X54872Y5545D02*
G01X54849Y5522D01*
G01X54849Y5522D02*
G01X54781Y5500D01*
G01X54781Y5500D02*
G01X54577Y5500D01*
G01X56122Y5909D02*
G01X56077Y5954D01*
G01X56077Y5954D02*
G01X56009Y5977D01*
G01X56009Y5977D02*
G01X55918Y5977D01*
G01X55918Y5977D02*
G01X55849Y5954D01*
G01X55849Y5954D02*
G01X55804Y5909D01*
G01X55804Y5909D02*
G01X55804Y5863D01*
G01X55804Y5863D02*
G01X55827Y5818D01*
G01X55827Y5818D02*
G01X55849Y5795D01*
G01X55849Y5795D02*
G01X55895Y5772D01*
G01X55895Y5772D02*
G01X56031Y5727D01*
G01X56031Y5727D02*
G01X56077Y5704D01*
G01X56077Y5704D02*
G01X56099Y5681D01*
G01X56099Y5681D02*
G01X56122Y5636D01*
G01X56122Y5636D02*
G01X56122Y5568D01*
G01X56122Y5568D02*
G01X56077Y5522D01*
G01X56077Y5522D02*
G01X56009Y5500D01*
G01X56009Y5500D02*
G01X55918Y5500D01*
G01X55918Y5500D02*
G01X55849Y5522D01*
G01X55849Y5522D02*
G01X55804Y5568D01*
G54D10*
G01X52804Y3409D02*
G01X52804Y3000D01*
G01X52600Y3204D02*
G01X53009Y3204D01*
G01X53690Y3477D02*
G01X53622Y3454D01*
G01X53622Y3454D02*
G01X53577Y3386D01*
G01X53577Y3386D02*
G01X53554Y3272D01*
G01X53554Y3272D02*
G01X53554Y3204D01*
G01X53554Y3204D02*
G01X53577Y3090D01*
G01X53577Y3090D02*
G01X53622Y3022D01*
G01X53622Y3022D02*
G01X53690Y3000D01*
G01X53690Y3000D02*
G01X53736Y3000D01*
G01X53736Y3000D02*
G01X53804Y3022D01*
G01X53804Y3022D02*
G01X53849Y3090D01*
G01X53849Y3090D02*
G01X53872Y3204D01*
G01X53872Y3204D02*
G01X53872Y3272D01*
G01X53872Y3272D02*
G01X53849Y3386D01*
G01X53849Y3386D02*
G01X53804Y3454D01*
G01X53804Y3454D02*
G01X53736Y3477D01*
G01X53736Y3477D02*
G01X53690Y3477D01*
G01X54418Y3204D02*
G01X54827Y3204D01*
G01X55713Y3363D02*
G01X55690Y3409D01*
G01X55690Y3409D02*
G01X55645Y3454D01*
G01X55645Y3454D02*
G01X55599Y3477D01*
G01X55599Y3477D02*
G01X55509Y3477D01*
G01X55509Y3477D02*
G01X55463Y3454D01*
G01X55463Y3454D02*
G01X55418Y3409D01*
G01X55418Y3409D02*
G01X55395Y3363D01*
G01X55395Y3363D02*
G01X55372Y3295D01*
G01X55372Y3295D02*
G01X55372Y3181D01*
G01X55372Y3181D02*
G01X55395Y3113D01*
G01X55395Y3113D02*
G01X55418Y3068D01*
G01X55418Y3068D02*
G01X55463Y3022D01*
G01X55463Y3022D02*
G01X55509Y3000D01*
G01X55509Y3000D02*
G01X55599Y3000D01*
G01X55599Y3000D02*
G01X55645Y3022D01*
G01X55645Y3022D02*
G01X55690Y3068D01*
G01X55690Y3068D02*
G01X55713Y3113D01*
G01X56031Y3477D02*
G01X55986Y3454D01*
G01X55986Y3454D02*
G01X55940Y3409D01*
G01X55940Y3409D02*
G01X55918Y3363D01*
G01X55918Y3363D02*
G01X55895Y3295D01*
G01X55895Y3295D02*
G01X55895Y3181D01*
G01X55895Y3181D02*
G01X55918Y3113D01*
G01X55918Y3113D02*
G01X55940Y3068D01*
G01X55940Y3068D02*
G01X55986Y3022D01*
G01X55986Y3022D02*
G01X56031Y3000D01*
G01X56031Y3000D02*
G01X56122Y3000D01*
G01X56122Y3000D02*
G01X56168Y3022D01*
G01X56168Y3022D02*
G01X56213Y3068D01*
G01X56213Y3068D02*
G01X56236Y3113D01*
G01X56236Y3113D02*
G01X56259Y3181D01*
G01X56259Y3181D02*
G01X56259Y3295D01*
G01X56259Y3295D02*
G01X56236Y3363D01*
G01X56236Y3363D02*
G01X56213Y3409D01*
G01X56213Y3409D02*
G01X56168Y3454D01*
G01X56168Y3454D02*
G01X56122Y3477D01*
G01X56122Y3477D02*
G01X56031Y3477D01*
G54D12*
G01X2522Y1727D02*
G01X2886Y1727D01*
G01X2886Y1727D02*
G01X2954Y1704D01*
G01X2954Y1704D02*
G01X2977Y1681D01*
G01X2977Y1681D02*
G01X3000Y1636D01*
G01X3000Y1636D02*
G01X3000Y1590D01*
G01X3000Y1590D02*
G01X2977Y1545D01*
G01X2977Y1545D02*
G01X2954Y1522D01*
G01X2954Y1522D02*
G01X2886Y1500D01*
G01X2886Y1500D02*
G01X2840Y1500D01*
G01X2954Y1931D02*
G01X2977Y1909D01*
G01X2977Y1909D02*
G01X3000Y1931D01*
G01X3000Y1931D02*
G01X2977Y1954D01*
G01X2977Y1954D02*
G01X2954Y1931D01*
G01X2636Y2840D02*
G01X2590Y2818D01*
G01X2590Y2818D02*
G01X2545Y2772D01*
G01X2545Y2772D02*
G01X2522Y2727D01*
G01X2522Y2727D02*
G01X2522Y2636D01*
G01X2522Y2636D02*
G01X2545Y2590D01*
G01X2545Y2590D02*
G01X2590Y2545D01*
G01X2590Y2545D02*
G01X2636Y2522D01*
G01X2636Y2522D02*
G01X2704Y2500D01*
G01X2704Y2500D02*
G01X2818Y2500D01*
G01X2818Y2500D02*
G01X2886Y2522D01*
G01X2886Y2522D02*
G01X2931Y2545D01*
G01X2931Y2545D02*
G01X2977Y2590D01*
G01X2977Y2590D02*
G01X3000Y2636D01*
G01X3000Y2636D02*
G01X3000Y2727D01*
G01X3000Y2727D02*
G01X2977Y2772D01*
G01X2977Y2772D02*
G01X2931Y2818D01*
G01X2931Y2818D02*
G01X2886Y2840D01*
G01X2681Y3136D02*
G01X2704Y3090D01*
G01X2704Y3090D02*
G01X2750Y3045D01*
G01X2750Y3045D02*
G01X2818Y3022D01*
G01X2818Y3022D02*
G01X2863Y3022D01*
G01X2863Y3022D02*
G01X2931Y3045D01*
G01X2931Y3045D02*
G01X2977Y3090D01*
G01X2977Y3090D02*
G01X3000Y3136D01*
G01X3000Y3136D02*
G01X3000Y3204D01*
G01X3000Y3204D02*
G01X2977Y3249D01*
G01X2977Y3249D02*
G01X2931Y3295D01*
G01X2931Y3295D02*
G01X2863Y3318D01*
G01X2863Y3318D02*
G01X2818Y3318D01*
G01X2818Y3318D02*
G01X2750Y3295D01*
G01X2750Y3295D02*
G01X2704Y3249D01*
G01X2704Y3249D02*
G01X2681Y3204D01*
G01X2681Y3204D02*
G01X2681Y3136D01*
G01X2681Y3500D02*
G01X3000Y3500D01*
G01X2772Y3500D02*
G01X2704Y3568D01*
G01X2704Y3568D02*
G01X2681Y3613D01*
G01X2681Y3613D02*
G01X2681Y3681D01*
G01X2681Y3681D02*
G01X2704Y3727D01*
G01X2704Y3727D02*
G01X2772Y3750D01*
G01X2772Y3750D02*
G01X3000Y3750D01*
G01X2681Y3931D02*
G01X3000Y3931D01*
G01X2772Y3931D02*
G01X2704Y3999D01*
G01X2704Y3999D02*
G01X2681Y4045D01*
G01X2681Y4045D02*
G01X2681Y4113D01*
G01X2681Y4113D02*
G01X2704Y4159D01*
G01X2704Y4159D02*
G01X2772Y4181D01*
G01X2772Y4181D02*
G01X3000Y4181D01*
G01X2818Y4363D02*
G01X2818Y4636D01*
G01X2818Y4636D02*
G01X2772Y4636D01*
G01X2772Y4636D02*
G01X2727Y4613D01*
G01X2727Y4613D02*
G01X2704Y4590D01*
G01X2704Y4590D02*
G01X2681Y4545D01*
G01X2681Y4545D02*
G01X2681Y4477D01*
G01X2681Y4477D02*
G01X2704Y4431D01*
G01X2704Y4431D02*
G01X2750Y4386D01*
G01X2750Y4386D02*
G01X2818Y4363D01*
G01X2818Y4363D02*
G01X2863Y4363D01*
G01X2863Y4363D02*
G01X2931Y4386D01*
G01X2931Y4386D02*
G01X2977Y4431D01*
G01X2977Y4431D02*
G01X3000Y4477D01*
G01X3000Y4477D02*
G01X3000Y4545D01*
G01X3000Y4545D02*
G01X2977Y4590D01*
G01X2977Y4590D02*
G01X2931Y4636D01*
G01X2522Y4818D02*
G01X3000Y4818D01*
G01X2522Y5000D02*
G01X3000Y5000D01*
G01X2681Y5204D02*
G01X3000Y5340D01*
G01X2681Y5477D02*
G01X3000Y5340D01*
G01X3000Y5340D02*
G01X3090Y5295D01*
G01X3090Y5295D02*
G01X3136Y5249D01*
G01X3136Y5249D02*
G01X3159Y5204D01*
G01X3159Y5204D02*
G01X3159Y5181D01*
G01X2977Y5704D02*
G01X3000Y5681D01*
G01X3000Y5681D02*
G01X2977Y5659D01*
G01X2977Y5659D02*
G01X2954Y5681D01*
G01X2954Y5681D02*
G01X2977Y5704D01*
G01X2977Y5704D02*
G01X3022Y5704D01*
G01X3022Y5704D02*
G01X3068Y5681D01*
G01X3068Y5681D02*
G01X3090Y5659D01*
G01X2636Y6590D02*
G01X2590Y6568D01*
G01X2590Y6568D02*
G01X2545Y6522D01*
G01X2545Y6522D02*
G01X2522Y6477D01*
G01X2522Y6477D02*
G01X2522Y6386D01*
G01X2522Y6386D02*
G01X2545Y6340D01*
G01X2545Y6340D02*
G01X2590Y6295D01*
G01X2590Y6295D02*
G01X2636Y6272D01*
G01X2636Y6272D02*
G01X2704Y6249D01*
G01X2704Y6249D02*
G01X2818Y6249D01*
G01X2818Y6249D02*
G01X2886Y6272D01*
G01X2886Y6272D02*
G01X2931Y6295D01*
G01X2931Y6295D02*
G01X2977Y6340D01*
G01X2977Y6340D02*
G01X3000Y6386D01*
G01X3000Y6386D02*
G01X3000Y6477D01*
G01X3000Y6477D02*
G01X2977Y6522D01*
G01X2977Y6522D02*
G01X2931Y6568D01*
G01X2931Y6568D02*
G01X2886Y6590D01*
G01X2954Y6795D02*
G01X2977Y6772D01*
G01X2977Y6772D02*
G01X3000Y6795D01*
G01X3000Y6795D02*
G01X2977Y6818D01*
G01X2977Y6818D02*
G01X2954Y6795D01*
G01X2522Y7363D02*
G01X3000Y7363D01*
G01X2522Y7363D02*
G01X2522Y7568D01*
G01X2522Y7568D02*
G01X2545Y7636D01*
G01X2545Y7636D02*
G01X2568Y7659D01*
G01X2568Y7659D02*
G01X2613Y7681D01*
G01X2613Y7681D02*
G01X2681Y7681D01*
G01X2681Y7681D02*
G01X2727Y7659D01*
G01X2727Y7659D02*
G01X2750Y7636D01*
G01X2750Y7636D02*
G01X2772Y7568D01*
G01X2772Y7568D02*
G01X2772Y7363D01*
G01X2681Y8136D02*
G01X3000Y8136D01*
G01X2750Y8136D02*
G01X2704Y8090D01*
G01X2704Y8090D02*
G01X2681Y8045D01*
G01X2681Y8045D02*
G01X2681Y7977D01*
G01X2681Y7977D02*
G01X2704Y7931D01*
G01X2704Y7931D02*
G01X2750Y7886D01*
G01X2750Y7886D02*
G01X2818Y7863D01*
G01X2818Y7863D02*
G01X2863Y7863D01*
G01X2863Y7863D02*
G01X2931Y7886D01*
G01X2931Y7886D02*
G01X2977Y7931D01*
G01X2977Y7931D02*
G01X3000Y7977D01*
G01X3000Y7977D02*
G01X3000Y8045D01*
G01X3000Y8045D02*
G01X2977Y8090D01*
G01X2977Y8090D02*
G01X2931Y8136D01*
G01X2522Y8386D02*
G01X2909Y8386D01*
G01X2909Y8386D02*
G01X2977Y8409D01*
G01X2977Y8409D02*
G01X3000Y8454D01*
G01X3000Y8454D02*
G01X3000Y8499D01*
G01X2681Y8318D02*
G01X2681Y8477D01*
G01X2818Y8681D02*
G01X2818Y8954D01*
G01X2818Y8954D02*
G01X2772Y8954D01*
G01X2772Y8954D02*
G01X2727Y8931D01*
G01X2727Y8931D02*
G01X2704Y8909D01*
G01X2704Y8909D02*
G01X2681Y8863D01*
G01X2681Y8863D02*
G01X2681Y8795D01*
G01X2681Y8795D02*
G01X2704Y8749D01*
G01X2704Y8749D02*
G01X2750Y8704D01*
G01X2750Y8704D02*
G01X2818Y8681D01*
G01X2818Y8681D02*
G01X2863Y8681D01*
G01X2863Y8681D02*
G01X2931Y8704D01*
G01X2931Y8704D02*
G01X2977Y8749D01*
G01X2977Y8749D02*
G01X3000Y8795D01*
G01X3000Y8795D02*
G01X3000Y8863D01*
G01X3000Y8863D02*
G01X2977Y8909D01*
G01X2977Y8909D02*
G01X2931Y8954D01*
G01X2522Y9136D02*
G01X3000Y9136D01*
G01X2977Y9363D02*
G01X3000Y9340D01*
G01X3000Y9340D02*
G01X2977Y9318D01*
G01X2977Y9318D02*
G01X2954Y9340D01*
G01X2954Y9340D02*
G01X2977Y9363D01*
G01X2977Y9363D02*
G01X3022Y9363D01*
G01X3022Y9363D02*
G01X3068Y9340D01*
G01X3068Y9340D02*
G01X3090Y9318D01*
G01X2522Y10090D02*
G01X3000Y9909D01*
G01X2522Y10090D02*
G01X3000Y10272D01*
G01X2840Y9977D02*
G01X2840Y10204D01*
G01X2954Y10477D02*
G01X2977Y10454D01*
G01X2977Y10454D02*
G01X3000Y10477D01*
G01X3000Y10477D02*
G01X2977Y10499D01*
G01X2977Y10499D02*
G01X2954Y10477D01*
G01X2636Y11386D02*
G01X2590Y11363D01*
G01X2590Y11363D02*
G01X2545Y11318D01*
G01X2545Y11318D02*
G01X2522Y11272D01*
G01X2522Y11272D02*
G01X2522Y11181D01*
G01X2522Y11181D02*
G01X2545Y11136D01*
G01X2545Y11136D02*
G01X2590Y11090D01*
G01X2590Y11090D02*
G01X2636Y11068D01*
G01X2636Y11068D02*
G01X2704Y11045D01*
G01X2704Y11045D02*
G01X2818Y11045D01*
G01X2818Y11045D02*
G01X2886Y11068D01*
G01X2886Y11068D02*
G01X2931Y11090D01*
G01X2931Y11090D02*
G01X2977Y11136D01*
G01X2977Y11136D02*
G01X3000Y11181D01*
G01X3000Y11181D02*
G01X3000Y11272D01*
G01X3000Y11272D02*
G01X2977Y11318D01*
G01X2977Y11318D02*
G01X2931Y11363D01*
G01X2931Y11363D02*
G01X2886Y11386D01*
G01X2522Y11568D02*
G01X3000Y11568D01*
G01X2772Y11568D02*
G01X2704Y11636D01*
G01X2704Y11636D02*
G01X2681Y11681D01*
G01X2681Y11681D02*
G01X2681Y11749D01*
G01X2681Y11749D02*
G01X2704Y11795D01*
G01X2704Y11795D02*
G01X2772Y11818D01*
G01X2772Y11818D02*
G01X3000Y11818D01*
G01X2681Y12272D02*
G01X3000Y12272D01*
G01X2750Y12272D02*
G01X2704Y12227D01*
G01X2704Y12227D02*
G01X2681Y12181D01*
G01X2681Y12181D02*
G01X2681Y12113D01*
G01X2681Y12113D02*
G01X2704Y12068D01*
G01X2704Y12068D02*
G01X2750Y12022D01*
G01X2750Y12022D02*
G01X2818Y12000D01*
G01X2818Y12000D02*
G01X2863Y12000D01*
G01X2863Y12000D02*
G01X2931Y12022D01*
G01X2931Y12022D02*
G01X2977Y12068D01*
G01X2977Y12068D02*
G01X3000Y12113D01*
G01X3000Y12113D02*
G01X3000Y12181D01*
G01X3000Y12181D02*
G01X2977Y12227D01*
G01X2977Y12227D02*
G01X2931Y12272D01*
G01X2681Y12454D02*
G01X3000Y12590D01*
G01X2681Y12727D02*
G01X3000Y12590D01*
G01X2818Y12909D02*
G01X2818Y13181D01*
G01X2818Y13181D02*
G01X2772Y13181D01*
G01X2772Y13181D02*
G01X2727Y13159D01*
G01X2727Y13159D02*
G01X2704Y13136D01*
G01X2704Y13136D02*
G01X2681Y13090D01*
G01X2681Y13090D02*
G01X2681Y13022D01*
G01X2681Y13022D02*
G01X2704Y12977D01*
G01X2704Y12977D02*
G01X2750Y12931D01*
G01X2750Y12931D02*
G01X2818Y12909D01*
G01X2818Y12909D02*
G01X2863Y12909D01*
G01X2863Y12909D02*
G01X2931Y12931D01*
G01X2931Y12931D02*
G01X2977Y12977D01*
G01X2977Y12977D02*
G01X3000Y13022D01*
G01X3000Y13022D02*
G01X3000Y13090D01*
G01X3000Y13090D02*
G01X2977Y13136D01*
G01X2977Y13136D02*
G01X2931Y13181D01*
G01X2681Y13613D02*
G01X3000Y13363D01*
G01X2681Y13363D02*
G01X2681Y13613D01*
G01X3000Y13363D02*
G01X3000Y13613D01*
G01X2795Y14159D02*
G01X2795Y14568D01*
G01X2590Y15431D02*
G01X2545Y15386D01*
G01X2545Y15386D02*
G01X2522Y15318D01*
G01X2522Y15318D02*
G01X2522Y15227D01*
G01X2522Y15227D02*
G01X2545Y15159D01*
G01X2545Y15159D02*
G01X2590Y15113D01*
G01X2590Y15113D02*
G01X2636Y15113D01*
G01X2636Y15113D02*
G01X2681Y15136D01*
G01X2681Y15136D02*
G01X2704Y15159D01*
G01X2704Y15159D02*
G01X2727Y15204D01*
G01X2727Y15204D02*
G01X2772Y15340D01*
G01X2772Y15340D02*
G01X2795Y15386D01*
G01X2795Y15386D02*
G01X2818Y15409D01*
G01X2818Y15409D02*
G01X2863Y15431D01*
G01X2863Y15431D02*
G01X2931Y15431D01*
G01X2931Y15431D02*
G01X2977Y15386D01*
G01X2977Y15386D02*
G01X3000Y15318D01*
G01X3000Y15318D02*
G01X3000Y15227D01*
G01X3000Y15227D02*
G01X2977Y15159D01*
G01X2977Y15159D02*
G01X2931Y15113D01*
G01X2681Y15613D02*
G01X3159Y15613D01*
G01X2750Y15613D02*
G01X2704Y15659D01*
G01X2704Y15659D02*
G01X2681Y15704D01*
G01X2681Y15704D02*
G01X2681Y15772D01*
G01X2681Y15772D02*
G01X2704Y15818D01*
G01X2704Y15818D02*
G01X2750Y15863D01*
G01X2750Y15863D02*
G01X2818Y15886D01*
G01X2818Y15886D02*
G01X2863Y15886D01*
G01X2863Y15886D02*
G01X2931Y15863D01*
G01X2931Y15863D02*
G01X2977Y15818D01*
G01X2977Y15818D02*
G01X3000Y15772D01*
G01X3000Y15772D02*
G01X3000Y15704D01*
G01X3000Y15704D02*
G01X2977Y15659D01*
G01X2977Y15659D02*
G01X2931Y15613D01*
G01X2681Y16068D02*
G01X3000Y16068D01*
G01X2818Y16068D02*
G01X2750Y16090D01*
G01X2750Y16090D02*
G01X2704Y16136D01*
G01X2704Y16136D02*
G01X2681Y16181D01*
G01X2681Y16181D02*
G01X2681Y16249D01*
G01X2522Y16431D02*
G01X2545Y16454D01*
G01X2545Y16454D02*
G01X2522Y16477D01*
G01X2522Y16477D02*
G01X2500Y16454D01*
G01X2500Y16454D02*
G01X2522Y16431D01*
G01X2681Y16454D02*
G01X3000Y16454D01*
G01X2681Y16659D02*
G01X3000Y16659D01*
G01X2772Y16659D02*
G01X2704Y16727D01*
G01X2704Y16727D02*
G01X2681Y16772D01*
G01X2681Y16772D02*
G01X2681Y16840D01*
G01X2681Y16840D02*
G01X2704Y16886D01*
G01X2704Y16886D02*
G01X2772Y16909D01*
G01X2772Y16909D02*
G01X3000Y16909D01*
G01X2681Y17363D02*
G01X3045Y17363D01*
G01X3045Y17363D02*
G01X3113Y17340D01*
G01X3113Y17340D02*
G01X3136Y17318D01*
G01X3136Y17318D02*
G01X3159Y17272D01*
G01X3159Y17272D02*
G01X3159Y17204D01*
G01X3159Y17204D02*
G01X3136Y17159D01*
G01X2750Y17363D02*
G01X2704Y17318D01*
G01X2704Y17318D02*
G01X2681Y17272D01*
G01X2681Y17272D02*
G01X2681Y17204D01*
G01X2681Y17204D02*
G01X2704Y17159D01*
G01X2704Y17159D02*
G01X2750Y17113D01*
G01X2750Y17113D02*
G01X2818Y17090D01*
G01X2818Y17090D02*
G01X2863Y17090D01*
G01X2863Y17090D02*
G01X2931Y17113D01*
G01X2931Y17113D02*
G01X2977Y17159D01*
G01X2977Y17159D02*
G01X3000Y17204D01*
G01X3000Y17204D02*
G01X3000Y17272D01*
G01X3000Y17272D02*
G01X2977Y17318D01*
G01X2977Y17318D02*
G01X2931Y17363D01*
G01X2636Y17931D02*
G01X2613Y17931D01*
G01X2613Y17931D02*
G01X2568Y17954D01*
G01X2568Y17954D02*
G01X2545Y17977D01*
G01X2545Y17977D02*
G01X2522Y18022D01*
G01X2522Y18022D02*
G01X2522Y18113D01*
G01X2522Y18113D02*
G01X2545Y18159D01*
G01X2545Y18159D02*
G01X2568Y18181D01*
G01X2568Y18181D02*
G01X2613Y18204D01*
G01X2613Y18204D02*
G01X2659Y18204D01*
G01X2659Y18204D02*
G01X2704Y18181D01*
G01X2704Y18181D02*
G01X2772Y18136D01*
G01X2772Y18136D02*
G01X3000Y17909D01*
G01X3000Y17909D02*
G01X3000Y18227D01*
G01X2522Y18545D02*
G01X2545Y18477D01*
G01X2545Y18477D02*
G01X2613Y18431D01*
G01X2613Y18431D02*
G01X2727Y18409D01*
G01X2727Y18409D02*
G01X2795Y18409D01*
G01X2795Y18409D02*
G01X2909Y18431D01*
G01X2909Y18431D02*
G01X2977Y18477D01*
G01X2977Y18477D02*
G01X3000Y18545D01*
G01X3000Y18545D02*
G01X3000Y18590D01*
G01X3000Y18590D02*
G01X2977Y18659D01*
G01X2977Y18659D02*
G01X2909Y18704D01*
G01X2909Y18704D02*
G01X2795Y18727D01*
G01X2795Y18727D02*
G01X2727Y18727D01*
G01X2727Y18727D02*
G01X2613Y18704D01*
G01X2613Y18704D02*
G01X2545Y18659D01*
G01X2545Y18659D02*
G01X2522Y18590D01*
G01X2522Y18590D02*
G01X2522Y18545D01*
G01X2522Y19045D02*
G01X2545Y18977D01*
G01X2545Y18977D02*
G01X2613Y18931D01*
G01X2613Y18931D02*
G01X2727Y18909D01*
G01X2727Y18909D02*
G01X2795Y18909D01*
G01X2795Y18909D02*
G01X2909Y18931D01*
G01X2909Y18931D02*
G01X2977Y18977D01*
G01X2977Y18977D02*
G01X3000Y19045D01*
G01X3000Y19045D02*
G01X3000Y19090D01*
G01X3000Y19090D02*
G01X2977Y19159D01*
G01X2977Y19159D02*
G01X2909Y19204D01*
G01X2909Y19204D02*
G01X2795Y19227D01*
G01X2795Y19227D02*
G01X2727Y19227D01*
G01X2727Y19227D02*
G01X2613Y19204D01*
G01X2613Y19204D02*
G01X2545Y19159D01*
G01X2545Y19159D02*
G01X2522Y19090D01*
G01X2522Y19090D02*
G01X2522Y19045D01*
G01X2522Y19522D02*
G01X2545Y19454D01*
G01X2545Y19454D02*
G01X2590Y19431D01*
G01X2590Y19431D02*
G01X2636Y19431D01*
G01X2636Y19431D02*
G01X2681Y19454D01*
G01X2681Y19454D02*
G01X2704Y19499D01*
G01X2704Y19499D02*
G01X2727Y19590D01*
G01X2727Y19590D02*
G01X2750Y19659D01*
G01X2750Y19659D02*
G01X2795Y19704D01*
G01X2795Y19704D02*
G01X2840Y19727D01*
G01X2840Y19727D02*
G01X2909Y19727D01*
G01X2909Y19727D02*
G01X2954Y19704D01*
G01X2954Y19704D02*
G01X2977Y19681D01*
G01X2977Y19681D02*
G01X3000Y19613D01*
G01X3000Y19613D02*
G01X3000Y19522D01*
G01X3000Y19522D02*
G01X2977Y19454D01*
G01X2977Y19454D02*
G01X2954Y19431D01*
G01X2954Y19431D02*
G01X2909Y19409D01*
G01X2909Y19409D02*
G01X2840Y19409D01*
G01X2840Y19409D02*
G01X2795Y19431D01*
G01X2795Y19431D02*
G01X2750Y19477D01*
G01X2750Y19477D02*
G01X2727Y19545D01*
G01X2727Y19545D02*
G01X2704Y19636D01*
G01X2704Y19636D02*
G01X2681Y19681D01*
G01X2681Y19681D02*
G01X2636Y19704D01*
G01X2636Y19704D02*
G01X2590Y19704D01*
G01X2590Y19704D02*
G01X2545Y19681D01*
G01X2545Y19681D02*
G01X2522Y19613D01*
G01X2522Y19613D02*
G01X2522Y19522D01*
G54D13*
G01X1522Y30500D02*
G01X2000Y30500D01*
G01X1772Y30500D02*
G01X1704Y30568D01*
G01X1704Y30568D02*
G01X1681Y30613D01*
G01X1681Y30613D02*
G01X1681Y30681D01*
G01X1681Y30681D02*
G01X1704Y30727D01*
G01X1704Y30727D02*
G01X1772Y30750D01*
G01X1772Y30750D02*
G01X2000Y30750D01*
G01X1522Y30999D02*
G01X1909Y30999D01*
G01X1909Y30999D02*
G01X1977Y31022D01*
G01X1977Y31022D02*
G01X2000Y31068D01*
G01X2000Y31068D02*
G01X2000Y31113D01*
G01X1681Y30931D02*
G01X1681Y31090D01*
G01X1522Y31363D02*
G01X1909Y31363D01*
G01X1909Y31363D02*
G01X1977Y31386D01*
G01X1977Y31386D02*
G01X2000Y31431D01*
G01X2000Y31431D02*
G01X2000Y31477D01*
G01X1681Y31295D02*
G01X1681Y31454D01*
G01X1681Y31659D02*
G01X2159Y31659D01*
G01X1750Y31659D02*
G01X1704Y31704D01*
G01X1704Y31704D02*
G01X1681Y31749D01*
G01X1681Y31749D02*
G01X1681Y31818D01*
G01X1681Y31818D02*
G01X1704Y31863D01*
G01X1704Y31863D02*
G01X1750Y31909D01*
G01X1750Y31909D02*
G01X1818Y31931D01*
G01X1818Y31931D02*
G01X1863Y31931D01*
G01X1863Y31931D02*
G01X1931Y31909D01*
G01X1931Y31909D02*
G01X1977Y31863D01*
G01X1977Y31863D02*
G01X2000Y31818D01*
G01X2000Y31818D02*
G01X2000Y31749D01*
G01X2000Y31749D02*
G01X1977Y31704D01*
G01X1977Y31704D02*
G01X1931Y31659D01*
G01X1681Y32136D02*
G01X1704Y32113D01*
G01X1704Y32113D02*
G01X1727Y32136D01*
G01X1727Y32136D02*
G01X1704Y32159D01*
G01X1704Y32159D02*
G01X1681Y32136D01*
G01X1954Y32136D02*
G01X1977Y32113D01*
G01X1977Y32113D02*
G01X2000Y32136D01*
G01X2000Y32136D02*
G01X1977Y32159D01*
G01X1977Y32159D02*
G01X1954Y32136D01*
G01X1431Y32749D02*
G01X2159Y32340D01*
G01X1431Y33340D02*
G01X2159Y32931D01*
G01X1522Y33613D02*
G01X1545Y33636D01*
G01X1545Y33636D02*
G01X1522Y33659D01*
G01X1522Y33659D02*
G01X1500Y33636D01*
G01X1500Y33636D02*
G01X1522Y33613D01*
G01X1681Y33636D02*
G01X2068Y33636D01*
G01X2068Y33636D02*
G01X2136Y33613D01*
G01X2136Y33613D02*
G01X2159Y33568D01*
G01X2159Y33568D02*
G01X2159Y33522D01*
G01X1818Y33840D02*
G01X1818Y34113D01*
G01X1818Y34113D02*
G01X1772Y34113D01*
G01X1772Y34113D02*
G01X1727Y34090D01*
G01X1727Y34090D02*
G01X1704Y34068D01*
G01X1704Y34068D02*
G01X1681Y34022D01*
G01X1681Y34022D02*
G01X1681Y33954D01*
G01X1681Y33954D02*
G01X1704Y33909D01*
G01X1704Y33909D02*
G01X1750Y33863D01*
G01X1750Y33863D02*
G01X1818Y33840D01*
G01X1818Y33840D02*
G01X1863Y33840D01*
G01X1863Y33840D02*
G01X1931Y33863D01*
G01X1931Y33863D02*
G01X1977Y33909D01*
G01X1977Y33909D02*
G01X2000Y33954D01*
G01X2000Y33954D02*
G01X2000Y34022D01*
G01X2000Y34022D02*
G01X1977Y34068D01*
G01X1977Y34068D02*
G01X1931Y34113D01*
G01X1522Y34477D02*
G01X1522Y34431D01*
G01X1522Y34431D02*
G01X1545Y34386D01*
G01X1545Y34386D02*
G01X1613Y34363D01*
G01X1613Y34363D02*
G01X2000Y34363D01*
G01X1681Y34295D02*
G01X1681Y34454D01*
G01X1522Y34840D02*
G01X1522Y34795D01*
G01X1522Y34795D02*
G01X1545Y34749D01*
G01X1545Y34749D02*
G01X1613Y34727D01*
G01X1613Y34727D02*
G01X2000Y34727D01*
G01X1681Y34659D02*
G01X1681Y34818D01*
G01X1954Y35045D02*
G01X1977Y35022D01*
G01X1977Y35022D02*
G01X2000Y35045D01*
G01X2000Y35045D02*
G01X1977Y35068D01*
G01X1977Y35068D02*
G01X1954Y35045D01*
G01X1522Y35318D02*
G01X1909Y35318D01*
G01X1909Y35318D02*
G01X1977Y35340D01*
G01X1977Y35340D02*
G01X2000Y35386D01*
G01X2000Y35386D02*
G01X2000Y35431D01*
G01X1681Y35249D02*
G01X1681Y35409D01*
G01X1522Y35613D02*
G01X2000Y35613D01*
G01X1681Y35840D02*
G01X1909Y35613D01*
G01X1818Y35704D02*
G01X2000Y35863D01*
G01X1431Y36454D02*
G01X2159Y36045D01*
G01X1681Y36636D02*
G01X2000Y36727D01*
G01X1681Y36818D02*
G01X2000Y36727D01*
G01X1681Y36818D02*
G01X2000Y36909D01*
G01X1681Y36999D02*
G01X2000Y36909D01*
G01X1522Y37181D02*
G01X1545Y37204D01*
G01X1545Y37204D02*
G01X1522Y37227D01*
G01X1522Y37227D02*
G01X1500Y37204D01*
G01X1500Y37204D02*
G01X1522Y37181D01*
G01X1681Y37204D02*
G01X2000Y37204D01*
G01X1522Y37409D02*
G01X2000Y37409D01*
G01X1681Y37636D02*
G01X1909Y37409D01*
G01X1818Y37499D02*
G01X2000Y37659D01*
G01X1522Y37840D02*
G01X1545Y37863D01*
G01X1545Y37863D02*
G01X1522Y37886D01*
G01X1522Y37886D02*
G01X1500Y37863D01*
G01X1500Y37863D02*
G01X1522Y37840D01*
G01X1681Y37863D02*
G01X2000Y37863D01*
G01X1431Y38477D02*
G01X2159Y38068D01*
G01X1522Y38818D02*
G01X2000Y38818D01*
G01X1522Y38659D02*
G01X1522Y38977D01*
G01X1681Y39159D02*
G01X2000Y39159D01*
G01X1818Y39159D02*
G01X1750Y39181D01*
G01X1750Y39181D02*
G01X1704Y39227D01*
G01X1704Y39227D02*
G01X1681Y39272D01*
G01X1681Y39272D02*
G01X1681Y39340D01*
G01X1522Y39522D02*
G01X1545Y39545D01*
G01X1545Y39545D02*
G01X1522Y39568D01*
G01X1522Y39568D02*
G01X1500Y39545D01*
G01X1500Y39545D02*
G01X1522Y39522D01*
G01X1681Y39545D02*
G01X2000Y39545D01*
G01X1681Y39749D02*
G01X2000Y39749D01*
G01X1772Y39749D02*
G01X1704Y39818D01*
G01X1704Y39818D02*
G01X1681Y39863D01*
G01X1681Y39863D02*
G01X1681Y39931D01*
G01X1681Y39931D02*
G01X1704Y39977D01*
G01X1704Y39977D02*
G01X1772Y39999D01*
G01X1772Y39999D02*
G01X2000Y39999D01*
G01X1681Y40454D02*
G01X2000Y40454D01*
G01X1750Y40454D02*
G01X1704Y40409D01*
G01X1704Y40409D02*
G01X1681Y40363D01*
G01X1681Y40363D02*
G01X1681Y40295D01*
G01X1681Y40295D02*
G01X1704Y40249D01*
G01X1704Y40249D02*
G01X1750Y40204D01*
G01X1750Y40204D02*
G01X1818Y40181D01*
G01X1818Y40181D02*
G01X1863Y40181D01*
G01X1863Y40181D02*
G01X1931Y40204D01*
G01X1931Y40204D02*
G01X1977Y40249D01*
G01X1977Y40249D02*
G01X2000Y40295D01*
G01X2000Y40295D02*
G01X2000Y40363D01*
G01X2000Y40363D02*
G01X1977Y40409D01*
G01X1977Y40409D02*
G01X1931Y40454D01*
G01X1681Y40636D02*
G01X2000Y40636D01*
G01X1818Y40636D02*
G01X1750Y40659D01*
G01X1750Y40659D02*
G01X1704Y40704D01*
G01X1704Y40704D02*
G01X1681Y40749D01*
G01X1681Y40749D02*
G01X1681Y40818D01*
G01X1681Y41022D02*
G01X2000Y41159D01*
G01X1681Y41295D02*
G01X2000Y41159D01*
G01X2000Y41159D02*
G01X2090Y41113D01*
G01X2090Y41113D02*
G01X2136Y41068D01*
G01X2136Y41068D02*
G01X2159Y41022D01*
G01X2159Y41022D02*
G01X2159Y40999D01*
G54D10*
G01X545Y12818D02*
G01X1500Y12818D01*
G01X545Y12500D02*
G01X545Y13136D01*
G01X545Y13500D02*
G01X1500Y13500D01*
G01X545Y13500D02*
G01X545Y13909D01*
G01X545Y13909D02*
G01X590Y14045D01*
G01X590Y14045D02*
G01X636Y14090D01*
G01X636Y14090D02*
G01X727Y14136D01*
G01X727Y14136D02*
G01X818Y14136D01*
G01X818Y14136D02*
G01X909Y14090D01*
G01X909Y14090D02*
G01X954Y14045D01*
G01X954Y14045D02*
G01X1000Y13909D01*
G01X1000Y13909D02*
G01X1000Y13500D01*
G01X1000Y13818D02*
G01X1500Y14136D01*
G01X545Y14500D02*
G01X1500Y14500D01*
G01X545Y14863D02*
G01X1500Y14863D01*
G01X545Y14863D02*
G01X1500Y15499D01*
G01X545Y15499D02*
G01X1500Y15499D01*
G01X545Y16227D02*
G01X1500Y15863D01*
G01X545Y16227D02*
G01X1500Y16590D01*
G01X1181Y15999D02*
G01X1181Y16454D01*
G01X545Y16954D02*
G01X1500Y16954D01*
G01X545Y16954D02*
G01X545Y17363D01*
G01X545Y17363D02*
G01X590Y17499D01*
G01X590Y17499D02*
G01X636Y17545D01*
G01X636Y17545D02*
G01X727Y17590D01*
G01X727Y17590D02*
G01X818Y17590D01*
G01X818Y17590D02*
G01X909Y17545D01*
G01X909Y17545D02*
G01X954Y17499D01*
G01X954Y17499D02*
G01X1000Y17363D01*
G01X1000Y17363D02*
G01X1000Y16954D01*
G01X1000Y17272D02*
G01X1500Y17590D01*
G01X545Y17954D02*
G01X1000Y18318D01*
G01X1000Y18318D02*
G01X1500Y18318D01*
G01X545Y18681D02*
G01X1000Y18318D01*
G01X545Y19772D02*
G01X1500Y19772D01*
G01X545Y19772D02*
G01X545Y20363D01*
G01X1000Y19772D02*
G01X1000Y20136D01*
G01X545Y20727D02*
G01X1227Y20727D01*
G01X1227Y20727D02*
G01X1363Y20772D01*
G01X1363Y20772D02*
G01X1454Y20863D01*
G01X1454Y20863D02*
G01X1500Y20999D01*
G01X1500Y20999D02*
G01X1500Y21090D01*
G01X1500Y21090D02*
G01X1454Y21227D01*
G01X1454Y21227D02*
G01X1363Y21318D01*
G01X1363Y21318D02*
G01X1227Y21363D01*
G01X1227Y21363D02*
G01X545Y21363D01*
G01X545Y21727D02*
G01X1500Y21727D01*
G01X1500Y21727D02*
G01X1500Y22272D01*
G01X545Y22636D02*
G01X1500Y22636D01*
G01X1500Y22636D02*
G01X1500Y23181D01*
G01X545Y24636D02*
G01X1500Y24272D01*
G01X545Y24636D02*
G01X1500Y24999D01*
G01X1181Y24409D02*
G01X1181Y24863D01*
G01X545Y25363D02*
G01X1500Y25363D01*
G01X545Y25363D02*
G01X545Y25681D01*
G01X545Y25681D02*
G01X590Y25818D01*
G01X590Y25818D02*
G01X681Y25909D01*
G01X681Y25909D02*
G01X772Y25954D01*
G01X772Y25954D02*
G01X909Y25999D01*
G01X909Y25999D02*
G01X1136Y25999D01*
G01X1136Y25999D02*
G01X1272Y25954D01*
G01X1272Y25954D02*
G01X1363Y25909D01*
G01X1363Y25909D02*
G01X1454Y25818D01*
G01X1454Y25818D02*
G01X1500Y25681D01*
G01X1500Y25681D02*
G01X1500Y25363D01*
G01X545Y26363D02*
G01X1500Y26363D01*
G01X545Y26363D02*
G01X545Y26681D01*
G01X545Y26681D02*
G01X590Y26818D01*
G01X590Y26818D02*
G01X681Y26909D01*
G01X681Y26909D02*
G01X772Y26954D01*
G01X772Y26954D02*
G01X909Y26999D01*
G01X909Y26999D02*
G01X1136Y26999D01*
G01X1136Y26999D02*
G01X1272Y26954D01*
G01X1272Y26954D02*
G01X1363Y26909D01*
G01X1363Y26909D02*
G01X1454Y26818D01*
G01X1454Y26818D02*
G01X1500Y26681D01*
G01X1500Y26681D02*
G01X1500Y26363D01*
G01X545Y27363D02*
G01X1500Y27363D01*
G01X545Y27363D02*
G01X545Y27954D01*
G01X1000Y27363D02*
G01X1000Y27727D01*
G01X1500Y27363D02*
G01X1500Y27954D01*
G01X545Y28318D02*
G01X1500Y28318D01*
G01X545Y28318D02*
G01X545Y28727D01*
G01X545Y28727D02*
G01X590Y28863D01*
G01X590Y28863D02*
G01X636Y28909D01*
G01X636Y28909D02*
G01X727Y28954D01*
G01X727Y28954D02*
G01X818Y28954D01*
G01X818Y28954D02*
G01X909Y28909D01*
G01X909Y28909D02*
G01X954Y28863D01*
G01X954Y28863D02*
G01X1000Y28727D01*
G01X1000Y28727D02*
G01X1000Y28318D01*
G01X1000Y28636D02*
G01X1500Y28954D01*
G54D12*
G01X50772Y1215D02*
G01X50500Y500D01*
G01X50772Y1215D02*
G01X51045Y500D01*
G01X50602Y738D02*
G01X50943Y738D01*
G01X51624Y1113D02*
G01X51624Y500D01*
G01X51318Y806D02*
G01X51931Y806D01*
G01X52204Y1215D02*
G01X52204Y500D01*
G01X52204Y1215D02*
G01X52511Y1215D01*
G01X52511Y1215D02*
G01X52613Y1181D01*
G01X52613Y1181D02*
G01X52647Y1147D01*
G01X52647Y1147D02*
G01X52681Y1079D01*
G01X52681Y1079D02*
G01X52681Y1011D01*
G01X52681Y1011D02*
G01X52647Y943D01*
G01X52647Y943D02*
G01X52613Y909D01*
G01X52613Y909D02*
G01X52511Y875D01*
G01X52204Y875D02*
G01X52511Y875D01*
G01X52511Y875D02*
G01X52613Y840D01*
G01X52613Y840D02*
G01X52647Y806D01*
G01X52647Y806D02*
G01X52681Y738D01*
G01X52681Y738D02*
G01X52681Y636D01*
G01X52681Y636D02*
G01X52647Y568D01*
G01X52647Y568D02*
G01X52613Y534D01*
G01X52613Y534D02*
G01X52511Y500D01*
G01X52511Y500D02*
G01X52204Y500D01*
G01X53261Y1113D02*
G01X53261Y500D01*
G01X52954Y806D02*
G01X53568Y806D01*
G01X54352Y1045D02*
G01X54318Y1113D01*
G01X54318Y1113D02*
G01X54249Y1181D01*
G01X54249Y1181D02*
G01X54181Y1215D01*
G01X54181Y1215D02*
G01X54045Y1215D01*
G01X54045Y1215D02*
G01X53977Y1181D01*
G01X53977Y1181D02*
G01X53909Y1113D01*
G01X53909Y1113D02*
G01X53874Y1045D01*
G01X53874Y1045D02*
G01X53840Y943D01*
G01X53840Y943D02*
G01X53840Y772D01*
G01X53840Y772D02*
G01X53874Y670D01*
G01X53874Y670D02*
G01X53909Y602D01*
G01X53909Y602D02*
G01X53977Y534D01*
G01X53977Y534D02*
G01X54045Y500D01*
G01X54045Y500D02*
G01X54181Y500D01*
G01X54181Y500D02*
G01X54249Y534D01*
G01X54249Y534D02*
G01X54318Y602D01*
G01X54318Y602D02*
G01X54352Y670D01*
G01X54624Y1215D02*
G01X54624Y500D01*
G01X54897Y909D02*
G01X55511Y909D01*
G01X54897Y704D02*
G01X55511Y704D01*
G01X56295Y1045D02*
G01X56261Y1113D01*
G01X56261Y1113D02*
G01X56193Y1181D01*
G01X56193Y1181D02*
G01X56124Y1215D01*
G01X56124Y1215D02*
G01X55988Y1215D01*
G01X55988Y1215D02*
G01X55920Y1181D01*
G01X55920Y1181D02*
G01X55852Y1113D01*
G01X55852Y1113D02*
G01X55818Y1045D01*
G01X55818Y1045D02*
G01X55784Y943D01*
G01X55784Y943D02*
G01X55784Y772D01*
G01X55784Y772D02*
G01X55818Y670D01*
G01X55818Y670D02*
G01X55852Y602D01*
G01X55852Y602D02*
G01X55920Y534D01*
G01X55920Y534D02*
G01X55988Y500D01*
G01X55988Y500D02*
G01X56124Y500D01*
G01X56124Y500D02*
G01X56193Y534D01*
G01X56193Y534D02*
G01X56261Y602D01*
G01X56261Y602D02*
G01X56295Y670D01*
G01X56772Y1215D02*
G01X56704Y1181D01*
G01X56704Y1181D02*
G01X56636Y1113D01*
G01X56636Y1113D02*
G01X56602Y1045D01*
G01X56602Y1045D02*
G01X56568Y943D01*
G01X56568Y943D02*
G01X56568Y772D01*
G01X56568Y772D02*
G01X56602Y670D01*
G01X56602Y670D02*
G01X56636Y602D01*
G01X56636Y602D02*
G01X56704Y534D01*
G01X56704Y534D02*
G01X56772Y500D01*
G01X56772Y500D02*
G01X56909Y500D01*
G01X56909Y500D02*
G01X56977Y534D01*
G01X56977Y534D02*
G01X57045Y602D01*
G01X57045Y602D02*
G01X57079Y670D01*
G01X57079Y670D02*
G01X57113Y772D01*
G01X57113Y772D02*
G01X57113Y943D01*
G01X57113Y943D02*
G01X57079Y1045D01*
G01X57079Y1045D02*
G01X57045Y1113D01*
G01X57045Y1113D02*
G01X56977Y1181D01*
G01X56977Y1181D02*
G01X56909Y1215D01*
G01X56909Y1215D02*
G01X56772Y1215D01*
G01X57454Y534D02*
G01X57420Y500D01*
G01X57420Y500D02*
G01X57386Y534D01*
G01X57386Y534D02*
G01X57420Y568D01*
G01X57420Y568D02*
G01X57454Y534D01*
G01X57454Y534D02*
G01X57454Y465D01*
G01X57454Y465D02*
G01X57420Y397D01*
G01X57420Y397D02*
G01X57386Y363D01*
G01X58204Y1113D02*
G01X58136Y1181D01*
G01X58136Y1181D02*
G01X58034Y1215D01*
G01X58034Y1215D02*
G01X57897Y1215D01*
G01X57897Y1215D02*
G01X57795Y1181D01*
G01X57795Y1181D02*
G01X57727Y1113D01*
G01X57727Y1113D02*
G01X57727Y1045D01*
G01X57727Y1045D02*
G01X57761Y977D01*
G01X57761Y977D02*
G01X57795Y943D01*
G01X57795Y943D02*
G01X57863Y909D01*
G01X57863Y909D02*
G01X58068Y840D01*
G01X58068Y840D02*
G01X58136Y806D01*
G01X58136Y806D02*
G01X58170Y772D01*
G01X58170Y772D02*
G01X58204Y704D01*
G01X58204Y704D02*
G01X58204Y602D01*
G01X58204Y602D02*
G01X58136Y534D01*
G01X58136Y534D02*
G01X58034Y500D01*
G01X58034Y500D02*
G01X57897Y500D01*
G01X57897Y500D02*
G01X57795Y534D01*
G01X57795Y534D02*
G01X57727Y602D01*
G54D10*
G01X10204Y28409D02*
G01X10204Y28000D01*
G01X10000Y28204D02*
G01X10409Y28204D01*
G01X10204Y16409D02*
G01X10204Y16000D01*
G01X10000Y16204D02*
G01X10409Y16204D01*
G01X10204Y4409D02*
G01X10204Y4000D01*
G01X10000Y4204D02*
G01X10409Y4204D01*
G01X20204Y40409D02*
G01X20204Y40000D01*
G01X20000Y40204D02*
G01X20409Y40204D01*
G01X20204Y28409D02*
G01X20204Y28000D01*
G01X20000Y28204D02*
G01X20409Y28204D01*
G01X20204Y16409D02*
G01X20204Y16000D01*
G01X20000Y16204D02*
G01X20409Y16204D01*
G01X20204Y4409D02*
G01X20204Y4000D01*
G01X20000Y4204D02*
G01X20409Y4204D01*
G01X30204Y40409D02*
G01X30204Y40000D01*
G01X30000Y40204D02*
G01X30409Y40204D01*
G01X30204Y16409D02*
G01X30204Y16000D01*
G01X30000Y16204D02*
G01X30409Y16204D01*
G01X30204Y28409D02*
G01X30204Y28000D01*
G01X30000Y28204D02*
G01X30409Y28204D01*
G01X30204Y4409D02*
G01X30204Y4000D01*
G01X30000Y4204D02*
G01X30409Y4204D01*
G01X40204Y40409D02*
G01X40204Y40000D01*
G01X40000Y40204D02*
G01X40409Y40204D01*
G01X40204Y28409D02*
G01X40204Y28000D01*
G01X40000Y28204D02*
G01X40409Y28204D01*
G01X40204Y16409D02*
G01X40204Y16000D01*
G01X40000Y16204D02*
G01X40409Y16204D01*
G01X40204Y4409D02*
G01X40204Y4000D01*
G01X40000Y4204D02*
G01X40409Y4204D01*
G01X50204Y40409D02*
G01X50204Y40000D01*
G01X50000Y40204D02*
G01X50409Y40204D01*
G01X50204Y28409D02*
G01X50204Y28000D01*
G01X50000Y28204D02*
G01X50409Y28204D01*
G01X50204Y16409D02*
G01X50204Y16000D01*
G01X50000Y16204D02*
G01X50409Y16204D01*
G01X10204Y40409D02*
G01X10204Y40000D01*
G01X10000Y40204D02*
G01X10409Y40204D01*
M00*
M02*
