G04 FreePCB version 1.343*
G04 Z:\trinary\code\bb\CAM-swrom-fixed\bottom_copper.grb*
G04 bottom copper layer *
G04 Scale: 100 percent, Rotated: No, Reflected: No *
%FSLAX24Y24*%
%MOIN*%
%LNTop*%
%ADD10C,0.005000*%
%ADD11R,0.055000X0.055000*%
%ADD12C,0.055000*%
%ADD13C,0.075000*%
%ADD14R,0.050000X0.050000*%
%ADD15C,0.050000*%
%ADD16C,0.010000*%
%ADD17C,0.028000*%
%ADD18C,0.020000*%
G90*
G70D02*

G04 Step and Repeat for panelization *

G04 ----------------------- Draw board outline (positive)*
%LPD*%
G54D10*
G01X10000Y44000D02*
G01X68000Y44000D01*
G04 end of side 1*
G01X68000Y-14000D01*
G04 end of side 2*
G01X10000Y-14000D01*
G04 end of side 3*
G01X10000Y44000D01*

G04 -------------- Draw Parts, Pads, Traces, Vias and Text (positive)*
%LPD*%
G04 Draw part X_IC_0_CD4007*
G54D11*
G01X26000Y-11000D03*
G54D12*
G01X27000Y-11000D03*
G01X28000Y-11000D03*
G01X29000Y-11000D03*
G01X30000Y-11000D03*
G01X31000Y-11000D03*
G01X32000Y-11000D03*
G01X32000Y-8000D03*
G01X31000Y-8000D03*
G01X30000Y-8000D03*
G01X29000Y-8000D03*
G01X28000Y-8000D03*
G01X27000Y-8000D03*
G01X26000Y-8000D03*
G04 Draw part X_IC_1_CD4007*
G54D11*
G01X45300Y-12000D03*
G54D12*
G01X46300Y-12000D03*
G01X47300Y-12000D03*
G01X48300Y-12000D03*
G01X49300Y-12000D03*
G01X50300Y-12000D03*
G01X51300Y-12000D03*
G01X51300Y-9000D03*
G01X50300Y-9000D03*
G01X49300Y-9000D03*
G01X48300Y-9000D03*
G01X47300Y-9000D03*
G01X46300Y-9000D03*
G01X45300Y-9000D03*
G04 Draw part X_IC_2_CD4007*
G54D11*
G01X45000Y2000D03*
G54D12*
G01X46000Y2000D03*
G01X47000Y2000D03*
G01X48000Y2000D03*
G01X49000Y2000D03*
G01X50000Y2000D03*
G01X51000Y2000D03*
G01X51000Y5000D03*
G01X50000Y5000D03*
G01X49000Y5000D03*
G01X48000Y5000D03*
G01X47000Y5000D03*
G01X46000Y5000D03*
G01X45000Y5000D03*
G04 Draw part X_IC_3_CD4007*
G54D11*
G01X59000Y39000D03*
G54D12*
G01X60000Y39000D03*
G01X61000Y39000D03*
G01X62000Y39000D03*
G01X63000Y39000D03*
G01X64000Y39000D03*
G01X65000Y39000D03*
G01X65000Y42000D03*
G01X64000Y42000D03*
G01X63000Y42000D03*
G01X62000Y42000D03*
G01X61000Y42000D03*
G01X60000Y42000D03*
G01X59000Y42000D03*
G04 Draw part X_IC_4_CD4007*
G54D11*
G01X45100Y27800D03*
G54D12*
G01X46100Y27800D03*
G01X47100Y27800D03*
G01X48100Y27800D03*
G01X49100Y27800D03*
G01X50100Y27800D03*
G01X51100Y27800D03*
G01X51100Y30800D03*
G01X50100Y30800D03*
G01X49100Y30800D03*
G01X48100Y30800D03*
G01X47100Y30800D03*
G01X46100Y30800D03*
G01X45100Y30800D03*
G04 Draw part X_IC_5_CD4007*
G54D11*
G01X26000Y40000D03*
G54D12*
G01X27000Y40000D03*
G01X28000Y40000D03*
G01X29000Y40000D03*
G01X30000Y40000D03*
G01X31000Y40000D03*
G01X32000Y40000D03*
G01X32000Y43000D03*
G01X31000Y43000D03*
G01X30000Y43000D03*
G01X29000Y43000D03*
G01X28000Y43000D03*
G01X27000Y43000D03*
G01X26000Y43000D03*
G04 Draw part X_IC_6_CD4007*
G54D11*
G01X60400Y15500D03*
G54D12*
G01X61400Y15500D03*
G01X62400Y15500D03*
G01X63400Y15500D03*
G01X64400Y15500D03*
G01X65400Y15500D03*
G01X66400Y15500D03*
G01X66400Y18500D03*
G01X65400Y18500D03*
G01X64400Y18500D03*
G01X63400Y18500D03*
G01X62400Y18500D03*
G01X61400Y18500D03*
G01X60400Y18500D03*
G04 Draw part X_IC_7_CD4007*
G54D11*
G01X60800Y1400D03*
G54D12*
G01X61800Y1400D03*
G01X62800Y1400D03*
G01X63800Y1400D03*
G01X64800Y1400D03*
G01X65800Y1400D03*
G01X66800Y1400D03*
G01X66800Y4400D03*
G01X65800Y4400D03*
G01X64800Y4400D03*
G01X63800Y4400D03*
G01X62800Y4400D03*
G01X61800Y4400D03*
G01X60800Y4400D03*
G04 Draw part X_IC_8_CD4007*
G54D11*
G01X61000Y28000D03*
G54D12*
G01X62000Y28000D03*
G01X63000Y28000D03*
G01X64000Y28000D03*
G01X65000Y28000D03*
G01X66000Y28000D03*
G01X67000Y28000D03*
G01X67000Y31000D03*
G01X66000Y31000D03*
G01X65000Y31000D03*
G01X64000Y31000D03*
G01X63000Y31000D03*
G01X62000Y31000D03*
G01X61000Y31000D03*
G04 Draw part X_IC_9_CD4007*
G54D11*
G01X26000Y2000D03*
G54D12*
G01X27000Y2000D03*
G01X28000Y2000D03*
G01X29000Y2000D03*
G01X30000Y2000D03*
G01X31000Y2000D03*
G01X32000Y2000D03*
G01X32000Y5000D03*
G01X31000Y5000D03*
G01X30000Y5000D03*
G01X29000Y5000D03*
G01X28000Y5000D03*
G01X27000Y5000D03*
G01X26000Y5000D03*
G04 Draw part X_IC_10_CD4007*
G54D11*
G01X25600Y15700D03*
G54D12*
G01X26600Y15700D03*
G01X27600Y15700D03*
G01X28600Y15700D03*
G01X29600Y15700D03*
G01X30600Y15700D03*
G01X31600Y15700D03*
G01X31600Y18700D03*
G01X30600Y18700D03*
G01X29600Y18700D03*
G01X28600Y18700D03*
G01X27600Y18700D03*
G01X26600Y18700D03*
G01X25600Y18700D03*
G04 Draw part X_IC_11_CD4007*
G54D11*
G01X25300Y28200D03*
G54D12*
G01X26300Y28200D03*
G01X27300Y28200D03*
G01X28300Y28200D03*
G01X29300Y28200D03*
G01X30300Y28200D03*
G01X31300Y28200D03*
G01X31300Y31200D03*
G01X30300Y31200D03*
G01X29300Y31200D03*
G01X28300Y31200D03*
G01X27300Y31200D03*
G01X26300Y31200D03*
G01X25300Y31200D03*
G04 Draw part X_IC_15_CD4016*
G54D11*
G01X13000Y40000D03*
G54D12*
G01X14000Y40000D03*
G01X15000Y40000D03*
G01X16000Y40000D03*
G01X17000Y40000D03*
G01X18000Y40000D03*
G01X19000Y40000D03*
G01X19000Y43000D03*
G01X18000Y43000D03*
G01X17000Y43000D03*
G01X16000Y43000D03*
G01X15000Y43000D03*
G01X14000Y43000D03*
G01X13000Y43000D03*
G04 Draw part X_IC_16_CD4016*
G54D11*
G01X45000Y16000D03*
G54D12*
G01X46000Y16000D03*
G01X47000Y16000D03*
G01X48000Y16000D03*
G01X49000Y16000D03*
G01X50000Y16000D03*
G01X51000Y16000D03*
G01X51000Y19000D03*
G01X50000Y19000D03*
G01X49000Y19000D03*
G01X48000Y19000D03*
G01X47000Y19000D03*
G01X46000Y19000D03*
G01X45000Y19000D03*
G04 Draw part X_IC_17_CD4016*
G54D11*
G01X45000Y40000D03*
G54D12*
G01X46000Y40000D03*
G01X47000Y40000D03*
G01X48000Y40000D03*
G01X49000Y40000D03*
G01X50000Y40000D03*
G01X51000Y40000D03*
G01X51000Y43000D03*
G01X50000Y43000D03*
G01X49000Y43000D03*
G01X48000Y43000D03*
G01X47000Y43000D03*
G01X46000Y43000D03*
G01X45000Y43000D03*
G04 Draw part R1*
G54D13*
G01X36000Y-5000D03*
G01X36000Y-10000D03*
G04 Draw part R2*
G01X41000Y-10000D03*
G01X41000Y-5000D03*
G04 Draw part R3*
G01X26000Y-3000D03*
G01X31000Y-3000D03*
G04 Draw part R4*
G01X26100Y-4700D03*
G01X31100Y-4700D03*
G04 Draw part R5*
G01X40000Y28200D03*
G01X40000Y23200D03*
G04 Draw part R6*
G01X40000Y19000D03*
G01X40000Y14000D03*
G04 Draw part R7*
G01X37000Y34000D03*
G01X37000Y29000D03*
G04 Draw part R8*
G01X46000Y-4900D03*
G01X51000Y-4900D03*
G04 Draw part R9*
G01X55000Y1000D03*
G01X55000Y6000D03*
G04 Draw part R10*
G01X46000Y-3000D03*
G01X51000Y-3000D03*
G04 Draw part R11*
G01X46000Y9000D03*
G01X51000Y9000D03*
G04 Draw part R12*
G01X46000Y12000D03*
G01X51000Y12000D03*
G04 Draw part R13*
G01X40000Y9000D03*
G01X40000Y4000D03*
G04 Draw part R14*
G01X55000Y15000D03*
G01X55000Y10000D03*
G04 Draw part R15*
G01X55000Y32000D03*
G01X55000Y27000D03*
G04 Draw part R16*
G01X46100Y35500D03*
G01X51100Y35500D03*
G04 Draw part R17*
G01X46000Y23000D03*
G01X51000Y23000D03*
G04 Draw part R18*
G01X46000Y25000D03*
G01X51000Y25000D03*
G04 Draw part R19*
G01X26000Y33000D03*
G01X31000Y33000D03*
G04 Draw part R20*
G01X26000Y36000D03*
G01X31000Y36000D03*
G04 Draw part R21*
G01X36000Y39000D03*
G01X41000Y39000D03*
G04 Draw part R22*
G01X55000Y39000D03*
G01X55000Y34000D03*
G04 Draw part R23*
G01X61000Y24000D03*
G01X66000Y24000D03*
G04 Draw part R24*
G01X62000Y34000D03*
G01X67000Y34000D03*
G04 Draw part R25*
G01X61200Y7900D03*
G01X66200Y7900D03*
G04 Draw part R26*
G01X55000Y-1000D03*
G01X55000Y-6000D03*
G04 Draw part R27*
G01X40000Y35000D03*
G01X40000Y30000D03*
G04 Draw part R28*
G01X61100Y10400D03*
G01X66100Y10400D03*
G04 Draw part R29*
G01X58000Y29000D03*
G01X58000Y24000D03*
G04 Draw part R30*
G01X62000Y36000D03*
G01X67000Y36000D03*
G04 Draw part R31*
G01X36000Y42000D03*
G01X41000Y42000D03*
G04 Draw part R32*
G01X55000Y23000D03*
G01X55000Y18000D03*
G04 Draw part R33*
G01X27000Y9000D03*
G01X32000Y9000D03*
G04 Draw part R34*
G01X61000Y22000D03*
G01X66000Y22000D03*
G04 Draw part R35*
G01X36000Y-2000D03*
G01X41000Y-2000D03*
G04 Draw part R36*
G01X36000Y1000D03*
G01X41000Y1000D03*
G04 Draw part R37*
G01X26000Y22300D03*
G01X31000Y22300D03*
G04 Draw part R38*
G01X27000Y11000D03*
G01X32000Y11000D03*
G04 Draw part R39*
G01X26000Y24600D03*
G01X31000Y24600D03*
G04 Draw part R40*
G01X37000Y28000D03*
G01X37000Y23000D03*
G04 Draw part R41*
G01X37000Y9000D03*
G01X37000Y4000D03*
G04 Draw part R42*
G01X37000Y19000D03*
G01X37000Y14000D03*
G04 Draw part X$XXiA$XXsw*
G01X11800Y36100D03*
G01X12800Y36100D03*
G01X13800Y36100D03*
G01X15800Y36100D03*
G04 Draw part X$XXiB$XXsw*
G01X11800Y31100D03*
G01X12800Y31100D03*
G01X13800Y31100D03*
G01X15800Y31100D03*
G04 Draw part X$XXiC$XXsw*
G01X11800Y26100D03*
G01X12800Y26100D03*
G01X13800Y26100D03*
G01X15800Y26100D03*
G04 Draw part X$XX0A$XXsw*
G01X11800Y18600D03*
G01X12800Y18600D03*
G01X13800Y18600D03*
G01X15800Y18600D03*
G04 Draw part X$XX0B$XXsw*
G01X11800Y13600D03*
G01X12800Y13600D03*
G01X13800Y13600D03*
G01X15800Y13600D03*
G04 Draw part X$XX0C$XXsw*
G01X11800Y8600D03*
G01X12800Y8600D03*
G01X13800Y8600D03*
G01X15800Y8600D03*
G04 Draw part X$XX1A$XXsw*
G01X11800Y1100D03*
G01X12800Y1100D03*
G01X13800Y1100D03*
G01X15800Y1100D03*
G04 Draw part X$XX1B$XXsw*
G01X11800Y-3900D03*
G01X12800Y-3900D03*
G01X13800Y-3900D03*
G01X15800Y-3900D03*
G04 Draw part X$XX1C$XXsw*
G01X11800Y-8900D03*
G01X12800Y-8900D03*
G01X13800Y-8900D03*
G01X15800Y-8900D03*
G04 Draw part V$XX1$Vdd*
G54D14*
G01X62000Y-10000D03*
G54D15*
G01X62000Y-11000D03*
G04 Draw part V$XX1$Vss*
G54D14*
G01X58000Y-11000D03*
G54D15*
G01X58000Y-10000D03*
G04 Draw part DATA_AND_ADDR*
G54D14*
G01X62000Y-4000D03*
G54D15*
G01X63000Y-4000D03*
G01X62000Y-5000D03*
G01X63000Y-5000D03*
G01X62000Y-6000D03*
G01X63000Y-6000D03*
G01X62000Y-7000D03*
G01X63000Y-7000D03*

G04 Draw traces*
G54D16*
G01X31100Y-4700D02*
G01X30574Y-5225D01*
G01X30574Y-5225D02*
G01X30574Y-10425D01*
G01X30574Y-10425D02*
G01X30000Y-11000D01*
G54D17*
G01X51920Y22695D03*
G54D16*
G01X51920Y22695D02*
G01X51920Y24870D01*
G01X51920Y24870D02*
G01X49600Y27190D01*
G01X49600Y27190D02*
G01X49600Y37340D01*
G01X49600Y37340D02*
G01X47500Y39440D01*
G01X47500Y39440D02*
G01X47500Y40996D01*
G01X47500Y40996D02*
G01X46500Y41996D01*
G01X46500Y41996D02*
G01X46500Y43161D01*
G01X46500Y43161D02*
G01X46012Y43649D01*
G01X46012Y43649D02*
G01X42649Y43649D01*
G01X42649Y43649D02*
G01X41000Y42000D01*
G01X55000Y6000D02*
G01X57219Y8219D01*
G01X57219Y8219D02*
G01X57219Y35219D01*
G01X57219Y35219D02*
G01X61000Y39000D01*
G01X46000Y-4900D02*
G01X44947Y-3847D01*
G01X44947Y-3847D02*
G01X44947Y-1767D01*
G01X44947Y-1767D02*
G01X39451Y3729D01*
G01X39451Y3729D02*
G01X39451Y27224D01*
G01X39451Y27224D02*
G01X39799Y27572D01*
G54D17*
G01X39799Y27572D03*
G54D16*
G01X31000Y36000D02*
G01X31500Y36500D01*
G01X31500Y36500D02*
G01X31500Y42500D01*
G01X31500Y42500D02*
G01X32000Y43000D01*
G01X67000Y36000D02*
G01X67568Y35431D01*
G01X67568Y35431D02*
G01X67568Y31568D01*
G01X67568Y31568D02*
G01X67000Y31000D01*
G01X67000Y34000D02*
G01X66525Y33525D01*
G01X66525Y33525D02*
G01X66525Y24708D01*
G01X66525Y24708D02*
G01X66725Y24508D01*
G01X66725Y24508D02*
G01X66725Y18825D01*
G01X66725Y18825D02*
G01X66400Y18500D01*
G01X49000Y16000D02*
G01X49000Y16164D01*
G01X49000Y16164D02*
G01X47824Y17340D01*
G01X47824Y17340D02*
G01X45774Y17340D01*
G01X45774Y17340D02*
G01X40605Y22509D01*
G01X40605Y22509D02*
G01X40605Y28338D01*
G01X40605Y28338D02*
G01X39560Y29383D01*
G54D17*
G01X39560Y29383D03*
G01X33870Y37586D03*
G54D16*
G01X36000Y39000D02*
G01X35284Y39000D01*
G01X35284Y39000D02*
G01X33870Y37586D01*
G01X37000Y19000D02*
G01X37562Y18437D01*
G01X37562Y18437D02*
G01X37562Y4562D01*
G01X37562Y4562D02*
G01X37000Y4000D01*
G01X61000Y24000D02*
G01X61583Y23416D01*
G01X61583Y23416D02*
G01X61583Y18683D01*
G01X61583Y18683D02*
G01X61400Y18500D01*
G01X46000Y23000D02*
G01X45100Y23900D01*
G01X45100Y23900D02*
G01X45100Y27800D01*
G54D17*
G01X51375Y14016D03*
G54D16*
G01X51375Y14016D02*
G01X49450Y15941D01*
G01X49450Y15941D02*
G01X49450Y16177D01*
G01X49450Y16177D02*
G01X47727Y17900D01*
G01X47727Y17900D02*
G01X45498Y17900D01*
G01X45498Y17900D02*
G01X41005Y22392D01*
G01X41005Y22392D02*
G01X41005Y28994D01*
G01X41005Y28994D02*
G01X40000Y30000D01*
G01X62000Y36000D02*
G01X60348Y34348D01*
G01X60348Y34348D02*
G01X60348Y26348D01*
G01X60348Y26348D02*
G01X58000Y24000D01*
G01X40000Y4000D02*
G01X46800Y-2800D01*
G01X46800Y-2800D02*
G01X46800Y-11500D01*
G01X46800Y-11500D02*
G01X47300Y-12000D01*
G01X13000Y40000D02*
G01X13000Y39574D01*
G01X13000Y39574D02*
G01X13800Y38774D01*
G01X13800Y38774D02*
G01X13800Y36100D01*
G01X40000Y28200D02*
G01X39250Y27450D01*
G01X39250Y27450D02*
G01X39250Y3546D01*
G01X39250Y3546D02*
G01X43877Y-1079D01*
G01X43877Y-1079D02*
G01X43877Y-6577D01*
G01X43877Y-6577D02*
G01X46300Y-9000D01*
G01X40000Y9000D02*
G01X45000Y4000D01*
G01X45000Y4000D02*
G01X45000Y2000D01*
G01X16000Y43000D02*
G01X16000Y42717D01*
G01X16000Y42717D02*
G01X15500Y42217D01*
G01X15500Y42217D02*
G01X15500Y36983D01*
G01X15500Y36983D02*
G01X13800Y35283D01*
G01X13800Y35283D02*
G01X13800Y31100D01*
G01X32000Y11000D02*
G01X32086Y11086D01*
G01X32086Y11086D02*
G01X32086Y18214D01*
G01X32086Y18214D02*
G01X31600Y18700D01*
G01X66200Y7900D02*
G01X62400Y11700D01*
G01X62400Y11700D02*
G01X62400Y15500D01*
G01X55000Y10000D02*
G01X55000Y8000D01*
G01X55000Y8000D02*
G01X49000Y2000D01*
G01X27000Y11000D02*
G01X30100Y14100D01*
G01X30100Y14100D02*
G01X30100Y21400D01*
G01X30100Y21400D02*
G01X31000Y22300D01*
G01X26000Y22300D02*
G01X26600Y21700D01*
G01X26600Y21700D02*
G01X26600Y18700D01*
G01X40000Y19000D02*
G01X40000Y23200D01*
G01X51000Y25000D02*
G01X49100Y26900D01*
G01X49100Y26900D02*
G01X49100Y27800D01*
G01X46000Y9000D02*
G01X48790Y9000D01*
G01X48790Y9000D02*
G01X52909Y13118D01*
G01X52909Y13118D02*
G01X52909Y32696D01*
G01X52909Y32696D02*
G01X58787Y38574D01*
G01X58787Y38574D02*
G01X59000Y38574D01*
G01X59000Y38574D02*
G01X59000Y39000D01*
G01X36000Y1000D02*
G01X39000Y-2000D01*
G01X39000Y-2000D02*
G01X41000Y-2000D01*
G01X36000Y-2000D02*
G01X35448Y-1448D01*
G01X35448Y-1448D02*
G01X35448Y19785D01*
G01X35448Y19785D02*
G01X37570Y21907D01*
G01X37570Y21907D02*
G01X37570Y27291D01*
G01X37570Y27291D02*
G01X37770Y27491D01*
G01X37770Y27491D02*
G01X37770Y29655D01*
G01X37770Y29655D02*
G01X36450Y30975D01*
G01X36450Y30975D02*
G01X36450Y35265D01*
G01X36450Y35265D02*
G01X44616Y43431D01*
G01X44616Y43431D02*
G01X45568Y43431D01*
G01X45568Y43431D02*
G01X46000Y43000D01*
G54D17*
G01X59157Y41479D03*
G54D16*
G01X59157Y41479D02*
G01X59157Y39842D01*
G01X59157Y39842D02*
G01X60000Y39000D01*
G01X27000Y-8000D02*
G01X28000Y-9000D01*
G01X28000Y-9000D02*
G01X28000Y-11000D01*
G01X26000Y33000D02*
G01X26574Y33574D01*
G01X26574Y33574D02*
G01X26574Y42574D01*
G01X26574Y42574D02*
G01X27000Y43000D01*
G01X46100Y30800D02*
G01X47100Y29800D01*
G01X47100Y29800D02*
G01X47100Y27800D01*
G54D18*
G01X11800Y31100D02*
G01X11800Y36100D01*
G01X11800Y26100D02*
G01X11800Y31100D01*
G01X11800Y18600D02*
G01X11800Y26100D01*
G01X11800Y13600D02*
G01X11800Y18600D01*
G01X11800Y8600D02*
G01X11800Y13600D01*
G01X11800Y1100D02*
G01X11800Y8600D01*
G01X11800Y-3900D02*
G01X11800Y1100D01*
G01X11800Y-8900D02*
G01X11800Y-3900D01*
G01X29000Y2000D02*
G01X29500Y1500D01*
G01X29500Y1500D02*
G01X29500Y-10500D01*
G01X29500Y-10500D02*
G01X29000Y-11000D01*
G01X51000Y2000D02*
G01X52194Y805D01*
G01X52194Y805D02*
G01X52194Y-11105D01*
G01X52194Y-11105D02*
G01X51300Y-12000D01*
G01X51000Y16000D02*
G01X49500Y17500D01*
G01X49500Y17500D02*
G01X49500Y21244D01*
G01X49500Y21244D02*
G01X48100Y22644D01*
G01X48100Y22644D02*
G01X48100Y27800D01*
G01X51000Y40000D02*
G01X50475Y39475D01*
G01X50475Y39475D02*
G01X50475Y34172D01*
G01X50475Y34172D02*
G01X50600Y34047D01*
G01X50600Y34047D02*
G01X50600Y28300D01*
G01X50600Y28300D02*
G01X51100Y27800D01*
G01X28300Y28200D02*
G01X28800Y28700D01*
G01X28800Y28700D02*
G01X28800Y39800D01*
G01X28800Y39800D02*
G01X29000Y40000D01*
G01X64000Y28000D02*
G01X63900Y27900D01*
G01X63900Y27900D02*
G01X63900Y16000D01*
G01X63900Y16000D02*
G01X63400Y15500D01*
G01X66800Y1400D02*
G01X67526Y2126D01*
G01X67526Y2126D02*
G01X67526Y14373D01*
G01X67526Y14373D02*
G01X66400Y15500D01*
G01X31600Y15700D02*
G01X31387Y15487D01*
G01X31387Y15487D02*
G01X31387Y7192D01*
G01X31387Y7192D02*
G01X31500Y7079D01*
G01X31500Y7079D02*
G01X31500Y2500D01*
G01X31500Y2500D02*
G01X32000Y2000D01*
G01X28300Y28200D02*
G01X28100Y28000D01*
G01X28100Y28000D02*
G01X28100Y16200D01*
G01X28100Y16200D02*
G01X28600Y15700D01*
G54D16*
G01X36000Y42000D02*
G01X36556Y41443D01*
G01X36556Y41443D02*
G01X36556Y37944D01*
G01X36556Y37944D02*
G01X36250Y37638D01*
G01X36250Y37638D02*
G01X36250Y30792D01*
G01X36250Y30792D02*
G01X37570Y29472D01*
G01X37570Y29472D02*
G01X37570Y27675D01*
G01X37570Y27675D02*
G01X36875Y26979D01*
G01X36875Y26979D02*
G01X36875Y26702D01*
G54D17*
G01X36875Y26702D03*
G54D18*
G01X15800Y31100D02*
G01X15800Y36100D01*
G01X15800Y18600D02*
G01X15800Y26100D01*
G01X15800Y13600D02*
G01X15800Y18600D01*
G01X15800Y8600D02*
G01X15800Y13600D01*
G01X15800Y1100D02*
G01X15800Y8600D01*
G01X15800Y-3900D02*
G01X15800Y1100D01*
G01X15800Y-8900D02*
G01X15800Y-3900D01*
G01X26000Y-8000D02*
G01X27000Y-9000D01*
G01X27000Y-9000D02*
G01X27000Y-11000D01*
G01X27000Y2000D02*
G01X27000Y-7000D01*
G01X27000Y-7000D02*
G01X26000Y-8000D01*
G01X45300Y-9000D02*
G01X45300Y-11000D01*
G01X45300Y-11000D02*
G01X46300Y-12000D01*
G54D17*
G01X43475Y-1088D03*
G54D18*
G01X43475Y-1088D02*
G01X43475Y-7175D01*
G01X43475Y-7175D02*
G01X45300Y-9000D01*
G01X62000Y28000D02*
G01X62000Y30162D01*
G01X62000Y30162D02*
G01X61162Y31000D01*
G01X61162Y31000D02*
G01X61162Y34312D01*
G01X61162Y34312D02*
G01X62631Y35781D01*
G01X62631Y35781D02*
G01X62631Y36464D01*
G01X62631Y36464D02*
G01X61500Y37595D01*
G01X61500Y37595D02*
G01X61500Y39617D01*
G01X61500Y39617D02*
G01X59117Y42000D01*
G01X59117Y42000D02*
G01X59000Y42000D01*
G01X45000Y43000D02*
G01X45500Y42500D01*
G01X45500Y42500D02*
G01X45500Y30800D01*
G01X45500Y30800D02*
G01X45500Y28400D01*
G01X45500Y28400D02*
G01X46100Y27800D01*
G01X45000Y19000D02*
G01X46624Y20624D01*
G01X46624Y20624D02*
G01X46624Y27275D01*
G01X46624Y27275D02*
G01X46100Y27800D01*
G01X25300Y31200D02*
G01X27000Y32900D01*
G01X27000Y32900D02*
G01X27000Y40000D01*
G01X26000Y43000D02*
G01X26503Y43503D01*
G01X26503Y43503D02*
G01X27228Y43503D01*
G01X27228Y43503D02*
G01X27500Y43231D01*
G01X27500Y43231D02*
G01X27500Y40500D01*
G01X27500Y40500D02*
G01X27000Y40000D01*
G01X62000Y-10000D02*
G01X62000Y-9549D01*
G01X62000Y-9549D02*
G01X60284Y-7834D01*
G01X60284Y-7834D02*
G01X60284Y4204D01*
G01X60284Y4204D02*
G01X60479Y4400D01*
G01X60479Y4400D02*
G01X60479Y14579D01*
G01X60479Y14579D02*
G01X61400Y15500D01*
G01X60400Y18500D02*
G01X61400Y17500D01*
G01X61400Y17500D02*
G01X61400Y15500D01*
G01X62000Y28000D02*
G01X62000Y27205D01*
G01X62000Y27205D02*
G01X60400Y25605D01*
G01X60400Y25605D02*
G01X60400Y18500D01*
G01X26000Y5000D02*
G01X27000Y4000D01*
G01X27000Y4000D02*
G01X27000Y2000D01*
G01X26600Y15700D02*
G01X26000Y15100D01*
G01X26000Y15100D02*
G01X26000Y5000D01*
G01X25600Y18700D02*
G01X26600Y17700D01*
G01X26600Y17700D02*
G01X26600Y15700D01*
G01X61000Y31000D02*
G01X61162Y31000D01*
G01X45100Y30800D02*
G01X45500Y30800D01*
G01X60800Y4400D02*
G01X60479Y4400D01*
G54D16*
G01X51000Y12000D02*
G01X52218Y13218D01*
G01X52218Y13218D02*
G01X52218Y32742D01*
G01X52218Y32742D02*
G01X55678Y36202D01*
G01X55678Y36202D02*
G01X55678Y39285D01*
G01X55678Y39285D02*
G01X58837Y42444D01*
G01X58837Y42444D02*
G01X60192Y42444D01*
G01X60192Y42444D02*
G01X60500Y42137D01*
G01X60500Y42137D02*
G01X60500Y41850D01*
G01X60500Y41850D02*
G01X62235Y40114D01*
G01X62235Y40114D02*
G01X63000Y40114D01*
G01X63000Y40114D02*
G01X63000Y39000D01*
G01X65000Y42000D02*
G01X63114Y40114D01*
G01X63114Y40114D02*
G01X63000Y40114D01*
G01X16000Y40000D02*
G01X16000Y37058D01*
G01X16000Y37058D02*
G01X15123Y36181D01*
G01X15123Y36181D02*
G01X15123Y2423D01*
G01X15123Y2423D02*
G01X13800Y1100D01*
G01X66800Y4400D02*
G01X64800Y2400D01*
G01X64800Y2400D02*
G01X64800Y1400D01*
G01X19000Y43000D02*
G01X18561Y42561D01*
G01X18561Y42561D02*
G01X18561Y22902D01*
G01X18561Y22902D02*
G01X18622Y22841D01*
G01X18622Y22841D02*
G01X18622Y22228D01*
G01X18622Y22228D02*
G01X17592Y21198D01*
G54D17*
G01X17592Y21198D03*
G01X57516Y32800D03*
G54D16*
G01X57516Y32800D02*
G01X57469Y32753D01*
G01X57469Y32753D02*
G01X57469Y18855D01*
G01X57469Y18855D02*
G01X60400Y15925D01*
G01X60400Y15925D02*
G01X60400Y15500D01*
G01X62000Y31000D02*
G01X63000Y30000D01*
G01X63000Y30000D02*
G01X63000Y28000D01*
G01X51100Y35500D02*
G01X51100Y30800D01*
G01X48000Y16000D02*
G01X47654Y16345D01*
G01X47654Y16345D02*
G01X47654Y17050D01*
G54D17*
G01X47654Y17050D03*
G54D16*
G01X66100Y10400D02*
G01X64400Y12100D01*
G01X64400Y12100D02*
G01X64400Y15500D01*
G54D17*
G01X21965Y18354D03*
G54D16*
G01X21965Y18354D02*
G01X21965Y-3515D01*
G01X21965Y-3515D02*
G01X16036Y-9444D01*
G01X16036Y-9444D02*
G01X14344Y-9444D01*
G01X14344Y-9444D02*
G01X13800Y-8900D01*
G01X45000Y40000D02*
G01X45000Y35747D01*
G01X45000Y35747D02*
G01X38171Y28918D01*
G01X38171Y28918D02*
G01X38171Y9245D01*
G01X38171Y9245D02*
G01X38153Y9227D01*
G54D17*
G01X38153Y9227D03*
G54D16*
G01X40000Y14000D02*
G01X40000Y13038D01*
G01X40000Y13038D02*
G01X45574Y7463D01*
G01X45574Y7463D02*
G01X45574Y1373D01*
G01X45574Y1373D02*
G01X51552Y-4604D01*
G01X51552Y-4604D02*
G01X51552Y-8747D01*
G01X51552Y-8747D02*
G01X51300Y-9000D01*
G54D17*
G01X23072Y16670D03*
G54D16*
G01X23072Y16670D02*
G01X23072Y39837D01*
G01X23072Y39837D02*
G01X19221Y43688D01*
G01X19221Y43688D02*
G01X14688Y43688D01*
G01X14688Y43688D02*
G01X14000Y43000D01*
G01X61200Y7900D02*
G01X61225Y7874D01*
G01X61225Y7874D02*
G01X61225Y2250D01*
G01X61225Y2250D02*
G01X60800Y1825D01*
G01X60800Y1825D02*
G01X60800Y1400D01*
G01X26000Y24600D02*
G01X25300Y25300D01*
G01X25300Y25300D02*
G01X25300Y28200D01*
G01X66000Y24000D02*
G01X64965Y22965D01*
G01X64965Y22965D02*
G01X64965Y14374D01*
G01X64965Y14374D02*
G01X66775Y12565D01*
G01X66775Y12565D02*
G01X66775Y7676D01*
G01X66775Y7676D02*
G01X65300Y6201D01*
G01X65300Y6201D02*
G01X65300Y3900D01*
G01X65300Y3900D02*
G01X62800Y1400D01*
G01X62000Y34000D02*
G01X63500Y32500D01*
G01X63500Y32500D02*
G01X63500Y30467D01*
G01X63500Y30467D02*
G01X65500Y28467D01*
G01X65500Y28467D02*
G01X65500Y24500D01*
G01X65500Y24500D02*
G01X66000Y24000D01*
G01X37000Y34000D02*
G01X37970Y33029D01*
G01X37970Y33029D02*
G01X37970Y27409D01*
G01X37970Y27409D02*
G01X37863Y27301D01*
G01X37863Y27301D02*
G01X37863Y2519D01*
G01X37863Y2519D02*
G01X42190Y-1807D01*
G01X42190Y-1807D02*
G01X42190Y-8465D01*
G01X42190Y-8465D02*
G01X45300Y-11574D01*
G01X45300Y-11574D02*
G01X45300Y-12000D01*
G01X61800Y4400D02*
G01X61800Y1400D01*
G01X27000Y9000D02*
G01X27000Y5000D01*
G01X31000Y24600D02*
G01X29100Y22700D01*
G01X29100Y22700D02*
G01X29100Y15518D01*
G01X29100Y15518D02*
G01X28805Y15224D01*
G01X28805Y15224D02*
G01X28075Y15224D01*
G01X28075Y15224D02*
G01X27600Y15700D01*
G01X37000Y28000D02*
G01X34400Y28000D01*
G01X34400Y28000D02*
G01X31000Y24600D01*
G01X26300Y31200D02*
G01X26300Y28200D01*
G01X18000Y43000D02*
G01X17553Y43446D01*
G01X17553Y43446D02*
G01X15806Y43446D01*
G01X15806Y43446D02*
G01X15441Y43081D01*
G01X15441Y43081D02*
G01X15441Y42582D01*
G01X15441Y42582D02*
G01X15000Y42141D01*
G01X15000Y42141D02*
G01X15000Y40000D01*
G54D17*
G01X22768Y1434D03*
G54D16*
G01X22768Y1434D02*
G01X22768Y39857D01*
G01X22768Y39857D02*
G01X19199Y43426D01*
G01X19199Y43426D02*
G01X18426Y43426D01*
G01X18426Y43426D02*
G01X18000Y43000D01*
G54D17*
G01X63500Y19699D03*
G54D16*
G01X63500Y19699D02*
G01X63500Y28181D01*
G01X63500Y28181D02*
G01X63794Y28475D01*
G01X63794Y28475D02*
G01X64524Y28475D01*
G01X64524Y28475D02*
G01X65000Y28000D01*
G01X26000Y-3000D02*
G01X25574Y-3425D01*
G01X25574Y-3425D02*
G01X25574Y-10149D01*
G01X25574Y-10149D02*
G01X26000Y-10574D01*
G01X26000Y-10574D02*
G01X26000Y-11000D01*
G01X26000Y-3000D02*
G01X22323Y676D01*
G01X22323Y676D02*
G01X22323Y18428D01*
G01X22323Y18428D02*
G01X19929Y20821D01*
G01X19929Y20821D02*
G01X17549Y20821D01*
G01X17549Y20821D02*
G01X17000Y21371D01*
G01X17000Y21371D02*
G01X17000Y40000D01*
G01X51000Y-4900D02*
G01X49800Y-6100D01*
G01X49800Y-6100D02*
G01X49800Y-11500D01*
G01X49800Y-11500D02*
G01X49300Y-12000D01*
G54D18*
G01X12800Y31100D02*
G01X12800Y36100D01*
G01X12800Y26100D02*
G01X12800Y31100D01*
G01X12800Y18600D02*
G01X12800Y26100D01*
G01X12800Y13600D02*
G01X12800Y18600D01*
G01X12800Y8600D02*
G01X12800Y13600D01*
G01X12800Y1100D02*
G01X12800Y8600D01*
G01X12800Y-3900D02*
G01X12800Y1100D01*
G01X12800Y-8900D02*
G01X12800Y-3900D01*
G01X58000Y-11000D02*
G01X62000Y-11000D01*
G54D17*
G01X53773Y32934D03*
G54D16*
G01X53773Y32934D02*
G01X53773Y28227D01*
G01X53773Y28227D02*
G01X55000Y27000D01*
G01X31300Y31200D02*
G01X29300Y29200D01*
G01X29300Y29200D02*
G01X29300Y28200D01*
G54D17*
G01X50994Y-3630D03*
G54D16*
G01X50994Y-3630D02*
G01X50862Y-3630D01*
G01X50862Y-3630D02*
G01X46425Y806D01*
G01X46425Y806D02*
G01X46425Y7291D01*
G01X46425Y7291D02*
G01X45208Y8508D01*
G01X45208Y8508D02*
G01X45208Y15208D01*
G01X45208Y15208D02*
G01X45441Y15441D01*
G01X45441Y15441D02*
G01X45441Y16000D01*
G01X45441Y16000D02*
G01X45441Y16987D01*
G01X45441Y16987D02*
G01X43769Y18659D01*
G54D17*
G01X43769Y18659D03*
G01X18332Y22721D03*
G54D16*
G01X18332Y22721D02*
G01X17500Y23553D01*
G01X17500Y23553D02*
G01X17500Y42500D01*
G01X17500Y42500D02*
G01X17000Y43000D01*
G01X47000Y16000D02*
G01X46000Y16000D01*
G01X46000Y16000D02*
G01X45441Y16000D01*
G01X31000Y2000D02*
G01X31637Y1362D01*
G01X31637Y1362D02*
G01X31637Y-4905D01*
G01X31637Y-4905D02*
G01X31574Y-4968D01*
G01X31574Y-4968D02*
G01X31574Y-10425D01*
G01X31574Y-10425D02*
G01X31000Y-11000D01*
G54D17*
G01X51840Y-3622D03*
G54D16*
G01X51840Y-3622D02*
G01X51840Y-10459D01*
G01X51840Y-10459D02*
G01X50300Y-12000D01*
G01X66000Y28000D02*
G01X66000Y29224D01*
G01X66000Y29224D02*
G01X65500Y29724D01*
G01X65500Y29724D02*
G01X65500Y37500D01*
G01X65500Y37500D02*
G01X64000Y39000D01*
G01X30300Y28200D02*
G01X31738Y29638D01*
G01X31738Y29638D02*
G01X31738Y34239D01*
G01X31738Y34239D02*
G01X30425Y35552D01*
G01X30425Y35552D02*
G01X30425Y39425D01*
G01X30425Y39425D02*
G01X31000Y40000D01*
G01X66000Y28000D02*
G01X66000Y24850D01*
G01X66000Y24850D02*
G01X66525Y24325D01*
G01X66525Y24325D02*
G01X66525Y21500D01*
G01X66525Y21500D02*
G01X65900Y20875D01*
G01X65900Y20875D02*
G01X65900Y15500D01*
G01X65900Y15500D02*
G01X65400Y15500D01*
G01X63000Y-4000D02*
G01X65800Y-1200D01*
G01X65800Y-1200D02*
G01X65800Y1400D01*
G01X30600Y15700D02*
G01X30500Y15600D01*
G01X30500Y15600D02*
G01X30500Y2500D01*
G01X30500Y2500D02*
G01X31000Y2000D01*
G01X50000Y2000D02*
G01X51840Y159D01*
G01X51840Y159D02*
G01X51840Y-3622D01*
G01X65800Y1400D02*
G01X67274Y2874D01*
G01X67274Y2874D02*
G01X67274Y13625D01*
G01X67274Y13625D02*
G01X65900Y15000D01*
G01X65900Y15000D02*
G01X65900Y15500D01*
G01X51000Y-3000D02*
G01X48557Y-557D01*
G01X48557Y-557D02*
G01X48557Y2557D01*
G01X48557Y2557D02*
G01X51000Y5000D01*
G01X62000Y-5000D02*
G01X62409Y-4590D01*
G01X62409Y-4590D02*
G01X62409Y-1273D01*
G01X62409Y-1273D02*
G01X62300Y-1164D01*
G01X62300Y-1164D02*
G01X62300Y11384D01*
G01X62300Y11384D02*
G01X61973Y11711D01*
G01X61973Y11711D02*
G01X61973Y14321D01*
G54D17*
G01X61973Y14321D03*
G01X51821Y14321D03*
G54D16*
G01X51821Y14321D02*
G01X51821Y17178D01*
G01X51821Y17178D02*
G01X50000Y19000D01*
G01X46000Y40000D02*
G01X47546Y38453D01*
G01X47546Y38453D02*
G01X47546Y20453D01*
G01X47546Y20453D02*
G01X49000Y19000D01*
G01X55000Y1000D02*
G01X53088Y2911D01*
G01X53088Y2911D02*
G01X53088Y3686D01*
G54D17*
G01X53088Y3686D03*
G54D16*
G01X46000Y12000D02*
G01X45462Y11462D01*
G01X45462Y11462D02*
G01X45462Y8752D01*
G01X45462Y8752D02*
G01X47675Y6539D01*
G01X47675Y6539D02*
G01X47500Y6364D01*
G01X47500Y6364D02*
G01X47500Y2500D01*
G01X47500Y2500D02*
G01X47000Y2000D01*
G01X51000Y9000D02*
G01X48539Y6539D01*
G01X48539Y6539D02*
G01X47675Y6539D01*

G04 Draw Text*
M00*
M02*
