G04 FreePCB version 1.343*
G04 Z:\trinary\code\bb\CAM-swrom-fixed\top_silk.grb*
G04 top silk layer *
G04 Scale: 100 percent, Rotated: No, Reflected: No *
%FSLAX24Y24*%
%MOIN*%
%LNTop*%
%ADD10C,0.005000*%
%ADD11C,0.007000*%
%ADD12C,0.010000*%
%ADD13C,0.007500*%
%ADD14C,0.050000*%
%ADD15C,0.020000*%
G90*
G70D02*

G04 Step and Repeat for panelization *

G04 ----------------------- Draw board outline (positive)*
%LPD*%
G54D10*
G01X10000Y44000D02*
G01X68000Y44000D01*
G04 end of side 1*
G01X68000Y-14000D01*
G04 end of side 2*
G01X10000Y-14000D01*
G04 end of side 3*
G01X10000Y44000D01*

G04 -------------- Draw Parts, Pads, Traces, Vias and Text (positive)*
%LPD*%
G04 Draw part X_IC_0_CD4007*
G04 draw part outline for part X_IC_0_CD4007*
G54D11*
G01X25500Y-10500D02*
G01X32500Y-10500D01*
G01X32500Y-10500D02*
G01X32500Y-8500D01*
G01X32500Y-8500D02*
G01X25500Y-8500D01*
G01X25500Y-8500D02*
G01X25500Y-10500D01*
G01X25500Y-10000D02*
G01X26000Y-10000D01*
G01X26000Y-10000D02*
G01X26000Y-9000D01*
G01X26000Y-9000D02*
G01X25500Y-9000D01*
G01X25500Y-9000D02*
G01X25500Y-10000D01*
G04 draw reference designator for part X_IC_0_CD4007*
G01X24522Y-9500D02*
G01X25000Y-9181D01*
G01X24522Y-9181D02*
G01X25000Y-9500D01*
G01X25000Y-8590D02*
G01X25000Y-9000D01*
G01X24522Y-8409D02*
G01X25000Y-8409D01*
G01X24590Y-7909D02*
G01X24636Y-7886D01*
G01X24545Y-7954D02*
G01X24590Y-7909D01*
G01X24522Y-8000D02*
G01X24545Y-7954D01*
G01X24522Y-8090D02*
G01X24522Y-8000D01*
G01X24522Y-8090D02*
G01X24545Y-8136D01*
G01X24545Y-8136D02*
G01X24590Y-8181D01*
G01X24590Y-8181D02*
G01X24636Y-8204D01*
G01X24636Y-8204D02*
G01X24704Y-8227D01*
G01X24704Y-8227D02*
G01X24818Y-8227D01*
G01X24818Y-8227D02*
G01X24886Y-8204D01*
G01X24886Y-8204D02*
G01X24931Y-8181D01*
G01X24931Y-8181D02*
G01X24977Y-8136D01*
G01X24977Y-8136D02*
G01X25000Y-8090D01*
G01X25000Y-8000D02*
G01X25000Y-8090D01*
G01X24977Y-7954D02*
G01X25000Y-8000D01*
G01X24931Y-7909D02*
G01X24977Y-7954D01*
G01X24886Y-7886D02*
G01X24931Y-7909D01*
G01X25000Y-7295D02*
G01X25000Y-7704D01*
G01X24522Y-6977D02*
G01X24545Y-7045D01*
G01X24545Y-7045D02*
G01X24613Y-7090D01*
G01X24613Y-7090D02*
G01X24727Y-7113D01*
G01X24727Y-7113D02*
G01X24795Y-7113D01*
G01X24795Y-7113D02*
G01X24909Y-7090D01*
G01X24909Y-7090D02*
G01X24977Y-7045D01*
G01X24977Y-7045D02*
G01X25000Y-6977D01*
G01X25000Y-6931D02*
G01X25000Y-6977D01*
G01X24977Y-6863D02*
G01X25000Y-6931D01*
G01X24909Y-6818D02*
G01X24977Y-6863D01*
G01X24795Y-6795D02*
G01X24909Y-6818D01*
G01X24727Y-6795D02*
G01X24795Y-6795D01*
G01X24613Y-6818D02*
G01X24727Y-6795D01*
G01X24545Y-6863D02*
G01X24613Y-6818D01*
G01X24522Y-6931D02*
G01X24545Y-6863D01*
G01X24522Y-6977D02*
G01X24522Y-6931D01*
G01X25000Y-6204D02*
G01X25000Y-6613D01*
G01X24590Y-5704D02*
G01X24636Y-5681D01*
G01X24545Y-5750D02*
G01X24590Y-5704D01*
G01X24522Y-5795D02*
G01X24545Y-5750D01*
G01X24522Y-5886D02*
G01X24522Y-5795D01*
G01X24522Y-5886D02*
G01X24545Y-5931D01*
G01X24545Y-5931D02*
G01X24590Y-5977D01*
G01X24590Y-5977D02*
G01X24636Y-6000D01*
G01X24636Y-6000D02*
G01X24704Y-6022D01*
G01X24704Y-6022D02*
G01X24818Y-6022D01*
G01X24818Y-6022D02*
G01X24886Y-6000D01*
G01X24886Y-6000D02*
G01X24931Y-5977D01*
G01X24931Y-5977D02*
G01X24977Y-5931D01*
G01X24977Y-5931D02*
G01X25000Y-5886D01*
G01X25000Y-5795D02*
G01X25000Y-5886D01*
G01X24977Y-5750D02*
G01X25000Y-5795D01*
G01X24931Y-5704D02*
G01X24977Y-5750D01*
G01X24886Y-5681D02*
G01X24931Y-5704D01*
G01X24522Y-5500D02*
G01X25000Y-5500D01*
G01X24522Y-5340D02*
G01X24522Y-5500D01*
G01X24522Y-5340D02*
G01X24545Y-5272D01*
G01X24545Y-5272D02*
G01X24590Y-5227D01*
G01X24590Y-5227D02*
G01X24636Y-5204D01*
G01X24636Y-5204D02*
G01X24704Y-5181D01*
G01X24704Y-5181D02*
G01X24818Y-5181D01*
G01X24818Y-5181D02*
G01X24886Y-5204D01*
G01X24886Y-5204D02*
G01X24931Y-5227D01*
G01X24931Y-5227D02*
G01X24977Y-5272D01*
G01X24977Y-5272D02*
G01X25000Y-5340D01*
G01X25000Y-5500D02*
G01X25000Y-5340D01*
G01X24522Y-4772D02*
G01X24840Y-5000D01*
G01X24840Y-4659D02*
G01X24840Y-5000D01*
G01X24522Y-4772D02*
G01X25000Y-4772D01*
G01X24522Y-4340D02*
G01X24545Y-4409D01*
G01X24545Y-4409D02*
G01X24613Y-4454D01*
G01X24613Y-4454D02*
G01X24727Y-4477D01*
G01X24727Y-4477D02*
G01X24795Y-4477D01*
G01X24795Y-4477D02*
G01X24909Y-4454D01*
G01X24909Y-4454D02*
G01X24977Y-4409D01*
G01X24977Y-4409D02*
G01X25000Y-4340D01*
G01X25000Y-4295D02*
G01X25000Y-4340D01*
G01X24977Y-4227D02*
G01X25000Y-4295D01*
G01X24909Y-4181D02*
G01X24977Y-4227D01*
G01X24795Y-4159D02*
G01X24909Y-4181D01*
G01X24727Y-4159D02*
G01X24795Y-4159D01*
G01X24613Y-4181D02*
G01X24727Y-4159D01*
G01X24545Y-4227D02*
G01X24613Y-4181D01*
G01X24522Y-4295D02*
G01X24545Y-4227D01*
G01X24522Y-4340D02*
G01X24522Y-4295D01*
G01X24522Y-3840D02*
G01X24545Y-3909D01*
G01X24545Y-3909D02*
G01X24613Y-3954D01*
G01X24613Y-3954D02*
G01X24727Y-3977D01*
G01X24727Y-3977D02*
G01X24795Y-3977D01*
G01X24795Y-3977D02*
G01X24909Y-3954D01*
G01X24909Y-3954D02*
G01X24977Y-3909D01*
G01X24977Y-3909D02*
G01X25000Y-3840D01*
G01X25000Y-3795D02*
G01X25000Y-3840D01*
G01X24977Y-3727D02*
G01X25000Y-3795D01*
G01X24909Y-3681D02*
G01X24977Y-3727D01*
G01X24795Y-3659D02*
G01X24909Y-3681D01*
G01X24727Y-3659D02*
G01X24795Y-3659D01*
G01X24613Y-3681D02*
G01X24727Y-3659D01*
G01X24545Y-3727D02*
G01X24613Y-3681D01*
G01X24522Y-3795D02*
G01X24545Y-3727D01*
G01X24522Y-3840D02*
G01X24522Y-3795D01*
G01X24522Y-3159D02*
G01X25000Y-3386D01*
G01X24522Y-3159D02*
G01X24522Y-3477D01*
G04 Draw part X_IC_1_CD4007*
G04 draw part outline for part X_IC_1_CD4007*
G01X44800Y-11500D02*
G01X51800Y-11500D01*
G01X51800Y-11500D02*
G01X51800Y-9500D01*
G01X51800Y-9500D02*
G01X44800Y-9500D01*
G01X44800Y-9500D02*
G01X44800Y-11500D01*
G01X44800Y-11000D02*
G01X45300Y-11000D01*
G01X45300Y-11000D02*
G01X45300Y-10000D01*
G01X45300Y-10000D02*
G01X44800Y-10000D01*
G01X44800Y-10000D02*
G01X44800Y-11000D01*
G04 draw reference designator for part X_IC_1_CD4007*
G01X43822Y-10500D02*
G01X44300Y-10181D01*
G01X43822Y-10181D02*
G01X44300Y-10500D01*
G01X44300Y-9590D02*
G01X44300Y-10000D01*
G01X43822Y-9409D02*
G01X44300Y-9409D01*
G01X43890Y-8909D02*
G01X43936Y-8886D01*
G01X43845Y-8954D02*
G01X43890Y-8909D01*
G01X43822Y-9000D02*
G01X43845Y-8954D01*
G01X43822Y-9090D02*
G01X43822Y-9000D01*
G01X43822Y-9090D02*
G01X43845Y-9136D01*
G01X43845Y-9136D02*
G01X43890Y-9181D01*
G01X43890Y-9181D02*
G01X43936Y-9204D01*
G01X43936Y-9204D02*
G01X44004Y-9227D01*
G01X44004Y-9227D02*
G01X44118Y-9227D01*
G01X44118Y-9227D02*
G01X44186Y-9204D01*
G01X44186Y-9204D02*
G01X44231Y-9181D01*
G01X44231Y-9181D02*
G01X44277Y-9136D01*
G01X44277Y-9136D02*
G01X44300Y-9090D01*
G01X44300Y-9000D02*
G01X44300Y-9090D01*
G01X44277Y-8954D02*
G01X44300Y-9000D01*
G01X44231Y-8909D02*
G01X44277Y-8954D01*
G01X44186Y-8886D02*
G01X44231Y-8909D01*
G01X44300Y-8295D02*
G01X44300Y-8704D01*
G01X43890Y-8068D02*
G01X43913Y-8113D01*
G01X43822Y-8000D02*
G01X43890Y-8068D01*
G01X43822Y-8000D02*
G01X44300Y-8000D01*
G01X44300Y-7409D02*
G01X44300Y-7818D01*
G01X43890Y-6909D02*
G01X43936Y-6886D01*
G01X43845Y-6954D02*
G01X43890Y-6909D01*
G01X43822Y-7000D02*
G01X43845Y-6954D01*
G01X43822Y-7090D02*
G01X43822Y-7000D01*
G01X43822Y-7090D02*
G01X43845Y-7136D01*
G01X43845Y-7136D02*
G01X43890Y-7181D01*
G01X43890Y-7181D02*
G01X43936Y-7204D01*
G01X43936Y-7204D02*
G01X44004Y-7227D01*
G01X44004Y-7227D02*
G01X44118Y-7227D01*
G01X44118Y-7227D02*
G01X44186Y-7204D01*
G01X44186Y-7204D02*
G01X44231Y-7181D01*
G01X44231Y-7181D02*
G01X44277Y-7136D01*
G01X44277Y-7136D02*
G01X44300Y-7090D01*
G01X44300Y-7000D02*
G01X44300Y-7090D01*
G01X44277Y-6954D02*
G01X44300Y-7000D01*
G01X44231Y-6909D02*
G01X44277Y-6954D01*
G01X44186Y-6886D02*
G01X44231Y-6909D01*
G01X43822Y-6704D02*
G01X44300Y-6704D01*
G01X43822Y-6545D02*
G01X43822Y-6704D01*
G01X43822Y-6545D02*
G01X43845Y-6477D01*
G01X43845Y-6477D02*
G01X43890Y-6431D01*
G01X43890Y-6431D02*
G01X43936Y-6409D01*
G01X43936Y-6409D02*
G01X44004Y-6386D01*
G01X44004Y-6386D02*
G01X44118Y-6386D01*
G01X44118Y-6386D02*
G01X44186Y-6409D01*
G01X44186Y-6409D02*
G01X44231Y-6431D01*
G01X44231Y-6431D02*
G01X44277Y-6477D01*
G01X44277Y-6477D02*
G01X44300Y-6545D01*
G01X44300Y-6704D02*
G01X44300Y-6545D01*
G01X43822Y-5977D02*
G01X44140Y-6204D01*
G01X44140Y-5863D02*
G01X44140Y-6204D01*
G01X43822Y-5977D02*
G01X44300Y-5977D01*
G01X43822Y-5545D02*
G01X43845Y-5613D01*
G01X43845Y-5613D02*
G01X43913Y-5659D01*
G01X43913Y-5659D02*
G01X44027Y-5681D01*
G01X44027Y-5681D02*
G01X44095Y-5681D01*
G01X44095Y-5681D02*
G01X44209Y-5659D01*
G01X44209Y-5659D02*
G01X44277Y-5613D01*
G01X44277Y-5613D02*
G01X44300Y-5545D01*
G01X44300Y-5500D02*
G01X44300Y-5545D01*
G01X44277Y-5431D02*
G01X44300Y-5500D01*
G01X44209Y-5386D02*
G01X44277Y-5431D01*
G01X44095Y-5363D02*
G01X44209Y-5386D01*
G01X44027Y-5363D02*
G01X44095Y-5363D01*
G01X43913Y-5386D02*
G01X44027Y-5363D01*
G01X43845Y-5431D02*
G01X43913Y-5386D01*
G01X43822Y-5500D02*
G01X43845Y-5431D01*
G01X43822Y-5545D02*
G01X43822Y-5500D01*
G01X43822Y-5045D02*
G01X43845Y-5113D01*
G01X43845Y-5113D02*
G01X43913Y-5159D01*
G01X43913Y-5159D02*
G01X44027Y-5181D01*
G01X44027Y-5181D02*
G01X44095Y-5181D01*
G01X44095Y-5181D02*
G01X44209Y-5159D01*
G01X44209Y-5159D02*
G01X44277Y-5113D01*
G01X44277Y-5113D02*
G01X44300Y-5045D01*
G01X44300Y-5000D02*
G01X44300Y-5045D01*
G01X44277Y-4931D02*
G01X44300Y-5000D01*
G01X44209Y-4886D02*
G01X44277Y-4931D01*
G01X44095Y-4863D02*
G01X44209Y-4886D01*
G01X44027Y-4863D02*
G01X44095Y-4863D01*
G01X43913Y-4886D02*
G01X44027Y-4863D01*
G01X43845Y-4931D02*
G01X43913Y-4886D01*
G01X43822Y-5000D02*
G01X43845Y-4931D01*
G01X43822Y-5045D02*
G01X43822Y-5000D01*
G01X43822Y-4363D02*
G01X44300Y-4590D01*
G01X43822Y-4363D02*
G01X43822Y-4681D01*
G04 Draw part X_IC_2_CD4007*
G04 draw part outline for part X_IC_2_CD4007*
G01X44500Y2500D02*
G01X51500Y2500D01*
G01X51500Y2500D02*
G01X51500Y4500D01*
G01X51500Y4500D02*
G01X44500Y4500D01*
G01X44500Y4500D02*
G01X44500Y2500D01*
G01X44500Y3000D02*
G01X45000Y3000D01*
G01X45000Y3000D02*
G01X45000Y4000D01*
G01X45000Y4000D02*
G01X44500Y4000D01*
G01X44500Y4000D02*
G01X44500Y3000D01*
G04 draw reference designator for part X_IC_2_CD4007*
G01X43522Y3500D02*
G01X44000Y3818D01*
G01X43522Y3818D02*
G01X44000Y3500D01*
G01X44000Y4409D02*
G01X44000Y4000D01*
G01X43522Y4590D02*
G01X44000Y4590D01*
G01X43590Y5090D02*
G01X43636Y5113D01*
G01X43545Y5045D02*
G01X43590Y5090D01*
G01X43522Y5000D02*
G01X43545Y5045D01*
G01X43522Y4909D02*
G01X43522Y5000D01*
G01X43522Y4909D02*
G01X43545Y4863D01*
G01X43545Y4863D02*
G01X43590Y4818D01*
G01X43590Y4818D02*
G01X43636Y4795D01*
G01X43636Y4795D02*
G01X43704Y4772D01*
G01X43704Y4772D02*
G01X43818Y4772D01*
G01X43818Y4772D02*
G01X43886Y4795D01*
G01X43886Y4795D02*
G01X43931Y4818D01*
G01X43931Y4818D02*
G01X43977Y4863D01*
G01X43977Y4863D02*
G01X44000Y4909D01*
G01X44000Y5000D02*
G01X44000Y4909D01*
G01X43977Y5045D02*
G01X44000Y5000D01*
G01X43931Y5090D02*
G01X43977Y5045D01*
G01X43886Y5113D02*
G01X43931Y5090D01*
G01X44000Y5704D02*
G01X44000Y5295D01*
G01X43613Y5909D02*
G01X43636Y5909D01*
G01X43568Y5931D02*
G01X43613Y5909D01*
G01X43545Y5954D02*
G01X43568Y5931D01*
G01X43522Y5999D02*
G01X43545Y5954D01*
G01X43522Y6090D02*
G01X43522Y5999D01*
G01X43522Y6090D02*
G01X43545Y6136D01*
G01X43545Y6136D02*
G01X43568Y6159D01*
G01X43568Y6159D02*
G01X43613Y6181D01*
G01X43613Y6181D02*
G01X43659Y6181D01*
G01X43659Y6181D02*
G01X43704Y6159D01*
G01X43704Y6159D02*
G01X43772Y6113D01*
G01X43772Y6113D02*
G01X44000Y5886D01*
G01X44000Y6204D02*
G01X44000Y5886D01*
G01X44000Y6795D02*
G01X44000Y6386D01*
G01X43590Y7295D02*
G01X43636Y7318D01*
G01X43545Y7250D02*
G01X43590Y7295D01*
G01X43522Y7204D02*
G01X43545Y7250D01*
G01X43522Y7113D02*
G01X43522Y7204D01*
G01X43522Y7113D02*
G01X43545Y7068D01*
G01X43545Y7068D02*
G01X43590Y7022D01*
G01X43590Y7022D02*
G01X43636Y7000D01*
G01X43636Y7000D02*
G01X43704Y6977D01*
G01X43704Y6977D02*
G01X43818Y6977D01*
G01X43818Y6977D02*
G01X43886Y7000D01*
G01X43886Y7000D02*
G01X43931Y7022D01*
G01X43931Y7022D02*
G01X43977Y7068D01*
G01X43977Y7068D02*
G01X44000Y7113D01*
G01X44000Y7204D02*
G01X44000Y7113D01*
G01X43977Y7250D02*
G01X44000Y7204D01*
G01X43931Y7295D02*
G01X43977Y7250D01*
G01X43886Y7318D02*
G01X43931Y7295D01*
G01X43522Y7500D02*
G01X44000Y7500D01*
G01X43522Y7659D02*
G01X43522Y7500D01*
G01X43522Y7659D02*
G01X43545Y7727D01*
G01X43545Y7727D02*
G01X43590Y7772D01*
G01X43590Y7772D02*
G01X43636Y7795D01*
G01X43636Y7795D02*
G01X43704Y7818D01*
G01X43704Y7818D02*
G01X43818Y7818D01*
G01X43818Y7818D02*
G01X43886Y7795D01*
G01X43886Y7795D02*
G01X43931Y7772D01*
G01X43931Y7772D02*
G01X43977Y7727D01*
G01X43977Y7727D02*
G01X44000Y7659D01*
G01X44000Y7500D02*
G01X44000Y7659D01*
G01X43522Y8227D02*
G01X43840Y8000D01*
G01X43840Y8340D02*
G01X43840Y8000D01*
G01X43522Y8227D02*
G01X44000Y8227D01*
G01X43522Y8659D02*
G01X43545Y8590D01*
G01X43545Y8590D02*
G01X43613Y8545D01*
G01X43613Y8545D02*
G01X43727Y8522D01*
G01X43727Y8522D02*
G01X43795Y8522D01*
G01X43795Y8522D02*
G01X43909Y8545D01*
G01X43909Y8545D02*
G01X43977Y8590D01*
G01X43977Y8590D02*
G01X44000Y8659D01*
G01X44000Y8704D02*
G01X44000Y8659D01*
G01X43977Y8772D02*
G01X44000Y8704D01*
G01X43909Y8818D02*
G01X43977Y8772D01*
G01X43795Y8840D02*
G01X43909Y8818D01*
G01X43727Y8840D02*
G01X43795Y8840D01*
G01X43613Y8818D02*
G01X43727Y8840D01*
G01X43545Y8772D02*
G01X43613Y8818D01*
G01X43522Y8704D02*
G01X43545Y8772D01*
G01X43522Y8659D02*
G01X43522Y8704D01*
G01X43522Y9159D02*
G01X43545Y9090D01*
G01X43545Y9090D02*
G01X43613Y9045D01*
G01X43613Y9045D02*
G01X43727Y9022D01*
G01X43727Y9022D02*
G01X43795Y9022D01*
G01X43795Y9022D02*
G01X43909Y9045D01*
G01X43909Y9045D02*
G01X43977Y9090D01*
G01X43977Y9090D02*
G01X44000Y9159D01*
G01X44000Y9204D02*
G01X44000Y9159D01*
G01X43977Y9272D02*
G01X44000Y9204D01*
G01X43909Y9318D02*
G01X43977Y9272D01*
G01X43795Y9340D02*
G01X43909Y9318D01*
G01X43727Y9340D02*
G01X43795Y9340D01*
G01X43613Y9318D02*
G01X43727Y9340D01*
G01X43545Y9272D02*
G01X43613Y9318D01*
G01X43522Y9204D02*
G01X43545Y9272D01*
G01X43522Y9159D02*
G01X43522Y9204D01*
G01X43522Y9840D02*
G01X44000Y9613D01*
G01X43522Y9840D02*
G01X43522Y9522D01*
G04 Draw part X_IC_3_CD4007*
G04 draw part outline for part X_IC_3_CD4007*
G01X58500Y39500D02*
G01X65500Y39500D01*
G01X65500Y39500D02*
G01X65500Y41500D01*
G01X65500Y41500D02*
G01X58500Y41500D01*
G01X58500Y41500D02*
G01X58500Y39500D01*
G01X58500Y40000D02*
G01X59000Y40000D01*
G01X59000Y40000D02*
G01X59000Y41000D01*
G01X59000Y41000D02*
G01X58500Y41000D01*
G01X58500Y41000D02*
G01X58500Y40000D01*
G04 draw reference designator for part X_IC_3_CD4007*
G01X57522Y35500D02*
G01X58000Y35818D01*
G01X57522Y35818D02*
G01X58000Y35500D01*
G01X58000Y36409D02*
G01X58000Y36000D01*
G01X57522Y36590D02*
G01X58000Y36590D01*
G01X57590Y37090D02*
G01X57636Y37113D01*
G01X57545Y37045D02*
G01X57590Y37090D01*
G01X57522Y37000D02*
G01X57545Y37045D01*
G01X57522Y36909D02*
G01X57522Y37000D01*
G01X57522Y36909D02*
G01X57545Y36863D01*
G01X57545Y36863D02*
G01X57590Y36818D01*
G01X57590Y36818D02*
G01X57636Y36795D01*
G01X57636Y36795D02*
G01X57704Y36772D01*
G01X57704Y36772D02*
G01X57818Y36772D01*
G01X57818Y36772D02*
G01X57886Y36795D01*
G01X57886Y36795D02*
G01X57931Y36818D01*
G01X57931Y36818D02*
G01X57977Y36863D01*
G01X57977Y36863D02*
G01X58000Y36909D01*
G01X58000Y37000D02*
G01X58000Y36909D01*
G01X57977Y37045D02*
G01X58000Y37000D01*
G01X57931Y37090D02*
G01X57977Y37045D01*
G01X57886Y37113D02*
G01X57931Y37090D01*
G01X58000Y37704D02*
G01X58000Y37295D01*
G01X57522Y38181D02*
G01X57522Y37931D01*
G01X57522Y38181D02*
G01X57704Y38045D01*
G01X57704Y38113D02*
G01X57704Y38045D01*
G01X57704Y38113D02*
G01X57727Y38159D01*
G01X57727Y38159D02*
G01X57750Y38181D01*
G01X57750Y38181D02*
G01X57818Y38204D01*
G01X57818Y38204D02*
G01X57863Y38204D01*
G01X57863Y38204D02*
G01X57931Y38181D01*
G01X57931Y38181D02*
G01X57977Y38136D01*
G01X57977Y38136D02*
G01X58000Y38068D01*
G01X58000Y37999D02*
G01X58000Y38068D01*
G01X57977Y37931D02*
G01X58000Y37999D01*
G01X57954Y37909D02*
G01X57977Y37931D01*
G01X57909Y37886D02*
G01X57954Y37909D01*
G01X58000Y38795D02*
G01X58000Y38386D01*
G01X57590Y39295D02*
G01X57636Y39318D01*
G01X57545Y39250D02*
G01X57590Y39295D01*
G01X57522Y39204D02*
G01X57545Y39250D01*
G01X57522Y39113D02*
G01X57522Y39204D01*
G01X57522Y39113D02*
G01X57545Y39068D01*
G01X57545Y39068D02*
G01X57590Y39022D01*
G01X57590Y39022D02*
G01X57636Y39000D01*
G01X57636Y39000D02*
G01X57704Y38977D01*
G01X57704Y38977D02*
G01X57818Y38977D01*
G01X57818Y38977D02*
G01X57886Y39000D01*
G01X57886Y39000D02*
G01X57931Y39022D01*
G01X57931Y39022D02*
G01X57977Y39068D01*
G01X57977Y39068D02*
G01X58000Y39113D01*
G01X58000Y39204D02*
G01X58000Y39113D01*
G01X57977Y39250D02*
G01X58000Y39204D01*
G01X57931Y39295D02*
G01X57977Y39250D01*
G01X57886Y39318D02*
G01X57931Y39295D01*
G01X57522Y39500D02*
G01X58000Y39500D01*
G01X57522Y39659D02*
G01X57522Y39500D01*
G01X57522Y39659D02*
G01X57545Y39727D01*
G01X57545Y39727D02*
G01X57590Y39772D01*
G01X57590Y39772D02*
G01X57636Y39795D01*
G01X57636Y39795D02*
G01X57704Y39818D01*
G01X57704Y39818D02*
G01X57818Y39818D01*
G01X57818Y39818D02*
G01X57886Y39795D01*
G01X57886Y39795D02*
G01X57931Y39772D01*
G01X57931Y39772D02*
G01X57977Y39727D01*
G01X57977Y39727D02*
G01X58000Y39659D01*
G01X58000Y39500D02*
G01X58000Y39659D01*
G01X57522Y40227D02*
G01X57840Y40000D01*
G01X57840Y40340D02*
G01X57840Y40000D01*
G01X57522Y40227D02*
G01X58000Y40227D01*
G01X57522Y40659D02*
G01X57545Y40590D01*
G01X57545Y40590D02*
G01X57613Y40545D01*
G01X57613Y40545D02*
G01X57727Y40522D01*
G01X57727Y40522D02*
G01X57795Y40522D01*
G01X57795Y40522D02*
G01X57909Y40545D01*
G01X57909Y40545D02*
G01X57977Y40590D01*
G01X57977Y40590D02*
G01X58000Y40659D01*
G01X58000Y40704D02*
G01X58000Y40659D01*
G01X57977Y40772D02*
G01X58000Y40704D01*
G01X57909Y40818D02*
G01X57977Y40772D01*
G01X57795Y40840D02*
G01X57909Y40818D01*
G01X57727Y40840D02*
G01X57795Y40840D01*
G01X57613Y40818D02*
G01X57727Y40840D01*
G01X57545Y40772D02*
G01X57613Y40818D01*
G01X57522Y40704D02*
G01X57545Y40772D01*
G01X57522Y40659D02*
G01X57522Y40704D01*
G01X57522Y41159D02*
G01X57545Y41090D01*
G01X57545Y41090D02*
G01X57613Y41045D01*
G01X57613Y41045D02*
G01X57727Y41022D01*
G01X57727Y41022D02*
G01X57795Y41022D01*
G01X57795Y41022D02*
G01X57909Y41045D01*
G01X57909Y41045D02*
G01X57977Y41090D01*
G01X57977Y41090D02*
G01X58000Y41159D01*
G01X58000Y41204D02*
G01X58000Y41159D01*
G01X57977Y41272D02*
G01X58000Y41204D01*
G01X57909Y41318D02*
G01X57977Y41272D01*
G01X57795Y41340D02*
G01X57909Y41318D01*
G01X57727Y41340D02*
G01X57795Y41340D01*
G01X57613Y41318D02*
G01X57727Y41340D01*
G01X57545Y41272D02*
G01X57613Y41318D01*
G01X57522Y41204D02*
G01X57545Y41272D01*
G01X57522Y41159D02*
G01X57522Y41204D01*
G01X57522Y41840D02*
G01X58000Y41613D01*
G01X57522Y41840D02*
G01X57522Y41522D01*
G04 Draw part X_IC_4_CD4007*
G04 draw part outline for part X_IC_4_CD4007*
G01X44600Y28300D02*
G01X51600Y28300D01*
G01X51600Y28300D02*
G01X51600Y30300D01*
G01X51600Y30300D02*
G01X44600Y30300D01*
G01X44600Y30300D02*
G01X44600Y28300D01*
G01X44600Y28800D02*
G01X45100Y28800D01*
G01X45100Y28800D02*
G01X45100Y29800D01*
G01X45100Y29800D02*
G01X44600Y29800D01*
G01X44600Y29800D02*
G01X44600Y28800D01*
G04 draw reference designator for part X_IC_4_CD4007*
G01X43622Y26300D02*
G01X44100Y26618D01*
G01X43622Y26618D02*
G01X44100Y26300D01*
G01X44100Y27209D02*
G01X44100Y26800D01*
G01X43622Y27390D02*
G01X44100Y27390D01*
G01X43690Y27890D02*
G01X43736Y27913D01*
G01X43645Y27845D02*
G01X43690Y27890D01*
G01X43622Y27800D02*
G01X43645Y27845D01*
G01X43622Y27709D02*
G01X43622Y27800D01*
G01X43622Y27709D02*
G01X43645Y27663D01*
G01X43645Y27663D02*
G01X43690Y27618D01*
G01X43690Y27618D02*
G01X43736Y27595D01*
G01X43736Y27595D02*
G01X43804Y27572D01*
G01X43804Y27572D02*
G01X43918Y27572D01*
G01X43918Y27572D02*
G01X43986Y27595D01*
G01X43986Y27595D02*
G01X44031Y27618D01*
G01X44031Y27618D02*
G01X44077Y27663D01*
G01X44077Y27663D02*
G01X44100Y27709D01*
G01X44100Y27800D02*
G01X44100Y27709D01*
G01X44077Y27845D02*
G01X44100Y27800D01*
G01X44031Y27890D02*
G01X44077Y27845D01*
G01X43986Y27913D02*
G01X44031Y27890D01*
G01X44100Y28504D02*
G01X44100Y28095D01*
G01X43622Y28913D02*
G01X43940Y28686D01*
G01X43940Y29027D02*
G01X43940Y28686D01*
G01X43622Y28913D02*
G01X44100Y28913D01*
G01X44100Y29618D02*
G01X44100Y29209D01*
G01X43690Y30118D02*
G01X43736Y30140D01*
G01X43645Y30072D02*
G01X43690Y30118D01*
G01X43622Y30027D02*
G01X43645Y30072D01*
G01X43622Y29936D02*
G01X43622Y30027D01*
G01X43622Y29936D02*
G01X43645Y29890D01*
G01X43645Y29890D02*
G01X43690Y29845D01*
G01X43690Y29845D02*
G01X43736Y29822D01*
G01X43736Y29822D02*
G01X43804Y29800D01*
G01X43804Y29800D02*
G01X43918Y29800D01*
G01X43918Y29800D02*
G01X43986Y29822D01*
G01X43986Y29822D02*
G01X44031Y29845D01*
G01X44031Y29845D02*
G01X44077Y29890D01*
G01X44077Y29890D02*
G01X44100Y29936D01*
G01X44100Y30027D02*
G01X44100Y29936D01*
G01X44077Y30072D02*
G01X44100Y30027D01*
G01X44031Y30118D02*
G01X44077Y30072D01*
G01X43986Y30140D02*
G01X44031Y30118D01*
G01X43622Y30322D02*
G01X44100Y30322D01*
G01X43622Y30481D02*
G01X43622Y30322D01*
G01X43622Y30481D02*
G01X43645Y30550D01*
G01X43645Y30550D02*
G01X43690Y30595D01*
G01X43690Y30595D02*
G01X43736Y30618D01*
G01X43736Y30618D02*
G01X43804Y30640D01*
G01X43804Y30640D02*
G01X43918Y30640D01*
G01X43918Y30640D02*
G01X43986Y30618D01*
G01X43986Y30618D02*
G01X44031Y30595D01*
G01X44031Y30595D02*
G01X44077Y30550D01*
G01X44077Y30550D02*
G01X44100Y30481D01*
G01X44100Y30322D02*
G01X44100Y30481D01*
G01X43622Y31050D02*
G01X43940Y30822D01*
G01X43940Y31163D02*
G01X43940Y30822D01*
G01X43622Y31050D02*
G01X44100Y31050D01*
G01X43622Y31481D02*
G01X43645Y31413D01*
G01X43645Y31413D02*
G01X43713Y31368D01*
G01X43713Y31368D02*
G01X43827Y31345D01*
G01X43827Y31345D02*
G01X43895Y31345D01*
G01X43895Y31345D02*
G01X44009Y31368D01*
G01X44009Y31368D02*
G01X44077Y31413D01*
G01X44077Y31413D02*
G01X44100Y31481D01*
G01X44100Y31527D02*
G01X44100Y31481D01*
G01X44077Y31595D02*
G01X44100Y31527D01*
G01X44009Y31640D02*
G01X44077Y31595D01*
G01X43895Y31663D02*
G01X44009Y31640D01*
G01X43827Y31663D02*
G01X43895Y31663D01*
G01X43713Y31640D02*
G01X43827Y31663D01*
G01X43645Y31595D02*
G01X43713Y31640D01*
G01X43622Y31527D02*
G01X43645Y31595D01*
G01X43622Y31481D02*
G01X43622Y31527D01*
G01X43622Y31981D02*
G01X43645Y31913D01*
G01X43645Y31913D02*
G01X43713Y31868D01*
G01X43713Y31868D02*
G01X43827Y31845D01*
G01X43827Y31845D02*
G01X43895Y31845D01*
G01X43895Y31845D02*
G01X44009Y31868D01*
G01X44009Y31868D02*
G01X44077Y31913D01*
G01X44077Y31913D02*
G01X44100Y31981D01*
G01X44100Y32027D02*
G01X44100Y31981D01*
G01X44077Y32095D02*
G01X44100Y32027D01*
G01X44009Y32140D02*
G01X44077Y32095D01*
G01X43895Y32163D02*
G01X44009Y32140D01*
G01X43827Y32163D02*
G01X43895Y32163D01*
G01X43713Y32140D02*
G01X43827Y32163D01*
G01X43645Y32095D02*
G01X43713Y32140D01*
G01X43622Y32027D02*
G01X43645Y32095D01*
G01X43622Y31981D02*
G01X43622Y32027D01*
G01X43622Y32663D02*
G01X44100Y32436D01*
G01X43622Y32663D02*
G01X43622Y32345D01*
G04 Draw part X_IC_5_CD4007*
G04 draw part outline for part X_IC_5_CD4007*
G01X25500Y40500D02*
G01X32500Y40500D01*
G01X32500Y40500D02*
G01X32500Y42500D01*
G01X32500Y42500D02*
G01X25500Y42500D01*
G01X25500Y42500D02*
G01X25500Y40500D01*
G01X25500Y41000D02*
G01X26000Y41000D01*
G01X26000Y41000D02*
G01X26000Y42000D01*
G01X26000Y42000D02*
G01X25500Y42000D01*
G01X25500Y42000D02*
G01X25500Y41000D01*
G04 draw reference designator for part X_IC_5_CD4007*
G01X23522Y36500D02*
G01X24000Y36818D01*
G01X23522Y36818D02*
G01X24000Y36500D01*
G01X24000Y37409D02*
G01X24000Y37000D01*
G01X23522Y37590D02*
G01X24000Y37590D01*
G01X23590Y38090D02*
G01X23636Y38113D01*
G01X23545Y38045D02*
G01X23590Y38090D01*
G01X23522Y38000D02*
G01X23545Y38045D01*
G01X23522Y37909D02*
G01X23522Y38000D01*
G01X23522Y37909D02*
G01X23545Y37863D01*
G01X23545Y37863D02*
G01X23590Y37818D01*
G01X23590Y37818D02*
G01X23636Y37795D01*
G01X23636Y37795D02*
G01X23704Y37772D01*
G01X23704Y37772D02*
G01X23818Y37772D01*
G01X23818Y37772D02*
G01X23886Y37795D01*
G01X23886Y37795D02*
G01X23931Y37818D01*
G01X23931Y37818D02*
G01X23977Y37863D01*
G01X23977Y37863D02*
G01X24000Y37909D01*
G01X24000Y38000D02*
G01X24000Y37909D01*
G01X23977Y38045D02*
G01X24000Y38000D01*
G01X23931Y38090D02*
G01X23977Y38045D01*
G01X23886Y38113D02*
G01X23931Y38090D01*
G01X24000Y38704D02*
G01X24000Y38295D01*
G01X23522Y38931D02*
G01X23522Y39159D01*
G01X23522Y38931D02*
G01X23727Y38909D01*
G01X23704Y38931D02*
G01X23727Y38909D01*
G01X23681Y38999D02*
G01X23704Y38931D01*
G01X23681Y39068D02*
G01X23681Y38999D01*
G01X23681Y39068D02*
G01X23704Y39136D01*
G01X23704Y39136D02*
G01X23750Y39181D01*
G01X23750Y39181D02*
G01X23818Y39204D01*
G01X23818Y39204D02*
G01X23863Y39204D01*
G01X23863Y39204D02*
G01X23931Y39181D01*
G01X23931Y39181D02*
G01X23977Y39136D01*
G01X23977Y39136D02*
G01X24000Y39068D01*
G01X24000Y38999D02*
G01X24000Y39068D01*
G01X23977Y38931D02*
G01X24000Y38999D01*
G01X23954Y38909D02*
G01X23977Y38931D01*
G01X23909Y38886D02*
G01X23954Y38909D01*
G01X24000Y39795D02*
G01X24000Y39386D01*
G01X23590Y40295D02*
G01X23636Y40318D01*
G01X23545Y40250D02*
G01X23590Y40295D01*
G01X23522Y40204D02*
G01X23545Y40250D01*
G01X23522Y40113D02*
G01X23522Y40204D01*
G01X23522Y40113D02*
G01X23545Y40068D01*
G01X23545Y40068D02*
G01X23590Y40022D01*
G01X23590Y40022D02*
G01X23636Y40000D01*
G01X23636Y40000D02*
G01X23704Y39977D01*
G01X23704Y39977D02*
G01X23818Y39977D01*
G01X23818Y39977D02*
G01X23886Y40000D01*
G01X23886Y40000D02*
G01X23931Y40022D01*
G01X23931Y40022D02*
G01X23977Y40068D01*
G01X23977Y40068D02*
G01X24000Y40113D01*
G01X24000Y40204D02*
G01X24000Y40113D01*
G01X23977Y40250D02*
G01X24000Y40204D01*
G01X23931Y40295D02*
G01X23977Y40250D01*
G01X23886Y40318D02*
G01X23931Y40295D01*
G01X23522Y40500D02*
G01X24000Y40500D01*
G01X23522Y40659D02*
G01X23522Y40500D01*
G01X23522Y40659D02*
G01X23545Y40727D01*
G01X23545Y40727D02*
G01X23590Y40772D01*
G01X23590Y40772D02*
G01X23636Y40795D01*
G01X23636Y40795D02*
G01X23704Y40818D01*
G01X23704Y40818D02*
G01X23818Y40818D01*
G01X23818Y40818D02*
G01X23886Y40795D01*
G01X23886Y40795D02*
G01X23931Y40772D01*
G01X23931Y40772D02*
G01X23977Y40727D01*
G01X23977Y40727D02*
G01X24000Y40659D01*
G01X24000Y40500D02*
G01X24000Y40659D01*
G01X23522Y41227D02*
G01X23840Y41000D01*
G01X23840Y41340D02*
G01X23840Y41000D01*
G01X23522Y41227D02*
G01X24000Y41227D01*
G01X23522Y41659D02*
G01X23545Y41590D01*
G01X23545Y41590D02*
G01X23613Y41545D01*
G01X23613Y41545D02*
G01X23727Y41522D01*
G01X23727Y41522D02*
G01X23795Y41522D01*
G01X23795Y41522D02*
G01X23909Y41545D01*
G01X23909Y41545D02*
G01X23977Y41590D01*
G01X23977Y41590D02*
G01X24000Y41659D01*
G01X24000Y41704D02*
G01X24000Y41659D01*
G01X23977Y41772D02*
G01X24000Y41704D01*
G01X23909Y41818D02*
G01X23977Y41772D01*
G01X23795Y41840D02*
G01X23909Y41818D01*
G01X23727Y41840D02*
G01X23795Y41840D01*
G01X23613Y41818D02*
G01X23727Y41840D01*
G01X23545Y41772D02*
G01X23613Y41818D01*
G01X23522Y41704D02*
G01X23545Y41772D01*
G01X23522Y41659D02*
G01X23522Y41704D01*
G01X23522Y42159D02*
G01X23545Y42090D01*
G01X23545Y42090D02*
G01X23613Y42045D01*
G01X23613Y42045D02*
G01X23727Y42022D01*
G01X23727Y42022D02*
G01X23795Y42022D01*
G01X23795Y42022D02*
G01X23909Y42045D01*
G01X23909Y42045D02*
G01X23977Y42090D01*
G01X23977Y42090D02*
G01X24000Y42159D01*
G01X24000Y42204D02*
G01X24000Y42159D01*
G01X23977Y42272D02*
G01X24000Y42204D01*
G01X23909Y42318D02*
G01X23977Y42272D01*
G01X23795Y42340D02*
G01X23909Y42318D01*
G01X23727Y42340D02*
G01X23795Y42340D01*
G01X23613Y42318D02*
G01X23727Y42340D01*
G01X23545Y42272D02*
G01X23613Y42318D01*
G01X23522Y42204D02*
G01X23545Y42272D01*
G01X23522Y42159D02*
G01X23522Y42204D01*
G01X23522Y42840D02*
G01X24000Y42613D01*
G01X23522Y42840D02*
G01X23522Y42522D01*
G04 Draw part X_IC_6_CD4007*
G04 draw part outline for part X_IC_6_CD4007*
G01X59900Y16000D02*
G01X66900Y16000D01*
G01X66900Y16000D02*
G01X66900Y18000D01*
G01X66900Y18000D02*
G01X59900Y18000D01*
G01X59900Y18000D02*
G01X59900Y16000D01*
G01X59900Y16500D02*
G01X60400Y16500D01*
G01X60400Y16500D02*
G01X60400Y17500D01*
G01X60400Y17500D02*
G01X59900Y17500D01*
G01X59900Y17500D02*
G01X59900Y16500D01*
G04 draw reference designator for part X_IC_6_CD4007*
G01X58922Y17000D02*
G01X59400Y17318D01*
G01X58922Y17318D02*
G01X59400Y17000D01*
G01X59400Y17909D02*
G01X59400Y17500D01*
G01X58922Y18090D02*
G01X59400Y18090D01*
G01X58990Y18590D02*
G01X59036Y18613D01*
G01X58945Y18545D02*
G01X58990Y18590D01*
G01X58922Y18500D02*
G01X58945Y18545D01*
G01X58922Y18409D02*
G01X58922Y18500D01*
G01X58922Y18409D02*
G01X58945Y18363D01*
G01X58945Y18363D02*
G01X58990Y18318D01*
G01X58990Y18318D02*
G01X59036Y18295D01*
G01X59036Y18295D02*
G01X59104Y18272D01*
G01X59104Y18272D02*
G01X59218Y18272D01*
G01X59218Y18272D02*
G01X59286Y18295D01*
G01X59286Y18295D02*
G01X59331Y18318D01*
G01X59331Y18318D02*
G01X59377Y18363D01*
G01X59377Y18363D02*
G01X59400Y18409D01*
G01X59400Y18500D02*
G01X59400Y18409D01*
G01X59377Y18545D02*
G01X59400Y18500D01*
G01X59331Y18590D02*
G01X59377Y18545D01*
G01X59286Y18613D02*
G01X59331Y18590D01*
G01X59400Y19204D02*
G01X59400Y18795D01*
G01X58945Y19636D02*
G01X58990Y19659D01*
G01X58922Y19568D02*
G01X58945Y19636D01*
G01X58922Y19522D02*
G01X58922Y19568D01*
G01X58922Y19522D02*
G01X58945Y19454D01*
G01X58945Y19454D02*
G01X59013Y19409D01*
G01X59013Y19409D02*
G01X59127Y19386D01*
G01X59127Y19386D02*
G01X59240Y19386D01*
G01X59240Y19386D02*
G01X59331Y19409D01*
G01X59331Y19409D02*
G01X59377Y19454D01*
G01X59377Y19454D02*
G01X59400Y19522D01*
G01X59400Y19545D02*
G01X59400Y19522D01*
G01X59377Y19613D02*
G01X59400Y19545D01*
G01X59331Y19659D02*
G01X59377Y19613D01*
G01X59263Y19681D02*
G01X59331Y19659D01*
G01X59240Y19681D02*
G01X59263Y19681D01*
G01X59172Y19659D02*
G01X59240Y19681D01*
G01X59127Y19613D02*
G01X59172Y19659D01*
G01X59104Y19545D02*
G01X59127Y19613D01*
G01X59104Y19522D02*
G01X59104Y19545D01*
G01X59104Y19522D02*
G01X59127Y19454D01*
G01X59127Y19454D02*
G01X59172Y19409D01*
G01X59172Y19409D02*
G01X59240Y19386D01*
G01X59400Y20272D02*
G01X59400Y19863D01*
G01X58990Y20772D02*
G01X59036Y20795D01*
G01X58945Y20727D02*
G01X58990Y20772D01*
G01X58922Y20681D02*
G01X58945Y20727D01*
G01X58922Y20590D02*
G01X58922Y20681D01*
G01X58922Y20590D02*
G01X58945Y20545D01*
G01X58945Y20545D02*
G01X58990Y20499D01*
G01X58990Y20499D02*
G01X59036Y20477D01*
G01X59036Y20477D02*
G01X59104Y20454D01*
G01X59104Y20454D02*
G01X59218Y20454D01*
G01X59218Y20454D02*
G01X59286Y20477D01*
G01X59286Y20477D02*
G01X59331Y20499D01*
G01X59331Y20499D02*
G01X59377Y20545D01*
G01X59377Y20545D02*
G01X59400Y20590D01*
G01X59400Y20681D02*
G01X59400Y20590D01*
G01X59377Y20727D02*
G01X59400Y20681D01*
G01X59331Y20772D02*
G01X59377Y20727D01*
G01X59286Y20795D02*
G01X59331Y20772D01*
G01X58922Y20977D02*
G01X59400Y20977D01*
G01X58922Y21136D02*
G01X58922Y20977D01*
G01X58922Y21136D02*
G01X58945Y21204D01*
G01X58945Y21204D02*
G01X58990Y21250D01*
G01X58990Y21250D02*
G01X59036Y21272D01*
G01X59036Y21272D02*
G01X59104Y21295D01*
G01X59104Y21295D02*
G01X59218Y21295D01*
G01X59218Y21295D02*
G01X59286Y21272D01*
G01X59286Y21272D02*
G01X59331Y21250D01*
G01X59331Y21250D02*
G01X59377Y21204D01*
G01X59377Y21204D02*
G01X59400Y21136D01*
G01X59400Y20977D02*
G01X59400Y21136D01*
G01X58922Y21704D02*
G01X59240Y21477D01*
G01X59240Y21818D02*
G01X59240Y21477D01*
G01X58922Y21704D02*
G01X59400Y21704D01*
G01X58922Y22136D02*
G01X58945Y22068D01*
G01X58945Y22068D02*
G01X59013Y22022D01*
G01X59013Y22022D02*
G01X59127Y22000D01*
G01X59127Y22000D02*
G01X59195Y22000D01*
G01X59195Y22000D02*
G01X59309Y22022D01*
G01X59309Y22022D02*
G01X59377Y22068D01*
G01X59377Y22068D02*
G01X59400Y22136D01*
G01X59400Y22181D02*
G01X59400Y22136D01*
G01X59377Y22250D02*
G01X59400Y22181D01*
G01X59309Y22295D02*
G01X59377Y22250D01*
G01X59195Y22318D02*
G01X59309Y22295D01*
G01X59127Y22318D02*
G01X59195Y22318D01*
G01X59013Y22295D02*
G01X59127Y22318D01*
G01X58945Y22250D02*
G01X59013Y22295D01*
G01X58922Y22181D02*
G01X58945Y22250D01*
G01X58922Y22136D02*
G01X58922Y22181D01*
G01X58922Y22636D02*
G01X58945Y22568D01*
G01X58945Y22568D02*
G01X59013Y22522D01*
G01X59013Y22522D02*
G01X59127Y22500D01*
G01X59127Y22500D02*
G01X59195Y22500D01*
G01X59195Y22500D02*
G01X59309Y22522D01*
G01X59309Y22522D02*
G01X59377Y22568D01*
G01X59377Y22568D02*
G01X59400Y22636D01*
G01X59400Y22681D02*
G01X59400Y22636D01*
G01X59377Y22750D02*
G01X59400Y22681D01*
G01X59309Y22795D02*
G01X59377Y22750D01*
G01X59195Y22818D02*
G01X59309Y22795D01*
G01X59127Y22818D02*
G01X59195Y22818D01*
G01X59013Y22795D02*
G01X59127Y22818D01*
G01X58945Y22750D02*
G01X59013Y22795D01*
G01X58922Y22681D02*
G01X58945Y22750D01*
G01X58922Y22636D02*
G01X58922Y22681D01*
G01X58922Y23318D02*
G01X59400Y23090D01*
G01X58922Y23318D02*
G01X58922Y23000D01*
G04 Draw part X_IC_7_CD4007*
G04 draw part outline for part X_IC_7_CD4007*
G01X60300Y1900D02*
G01X67300Y1900D01*
G01X67300Y1900D02*
G01X67300Y3900D01*
G01X67300Y3900D02*
G01X60300Y3900D01*
G01X60300Y3900D02*
G01X60300Y1900D01*
G01X60300Y2400D02*
G01X60800Y2400D01*
G01X60800Y2400D02*
G01X60800Y3400D01*
G01X60800Y3400D02*
G01X60300Y3400D01*
G01X60300Y3400D02*
G01X60300Y2400D01*
G04 draw reference designator for part X_IC_7_CD4007*
G01X59322Y2900D02*
G01X59800Y3218D01*
G01X59322Y3218D02*
G01X59800Y2900D01*
G01X59800Y3809D02*
G01X59800Y3400D01*
G01X59322Y3990D02*
G01X59800Y3990D01*
G01X59390Y4490D02*
G01X59436Y4513D01*
G01X59345Y4445D02*
G01X59390Y4490D01*
G01X59322Y4400D02*
G01X59345Y4445D01*
G01X59322Y4309D02*
G01X59322Y4400D01*
G01X59322Y4309D02*
G01X59345Y4263D01*
G01X59345Y4263D02*
G01X59390Y4218D01*
G01X59390Y4218D02*
G01X59436Y4195D01*
G01X59436Y4195D02*
G01X59504Y4172D01*
G01X59504Y4172D02*
G01X59618Y4172D01*
G01X59618Y4172D02*
G01X59686Y4195D01*
G01X59686Y4195D02*
G01X59731Y4218D01*
G01X59731Y4218D02*
G01X59777Y4263D01*
G01X59777Y4263D02*
G01X59800Y4309D01*
G01X59800Y4400D02*
G01X59800Y4309D01*
G01X59777Y4445D02*
G01X59800Y4400D01*
G01X59731Y4490D02*
G01X59777Y4445D01*
G01X59686Y4513D02*
G01X59731Y4490D01*
G01X59800Y5104D02*
G01X59800Y4695D01*
G01X59322Y5604D02*
G01X59800Y5377D01*
G01X59322Y5604D02*
G01X59322Y5286D01*
G01X59800Y6195D02*
G01X59800Y5786D01*
G01X59390Y6695D02*
G01X59436Y6718D01*
G01X59345Y6650D02*
G01X59390Y6695D01*
G01X59322Y6604D02*
G01X59345Y6650D01*
G01X59322Y6513D02*
G01X59322Y6604D01*
G01X59322Y6513D02*
G01X59345Y6468D01*
G01X59345Y6468D02*
G01X59390Y6422D01*
G01X59390Y6422D02*
G01X59436Y6400D01*
G01X59436Y6400D02*
G01X59504Y6377D01*
G01X59504Y6377D02*
G01X59618Y6377D01*
G01X59618Y6377D02*
G01X59686Y6400D01*
G01X59686Y6400D02*
G01X59731Y6422D01*
G01X59731Y6422D02*
G01X59777Y6468D01*
G01X59777Y6468D02*
G01X59800Y6513D01*
G01X59800Y6604D02*
G01X59800Y6513D01*
G01X59777Y6650D02*
G01X59800Y6604D01*
G01X59731Y6695D02*
G01X59777Y6650D01*
G01X59686Y6718D02*
G01X59731Y6695D01*
G01X59322Y6900D02*
G01X59800Y6900D01*
G01X59322Y7059D02*
G01X59322Y6900D01*
G01X59322Y7059D02*
G01X59345Y7127D01*
G01X59345Y7127D02*
G01X59390Y7172D01*
G01X59390Y7172D02*
G01X59436Y7195D01*
G01X59436Y7195D02*
G01X59504Y7218D01*
G01X59504Y7218D02*
G01X59618Y7218D01*
G01X59618Y7218D02*
G01X59686Y7195D01*
G01X59686Y7195D02*
G01X59731Y7172D01*
G01X59731Y7172D02*
G01X59777Y7127D01*
G01X59777Y7127D02*
G01X59800Y7059D01*
G01X59800Y6900D02*
G01X59800Y7059D01*
G01X59322Y7627D02*
G01X59640Y7400D01*
G01X59640Y7740D02*
G01X59640Y7400D01*
G01X59322Y7627D02*
G01X59800Y7627D01*
G01X59322Y8059D02*
G01X59345Y7990D01*
G01X59345Y7990D02*
G01X59413Y7945D01*
G01X59413Y7945D02*
G01X59527Y7922D01*
G01X59527Y7922D02*
G01X59595Y7922D01*
G01X59595Y7922D02*
G01X59709Y7945D01*
G01X59709Y7945D02*
G01X59777Y7990D01*
G01X59777Y7990D02*
G01X59800Y8059D01*
G01X59800Y8104D02*
G01X59800Y8059D01*
G01X59777Y8172D02*
G01X59800Y8104D01*
G01X59709Y8218D02*
G01X59777Y8172D01*
G01X59595Y8240D02*
G01X59709Y8218D01*
G01X59527Y8240D02*
G01X59595Y8240D01*
G01X59413Y8218D02*
G01X59527Y8240D01*
G01X59345Y8172D02*
G01X59413Y8218D01*
G01X59322Y8104D02*
G01X59345Y8172D01*
G01X59322Y8059D02*
G01X59322Y8104D01*
G01X59322Y8559D02*
G01X59345Y8490D01*
G01X59345Y8490D02*
G01X59413Y8445D01*
G01X59413Y8445D02*
G01X59527Y8422D01*
G01X59527Y8422D02*
G01X59595Y8422D01*
G01X59595Y8422D02*
G01X59709Y8445D01*
G01X59709Y8445D02*
G01X59777Y8490D01*
G01X59777Y8490D02*
G01X59800Y8559D01*
G01X59800Y8604D02*
G01X59800Y8559D01*
G01X59777Y8672D02*
G01X59800Y8604D01*
G01X59709Y8718D02*
G01X59777Y8672D01*
G01X59595Y8740D02*
G01X59709Y8718D01*
G01X59527Y8740D02*
G01X59595Y8740D01*
G01X59413Y8718D02*
G01X59527Y8740D01*
G01X59345Y8672D02*
G01X59413Y8718D01*
G01X59322Y8604D02*
G01X59345Y8672D01*
G01X59322Y8559D02*
G01X59322Y8604D01*
G01X59322Y9240D02*
G01X59800Y9013D01*
G01X59322Y9240D02*
G01X59322Y8922D01*
G04 Draw part X_IC_8_CD4007*
G04 draw part outline for part X_IC_8_CD4007*
G01X60500Y28500D02*
G01X67500Y28500D01*
G01X67500Y28500D02*
G01X67500Y30500D01*
G01X67500Y30500D02*
G01X60500Y30500D01*
G01X60500Y30500D02*
G01X60500Y28500D01*
G01X60500Y29000D02*
G01X61000Y29000D01*
G01X61000Y29000D02*
G01X61000Y30000D01*
G01X61000Y30000D02*
G01X60500Y30000D01*
G01X60500Y30000D02*
G01X60500Y29000D01*
G04 draw reference designator for part X_IC_8_CD4007*
G01X59522Y26500D02*
G01X60000Y26818D01*
G01X59522Y26818D02*
G01X60000Y26500D01*
G01X60000Y27409D02*
G01X60000Y27000D01*
G01X59522Y27590D02*
G01X60000Y27590D01*
G01X59590Y28090D02*
G01X59636Y28113D01*
G01X59545Y28045D02*
G01X59590Y28090D01*
G01X59522Y28000D02*
G01X59545Y28045D01*
G01X59522Y27909D02*
G01X59522Y28000D01*
G01X59522Y27909D02*
G01X59545Y27863D01*
G01X59545Y27863D02*
G01X59590Y27818D01*
G01X59590Y27818D02*
G01X59636Y27795D01*
G01X59636Y27795D02*
G01X59704Y27772D01*
G01X59704Y27772D02*
G01X59818Y27772D01*
G01X59818Y27772D02*
G01X59886Y27795D01*
G01X59886Y27795D02*
G01X59931Y27818D01*
G01X59931Y27818D02*
G01X59977Y27863D01*
G01X59977Y27863D02*
G01X60000Y27909D01*
G01X60000Y28000D02*
G01X60000Y27909D01*
G01X59977Y28045D02*
G01X60000Y28000D01*
G01X59931Y28090D02*
G01X59977Y28045D01*
G01X59886Y28113D02*
G01X59931Y28090D01*
G01X60000Y28704D02*
G01X60000Y28295D01*
G01X59522Y28999D02*
G01X59545Y28931D01*
G01X59545Y28931D02*
G01X59590Y28909D01*
G01X59590Y28909D02*
G01X59636Y28909D01*
G01X59636Y28909D02*
G01X59681Y28931D01*
G01X59681Y28931D02*
G01X59704Y28977D01*
G01X59704Y28977D02*
G01X59727Y29068D01*
G01X59727Y29068D02*
G01X59750Y29136D01*
G01X59750Y29136D02*
G01X59795Y29181D01*
G01X59795Y29181D02*
G01X59840Y29204D01*
G01X59840Y29204D02*
G01X59909Y29204D01*
G01X59909Y29204D02*
G01X59954Y29181D01*
G01X59954Y29181D02*
G01X59977Y29159D01*
G01X59977Y29159D02*
G01X60000Y29090D01*
G01X60000Y28999D02*
G01X60000Y29090D01*
G01X59977Y28931D02*
G01X60000Y28999D01*
G01X59954Y28909D02*
G01X59977Y28931D01*
G01X59909Y28886D02*
G01X59954Y28909D01*
G01X59840Y28886D02*
G01X59909Y28886D01*
G01X59795Y28909D02*
G01X59840Y28886D01*
G01X59750Y28954D02*
G01X59795Y28909D01*
G01X59727Y29022D02*
G01X59750Y28954D01*
G01X59704Y29113D02*
G01X59727Y29022D01*
G01X59681Y29159D02*
G01X59704Y29113D01*
G01X59636Y29181D02*
G01X59681Y29159D01*
G01X59590Y29181D02*
G01X59636Y29181D01*
G01X59545Y29159D02*
G01X59590Y29181D01*
G01X59522Y29090D02*
G01X59545Y29159D01*
G01X59522Y28999D02*
G01X59522Y29090D01*
G01X60000Y29795D02*
G01X60000Y29386D01*
G01X59590Y30295D02*
G01X59636Y30318D01*
G01X59545Y30250D02*
G01X59590Y30295D01*
G01X59522Y30204D02*
G01X59545Y30250D01*
G01X59522Y30113D02*
G01X59522Y30204D01*
G01X59522Y30113D02*
G01X59545Y30068D01*
G01X59545Y30068D02*
G01X59590Y30022D01*
G01X59590Y30022D02*
G01X59636Y30000D01*
G01X59636Y30000D02*
G01X59704Y29977D01*
G01X59704Y29977D02*
G01X59818Y29977D01*
G01X59818Y29977D02*
G01X59886Y30000D01*
G01X59886Y30000D02*
G01X59931Y30022D01*
G01X59931Y30022D02*
G01X59977Y30068D01*
G01X59977Y30068D02*
G01X60000Y30113D01*
G01X60000Y30204D02*
G01X60000Y30113D01*
G01X59977Y30250D02*
G01X60000Y30204D01*
G01X59931Y30295D02*
G01X59977Y30250D01*
G01X59886Y30318D02*
G01X59931Y30295D01*
G01X59522Y30500D02*
G01X60000Y30500D01*
G01X59522Y30659D02*
G01X59522Y30500D01*
G01X59522Y30659D02*
G01X59545Y30727D01*
G01X59545Y30727D02*
G01X59590Y30772D01*
G01X59590Y30772D02*
G01X59636Y30795D01*
G01X59636Y30795D02*
G01X59704Y30818D01*
G01X59704Y30818D02*
G01X59818Y30818D01*
G01X59818Y30818D02*
G01X59886Y30795D01*
G01X59886Y30795D02*
G01X59931Y30772D01*
G01X59931Y30772D02*
G01X59977Y30727D01*
G01X59977Y30727D02*
G01X60000Y30659D01*
G01X60000Y30500D02*
G01X60000Y30659D01*
G01X59522Y31227D02*
G01X59840Y31000D01*
G01X59840Y31340D02*
G01X59840Y31000D01*
G01X59522Y31227D02*
G01X60000Y31227D01*
G01X59522Y31659D02*
G01X59545Y31590D01*
G01X59545Y31590D02*
G01X59613Y31545D01*
G01X59613Y31545D02*
G01X59727Y31522D01*
G01X59727Y31522D02*
G01X59795Y31522D01*
G01X59795Y31522D02*
G01X59909Y31545D01*
G01X59909Y31545D02*
G01X59977Y31590D01*
G01X59977Y31590D02*
G01X60000Y31659D01*
G01X60000Y31704D02*
G01X60000Y31659D01*
G01X59977Y31772D02*
G01X60000Y31704D01*
G01X59909Y31818D02*
G01X59977Y31772D01*
G01X59795Y31840D02*
G01X59909Y31818D01*
G01X59727Y31840D02*
G01X59795Y31840D01*
G01X59613Y31818D02*
G01X59727Y31840D01*
G01X59545Y31772D02*
G01X59613Y31818D01*
G01X59522Y31704D02*
G01X59545Y31772D01*
G01X59522Y31659D02*
G01X59522Y31704D01*
G01X59522Y32159D02*
G01X59545Y32090D01*
G01X59545Y32090D02*
G01X59613Y32045D01*
G01X59613Y32045D02*
G01X59727Y32022D01*
G01X59727Y32022D02*
G01X59795Y32022D01*
G01X59795Y32022D02*
G01X59909Y32045D01*
G01X59909Y32045D02*
G01X59977Y32090D01*
G01X59977Y32090D02*
G01X60000Y32159D01*
G01X60000Y32204D02*
G01X60000Y32159D01*
G01X59977Y32272D02*
G01X60000Y32204D01*
G01X59909Y32318D02*
G01X59977Y32272D01*
G01X59795Y32340D02*
G01X59909Y32318D01*
G01X59727Y32340D02*
G01X59795Y32340D01*
G01X59613Y32318D02*
G01X59727Y32340D01*
G01X59545Y32272D02*
G01X59613Y32318D01*
G01X59522Y32204D02*
G01X59545Y32272D01*
G01X59522Y32159D02*
G01X59522Y32204D01*
G01X59522Y32840D02*
G01X60000Y32613D01*
G01X59522Y32840D02*
G01X59522Y32522D01*
G04 Draw part X_IC_9_CD4007*
G04 draw part outline for part X_IC_9_CD4007*
G01X25500Y2500D02*
G01X32500Y2500D01*
G01X32500Y2500D02*
G01X32500Y4500D01*
G01X32500Y4500D02*
G01X25500Y4500D01*
G01X25500Y4500D02*
G01X25500Y2500D01*
G01X25500Y3000D02*
G01X26000Y3000D01*
G01X26000Y3000D02*
G01X26000Y4000D01*
G01X26000Y4000D02*
G01X25500Y4000D01*
G01X25500Y4000D02*
G01X25500Y3000D01*
G04 draw reference designator for part X_IC_9_CD4007*
G01X24522Y3500D02*
G01X25000Y3818D01*
G01X24522Y3818D02*
G01X25000Y3500D01*
G01X25000Y4409D02*
G01X25000Y4000D01*
G01X24522Y4590D02*
G01X25000Y4590D01*
G01X24590Y5090D02*
G01X24636Y5113D01*
G01X24545Y5045D02*
G01X24590Y5090D01*
G01X24522Y5000D02*
G01X24545Y5045D01*
G01X24522Y4909D02*
G01X24522Y5000D01*
G01X24522Y4909D02*
G01X24545Y4863D01*
G01X24545Y4863D02*
G01X24590Y4818D01*
G01X24590Y4818D02*
G01X24636Y4795D01*
G01X24636Y4795D02*
G01X24704Y4772D01*
G01X24704Y4772D02*
G01X24818Y4772D01*
G01X24818Y4772D02*
G01X24886Y4795D01*
G01X24886Y4795D02*
G01X24931Y4818D01*
G01X24931Y4818D02*
G01X24977Y4863D01*
G01X24977Y4863D02*
G01X25000Y4909D01*
G01X25000Y5000D02*
G01X25000Y4909D01*
G01X24977Y5045D02*
G01X25000Y5000D01*
G01X24931Y5090D02*
G01X24977Y5045D01*
G01X24886Y5113D02*
G01X24931Y5090D01*
G01X25000Y5704D02*
G01X25000Y5295D01*
G01X24681Y6181D02*
G01X24750Y6159D01*
G01X24750Y6159D02*
G01X24795Y6113D01*
G01X24795Y6113D02*
G01X24818Y6045D01*
G01X24818Y6022D02*
G01X24818Y6045D01*
G01X24795Y5954D02*
G01X24818Y6022D01*
G01X24750Y5909D02*
G01X24795Y5954D01*
G01X24681Y5886D02*
G01X24750Y5909D01*
G01X24659Y5886D02*
G01X24681Y5886D01*
G01X24590Y5909D02*
G01X24659Y5886D01*
G01X24545Y5954D02*
G01X24590Y5909D01*
G01X24522Y6022D02*
G01X24545Y5954D01*
G01X24522Y6045D02*
G01X24522Y6022D01*
G01X24522Y6045D02*
G01X24545Y6113D01*
G01X24545Y6113D02*
G01X24590Y6159D01*
G01X24590Y6159D02*
G01X24681Y6181D01*
G01X24681Y6181D02*
G01X24795Y6181D01*
G01X24795Y6181D02*
G01X24909Y6159D01*
G01X24909Y6159D02*
G01X24977Y6113D01*
G01X24977Y6113D02*
G01X25000Y6045D01*
G01X25000Y5999D02*
G01X25000Y6045D01*
G01X24977Y5931D02*
G01X25000Y5999D01*
G01X24931Y5909D02*
G01X24977Y5931D01*
G01X25000Y6772D02*
G01X25000Y6363D01*
G01X24590Y7272D02*
G01X24636Y7295D01*
G01X24545Y7227D02*
G01X24590Y7272D01*
G01X24522Y7181D02*
G01X24545Y7227D01*
G01X24522Y7090D02*
G01X24522Y7181D01*
G01X24522Y7090D02*
G01X24545Y7045D01*
G01X24545Y7045D02*
G01X24590Y6999D01*
G01X24590Y6999D02*
G01X24636Y6977D01*
G01X24636Y6977D02*
G01X24704Y6954D01*
G01X24704Y6954D02*
G01X24818Y6954D01*
G01X24818Y6954D02*
G01X24886Y6977D01*
G01X24886Y6977D02*
G01X24931Y6999D01*
G01X24931Y6999D02*
G01X24977Y7045D01*
G01X24977Y7045D02*
G01X25000Y7090D01*
G01X25000Y7181D02*
G01X25000Y7090D01*
G01X24977Y7227D02*
G01X25000Y7181D01*
G01X24931Y7272D02*
G01X24977Y7227D01*
G01X24886Y7295D02*
G01X24931Y7272D01*
G01X24522Y7477D02*
G01X25000Y7477D01*
G01X24522Y7636D02*
G01X24522Y7477D01*
G01X24522Y7636D02*
G01X24545Y7704D01*
G01X24545Y7704D02*
G01X24590Y7750D01*
G01X24590Y7750D02*
G01X24636Y7772D01*
G01X24636Y7772D02*
G01X24704Y7795D01*
G01X24704Y7795D02*
G01X24818Y7795D01*
G01X24818Y7795D02*
G01X24886Y7772D01*
G01X24886Y7772D02*
G01X24931Y7750D01*
G01X24931Y7750D02*
G01X24977Y7704D01*
G01X24977Y7704D02*
G01X25000Y7636D01*
G01X25000Y7477D02*
G01X25000Y7636D01*
G01X24522Y8204D02*
G01X24840Y7977D01*
G01X24840Y8318D02*
G01X24840Y7977D01*
G01X24522Y8204D02*
G01X25000Y8204D01*
G01X24522Y8636D02*
G01X24545Y8568D01*
G01X24545Y8568D02*
G01X24613Y8522D01*
G01X24613Y8522D02*
G01X24727Y8500D01*
G01X24727Y8500D02*
G01X24795Y8500D01*
G01X24795Y8500D02*
G01X24909Y8522D01*
G01X24909Y8522D02*
G01X24977Y8568D01*
G01X24977Y8568D02*
G01X25000Y8636D01*
G01X25000Y8681D02*
G01X25000Y8636D01*
G01X24977Y8750D02*
G01X25000Y8681D01*
G01X24909Y8795D02*
G01X24977Y8750D01*
G01X24795Y8818D02*
G01X24909Y8795D01*
G01X24727Y8818D02*
G01X24795Y8818D01*
G01X24613Y8795D02*
G01X24727Y8818D01*
G01X24545Y8750D02*
G01X24613Y8795D01*
G01X24522Y8681D02*
G01X24545Y8750D01*
G01X24522Y8636D02*
G01X24522Y8681D01*
G01X24522Y9136D02*
G01X24545Y9068D01*
G01X24545Y9068D02*
G01X24613Y9022D01*
G01X24613Y9022D02*
G01X24727Y9000D01*
G01X24727Y9000D02*
G01X24795Y9000D01*
G01X24795Y9000D02*
G01X24909Y9022D01*
G01X24909Y9022D02*
G01X24977Y9068D01*
G01X24977Y9068D02*
G01X25000Y9136D01*
G01X25000Y9181D02*
G01X25000Y9136D01*
G01X24977Y9250D02*
G01X25000Y9181D01*
G01X24909Y9295D02*
G01X24977Y9250D01*
G01X24795Y9318D02*
G01X24909Y9295D01*
G01X24727Y9318D02*
G01X24795Y9318D01*
G01X24613Y9295D02*
G01X24727Y9318D01*
G01X24545Y9250D02*
G01X24613Y9295D01*
G01X24522Y9181D02*
G01X24545Y9250D01*
G01X24522Y9136D02*
G01X24522Y9181D01*
G01X24522Y9818D02*
G01X25000Y9590D01*
G01X24522Y9818D02*
G01X24522Y9500D01*
G04 Draw part X_IC_10_CD4007*
G04 draw part outline for part X_IC_10_CD4007*
G01X25100Y16200D02*
G01X32100Y16200D01*
G01X32100Y16200D02*
G01X32100Y18200D01*
G01X32100Y18200D02*
G01X25100Y18200D01*
G01X25100Y18200D02*
G01X25100Y16200D01*
G01X25100Y16700D02*
G01X25600Y16700D01*
G01X25600Y16700D02*
G01X25600Y17700D01*
G01X25600Y17700D02*
G01X25100Y17700D01*
G01X25100Y17700D02*
G01X25100Y16700D01*
G04 draw reference designator for part X_IC_10_CD4007*
G01X24122Y17200D02*
G01X24600Y17518D01*
G01X24122Y17518D02*
G01X24600Y17200D01*
G01X24600Y18109D02*
G01X24600Y17700D01*
G01X24122Y18290D02*
G01X24600Y18290D01*
G01X24190Y18790D02*
G01X24236Y18813D01*
G01X24145Y18745D02*
G01X24190Y18790D01*
G01X24122Y18700D02*
G01X24145Y18745D01*
G01X24122Y18609D02*
G01X24122Y18700D01*
G01X24122Y18609D02*
G01X24145Y18563D01*
G01X24145Y18563D02*
G01X24190Y18518D01*
G01X24190Y18518D02*
G01X24236Y18495D01*
G01X24236Y18495D02*
G01X24304Y18472D01*
G01X24304Y18472D02*
G01X24418Y18472D01*
G01X24418Y18472D02*
G01X24486Y18495D01*
G01X24486Y18495D02*
G01X24531Y18518D01*
G01X24531Y18518D02*
G01X24577Y18563D01*
G01X24577Y18563D02*
G01X24600Y18609D01*
G01X24600Y18700D02*
G01X24600Y18609D01*
G01X24577Y18745D02*
G01X24600Y18700D01*
G01X24531Y18790D02*
G01X24577Y18745D01*
G01X24486Y18813D02*
G01X24531Y18790D01*
G01X24600Y19404D02*
G01X24600Y18995D01*
G01X24190Y19631D02*
G01X24213Y19586D01*
G01X24122Y19699D02*
G01X24190Y19631D01*
G01X24122Y19699D02*
G01X24600Y19699D01*
G01X24122Y20018D02*
G01X24145Y19950D01*
G01X24145Y19950D02*
G01X24213Y19904D01*
G01X24213Y19904D02*
G01X24327Y19881D01*
G01X24327Y19881D02*
G01X24395Y19881D01*
G01X24395Y19881D02*
G01X24509Y19904D01*
G01X24509Y19904D02*
G01X24577Y19950D01*
G01X24577Y19950D02*
G01X24600Y20018D01*
G01X24600Y20063D02*
G01X24600Y20018D01*
G01X24577Y20131D02*
G01X24600Y20063D01*
G01X24509Y20177D02*
G01X24577Y20131D01*
G01X24395Y20200D02*
G01X24509Y20177D01*
G01X24327Y20200D02*
G01X24395Y20200D01*
G01X24213Y20177D02*
G01X24327Y20200D01*
G01X24145Y20131D02*
G01X24213Y20177D01*
G01X24122Y20063D02*
G01X24145Y20131D01*
G01X24122Y20018D02*
G01X24122Y20063D01*
G01X24600Y20790D02*
G01X24600Y20381D01*
G01X24190Y21290D02*
G01X24236Y21313D01*
G01X24145Y21245D02*
G01X24190Y21290D01*
G01X24122Y21200D02*
G01X24145Y21245D01*
G01X24122Y21109D02*
G01X24122Y21200D01*
G01X24122Y21109D02*
G01X24145Y21063D01*
G01X24145Y21063D02*
G01X24190Y21018D01*
G01X24190Y21018D02*
G01X24236Y20995D01*
G01X24236Y20995D02*
G01X24304Y20972D01*
G01X24304Y20972D02*
G01X24418Y20972D01*
G01X24418Y20972D02*
G01X24486Y20995D01*
G01X24486Y20995D02*
G01X24531Y21018D01*
G01X24531Y21018D02*
G01X24577Y21063D01*
G01X24577Y21063D02*
G01X24600Y21109D01*
G01X24600Y21200D02*
G01X24600Y21109D01*
G01X24577Y21245D02*
G01X24600Y21200D01*
G01X24531Y21290D02*
G01X24577Y21245D01*
G01X24486Y21313D02*
G01X24531Y21290D01*
G01X24122Y21495D02*
G01X24600Y21495D01*
G01X24122Y21654D02*
G01X24122Y21495D01*
G01X24122Y21654D02*
G01X24145Y21722D01*
G01X24145Y21722D02*
G01X24190Y21768D01*
G01X24190Y21768D02*
G01X24236Y21790D01*
G01X24236Y21790D02*
G01X24304Y21813D01*
G01X24304Y21813D02*
G01X24418Y21813D01*
G01X24418Y21813D02*
G01X24486Y21790D01*
G01X24486Y21790D02*
G01X24531Y21768D01*
G01X24531Y21768D02*
G01X24577Y21722D01*
G01X24577Y21722D02*
G01X24600Y21654D01*
G01X24600Y21495D02*
G01X24600Y21654D01*
G01X24122Y22222D02*
G01X24440Y21995D01*
G01X24440Y22336D02*
G01X24440Y21995D01*
G01X24122Y22222D02*
G01X24600Y22222D01*
G01X24122Y22654D02*
G01X24145Y22586D01*
G01X24145Y22586D02*
G01X24213Y22540D01*
G01X24213Y22540D02*
G01X24327Y22518D01*
G01X24327Y22518D02*
G01X24395Y22518D01*
G01X24395Y22518D02*
G01X24509Y22540D01*
G01X24509Y22540D02*
G01X24577Y22586D01*
G01X24577Y22586D02*
G01X24600Y22654D01*
G01X24600Y22700D02*
G01X24600Y22654D01*
G01X24577Y22768D02*
G01X24600Y22700D01*
G01X24509Y22813D02*
G01X24577Y22768D01*
G01X24395Y22836D02*
G01X24509Y22813D01*
G01X24327Y22836D02*
G01X24395Y22836D01*
G01X24213Y22813D02*
G01X24327Y22836D01*
G01X24145Y22768D02*
G01X24213Y22813D01*
G01X24122Y22700D02*
G01X24145Y22768D01*
G01X24122Y22654D02*
G01X24122Y22700D01*
G01X24122Y23154D02*
G01X24145Y23086D01*
G01X24145Y23086D02*
G01X24213Y23040D01*
G01X24213Y23040D02*
G01X24327Y23018D01*
G01X24327Y23018D02*
G01X24395Y23018D01*
G01X24395Y23018D02*
G01X24509Y23040D01*
G01X24509Y23040D02*
G01X24577Y23086D01*
G01X24577Y23086D02*
G01X24600Y23154D01*
G01X24600Y23200D02*
G01X24600Y23154D01*
G01X24577Y23268D02*
G01X24600Y23200D01*
G01X24509Y23313D02*
G01X24577Y23268D01*
G01X24395Y23336D02*
G01X24509Y23313D01*
G01X24327Y23336D02*
G01X24395Y23336D01*
G01X24213Y23313D02*
G01X24327Y23336D01*
G01X24145Y23268D02*
G01X24213Y23313D01*
G01X24122Y23200D02*
G01X24145Y23268D01*
G01X24122Y23154D02*
G01X24122Y23200D01*
G01X24122Y23836D02*
G01X24600Y23609D01*
G01X24122Y23836D02*
G01X24122Y23518D01*
G04 Draw part X_IC_11_CD4007*
G04 draw part outline for part X_IC_11_CD4007*
G01X24800Y28700D02*
G01X31800Y28700D01*
G01X31800Y28700D02*
G01X31800Y30700D01*
G01X31800Y30700D02*
G01X24800Y30700D01*
G01X24800Y30700D02*
G01X24800Y28700D01*
G01X24800Y29200D02*
G01X25300Y29200D01*
G01X25300Y29200D02*
G01X25300Y30200D01*
G01X25300Y30200D02*
G01X24800Y30200D01*
G01X24800Y30200D02*
G01X24800Y29200D01*
G04 draw reference designator for part X_IC_11_CD4007*
G01X23822Y29700D02*
G01X24300Y30018D01*
G01X23822Y30018D02*
G01X24300Y29700D01*
G01X24300Y30609D02*
G01X24300Y30200D01*
G01X23822Y30790D02*
G01X24300Y30790D01*
G01X23890Y31290D02*
G01X23936Y31313D01*
G01X23845Y31245D02*
G01X23890Y31290D01*
G01X23822Y31200D02*
G01X23845Y31245D01*
G01X23822Y31109D02*
G01X23822Y31200D01*
G01X23822Y31109D02*
G01X23845Y31063D01*
G01X23845Y31063D02*
G01X23890Y31018D01*
G01X23890Y31018D02*
G01X23936Y30995D01*
G01X23936Y30995D02*
G01X24004Y30972D01*
G01X24004Y30972D02*
G01X24118Y30972D01*
G01X24118Y30972D02*
G01X24186Y30995D01*
G01X24186Y30995D02*
G01X24231Y31018D01*
G01X24231Y31018D02*
G01X24277Y31063D01*
G01X24277Y31063D02*
G01X24300Y31109D01*
G01X24300Y31200D02*
G01X24300Y31109D01*
G01X24277Y31245D02*
G01X24300Y31200D01*
G01X24231Y31290D02*
G01X24277Y31245D01*
G01X24186Y31313D02*
G01X24231Y31290D01*
G01X24300Y31904D02*
G01X24300Y31495D01*
G01X23890Y32131D02*
G01X23913Y32086D01*
G01X23822Y32199D02*
G01X23890Y32131D01*
G01X23822Y32199D02*
G01X24300Y32199D01*
G01X23890Y32427D02*
G01X23913Y32381D01*
G01X23822Y32495D02*
G01X23890Y32427D01*
G01X23822Y32495D02*
G01X24300Y32495D01*
G01X24300Y33086D02*
G01X24300Y32677D01*
G01X23890Y33586D02*
G01X23936Y33609D01*
G01X23845Y33540D02*
G01X23890Y33586D01*
G01X23822Y33495D02*
G01X23845Y33540D01*
G01X23822Y33404D02*
G01X23822Y33495D01*
G01X23822Y33404D02*
G01X23845Y33359D01*
G01X23845Y33359D02*
G01X23890Y33313D01*
G01X23890Y33313D02*
G01X23936Y33290D01*
G01X23936Y33290D02*
G01X24004Y33268D01*
G01X24004Y33268D02*
G01X24118Y33268D01*
G01X24118Y33268D02*
G01X24186Y33290D01*
G01X24186Y33290D02*
G01X24231Y33313D01*
G01X24231Y33313D02*
G01X24277Y33359D01*
G01X24277Y33359D02*
G01X24300Y33404D01*
G01X24300Y33495D02*
G01X24300Y33404D01*
G01X24277Y33540D02*
G01X24300Y33495D01*
G01X24231Y33586D02*
G01X24277Y33540D01*
G01X24186Y33609D02*
G01X24231Y33586D01*
G01X23822Y33790D02*
G01X24300Y33790D01*
G01X23822Y33949D02*
G01X23822Y33790D01*
G01X23822Y33949D02*
G01X23845Y34018D01*
G01X23845Y34018D02*
G01X23890Y34063D01*
G01X23890Y34063D02*
G01X23936Y34086D01*
G01X23936Y34086D02*
G01X24004Y34109D01*
G01X24004Y34109D02*
G01X24118Y34109D01*
G01X24118Y34109D02*
G01X24186Y34086D01*
G01X24186Y34086D02*
G01X24231Y34063D01*
G01X24231Y34063D02*
G01X24277Y34018D01*
G01X24277Y34018D02*
G01X24300Y33949D01*
G01X24300Y33790D02*
G01X24300Y33949D01*
G01X23822Y34518D02*
G01X24140Y34290D01*
G01X24140Y34631D02*
G01X24140Y34290D01*
G01X23822Y34518D02*
G01X24300Y34518D01*
G01X23822Y34950D02*
G01X23845Y34881D01*
G01X23845Y34881D02*
G01X23913Y34836D01*
G01X23913Y34836D02*
G01X24027Y34813D01*
G01X24027Y34813D02*
G01X24095Y34813D01*
G01X24095Y34813D02*
G01X24209Y34836D01*
G01X24209Y34836D02*
G01X24277Y34881D01*
G01X24277Y34881D02*
G01X24300Y34950D01*
G01X24300Y34995D02*
G01X24300Y34950D01*
G01X24277Y35063D02*
G01X24300Y34995D01*
G01X24209Y35109D02*
G01X24277Y35063D01*
G01X24095Y35131D02*
G01X24209Y35109D01*
G01X24027Y35131D02*
G01X24095Y35131D01*
G01X23913Y35109D02*
G01X24027Y35131D01*
G01X23845Y35063D02*
G01X23913Y35109D01*
G01X23822Y34995D02*
G01X23845Y35063D01*
G01X23822Y34950D02*
G01X23822Y34995D01*
G01X23822Y35450D02*
G01X23845Y35381D01*
G01X23845Y35381D02*
G01X23913Y35336D01*
G01X23913Y35336D02*
G01X24027Y35313D01*
G01X24027Y35313D02*
G01X24095Y35313D01*
G01X24095Y35313D02*
G01X24209Y35336D01*
G01X24209Y35336D02*
G01X24277Y35381D01*
G01X24277Y35381D02*
G01X24300Y35450D01*
G01X24300Y35495D02*
G01X24300Y35450D01*
G01X24277Y35563D02*
G01X24300Y35495D01*
G01X24209Y35609D02*
G01X24277Y35563D01*
G01X24095Y35631D02*
G01X24209Y35609D01*
G01X24027Y35631D02*
G01X24095Y35631D01*
G01X23913Y35609D02*
G01X24027Y35631D01*
G01X23845Y35563D02*
G01X23913Y35609D01*
G01X23822Y35495D02*
G01X23845Y35563D01*
G01X23822Y35450D02*
G01X23822Y35495D01*
G01X23822Y36131D02*
G01X24300Y35904D01*
G01X23822Y36131D02*
G01X23822Y35813D01*
G04 Draw part X_IC_15_CD4016*
G04 draw part outline for part X_IC_15_CD4016*
G01X12500Y40500D02*
G01X19500Y40500D01*
G01X19500Y40500D02*
G01X19500Y42500D01*
G01X19500Y42500D02*
G01X12500Y42500D01*
G01X12500Y42500D02*
G01X12500Y40500D01*
G01X12500Y41000D02*
G01X13000Y41000D01*
G01X13000Y41000D02*
G01X13000Y42000D01*
G01X13000Y42000D02*
G01X12500Y42000D01*
G01X12500Y42000D02*
G01X12500Y41000D01*
G04 draw reference designator for part X_IC_15_CD4016*
G01X19522Y36500D02*
G01X20000Y36818D01*
G01X19522Y36818D02*
G01X20000Y36500D01*
G01X20000Y37409D02*
G01X20000Y37000D01*
G01X19522Y37590D02*
G01X20000Y37590D01*
G01X19590Y38090D02*
G01X19636Y38113D01*
G01X19545Y38045D02*
G01X19590Y38090D01*
G01X19522Y38000D02*
G01X19545Y38045D01*
G01X19522Y37909D02*
G01X19522Y38000D01*
G01X19522Y37909D02*
G01X19545Y37863D01*
G01X19545Y37863D02*
G01X19590Y37818D01*
G01X19590Y37818D02*
G01X19636Y37795D01*
G01X19636Y37795D02*
G01X19704Y37772D01*
G01X19704Y37772D02*
G01X19818Y37772D01*
G01X19818Y37772D02*
G01X19886Y37795D01*
G01X19886Y37795D02*
G01X19931Y37818D01*
G01X19931Y37818D02*
G01X19977Y37863D01*
G01X19977Y37863D02*
G01X20000Y37909D01*
G01X20000Y38000D02*
G01X20000Y37909D01*
G01X19977Y38045D02*
G01X20000Y38000D01*
G01X19931Y38090D02*
G01X19977Y38045D01*
G01X19886Y38113D02*
G01X19931Y38090D01*
G01X20000Y38704D02*
G01X20000Y38295D01*
G01X19590Y38931D02*
G01X19613Y38886D01*
G01X19522Y38999D02*
G01X19590Y38931D01*
G01X19522Y38999D02*
G01X20000Y38999D01*
G01X19522Y39227D02*
G01X19522Y39454D01*
G01X19522Y39227D02*
G01X19727Y39204D01*
G01X19704Y39227D02*
G01X19727Y39204D01*
G01X19681Y39295D02*
G01X19704Y39227D01*
G01X19681Y39363D02*
G01X19681Y39295D01*
G01X19681Y39363D02*
G01X19704Y39431D01*
G01X19704Y39431D02*
G01X19750Y39477D01*
G01X19750Y39477D02*
G01X19818Y39500D01*
G01X19818Y39500D02*
G01X19863Y39500D01*
G01X19863Y39500D02*
G01X19931Y39477D01*
G01X19931Y39477D02*
G01X19977Y39431D01*
G01X19977Y39431D02*
G01X20000Y39363D01*
G01X20000Y39295D02*
G01X20000Y39363D01*
G01X19977Y39227D02*
G01X20000Y39295D01*
G01X19954Y39204D02*
G01X19977Y39227D01*
G01X19909Y39181D02*
G01X19954Y39204D01*
G01X20000Y40090D02*
G01X20000Y39681D01*
G01X19590Y40590D02*
G01X19636Y40613D01*
G01X19545Y40545D02*
G01X19590Y40590D01*
G01X19522Y40500D02*
G01X19545Y40545D01*
G01X19522Y40409D02*
G01X19522Y40500D01*
G01X19522Y40409D02*
G01X19545Y40363D01*
G01X19545Y40363D02*
G01X19590Y40318D01*
G01X19590Y40318D02*
G01X19636Y40295D01*
G01X19636Y40295D02*
G01X19704Y40272D01*
G01X19704Y40272D02*
G01X19818Y40272D01*
G01X19818Y40272D02*
G01X19886Y40295D01*
G01X19886Y40295D02*
G01X19931Y40318D01*
G01X19931Y40318D02*
G01X19977Y40363D01*
G01X19977Y40363D02*
G01X20000Y40409D01*
G01X20000Y40500D02*
G01X20000Y40409D01*
G01X19977Y40545D02*
G01X20000Y40500D01*
G01X19931Y40590D02*
G01X19977Y40545D01*
G01X19886Y40613D02*
G01X19931Y40590D01*
G01X19522Y40795D02*
G01X20000Y40795D01*
G01X19522Y40954D02*
G01X19522Y40795D01*
G01X19522Y40954D02*
G01X19545Y41022D01*
G01X19545Y41022D02*
G01X19590Y41068D01*
G01X19590Y41068D02*
G01X19636Y41090D01*
G01X19636Y41090D02*
G01X19704Y41113D01*
G01X19704Y41113D02*
G01X19818Y41113D01*
G01X19818Y41113D02*
G01X19886Y41090D01*
G01X19886Y41090D02*
G01X19931Y41068D01*
G01X19931Y41068D02*
G01X19977Y41022D01*
G01X19977Y41022D02*
G01X20000Y40954D01*
G01X20000Y40795D02*
G01X20000Y40954D01*
G01X19522Y41522D02*
G01X19840Y41295D01*
G01X19840Y41636D02*
G01X19840Y41295D01*
G01X19522Y41522D02*
G01X20000Y41522D01*
G01X19522Y41954D02*
G01X19545Y41886D01*
G01X19545Y41886D02*
G01X19613Y41840D01*
G01X19613Y41840D02*
G01X19727Y41818D01*
G01X19727Y41818D02*
G01X19795Y41818D01*
G01X19795Y41818D02*
G01X19909Y41840D01*
G01X19909Y41840D02*
G01X19977Y41886D01*
G01X19977Y41886D02*
G01X20000Y41954D01*
G01X20000Y42000D02*
G01X20000Y41954D01*
G01X19977Y42068D02*
G01X20000Y42000D01*
G01X19909Y42113D02*
G01X19977Y42068D01*
G01X19795Y42136D02*
G01X19909Y42113D01*
G01X19727Y42136D02*
G01X19795Y42136D01*
G01X19613Y42113D02*
G01X19727Y42136D01*
G01X19545Y42068D02*
G01X19613Y42113D01*
G01X19522Y42000D02*
G01X19545Y42068D01*
G01X19522Y41954D02*
G01X19522Y42000D01*
G01X19590Y42363D02*
G01X19613Y42318D01*
G01X19522Y42431D02*
G01X19590Y42363D01*
G01X19522Y42431D02*
G01X20000Y42431D01*
G01X19545Y42863D02*
G01X19590Y42886D01*
G01X19522Y42795D02*
G01X19545Y42863D01*
G01X19522Y42750D02*
G01X19522Y42795D01*
G01X19522Y42750D02*
G01X19545Y42681D01*
G01X19545Y42681D02*
G01X19613Y42636D01*
G01X19613Y42636D02*
G01X19727Y42613D01*
G01X19727Y42613D02*
G01X19840Y42613D01*
G01X19840Y42613D02*
G01X19931Y42636D01*
G01X19931Y42636D02*
G01X19977Y42681D01*
G01X19977Y42681D02*
G01X20000Y42750D01*
G01X20000Y42772D02*
G01X20000Y42750D01*
G01X19977Y42840D02*
G01X20000Y42772D01*
G01X19931Y42886D02*
G01X19977Y42840D01*
G01X19863Y42909D02*
G01X19931Y42886D01*
G01X19840Y42909D02*
G01X19863Y42909D01*
G01X19772Y42886D02*
G01X19840Y42909D01*
G01X19727Y42840D02*
G01X19772Y42886D01*
G01X19704Y42772D02*
G01X19727Y42840D01*
G01X19704Y42750D02*
G01X19704Y42772D01*
G01X19704Y42750D02*
G01X19727Y42681D01*
G01X19727Y42681D02*
G01X19772Y42636D01*
G01X19772Y42636D02*
G01X19840Y42613D01*
G04 Draw part X_IC_16_CD4016*
G04 draw part outline for part X_IC_16_CD4016*
G01X44500Y16500D02*
G01X51500Y16500D01*
G01X51500Y16500D02*
G01X51500Y18500D01*
G01X51500Y18500D02*
G01X44500Y18500D01*
G01X44500Y18500D02*
G01X44500Y16500D01*
G01X44500Y17000D02*
G01X45000Y17000D01*
G01X45000Y17000D02*
G01X45000Y18000D01*
G01X45000Y18000D02*
G01X44500Y18000D01*
G01X44500Y18000D02*
G01X44500Y17000D01*
G04 draw reference designator for part X_IC_16_CD4016*
G01X43522Y11500D02*
G01X44000Y11818D01*
G01X43522Y11818D02*
G01X44000Y11500D01*
G01X44000Y12409D02*
G01X44000Y12000D01*
G01X43522Y12590D02*
G01X44000Y12590D01*
G01X43590Y13090D02*
G01X43636Y13113D01*
G01X43545Y13045D02*
G01X43590Y13090D01*
G01X43522Y13000D02*
G01X43545Y13045D01*
G01X43522Y12909D02*
G01X43522Y13000D01*
G01X43522Y12909D02*
G01X43545Y12863D01*
G01X43545Y12863D02*
G01X43590Y12818D01*
G01X43590Y12818D02*
G01X43636Y12795D01*
G01X43636Y12795D02*
G01X43704Y12772D01*
G01X43704Y12772D02*
G01X43818Y12772D01*
G01X43818Y12772D02*
G01X43886Y12795D01*
G01X43886Y12795D02*
G01X43931Y12818D01*
G01X43931Y12818D02*
G01X43977Y12863D01*
G01X43977Y12863D02*
G01X44000Y12909D01*
G01X44000Y13000D02*
G01X44000Y12909D01*
G01X43977Y13045D02*
G01X44000Y13000D01*
G01X43931Y13090D02*
G01X43977Y13045D01*
G01X43886Y13113D02*
G01X43931Y13090D01*
G01X44000Y13704D02*
G01X44000Y13295D01*
G01X43590Y13931D02*
G01X43613Y13886D01*
G01X43522Y13999D02*
G01X43590Y13931D01*
G01X43522Y13999D02*
G01X44000Y13999D01*
G01X43545Y14431D02*
G01X43590Y14454D01*
G01X43522Y14363D02*
G01X43545Y14431D01*
G01X43522Y14318D02*
G01X43522Y14363D01*
G01X43522Y14318D02*
G01X43545Y14250D01*
G01X43545Y14250D02*
G01X43613Y14204D01*
G01X43613Y14204D02*
G01X43727Y14181D01*
G01X43727Y14181D02*
G01X43840Y14181D01*
G01X43840Y14181D02*
G01X43931Y14204D01*
G01X43931Y14204D02*
G01X43977Y14250D01*
G01X43977Y14250D02*
G01X44000Y14318D01*
G01X44000Y14340D02*
G01X44000Y14318D01*
G01X43977Y14409D02*
G01X44000Y14340D01*
G01X43931Y14454D02*
G01X43977Y14409D01*
G01X43863Y14477D02*
G01X43931Y14454D01*
G01X43840Y14477D02*
G01X43863Y14477D01*
G01X43772Y14454D02*
G01X43840Y14477D01*
G01X43727Y14409D02*
G01X43772Y14454D01*
G01X43704Y14340D02*
G01X43727Y14409D01*
G01X43704Y14318D02*
G01X43704Y14340D01*
G01X43704Y14318D02*
G01X43727Y14250D01*
G01X43727Y14250D02*
G01X43772Y14204D01*
G01X43772Y14204D02*
G01X43840Y14181D01*
G01X44000Y15068D02*
G01X44000Y14659D01*
G01X43590Y15568D02*
G01X43636Y15590D01*
G01X43545Y15522D02*
G01X43590Y15568D01*
G01X43522Y15477D02*
G01X43545Y15522D01*
G01X43522Y15386D02*
G01X43522Y15477D01*
G01X43522Y15386D02*
G01X43545Y15340D01*
G01X43545Y15340D02*
G01X43590Y15295D01*
G01X43590Y15295D02*
G01X43636Y15272D01*
G01X43636Y15272D02*
G01X43704Y15250D01*
G01X43704Y15250D02*
G01X43818Y15250D01*
G01X43818Y15250D02*
G01X43886Y15272D01*
G01X43886Y15272D02*
G01X43931Y15295D01*
G01X43931Y15295D02*
G01X43977Y15340D01*
G01X43977Y15340D02*
G01X44000Y15386D01*
G01X44000Y15477D02*
G01X44000Y15386D01*
G01X43977Y15522D02*
G01X44000Y15477D01*
G01X43931Y15568D02*
G01X43977Y15522D01*
G01X43886Y15590D02*
G01X43931Y15568D01*
G01X43522Y15772D02*
G01X44000Y15772D01*
G01X43522Y15931D02*
G01X43522Y15772D01*
G01X43522Y15931D02*
G01X43545Y16000D01*
G01X43545Y16000D02*
G01X43590Y16045D01*
G01X43590Y16045D02*
G01X43636Y16068D01*
G01X43636Y16068D02*
G01X43704Y16090D01*
G01X43704Y16090D02*
G01X43818Y16090D01*
G01X43818Y16090D02*
G01X43886Y16068D01*
G01X43886Y16068D02*
G01X43931Y16045D01*
G01X43931Y16045D02*
G01X43977Y16000D01*
G01X43977Y16000D02*
G01X44000Y15931D01*
G01X44000Y15772D02*
G01X44000Y15931D01*
G01X43522Y16500D02*
G01X43840Y16272D01*
G01X43840Y16613D02*
G01X43840Y16272D01*
G01X43522Y16500D02*
G01X44000Y16500D01*
G01X43522Y16931D02*
G01X43545Y16863D01*
G01X43545Y16863D02*
G01X43613Y16818D01*
G01X43613Y16818D02*
G01X43727Y16795D01*
G01X43727Y16795D02*
G01X43795Y16795D01*
G01X43795Y16795D02*
G01X43909Y16818D01*
G01X43909Y16818D02*
G01X43977Y16863D01*
G01X43977Y16863D02*
G01X44000Y16931D01*
G01X44000Y16977D02*
G01X44000Y16931D01*
G01X43977Y17045D02*
G01X44000Y16977D01*
G01X43909Y17090D02*
G01X43977Y17045D01*
G01X43795Y17113D02*
G01X43909Y17090D01*
G01X43727Y17113D02*
G01X43795Y17113D01*
G01X43613Y17090D02*
G01X43727Y17113D01*
G01X43545Y17045D02*
G01X43613Y17090D01*
G01X43522Y16977D02*
G01X43545Y17045D01*
G01X43522Y16931D02*
G01X43522Y16977D01*
G01X43590Y17340D02*
G01X43613Y17295D01*
G01X43522Y17409D02*
G01X43590Y17340D01*
G01X43522Y17409D02*
G01X44000Y17409D01*
G01X43545Y17840D02*
G01X43590Y17863D01*
G01X43522Y17772D02*
G01X43545Y17840D01*
G01X43522Y17727D02*
G01X43522Y17772D01*
G01X43522Y17727D02*
G01X43545Y17659D01*
G01X43545Y17659D02*
G01X43613Y17613D01*
G01X43613Y17613D02*
G01X43727Y17590D01*
G01X43727Y17590D02*
G01X43840Y17590D01*
G01X43840Y17590D02*
G01X43931Y17613D01*
G01X43931Y17613D02*
G01X43977Y17659D01*
G01X43977Y17659D02*
G01X44000Y17727D01*
G01X44000Y17750D02*
G01X44000Y17727D01*
G01X43977Y17818D02*
G01X44000Y17750D01*
G01X43931Y17863D02*
G01X43977Y17818D01*
G01X43863Y17886D02*
G01X43931Y17863D01*
G01X43840Y17886D02*
G01X43863Y17886D01*
G01X43772Y17863D02*
G01X43840Y17886D01*
G01X43727Y17818D02*
G01X43772Y17863D01*
G01X43704Y17750D02*
G01X43727Y17818D01*
G01X43704Y17727D02*
G01X43704Y17750D01*
G01X43704Y17727D02*
G01X43727Y17659D01*
G01X43727Y17659D02*
G01X43772Y17613D01*
G01X43772Y17613D02*
G01X43840Y17590D01*
G04 Draw part X_IC_17_CD4016*
G04 draw part outline for part X_IC_17_CD4016*
G01X44500Y40500D02*
G01X51500Y40500D01*
G01X51500Y40500D02*
G01X51500Y42500D01*
G01X51500Y42500D02*
G01X44500Y42500D01*
G01X44500Y42500D02*
G01X44500Y40500D01*
G01X44500Y41000D02*
G01X45000Y41000D01*
G01X45000Y41000D02*
G01X45000Y42000D01*
G01X45000Y42000D02*
G01X44500Y42000D01*
G01X44500Y42000D02*
G01X44500Y41000D01*
G04 draw reference designator for part X_IC_17_CD4016*
G01X43522Y36500D02*
G01X44000Y36818D01*
G01X43522Y36818D02*
G01X44000Y36500D01*
G01X44000Y37409D02*
G01X44000Y37000D01*
G01X43522Y37590D02*
G01X44000Y37590D01*
G01X43590Y38090D02*
G01X43636Y38113D01*
G01X43545Y38045D02*
G01X43590Y38090D01*
G01X43522Y38000D02*
G01X43545Y38045D01*
G01X43522Y37909D02*
G01X43522Y38000D01*
G01X43522Y37909D02*
G01X43545Y37863D01*
G01X43545Y37863D02*
G01X43590Y37818D01*
G01X43590Y37818D02*
G01X43636Y37795D01*
G01X43636Y37795D02*
G01X43704Y37772D01*
G01X43704Y37772D02*
G01X43818Y37772D01*
G01X43818Y37772D02*
G01X43886Y37795D01*
G01X43886Y37795D02*
G01X43931Y37818D01*
G01X43931Y37818D02*
G01X43977Y37863D01*
G01X43977Y37863D02*
G01X44000Y37909D01*
G01X44000Y38000D02*
G01X44000Y37909D01*
G01X43977Y38045D02*
G01X44000Y38000D01*
G01X43931Y38090D02*
G01X43977Y38045D01*
G01X43886Y38113D02*
G01X43931Y38090D01*
G01X44000Y38704D02*
G01X44000Y38295D01*
G01X43590Y38931D02*
G01X43613Y38886D01*
G01X43522Y38999D02*
G01X43590Y38931D01*
G01X43522Y38999D02*
G01X44000Y38999D01*
G01X43522Y39500D02*
G01X44000Y39272D01*
G01X43522Y39500D02*
G01X43522Y39181D01*
G01X44000Y40090D02*
G01X44000Y39681D01*
G01X43590Y40590D02*
G01X43636Y40613D01*
G01X43545Y40545D02*
G01X43590Y40590D01*
G01X43522Y40500D02*
G01X43545Y40545D01*
G01X43522Y40409D02*
G01X43522Y40500D01*
G01X43522Y40409D02*
G01X43545Y40363D01*
G01X43545Y40363D02*
G01X43590Y40318D01*
G01X43590Y40318D02*
G01X43636Y40295D01*
G01X43636Y40295D02*
G01X43704Y40272D01*
G01X43704Y40272D02*
G01X43818Y40272D01*
G01X43818Y40272D02*
G01X43886Y40295D01*
G01X43886Y40295D02*
G01X43931Y40318D01*
G01X43931Y40318D02*
G01X43977Y40363D01*
G01X43977Y40363D02*
G01X44000Y40409D01*
G01X44000Y40500D02*
G01X44000Y40409D01*
G01X43977Y40545D02*
G01X44000Y40500D01*
G01X43931Y40590D02*
G01X43977Y40545D01*
G01X43886Y40613D02*
G01X43931Y40590D01*
G01X43522Y40795D02*
G01X44000Y40795D01*
G01X43522Y40954D02*
G01X43522Y40795D01*
G01X43522Y40954D02*
G01X43545Y41022D01*
G01X43545Y41022D02*
G01X43590Y41068D01*
G01X43590Y41068D02*
G01X43636Y41090D01*
G01X43636Y41090D02*
G01X43704Y41113D01*
G01X43704Y41113D02*
G01X43818Y41113D01*
G01X43818Y41113D02*
G01X43886Y41090D01*
G01X43886Y41090D02*
G01X43931Y41068D01*
G01X43931Y41068D02*
G01X43977Y41022D01*
G01X43977Y41022D02*
G01X44000Y40954D01*
G01X44000Y40795D02*
G01X44000Y40954D01*
G01X43522Y41522D02*
G01X43840Y41295D01*
G01X43840Y41636D02*
G01X43840Y41295D01*
G01X43522Y41522D02*
G01X44000Y41522D01*
G01X43522Y41954D02*
G01X43545Y41886D01*
G01X43545Y41886D02*
G01X43613Y41840D01*
G01X43613Y41840D02*
G01X43727Y41818D01*
G01X43727Y41818D02*
G01X43795Y41818D01*
G01X43795Y41818D02*
G01X43909Y41840D01*
G01X43909Y41840D02*
G01X43977Y41886D01*
G01X43977Y41886D02*
G01X44000Y41954D01*
G01X44000Y42000D02*
G01X44000Y41954D01*
G01X43977Y42068D02*
G01X44000Y42000D01*
G01X43909Y42113D02*
G01X43977Y42068D01*
G01X43795Y42136D02*
G01X43909Y42113D01*
G01X43727Y42136D02*
G01X43795Y42136D01*
G01X43613Y42113D02*
G01X43727Y42136D01*
G01X43545Y42068D02*
G01X43613Y42113D01*
G01X43522Y42000D02*
G01X43545Y42068D01*
G01X43522Y41954D02*
G01X43522Y42000D01*
G01X43590Y42363D02*
G01X43613Y42318D01*
G01X43522Y42431D02*
G01X43590Y42363D01*
G01X43522Y42431D02*
G01X44000Y42431D01*
G01X43545Y42863D02*
G01X43590Y42886D01*
G01X43522Y42795D02*
G01X43545Y42863D01*
G01X43522Y42750D02*
G01X43522Y42795D01*
G01X43522Y42750D02*
G01X43545Y42681D01*
G01X43545Y42681D02*
G01X43613Y42636D01*
G01X43613Y42636D02*
G01X43727Y42613D01*
G01X43727Y42613D02*
G01X43840Y42613D01*
G01X43840Y42613D02*
G01X43931Y42636D01*
G01X43931Y42636D02*
G01X43977Y42681D01*
G01X43977Y42681D02*
G01X44000Y42750D01*
G01X44000Y42772D02*
G01X44000Y42750D01*
G01X43977Y42840D02*
G01X44000Y42772D01*
G01X43931Y42886D02*
G01X43977Y42840D01*
G01X43863Y42909D02*
G01X43931Y42886D01*
G01X43840Y42909D02*
G01X43863Y42909D01*
G01X43772Y42886D02*
G01X43840Y42909D01*
G01X43727Y42840D02*
G01X43772Y42886D01*
G01X43704Y42772D02*
G01X43727Y42840D01*
G01X43704Y42750D02*
G01X43704Y42772D01*
G01X43704Y42750D02*
G01X43727Y42681D01*
G01X43727Y42681D02*
G01X43772Y42636D01*
G01X43772Y42636D02*
G01X43840Y42613D01*
G04 Draw part R1*
G04 draw part outline for part R1*
G01X36490Y-6090D02*
G01X36490Y-8910D01*
G01X36490Y-8910D02*
G01X35510Y-8910D01*
G01X35510Y-8910D02*
G01X35510Y-6090D01*
G01X35510Y-6090D02*
G01X36490Y-6090D01*
G04 draw reference designator for part R1*
G01X37467Y-7500D02*
G01X36990Y-7500D01*
G01X37467Y-7704D02*
G01X37467Y-7500D01*
G01X37467Y-7704D02*
G01X37444Y-7772D01*
G01X37444Y-7772D02*
G01X37421Y-7795D01*
G01X37421Y-7795D02*
G01X37376Y-7818D01*
G01X37376Y-7818D02*
G01X37330Y-7818D01*
G01X37330Y-7818D02*
G01X37285Y-7795D01*
G01X37285Y-7795D02*
G01X37262Y-7772D01*
G01X37262Y-7772D02*
G01X37240Y-7704D01*
G01X37240Y-7500D02*
G01X37240Y-7704D01*
G01X37240Y-7659D02*
G01X36990Y-7818D01*
G01X37399Y-8045D02*
G01X37376Y-8000D01*
G01X37467Y-8113D02*
G01X37399Y-8045D01*
G01X37467Y-8113D02*
G01X36990Y-8113D01*
G04 Draw part R2*
G04 draw part outline for part R2*
G01X40510Y-8910D02*
G01X40510Y-6090D01*
G01X40510Y-6090D02*
G01X41490Y-6090D01*
G01X41490Y-6090D02*
G01X41490Y-8910D01*
G01X41490Y-8910D02*
G01X40510Y-8910D01*
G04 draw reference designator for part R2*
G01X39532Y-7500D02*
G01X40010Y-7500D01*
G01X39532Y-7295D02*
G01X39532Y-7500D01*
G01X39532Y-7295D02*
G01X39555Y-7227D01*
G01X39555Y-7227D02*
G01X39578Y-7204D01*
G01X39578Y-7204D02*
G01X39623Y-7181D01*
G01X39623Y-7181D02*
G01X39669Y-7181D01*
G01X39669Y-7181D02*
G01X39714Y-7204D01*
G01X39714Y-7204D02*
G01X39737Y-7227D01*
G01X39737Y-7227D02*
G01X39760Y-7295D01*
G01X39760Y-7500D02*
G01X39760Y-7295D01*
G01X39760Y-7340D02*
G01X40010Y-7181D01*
G01X39623Y-6977D02*
G01X39646Y-6977D01*
G01X39578Y-6954D02*
G01X39623Y-6977D01*
G01X39555Y-6931D02*
G01X39578Y-6954D01*
G01X39532Y-6886D02*
G01X39555Y-6931D01*
G01X39532Y-6795D02*
G01X39532Y-6886D01*
G01X39532Y-6795D02*
G01X39555Y-6750D01*
G01X39555Y-6750D02*
G01X39578Y-6727D01*
G01X39578Y-6727D02*
G01X39623Y-6704D01*
G01X39623Y-6704D02*
G01X39669Y-6704D01*
G01X39669Y-6704D02*
G01X39714Y-6727D01*
G01X39714Y-6727D02*
G01X39782Y-6772D01*
G01X39782Y-6772D02*
G01X40010Y-7000D01*
G01X40010Y-6681D02*
G01X40010Y-7000D01*
G04 Draw part R3*
G04 draw part outline for part R3*
G01X27090Y-2510D02*
G01X29910Y-2510D01*
G01X29910Y-2510D02*
G01X29910Y-3490D01*
G01X29910Y-3490D02*
G01X27090Y-3490D01*
G01X27090Y-3490D02*
G01X27090Y-2510D01*
G04 draw reference designator for part R3*
G01X28500Y-1532D02*
G01X28500Y-2010D01*
G01X28704Y-1532D02*
G01X28500Y-1532D01*
G01X28704Y-1532D02*
G01X28772Y-1555D01*
G01X28772Y-1555D02*
G01X28795Y-1578D01*
G01X28795Y-1578D02*
G01X28818Y-1623D01*
G01X28818Y-1623D02*
G01X28818Y-1669D01*
G01X28818Y-1669D02*
G01X28795Y-1714D01*
G01X28795Y-1714D02*
G01X28772Y-1737D01*
G01X28772Y-1737D02*
G01X28704Y-1760D01*
G01X28500Y-1760D02*
G01X28704Y-1760D01*
G01X28659Y-1760D02*
G01X28818Y-2010D01*
G01X29295Y-1532D02*
G01X29045Y-1532D01*
G01X29295Y-1532D02*
G01X29159Y-1714D01*
G01X29227Y-1714D02*
G01X29159Y-1714D01*
G01X29227Y-1714D02*
G01X29272Y-1737D01*
G01X29272Y-1737D02*
G01X29295Y-1760D01*
G01X29295Y-1760D02*
G01X29318Y-1828D01*
G01X29318Y-1828D02*
G01X29318Y-1873D01*
G01X29318Y-1873D02*
G01X29295Y-1941D01*
G01X29295Y-1941D02*
G01X29250Y-1987D01*
G01X29250Y-1987D02*
G01X29181Y-2010D01*
G01X29113Y-2010D02*
G01X29181Y-2010D01*
G01X29045Y-1987D02*
G01X29113Y-2010D01*
G01X29022Y-1964D02*
G01X29045Y-1987D01*
G01X29000Y-1919D02*
G01X29022Y-1964D01*
G04 Draw part R4*
G04 draw part outline for part R4*
G01X27190Y-4210D02*
G01X30010Y-4210D01*
G01X30010Y-4210D02*
G01X30010Y-5190D01*
G01X30010Y-5190D02*
G01X27190Y-5190D01*
G01X27190Y-5190D02*
G01X27190Y-4210D01*
G04 draw reference designator for part R4*
G01X28600Y-3232D02*
G01X28600Y-3710D01*
G01X28804Y-3232D02*
G01X28600Y-3232D01*
G01X28804Y-3232D02*
G01X28872Y-3255D01*
G01X28872Y-3255D02*
G01X28895Y-3278D01*
G01X28895Y-3278D02*
G01X28918Y-3323D01*
G01X28918Y-3323D02*
G01X28918Y-3369D01*
G01X28918Y-3369D02*
G01X28895Y-3414D01*
G01X28895Y-3414D02*
G01X28872Y-3437D01*
G01X28872Y-3437D02*
G01X28804Y-3460D01*
G01X28600Y-3460D02*
G01X28804Y-3460D01*
G01X28759Y-3460D02*
G01X28918Y-3710D01*
G01X29327Y-3232D02*
G01X29100Y-3550D01*
G01X29440Y-3550D02*
G01X29100Y-3550D01*
G01X29327Y-3232D02*
G01X29327Y-3710D01*
G04 Draw part R5*
G04 draw part outline for part R5*
G01X40490Y27110D02*
G01X40490Y24290D01*
G01X40490Y24290D02*
G01X39510Y24290D01*
G01X39510Y24290D02*
G01X39510Y27110D01*
G01X39510Y27110D02*
G01X40490Y27110D01*
G04 draw reference designator for part R5*
G01X41467Y25700D02*
G01X40990Y25700D01*
G01X41467Y25495D02*
G01X41467Y25700D01*
G01X41467Y25495D02*
G01X41444Y25427D01*
G01X41444Y25427D02*
G01X41421Y25404D01*
G01X41421Y25404D02*
G01X41376Y25381D01*
G01X41376Y25381D02*
G01X41330Y25381D01*
G01X41330Y25381D02*
G01X41285Y25404D01*
G01X41285Y25404D02*
G01X41262Y25427D01*
G01X41262Y25427D02*
G01X41240Y25495D01*
G01X41240Y25700D02*
G01X41240Y25495D01*
G01X41240Y25540D02*
G01X40990Y25381D01*
G01X41467Y25154D02*
G01X41467Y24927D01*
G01X41467Y25154D02*
G01X41262Y25177D01*
G01X41285Y25154D02*
G01X41262Y25177D01*
G01X41308Y25086D02*
G01X41285Y25154D01*
G01X41308Y25018D02*
G01X41308Y25086D01*
G01X41308Y25018D02*
G01X41285Y24950D01*
G01X41285Y24950D02*
G01X41240Y24904D01*
G01X41240Y24904D02*
G01X41171Y24881D01*
G01X41171Y24881D02*
G01X41126Y24881D01*
G01X41126Y24881D02*
G01X41058Y24904D01*
G01X41058Y24904D02*
G01X41012Y24950D01*
G01X41012Y24950D02*
G01X40990Y25018D01*
G01X40990Y25086D02*
G01X40990Y25018D01*
G01X41012Y25154D02*
G01X40990Y25086D01*
G01X41035Y25177D02*
G01X41012Y25154D01*
G01X41080Y25200D02*
G01X41035Y25177D01*
G04 Draw part R6*
G04 draw part outline for part R6*
G01X40490Y17910D02*
G01X40490Y15090D01*
G01X40490Y15090D02*
G01X39510Y15090D01*
G01X39510Y15090D02*
G01X39510Y17910D01*
G01X39510Y17910D02*
G01X40490Y17910D01*
G04 draw reference designator for part R6*
G01X41467Y16500D02*
G01X40990Y16500D01*
G01X41467Y16295D02*
G01X41467Y16500D01*
G01X41467Y16295D02*
G01X41444Y16227D01*
G01X41444Y16227D02*
G01X41421Y16204D01*
G01X41421Y16204D02*
G01X41376Y16181D01*
G01X41376Y16181D02*
G01X41330Y16181D01*
G01X41330Y16181D02*
G01X41285Y16204D01*
G01X41285Y16204D02*
G01X41262Y16227D01*
G01X41262Y16227D02*
G01X41240Y16295D01*
G01X41240Y16500D02*
G01X41240Y16295D01*
G01X41240Y16340D02*
G01X40990Y16181D01*
G01X41444Y15750D02*
G01X41399Y15727D01*
G01X41467Y15818D02*
G01X41444Y15750D01*
G01X41467Y15863D02*
G01X41467Y15818D01*
G01X41467Y15863D02*
G01X41444Y15931D01*
G01X41444Y15931D02*
G01X41376Y15977D01*
G01X41376Y15977D02*
G01X41262Y16000D01*
G01X41262Y16000D02*
G01X41149Y16000D01*
G01X41149Y16000D02*
G01X41058Y15977D01*
G01X41058Y15977D02*
G01X41012Y15931D01*
G01X41012Y15931D02*
G01X40990Y15863D01*
G01X40990Y15840D02*
G01X40990Y15863D01*
G01X41012Y15772D02*
G01X40990Y15840D01*
G01X41058Y15727D02*
G01X41012Y15772D01*
G01X41126Y15704D02*
G01X41058Y15727D01*
G01X41149Y15704D02*
G01X41126Y15704D01*
G01X41217Y15727D02*
G01X41149Y15704D01*
G01X41262Y15772D02*
G01X41217Y15727D01*
G01X41285Y15840D02*
G01X41262Y15772D01*
G01X41285Y15863D02*
G01X41285Y15840D01*
G01X41285Y15863D02*
G01X41262Y15931D01*
G01X41262Y15931D02*
G01X41217Y15977D01*
G01X41217Y15977D02*
G01X41149Y16000D01*
G04 Draw part R7*
G04 draw part outline for part R7*
G01X37490Y32910D02*
G01X37490Y30090D01*
G01X37490Y30090D02*
G01X36510Y30090D01*
G01X36510Y30090D02*
G01X36510Y32910D01*
G01X36510Y32910D02*
G01X37490Y32910D01*
G04 draw reference designator for part R7*
G01X38467Y31500D02*
G01X37990Y31500D01*
G01X38467Y31295D02*
G01X38467Y31500D01*
G01X38467Y31295D02*
G01X38444Y31227D01*
G01X38444Y31227D02*
G01X38421Y31204D01*
G01X38421Y31204D02*
G01X38376Y31181D01*
G01X38376Y31181D02*
G01X38330Y31181D01*
G01X38330Y31181D02*
G01X38285Y31204D01*
G01X38285Y31204D02*
G01X38262Y31227D01*
G01X38262Y31227D02*
G01X38240Y31295D01*
G01X38240Y31500D02*
G01X38240Y31295D01*
G01X38240Y31340D02*
G01X37990Y31181D01*
G01X38467Y30681D02*
G01X37990Y30909D01*
G01X38467Y30681D02*
G01X38467Y31000D01*
G04 Draw part R8*
G04 draw part outline for part R8*
G01X47090Y-4410D02*
G01X49910Y-4410D01*
G01X49910Y-4410D02*
G01X49910Y-5390D01*
G01X49910Y-5390D02*
G01X47090Y-5390D01*
G01X47090Y-5390D02*
G01X47090Y-4410D01*
G04 draw reference designator for part R8*
G01X48500Y-3432D02*
G01X48500Y-3910D01*
G01X48704Y-3432D02*
G01X48500Y-3432D01*
G01X48704Y-3432D02*
G01X48772Y-3455D01*
G01X48772Y-3455D02*
G01X48795Y-3478D01*
G01X48795Y-3478D02*
G01X48818Y-3523D01*
G01X48818Y-3523D02*
G01X48818Y-3569D01*
G01X48818Y-3569D02*
G01X48795Y-3614D01*
G01X48795Y-3614D02*
G01X48772Y-3637D01*
G01X48772Y-3637D02*
G01X48704Y-3660D01*
G01X48500Y-3660D02*
G01X48704Y-3660D01*
G01X48659Y-3660D02*
G01X48818Y-3910D01*
G01X49113Y-3432D02*
G01X49045Y-3455D01*
G01X49045Y-3455D02*
G01X49022Y-3500D01*
G01X49022Y-3500D02*
G01X49022Y-3546D01*
G01X49022Y-3546D02*
G01X49045Y-3591D01*
G01X49045Y-3591D02*
G01X49090Y-3614D01*
G01X49090Y-3614D02*
G01X49181Y-3637D01*
G01X49181Y-3637D02*
G01X49250Y-3660D01*
G01X49250Y-3660D02*
G01X49295Y-3705D01*
G01X49295Y-3705D02*
G01X49318Y-3750D01*
G01X49318Y-3750D02*
G01X49318Y-3819D01*
G01X49318Y-3819D02*
G01X49295Y-3864D01*
G01X49295Y-3864D02*
G01X49272Y-3887D01*
G01X49272Y-3887D02*
G01X49204Y-3910D01*
G01X49113Y-3910D02*
G01X49204Y-3910D01*
G01X49045Y-3887D02*
G01X49113Y-3910D01*
G01X49022Y-3864D02*
G01X49045Y-3887D01*
G01X49000Y-3819D02*
G01X49022Y-3864D01*
G01X49000Y-3750D02*
G01X49000Y-3819D01*
G01X49022Y-3705D02*
G01X49000Y-3750D01*
G01X49068Y-3660D02*
G01X49022Y-3705D01*
G01X49136Y-3637D02*
G01X49068Y-3660D01*
G01X49227Y-3614D02*
G01X49136Y-3637D01*
G01X49272Y-3591D02*
G01X49227Y-3614D01*
G01X49295Y-3546D02*
G01X49272Y-3591D01*
G01X49295Y-3500D02*
G01X49295Y-3546D01*
G01X49272Y-3455D02*
G01X49295Y-3500D01*
G01X49204Y-3432D02*
G01X49272Y-3455D01*
G01X49113Y-3432D02*
G01X49204Y-3432D01*
G04 Draw part R9*
G04 draw part outline for part R9*
G01X54510Y2090D02*
G01X54510Y4910D01*
G01X54510Y4910D02*
G01X55490Y4910D01*
G01X55490Y4910D02*
G01X55490Y2090D01*
G01X55490Y2090D02*
G01X54510Y2090D01*
G04 draw reference designator for part R9*
G01X53532Y3500D02*
G01X54010Y3500D01*
G01X53532Y3704D02*
G01X53532Y3500D01*
G01X53532Y3704D02*
G01X53555Y3772D01*
G01X53555Y3772D02*
G01X53578Y3795D01*
G01X53578Y3795D02*
G01X53623Y3818D01*
G01X53623Y3818D02*
G01X53669Y3818D01*
G01X53669Y3818D02*
G01X53714Y3795D01*
G01X53714Y3795D02*
G01X53737Y3772D01*
G01X53737Y3772D02*
G01X53760Y3704D01*
G01X53760Y3500D02*
G01X53760Y3704D01*
G01X53760Y3659D02*
G01X54010Y3818D01*
G01X53691Y4295D02*
G01X53760Y4272D01*
G01X53760Y4272D02*
G01X53805Y4227D01*
G01X53805Y4227D02*
G01X53828Y4159D01*
G01X53828Y4136D02*
G01X53828Y4159D01*
G01X53805Y4068D02*
G01X53828Y4136D01*
G01X53760Y4022D02*
G01X53805Y4068D01*
G01X53691Y4000D02*
G01X53760Y4022D01*
G01X53669Y4000D02*
G01X53691Y4000D01*
G01X53600Y4022D02*
G01X53669Y4000D01*
G01X53555Y4068D02*
G01X53600Y4022D01*
G01X53532Y4136D02*
G01X53555Y4068D01*
G01X53532Y4159D02*
G01X53532Y4136D01*
G01X53532Y4159D02*
G01X53555Y4227D01*
G01X53555Y4227D02*
G01X53600Y4272D01*
G01X53600Y4272D02*
G01X53691Y4295D01*
G01X53691Y4295D02*
G01X53805Y4295D01*
G01X53805Y4295D02*
G01X53919Y4272D01*
G01X53919Y4272D02*
G01X53987Y4227D01*
G01X53987Y4227D02*
G01X54010Y4159D01*
G01X54010Y4113D02*
G01X54010Y4159D01*
G01X53987Y4045D02*
G01X54010Y4113D01*
G01X53941Y4022D02*
G01X53987Y4045D01*
G04 Draw part R10*
G04 draw part outline for part R10*
G01X47090Y-2510D02*
G01X49910Y-2510D01*
G01X49910Y-2510D02*
G01X49910Y-3490D01*
G01X49910Y-3490D02*
G01X47090Y-3490D01*
G01X47090Y-3490D02*
G01X47090Y-2510D01*
G04 draw reference designator for part R10*
G01X48500Y-1532D02*
G01X48500Y-2010D01*
G01X48704Y-1532D02*
G01X48500Y-1532D01*
G01X48704Y-1532D02*
G01X48772Y-1555D01*
G01X48772Y-1555D02*
G01X48795Y-1578D01*
G01X48795Y-1578D02*
G01X48818Y-1623D01*
G01X48818Y-1623D02*
G01X48818Y-1669D01*
G01X48818Y-1669D02*
G01X48795Y-1714D01*
G01X48795Y-1714D02*
G01X48772Y-1737D01*
G01X48772Y-1737D02*
G01X48704Y-1760D01*
G01X48500Y-1760D02*
G01X48704Y-1760D01*
G01X48659Y-1760D02*
G01X48818Y-2010D01*
G01X49045Y-1600D02*
G01X49000Y-1623D01*
G01X49113Y-1532D02*
G01X49045Y-1600D01*
G01X49113Y-1532D02*
G01X49113Y-2010D01*
G01X49431Y-1532D02*
G01X49363Y-1555D01*
G01X49363Y-1555D02*
G01X49318Y-1623D01*
G01X49318Y-1623D02*
G01X49295Y-1737D01*
G01X49295Y-1737D02*
G01X49295Y-1805D01*
G01X49295Y-1805D02*
G01X49318Y-1919D01*
G01X49318Y-1919D02*
G01X49363Y-1987D01*
G01X49363Y-1987D02*
G01X49431Y-2010D01*
G01X49477Y-2010D02*
G01X49431Y-2010D01*
G01X49545Y-1987D02*
G01X49477Y-2010D01*
G01X49590Y-1919D02*
G01X49545Y-1987D01*
G01X49613Y-1805D02*
G01X49590Y-1919D01*
G01X49613Y-1737D02*
G01X49613Y-1805D01*
G01X49590Y-1623D02*
G01X49613Y-1737D01*
G01X49545Y-1555D02*
G01X49590Y-1623D01*
G01X49477Y-1532D02*
G01X49545Y-1555D01*
G01X49431Y-1532D02*
G01X49477Y-1532D01*
G04 Draw part R11*
G04 draw part outline for part R11*
G01X47090Y9490D02*
G01X49910Y9490D01*
G01X49910Y9490D02*
G01X49910Y8510D01*
G01X49910Y8510D02*
G01X47090Y8510D01*
G01X47090Y8510D02*
G01X47090Y9490D01*
G04 draw reference designator for part R11*
G01X48500Y10467D02*
G01X48500Y9990D01*
G01X48704Y10467D02*
G01X48500Y10467D01*
G01X48704Y10467D02*
G01X48772Y10444D01*
G01X48772Y10444D02*
G01X48795Y10421D01*
G01X48795Y10421D02*
G01X48818Y10376D01*
G01X48818Y10376D02*
G01X48818Y10330D01*
G01X48818Y10330D02*
G01X48795Y10285D01*
G01X48795Y10285D02*
G01X48772Y10262D01*
G01X48772Y10262D02*
G01X48704Y10240D01*
G01X48500Y10240D02*
G01X48704Y10240D01*
G01X48659Y10240D02*
G01X48818Y9990D01*
G01X49045Y10399D02*
G01X49000Y10376D01*
G01X49113Y10467D02*
G01X49045Y10399D01*
G01X49113Y10467D02*
G01X49113Y9990D01*
G01X49340Y10399D02*
G01X49295Y10376D01*
G01X49409Y10467D02*
G01X49340Y10399D01*
G01X49409Y10467D02*
G01X49409Y9990D01*
G04 Draw part R12*
G04 draw part outline for part R12*
G01X47090Y12490D02*
G01X49910Y12490D01*
G01X49910Y12490D02*
G01X49910Y11510D01*
G01X49910Y11510D02*
G01X47090Y11510D01*
G01X47090Y11510D02*
G01X47090Y12490D01*
G04 draw reference designator for part R12*
G01X48500Y13467D02*
G01X48500Y12990D01*
G01X48704Y13467D02*
G01X48500Y13467D01*
G01X48704Y13467D02*
G01X48772Y13444D01*
G01X48772Y13444D02*
G01X48795Y13421D01*
G01X48795Y13421D02*
G01X48818Y13376D01*
G01X48818Y13376D02*
G01X48818Y13330D01*
G01X48818Y13330D02*
G01X48795Y13285D01*
G01X48795Y13285D02*
G01X48772Y13262D01*
G01X48772Y13262D02*
G01X48704Y13240D01*
G01X48500Y13240D02*
G01X48704Y13240D01*
G01X48659Y13240D02*
G01X48818Y12990D01*
G01X49045Y13399D02*
G01X49000Y13376D01*
G01X49113Y13467D02*
G01X49045Y13399D01*
G01X49113Y13467D02*
G01X49113Y12990D01*
G01X49318Y13376D02*
G01X49318Y13353D01*
G01X49340Y13421D02*
G01X49318Y13376D01*
G01X49363Y13444D02*
G01X49340Y13421D01*
G01X49409Y13467D02*
G01X49363Y13444D01*
G01X49500Y13467D02*
G01X49409Y13467D01*
G01X49500Y13467D02*
G01X49545Y13444D01*
G01X49545Y13444D02*
G01X49568Y13421D01*
G01X49568Y13421D02*
G01X49590Y13376D01*
G01X49590Y13376D02*
G01X49590Y13330D01*
G01X49590Y13330D02*
G01X49568Y13285D01*
G01X49568Y13285D02*
G01X49522Y13217D01*
G01X49522Y13217D02*
G01X49295Y12990D01*
G01X49613Y12990D02*
G01X49295Y12990D01*
G04 Draw part R13*
G04 draw part outline for part R13*
G01X40490Y7910D02*
G01X40490Y5090D01*
G01X40490Y5090D02*
G01X39510Y5090D01*
G01X39510Y5090D02*
G01X39510Y7910D01*
G01X39510Y7910D02*
G01X40490Y7910D01*
G04 draw reference designator for part R13*
G01X41467Y6500D02*
G01X40990Y6500D01*
G01X41467Y6295D02*
G01X41467Y6500D01*
G01X41467Y6295D02*
G01X41444Y6227D01*
G01X41444Y6227D02*
G01X41421Y6204D01*
G01X41421Y6204D02*
G01X41376Y6181D01*
G01X41376Y6181D02*
G01X41330Y6181D01*
G01X41330Y6181D02*
G01X41285Y6204D01*
G01X41285Y6204D02*
G01X41262Y6227D01*
G01X41262Y6227D02*
G01X41240Y6295D01*
G01X41240Y6500D02*
G01X41240Y6295D01*
G01X41240Y6340D02*
G01X40990Y6181D01*
G01X41399Y5954D02*
G01X41376Y6000D01*
G01X41467Y5886D02*
G01X41399Y5954D01*
G01X41467Y5886D02*
G01X40990Y5886D01*
G01X41467Y5409D02*
G01X41467Y5659D01*
G01X41467Y5409D02*
G01X41285Y5545D01*
G01X41285Y5477D02*
G01X41285Y5545D01*
G01X41285Y5477D02*
G01X41262Y5431D01*
G01X41262Y5431D02*
G01X41240Y5409D01*
G01X41240Y5409D02*
G01X41171Y5386D01*
G01X41171Y5386D02*
G01X41126Y5386D01*
G01X41126Y5386D02*
G01X41058Y5409D01*
G01X41058Y5409D02*
G01X41012Y5454D01*
G01X41012Y5454D02*
G01X40990Y5522D01*
G01X40990Y5590D02*
G01X40990Y5522D01*
G01X41012Y5659D02*
G01X40990Y5590D01*
G01X41035Y5681D02*
G01X41012Y5659D01*
G01X41080Y5704D02*
G01X41035Y5681D01*
G04 Draw part R14*
G04 draw part outline for part R14*
G01X55490Y13910D02*
G01X55490Y11090D01*
G01X55490Y11090D02*
G01X54510Y11090D01*
G01X54510Y11090D02*
G01X54510Y13910D01*
G01X54510Y13910D02*
G01X55490Y13910D01*
G04 draw reference designator for part R14*
G01X56467Y12500D02*
G01X55990Y12500D01*
G01X56467Y12295D02*
G01X56467Y12500D01*
G01X56467Y12295D02*
G01X56444Y12227D01*
G01X56444Y12227D02*
G01X56421Y12204D01*
G01X56421Y12204D02*
G01X56376Y12181D01*
G01X56376Y12181D02*
G01X56330Y12181D01*
G01X56330Y12181D02*
G01X56285Y12204D01*
G01X56285Y12204D02*
G01X56262Y12227D01*
G01X56262Y12227D02*
G01X56240Y12295D01*
G01X56240Y12500D02*
G01X56240Y12295D01*
G01X56240Y12340D02*
G01X55990Y12181D01*
G01X56399Y11954D02*
G01X56376Y12000D01*
G01X56467Y11886D02*
G01X56399Y11954D01*
G01X56467Y11886D02*
G01X55990Y11886D01*
G01X56467Y11477D02*
G01X56149Y11704D01*
G01X56149Y11363D02*
G01X56149Y11704D01*
G01X56467Y11477D02*
G01X55990Y11477D01*
G04 Draw part R15*
G04 draw part outline for part R15*
G01X55490Y30910D02*
G01X55490Y28090D01*
G01X55490Y28090D02*
G01X54510Y28090D01*
G01X54510Y28090D02*
G01X54510Y30910D01*
G01X54510Y30910D02*
G01X55490Y30910D01*
G04 draw reference designator for part R15*
G01X56467Y29500D02*
G01X55990Y29500D01*
G01X56467Y29295D02*
G01X56467Y29500D01*
G01X56467Y29295D02*
G01X56444Y29227D01*
G01X56444Y29227D02*
G01X56421Y29204D01*
G01X56421Y29204D02*
G01X56376Y29181D01*
G01X56376Y29181D02*
G01X56330Y29181D01*
G01X56330Y29181D02*
G01X56285Y29204D01*
G01X56285Y29204D02*
G01X56262Y29227D01*
G01X56262Y29227D02*
G01X56240Y29295D01*
G01X56240Y29500D02*
G01X56240Y29295D01*
G01X56240Y29340D02*
G01X55990Y29181D01*
G01X56399Y28954D02*
G01X56376Y29000D01*
G01X56467Y28886D02*
G01X56399Y28954D01*
G01X56467Y28886D02*
G01X55990Y28886D01*
G01X56467Y28659D02*
G01X56467Y28431D01*
G01X56467Y28659D02*
G01X56262Y28681D01*
G01X56285Y28659D02*
G01X56262Y28681D01*
G01X56308Y28590D02*
G01X56285Y28659D01*
G01X56308Y28522D02*
G01X56308Y28590D01*
G01X56308Y28522D02*
G01X56285Y28454D01*
G01X56285Y28454D02*
G01X56240Y28409D01*
G01X56240Y28409D02*
G01X56171Y28386D01*
G01X56171Y28386D02*
G01X56126Y28386D01*
G01X56126Y28386D02*
G01X56058Y28409D01*
G01X56058Y28409D02*
G01X56012Y28454D01*
G01X56012Y28454D02*
G01X55990Y28522D01*
G01X55990Y28590D02*
G01X55990Y28522D01*
G01X56012Y28659D02*
G01X55990Y28590D01*
G01X56035Y28681D02*
G01X56012Y28659D01*
G01X56080Y28704D02*
G01X56035Y28681D01*
G04 Draw part R16*
G04 draw part outline for part R16*
G01X47190Y35990D02*
G01X50010Y35990D01*
G01X50010Y35990D02*
G01X50010Y35010D01*
G01X50010Y35010D02*
G01X47190Y35010D01*
G01X47190Y35010D02*
G01X47190Y35990D01*
G04 draw reference designator for part R16*
G01X48600Y36967D02*
G01X48600Y36490D01*
G01X48804Y36967D02*
G01X48600Y36967D01*
G01X48804Y36967D02*
G01X48872Y36944D01*
G01X48872Y36944D02*
G01X48895Y36921D01*
G01X48895Y36921D02*
G01X48918Y36876D01*
G01X48918Y36876D02*
G01X48918Y36830D01*
G01X48918Y36830D02*
G01X48895Y36785D01*
G01X48895Y36785D02*
G01X48872Y36762D01*
G01X48872Y36762D02*
G01X48804Y36740D01*
G01X48600Y36740D02*
G01X48804Y36740D01*
G01X48759Y36740D02*
G01X48918Y36490D01*
G01X49145Y36899D02*
G01X49100Y36876D01*
G01X49213Y36967D02*
G01X49145Y36899D01*
G01X49213Y36967D02*
G01X49213Y36490D01*
G01X49645Y36944D02*
G01X49668Y36899D01*
G01X49577Y36967D02*
G01X49645Y36944D01*
G01X49531Y36967D02*
G01X49577Y36967D01*
G01X49531Y36967D02*
G01X49463Y36944D01*
G01X49463Y36944D02*
G01X49418Y36876D01*
G01X49418Y36876D02*
G01X49395Y36762D01*
G01X49395Y36762D02*
G01X49395Y36649D01*
G01X49395Y36649D02*
G01X49418Y36558D01*
G01X49418Y36558D02*
G01X49463Y36512D01*
G01X49463Y36512D02*
G01X49531Y36490D01*
G01X49554Y36490D02*
G01X49531Y36490D01*
G01X49622Y36512D02*
G01X49554Y36490D01*
G01X49668Y36558D02*
G01X49622Y36512D01*
G01X49690Y36626D02*
G01X49668Y36558D01*
G01X49690Y36649D02*
G01X49690Y36626D01*
G01X49668Y36717D02*
G01X49690Y36649D01*
G01X49622Y36762D02*
G01X49668Y36717D01*
G01X49554Y36785D02*
G01X49622Y36762D01*
G01X49531Y36785D02*
G01X49554Y36785D01*
G01X49531Y36785D02*
G01X49463Y36762D01*
G01X49463Y36762D02*
G01X49418Y36717D01*
G01X49418Y36717D02*
G01X49395Y36649D01*
G04 Draw part R17*
G04 draw part outline for part R17*
G01X47090Y23490D02*
G01X49910Y23490D01*
G01X49910Y23490D02*
G01X49910Y22510D01*
G01X49910Y22510D02*
G01X47090Y22510D01*
G01X47090Y22510D02*
G01X47090Y23490D01*
G04 draw reference designator for part R17*
G01X48500Y24467D02*
G01X48500Y23990D01*
G01X48704Y24467D02*
G01X48500Y24467D01*
G01X48704Y24467D02*
G01X48772Y24444D01*
G01X48772Y24444D02*
G01X48795Y24421D01*
G01X48795Y24421D02*
G01X48818Y24376D01*
G01X48818Y24376D02*
G01X48818Y24330D01*
G01X48818Y24330D02*
G01X48795Y24285D01*
G01X48795Y24285D02*
G01X48772Y24262D01*
G01X48772Y24262D02*
G01X48704Y24240D01*
G01X48500Y24240D02*
G01X48704Y24240D01*
G01X48659Y24240D02*
G01X48818Y23990D01*
G01X49045Y24399D02*
G01X49000Y24376D01*
G01X49113Y24467D02*
G01X49045Y24399D01*
G01X49113Y24467D02*
G01X49113Y23990D01*
G01X49613Y24467D02*
G01X49386Y23990D01*
G01X49613Y24467D02*
G01X49295Y24467D01*
G04 Draw part R18*
G04 draw part outline for part R18*
G01X47090Y25490D02*
G01X49910Y25490D01*
G01X49910Y25490D02*
G01X49910Y24510D01*
G01X49910Y24510D02*
G01X47090Y24510D01*
G01X47090Y24510D02*
G01X47090Y25490D01*
G04 draw reference designator for part R18*
G01X48500Y26467D02*
G01X48500Y25990D01*
G01X48704Y26467D02*
G01X48500Y26467D01*
G01X48704Y26467D02*
G01X48772Y26444D01*
G01X48772Y26444D02*
G01X48795Y26421D01*
G01X48795Y26421D02*
G01X48818Y26376D01*
G01X48818Y26376D02*
G01X48818Y26330D01*
G01X48818Y26330D02*
G01X48795Y26285D01*
G01X48795Y26285D02*
G01X48772Y26262D01*
G01X48772Y26262D02*
G01X48704Y26240D01*
G01X48500Y26240D02*
G01X48704Y26240D01*
G01X48659Y26240D02*
G01X48818Y25990D01*
G01X49045Y26399D02*
G01X49000Y26376D01*
G01X49113Y26467D02*
G01X49045Y26399D01*
G01X49113Y26467D02*
G01X49113Y25990D01*
G01X49409Y26467D02*
G01X49340Y26444D01*
G01X49340Y26444D02*
G01X49318Y26399D01*
G01X49318Y26399D02*
G01X49318Y26353D01*
G01X49318Y26353D02*
G01X49340Y26308D01*
G01X49340Y26308D02*
G01X49386Y26285D01*
G01X49386Y26285D02*
G01X49477Y26262D01*
G01X49477Y26262D02*
G01X49545Y26240D01*
G01X49545Y26240D02*
G01X49590Y26194D01*
G01X49590Y26194D02*
G01X49613Y26149D01*
G01X49613Y26149D02*
G01X49613Y26080D01*
G01X49613Y26080D02*
G01X49590Y26035D01*
G01X49590Y26035D02*
G01X49568Y26012D01*
G01X49568Y26012D02*
G01X49500Y25990D01*
G01X49409Y25990D02*
G01X49500Y25990D01*
G01X49340Y26012D02*
G01X49409Y25990D01*
G01X49318Y26035D02*
G01X49340Y26012D01*
G01X49295Y26080D02*
G01X49318Y26035D01*
G01X49295Y26149D02*
G01X49295Y26080D01*
G01X49318Y26194D02*
G01X49295Y26149D01*
G01X49363Y26240D02*
G01X49318Y26194D01*
G01X49431Y26262D02*
G01X49363Y26240D01*
G01X49522Y26285D02*
G01X49431Y26262D01*
G01X49568Y26308D02*
G01X49522Y26285D01*
G01X49590Y26353D02*
G01X49568Y26308D01*
G01X49590Y26399D02*
G01X49590Y26353D01*
G01X49568Y26444D02*
G01X49590Y26399D01*
G01X49500Y26467D02*
G01X49568Y26444D01*
G01X49409Y26467D02*
G01X49500Y26467D01*
G04 Draw part R19*
G04 draw part outline for part R19*
G01X27090Y33490D02*
G01X29910Y33490D01*
G01X29910Y33490D02*
G01X29910Y32510D01*
G01X29910Y32510D02*
G01X27090Y32510D01*
G01X27090Y32510D02*
G01X27090Y33490D01*
G04 draw reference designator for part R19*
G01X28500Y34467D02*
G01X28500Y33990D01*
G01X28704Y34467D02*
G01X28500Y34467D01*
G01X28704Y34467D02*
G01X28772Y34444D01*
G01X28772Y34444D02*
G01X28795Y34421D01*
G01X28795Y34421D02*
G01X28818Y34376D01*
G01X28818Y34376D02*
G01X28818Y34330D01*
G01X28818Y34330D02*
G01X28795Y34285D01*
G01X28795Y34285D02*
G01X28772Y34262D01*
G01X28772Y34262D02*
G01X28704Y34240D01*
G01X28500Y34240D02*
G01X28704Y34240D01*
G01X28659Y34240D02*
G01X28818Y33990D01*
G01X29045Y34399D02*
G01X29000Y34376D01*
G01X29113Y34467D02*
G01X29045Y34399D01*
G01X29113Y34467D02*
G01X29113Y33990D01*
G01X29590Y34308D02*
G01X29568Y34240D01*
G01X29568Y34240D02*
G01X29522Y34194D01*
G01X29522Y34194D02*
G01X29454Y34171D01*
G01X29431Y34171D02*
G01X29454Y34171D01*
G01X29363Y34194D02*
G01X29431Y34171D01*
G01X29318Y34240D02*
G01X29363Y34194D01*
G01X29295Y34308D02*
G01X29318Y34240D01*
G01X29295Y34330D02*
G01X29295Y34308D01*
G01X29318Y34399D02*
G01X29295Y34330D01*
G01X29363Y34444D02*
G01X29318Y34399D01*
G01X29431Y34467D02*
G01X29363Y34444D01*
G01X29454Y34467D02*
G01X29431Y34467D01*
G01X29454Y34467D02*
G01X29522Y34444D01*
G01X29522Y34444D02*
G01X29568Y34399D01*
G01X29568Y34399D02*
G01X29590Y34308D01*
G01X29590Y34308D02*
G01X29590Y34194D01*
G01X29590Y34194D02*
G01X29568Y34080D01*
G01X29568Y34080D02*
G01X29522Y34012D01*
G01X29522Y34012D02*
G01X29454Y33990D01*
G01X29409Y33990D02*
G01X29454Y33990D01*
G01X29340Y34012D02*
G01X29409Y33990D01*
G01X29318Y34058D02*
G01X29340Y34012D01*
G04 Draw part R20*
G04 draw part outline for part R20*
G01X27090Y36490D02*
G01X29910Y36490D01*
G01X29910Y36490D02*
G01X29910Y35510D01*
G01X29910Y35510D02*
G01X27090Y35510D01*
G01X27090Y35510D02*
G01X27090Y36490D01*
G04 draw reference designator for part R20*
G01X28500Y37467D02*
G01X28500Y36990D01*
G01X28704Y37467D02*
G01X28500Y37467D01*
G01X28704Y37467D02*
G01X28772Y37444D01*
G01X28772Y37444D02*
G01X28795Y37421D01*
G01X28795Y37421D02*
G01X28818Y37376D01*
G01X28818Y37376D02*
G01X28818Y37330D01*
G01X28818Y37330D02*
G01X28795Y37285D01*
G01X28795Y37285D02*
G01X28772Y37262D01*
G01X28772Y37262D02*
G01X28704Y37240D01*
G01X28500Y37240D02*
G01X28704Y37240D01*
G01X28659Y37240D02*
G01X28818Y36990D01*
G01X29022Y37376D02*
G01X29022Y37353D01*
G01X29045Y37421D02*
G01X29022Y37376D01*
G01X29068Y37444D02*
G01X29045Y37421D01*
G01X29113Y37467D02*
G01X29068Y37444D01*
G01X29204Y37467D02*
G01X29113Y37467D01*
G01X29204Y37467D02*
G01X29250Y37444D01*
G01X29250Y37444D02*
G01X29272Y37421D01*
G01X29272Y37421D02*
G01X29295Y37376D01*
G01X29295Y37376D02*
G01X29295Y37330D01*
G01X29295Y37330D02*
G01X29272Y37285D01*
G01X29272Y37285D02*
G01X29227Y37217D01*
G01X29227Y37217D02*
G01X29000Y36990D01*
G01X29318Y36990D02*
G01X29000Y36990D01*
G01X29636Y37467D02*
G01X29568Y37444D01*
G01X29568Y37444D02*
G01X29522Y37376D01*
G01X29522Y37376D02*
G01X29500Y37262D01*
G01X29500Y37262D02*
G01X29500Y37194D01*
G01X29500Y37194D02*
G01X29522Y37080D01*
G01X29522Y37080D02*
G01X29568Y37012D01*
G01X29568Y37012D02*
G01X29636Y36990D01*
G01X29681Y36990D02*
G01X29636Y36990D01*
G01X29750Y37012D02*
G01X29681Y36990D01*
G01X29795Y37080D02*
G01X29750Y37012D01*
G01X29818Y37194D02*
G01X29795Y37080D01*
G01X29818Y37262D02*
G01X29818Y37194D01*
G01X29795Y37376D02*
G01X29818Y37262D01*
G01X29750Y37444D02*
G01X29795Y37376D01*
G01X29681Y37467D02*
G01X29750Y37444D01*
G01X29636Y37467D02*
G01X29681Y37467D01*
G04 Draw part R21*
G04 draw part outline for part R21*
G01X37090Y39490D02*
G01X39910Y39490D01*
G01X39910Y39490D02*
G01X39910Y38510D01*
G01X39910Y38510D02*
G01X37090Y38510D01*
G01X37090Y38510D02*
G01X37090Y39490D01*
G04 draw reference designator for part R21*
G01X38500Y40467D02*
G01X38500Y39990D01*
G01X38704Y40467D02*
G01X38500Y40467D01*
G01X38704Y40467D02*
G01X38772Y40444D01*
G01X38772Y40444D02*
G01X38795Y40421D01*
G01X38795Y40421D02*
G01X38818Y40376D01*
G01X38818Y40376D02*
G01X38818Y40330D01*
G01X38818Y40330D02*
G01X38795Y40285D01*
G01X38795Y40285D02*
G01X38772Y40262D01*
G01X38772Y40262D02*
G01X38704Y40240D01*
G01X38500Y40240D02*
G01X38704Y40240D01*
G01X38659Y40240D02*
G01X38818Y39990D01*
G01X39022Y40376D02*
G01X39022Y40353D01*
G01X39045Y40421D02*
G01X39022Y40376D01*
G01X39068Y40444D02*
G01X39045Y40421D01*
G01X39113Y40467D02*
G01X39068Y40444D01*
G01X39204Y40467D02*
G01X39113Y40467D01*
G01X39204Y40467D02*
G01X39250Y40444D01*
G01X39250Y40444D02*
G01X39272Y40421D01*
G01X39272Y40421D02*
G01X39295Y40376D01*
G01X39295Y40376D02*
G01X39295Y40330D01*
G01X39295Y40330D02*
G01X39272Y40285D01*
G01X39272Y40285D02*
G01X39227Y40217D01*
G01X39227Y40217D02*
G01X39000Y39990D01*
G01X39318Y39990D02*
G01X39000Y39990D01*
G01X39545Y40399D02*
G01X39500Y40376D01*
G01X39613Y40467D02*
G01X39545Y40399D01*
G01X39613Y40467D02*
G01X39613Y39990D01*
G04 Draw part R22*
G04 draw part outline for part R22*
G01X55490Y37910D02*
G01X55490Y35090D01*
G01X55490Y35090D02*
G01X54510Y35090D01*
G01X54510Y35090D02*
G01X54510Y37910D01*
G01X54510Y37910D02*
G01X55490Y37910D01*
G04 draw reference designator for part R22*
G01X56467Y36500D02*
G01X55990Y36500D01*
G01X56467Y36295D02*
G01X56467Y36500D01*
G01X56467Y36295D02*
G01X56444Y36227D01*
G01X56444Y36227D02*
G01X56421Y36204D01*
G01X56421Y36204D02*
G01X56376Y36181D01*
G01X56376Y36181D02*
G01X56330Y36181D01*
G01X56330Y36181D02*
G01X56285Y36204D01*
G01X56285Y36204D02*
G01X56262Y36227D01*
G01X56262Y36227D02*
G01X56240Y36295D01*
G01X56240Y36500D02*
G01X56240Y36295D01*
G01X56240Y36340D02*
G01X55990Y36181D01*
G01X56376Y35977D02*
G01X56353Y35977D01*
G01X56421Y35954D02*
G01X56376Y35977D01*
G01X56444Y35931D02*
G01X56421Y35954D01*
G01X56467Y35886D02*
G01X56444Y35931D01*
G01X56467Y35795D02*
G01X56467Y35886D01*
G01X56467Y35795D02*
G01X56444Y35750D01*
G01X56444Y35750D02*
G01X56421Y35727D01*
G01X56421Y35727D02*
G01X56376Y35704D01*
G01X56376Y35704D02*
G01X56330Y35704D01*
G01X56330Y35704D02*
G01X56285Y35727D01*
G01X56285Y35727D02*
G01X56217Y35772D01*
G01X56217Y35772D02*
G01X55990Y36000D01*
G01X55990Y35681D02*
G01X55990Y36000D01*
G01X56376Y35477D02*
G01X56353Y35477D01*
G01X56421Y35454D02*
G01X56376Y35477D01*
G01X56444Y35431D02*
G01X56421Y35454D01*
G01X56467Y35386D02*
G01X56444Y35431D01*
G01X56467Y35295D02*
G01X56467Y35386D01*
G01X56467Y35295D02*
G01X56444Y35250D01*
G01X56444Y35250D02*
G01X56421Y35227D01*
G01X56421Y35227D02*
G01X56376Y35204D01*
G01X56376Y35204D02*
G01X56330Y35204D01*
G01X56330Y35204D02*
G01X56285Y35227D01*
G01X56285Y35227D02*
G01X56217Y35272D01*
G01X56217Y35272D02*
G01X55990Y35500D01*
G01X55990Y35181D02*
G01X55990Y35500D01*
G04 Draw part R23*
G04 draw part outline for part R23*
G01X62090Y24490D02*
G01X64910Y24490D01*
G01X64910Y24490D02*
G01X64910Y23510D01*
G01X64910Y23510D02*
G01X62090Y23510D01*
G01X62090Y23510D02*
G01X62090Y24490D01*
G04 draw reference designator for part R23*
G01X63500Y25467D02*
G01X63500Y24990D01*
G01X63704Y25467D02*
G01X63500Y25467D01*
G01X63704Y25467D02*
G01X63772Y25444D01*
G01X63772Y25444D02*
G01X63795Y25421D01*
G01X63795Y25421D02*
G01X63818Y25376D01*
G01X63818Y25376D02*
G01X63818Y25330D01*
G01X63818Y25330D02*
G01X63795Y25285D01*
G01X63795Y25285D02*
G01X63772Y25262D01*
G01X63772Y25262D02*
G01X63704Y25240D01*
G01X63500Y25240D02*
G01X63704Y25240D01*
G01X63659Y25240D02*
G01X63818Y24990D01*
G01X64022Y25376D02*
G01X64022Y25353D01*
G01X64045Y25421D02*
G01X64022Y25376D01*
G01X64068Y25444D02*
G01X64045Y25421D01*
G01X64113Y25467D02*
G01X64068Y25444D01*
G01X64204Y25467D02*
G01X64113Y25467D01*
G01X64204Y25467D02*
G01X64250Y25444D01*
G01X64250Y25444D02*
G01X64272Y25421D01*
G01X64272Y25421D02*
G01X64295Y25376D01*
G01X64295Y25376D02*
G01X64295Y25330D01*
G01X64295Y25330D02*
G01X64272Y25285D01*
G01X64272Y25285D02*
G01X64227Y25217D01*
G01X64227Y25217D02*
G01X64000Y24990D01*
G01X64318Y24990D02*
G01X64000Y24990D01*
G01X64795Y25467D02*
G01X64545Y25467D01*
G01X64795Y25467D02*
G01X64659Y25285D01*
G01X64727Y25285D02*
G01X64659Y25285D01*
G01X64727Y25285D02*
G01X64772Y25262D01*
G01X64772Y25262D02*
G01X64795Y25240D01*
G01X64795Y25240D02*
G01X64818Y25171D01*
G01X64818Y25171D02*
G01X64818Y25126D01*
G01X64818Y25126D02*
G01X64795Y25058D01*
G01X64795Y25058D02*
G01X64750Y25012D01*
G01X64750Y25012D02*
G01X64681Y24990D01*
G01X64613Y24990D02*
G01X64681Y24990D01*
G01X64545Y25012D02*
G01X64613Y24990D01*
G01X64522Y25035D02*
G01X64545Y25012D01*
G01X64500Y25080D02*
G01X64522Y25035D01*
G04 Draw part R24*
G04 draw part outline for part R24*
G01X63090Y34490D02*
G01X65910Y34490D01*
G01X65910Y34490D02*
G01X65910Y33510D01*
G01X65910Y33510D02*
G01X63090Y33510D01*
G01X63090Y33510D02*
G01X63090Y34490D01*
G04 draw reference designator for part R24*
G01X64500Y35467D02*
G01X64500Y34990D01*
G01X64704Y35467D02*
G01X64500Y35467D01*
G01X64704Y35467D02*
G01X64772Y35444D01*
G01X64772Y35444D02*
G01X64795Y35421D01*
G01X64795Y35421D02*
G01X64818Y35376D01*
G01X64818Y35376D02*
G01X64818Y35330D01*
G01X64818Y35330D02*
G01X64795Y35285D01*
G01X64795Y35285D02*
G01X64772Y35262D01*
G01X64772Y35262D02*
G01X64704Y35240D01*
G01X64500Y35240D02*
G01X64704Y35240D01*
G01X64659Y35240D02*
G01X64818Y34990D01*
G01X65022Y35376D02*
G01X65022Y35353D01*
G01X65045Y35421D02*
G01X65022Y35376D01*
G01X65068Y35444D02*
G01X65045Y35421D01*
G01X65113Y35467D02*
G01X65068Y35444D01*
G01X65204Y35467D02*
G01X65113Y35467D01*
G01X65204Y35467D02*
G01X65250Y35444D01*
G01X65250Y35444D02*
G01X65272Y35421D01*
G01X65272Y35421D02*
G01X65295Y35376D01*
G01X65295Y35376D02*
G01X65295Y35330D01*
G01X65295Y35330D02*
G01X65272Y35285D01*
G01X65272Y35285D02*
G01X65227Y35217D01*
G01X65227Y35217D02*
G01X65000Y34990D01*
G01X65318Y34990D02*
G01X65000Y34990D01*
G01X65727Y35467D02*
G01X65500Y35149D01*
G01X65840Y35149D02*
G01X65500Y35149D01*
G01X65727Y35467D02*
G01X65727Y34990D01*
G04 Draw part R25*
G04 draw part outline for part R25*
G01X62290Y8390D02*
G01X65110Y8390D01*
G01X65110Y8390D02*
G01X65110Y7410D01*
G01X65110Y7410D02*
G01X62290Y7410D01*
G01X62290Y7410D02*
G01X62290Y8390D01*
G04 draw reference designator for part R25*
G01X63700Y9367D02*
G01X63700Y8890D01*
G01X63904Y9367D02*
G01X63700Y9367D01*
G01X63904Y9367D02*
G01X63972Y9344D01*
G01X63972Y9344D02*
G01X63995Y9321D01*
G01X63995Y9321D02*
G01X64018Y9276D01*
G01X64018Y9276D02*
G01X64018Y9230D01*
G01X64018Y9230D02*
G01X63995Y9185D01*
G01X63995Y9185D02*
G01X63972Y9162D01*
G01X63972Y9162D02*
G01X63904Y9140D01*
G01X63700Y9140D02*
G01X63904Y9140D01*
G01X63859Y9140D02*
G01X64018Y8890D01*
G01X64222Y9276D02*
G01X64222Y9253D01*
G01X64245Y9321D02*
G01X64222Y9276D01*
G01X64268Y9344D02*
G01X64245Y9321D01*
G01X64313Y9367D02*
G01X64268Y9344D01*
G01X64404Y9367D02*
G01X64313Y9367D01*
G01X64404Y9367D02*
G01X64450Y9344D01*
G01X64450Y9344D02*
G01X64472Y9321D01*
G01X64472Y9321D02*
G01X64495Y9276D01*
G01X64495Y9276D02*
G01X64495Y9230D01*
G01X64495Y9230D02*
G01X64472Y9185D01*
G01X64472Y9185D02*
G01X64427Y9117D01*
G01X64427Y9117D02*
G01X64200Y8890D01*
G01X64518Y8890D02*
G01X64200Y8890D01*
G01X64745Y9367D02*
G01X64972Y9367D01*
G01X64745Y9367D02*
G01X64722Y9162D01*
G01X64745Y9185D02*
G01X64722Y9162D01*
G01X64813Y9208D02*
G01X64745Y9185D01*
G01X64881Y9208D02*
G01X64813Y9208D01*
G01X64881Y9208D02*
G01X64950Y9185D01*
G01X64950Y9185D02*
G01X64995Y9140D01*
G01X64995Y9140D02*
G01X65018Y9071D01*
G01X65018Y9071D02*
G01X65018Y9026D01*
G01X65018Y9026D02*
G01X64995Y8958D01*
G01X64995Y8958D02*
G01X64950Y8912D01*
G01X64950Y8912D02*
G01X64881Y8890D01*
G01X64813Y8890D02*
G01X64881Y8890D01*
G01X64745Y8912D02*
G01X64813Y8890D01*
G01X64722Y8935D02*
G01X64745Y8912D01*
G01X64700Y8980D02*
G01X64722Y8935D01*
G04 Draw part R26*
G04 draw part outline for part R26*
G01X55490Y-2090D02*
G01X55490Y-4910D01*
G01X55490Y-4910D02*
G01X54510Y-4910D01*
G01X54510Y-4910D02*
G01X54510Y-2090D01*
G01X54510Y-2090D02*
G01X55490Y-2090D01*
G04 draw reference designator for part R26*
G01X56467Y-3500D02*
G01X55990Y-3500D01*
G01X56467Y-3704D02*
G01X56467Y-3500D01*
G01X56467Y-3704D02*
G01X56444Y-3772D01*
G01X56444Y-3772D02*
G01X56421Y-3795D01*
G01X56421Y-3795D02*
G01X56376Y-3818D01*
G01X56376Y-3818D02*
G01X56330Y-3818D01*
G01X56330Y-3818D02*
G01X56285Y-3795D01*
G01X56285Y-3795D02*
G01X56262Y-3772D01*
G01X56262Y-3772D02*
G01X56240Y-3704D01*
G01X56240Y-3500D02*
G01X56240Y-3704D01*
G01X56240Y-3659D02*
G01X55990Y-3818D01*
G01X56376Y-4022D02*
G01X56353Y-4022D01*
G01X56421Y-4045D02*
G01X56376Y-4022D01*
G01X56444Y-4068D02*
G01X56421Y-4045D01*
G01X56467Y-4113D02*
G01X56444Y-4068D01*
G01X56467Y-4204D02*
G01X56467Y-4113D01*
G01X56467Y-4204D02*
G01X56444Y-4250D01*
G01X56444Y-4250D02*
G01X56421Y-4272D01*
G01X56421Y-4272D02*
G01X56376Y-4295D01*
G01X56376Y-4295D02*
G01X56330Y-4295D01*
G01X56330Y-4295D02*
G01X56285Y-4272D01*
G01X56285Y-4272D02*
G01X56217Y-4227D01*
G01X56217Y-4227D02*
G01X55990Y-4000D01*
G01X55990Y-4318D02*
G01X55990Y-4000D01*
G01X56444Y-4750D02*
G01X56399Y-4772D01*
G01X56467Y-4681D02*
G01X56444Y-4750D01*
G01X56467Y-4636D02*
G01X56467Y-4681D01*
G01X56467Y-4636D02*
G01X56444Y-4568D01*
G01X56444Y-4568D02*
G01X56376Y-4522D01*
G01X56376Y-4522D02*
G01X56262Y-4500D01*
G01X56262Y-4500D02*
G01X56149Y-4500D01*
G01X56149Y-4500D02*
G01X56058Y-4522D01*
G01X56058Y-4522D02*
G01X56012Y-4568D01*
G01X56012Y-4568D02*
G01X55990Y-4636D01*
G01X55990Y-4659D02*
G01X55990Y-4636D01*
G01X56012Y-4727D02*
G01X55990Y-4659D01*
G01X56058Y-4772D02*
G01X56012Y-4727D01*
G01X56126Y-4795D02*
G01X56058Y-4772D01*
G01X56149Y-4795D02*
G01X56126Y-4795D01*
G01X56217Y-4772D02*
G01X56149Y-4795D01*
G01X56262Y-4727D02*
G01X56217Y-4772D01*
G01X56285Y-4659D02*
G01X56262Y-4727D01*
G01X56285Y-4636D02*
G01X56285Y-4659D01*
G01X56285Y-4636D02*
G01X56262Y-4568D01*
G01X56262Y-4568D02*
G01X56217Y-4522D01*
G01X56217Y-4522D02*
G01X56149Y-4500D01*
G04 Draw part R27*
G04 draw part outline for part R27*
G01X40490Y33910D02*
G01X40490Y31090D01*
G01X40490Y31090D02*
G01X39510Y31090D01*
G01X39510Y31090D02*
G01X39510Y33910D01*
G01X39510Y33910D02*
G01X40490Y33910D01*
G04 draw reference designator for part R27*
G01X41467Y32500D02*
G01X40990Y32500D01*
G01X41467Y32295D02*
G01X41467Y32500D01*
G01X41467Y32295D02*
G01X41444Y32227D01*
G01X41444Y32227D02*
G01X41421Y32204D01*
G01X41421Y32204D02*
G01X41376Y32181D01*
G01X41376Y32181D02*
G01X41330Y32181D01*
G01X41330Y32181D02*
G01X41285Y32204D01*
G01X41285Y32204D02*
G01X41262Y32227D01*
G01X41262Y32227D02*
G01X41240Y32295D01*
G01X41240Y32500D02*
G01X41240Y32295D01*
G01X41240Y32340D02*
G01X40990Y32181D01*
G01X41376Y31977D02*
G01X41353Y31977D01*
G01X41421Y31954D02*
G01X41376Y31977D01*
G01X41444Y31931D02*
G01X41421Y31954D01*
G01X41467Y31886D02*
G01X41444Y31931D01*
G01X41467Y31795D02*
G01X41467Y31886D01*
G01X41467Y31795D02*
G01X41444Y31750D01*
G01X41444Y31750D02*
G01X41421Y31727D01*
G01X41421Y31727D02*
G01X41376Y31704D01*
G01X41376Y31704D02*
G01X41330Y31704D01*
G01X41330Y31704D02*
G01X41285Y31727D01*
G01X41285Y31727D02*
G01X41217Y31772D01*
G01X41217Y31772D02*
G01X40990Y32000D01*
G01X40990Y31681D02*
G01X40990Y32000D01*
G01X41467Y31181D02*
G01X40990Y31409D01*
G01X41467Y31181D02*
G01X41467Y31500D01*
G04 Draw part R28*
G04 draw part outline for part R28*
G01X62190Y10890D02*
G01X65010Y10890D01*
G01X65010Y10890D02*
G01X65010Y9910D01*
G01X65010Y9910D02*
G01X62190Y9910D01*
G01X62190Y9910D02*
G01X62190Y10890D01*
G04 draw reference designator for part R28*
G01X63600Y11867D02*
G01X63600Y11390D01*
G01X63804Y11867D02*
G01X63600Y11867D01*
G01X63804Y11867D02*
G01X63872Y11844D01*
G01X63872Y11844D02*
G01X63895Y11821D01*
G01X63895Y11821D02*
G01X63918Y11776D01*
G01X63918Y11776D02*
G01X63918Y11730D01*
G01X63918Y11730D02*
G01X63895Y11685D01*
G01X63895Y11685D02*
G01X63872Y11662D01*
G01X63872Y11662D02*
G01X63804Y11640D01*
G01X63600Y11640D02*
G01X63804Y11640D01*
G01X63759Y11640D02*
G01X63918Y11390D01*
G01X64122Y11776D02*
G01X64122Y11753D01*
G01X64145Y11821D02*
G01X64122Y11776D01*
G01X64168Y11844D02*
G01X64145Y11821D01*
G01X64213Y11867D02*
G01X64168Y11844D01*
G01X64304Y11867D02*
G01X64213Y11867D01*
G01X64304Y11867D02*
G01X64350Y11844D01*
G01X64350Y11844D02*
G01X64372Y11821D01*
G01X64372Y11821D02*
G01X64395Y11776D01*
G01X64395Y11776D02*
G01X64395Y11730D01*
G01X64395Y11730D02*
G01X64372Y11685D01*
G01X64372Y11685D02*
G01X64327Y11617D01*
G01X64327Y11617D02*
G01X64100Y11390D01*
G01X64418Y11390D02*
G01X64100Y11390D01*
G01X64713Y11867D02*
G01X64645Y11844D01*
G01X64645Y11844D02*
G01X64622Y11799D01*
G01X64622Y11799D02*
G01X64622Y11753D01*
G01X64622Y11753D02*
G01X64645Y11708D01*
G01X64645Y11708D02*
G01X64690Y11685D01*
G01X64690Y11685D02*
G01X64781Y11662D01*
G01X64781Y11662D02*
G01X64850Y11640D01*
G01X64850Y11640D02*
G01X64895Y11594D01*
G01X64895Y11594D02*
G01X64918Y11549D01*
G01X64918Y11549D02*
G01X64918Y11480D01*
G01X64918Y11480D02*
G01X64895Y11435D01*
G01X64895Y11435D02*
G01X64872Y11412D01*
G01X64872Y11412D02*
G01X64804Y11390D01*
G01X64713Y11390D02*
G01X64804Y11390D01*
G01X64645Y11412D02*
G01X64713Y11390D01*
G01X64622Y11435D02*
G01X64645Y11412D01*
G01X64600Y11480D02*
G01X64622Y11435D01*
G01X64600Y11549D02*
G01X64600Y11480D01*
G01X64622Y11594D02*
G01X64600Y11549D01*
G01X64668Y11640D02*
G01X64622Y11594D01*
G01X64736Y11662D02*
G01X64668Y11640D01*
G01X64827Y11685D02*
G01X64736Y11662D01*
G01X64872Y11708D02*
G01X64827Y11685D01*
G01X64895Y11753D02*
G01X64872Y11708D01*
G01X64895Y11799D02*
G01X64895Y11753D01*
G01X64872Y11844D02*
G01X64895Y11799D01*
G01X64804Y11867D02*
G01X64872Y11844D01*
G01X64713Y11867D02*
G01X64804Y11867D01*
G04 Draw part R29*
G04 draw part outline for part R29*
G01X58490Y27910D02*
G01X58490Y25090D01*
G01X58490Y25090D02*
G01X57510Y25090D01*
G01X57510Y25090D02*
G01X57510Y27910D01*
G01X57510Y27910D02*
G01X58490Y27910D01*
G04 draw reference designator for part R29*
G01X59467Y26500D02*
G01X58990Y26500D01*
G01X59467Y26295D02*
G01X59467Y26500D01*
G01X59467Y26295D02*
G01X59444Y26227D01*
G01X59444Y26227D02*
G01X59421Y26204D01*
G01X59421Y26204D02*
G01X59376Y26181D01*
G01X59376Y26181D02*
G01X59330Y26181D01*
G01X59330Y26181D02*
G01X59285Y26204D01*
G01X59285Y26204D02*
G01X59262Y26227D01*
G01X59262Y26227D02*
G01X59240Y26295D01*
G01X59240Y26500D02*
G01X59240Y26295D01*
G01X59240Y26340D02*
G01X58990Y26181D01*
G01X59376Y25977D02*
G01X59353Y25977D01*
G01X59421Y25954D02*
G01X59376Y25977D01*
G01X59444Y25931D02*
G01X59421Y25954D01*
G01X59467Y25886D02*
G01X59444Y25931D01*
G01X59467Y25795D02*
G01X59467Y25886D01*
G01X59467Y25795D02*
G01X59444Y25750D01*
G01X59444Y25750D02*
G01X59421Y25727D01*
G01X59421Y25727D02*
G01X59376Y25704D01*
G01X59376Y25704D02*
G01X59330Y25704D01*
G01X59330Y25704D02*
G01X59285Y25727D01*
G01X59285Y25727D02*
G01X59217Y25772D01*
G01X59217Y25772D02*
G01X58990Y26000D01*
G01X58990Y25681D02*
G01X58990Y26000D01*
G01X59308Y25204D02*
G01X59240Y25227D01*
G01X59240Y25227D02*
G01X59194Y25272D01*
G01X59194Y25272D02*
G01X59171Y25340D01*
G01X59171Y25363D02*
G01X59171Y25340D01*
G01X59194Y25431D02*
G01X59171Y25363D01*
G01X59240Y25477D02*
G01X59194Y25431D01*
G01X59308Y25500D02*
G01X59240Y25477D01*
G01X59330Y25500D02*
G01X59308Y25500D01*
G01X59399Y25477D02*
G01X59330Y25500D01*
G01X59444Y25431D02*
G01X59399Y25477D01*
G01X59467Y25363D02*
G01X59444Y25431D01*
G01X59467Y25340D02*
G01X59467Y25363D01*
G01X59467Y25340D02*
G01X59444Y25272D01*
G01X59444Y25272D02*
G01X59399Y25227D01*
G01X59399Y25227D02*
G01X59308Y25204D01*
G01X59308Y25204D02*
G01X59194Y25204D01*
G01X59194Y25204D02*
G01X59080Y25227D01*
G01X59080Y25227D02*
G01X59012Y25272D01*
G01X59012Y25272D02*
G01X58990Y25340D01*
G01X58990Y25386D02*
G01X58990Y25340D01*
G01X59012Y25454D02*
G01X58990Y25386D01*
G01X59058Y25477D02*
G01X59012Y25454D01*
G04 Draw part R30*
G04 draw part outline for part R30*
G01X63090Y36490D02*
G01X65910Y36490D01*
G01X65910Y36490D02*
G01X65910Y35510D01*
G01X65910Y35510D02*
G01X63090Y35510D01*
G01X63090Y35510D02*
G01X63090Y36490D01*
G04 draw reference designator for part R30*
G01X64500Y37467D02*
G01X64500Y36990D01*
G01X64704Y37467D02*
G01X64500Y37467D01*
G01X64704Y37467D02*
G01X64772Y37444D01*
G01X64772Y37444D02*
G01X64795Y37421D01*
G01X64795Y37421D02*
G01X64818Y37376D01*
G01X64818Y37376D02*
G01X64818Y37330D01*
G01X64818Y37330D02*
G01X64795Y37285D01*
G01X64795Y37285D02*
G01X64772Y37262D01*
G01X64772Y37262D02*
G01X64704Y37240D01*
G01X64500Y37240D02*
G01X64704Y37240D01*
G01X64659Y37240D02*
G01X64818Y36990D01*
G01X65295Y37467D02*
G01X65045Y37467D01*
G01X65295Y37467D02*
G01X65159Y37285D01*
G01X65227Y37285D02*
G01X65159Y37285D01*
G01X65227Y37285D02*
G01X65272Y37262D01*
G01X65272Y37262D02*
G01X65295Y37240D01*
G01X65295Y37240D02*
G01X65318Y37171D01*
G01X65318Y37171D02*
G01X65318Y37126D01*
G01X65318Y37126D02*
G01X65295Y37058D01*
G01X65295Y37058D02*
G01X65250Y37012D01*
G01X65250Y37012D02*
G01X65181Y36990D01*
G01X65113Y36990D02*
G01X65181Y36990D01*
G01X65045Y37012D02*
G01X65113Y36990D01*
G01X65022Y37035D02*
G01X65045Y37012D01*
G01X65000Y37080D02*
G01X65022Y37035D01*
G01X65636Y37467D02*
G01X65568Y37444D01*
G01X65568Y37444D02*
G01X65522Y37376D01*
G01X65522Y37376D02*
G01X65500Y37262D01*
G01X65500Y37262D02*
G01X65500Y37194D01*
G01X65500Y37194D02*
G01X65522Y37080D01*
G01X65522Y37080D02*
G01X65568Y37012D01*
G01X65568Y37012D02*
G01X65636Y36990D01*
G01X65681Y36990D02*
G01X65636Y36990D01*
G01X65750Y37012D02*
G01X65681Y36990D01*
G01X65795Y37080D02*
G01X65750Y37012D01*
G01X65818Y37194D02*
G01X65795Y37080D01*
G01X65818Y37262D02*
G01X65818Y37194D01*
G01X65795Y37376D02*
G01X65818Y37262D01*
G01X65750Y37444D02*
G01X65795Y37376D01*
G01X65681Y37467D02*
G01X65750Y37444D01*
G01X65636Y37467D02*
G01X65681Y37467D01*
G04 Draw part R31*
G04 draw part outline for part R31*
G01X37090Y42490D02*
G01X39910Y42490D01*
G01X39910Y42490D02*
G01X39910Y41510D01*
G01X39910Y41510D02*
G01X37090Y41510D01*
G01X37090Y41510D02*
G01X37090Y42490D01*
G04 draw reference designator for part R31*
G01X38500Y43467D02*
G01X38500Y42990D01*
G01X38704Y43467D02*
G01X38500Y43467D01*
G01X38704Y43467D02*
G01X38772Y43444D01*
G01X38772Y43444D02*
G01X38795Y43421D01*
G01X38795Y43421D02*
G01X38818Y43376D01*
G01X38818Y43376D02*
G01X38818Y43330D01*
G01X38818Y43330D02*
G01X38795Y43285D01*
G01X38795Y43285D02*
G01X38772Y43262D01*
G01X38772Y43262D02*
G01X38704Y43240D01*
G01X38500Y43240D02*
G01X38704Y43240D01*
G01X38659Y43240D02*
G01X38818Y42990D01*
G01X39295Y43467D02*
G01X39045Y43467D01*
G01X39295Y43467D02*
G01X39159Y43285D01*
G01X39227Y43285D02*
G01X39159Y43285D01*
G01X39227Y43285D02*
G01X39272Y43262D01*
G01X39272Y43262D02*
G01X39295Y43240D01*
G01X39295Y43240D02*
G01X39318Y43171D01*
G01X39318Y43171D02*
G01X39318Y43126D01*
G01X39318Y43126D02*
G01X39295Y43058D01*
G01X39295Y43058D02*
G01X39250Y43012D01*
G01X39250Y43012D02*
G01X39181Y42990D01*
G01X39113Y42990D02*
G01X39181Y42990D01*
G01X39045Y43012D02*
G01X39113Y42990D01*
G01X39022Y43035D02*
G01X39045Y43012D01*
G01X39000Y43080D02*
G01X39022Y43035D01*
G01X39545Y43399D02*
G01X39500Y43376D01*
G01X39613Y43467D02*
G01X39545Y43399D01*
G01X39613Y43467D02*
G01X39613Y42990D01*
G04 Draw part R32*
G04 draw part outline for part R32*
G01X55490Y21910D02*
G01X55490Y19090D01*
G01X55490Y19090D02*
G01X54510Y19090D01*
G01X54510Y19090D02*
G01X54510Y21910D01*
G01X54510Y21910D02*
G01X55490Y21910D01*
G04 draw reference designator for part R32*
G01X56467Y20500D02*
G01X55990Y20500D01*
G01X56467Y20295D02*
G01X56467Y20500D01*
G01X56467Y20295D02*
G01X56444Y20227D01*
G01X56444Y20227D02*
G01X56421Y20204D01*
G01X56421Y20204D02*
G01X56376Y20181D01*
G01X56376Y20181D02*
G01X56330Y20181D01*
G01X56330Y20181D02*
G01X56285Y20204D01*
G01X56285Y20204D02*
G01X56262Y20227D01*
G01X56262Y20227D02*
G01X56240Y20295D01*
G01X56240Y20500D02*
G01X56240Y20295D01*
G01X56240Y20340D02*
G01X55990Y20181D01*
G01X56467Y19704D02*
G01X56467Y19954D01*
G01X56467Y19704D02*
G01X56285Y19840D01*
G01X56285Y19772D02*
G01X56285Y19840D01*
G01X56285Y19772D02*
G01X56262Y19727D01*
G01X56262Y19727D02*
G01X56240Y19704D01*
G01X56240Y19704D02*
G01X56171Y19681D01*
G01X56171Y19681D02*
G01X56126Y19681D01*
G01X56126Y19681D02*
G01X56058Y19704D01*
G01X56058Y19704D02*
G01X56012Y19750D01*
G01X56012Y19750D02*
G01X55990Y19818D01*
G01X55990Y19886D02*
G01X55990Y19818D01*
G01X56012Y19954D02*
G01X55990Y19886D01*
G01X56035Y19977D02*
G01X56012Y19954D01*
G01X56080Y20000D02*
G01X56035Y19977D01*
G01X56376Y19477D02*
G01X56353Y19477D01*
G01X56421Y19454D02*
G01X56376Y19477D01*
G01X56444Y19431D02*
G01X56421Y19454D01*
G01X56467Y19386D02*
G01X56444Y19431D01*
G01X56467Y19295D02*
G01X56467Y19386D01*
G01X56467Y19295D02*
G01X56444Y19250D01*
G01X56444Y19250D02*
G01X56421Y19227D01*
G01X56421Y19227D02*
G01X56376Y19204D01*
G01X56376Y19204D02*
G01X56330Y19204D01*
G01X56330Y19204D02*
G01X56285Y19227D01*
G01X56285Y19227D02*
G01X56217Y19272D01*
G01X56217Y19272D02*
G01X55990Y19500D01*
G01X55990Y19181D02*
G01X55990Y19500D01*
G04 Draw part R33*
G04 draw part outline for part R33*
G01X28090Y9490D02*
G01X30910Y9490D01*
G01X30910Y9490D02*
G01X30910Y8510D01*
G01X30910Y8510D02*
G01X28090Y8510D01*
G01X28090Y8510D02*
G01X28090Y9490D01*
G04 draw reference designator for part R33*
G01X29500Y10467D02*
G01X29500Y9990D01*
G01X29704Y10467D02*
G01X29500Y10467D01*
G01X29704Y10467D02*
G01X29772Y10444D01*
G01X29772Y10444D02*
G01X29795Y10421D01*
G01X29795Y10421D02*
G01X29818Y10376D01*
G01X29818Y10376D02*
G01X29818Y10330D01*
G01X29818Y10330D02*
G01X29795Y10285D01*
G01X29795Y10285D02*
G01X29772Y10262D01*
G01X29772Y10262D02*
G01X29704Y10240D01*
G01X29500Y10240D02*
G01X29704Y10240D01*
G01X29659Y10240D02*
G01X29818Y9990D01*
G01X30295Y10467D02*
G01X30045Y10467D01*
G01X30295Y10467D02*
G01X30159Y10285D01*
G01X30227Y10285D02*
G01X30159Y10285D01*
G01X30227Y10285D02*
G01X30272Y10262D01*
G01X30272Y10262D02*
G01X30295Y10240D01*
G01X30295Y10240D02*
G01X30318Y10171D01*
G01X30318Y10171D02*
G01X30318Y10126D01*
G01X30318Y10126D02*
G01X30295Y10058D01*
G01X30295Y10058D02*
G01X30250Y10012D01*
G01X30250Y10012D02*
G01X30181Y9990D01*
G01X30113Y9990D02*
G01X30181Y9990D01*
G01X30045Y10012D02*
G01X30113Y9990D01*
G01X30022Y10035D02*
G01X30045Y10012D01*
G01X30000Y10080D02*
G01X30022Y10035D01*
G01X30795Y10467D02*
G01X30545Y10467D01*
G01X30795Y10467D02*
G01X30659Y10285D01*
G01X30727Y10285D02*
G01X30659Y10285D01*
G01X30727Y10285D02*
G01X30772Y10262D01*
G01X30772Y10262D02*
G01X30795Y10240D01*
G01X30795Y10240D02*
G01X30818Y10171D01*
G01X30818Y10171D02*
G01X30818Y10126D01*
G01X30818Y10126D02*
G01X30795Y10058D01*
G01X30795Y10058D02*
G01X30750Y10012D01*
G01X30750Y10012D02*
G01X30681Y9990D01*
G01X30613Y9990D02*
G01X30681Y9990D01*
G01X30545Y10012D02*
G01X30613Y9990D01*
G01X30522Y10035D02*
G01X30545Y10012D01*
G01X30500Y10080D02*
G01X30522Y10035D01*
G04 Draw part R34*
G04 draw part outline for part R34*
G01X62090Y22490D02*
G01X64910Y22490D01*
G01X64910Y22490D02*
G01X64910Y21510D01*
G01X64910Y21510D02*
G01X62090Y21510D01*
G01X62090Y21510D02*
G01X62090Y22490D01*
G04 draw reference designator for part R34*
G01X63500Y23467D02*
G01X63500Y22990D01*
G01X63704Y23467D02*
G01X63500Y23467D01*
G01X63704Y23467D02*
G01X63772Y23444D01*
G01X63772Y23444D02*
G01X63795Y23421D01*
G01X63795Y23421D02*
G01X63818Y23376D01*
G01X63818Y23376D02*
G01X63818Y23330D01*
G01X63818Y23330D02*
G01X63795Y23285D01*
G01X63795Y23285D02*
G01X63772Y23262D01*
G01X63772Y23262D02*
G01X63704Y23240D01*
G01X63500Y23240D02*
G01X63704Y23240D01*
G01X63659Y23240D02*
G01X63818Y22990D01*
G01X64295Y23467D02*
G01X64045Y23467D01*
G01X64295Y23467D02*
G01X64159Y23285D01*
G01X64227Y23285D02*
G01X64159Y23285D01*
G01X64227Y23285D02*
G01X64272Y23262D01*
G01X64272Y23262D02*
G01X64295Y23240D01*
G01X64295Y23240D02*
G01X64318Y23171D01*
G01X64318Y23171D02*
G01X64318Y23126D01*
G01X64318Y23126D02*
G01X64295Y23058D01*
G01X64295Y23058D02*
G01X64250Y23012D01*
G01X64250Y23012D02*
G01X64181Y22990D01*
G01X64113Y22990D02*
G01X64181Y22990D01*
G01X64045Y23012D02*
G01X64113Y22990D01*
G01X64022Y23035D02*
G01X64045Y23012D01*
G01X64000Y23080D02*
G01X64022Y23035D01*
G01X64727Y23467D02*
G01X64500Y23149D01*
G01X64840Y23149D02*
G01X64500Y23149D01*
G01X64727Y23467D02*
G01X64727Y22990D01*
G04 Draw part R35*
G04 draw part outline for part R35*
G01X37090Y-1510D02*
G01X39910Y-1510D01*
G01X39910Y-1510D02*
G01X39910Y-2490D01*
G01X39910Y-2490D02*
G01X37090Y-2490D01*
G01X37090Y-2490D02*
G01X37090Y-1510D01*
G04 draw reference designator for part R35*
G01X38500Y-532D02*
G01X38500Y-1010D01*
G01X38704Y-532D02*
G01X38500Y-532D01*
G01X38704Y-532D02*
G01X38772Y-555D01*
G01X38772Y-555D02*
G01X38795Y-578D01*
G01X38795Y-578D02*
G01X38818Y-623D01*
G01X38818Y-623D02*
G01X38818Y-669D01*
G01X38818Y-669D02*
G01X38795Y-714D01*
G01X38795Y-714D02*
G01X38772Y-737D01*
G01X38772Y-737D02*
G01X38704Y-760D01*
G01X38500Y-760D02*
G01X38704Y-760D01*
G01X38659Y-760D02*
G01X38818Y-1010D01*
G01X39295Y-532D02*
G01X39045Y-532D01*
G01X39295Y-532D02*
G01X39159Y-714D01*
G01X39227Y-714D02*
G01X39159Y-714D01*
G01X39227Y-714D02*
G01X39272Y-737D01*
G01X39272Y-737D02*
G01X39295Y-760D01*
G01X39295Y-760D02*
G01X39318Y-828D01*
G01X39318Y-828D02*
G01X39318Y-873D01*
G01X39318Y-873D02*
G01X39295Y-941D01*
G01X39295Y-941D02*
G01X39250Y-987D01*
G01X39250Y-987D02*
G01X39181Y-1010D01*
G01X39113Y-1010D02*
G01X39181Y-1010D01*
G01X39045Y-987D02*
G01X39113Y-1010D01*
G01X39022Y-964D02*
G01X39045Y-987D01*
G01X39000Y-919D02*
G01X39022Y-964D01*
G01X39545Y-532D02*
G01X39772Y-532D01*
G01X39545Y-532D02*
G01X39522Y-737D01*
G01X39545Y-714D02*
G01X39522Y-737D01*
G01X39613Y-691D02*
G01X39545Y-714D01*
G01X39681Y-691D02*
G01X39613Y-691D01*
G01X39681Y-691D02*
G01X39750Y-714D01*
G01X39750Y-714D02*
G01X39795Y-760D01*
G01X39795Y-760D02*
G01X39818Y-828D01*
G01X39818Y-828D02*
G01X39818Y-873D01*
G01X39818Y-873D02*
G01X39795Y-941D01*
G01X39795Y-941D02*
G01X39750Y-987D01*
G01X39750Y-987D02*
G01X39681Y-1010D01*
G01X39613Y-1010D02*
G01X39681Y-1010D01*
G01X39545Y-987D02*
G01X39613Y-1010D01*
G01X39522Y-964D02*
G01X39545Y-987D01*
G01X39500Y-919D02*
G01X39522Y-964D01*
G04 Draw part R36*
G04 draw part outline for part R36*
G01X37090Y1490D02*
G01X39910Y1490D01*
G01X39910Y1490D02*
G01X39910Y510D01*
G01X39910Y510D02*
G01X37090Y510D01*
G01X37090Y510D02*
G01X37090Y1490D01*
G04 draw reference designator for part R36*
G01X38500Y2467D02*
G01X38500Y1990D01*
G01X38704Y2467D02*
G01X38500Y2467D01*
G01X38704Y2467D02*
G01X38772Y2444D01*
G01X38772Y2444D02*
G01X38795Y2421D01*
G01X38795Y2421D02*
G01X38818Y2376D01*
G01X38818Y2376D02*
G01X38818Y2330D01*
G01X38818Y2330D02*
G01X38795Y2285D01*
G01X38795Y2285D02*
G01X38772Y2262D01*
G01X38772Y2262D02*
G01X38704Y2240D01*
G01X38500Y2240D02*
G01X38704Y2240D01*
G01X38659Y2240D02*
G01X38818Y1990D01*
G01X39295Y2467D02*
G01X39045Y2467D01*
G01X39295Y2467D02*
G01X39159Y2285D01*
G01X39227Y2285D02*
G01X39159Y2285D01*
G01X39227Y2285D02*
G01X39272Y2262D01*
G01X39272Y2262D02*
G01X39295Y2240D01*
G01X39295Y2240D02*
G01X39318Y2171D01*
G01X39318Y2171D02*
G01X39318Y2126D01*
G01X39318Y2126D02*
G01X39295Y2058D01*
G01X39295Y2058D02*
G01X39250Y2012D01*
G01X39250Y2012D02*
G01X39181Y1990D01*
G01X39113Y1990D02*
G01X39181Y1990D01*
G01X39045Y2012D02*
G01X39113Y1990D01*
G01X39022Y2035D02*
G01X39045Y2012D01*
G01X39000Y2080D02*
G01X39022Y2035D01*
G01X39750Y2444D02*
G01X39772Y2399D01*
G01X39681Y2467D02*
G01X39750Y2444D01*
G01X39636Y2467D02*
G01X39681Y2467D01*
G01X39636Y2467D02*
G01X39568Y2444D01*
G01X39568Y2444D02*
G01X39522Y2376D01*
G01X39522Y2376D02*
G01X39500Y2262D01*
G01X39500Y2262D02*
G01X39500Y2149D01*
G01X39500Y2149D02*
G01X39522Y2058D01*
G01X39522Y2058D02*
G01X39568Y2012D01*
G01X39568Y2012D02*
G01X39636Y1990D01*
G01X39659Y1990D02*
G01X39636Y1990D01*
G01X39727Y2012D02*
G01X39659Y1990D01*
G01X39772Y2058D02*
G01X39727Y2012D01*
G01X39795Y2126D02*
G01X39772Y2058D01*
G01X39795Y2149D02*
G01X39795Y2126D01*
G01X39772Y2217D02*
G01X39795Y2149D01*
G01X39727Y2262D02*
G01X39772Y2217D01*
G01X39659Y2285D02*
G01X39727Y2262D01*
G01X39636Y2285D02*
G01X39659Y2285D01*
G01X39636Y2285D02*
G01X39568Y2262D01*
G01X39568Y2262D02*
G01X39522Y2217D01*
G01X39522Y2217D02*
G01X39500Y2149D01*
G04 Draw part R37*
G04 draw part outline for part R37*
G01X27090Y22790D02*
G01X29910Y22790D01*
G01X29910Y22790D02*
G01X29910Y21810D01*
G01X29910Y21810D02*
G01X27090Y21810D01*
G01X27090Y21810D02*
G01X27090Y22790D01*
G04 draw reference designator for part R37*
G01X28500Y23767D02*
G01X28500Y23290D01*
G01X28704Y23767D02*
G01X28500Y23767D01*
G01X28704Y23767D02*
G01X28772Y23744D01*
G01X28772Y23744D02*
G01X28795Y23721D01*
G01X28795Y23721D02*
G01X28818Y23676D01*
G01X28818Y23676D02*
G01X28818Y23630D01*
G01X28818Y23630D02*
G01X28795Y23585D01*
G01X28795Y23585D02*
G01X28772Y23562D01*
G01X28772Y23562D02*
G01X28704Y23540D01*
G01X28500Y23540D02*
G01X28704Y23540D01*
G01X28659Y23540D02*
G01X28818Y23290D01*
G01X29295Y23767D02*
G01X29045Y23767D01*
G01X29295Y23767D02*
G01X29159Y23585D01*
G01X29227Y23585D02*
G01X29159Y23585D01*
G01X29227Y23585D02*
G01X29272Y23562D01*
G01X29272Y23562D02*
G01X29295Y23540D01*
G01X29295Y23540D02*
G01X29318Y23471D01*
G01X29318Y23471D02*
G01X29318Y23426D01*
G01X29318Y23426D02*
G01X29295Y23358D01*
G01X29295Y23358D02*
G01X29250Y23312D01*
G01X29250Y23312D02*
G01X29181Y23290D01*
G01X29113Y23290D02*
G01X29181Y23290D01*
G01X29045Y23312D02*
G01X29113Y23290D01*
G01X29022Y23335D02*
G01X29045Y23312D01*
G01X29000Y23380D02*
G01X29022Y23335D01*
G01X29818Y23767D02*
G01X29590Y23290D01*
G01X29818Y23767D02*
G01X29500Y23767D01*
G04 Draw part R38*
G04 draw part outline for part R38*
G01X28090Y11490D02*
G01X30910Y11490D01*
G01X30910Y11490D02*
G01X30910Y10510D01*
G01X30910Y10510D02*
G01X28090Y10510D01*
G01X28090Y10510D02*
G01X28090Y11490D01*
G04 draw reference designator for part R38*
G01X29500Y12467D02*
G01X29500Y11990D01*
G01X29704Y12467D02*
G01X29500Y12467D01*
G01X29704Y12467D02*
G01X29772Y12444D01*
G01X29772Y12444D02*
G01X29795Y12421D01*
G01X29795Y12421D02*
G01X29818Y12376D01*
G01X29818Y12376D02*
G01X29818Y12330D01*
G01X29818Y12330D02*
G01X29795Y12285D01*
G01X29795Y12285D02*
G01X29772Y12262D01*
G01X29772Y12262D02*
G01X29704Y12240D01*
G01X29500Y12240D02*
G01X29704Y12240D01*
G01X29659Y12240D02*
G01X29818Y11990D01*
G01X30295Y12467D02*
G01X30045Y12467D01*
G01X30295Y12467D02*
G01X30159Y12285D01*
G01X30227Y12285D02*
G01X30159Y12285D01*
G01X30227Y12285D02*
G01X30272Y12262D01*
G01X30272Y12262D02*
G01X30295Y12240D01*
G01X30295Y12240D02*
G01X30318Y12171D01*
G01X30318Y12171D02*
G01X30318Y12126D01*
G01X30318Y12126D02*
G01X30295Y12058D01*
G01X30295Y12058D02*
G01X30250Y12012D01*
G01X30250Y12012D02*
G01X30181Y11990D01*
G01X30113Y11990D02*
G01X30181Y11990D01*
G01X30045Y12012D02*
G01X30113Y11990D01*
G01X30022Y12035D02*
G01X30045Y12012D01*
G01X30000Y12080D02*
G01X30022Y12035D01*
G01X30613Y12467D02*
G01X30545Y12444D01*
G01X30545Y12444D02*
G01X30522Y12399D01*
G01X30522Y12399D02*
G01X30522Y12353D01*
G01X30522Y12353D02*
G01X30545Y12308D01*
G01X30545Y12308D02*
G01X30590Y12285D01*
G01X30590Y12285D02*
G01X30681Y12262D01*
G01X30681Y12262D02*
G01X30750Y12240D01*
G01X30750Y12240D02*
G01X30795Y12194D01*
G01X30795Y12194D02*
G01X30818Y12149D01*
G01X30818Y12149D02*
G01X30818Y12080D01*
G01X30818Y12080D02*
G01X30795Y12035D01*
G01X30795Y12035D02*
G01X30772Y12012D01*
G01X30772Y12012D02*
G01X30704Y11990D01*
G01X30613Y11990D02*
G01X30704Y11990D01*
G01X30545Y12012D02*
G01X30613Y11990D01*
G01X30522Y12035D02*
G01X30545Y12012D01*
G01X30500Y12080D02*
G01X30522Y12035D01*
G01X30500Y12149D02*
G01X30500Y12080D01*
G01X30522Y12194D02*
G01X30500Y12149D01*
G01X30568Y12240D02*
G01X30522Y12194D01*
G01X30636Y12262D02*
G01X30568Y12240D01*
G01X30727Y12285D02*
G01X30636Y12262D01*
G01X30772Y12308D02*
G01X30727Y12285D01*
G01X30795Y12353D02*
G01X30772Y12308D01*
G01X30795Y12399D02*
G01X30795Y12353D01*
G01X30772Y12444D02*
G01X30795Y12399D01*
G01X30704Y12467D02*
G01X30772Y12444D01*
G01X30613Y12467D02*
G01X30704Y12467D01*
G04 Draw part R39*
G04 draw part outline for part R39*
G01X27090Y25090D02*
G01X29910Y25090D01*
G01X29910Y25090D02*
G01X29910Y24110D01*
G01X29910Y24110D02*
G01X27090Y24110D01*
G01X27090Y24110D02*
G01X27090Y25090D01*
G04 draw reference designator for part R39*
G01X28500Y26067D02*
G01X28500Y25590D01*
G01X28704Y26067D02*
G01X28500Y26067D01*
G01X28704Y26067D02*
G01X28772Y26044D01*
G01X28772Y26044D02*
G01X28795Y26021D01*
G01X28795Y26021D02*
G01X28818Y25976D01*
G01X28818Y25976D02*
G01X28818Y25930D01*
G01X28818Y25930D02*
G01X28795Y25885D01*
G01X28795Y25885D02*
G01X28772Y25862D01*
G01X28772Y25862D02*
G01X28704Y25840D01*
G01X28500Y25840D02*
G01X28704Y25840D01*
G01X28659Y25840D02*
G01X28818Y25590D01*
G01X29295Y26067D02*
G01X29045Y26067D01*
G01X29295Y26067D02*
G01X29159Y25885D01*
G01X29227Y25885D02*
G01X29159Y25885D01*
G01X29227Y25885D02*
G01X29272Y25862D01*
G01X29272Y25862D02*
G01X29295Y25840D01*
G01X29295Y25840D02*
G01X29318Y25771D01*
G01X29318Y25771D02*
G01X29318Y25726D01*
G01X29318Y25726D02*
G01X29295Y25658D01*
G01X29295Y25658D02*
G01X29250Y25612D01*
G01X29250Y25612D02*
G01X29181Y25590D01*
G01X29113Y25590D02*
G01X29181Y25590D01*
G01X29045Y25612D02*
G01X29113Y25590D01*
G01X29022Y25635D02*
G01X29045Y25612D01*
G01X29000Y25680D02*
G01X29022Y25635D01*
G01X29795Y25908D02*
G01X29772Y25840D01*
G01X29772Y25840D02*
G01X29727Y25794D01*
G01X29727Y25794D02*
G01X29659Y25771D01*
G01X29636Y25771D02*
G01X29659Y25771D01*
G01X29568Y25794D02*
G01X29636Y25771D01*
G01X29522Y25840D02*
G01X29568Y25794D01*
G01X29500Y25908D02*
G01X29522Y25840D01*
G01X29500Y25930D02*
G01X29500Y25908D01*
G01X29522Y25999D02*
G01X29500Y25930D01*
G01X29568Y26044D02*
G01X29522Y25999D01*
G01X29636Y26067D02*
G01X29568Y26044D01*
G01X29659Y26067D02*
G01X29636Y26067D01*
G01X29659Y26067D02*
G01X29727Y26044D01*
G01X29727Y26044D02*
G01X29772Y25999D01*
G01X29772Y25999D02*
G01X29795Y25908D01*
G01X29795Y25908D02*
G01X29795Y25794D01*
G01X29795Y25794D02*
G01X29772Y25680D01*
G01X29772Y25680D02*
G01X29727Y25612D01*
G01X29727Y25612D02*
G01X29659Y25590D01*
G01X29613Y25590D02*
G01X29659Y25590D01*
G01X29545Y25612D02*
G01X29613Y25590D01*
G01X29522Y25658D02*
G01X29545Y25612D01*
G04 Draw part R40*
G04 draw part outline for part R40*
G01X37490Y26910D02*
G01X37490Y24090D01*
G01X37490Y24090D02*
G01X36510Y24090D01*
G01X36510Y24090D02*
G01X36510Y26910D01*
G01X36510Y26910D02*
G01X37490Y26910D01*
G04 draw reference designator for part R40*
G01X38467Y25500D02*
G01X37990Y25500D01*
G01X38467Y25295D02*
G01X38467Y25500D01*
G01X38467Y25295D02*
G01X38444Y25227D01*
G01X38444Y25227D02*
G01X38421Y25204D01*
G01X38421Y25204D02*
G01X38376Y25181D01*
G01X38376Y25181D02*
G01X38330Y25181D01*
G01X38330Y25181D02*
G01X38285Y25204D01*
G01X38285Y25204D02*
G01X38262Y25227D01*
G01X38262Y25227D02*
G01X38240Y25295D01*
G01X38240Y25500D02*
G01X38240Y25295D01*
G01X38240Y25340D02*
G01X37990Y25181D01*
G01X38467Y24772D02*
G01X38149Y25000D01*
G01X38149Y24659D02*
G01X38149Y25000D01*
G01X38467Y24772D02*
G01X37990Y24772D01*
G01X38467Y24340D02*
G01X38444Y24409D01*
G01X38444Y24409D02*
G01X38376Y24454D01*
G01X38376Y24454D02*
G01X38262Y24477D01*
G01X38262Y24477D02*
G01X38194Y24477D01*
G01X38194Y24477D02*
G01X38080Y24454D01*
G01X38080Y24454D02*
G01X38012Y24409D01*
G01X38012Y24409D02*
G01X37990Y24340D01*
G01X37990Y24295D02*
G01X37990Y24340D01*
G01X38012Y24227D02*
G01X37990Y24295D01*
G01X38080Y24181D02*
G01X38012Y24227D01*
G01X38194Y24159D02*
G01X38080Y24181D01*
G01X38262Y24159D02*
G01X38194Y24159D01*
G01X38376Y24181D02*
G01X38262Y24159D01*
G01X38444Y24227D02*
G01X38376Y24181D01*
G01X38467Y24295D02*
G01X38444Y24227D01*
G01X38467Y24340D02*
G01X38467Y24295D01*
G04 Draw part R41*
G04 draw part outline for part R41*
G01X37490Y7910D02*
G01X37490Y5090D01*
G01X37490Y5090D02*
G01X36510Y5090D01*
G01X36510Y5090D02*
G01X36510Y7910D01*
G01X36510Y7910D02*
G01X37490Y7910D01*
G04 draw reference designator for part R41*
G01X38467Y6800D02*
G01X37990Y6800D01*
G01X38467Y6595D02*
G01X38467Y6800D01*
G01X38467Y6595D02*
G01X38444Y6527D01*
G01X38444Y6527D02*
G01X38421Y6504D01*
G01X38421Y6504D02*
G01X38376Y6481D01*
G01X38376Y6481D02*
G01X38330Y6481D01*
G01X38330Y6481D02*
G01X38285Y6504D01*
G01X38285Y6504D02*
G01X38262Y6527D01*
G01X38262Y6527D02*
G01X38240Y6595D01*
G01X38240Y6800D02*
G01X38240Y6595D01*
G01X38240Y6640D02*
G01X37990Y6481D01*
G01X38467Y6072D02*
G01X38149Y6300D01*
G01X38149Y5959D02*
G01X38149Y6300D01*
G01X38467Y6072D02*
G01X37990Y6072D01*
G01X38399Y5731D02*
G01X38376Y5777D01*
G01X38467Y5663D02*
G01X38399Y5731D01*
G01X38467Y5663D02*
G01X37990Y5663D01*
G04 Draw part R42*
G04 draw part outline for part R42*
G01X37490Y17910D02*
G01X37490Y15090D01*
G01X37490Y15090D02*
G01X36510Y15090D01*
G01X36510Y15090D02*
G01X36510Y17910D01*
G01X36510Y17910D02*
G01X37490Y17910D01*
G04 draw reference designator for part R42*
G01X38467Y16500D02*
G01X37990Y16500D01*
G01X38467Y16295D02*
G01X38467Y16500D01*
G01X38467Y16295D02*
G01X38444Y16227D01*
G01X38444Y16227D02*
G01X38421Y16204D01*
G01X38421Y16204D02*
G01X38376Y16181D01*
G01X38376Y16181D02*
G01X38330Y16181D01*
G01X38330Y16181D02*
G01X38285Y16204D01*
G01X38285Y16204D02*
G01X38262Y16227D01*
G01X38262Y16227D02*
G01X38240Y16295D01*
G01X38240Y16500D02*
G01X38240Y16295D01*
G01X38240Y16340D02*
G01X37990Y16181D01*
G01X38467Y15772D02*
G01X38149Y16000D01*
G01X38149Y15659D02*
G01X38149Y16000D01*
G01X38467Y15772D02*
G01X37990Y15772D01*
G01X38376Y15454D02*
G01X38353Y15454D01*
G01X38421Y15431D02*
G01X38376Y15454D01*
G01X38444Y15409D02*
G01X38421Y15431D01*
G01X38467Y15363D02*
G01X38444Y15409D01*
G01X38467Y15272D02*
G01X38467Y15363D01*
G01X38467Y15272D02*
G01X38444Y15227D01*
G01X38444Y15227D02*
G01X38421Y15204D01*
G01X38421Y15204D02*
G01X38376Y15181D01*
G01X38376Y15181D02*
G01X38330Y15181D01*
G01X38330Y15181D02*
G01X38285Y15204D01*
G01X38285Y15204D02*
G01X38217Y15250D01*
G01X38217Y15250D02*
G01X37990Y15477D01*
G01X37990Y15159D02*
G01X37990Y15477D01*
G04 Draw part X$XXiA$XXsw*
G04 draw part outline for part X$XXiA$XXsw*
G54D12*
G01X10800Y37100D02*
G01X10800Y35100D01*
G01X10800Y35100D02*
G01X17800Y35100D01*
G01X17800Y35100D02*
G01X17800Y37100D01*
G01X17800Y37100D02*
G01X10800Y37100D01*
G04 draw reference designator for part X$XXiA$XXsw*
G54D10*
G01X24277Y34100D02*
G01X23800Y33781D01*
G01X24277Y33781D02*
G01X23800Y34100D01*
G01X24368Y33486D02*
G01X23709Y33486D01*
G01X24368Y33395D02*
G01X23709Y33395D01*
G01X24254Y33327D02*
G01X24209Y33281D01*
G01X24277Y33395D02*
G01X24254Y33327D01*
G01X24277Y33486D02*
G01X24277Y33395D01*
G01X24277Y33486D02*
G01X24254Y33554D01*
G01X24254Y33554D02*
G01X24209Y33600D01*
G01X24209Y33600D02*
G01X24163Y33600D01*
G01X24163Y33600D02*
G01X24118Y33577D01*
G01X24118Y33577D02*
G01X24095Y33554D01*
G01X24095Y33554D02*
G01X24072Y33509D01*
G01X24072Y33509D02*
G01X24027Y33372D01*
G01X24027Y33372D02*
G01X24004Y33327D01*
G01X24004Y33327D02*
G01X23981Y33304D01*
G01X23981Y33304D02*
G01X23936Y33281D01*
G01X23936Y33281D02*
G01X23868Y33281D01*
G01X23868Y33281D02*
G01X23822Y33327D01*
G01X23822Y33327D02*
G01X23800Y33395D01*
G01X23800Y33486D02*
G01X23800Y33395D01*
G01X23822Y33554D02*
G01X23800Y33486D01*
G01X23868Y33600D02*
G01X23822Y33554D01*
G01X24277Y33100D02*
G01X23800Y32781D01*
G01X24277Y32781D02*
G01X23800Y33100D01*
G01X24277Y32600D02*
G01X23800Y32281D01*
G01X24277Y32281D02*
G01X23800Y32600D01*
G01X24277Y32100D02*
G01X24254Y32077D01*
G01X24277Y32054D02*
G01X24254Y32077D01*
G01X24300Y32077D02*
G01X24277Y32054D01*
G01X24300Y32077D02*
G01X24277Y32100D01*
G01X24118Y32077D02*
G01X23800Y32077D01*
G01X24277Y31690D02*
G01X23800Y31872D01*
G01X24277Y31690D02*
G01X23800Y31509D01*
G01X23959Y31577D02*
G01X23959Y31804D01*
G01X24368Y31213D02*
G01X23709Y31213D01*
G01X24368Y31122D02*
G01X23709Y31122D01*
G01X24254Y31054D02*
G01X24209Y31009D01*
G01X24277Y31122D02*
G01X24254Y31054D01*
G01X24277Y31213D02*
G01X24277Y31122D01*
G01X24277Y31213D02*
G01X24254Y31281D01*
G01X24254Y31281D02*
G01X24209Y31327D01*
G01X24209Y31327D02*
G01X24163Y31327D01*
G01X24163Y31327D02*
G01X24118Y31304D01*
G01X24118Y31304D02*
G01X24095Y31281D01*
G01X24095Y31281D02*
G01X24072Y31236D01*
G01X24072Y31236D02*
G01X24027Y31100D01*
G01X24027Y31100D02*
G01X24004Y31054D01*
G01X24004Y31054D02*
G01X23981Y31031D01*
G01X23981Y31031D02*
G01X23936Y31009D01*
G01X23936Y31009D02*
G01X23868Y31009D01*
G01X23868Y31009D02*
G01X23822Y31054D01*
G01X23822Y31054D02*
G01X23800Y31122D01*
G01X23800Y31213D02*
G01X23800Y31122D01*
G01X23822Y31281D02*
G01X23800Y31213D01*
G01X23868Y31327D02*
G01X23822Y31281D01*
G01X24277Y30827D02*
G01X23800Y30509D01*
G01X24277Y30509D02*
G01X23800Y30827D01*
G01X24277Y30327D02*
G01X23800Y30009D01*
G01X24277Y30009D02*
G01X23800Y30327D01*
G01X24095Y29600D02*
G01X24050Y29577D01*
G01X24118Y29668D02*
G01X24095Y29600D01*
G01X24118Y29736D02*
G01X24118Y29668D01*
G01X24118Y29736D02*
G01X24095Y29804D01*
G01X24095Y29804D02*
G01X24050Y29827D01*
G01X24050Y29827D02*
G01X24004Y29804D01*
G01X24004Y29804D02*
G01X23981Y29759D01*
G01X23981Y29759D02*
G01X23959Y29645D01*
G01X23959Y29645D02*
G01X23936Y29600D01*
G01X23936Y29600D02*
G01X23890Y29577D01*
G01X23890Y29577D02*
G01X23868Y29577D01*
G01X23868Y29577D02*
G01X23822Y29600D01*
G01X23822Y29600D02*
G01X23800Y29668D01*
G01X23800Y29736D02*
G01X23800Y29668D01*
G01X23822Y29804D02*
G01X23800Y29736D01*
G01X23868Y29827D02*
G01X23822Y29804D01*
G01X24118Y29395D02*
G01X23800Y29304D01*
G01X24118Y29213D02*
G01X23800Y29304D01*
G01X24118Y29213D02*
G01X23800Y29122D01*
G01X24118Y29031D02*
G01X23800Y29122D01*
G04 Draw part X$XXiB$XXsw*
G04 draw part outline for part X$XXiB$XXsw*
G54D12*
G01X10800Y32100D02*
G01X10800Y30100D01*
G01X10800Y30100D02*
G01X17800Y30100D01*
G01X17800Y30100D02*
G01X17800Y32100D01*
G01X17800Y32100D02*
G01X10800Y32100D01*
G04 Draw part X$XXiC$XXsw*
G04 draw part outline for part X$XXiC$XXsw*
G01X10800Y27100D02*
G01X10800Y25100D01*
G01X10800Y25100D02*
G01X17800Y25100D01*
G01X17800Y25100D02*
G01X17800Y27100D01*
G01X17800Y27100D02*
G01X10800Y27100D01*
G04 Draw part X$XX0A$XXsw*
G04 draw part outline for part X$XX0A$XXsw*
G01X10800Y19600D02*
G01X10800Y17600D01*
G01X10800Y17600D02*
G01X17800Y17600D01*
G01X17800Y17600D02*
G01X17800Y19600D01*
G01X17800Y19600D02*
G01X10800Y19600D01*
G04 Draw part X$XX0B$XXsw*
G04 draw part outline for part X$XX0B$XXsw*
G01X10800Y14600D02*
G01X10800Y12600D01*
G01X10800Y12600D02*
G01X17800Y12600D01*
G01X17800Y12600D02*
G01X17800Y14600D01*
G01X17800Y14600D02*
G01X10800Y14600D01*
G04 Draw part X$XX0C$XXsw*
G04 draw part outline for part X$XX0C$XXsw*
G01X10800Y9600D02*
G01X10800Y7600D01*
G01X10800Y7600D02*
G01X17800Y7600D01*
G01X17800Y7600D02*
G01X17800Y9600D01*
G01X17800Y9600D02*
G01X10800Y9600D01*
G04 Draw part X$XX1A$XXsw*
G04 draw part outline for part X$XX1A$XXsw*
G01X10800Y2100D02*
G01X10800Y100D01*
G01X10800Y100D02*
G01X17800Y100D01*
G01X17800Y100D02*
G01X17800Y2100D01*
G01X17800Y2100D02*
G01X10800Y2100D01*
G04 Draw part X$XX1B$XXsw*
G04 draw part outline for part X$XX1B$XXsw*
G01X10800Y-2900D02*
G01X10800Y-4900D01*
G01X10800Y-4900D02*
G01X17800Y-4900D01*
G01X17800Y-4900D02*
G01X17800Y-2900D01*
G01X17800Y-2900D02*
G01X10800Y-2900D01*
G04 Draw part X$XX1C$XXsw*
G04 draw part outline for part X$XX1C$XXsw*
G01X10800Y-7900D02*
G01X10800Y-9900D01*
G01X10800Y-9900D02*
G01X17800Y-9900D01*
G01X17800Y-9900D02*
G01X17800Y-7900D01*
G01X17800Y-7900D02*
G01X10800Y-7900D01*
G04 Draw part V$XX1$Vdd*
G04 draw part outline for part V$XX1$Vdd*
G04 draw reference designator for part V$XX1$Vdd*
G54D11*
G01X62000Y-12077D02*
G01X61818Y-11600D01*
G01X61636Y-12077D02*
G01X61818Y-11600D01*
G01X61340Y-12168D02*
G01X61340Y-11509D01*
G01X61250Y-12168D02*
G01X61250Y-11509D01*
G01X61181Y-12054D02*
G01X61136Y-12009D01*
G01X61250Y-12077D02*
G01X61181Y-12054D01*
G01X61340Y-12077D02*
G01X61250Y-12077D01*
G01X61340Y-12077D02*
G01X61409Y-12054D01*
G01X61409Y-12054D02*
G01X61454Y-12009D01*
G01X61454Y-12009D02*
G01X61454Y-11963D01*
G01X61454Y-11963D02*
G01X61431Y-11918D01*
G01X61431Y-11918D02*
G01X61409Y-11895D01*
G01X61409Y-11895D02*
G01X61363Y-11872D01*
G01X61363Y-11872D02*
G01X61227Y-11827D01*
G01X61227Y-11827D02*
G01X61181Y-11804D01*
G01X61181Y-11804D02*
G01X61159Y-11781D01*
G01X61159Y-11781D02*
G01X61136Y-11736D01*
G01X61136Y-11736D02*
G01X61136Y-11668D01*
G01X61136Y-11668D02*
G01X61181Y-11622D01*
G01X61181Y-11622D02*
G01X61250Y-11600D01*
G01X61340Y-11600D02*
G01X61250Y-11600D01*
G01X61409Y-11622D02*
G01X61340Y-11600D01*
G01X61454Y-11668D02*
G01X61409Y-11622D01*
G01X60954Y-12077D02*
G01X60636Y-11600D01*
G01X60636Y-12077D02*
G01X60954Y-11600D01*
G01X60454Y-12077D02*
G01X60136Y-11600D01*
G01X60136Y-12077D02*
G01X60454Y-11600D01*
G01X59909Y-12009D02*
G01X59954Y-11986D01*
G01X59840Y-12077D02*
G01X59909Y-12009D01*
G01X59840Y-12077D02*
G01X59840Y-11600D01*
G01X59545Y-12168D02*
G01X59545Y-11509D01*
G01X59454Y-12168D02*
G01X59454Y-11509D01*
G01X59386Y-12054D02*
G01X59340Y-12009D01*
G01X59454Y-12077D02*
G01X59386Y-12054D01*
G01X59545Y-12077D02*
G01X59454Y-12077D01*
G01X59545Y-12077D02*
G01X59613Y-12054D01*
G01X59613Y-12054D02*
G01X59659Y-12009D01*
G01X59659Y-12009D02*
G01X59659Y-11963D01*
G01X59659Y-11963D02*
G01X59636Y-11918D01*
G01X59636Y-11918D02*
G01X59613Y-11895D01*
G01X59613Y-11895D02*
G01X59568Y-11872D01*
G01X59568Y-11872D02*
G01X59431Y-11827D01*
G01X59431Y-11827D02*
G01X59386Y-11804D01*
G01X59386Y-11804D02*
G01X59363Y-11781D01*
G01X59363Y-11781D02*
G01X59340Y-11736D01*
G01X59340Y-11736D02*
G01X59340Y-11668D01*
G01X59340Y-11668D02*
G01X59386Y-11622D01*
G01X59386Y-11622D02*
G01X59454Y-11600D01*
G01X59545Y-11600D02*
G01X59454Y-11600D01*
G01X59613Y-11622D02*
G01X59545Y-11600D01*
G01X59659Y-11668D02*
G01X59613Y-11622D01*
G01X59159Y-12077D02*
G01X58977Y-11600D01*
G01X58795Y-12077D02*
G01X58977Y-11600D01*
G01X58340Y-12077D02*
G01X58340Y-11600D01*
G01X58386Y-11895D02*
G01X58340Y-11850D01*
G01X58431Y-11918D02*
G01X58386Y-11895D01*
G01X58500Y-11918D02*
G01X58431Y-11918D01*
G01X58500Y-11918D02*
G01X58545Y-11895D01*
G01X58545Y-11895D02*
G01X58590Y-11850D01*
G01X58590Y-11850D02*
G01X58613Y-11781D01*
G01X58613Y-11781D02*
G01X58613Y-11736D01*
G01X58613Y-11736D02*
G01X58590Y-11668D01*
G01X58590Y-11668D02*
G01X58545Y-11622D01*
G01X58545Y-11622D02*
G01X58500Y-11600D01*
G01X58431Y-11600D02*
G01X58500Y-11600D01*
G01X58386Y-11622D02*
G01X58431Y-11600D01*
G01X58340Y-11668D02*
G01X58386Y-11622D01*
G01X57886Y-12077D02*
G01X57886Y-11600D01*
G01X57931Y-11895D02*
G01X57886Y-11850D01*
G01X57977Y-11918D02*
G01X57931Y-11895D01*
G01X58045Y-11918D02*
G01X57977Y-11918D01*
G01X58045Y-11918D02*
G01X58090Y-11895D01*
G01X58090Y-11895D02*
G01X58136Y-11850D01*
G01X58136Y-11850D02*
G01X58159Y-11781D01*
G01X58159Y-11781D02*
G01X58159Y-11736D01*
G01X58159Y-11736D02*
G01X58136Y-11668D01*
G01X58136Y-11668D02*
G01X58090Y-11622D01*
G01X58090Y-11622D02*
G01X58045Y-11600D01*
G01X57977Y-11600D02*
G01X58045Y-11600D01*
G01X57931Y-11622D02*
G01X57977Y-11600D01*
G01X57886Y-11668D02*
G01X57931Y-11622D01*
G04 Draw part V$XX1$Vss*
G04 draw part outline for part V$XX1$Vss*
G04 draw reference designator for part V$XX1$Vss*
G01X58000Y-8922D02*
G01X58181Y-9400D01*
G01X58363Y-8922D02*
G01X58181Y-9400D01*
G01X58659Y-8831D02*
G01X58659Y-9490D01*
G01X58750Y-8831D02*
G01X58750Y-9490D01*
G01X58818Y-8945D02*
G01X58863Y-8990D01*
G01X58750Y-8922D02*
G01X58818Y-8945D01*
G01X58659Y-8922D02*
G01X58750Y-8922D01*
G01X58659Y-8922D02*
G01X58590Y-8945D01*
G01X58590Y-8945D02*
G01X58545Y-8990D01*
G01X58545Y-8990D02*
G01X58545Y-9036D01*
G01X58545Y-9036D02*
G01X58568Y-9081D01*
G01X58568Y-9081D02*
G01X58590Y-9104D01*
G01X58590Y-9104D02*
G01X58636Y-9127D01*
G01X58636Y-9127D02*
G01X58772Y-9172D01*
G01X58772Y-9172D02*
G01X58818Y-9195D01*
G01X58818Y-9195D02*
G01X58840Y-9218D01*
G01X58840Y-9218D02*
G01X58863Y-9263D01*
G01X58863Y-9263D02*
G01X58863Y-9331D01*
G01X58863Y-9331D02*
G01X58818Y-9377D01*
G01X58818Y-9377D02*
G01X58750Y-9400D01*
G01X58659Y-9400D02*
G01X58750Y-9400D01*
G01X58590Y-9377D02*
G01X58659Y-9400D01*
G01X58545Y-9331D02*
G01X58590Y-9377D01*
G01X59045Y-8922D02*
G01X59363Y-9400D01*
G01X59363Y-8922D02*
G01X59045Y-9400D01*
G01X59545Y-8922D02*
G01X59863Y-9400D01*
G01X59863Y-8922D02*
G01X59545Y-9400D01*
G01X60090Y-8990D02*
G01X60045Y-9013D01*
G01X60159Y-8922D02*
G01X60090Y-8990D01*
G01X60159Y-8922D02*
G01X60159Y-9400D01*
G01X60454Y-8831D02*
G01X60454Y-9490D01*
G01X60545Y-8831D02*
G01X60545Y-9490D01*
G01X60613Y-8945D02*
G01X60659Y-8990D01*
G01X60545Y-8922D02*
G01X60613Y-8945D01*
G01X60454Y-8922D02*
G01X60545Y-8922D01*
G01X60454Y-8922D02*
G01X60386Y-8945D01*
G01X60386Y-8945D02*
G01X60340Y-8990D01*
G01X60340Y-8990D02*
G01X60340Y-9036D01*
G01X60340Y-9036D02*
G01X60363Y-9081D01*
G01X60363Y-9081D02*
G01X60386Y-9104D01*
G01X60386Y-9104D02*
G01X60431Y-9127D01*
G01X60431Y-9127D02*
G01X60568Y-9172D01*
G01X60568Y-9172D02*
G01X60613Y-9195D01*
G01X60613Y-9195D02*
G01X60636Y-9218D01*
G01X60636Y-9218D02*
G01X60659Y-9263D01*
G01X60659Y-9263D02*
G01X60659Y-9331D01*
G01X60659Y-9331D02*
G01X60613Y-9377D01*
G01X60613Y-9377D02*
G01X60545Y-9400D01*
G01X60454Y-9400D02*
G01X60545Y-9400D01*
G01X60386Y-9377D02*
G01X60454Y-9400D01*
G01X60340Y-9331D02*
G01X60386Y-9377D01*
G01X60840Y-8922D02*
G01X61022Y-9400D01*
G01X61204Y-8922D02*
G01X61022Y-9400D01*
G01X61613Y-9104D02*
G01X61636Y-9150D01*
G01X61545Y-9081D02*
G01X61613Y-9104D01*
G01X61477Y-9081D02*
G01X61545Y-9081D01*
G01X61477Y-9081D02*
G01X61409Y-9104D01*
G01X61409Y-9104D02*
G01X61386Y-9150D01*
G01X61386Y-9150D02*
G01X61409Y-9195D01*
G01X61409Y-9195D02*
G01X61454Y-9218D01*
G01X61454Y-9218D02*
G01X61568Y-9240D01*
G01X61568Y-9240D02*
G01X61613Y-9263D01*
G01X61613Y-9263D02*
G01X61636Y-9309D01*
G01X61636Y-9309D02*
G01X61636Y-9331D01*
G01X61636Y-9331D02*
G01X61613Y-9377D01*
G01X61613Y-9377D02*
G01X61545Y-9400D01*
G01X61477Y-9400D02*
G01X61545Y-9400D01*
G01X61409Y-9377D02*
G01X61477Y-9400D01*
G01X61386Y-9331D02*
G01X61409Y-9377D01*
G01X62045Y-9104D02*
G01X62068Y-9150D01*
G01X61977Y-9081D02*
G01X62045Y-9104D01*
G01X61909Y-9081D02*
G01X61977Y-9081D01*
G01X61909Y-9081D02*
G01X61840Y-9104D01*
G01X61840Y-9104D02*
G01X61818Y-9150D01*
G01X61818Y-9150D02*
G01X61840Y-9195D01*
G01X61840Y-9195D02*
G01X61886Y-9218D01*
G01X61886Y-9218D02*
G01X61999Y-9240D01*
G01X61999Y-9240D02*
G01X62045Y-9263D01*
G01X62045Y-9263D02*
G01X62068Y-9309D01*
G01X62068Y-9309D02*
G01X62068Y-9331D01*
G01X62068Y-9331D02*
G01X62045Y-9377D01*
G01X62045Y-9377D02*
G01X61977Y-9400D01*
G01X61909Y-9400D02*
G01X61977Y-9400D01*
G01X61840Y-9377D02*
G01X61909Y-9400D01*
G01X61818Y-9331D02*
G01X61840Y-9377D01*
G04 Draw part DATA_AND_ADDR*
G04 draw part outline for part DATA_AND_ADDR*
G04 draw reference designator for part DATA_AND_ADDR*
G01X64077Y-4500D02*
G01X63600Y-4500D01*
G01X64077Y-4659D02*
G01X64077Y-4500D01*
G01X64077Y-4659D02*
G01X64054Y-4727D01*
G01X64054Y-4727D02*
G01X64009Y-4772D01*
G01X64009Y-4772D02*
G01X63963Y-4795D01*
G01X63963Y-4795D02*
G01X63895Y-4818D01*
G01X63895Y-4818D02*
G01X63781Y-4818D01*
G01X63781Y-4818D02*
G01X63713Y-4795D01*
G01X63713Y-4795D02*
G01X63668Y-4772D01*
G01X63668Y-4772D02*
G01X63622Y-4727D01*
G01X63622Y-4727D02*
G01X63600Y-4659D01*
G01X63600Y-4500D02*
G01X63600Y-4659D01*
G01X64077Y-5181D02*
G01X63600Y-5000D01*
G01X64077Y-5181D02*
G01X63600Y-5363D01*
G01X63759Y-5295D02*
G01X63759Y-5068D01*
G01X64077Y-5704D02*
G01X63600Y-5704D01*
G01X64077Y-5863D02*
G01X64077Y-5545D01*
G01X64077Y-6227D02*
G01X63600Y-6045D01*
G01X64077Y-6227D02*
G01X63600Y-6409D01*
G01X63759Y-6340D02*
G01X63759Y-6113D01*
G01X63600Y-7000D02*
G01X63600Y-6590D01*
G01X64077Y-7363D02*
G01X63600Y-7181D01*
G01X64077Y-7363D02*
G01X63600Y-7545D01*
G01X63759Y-7477D02*
G01X63759Y-7250D01*
G01X64077Y-7727D02*
G01X63600Y-7727D01*
G01X64077Y-7727D02*
G01X63600Y-8045D01*
G01X64077Y-8045D02*
G01X63600Y-8045D01*
G01X64077Y-8227D02*
G01X63600Y-8227D01*
G01X64077Y-8386D02*
G01X64077Y-8227D01*
G01X64077Y-8386D02*
G01X64054Y-8454D01*
G01X64054Y-8454D02*
G01X64009Y-8500D01*
G01X64009Y-8500D02*
G01X63963Y-8522D01*
G01X63963Y-8522D02*
G01X63895Y-8545D01*
G01X63895Y-8545D02*
G01X63781Y-8545D01*
G01X63781Y-8545D02*
G01X63713Y-8522D01*
G01X63713Y-8522D02*
G01X63668Y-8500D01*
G01X63668Y-8500D02*
G01X63622Y-8454D01*
G01X63622Y-8454D02*
G01X63600Y-8386D01*
G01X63600Y-8227D02*
G01X63600Y-8386D01*
G01X63600Y-9136D02*
G01X63600Y-8727D01*
G01X64077Y-9499D02*
G01X63600Y-9318D01*
G01X64077Y-9499D02*
G01X63600Y-9681D01*
G01X63759Y-9613D02*
G01X63759Y-9386D01*
G01X64077Y-9863D02*
G01X63600Y-9863D01*
G01X64077Y-10022D02*
G01X64077Y-9863D01*
G01X64077Y-10022D02*
G01X64054Y-10090D01*
G01X64054Y-10090D02*
G01X64009Y-10136D01*
G01X64009Y-10136D02*
G01X63963Y-10159D01*
G01X63963Y-10159D02*
G01X63895Y-10181D01*
G01X63895Y-10181D02*
G01X63781Y-10181D01*
G01X63781Y-10181D02*
G01X63713Y-10159D01*
G01X63713Y-10159D02*
G01X63668Y-10136D01*
G01X63668Y-10136D02*
G01X63622Y-10090D01*
G01X63622Y-10090D02*
G01X63600Y-10022D01*
G01X63600Y-9863D02*
G01X63600Y-10022D01*
G01X64077Y-10363D02*
G01X63600Y-10363D01*
G01X64077Y-10522D02*
G01X64077Y-10363D01*
G01X64077Y-10522D02*
G01X64054Y-10590D01*
G01X64054Y-10590D02*
G01X64009Y-10636D01*
G01X64009Y-10636D02*
G01X63963Y-10659D01*
G01X63963Y-10659D02*
G01X63895Y-10681D01*
G01X63895Y-10681D02*
G01X63781Y-10681D01*
G01X63781Y-10681D02*
G01X63713Y-10659D01*
G01X63713Y-10659D02*
G01X63668Y-10636D01*
G01X63668Y-10636D02*
G01X63622Y-10590D01*
G01X63622Y-10590D02*
G01X63600Y-10522D01*
G01X63600Y-10363D02*
G01X63600Y-10522D01*
G01X64077Y-10863D02*
G01X63600Y-10863D01*
G01X64077Y-11068D02*
G01X64077Y-10863D01*
G01X64077Y-11068D02*
G01X64054Y-11136D01*
G01X64054Y-11136D02*
G01X64031Y-11159D01*
G01X64031Y-11159D02*
G01X63986Y-11181D01*
G01X63986Y-11181D02*
G01X63940Y-11181D01*
G01X63940Y-11181D02*
G01X63895Y-11159D01*
G01X63895Y-11159D02*
G01X63872Y-11136D01*
G01X63872Y-11136D02*
G01X63850Y-11068D01*
G01X63850Y-10863D02*
G01X63850Y-11068D01*
G01X63850Y-11022D02*
G01X63600Y-11181D01*

G04 Draw traces*

G04 Draw Text*
G54D12*
G01X60272Y-2284D02*
G01X60000Y-3000D01*
G01X60272Y-2284D02*
G01X60545Y-3000D01*
G01X60102Y-2761D02*
G01X60443Y-2761D01*
G01X60818Y-2284D02*
G01X60818Y-3000D01*
G01X60818Y-2284D02*
G01X61056Y-2284D01*
G01X61056Y-2284D02*
G01X61159Y-2318D01*
G01X61159Y-2318D02*
G01X61227Y-2386D01*
G01X61227Y-2386D02*
G01X61261Y-2454D01*
G01X61261Y-2454D02*
G01X61295Y-2556D01*
G01X61295Y-2556D02*
G01X61295Y-2727D01*
G01X61295Y-2727D02*
G01X61261Y-2829D01*
G01X61261Y-2829D02*
G01X61227Y-2897D01*
G01X61227Y-2897D02*
G01X61159Y-2965D01*
G01X61159Y-2965D02*
G01X61056Y-3000D01*
G01X61056Y-3000D02*
G01X60818Y-3000D01*
G01X61568Y-2284D02*
G01X61568Y-3000D01*
G01X61568Y-2284D02*
G01X61806Y-2284D01*
G01X61806Y-2284D02*
G01X61909Y-2318D01*
G01X61909Y-2318D02*
G01X61977Y-2386D01*
G01X61977Y-2386D02*
G01X62011Y-2454D01*
G01X62011Y-2454D02*
G01X62045Y-2556D01*
G01X62045Y-2556D02*
G01X62045Y-2727D01*
G01X62045Y-2727D02*
G01X62011Y-2829D01*
G01X62011Y-2829D02*
G01X61977Y-2897D01*
G01X61977Y-2897D02*
G01X61909Y-2965D01*
G01X61909Y-2965D02*
G01X61806Y-3000D01*
G01X61806Y-3000D02*
G01X61568Y-3000D01*
G01X62318Y-2284D02*
G01X62318Y-3000D01*
G01X62318Y-2284D02*
G01X62624Y-2284D01*
G01X62624Y-2284D02*
G01X62727Y-2318D01*
G01X62727Y-2318D02*
G01X62761Y-2352D01*
G01X62761Y-2352D02*
G01X62795Y-2420D01*
G01X62795Y-2420D02*
G01X62795Y-2488D01*
G01X62795Y-2488D02*
G01X62761Y-2556D01*
G01X62761Y-2556D02*
G01X62727Y-2590D01*
G01X62727Y-2590D02*
G01X62624Y-2625D01*
G01X62624Y-2625D02*
G01X62318Y-2625D01*
G01X62556Y-2625D02*
G01X62795Y-3000D01*
G01X63068Y-2284D02*
G01X63068Y-3000D01*
G01X63068Y-2284D02*
G01X63511Y-2284D01*
G01X63068Y-2625D02*
G01X63340Y-2625D01*
G01X63068Y-3000D02*
G01X63511Y-3000D01*
G01X64261Y-2386D02*
G01X64193Y-2318D01*
G01X64193Y-2318D02*
G01X64090Y-2284D01*
G01X64090Y-2284D02*
G01X63954Y-2284D01*
G01X63954Y-2284D02*
G01X63852Y-2318D01*
G01X63852Y-2318D02*
G01X63784Y-2386D01*
G01X63784Y-2386D02*
G01X63784Y-2454D01*
G01X63784Y-2454D02*
G01X63818Y-2522D01*
G01X63818Y-2522D02*
G01X63852Y-2556D01*
G01X63852Y-2556D02*
G01X63920Y-2590D01*
G01X63920Y-2590D02*
G01X64124Y-2659D01*
G01X64124Y-2659D02*
G01X64193Y-2693D01*
G01X64193Y-2693D02*
G01X64227Y-2727D01*
G01X64227Y-2727D02*
G01X64261Y-2795D01*
G01X64261Y-2795D02*
G01X64261Y-2897D01*
G01X64261Y-2897D02*
G01X64193Y-2965D01*
G01X64193Y-2965D02*
G01X64090Y-3000D01*
G01X64090Y-3000D02*
G01X63954Y-3000D01*
G01X63954Y-3000D02*
G01X63852Y-2965D01*
G01X63852Y-2965D02*
G01X63784Y-2897D01*
G01X65011Y-2386D02*
G01X64943Y-2318D01*
G01X64943Y-2318D02*
G01X64840Y-2284D01*
G01X64840Y-2284D02*
G01X64704Y-2284D01*
G01X64704Y-2284D02*
G01X64602Y-2318D01*
G01X64602Y-2318D02*
G01X64534Y-2386D01*
G01X64534Y-2386D02*
G01X64534Y-2454D01*
G01X64534Y-2454D02*
G01X64568Y-2522D01*
G01X64568Y-2522D02*
G01X64602Y-2556D01*
G01X64602Y-2556D02*
G01X64670Y-2590D01*
G01X64670Y-2590D02*
G01X64874Y-2659D01*
G01X64874Y-2659D02*
G01X64943Y-2693D01*
G01X64943Y-2693D02*
G01X64977Y-2727D01*
G01X64977Y-2727D02*
G01X65011Y-2795D01*
G01X65011Y-2795D02*
G01X65011Y-2897D01*
G01X65011Y-2897D02*
G01X64943Y-2965D01*
G01X64943Y-2965D02*
G01X64840Y-3000D01*
G01X64840Y-3000D02*
G01X64704Y-3000D01*
G01X64704Y-3000D02*
G01X64602Y-2965D01*
G01X64602Y-2965D02*
G01X64534Y-2897D01*
G01X59800Y-4284D02*
G01X59800Y-5000D01*
G01X59800Y-4284D02*
G01X60038Y-4284D01*
G01X60038Y-4284D02*
G01X60140Y-4318D01*
G01X60140Y-4318D02*
G01X60209Y-4386D01*
G01X60209Y-4386D02*
G01X60243Y-4454D01*
G01X60243Y-4454D02*
G01X60277Y-4556D01*
G01X60277Y-4556D02*
G01X60277Y-4727D01*
G01X60277Y-4727D02*
G01X60243Y-4829D01*
G01X60243Y-4829D02*
G01X60209Y-4897D01*
G01X60209Y-4897D02*
G01X60140Y-4965D01*
G01X60140Y-4965D02*
G01X60038Y-5000D01*
G01X60038Y-5000D02*
G01X59800Y-5000D01*
G01X60584Y-4454D02*
G01X60584Y-4420D01*
G01X60584Y-4420D02*
G01X60618Y-4352D01*
G01X60618Y-4352D02*
G01X60652Y-4318D01*
G01X60652Y-4318D02*
G01X60720Y-4284D01*
G01X60720Y-4284D02*
G01X60856Y-4284D01*
G01X60856Y-4284D02*
G01X60925Y-4318D01*
G01X60925Y-4318D02*
G01X60959Y-4352D01*
G01X60959Y-4352D02*
G01X60993Y-4420D01*
G01X60993Y-4420D02*
G01X60993Y-4488D01*
G01X60993Y-4488D02*
G01X60959Y-4556D01*
G01X60959Y-4556D02*
G01X60890Y-4659D01*
G01X60890Y-4659D02*
G01X60550Y-5000D01*
G01X60550Y-5000D02*
G01X61027Y-5000D01*
G54D11*
G01X59800Y-5484D02*
G01X59800Y-6200D01*
G01X59800Y-5484D02*
G01X60038Y-5484D01*
G01X60038Y-5484D02*
G01X60140Y-5518D01*
G01X60140Y-5518D02*
G01X60209Y-5586D01*
G01X60209Y-5586D02*
G01X60243Y-5654D01*
G01X60243Y-5654D02*
G01X60277Y-5756D01*
G01X60277Y-5756D02*
G01X60277Y-5927D01*
G01X60277Y-5927D02*
G01X60243Y-6029D01*
G01X60243Y-6029D02*
G01X60209Y-6097D01*
G01X60209Y-6097D02*
G01X60140Y-6165D01*
G01X60140Y-6165D02*
G01X60038Y-6200D01*
G01X60038Y-6200D02*
G01X59800Y-6200D01*
G01X60550Y-5620D02*
G01X60618Y-5586D01*
G01X60618Y-5586D02*
G01X60720Y-5484D01*
G01X60720Y-5484D02*
G01X60720Y-6200D01*
G54D13*
G01X59800Y-6784D02*
G01X59800Y-7500D01*
G01X59800Y-6784D02*
G01X60038Y-6784D01*
G01X60038Y-6784D02*
G01X60140Y-6818D01*
G01X60140Y-6818D02*
G01X60209Y-6886D01*
G01X60209Y-6886D02*
G01X60243Y-6954D01*
G01X60243Y-6954D02*
G01X60277Y-7056D01*
G01X60277Y-7056D02*
G01X60277Y-7227D01*
G01X60277Y-7227D02*
G01X60243Y-7329D01*
G01X60243Y-7329D02*
G01X60209Y-7397D01*
G01X60209Y-7397D02*
G01X60140Y-7465D01*
G01X60140Y-7465D02*
G01X60038Y-7500D01*
G01X60038Y-7500D02*
G01X59800Y-7500D01*
G01X60754Y-6784D02*
G01X60652Y-6818D01*
G01X60652Y-6818D02*
G01X60584Y-6920D01*
G01X60584Y-6920D02*
G01X60550Y-7090D01*
G01X60550Y-7090D02*
G01X60550Y-7193D01*
G01X60550Y-7193D02*
G01X60584Y-7363D01*
G01X60584Y-7363D02*
G01X60652Y-7465D01*
G01X60652Y-7465D02*
G01X60754Y-7500D01*
G01X60754Y-7500D02*
G01X60822Y-7500D01*
G01X60822Y-7500D02*
G01X60925Y-7465D01*
G01X60925Y-7465D02*
G01X60993Y-7363D01*
G01X60993Y-7363D02*
G01X61027Y-7193D01*
G01X61027Y-7193D02*
G01X61027Y-7090D01*
G01X61027Y-7090D02*
G01X60993Y-6920D01*
G01X60993Y-6920D02*
G01X60925Y-6818D01*
G01X60925Y-6818D02*
G01X60822Y-6784D01*
G01X60822Y-6784D02*
G01X60754Y-6784D01*
G01X21000Y35772D02*
G01X21227Y35545D01*
G01X21227Y35545D02*
G01X21454Y35772D01*
G01X21454Y35772D02*
G01X21227Y36000D01*
G01X21227Y36000D02*
G01X21000Y35772D01*
G01X21227Y34181D02*
G01X21227Y31000D01*
G54D14*
G01X21363Y15772D02*
G01X20681Y15545D01*
G01X20681Y15545D02*
G01X20227Y14863D01*
G01X20227Y14863D02*
G01X20000Y13727D01*
G01X20000Y13727D02*
G01X20000Y13045D01*
G01X20000Y13045D02*
G01X20227Y11909D01*
G01X20227Y11909D02*
G01X20681Y11227D01*
G01X20681Y11227D02*
G01X21363Y11000D01*
G01X21363Y11000D02*
G01X21818Y11000D01*
G01X21818Y11000D02*
G01X22500Y11227D01*
G01X22500Y11227D02*
G01X22954Y11909D01*
G01X22954Y11909D02*
G01X23181Y13045D01*
G01X23181Y13045D02*
G01X23181Y13727D01*
G01X23181Y13727D02*
G01X22954Y14863D01*
G01X22954Y14863D02*
G01X22500Y15545D01*
G01X22500Y15545D02*
G01X21818Y15772D01*
G01X21818Y15772D02*
G01X21363Y15772D01*
G01X21000Y-1136D02*
G01X21454Y-909D01*
G01X21454Y-909D02*
G01X22136Y-227D01*
G01X22136Y-227D02*
G01X22136Y-5000D01*
G54D15*
G01X12000Y38954D02*
G01X12045Y38909D01*
G01X12045Y38909D02*
G01X12090Y38954D01*
G01X12090Y38954D02*
G01X12045Y39000D01*
G01X12045Y39000D02*
G01X12000Y38954D01*
G01X12045Y38636D02*
G01X12045Y38000D01*
G01X12772Y38954D02*
G01X12636Y38909D01*
G01X12636Y38909D02*
G01X12545Y38772D01*
G01X12545Y38772D02*
G01X12500Y38545D01*
G01X12500Y38545D02*
G01X12500Y38409D01*
G01X12500Y38409D02*
G01X12545Y38181D01*
G01X12545Y38181D02*
G01X12636Y38045D01*
G01X12636Y38045D02*
G01X12772Y38000D01*
G01X12772Y38000D02*
G01X12863Y38000D01*
G01X12863Y38000D02*
G01X13000Y38045D01*
G01X13000Y38045D02*
G01X13090Y38181D01*
G01X13090Y38181D02*
G01X13136Y38409D01*
G01X13136Y38409D02*
G01X13136Y38545D01*
G01X13136Y38545D02*
G01X13090Y38772D01*
G01X13090Y38772D02*
G01X13000Y38909D01*
G01X13000Y38909D02*
G01X12863Y38954D01*
G01X12863Y38954D02*
G01X12772Y38954D01*
G01X13500Y38772D02*
G01X13590Y38818D01*
G01X13590Y38818D02*
G01X13727Y38954D01*
G01X13727Y38954D02*
G01X13727Y38000D01*
M00*
M02*
