G04 FreePCB version 1.343*
G04 Z:\trinary\code\bb\CAM-dtflop\bottom_copper.grb*
G04 bottom copper layer *
G04 Scale: 100 percent, Rotated: No, Reflected: No *
%FSLAX24Y24*%
%MOIN*%
%LNTop*%
%ADD10C,0.005000*%
%ADD11R,0.050000X0.050000*%
%ADD12C,0.050000*%
%ADD13R,0.055000X0.055000*%
%ADD14C,0.055000*%
%ADD15C,0.075000*%
%ADD16C,0.010000*%
%ADD17C,0.028000*%
G90*
G70D02*

G04 Step and Repeat for panelization *

G04 ----------------------- Draw board outline (positive)*
%LPD*%
G54D10*
G01X-31000Y-12000D02*
G01X67000Y-12000D01*
G04 end of side 1*
G01X67000Y55000D01*
G04 end of side 2*
G01X-31000Y55000D01*
G04 end of side 3*
G01X-31000Y-12000D01*

G04 -------------- Draw Parts, Pads, Traces, Vias and Text (positive)*
%LPD*%
G04 Draw part Vclk_0*
G54D11*
G01X-29500Y45500D03*
G54D12*
G01X-29500Y46500D03*
G04 Draw part Vd_0*
G54D11*
G01X-29500Y48500D03*
G54D12*
G01X-29500Y49500D03*
G04 Draw part Vdd_0*
G54D11*
G01X-29500Y42500D03*
G54D12*
G01X-29500Y43500D03*
G04 Draw part Vss_0*
G54D11*
G01X-29500Y40500D03*
G54D12*
G01X-29500Y41500D03*
G04 Draw part X_IC_0_CD4007_0*
G54D13*
G01X-20000Y43000D03*
G54D14*
G01X-20000Y42000D03*
G01X-20000Y41000D03*
G01X-20000Y40000D03*
G01X-20000Y39000D03*
G01X-20000Y38000D03*
G01X-20000Y37000D03*
G01X-17000Y37000D03*
G01X-17000Y38000D03*
G01X-17000Y39000D03*
G01X-17000Y40000D03*
G01X-17000Y41000D03*
G01X-17000Y42000D03*
G01X-17000Y43000D03*
G04 Draw part X_IC_1_CD4007_0*
G54D13*
G01X-11000Y43000D03*
G54D14*
G01X-11000Y42000D03*
G01X-11000Y41000D03*
G01X-11000Y40000D03*
G01X-11000Y39000D03*
G01X-11000Y38000D03*
G01X-11000Y37000D03*
G01X-8000Y37000D03*
G01X-8000Y38000D03*
G01X-8000Y39000D03*
G01X-8000Y40000D03*
G01X-8000Y41000D03*
G01X-8000Y42000D03*
G01X-8000Y43000D03*
G04 Draw part X_IC_2_CD4007_0*
G54D13*
G01X-11000Y52000D03*
G54D14*
G01X-11000Y51000D03*
G01X-11000Y50000D03*
G01X-11000Y49000D03*
G01X-11000Y48000D03*
G01X-11000Y47000D03*
G01X-11000Y46000D03*
G01X-8000Y46000D03*
G01X-8000Y47000D03*
G01X-8000Y48000D03*
G01X-8000Y49000D03*
G01X-8000Y50000D03*
G01X-8000Y51000D03*
G01X-8000Y52000D03*
G04 Draw part X_IC_3_CD4016_0*
G54D13*
G01X-20000Y52000D03*
G54D14*
G01X-20000Y51000D03*
G01X-20000Y50000D03*
G01X-20000Y49000D03*
G01X-20000Y48000D03*
G01X-20000Y47000D03*
G01X-20000Y46000D03*
G01X-17000Y46000D03*
G01X-17000Y47000D03*
G01X-17000Y48000D03*
G01X-17000Y49000D03*
G01X-17000Y50000D03*
G01X-17000Y51000D03*
G01X-17000Y52000D03*
G04 Draw part RP2_0*
G54D15*
G01X-22000Y47000D03*
G01X-22000Y52000D03*
G04 Draw part RN2_0*
G01X-25000Y52000D03*
G01X-25000Y47000D03*
G04 Draw part RP4_0*
G01X-25000Y42000D03*
G01X-25000Y37000D03*
G04 Draw part RN4_0*
G01X-22000Y37000D03*
G01X-22000Y42000D03*
G04 Draw part RP3_0*
G01X-2500Y37000D03*
G01X-2500Y42000D03*
G04 Draw part RN3_0*
G01X-5500Y42000D03*
G01X-5500Y37000D03*
G04 Draw part RP1_0*
G01X-14000Y51000D03*
G01X-14000Y46000D03*
G04 Draw part RN1_0*
G01X-14000Y42000D03*
G01X-14000Y37000D03*
G04 Draw part RP5_0*
G01X-5500Y51000D03*
G01X-5500Y46000D03*
G04 Draw part RN5_0*
G01X-2500Y46000D03*
G01X-2500Y51000D03*
G04 Draw part Vq_0*
G54D11*
G01X-4000Y43000D03*
G54D12*
G01X-4000Y44000D03*
G04 Draw part Vclk_1*
G54D11*
G01X-29500Y25500D03*
G54D12*
G01X-29500Y26500D03*
G04 Draw part Vd_1*
G54D11*
G01X-29500Y28500D03*
G54D12*
G01X-29500Y29500D03*
G04 Draw part Vdd_1*
G54D11*
G01X-29500Y22500D03*
G54D12*
G01X-29500Y23500D03*
G04 Draw part Vss_1*
G54D11*
G01X-29500Y20500D03*
G54D12*
G01X-29500Y21500D03*
G04 Draw part X_IC_0_CD4007_1*
G54D13*
G01X-20000Y23000D03*
G54D14*
G01X-20000Y22000D03*
G01X-20000Y21000D03*
G01X-20000Y20000D03*
G01X-20000Y19000D03*
G01X-20000Y18000D03*
G01X-20000Y17000D03*
G01X-17000Y17000D03*
G01X-17000Y18000D03*
G01X-17000Y19000D03*
G01X-17000Y20000D03*
G01X-17000Y21000D03*
G01X-17000Y22000D03*
G01X-17000Y23000D03*
G04 Draw part X_IC_1_CD4007_1*
G54D13*
G01X-11000Y23000D03*
G54D14*
G01X-11000Y22000D03*
G01X-11000Y21000D03*
G01X-11000Y20000D03*
G01X-11000Y19000D03*
G01X-11000Y18000D03*
G01X-11000Y17000D03*
G01X-8000Y17000D03*
G01X-8000Y18000D03*
G01X-8000Y19000D03*
G01X-8000Y20000D03*
G01X-8000Y21000D03*
G01X-8000Y22000D03*
G01X-8000Y23000D03*
G04 Draw part X_IC_2_CD4007_1*
G54D13*
G01X-11000Y32000D03*
G54D14*
G01X-11000Y31000D03*
G01X-11000Y30000D03*
G01X-11000Y29000D03*
G01X-11000Y28000D03*
G01X-11000Y27000D03*
G01X-11000Y26000D03*
G01X-8000Y26000D03*
G01X-8000Y27000D03*
G01X-8000Y28000D03*
G01X-8000Y29000D03*
G01X-8000Y30000D03*
G01X-8000Y31000D03*
G01X-8000Y32000D03*
G04 Draw part X_IC_3_CD4016_1*
G54D13*
G01X-20000Y32000D03*
G54D14*
G01X-20000Y31000D03*
G01X-20000Y30000D03*
G01X-20000Y29000D03*
G01X-20000Y28000D03*
G01X-20000Y27000D03*
G01X-20000Y26000D03*
G01X-17000Y26000D03*
G01X-17000Y27000D03*
G01X-17000Y28000D03*
G01X-17000Y29000D03*
G01X-17000Y30000D03*
G01X-17000Y31000D03*
G01X-17000Y32000D03*
G04 Draw part RP2_1*
G54D15*
G01X-22000Y27000D03*
G01X-22000Y32000D03*
G04 Draw part RN2_1*
G01X-25000Y32000D03*
G01X-25000Y27000D03*
G04 Draw part RP4_1*
G01X-25000Y22000D03*
G01X-25000Y17000D03*
G04 Draw part RN4_1*
G01X-22000Y17000D03*
G01X-22000Y22000D03*
G04 Draw part RP3_1*
G01X-2500Y17000D03*
G01X-2500Y22000D03*
G04 Draw part RN3_1*
G01X-5500Y22000D03*
G01X-5500Y17000D03*
G04 Draw part RP1_1*
G01X-14000Y31000D03*
G01X-14000Y26000D03*
G04 Draw part RN1_1*
G01X-14000Y22000D03*
G01X-14000Y17000D03*
G04 Draw part RP5_1*
G01X-5500Y31000D03*
G01X-5500Y26000D03*
G04 Draw part RN5_1*
G01X-2500Y26000D03*
G01X-2500Y31000D03*
G04 Draw part Vq_1*
G54D11*
G01X-4000Y23000D03*
G54D12*
G01X-4000Y24000D03*
G04 Draw part Vclk_2*
G54D11*
G01X-29500Y5500D03*
G54D12*
G01X-29500Y6500D03*
G04 Draw part Vd_2*
G54D11*
G01X-29500Y8500D03*
G54D12*
G01X-29500Y9500D03*
G04 Draw part Vdd_2*
G54D11*
G01X-29500Y2500D03*
G54D12*
G01X-29500Y3500D03*
G04 Draw part Vss_2*
G54D11*
G01X-29500Y500D03*
G54D12*
G01X-29500Y1500D03*
G04 Draw part X_IC_0_CD4007_2*
G54D13*
G01X-20000Y3000D03*
G54D14*
G01X-20000Y2000D03*
G01X-20000Y1000D03*
G01X-20000Y0D03*
G01X-20000Y-1000D03*
G01X-20000Y-2000D03*
G01X-20000Y-3000D03*
G01X-17000Y-3000D03*
G01X-17000Y-2000D03*
G01X-17000Y-1000D03*
G01X-17000Y0D03*
G01X-17000Y1000D03*
G01X-17000Y2000D03*
G01X-17000Y3000D03*
G04 Draw part X_IC_1_CD4007_2*
G54D13*
G01X-11000Y3000D03*
G54D14*
G01X-11000Y2000D03*
G01X-11000Y1000D03*
G01X-11000Y0D03*
G01X-11000Y-1000D03*
G01X-11000Y-2000D03*
G01X-11000Y-3000D03*
G01X-8000Y-3000D03*
G01X-8000Y-2000D03*
G01X-8000Y-1000D03*
G01X-8000Y0D03*
G01X-8000Y1000D03*
G01X-8000Y2000D03*
G01X-8000Y3000D03*
G04 Draw part X_IC_2_CD4007_2*
G54D13*
G01X-11000Y12000D03*
G54D14*
G01X-11000Y11000D03*
G01X-11000Y10000D03*
G01X-11000Y9000D03*
G01X-11000Y8000D03*
G01X-11000Y7000D03*
G01X-11000Y6000D03*
G01X-8000Y6000D03*
G01X-8000Y7000D03*
G01X-8000Y8000D03*
G01X-8000Y9000D03*
G01X-8000Y10000D03*
G01X-8000Y11000D03*
G01X-8000Y12000D03*
G04 Draw part X_IC_3_CD4016_2*
G54D13*
G01X-20000Y12000D03*
G54D14*
G01X-20000Y11000D03*
G01X-20000Y10000D03*
G01X-20000Y9000D03*
G01X-20000Y8000D03*
G01X-20000Y7000D03*
G01X-20000Y6000D03*
G01X-17000Y6000D03*
G01X-17000Y7000D03*
G01X-17000Y8000D03*
G01X-17000Y9000D03*
G01X-17000Y10000D03*
G01X-17000Y11000D03*
G01X-17000Y12000D03*
G04 Draw part RP2_2*
G54D15*
G01X-22000Y7000D03*
G01X-22000Y12000D03*
G04 Draw part RN2_2*
G01X-25000Y12000D03*
G01X-25000Y7000D03*
G04 Draw part RP4_2*
G01X-25000Y2000D03*
G01X-25000Y-3000D03*
G04 Draw part RN4_2*
G01X-22000Y-3000D03*
G01X-22000Y2000D03*
G04 Draw part RP3_2*
G01X-2500Y-3000D03*
G01X-2500Y2000D03*
G04 Draw part RN3_2*
G01X-5500Y2000D03*
G01X-5500Y-3000D03*
G04 Draw part RP1_2*
G01X-14000Y11000D03*
G01X-14000Y6000D03*
G04 Draw part RN1_2*
G01X-14000Y2000D03*
G01X-14000Y-3000D03*
G04 Draw part RP5_2*
G01X-5500Y11000D03*
G01X-5500Y6000D03*
G04 Draw part RN5_2*
G01X-2500Y6000D03*
G01X-2500Y11000D03*
G04 Draw part Vq_2*
G54D11*
G01X-4000Y3000D03*
G54D12*
G01X-4000Y4000D03*
G04 Draw part Vclk_3*
G54D11*
G01X3000Y45500D03*
G54D12*
G01X3000Y46500D03*
G04 Draw part Vd_3*
G54D11*
G01X3000Y48500D03*
G54D12*
G01X3000Y49500D03*
G04 Draw part Vdd_3*
G54D11*
G01X3000Y42500D03*
G54D12*
G01X3000Y43500D03*
G04 Draw part Vss_3*
G54D11*
G01X3000Y40500D03*
G54D12*
G01X3000Y41500D03*
G04 Draw part X_IC_0_CD4007_3*
G54D13*
G01X12500Y43000D03*
G54D14*
G01X12500Y42000D03*
G01X12500Y41000D03*
G01X12500Y40000D03*
G01X12500Y39000D03*
G01X12500Y38000D03*
G01X12500Y37000D03*
G01X15500Y37000D03*
G01X15500Y38000D03*
G01X15500Y39000D03*
G01X15500Y40000D03*
G01X15500Y41000D03*
G01X15500Y42000D03*
G01X15500Y43000D03*
G04 Draw part X_IC_1_CD4007_3*
G54D13*
G01X21500Y43000D03*
G54D14*
G01X21500Y42000D03*
G01X21500Y41000D03*
G01X21500Y40000D03*
G01X21500Y39000D03*
G01X21500Y38000D03*
G01X21500Y37000D03*
G01X24500Y37000D03*
G01X24500Y38000D03*
G01X24500Y39000D03*
G01X24500Y40000D03*
G01X24500Y41000D03*
G01X24500Y42000D03*
G01X24500Y43000D03*
G04 Draw part X_IC_2_CD4007_3*
G54D13*
G01X21500Y52000D03*
G54D14*
G01X21500Y51000D03*
G01X21500Y50000D03*
G01X21500Y49000D03*
G01X21500Y48000D03*
G01X21500Y47000D03*
G01X21500Y46000D03*
G01X24500Y46000D03*
G01X24500Y47000D03*
G01X24500Y48000D03*
G01X24500Y49000D03*
G01X24500Y50000D03*
G01X24500Y51000D03*
G01X24500Y52000D03*
G04 Draw part X_IC_3_CD4016_3*
G54D13*
G01X12500Y52000D03*
G54D14*
G01X12500Y51000D03*
G01X12500Y50000D03*
G01X12500Y49000D03*
G01X12500Y48000D03*
G01X12500Y47000D03*
G01X12500Y46000D03*
G01X15500Y46000D03*
G01X15500Y47000D03*
G01X15500Y48000D03*
G01X15500Y49000D03*
G01X15500Y50000D03*
G01X15500Y51000D03*
G01X15500Y52000D03*
G04 Draw part RP2_3*
G54D15*
G01X10500Y47000D03*
G01X10500Y52000D03*
G04 Draw part RN2_3*
G01X7500Y52000D03*
G01X7500Y47000D03*
G04 Draw part RP4_3*
G01X7500Y42000D03*
G01X7500Y37000D03*
G04 Draw part RN4_3*
G01X10500Y37000D03*
G01X10500Y42000D03*
G04 Draw part RP3_3*
G01X30000Y37000D03*
G01X30000Y42000D03*
G04 Draw part RN3_3*
G01X27000Y42000D03*
G01X27000Y37000D03*
G04 Draw part RP1_3*
G01X18500Y51000D03*
G01X18500Y46000D03*
G04 Draw part RN1_3*
G01X18500Y42000D03*
G01X18500Y37000D03*
G04 Draw part RP5_3*
G01X27000Y51000D03*
G01X27000Y46000D03*
G04 Draw part RN5_3*
G01X30000Y46000D03*
G01X30000Y51000D03*
G04 Draw part Vq_3*
G54D11*
G01X28500Y43000D03*
G54D12*
G01X28500Y44000D03*
G04 Draw part Vclk_4*
G54D11*
G01X3000Y25500D03*
G54D12*
G01X3000Y26500D03*
G04 Draw part Vd_4*
G54D11*
G01X3000Y28500D03*
G54D12*
G01X3000Y29500D03*
G04 Draw part Vdd_4*
G54D11*
G01X3000Y22500D03*
G54D12*
G01X3000Y23500D03*
G04 Draw part Vss_4*
G54D11*
G01X3000Y20500D03*
G54D12*
G01X3000Y21500D03*
G04 Draw part X_IC_0_CD4007_4*
G54D13*
G01X12500Y23000D03*
G54D14*
G01X12500Y22000D03*
G01X12500Y21000D03*
G01X12500Y20000D03*
G01X12500Y19000D03*
G01X12500Y18000D03*
G01X12500Y17000D03*
G01X15500Y17000D03*
G01X15500Y18000D03*
G01X15500Y19000D03*
G01X15500Y20000D03*
G01X15500Y21000D03*
G01X15500Y22000D03*
G01X15500Y23000D03*
G04 Draw part X_IC_1_CD4007_4*
G54D13*
G01X21500Y23000D03*
G54D14*
G01X21500Y22000D03*
G01X21500Y21000D03*
G01X21500Y20000D03*
G01X21500Y19000D03*
G01X21500Y18000D03*
G01X21500Y17000D03*
G01X24500Y17000D03*
G01X24500Y18000D03*
G01X24500Y19000D03*
G01X24500Y20000D03*
G01X24500Y21000D03*
G01X24500Y22000D03*
G01X24500Y23000D03*
G04 Draw part X_IC_2_CD4007_4*
G54D13*
G01X21500Y32000D03*
G54D14*
G01X21500Y31000D03*
G01X21500Y30000D03*
G01X21500Y29000D03*
G01X21500Y28000D03*
G01X21500Y27000D03*
G01X21500Y26000D03*
G01X24500Y26000D03*
G01X24500Y27000D03*
G01X24500Y28000D03*
G01X24500Y29000D03*
G01X24500Y30000D03*
G01X24500Y31000D03*
G01X24500Y32000D03*
G04 Draw part X_IC_3_CD4016_4*
G54D13*
G01X12500Y32000D03*
G54D14*
G01X12500Y31000D03*
G01X12500Y30000D03*
G01X12500Y29000D03*
G01X12500Y28000D03*
G01X12500Y27000D03*
G01X12500Y26000D03*
G01X15500Y26000D03*
G01X15500Y27000D03*
G01X15500Y28000D03*
G01X15500Y29000D03*
G01X15500Y30000D03*
G01X15500Y31000D03*
G01X15500Y32000D03*
G04 Draw part RP2_4*
G54D15*
G01X10500Y27000D03*
G01X10500Y32000D03*
G04 Draw part RN2_4*
G01X7500Y32000D03*
G01X7500Y27000D03*
G04 Draw part RP4_4*
G01X7500Y22000D03*
G01X7500Y17000D03*
G04 Draw part RN4_4*
G01X10500Y17000D03*
G01X10500Y22000D03*
G04 Draw part RP3_4*
G01X30000Y17000D03*
G01X30000Y22000D03*
G04 Draw part RN3_4*
G01X27000Y22000D03*
G01X27000Y17000D03*
G04 Draw part RP1_4*
G01X18500Y31000D03*
G01X18500Y26000D03*
G04 Draw part RN1_4*
G01X18500Y22000D03*
G01X18500Y17000D03*
G04 Draw part RP5_4*
G01X27000Y31000D03*
G01X27000Y26000D03*
G04 Draw part RN5_4*
G01X30000Y26000D03*
G01X30000Y31000D03*
G04 Draw part Vq_4*
G54D11*
G01X28500Y23000D03*
G54D12*
G01X28500Y24000D03*
G04 Draw part Vclk_5*
G54D11*
G01X3000Y5500D03*
G54D12*
G01X3000Y6500D03*
G04 Draw part Vd_5*
G54D11*
G01X3000Y8500D03*
G54D12*
G01X3000Y9500D03*
G04 Draw part Vdd_5*
G54D11*
G01X3000Y2500D03*
G54D12*
G01X3000Y3500D03*
G04 Draw part Vss_5*
G54D11*
G01X3000Y500D03*
G54D12*
G01X3000Y1500D03*
G04 Draw part X_IC_0_CD4007_5*
G54D13*
G01X12500Y3000D03*
G54D14*
G01X12500Y2000D03*
G01X12500Y1000D03*
G01X12500Y0D03*
G01X12500Y-1000D03*
G01X12500Y-2000D03*
G01X12500Y-3000D03*
G01X15500Y-3000D03*
G01X15500Y-2000D03*
G01X15500Y-1000D03*
G01X15500Y0D03*
G01X15500Y1000D03*
G01X15500Y2000D03*
G01X15500Y3000D03*
G04 Draw part X_IC_1_CD4007_5*
G54D13*
G01X21500Y3000D03*
G54D14*
G01X21500Y2000D03*
G01X21500Y1000D03*
G01X21500Y0D03*
G01X21500Y-1000D03*
G01X21500Y-2000D03*
G01X21500Y-3000D03*
G01X24500Y-3000D03*
G01X24500Y-2000D03*
G01X24500Y-1000D03*
G01X24500Y0D03*
G01X24500Y1000D03*
G01X24500Y2000D03*
G01X24500Y3000D03*
G04 Draw part X_IC_2_CD4007_5*
G54D13*
G01X21500Y12000D03*
G54D14*
G01X21500Y11000D03*
G01X21500Y10000D03*
G01X21500Y9000D03*
G01X21500Y8000D03*
G01X21500Y7000D03*
G01X21500Y6000D03*
G01X24500Y6000D03*
G01X24500Y7000D03*
G01X24500Y8000D03*
G01X24500Y9000D03*
G01X24500Y10000D03*
G01X24500Y11000D03*
G01X24500Y12000D03*
G04 Draw part X_IC_3_CD4016_5*
G54D13*
G01X12500Y12000D03*
G54D14*
G01X12500Y11000D03*
G01X12500Y10000D03*
G01X12500Y9000D03*
G01X12500Y8000D03*
G01X12500Y7000D03*
G01X12500Y6000D03*
G01X15500Y6000D03*
G01X15500Y7000D03*
G01X15500Y8000D03*
G01X15500Y9000D03*
G01X15500Y10000D03*
G01X15500Y11000D03*
G01X15500Y12000D03*
G04 Draw part RP2_5*
G54D15*
G01X10500Y7000D03*
G01X10500Y12000D03*
G04 Draw part RN2_5*
G01X7500Y12000D03*
G01X7500Y7000D03*
G04 Draw part RP4_5*
G01X7500Y2000D03*
G01X7500Y-3000D03*
G04 Draw part RN4_5*
G01X10500Y-3000D03*
G01X10500Y2000D03*
G04 Draw part RP3_5*
G01X30000Y-3000D03*
G01X30000Y2000D03*
G04 Draw part RN3_5*
G01X27000Y2000D03*
G01X27000Y-3000D03*
G04 Draw part RP1_5*
G01X18500Y11000D03*
G01X18500Y6000D03*
G04 Draw part RN1_5*
G01X18500Y2000D03*
G01X18500Y-3000D03*
G04 Draw part RP5_5*
G01X27000Y11000D03*
G01X27000Y6000D03*
G04 Draw part RN5_5*
G01X30000Y6000D03*
G01X30000Y11000D03*
G04 Draw part Vq_5*
G54D11*
G01X28500Y3000D03*
G54D12*
G01X28500Y4000D03*
G04 Draw part Vclk_6*
G54D11*
G01X35500Y45500D03*
G54D12*
G01X35500Y46500D03*
G04 Draw part Vd_6*
G54D11*
G01X35500Y48500D03*
G54D12*
G01X35500Y49500D03*
G04 Draw part Vdd_6*
G54D11*
G01X35500Y42500D03*
G54D12*
G01X35500Y43500D03*
G04 Draw part Vss_6*
G54D11*
G01X35500Y40500D03*
G54D12*
G01X35500Y41500D03*
G04 Draw part X_IC_0_CD4007_6*
G54D13*
G01X45000Y43000D03*
G54D14*
G01X45000Y42000D03*
G01X45000Y41000D03*
G01X45000Y40000D03*
G01X45000Y39000D03*
G01X45000Y38000D03*
G01X45000Y37000D03*
G01X48000Y37000D03*
G01X48000Y38000D03*
G01X48000Y39000D03*
G01X48000Y40000D03*
G01X48000Y41000D03*
G01X48000Y42000D03*
G01X48000Y43000D03*
G04 Draw part X_IC_1_CD4007_6*
G54D13*
G01X54000Y43000D03*
G54D14*
G01X54000Y42000D03*
G01X54000Y41000D03*
G01X54000Y40000D03*
G01X54000Y39000D03*
G01X54000Y38000D03*
G01X54000Y37000D03*
G01X57000Y37000D03*
G01X57000Y38000D03*
G01X57000Y39000D03*
G01X57000Y40000D03*
G01X57000Y41000D03*
G01X57000Y42000D03*
G01X57000Y43000D03*
G04 Draw part X_IC_2_CD4007_6*
G54D13*
G01X54000Y52000D03*
G54D14*
G01X54000Y51000D03*
G01X54000Y50000D03*
G01X54000Y49000D03*
G01X54000Y48000D03*
G01X54000Y47000D03*
G01X54000Y46000D03*
G01X57000Y46000D03*
G01X57000Y47000D03*
G01X57000Y48000D03*
G01X57000Y49000D03*
G01X57000Y50000D03*
G01X57000Y51000D03*
G01X57000Y52000D03*
G04 Draw part X_IC_3_CD4016_6*
G54D13*
G01X45000Y52000D03*
G54D14*
G01X45000Y51000D03*
G01X45000Y50000D03*
G01X45000Y49000D03*
G01X45000Y48000D03*
G01X45000Y47000D03*
G01X45000Y46000D03*
G01X48000Y46000D03*
G01X48000Y47000D03*
G01X48000Y48000D03*
G01X48000Y49000D03*
G01X48000Y50000D03*
G01X48000Y51000D03*
G01X48000Y52000D03*
G04 Draw part RP2_6*
G54D15*
G01X43000Y47000D03*
G01X43000Y52000D03*
G04 Draw part RN2_6*
G01X40000Y52000D03*
G01X40000Y47000D03*
G04 Draw part RP4_6*
G01X40000Y42000D03*
G01X40000Y37000D03*
G04 Draw part RN4_6*
G01X43000Y37000D03*
G01X43000Y42000D03*
G04 Draw part RP3_6*
G01X62500Y37000D03*
G01X62500Y42000D03*
G04 Draw part RN3_6*
G01X59500Y42000D03*
G01X59500Y37000D03*
G04 Draw part RP1_6*
G01X51000Y51000D03*
G01X51000Y46000D03*
G04 Draw part RN1_6*
G01X51000Y42000D03*
G01X51000Y37000D03*
G04 Draw part RP5_6*
G01X59500Y51000D03*
G01X59500Y46000D03*
G04 Draw part RN5_6*
G01X62500Y46000D03*
G01X62500Y51000D03*
G04 Draw part Vq_6*
G54D11*
G01X61000Y43000D03*
G54D12*
G01X61000Y44000D03*
G04 Draw part Vclk_7*
G54D11*
G01X35500Y25500D03*
G54D12*
G01X35500Y26500D03*
G04 Draw part Vd_7*
G54D11*
G01X35500Y28500D03*
G54D12*
G01X35500Y29500D03*
G04 Draw part Vdd_7*
G54D11*
G01X35500Y22500D03*
G54D12*
G01X35500Y23500D03*
G04 Draw part Vss_7*
G54D11*
G01X35500Y20500D03*
G54D12*
G01X35500Y21500D03*
G04 Draw part X_IC_0_CD4007_7*
G54D13*
G01X45000Y23000D03*
G54D14*
G01X45000Y22000D03*
G01X45000Y21000D03*
G01X45000Y20000D03*
G01X45000Y19000D03*
G01X45000Y18000D03*
G01X45000Y17000D03*
G01X48000Y17000D03*
G01X48000Y18000D03*
G01X48000Y19000D03*
G01X48000Y20000D03*
G01X48000Y21000D03*
G01X48000Y22000D03*
G01X48000Y23000D03*
G04 Draw part X_IC_1_CD4007_7*
G54D13*
G01X54000Y23000D03*
G54D14*
G01X54000Y22000D03*
G01X54000Y21000D03*
G01X54000Y20000D03*
G01X54000Y19000D03*
G01X54000Y18000D03*
G01X54000Y17000D03*
G01X57000Y17000D03*
G01X57000Y18000D03*
G01X57000Y19000D03*
G01X57000Y20000D03*
G01X57000Y21000D03*
G01X57000Y22000D03*
G01X57000Y23000D03*
G04 Draw part X_IC_2_CD4007_7*
G54D13*
G01X54000Y32000D03*
G54D14*
G01X54000Y31000D03*
G01X54000Y30000D03*
G01X54000Y29000D03*
G01X54000Y28000D03*
G01X54000Y27000D03*
G01X54000Y26000D03*
G01X57000Y26000D03*
G01X57000Y27000D03*
G01X57000Y28000D03*
G01X57000Y29000D03*
G01X57000Y30000D03*
G01X57000Y31000D03*
G01X57000Y32000D03*
G04 Draw part X_IC_3_CD4016_7*
G54D13*
G01X45000Y32000D03*
G54D14*
G01X45000Y31000D03*
G01X45000Y30000D03*
G01X45000Y29000D03*
G01X45000Y28000D03*
G01X45000Y27000D03*
G01X45000Y26000D03*
G01X48000Y26000D03*
G01X48000Y27000D03*
G01X48000Y28000D03*
G01X48000Y29000D03*
G01X48000Y30000D03*
G01X48000Y31000D03*
G01X48000Y32000D03*
G04 Draw part RP2_7*
G54D15*
G01X43000Y27000D03*
G01X43000Y32000D03*
G04 Draw part RN2_7*
G01X40000Y32000D03*
G01X40000Y27000D03*
G04 Draw part RP4_7*
G01X40000Y22000D03*
G01X40000Y17000D03*
G04 Draw part RN4_7*
G01X43000Y17000D03*
G01X43000Y22000D03*
G04 Draw part RP3_7*
G01X62500Y17000D03*
G01X62500Y22000D03*
G04 Draw part RN3_7*
G01X59500Y22000D03*
G01X59500Y17000D03*
G04 Draw part RP1_7*
G01X51000Y31000D03*
G01X51000Y26000D03*
G04 Draw part RN1_7*
G01X51000Y22000D03*
G01X51000Y17000D03*
G04 Draw part RP5_7*
G01X59500Y31000D03*
G01X59500Y26000D03*
G04 Draw part RN5_7*
G01X62500Y26000D03*
G01X62500Y31000D03*
G04 Draw part Vq_7*
G54D11*
G01X61000Y23000D03*
G54D12*
G01X61000Y24000D03*
G04 Draw part Vclk_8*
G54D11*
G01X35500Y5500D03*
G54D12*
G01X35500Y6500D03*
G04 Draw part Vd_8*
G54D11*
G01X35500Y8500D03*
G54D12*
G01X35500Y9500D03*
G04 Draw part Vdd_8*
G54D11*
G01X35500Y2500D03*
G54D12*
G01X35500Y3500D03*
G04 Draw part Vss_8*
G54D11*
G01X35500Y500D03*
G54D12*
G01X35500Y1500D03*
G04 Draw part X_IC_0_CD4007_8*
G54D13*
G01X45000Y3000D03*
G54D14*
G01X45000Y2000D03*
G01X45000Y1000D03*
G01X45000Y0D03*
G01X45000Y-1000D03*
G01X45000Y-2000D03*
G01X45000Y-3000D03*
G01X48000Y-3000D03*
G01X48000Y-2000D03*
G01X48000Y-1000D03*
G01X48000Y0D03*
G01X48000Y1000D03*
G01X48000Y2000D03*
G01X48000Y3000D03*
G04 Draw part X_IC_1_CD4007_8*
G54D13*
G01X54000Y3000D03*
G54D14*
G01X54000Y2000D03*
G01X54000Y1000D03*
G01X54000Y0D03*
G01X54000Y-1000D03*
G01X54000Y-2000D03*
G01X54000Y-3000D03*
G01X57000Y-3000D03*
G01X57000Y-2000D03*
G01X57000Y-1000D03*
G01X57000Y0D03*
G01X57000Y1000D03*
G01X57000Y2000D03*
G01X57000Y3000D03*
G04 Draw part X_IC_2_CD4007_8*
G54D13*
G01X54000Y12000D03*
G54D14*
G01X54000Y11000D03*
G01X54000Y10000D03*
G01X54000Y9000D03*
G01X54000Y8000D03*
G01X54000Y7000D03*
G01X54000Y6000D03*
G01X57000Y6000D03*
G01X57000Y7000D03*
G01X57000Y8000D03*
G01X57000Y9000D03*
G01X57000Y10000D03*
G01X57000Y11000D03*
G01X57000Y12000D03*
G04 Draw part X_IC_3_CD4016_8*
G54D13*
G01X45000Y12000D03*
G54D14*
G01X45000Y11000D03*
G01X45000Y10000D03*
G01X45000Y9000D03*
G01X45000Y8000D03*
G01X45000Y7000D03*
G01X45000Y6000D03*
G01X48000Y6000D03*
G01X48000Y7000D03*
G01X48000Y8000D03*
G01X48000Y9000D03*
G01X48000Y10000D03*
G01X48000Y11000D03*
G01X48000Y12000D03*
G04 Draw part RP2_8*
G54D15*
G01X43000Y7000D03*
G01X43000Y12000D03*
G04 Draw part RN2_8*
G01X40000Y12000D03*
G01X40000Y7000D03*
G04 Draw part RP4_8*
G01X40000Y2000D03*
G01X40000Y-3000D03*
G04 Draw part RN4_8*
G01X43000Y-3000D03*
G01X43000Y2000D03*
G04 Draw part RP3_8*
G01X62500Y-3000D03*
G01X62500Y2000D03*
G04 Draw part RN3_8*
G01X59500Y2000D03*
G01X59500Y-3000D03*
G04 Draw part RP1_8*
G01X51000Y11000D03*
G01X51000Y6000D03*
G04 Draw part RN1_8*
G01X51000Y2000D03*
G01X51000Y-3000D03*
G04 Draw part RP5_8*
G01X59500Y11000D03*
G01X59500Y6000D03*
G04 Draw part RN5_8*
G01X62500Y6000D03*
G01X62500Y11000D03*
G04 Draw part Vq_8*
G54D11*
G01X61000Y3000D03*
G54D12*
G01X61000Y4000D03*
G04 Draw part INPUTS*
G54D11*
G01X9500Y-10000D03*
G54D12*
G01X9500Y-9000D03*
G01X10500Y-10000D03*
G01X10500Y-9000D03*
G01X11500Y-10000D03*
G01X11500Y-9000D03*
G01X12500Y-10000D03*
G01X12500Y-9000D03*
G01X13500Y-10000D03*
G01X13500Y-9000D03*
G01X14500Y-10000D03*
G01X14500Y-9000D03*
G01X15500Y-10000D03*
G01X15500Y-9000D03*
G01X16500Y-10000D03*
G01X16500Y-9000D03*
G01X17500Y-10000D03*
G01X17500Y-9000D03*
G04 Draw part OUTPUTS*
G54D11*
G01X22000Y-10000D03*
G54D12*
G01X22000Y-9000D03*
G01X23000Y-10000D03*
G01X23000Y-9000D03*
G01X24000Y-10000D03*
G01X24000Y-9000D03*
G01X25000Y-10000D03*
G01X25000Y-9000D03*
G01X26000Y-10000D03*
G01X26000Y-9000D03*
G01X27000Y-10000D03*
G01X27000Y-9000D03*
G01X28000Y-10000D03*
G01X28000Y-9000D03*
G01X29000Y-10000D03*
G01X29000Y-9000D03*
G01X30000Y-10000D03*
G01X30000Y-9000D03*
G04 Draw part POWER*
G54D11*
G01X0Y-10000D03*
G54D12*
G01X0Y-9000D03*
G01X1000Y-10000D03*
G01X1000Y-9000D03*
G01X2000Y-10000D03*
G01X2000Y-9000D03*
G01X3000Y-10000D03*
G01X3000Y-9000D03*

G04 Draw traces*
G54D16*
G01X12500Y11000D02*
G01X12500Y10822D01*
G01X12500Y10822D02*
G01X12496Y10819D01*
G01X12496Y10819D02*
G01X9822Y8145D01*
G01X9822Y8145D02*
G01X9822Y3677D01*
G01X9822Y3677D02*
G01X12500Y1000D01*
G01X15500Y7000D02*
G01X16076Y6424D01*
G01X16076Y6424D02*
G01X16076Y5760D01*
G01X16076Y5760D02*
G01X15739Y5424D01*
G01X15739Y5424D02*
G01X15262Y5424D01*
G01X15262Y5424D02*
G01X13908Y6778D01*
G01X13908Y6778D02*
G01X13908Y9406D01*
G01X13908Y9406D02*
G01X12496Y10819D01*
G54D17*
G01X9348Y26848D03*
G54D16*
G01X9348Y26848D02*
G01X9348Y21151D01*
G01X9348Y21151D02*
G01X12500Y18000D01*
G01X10500Y47000D02*
G01X15500Y42000D01*
G01X15500Y48000D02*
G01X16431Y47069D01*
G01X16431Y47069D02*
G01X16431Y45072D01*
G01X16431Y45072D02*
G01X16431Y43069D01*
G01X16431Y43069D02*
G01X21500Y38000D01*
G01X12500Y49000D02*
G01X13558Y47941D01*
G01X13558Y47941D02*
G01X13558Y46629D01*
G01X13558Y46629D02*
G01X15115Y45072D01*
G01X15115Y45072D02*
G01X16431Y45072D01*
G01X-5500Y22000D02*
G01X-7075Y23575D01*
G01X-7075Y23575D02*
G01X-8425Y23575D01*
G01X-8425Y23575D02*
G01X-11000Y21000D01*
G01X-4000Y23000D02*
G01X-3450Y23000D01*
G01X-3450Y23000D02*
G01X-3450Y22950D01*
G01X-3450Y22950D02*
G01X-2500Y22000D01*
G01X-4000Y23000D02*
G01X-4550Y23000D01*
G01X-4550Y23000D02*
G01X-4550Y22950D01*
G01X-4550Y22950D02*
G01X-5500Y22000D01*
G01X-14000Y51000D02*
G01X-12425Y52575D01*
G01X-12425Y52575D02*
G01X-10596Y52575D01*
G01X-10596Y52575D02*
G01X-10425Y52403D01*
G01X-10425Y52403D02*
G01X-10425Y44150D01*
G01X-10425Y44150D02*
G01X-11000Y43575D01*
G01X-11000Y43575D02*
G01X-11000Y43000D01*
G01X-17000Y46000D02*
G01X-17665Y46665D01*
G01X-17665Y46665D02*
G01X-17665Y50641D01*
G01X-17665Y50641D02*
G01X-19599Y52575D01*
G01X-19599Y52575D02*
G01X-20462Y52575D01*
G01X-20462Y52575D02*
G01X-24537Y48500D01*
G01X-24537Y48500D02*
G01X-29500Y48500D01*
G01X-20000Y51000D02*
G01X-20000Y50822D01*
G01X-20000Y50822D02*
G01X-20003Y50819D01*
G01X-20003Y50819D02*
G01X-22677Y48145D01*
G01X-22677Y48145D02*
G01X-22677Y43677D01*
G01X-22677Y43677D02*
G01X-20000Y41000D01*
G01X-17000Y47000D02*
G01X-16424Y46424D01*
G01X-16424Y46424D02*
G01X-16424Y45760D01*
G01X-16424Y45760D02*
G01X-16760Y45424D01*
G01X-16760Y45424D02*
G01X-17237Y45424D01*
G01X-17237Y45424D02*
G01X-18591Y46778D01*
G01X-18591Y46778D02*
G01X-18591Y49406D01*
G01X-18591Y49406D02*
G01X-20003Y50819D01*
G01X45000Y51000D02*
G01X45000Y50822D01*
G01X45000Y50822D02*
G01X44996Y50819D01*
G01X44996Y50819D02*
G01X42322Y48145D01*
G01X42322Y48145D02*
G01X42322Y43677D01*
G01X42322Y43677D02*
G01X45000Y41000D01*
G01X48000Y47000D02*
G01X48576Y46424D01*
G01X48576Y46424D02*
G01X48576Y45760D01*
G01X48576Y45760D02*
G01X48239Y45424D01*
G01X48239Y45424D02*
G01X47762Y45424D01*
G01X47762Y45424D02*
G01X46408Y46778D01*
G01X46408Y46778D02*
G01X46408Y49406D01*
G01X46408Y49406D02*
G01X44996Y50819D01*
G54D17*
G01X9348Y6848D03*
G54D16*
G01X9348Y6848D02*
G01X9348Y1151D01*
G01X9348Y1151D02*
G01X12500Y-2000D01*
G01X10500Y27000D02*
G01X15500Y22000D01*
G01X15500Y28000D02*
G01X16431Y27069D01*
G01X16431Y27069D02*
G01X16431Y25072D01*
G01X16431Y25072D02*
G01X16431Y23069D01*
G01X16431Y23069D02*
G01X21500Y18000D01*
G01X12500Y29000D02*
G01X13558Y27941D01*
G01X13558Y27941D02*
G01X13558Y26629D01*
G01X13558Y26629D02*
G01X15115Y25072D01*
G01X15115Y25072D02*
G01X16431Y25072D01*
G01X-5500Y2000D02*
G01X-7075Y3575D01*
G01X-7075Y3575D02*
G01X-8425Y3575D01*
G01X-8425Y3575D02*
G01X-11000Y1000D01*
G01X-4000Y3000D02*
G01X-3450Y3000D01*
G01X-3450Y3000D02*
G01X-3450Y2950D01*
G01X-3450Y2950D02*
G01X-2500Y2000D01*
G01X-4000Y3000D02*
G01X-4550Y3000D01*
G01X-4550Y3000D02*
G01X-4550Y2950D01*
G01X-4550Y2950D02*
G01X-5500Y2000D01*
G01X-29500Y23500D02*
G01X-30050Y24050D01*
G01X-30050Y24050D02*
G01X-30050Y25950D01*
G01X-30050Y25950D02*
G01X-29500Y26500D01*
G01X-29500Y29500D02*
G01X-30050Y28950D01*
G01X-30050Y28950D02*
G01X-30050Y27050D01*
G01X-30050Y27050D02*
G01X-29500Y26500D01*
G01X-29500Y20500D02*
G01X-30050Y21050D01*
G01X-30050Y21050D02*
G01X-30050Y22950D01*
G01X-30050Y22950D02*
G01X-29500Y23500D01*
G01X-14000Y26000D02*
G01X-17000Y29000D01*
G01X-14000Y22000D02*
G01X-14000Y26000D01*
G01X45000Y31000D02*
G01X45000Y30822D01*
G01X45000Y30822D02*
G01X44996Y30819D01*
G01X44996Y30819D02*
G01X42322Y28145D01*
G01X42322Y28145D02*
G01X42322Y23677D01*
G01X42322Y23677D02*
G01X45000Y21000D01*
G01X48000Y27000D02*
G01X48576Y26424D01*
G01X48576Y26424D02*
G01X48576Y25760D01*
G01X48576Y25760D02*
G01X48239Y25424D01*
G01X48239Y25424D02*
G01X47762Y25424D01*
G01X47762Y25424D02*
G01X46408Y26778D01*
G01X46408Y26778D02*
G01X46408Y29406D01*
G01X46408Y29406D02*
G01X44996Y30819D01*
G54D17*
G01X41848Y46848D03*
G54D16*
G01X41848Y46848D02*
G01X41848Y41151D01*
G01X41848Y41151D02*
G01X45000Y38000D01*
G01X10500Y7000D02*
G01X15500Y2000D01*
G01X15500Y8000D02*
G01X16431Y7069D01*
G01X16431Y7069D02*
G01X16431Y5072D01*
G01X16431Y5072D02*
G01X16431Y3069D01*
G01X16431Y3069D02*
G01X21500Y-2000D01*
G01X12500Y9000D02*
G01X13558Y7941D01*
G01X13558Y7941D02*
G01X13558Y6629D01*
G01X13558Y6629D02*
G01X15115Y5072D01*
G01X15115Y5072D02*
G01X16431Y5072D01*
G01X27000Y42000D02*
G01X25425Y43575D01*
G01X25425Y43575D02*
G01X24075Y43575D01*
G01X24075Y43575D02*
G01X21500Y41000D01*
G01X28500Y43000D02*
G01X29050Y43000D01*
G01X29050Y43000D02*
G01X29050Y42950D01*
G01X29050Y42950D02*
G01X30000Y42000D01*
G01X28500Y43000D02*
G01X27950Y43000D01*
G01X27950Y43000D02*
G01X27950Y42950D01*
G01X27950Y42950D02*
G01X27000Y42000D01*
G01X-14000Y6000D02*
G01X-17000Y9000D01*
G01X-14000Y2000D02*
G01X-14000Y6000D01*
G01X-2500Y51000D02*
G01X-7500Y46000D01*
G01X-7500Y46000D02*
G01X-8000Y46000D01*
G01X45000Y11000D02*
G01X45000Y10822D01*
G01X45000Y10822D02*
G01X44996Y10819D01*
G01X44996Y10819D02*
G01X42322Y8145D01*
G01X42322Y8145D02*
G01X42322Y3677D01*
G01X42322Y3677D02*
G01X45000Y1000D01*
G01X48000Y7000D02*
G01X48576Y6424D01*
G01X48576Y6424D02*
G01X48576Y5760D01*
G01X48576Y5760D02*
G01X48239Y5424D01*
G01X48239Y5424D02*
G01X47762Y5424D01*
G01X47762Y5424D02*
G01X46408Y6778D01*
G01X46408Y6778D02*
G01X46408Y9406D01*
G01X46408Y9406D02*
G01X44996Y10819D01*
G54D17*
G01X41848Y26848D03*
G54D16*
G01X41848Y26848D02*
G01X41848Y21151D01*
G01X41848Y21151D02*
G01X45000Y18000D01*
G01X43000Y47000D02*
G01X48000Y42000D01*
G01X48000Y48000D02*
G01X48931Y47069D01*
G01X48931Y47069D02*
G01X48931Y45072D01*
G01X48931Y45072D02*
G01X48931Y43069D01*
G01X48931Y43069D02*
G01X54000Y38000D01*
G01X45000Y49000D02*
G01X46058Y47941D01*
G01X46058Y47941D02*
G01X46058Y46629D01*
G01X46058Y46629D02*
G01X47615Y45072D01*
G01X47615Y45072D02*
G01X48931Y45072D01*
G01X27000Y22000D02*
G01X25425Y23575D01*
G01X25425Y23575D02*
G01X24075Y23575D01*
G01X24075Y23575D02*
G01X21500Y21000D01*
G01X28500Y23000D02*
G01X29050Y23000D01*
G01X29050Y23000D02*
G01X29050Y22950D01*
G01X29050Y22950D02*
G01X30000Y22000D01*
G01X28500Y23000D02*
G01X27950Y23000D01*
G01X27950Y23000D02*
G01X27950Y22950D01*
G01X27950Y22950D02*
G01X27000Y22000D01*
G01X18500Y46000D02*
G01X15500Y49000D01*
G01X18500Y42000D02*
G01X18500Y46000D01*
G54D17*
G01X41848Y6848D03*
G54D16*
G01X41848Y6848D02*
G01X41848Y1151D01*
G01X41848Y1151D02*
G01X45000Y-2000D01*
G01X43000Y27000D02*
G01X48000Y22000D01*
G01X48000Y28000D02*
G01X48931Y27069D01*
G01X48931Y27069D02*
G01X48931Y25072D01*
G01X48931Y25072D02*
G01X48931Y23069D01*
G01X48931Y23069D02*
G01X54000Y18000D01*
G01X45000Y29000D02*
G01X46058Y27941D01*
G01X46058Y27941D02*
G01X46058Y26629D01*
G01X46058Y26629D02*
G01X47615Y25072D01*
G01X47615Y25072D02*
G01X48931Y25072D01*
G01X27000Y2000D02*
G01X25425Y3575D01*
G01X25425Y3575D02*
G01X24075Y3575D01*
G01X24075Y3575D02*
G01X21500Y1000D01*
G01X28500Y3000D02*
G01X29050Y3000D01*
G01X29050Y3000D02*
G01X29050Y2950D01*
G01X29050Y2950D02*
G01X30000Y2000D01*
G01X28500Y3000D02*
G01X27950Y3000D01*
G01X27950Y3000D02*
G01X27950Y2950D01*
G01X27950Y2950D02*
G01X27000Y2000D01*
G01X18500Y26000D02*
G01X15500Y29000D01*
G01X18500Y22000D02*
G01X18500Y26000D01*
G01X-2500Y17000D02*
G01X-7500Y22000D01*
G01X-7500Y22000D02*
G01X-8000Y22000D01*
G01X-22000Y22000D02*
G01X-22000Y21000D01*
G01X-22000Y21000D02*
G01X-20000Y19000D01*
G01X-17000Y26000D02*
G01X-17665Y26665D01*
G01X-17665Y26665D02*
G01X-17665Y30641D01*
G01X-17665Y30641D02*
G01X-19599Y32575D01*
G01X-19599Y32575D02*
G01X-20462Y32575D01*
G01X-20462Y32575D02*
G01X-24537Y28500D01*
G01X-24537Y28500D02*
G01X-29500Y28500D01*
G01X-14000Y46000D02*
G01X-17000Y49000D01*
G01X-14000Y42000D02*
G01X-14000Y46000D01*
G01X43000Y7000D02*
G01X48000Y2000D01*
G01X48000Y8000D02*
G01X48931Y7069D01*
G01X48931Y7069D02*
G01X48931Y5072D01*
G01X48931Y5072D02*
G01X48931Y3069D01*
G01X48931Y3069D02*
G01X54000Y-2000D01*
G01X45000Y9000D02*
G01X46058Y7941D01*
G01X46058Y7941D02*
G01X46058Y6629D01*
G01X46058Y6629D02*
G01X47615Y5072D01*
G01X47615Y5072D02*
G01X48931Y5072D01*
G01X59500Y42000D02*
G01X57925Y43575D01*
G01X57925Y43575D02*
G01X56575Y43575D01*
G01X56575Y43575D02*
G01X54000Y41000D01*
G01X61000Y43000D02*
G01X61550Y43000D01*
G01X61550Y43000D02*
G01X61550Y42950D01*
G01X61550Y42950D02*
G01X62500Y42000D01*
G01X61000Y43000D02*
G01X60450Y43000D01*
G01X60450Y43000D02*
G01X60450Y42950D01*
G01X60450Y42950D02*
G01X59500Y42000D01*
G01X18500Y6000D02*
G01X15500Y9000D01*
G01X18500Y2000D02*
G01X18500Y6000D01*
G01X-2500Y-3000D02*
G01X-7500Y2000D01*
G01X-7500Y2000D02*
G01X-8000Y2000D01*
G01X-22000Y2000D02*
G01X-22000Y1000D01*
G01X-22000Y1000D02*
G01X-20000Y-1000D01*
G01X-17000Y6000D02*
G01X-17665Y6665D01*
G01X-17665Y6665D02*
G01X-17665Y10641D01*
G01X-17665Y10641D02*
G01X-19599Y12575D01*
G01X-19599Y12575D02*
G01X-20462Y12575D01*
G01X-20462Y12575D02*
G01X-24537Y8500D01*
G01X-24537Y8500D02*
G01X-29500Y8500D01*
G01X-22000Y42000D02*
G01X-22000Y41000D01*
G01X-22000Y41000D02*
G01X-20000Y39000D01*
G01X59500Y22000D02*
G01X57925Y23575D01*
G01X57925Y23575D02*
G01X56575Y23575D01*
G01X56575Y23575D02*
G01X54000Y21000D01*
G01X61000Y23000D02*
G01X61550Y23000D01*
G01X61550Y23000D02*
G01X61550Y22950D01*
G01X61550Y22950D02*
G01X62500Y22000D01*
G01X61000Y23000D02*
G01X60450Y23000D01*
G01X60450Y23000D02*
G01X60450Y22950D01*
G01X60450Y22950D02*
G01X59500Y22000D01*
G01X51000Y46000D02*
G01X48000Y49000D01*
G01X51000Y42000D02*
G01X51000Y46000D01*
G01X30000Y37000D02*
G01X25000Y42000D01*
G01X25000Y42000D02*
G01X24500Y42000D01*
G01X10500Y42000D02*
G01X10500Y41000D01*
G01X10500Y41000D02*
G01X12500Y39000D01*
G01X15500Y46000D02*
G01X14834Y46665D01*
G01X14834Y46665D02*
G01X14834Y50641D01*
G01X14834Y50641D02*
G01X12900Y52575D01*
G01X12900Y52575D02*
G01X12037Y52575D01*
G01X12037Y52575D02*
G01X7962Y48500D01*
G01X7962Y48500D02*
G01X3000Y48500D01*
G01X59500Y2000D02*
G01X57925Y3575D01*
G01X57925Y3575D02*
G01X56575Y3575D01*
G01X56575Y3575D02*
G01X54000Y1000D01*
G01X61000Y3000D02*
G01X61550Y3000D01*
G01X61550Y3000D02*
G01X61550Y2950D01*
G01X61550Y2950D02*
G01X62500Y2000D01*
G01X61000Y3000D02*
G01X60450Y3000D01*
G01X60450Y3000D02*
G01X60450Y2950D01*
G01X60450Y2950D02*
G01X59500Y2000D01*
G01X51000Y26000D02*
G01X48000Y29000D01*
G01X51000Y22000D02*
G01X51000Y26000D01*
G01X30000Y17000D02*
G01X25000Y22000D01*
G01X25000Y22000D02*
G01X24500Y22000D01*
G01X10500Y22000D02*
G01X10500Y21000D01*
G01X10500Y21000D02*
G01X12500Y19000D01*
G01X15500Y26000D02*
G01X14834Y26665D01*
G01X14834Y26665D02*
G01X14834Y30641D01*
G01X14834Y30641D02*
G01X12900Y32575D01*
G01X12900Y32575D02*
G01X12037Y32575D01*
G01X12037Y32575D02*
G01X7962Y28500D01*
G01X7962Y28500D02*
G01X3000Y28500D01*
G01X51000Y6000D02*
G01X48000Y9000D01*
G01X51000Y2000D02*
G01X51000Y6000D01*
G01X30000Y-3000D02*
G01X25000Y2000D01*
G01X25000Y2000D02*
G01X24500Y2000D01*
G01X10500Y2000D02*
G01X10500Y1000D01*
G01X10500Y1000D02*
G01X12500Y-1000D01*
G01X15500Y6000D02*
G01X14834Y6665D01*
G01X14834Y6665D02*
G01X14834Y10641D01*
G01X14834Y10641D02*
G01X12900Y12575D01*
G01X12900Y12575D02*
G01X12037Y12575D01*
G01X12037Y12575D02*
G01X7962Y8500D01*
G01X7962Y8500D02*
G01X3000Y8500D01*
G01X62500Y37000D02*
G01X57500Y42000D01*
G01X57500Y42000D02*
G01X57000Y42000D01*
G01X43000Y42000D02*
G01X43000Y41000D01*
G01X43000Y41000D02*
G01X45000Y39000D01*
G01X48000Y46000D02*
G01X47334Y46665D01*
G01X47334Y46665D02*
G01X47334Y50641D01*
G01X47334Y50641D02*
G01X45400Y52575D01*
G01X45400Y52575D02*
G01X44537Y52575D01*
G01X44537Y52575D02*
G01X40462Y48500D01*
G01X40462Y48500D02*
G01X35500Y48500D01*
G01X-25000Y27000D02*
G01X-23951Y25951D01*
G01X-23951Y25951D02*
G01X-23951Y20138D01*
G01X-23951Y20138D02*
G01X-20233Y16420D01*
G01X-20233Y16420D02*
G01X-17579Y16420D01*
G01X-17579Y16420D02*
G01X-17000Y17000D01*
G01X-2500Y31000D02*
G01X-7500Y26000D01*
G01X-7500Y26000D02*
G01X-8000Y26000D01*
G01X-14000Y31000D02*
G01X-12425Y32575D01*
G01X-12425Y32575D02*
G01X-10596Y32575D01*
G01X-10596Y32575D02*
G01X-10425Y32403D01*
G01X-10425Y32403D02*
G01X-10425Y24150D01*
G01X-10425Y24150D02*
G01X-11000Y23575D01*
G01X-11000Y23575D02*
G01X-11000Y23000D01*
G01X-20000Y37000D02*
G01X-19423Y37576D01*
G01X-19423Y37576D02*
G01X-19423Y39423D01*
G01X-19423Y39423D02*
G01X-20000Y40000D01*
G01X-11000Y46000D02*
G01X-11576Y45423D01*
G01X-11576Y45423D02*
G01X-11576Y40576D01*
G01X-11576Y40576D02*
G01X-11000Y40000D01*
G01X-11000Y37000D02*
G01X-10423Y37576D01*
G01X-10423Y37576D02*
G01X-10423Y39423D01*
G01X-10423Y39423D02*
G01X-11000Y40000D01*
G01X-20000Y17000D02*
G01X-19423Y17576D01*
G01X-19423Y17576D02*
G01X-19423Y19423D01*
G01X-19423Y19423D02*
G01X-20000Y20000D01*
G01X-11000Y26000D02*
G01X-11576Y25423D01*
G01X-11576Y25423D02*
G01X-11576Y20576D01*
G01X-11576Y20576D02*
G01X-11000Y20000D01*
G01X-11000Y17000D02*
G01X-10423Y17576D01*
G01X-10423Y17576D02*
G01X-10423Y19423D01*
G01X-10423Y19423D02*
G01X-11000Y20000D01*
G01X-20000Y-3000D02*
G01X-19423Y-2423D01*
G01X-19423Y-2423D02*
G01X-19423Y-576D01*
G01X-19423Y-576D02*
G01X-20000Y0D01*
G01X-11000Y6000D02*
G01X-11576Y5423D01*
G01X-11576Y5423D02*
G01X-11576Y576D01*
G01X-11576Y576D02*
G01X-11000Y0D01*
G01X-11000Y-3000D02*
G01X-10423Y-2423D01*
G01X-10423Y-2423D02*
G01X-10423Y-576D01*
G01X-10423Y-576D02*
G01X-11000Y0D01*
G01X12500Y37000D02*
G01X13076Y37576D01*
G01X13076Y37576D02*
G01X13076Y39423D01*
G01X13076Y39423D02*
G01X12500Y40000D01*
G01X21500Y46000D02*
G01X20923Y45423D01*
G01X20923Y45423D02*
G01X20923Y40576D01*
G01X20923Y40576D02*
G01X21500Y40000D01*
G01X21500Y37000D02*
G01X22076Y37576D01*
G01X22076Y37576D02*
G01X22076Y39423D01*
G01X22076Y39423D02*
G01X21500Y40000D01*
G01X12500Y17000D02*
G01X13076Y17576D01*
G01X13076Y17576D02*
G01X13076Y19423D01*
G01X13076Y19423D02*
G01X12500Y20000D01*
G01X21500Y26000D02*
G01X20923Y25423D01*
G01X20923Y25423D02*
G01X20923Y20576D01*
G01X20923Y20576D02*
G01X21500Y20000D01*
G01X21500Y17000D02*
G01X22076Y17576D01*
G01X22076Y17576D02*
G01X22076Y19423D01*
G01X22076Y19423D02*
G01X21500Y20000D01*
G01X12500Y-3000D02*
G01X13076Y-2423D01*
G01X13076Y-2423D02*
G01X13076Y-576D01*
G01X13076Y-576D02*
G01X12500Y0D01*
G01X21500Y6000D02*
G01X20923Y5423D01*
G01X20923Y5423D02*
G01X20923Y576D01*
G01X20923Y576D02*
G01X21500Y0D01*
G01X21500Y-3000D02*
G01X22076Y-2423D01*
G01X22076Y-2423D02*
G01X22076Y-576D01*
G01X22076Y-576D02*
G01X21500Y0D01*
G01X45000Y37000D02*
G01X45576Y37576D01*
G01X45576Y37576D02*
G01X45576Y39423D01*
G01X45576Y39423D02*
G01X45000Y40000D01*
G01X54000Y46000D02*
G01X53423Y45423D01*
G01X53423Y45423D02*
G01X53423Y40576D01*
G01X53423Y40576D02*
G01X54000Y40000D01*
G01X54000Y37000D02*
G01X54576Y37576D01*
G01X54576Y37576D02*
G01X54576Y39423D01*
G01X54576Y39423D02*
G01X54000Y40000D01*
G01X45000Y17000D02*
G01X45576Y17576D01*
G01X45576Y17576D02*
G01X45576Y19423D01*
G01X45576Y19423D02*
G01X45000Y20000D01*
G01X54000Y26000D02*
G01X53423Y25423D01*
G01X53423Y25423D02*
G01X53423Y20576D01*
G01X53423Y20576D02*
G01X54000Y20000D01*
G01X54000Y17000D02*
G01X54576Y17576D01*
G01X54576Y17576D02*
G01X54576Y19423D01*
G01X54576Y19423D02*
G01X54000Y20000D01*
G01X45000Y-3000D02*
G01X45576Y-2423D01*
G01X45576Y-2423D02*
G01X45576Y-576D01*
G01X45576Y-576D02*
G01X45000Y0D01*
G01X54000Y6000D02*
G01X53423Y5423D01*
G01X53423Y5423D02*
G01X53423Y576D01*
G01X53423Y576D02*
G01X54000Y0D01*
G01X54000Y-3000D02*
G01X54576Y-2423D01*
G01X54576Y-2423D02*
G01X54576Y-576D01*
G01X54576Y-576D02*
G01X54000Y0D01*
G01X-8000Y52000D02*
G01X-8762Y51237D01*
G01X-8762Y51237D02*
G01X-9773Y50226D01*
G01X-9773Y50226D02*
G01X-9773Y43226D01*
G01X-9773Y43226D02*
G01X-11000Y42000D01*
G01X-17000Y52000D02*
G01X-16069Y52930D01*
G01X-16069Y52930D02*
G01X-10456Y52930D01*
G01X-10456Y52930D02*
G01X-8762Y51237D01*
G01X-8000Y32000D02*
G01X-8762Y31237D01*
G01X-8762Y31237D02*
G01X-9773Y30226D01*
G01X-9773Y30226D02*
G01X-9773Y23226D01*
G01X-9773Y23226D02*
G01X-11000Y22000D01*
G01X-17000Y32000D02*
G01X-16069Y32930D01*
G01X-16069Y32930D02*
G01X-10456Y32930D01*
G01X-10456Y32930D02*
G01X-8762Y31237D01*
G01X-8000Y12000D02*
G01X-8762Y11237D01*
G01X-8762Y11237D02*
G01X-9773Y10226D01*
G01X-9773Y10226D02*
G01X-9773Y3226D01*
G01X-9773Y3226D02*
G01X-11000Y2000D01*
G01X-17000Y12000D02*
G01X-16069Y12930D01*
G01X-16069Y12930D02*
G01X-10456Y12930D01*
G01X-10456Y12930D02*
G01X-8762Y11237D01*
G01X24500Y52000D02*
G01X23737Y51237D01*
G01X23737Y51237D02*
G01X22726Y50226D01*
G01X22726Y50226D02*
G01X22726Y43226D01*
G01X22726Y43226D02*
G01X21500Y42000D01*
G01X15500Y52000D02*
G01X16430Y52930D01*
G01X16430Y52930D02*
G01X22043Y52930D01*
G01X22043Y52930D02*
G01X23737Y51237D01*
G01X24500Y32000D02*
G01X23737Y31237D01*
G01X23737Y31237D02*
G01X22726Y30226D01*
G01X22726Y30226D02*
G01X22726Y23226D01*
G01X22726Y23226D02*
G01X21500Y22000D01*
G01X15500Y32000D02*
G01X16430Y32930D01*
G01X16430Y32930D02*
G01X22043Y32930D01*
G01X22043Y32930D02*
G01X23737Y31237D01*
G01X24500Y12000D02*
G01X23737Y11237D01*
G01X23737Y11237D02*
G01X22726Y10226D01*
G01X22726Y10226D02*
G01X22726Y3226D01*
G01X22726Y3226D02*
G01X21500Y2000D01*
G01X15500Y12000D02*
G01X16430Y12930D01*
G01X16430Y12930D02*
G01X22043Y12930D01*
G01X22043Y12930D02*
G01X23737Y11237D01*
G01X57000Y52000D02*
G01X56237Y51237D01*
G01X56237Y51237D02*
G01X55226Y50226D01*
G01X55226Y50226D02*
G01X55226Y43226D01*
G01X55226Y43226D02*
G01X54000Y42000D01*
G01X48000Y52000D02*
G01X48930Y52930D01*
G01X48930Y52930D02*
G01X54543Y52930D01*
G01X54543Y52930D02*
G01X56237Y51237D01*
G01X57000Y32000D02*
G01X56237Y31237D01*
G01X56237Y31237D02*
G01X55226Y30226D01*
G01X55226Y30226D02*
G01X55226Y23226D01*
G01X55226Y23226D02*
G01X54000Y22000D01*
G01X48000Y32000D02*
G01X48930Y32930D01*
G01X48930Y32930D02*
G01X54543Y32930D01*
G01X54543Y32930D02*
G01X56237Y31237D01*
G01X57000Y12000D02*
G01X56237Y11237D01*
G01X56237Y11237D02*
G01X55226Y10226D01*
G01X55226Y10226D02*
G01X55226Y3226D01*
G01X55226Y3226D02*
G01X54000Y2000D01*
G01X48000Y12000D02*
G01X48930Y12930D01*
G01X48930Y12930D02*
G01X54543Y12930D01*
G01X54543Y12930D02*
G01X56237Y11237D01*
G54D17*
G01X-23151Y46848D03*
G54D16*
G01X-23151Y46848D02*
G01X-23151Y41151D01*
G01X-23151Y41151D02*
G01X-20000Y38000D01*
G01X62500Y17000D02*
G01X57500Y22000D01*
G01X57500Y22000D02*
G01X57000Y22000D01*
G01X43000Y22000D02*
G01X43000Y21000D01*
G01X43000Y21000D02*
G01X45000Y19000D01*
G01X48000Y26000D02*
G01X47334Y26665D01*
G01X47334Y26665D02*
G01X47334Y30641D01*
G01X47334Y30641D02*
G01X45400Y32575D01*
G01X45400Y32575D02*
G01X44537Y32575D01*
G01X44537Y32575D02*
G01X40462Y28500D01*
G01X40462Y28500D02*
G01X35500Y28500D01*
G01X-25000Y7000D02*
G01X-23951Y5951D01*
G01X-23951Y5951D02*
G01X-23951Y138D01*
G01X-23951Y138D02*
G01X-20233Y-3579D01*
G01X-20233Y-3579D02*
G01X-17579Y-3579D01*
G01X-17579Y-3579D02*
G01X-17000Y-3000D01*
G01X-2500Y11000D02*
G01X-7500Y6000D01*
G01X-7500Y6000D02*
G01X-8000Y6000D01*
G01X-14000Y11000D02*
G01X-12425Y12575D01*
G01X-12425Y12575D02*
G01X-10596Y12575D01*
G01X-10596Y12575D02*
G01X-10425Y12403D01*
G01X-10425Y12403D02*
G01X-10425Y4150D01*
G01X-10425Y4150D02*
G01X-11000Y3575D01*
G01X-11000Y3575D02*
G01X-11000Y3000D01*
G01X-2500Y37000D02*
G01X-7500Y42000D01*
G01X-7500Y42000D02*
G01X-8000Y42000D01*
G01X62500Y-3000D02*
G01X57500Y2000D01*
G01X57500Y2000D02*
G01X57000Y2000D01*
G01X43000Y2000D02*
G01X43000Y1000D01*
G01X43000Y1000D02*
G01X45000Y-1000D01*
G01X48000Y6000D02*
G01X47334Y6665D01*
G01X47334Y6665D02*
G01X47334Y10641D01*
G01X47334Y10641D02*
G01X45400Y12575D01*
G01X45400Y12575D02*
G01X44537Y12575D01*
G01X44537Y12575D02*
G01X40462Y8500D01*
G01X40462Y8500D02*
G01X35500Y8500D01*
G01X7500Y47000D02*
G01X8548Y45951D01*
G01X8548Y45951D02*
G01X8548Y40138D01*
G01X8548Y40138D02*
G01X12266Y36420D01*
G01X12266Y36420D02*
G01X14920Y36420D01*
G01X14920Y36420D02*
G01X15500Y37000D01*
G01X30000Y51000D02*
G01X25000Y46000D01*
G01X25000Y46000D02*
G01X24500Y46000D01*
G01X18500Y51000D02*
G01X20075Y52575D01*
G01X20075Y52575D02*
G01X21903Y52575D01*
G01X21903Y52575D02*
G01X22075Y52403D01*
G01X22075Y52403D02*
G01X22075Y44150D01*
G01X22075Y44150D02*
G01X21500Y43575D01*
G01X21500Y43575D02*
G01X21500Y43000D01*
G01X-17000Y48000D02*
G01X-16069Y47069D01*
G01X-16069Y47069D02*
G01X-16069Y45072D01*
G01X-16069Y45072D02*
G01X-16069Y43069D01*
G01X-16069Y43069D02*
G01X-11000Y38000D01*
G01X-20000Y49000D02*
G01X-18941Y47941D01*
G01X-18941Y47941D02*
G01X-18941Y46629D01*
G01X-18941Y46629D02*
G01X-17384Y45072D01*
G01X-17384Y45072D02*
G01X-16069Y45072D01*
G01X7500Y27000D02*
G01X8548Y25951D01*
G01X8548Y25951D02*
G01X8548Y20138D01*
G01X8548Y20138D02*
G01X12266Y16420D01*
G01X12266Y16420D02*
G01X14920Y16420D01*
G01X14920Y16420D02*
G01X15500Y17000D01*
G01X30000Y31000D02*
G01X25000Y26000D01*
G01X25000Y26000D02*
G01X24500Y26000D01*
G01X18500Y31000D02*
G01X20075Y32575D01*
G01X20075Y32575D02*
G01X21903Y32575D01*
G01X21903Y32575D02*
G01X22075Y32403D01*
G01X22075Y32403D02*
G01X22075Y24150D01*
G01X22075Y24150D02*
G01X21500Y23575D01*
G01X21500Y23575D02*
G01X21500Y23000D01*
G01X-25000Y47000D02*
G01X-23951Y45951D01*
G01X-23951Y45951D02*
G01X-23951Y40138D01*
G01X-23951Y40138D02*
G01X-20233Y36420D01*
G01X-20233Y36420D02*
G01X-17579Y36420D01*
G01X-17579Y36420D02*
G01X-17000Y37000D01*
G01X7500Y7000D02*
G01X8548Y5951D01*
G01X8548Y5951D02*
G01X8548Y138D01*
G01X8548Y138D02*
G01X12266Y-3579D01*
G01X12266Y-3579D02*
G01X14920Y-3579D01*
G01X14920Y-3579D02*
G01X15500Y-3000D01*
G01X30000Y11000D02*
G01X25000Y6000D01*
G01X25000Y6000D02*
G01X24500Y6000D01*
G01X18500Y11000D02*
G01X20075Y12575D01*
G01X20075Y12575D02*
G01X21903Y12575D01*
G01X21903Y12575D02*
G01X22075Y12403D01*
G01X22075Y12403D02*
G01X22075Y4150D01*
G01X22075Y4150D02*
G01X21500Y3575D01*
G01X21500Y3575D02*
G01X21500Y3000D01*
G01X-20000Y31000D02*
G01X-20000Y30822D01*
G01X-20000Y30822D02*
G01X-20003Y30819D01*
G01X-20003Y30819D02*
G01X-22677Y28145D01*
G01X-22677Y28145D02*
G01X-22677Y23677D01*
G01X-22677Y23677D02*
G01X-20000Y21000D01*
G01X-17000Y27000D02*
G01X-16424Y26424D01*
G01X-16424Y26424D02*
G01X-16424Y25760D01*
G01X-16424Y25760D02*
G01X-16760Y25424D01*
G01X-16760Y25424D02*
G01X-17237Y25424D01*
G01X-17237Y25424D02*
G01X-18591Y26778D01*
G01X-18591Y26778D02*
G01X-18591Y29406D01*
G01X-18591Y29406D02*
G01X-20003Y30819D01*
G01X-5500Y42000D02*
G01X-7075Y43575D01*
G01X-7075Y43575D02*
G01X-8425Y43575D01*
G01X-8425Y43575D02*
G01X-11000Y41000D01*
G01X-4000Y43000D02*
G01X-3450Y43000D01*
G01X-3450Y43000D02*
G01X-3450Y42950D01*
G01X-3450Y42950D02*
G01X-2500Y42000D01*
G01X-4000Y43000D02*
G01X-4550Y43000D01*
G01X-4550Y43000D02*
G01X-4550Y42950D01*
G01X-4550Y42950D02*
G01X-5500Y42000D01*
G01X40000Y47000D02*
G01X41048Y45951D01*
G01X41048Y45951D02*
G01X41048Y40138D01*
G01X41048Y40138D02*
G01X44766Y36420D01*
G01X44766Y36420D02*
G01X47420Y36420D01*
G01X47420Y36420D02*
G01X48000Y37000D01*
G01X62500Y51000D02*
G01X57500Y46000D01*
G01X57500Y46000D02*
G01X57000Y46000D01*
G01X51000Y51000D02*
G01X52575Y52575D01*
G01X52575Y52575D02*
G01X54403Y52575D01*
G01X54403Y52575D02*
G01X54575Y52403D01*
G01X54575Y52403D02*
G01X54575Y44150D01*
G01X54575Y44150D02*
G01X54000Y43575D01*
G01X54000Y43575D02*
G01X54000Y43000D01*
G01X-20000Y11000D02*
G01X-20000Y10822D01*
G01X-20000Y10822D02*
G01X-20003Y10819D01*
G01X-20003Y10819D02*
G01X-22677Y8145D01*
G01X-22677Y8145D02*
G01X-22677Y3677D01*
G01X-22677Y3677D02*
G01X-20000Y1000D01*
G01X-17000Y7000D02*
G01X-16424Y6424D01*
G01X-16424Y6424D02*
G01X-16424Y5760D01*
G01X-16424Y5760D02*
G01X-16760Y5424D01*
G01X-16760Y5424D02*
G01X-17237Y5424D01*
G01X-17237Y5424D02*
G01X-18591Y6778D01*
G01X-18591Y6778D02*
G01X-18591Y9406D01*
G01X-18591Y9406D02*
G01X-20003Y10819D01*
G54D17*
G01X-23151Y26848D03*
G54D16*
G01X-23151Y26848D02*
G01X-23151Y21151D01*
G01X-23151Y21151D02*
G01X-20000Y18000D01*
G01X-29500Y43500D02*
G01X-30050Y44050D01*
G01X-30050Y44050D02*
G01X-30050Y45950D01*
G01X-30050Y45950D02*
G01X-29500Y46500D01*
G01X-29500Y49500D02*
G01X-30050Y48950D01*
G01X-30050Y48950D02*
G01X-30050Y47050D01*
G01X-30050Y47050D02*
G01X-29500Y46500D01*
G01X-29500Y40500D02*
G01X-30050Y41050D01*
G01X-30050Y41050D02*
G01X-30050Y42950D01*
G01X-30050Y42950D02*
G01X-29500Y43500D01*
G01X-29500Y3500D02*
G01X-30050Y4050D01*
G01X-30050Y4050D02*
G01X-30050Y5950D01*
G01X-30050Y5950D02*
G01X-29500Y6500D01*
G01X-29500Y9500D02*
G01X-30050Y8950D01*
G01X-30050Y8950D02*
G01X-30050Y7050D01*
G01X-30050Y7050D02*
G01X-29500Y6500D01*
G01X-29500Y500D02*
G01X-30050Y1050D01*
G01X-30050Y1050D02*
G01X-30050Y2950D01*
G01X-30050Y2950D02*
G01X-29500Y3500D01*
G01X3000Y43500D02*
G01X2450Y44050D01*
G01X2450Y44050D02*
G01X2450Y45950D01*
G01X2450Y45950D02*
G01X3000Y46500D01*
G01X3000Y49500D02*
G01X2450Y48950D01*
G01X2450Y48950D02*
G01X2450Y47050D01*
G01X2450Y47050D02*
G01X3000Y46500D01*
G01X3000Y40500D02*
G01X2450Y41050D01*
G01X2450Y41050D02*
G01X2450Y42950D01*
G01X2450Y42950D02*
G01X3000Y43500D01*
G01X3000Y23500D02*
G01X2450Y24050D01*
G01X2450Y24050D02*
G01X2450Y25950D01*
G01X2450Y25950D02*
G01X3000Y26500D01*
G01X3000Y29500D02*
G01X2450Y28950D01*
G01X2450Y28950D02*
G01X2450Y27050D01*
G01X2450Y27050D02*
G01X3000Y26500D01*
G01X3000Y20500D02*
G01X2450Y21050D01*
G01X2450Y21050D02*
G01X2450Y22950D01*
G01X2450Y22950D02*
G01X3000Y23500D01*
G01X3000Y3500D02*
G01X2450Y4050D01*
G01X2450Y4050D02*
G01X2450Y5950D01*
G01X2450Y5950D02*
G01X3000Y6500D01*
G01X3000Y9500D02*
G01X2450Y8950D01*
G01X2450Y8950D02*
G01X2450Y7050D01*
G01X2450Y7050D02*
G01X3000Y6500D01*
G01X3000Y500D02*
G01X2450Y1050D01*
G01X2450Y1050D02*
G01X2450Y2950D01*
G01X2450Y2950D02*
G01X3000Y3500D01*
G01X35500Y43500D02*
G01X34950Y44050D01*
G01X34950Y44050D02*
G01X34950Y45950D01*
G01X34950Y45950D02*
G01X35500Y46500D01*
G01X35500Y49500D02*
G01X34950Y48950D01*
G01X34950Y48950D02*
G01X34950Y47050D01*
G01X34950Y47050D02*
G01X35500Y46500D01*
G01X35500Y40500D02*
G01X34950Y41050D01*
G01X34950Y41050D02*
G01X34950Y42950D01*
G01X34950Y42950D02*
G01X35500Y43500D01*
G01X35500Y23500D02*
G01X34950Y24050D01*
G01X34950Y24050D02*
G01X34950Y25950D01*
G01X34950Y25950D02*
G01X35500Y26500D01*
G01X35500Y29500D02*
G01X34950Y28950D01*
G01X34950Y28950D02*
G01X34950Y27050D01*
G01X34950Y27050D02*
G01X35500Y26500D01*
G01X35500Y20500D02*
G01X34950Y21050D01*
G01X34950Y21050D02*
G01X34950Y22950D01*
G01X34950Y22950D02*
G01X35500Y23500D01*
G01X35500Y3500D02*
G01X34950Y4050D01*
G01X34950Y4050D02*
G01X34950Y5950D01*
G01X34950Y5950D02*
G01X35500Y6500D01*
G01X35500Y9500D02*
G01X34950Y8950D01*
G01X34950Y8950D02*
G01X34950Y7050D01*
G01X34950Y7050D02*
G01X35500Y6500D01*
G01X35500Y500D02*
G01X34950Y1050D01*
G01X34950Y1050D02*
G01X34950Y2950D01*
G01X34950Y2950D02*
G01X35500Y3500D01*
G01X-22000Y47000D02*
G01X-17000Y42000D01*
G01X40000Y27000D02*
G01X41048Y25951D01*
G01X41048Y25951D02*
G01X41048Y20138D01*
G01X41048Y20138D02*
G01X44766Y16420D01*
G01X44766Y16420D02*
G01X47420Y16420D01*
G01X47420Y16420D02*
G01X48000Y17000D01*
G01X62500Y31000D02*
G01X57500Y26000D01*
G01X57500Y26000D02*
G01X57000Y26000D01*
G01X51000Y31000D02*
G01X52575Y32575D01*
G01X52575Y32575D02*
G01X54403Y32575D01*
G01X54403Y32575D02*
G01X54575Y32403D01*
G01X54575Y32403D02*
G01X54575Y24150D01*
G01X54575Y24150D02*
G01X54000Y23575D01*
G01X54000Y23575D02*
G01X54000Y23000D01*
G01X12500Y51000D02*
G01X12500Y50822D01*
G01X12500Y50822D02*
G01X12496Y50819D01*
G01X12496Y50819D02*
G01X9822Y48145D01*
G01X9822Y48145D02*
G01X9822Y43677D01*
G01X9822Y43677D02*
G01X12500Y41000D01*
G01X15500Y47000D02*
G01X16076Y46424D01*
G01X16076Y46424D02*
G01X16076Y45760D01*
G01X16076Y45760D02*
G01X15739Y45424D01*
G01X15739Y45424D02*
G01X15262Y45424D01*
G01X15262Y45424D02*
G01X13908Y46778D01*
G01X13908Y46778D02*
G01X13908Y49406D01*
G01X13908Y49406D02*
G01X12496Y50819D01*
G54D17*
G01X-23151Y6848D03*
G54D16*
G01X-23151Y6848D02*
G01X-23151Y1151D01*
G01X-23151Y1151D02*
G01X-20000Y-2000D01*
G01X-22000Y27000D02*
G01X-17000Y22000D01*
G01X-17000Y28000D02*
G01X-16069Y27069D01*
G01X-16069Y27069D02*
G01X-16069Y25072D01*
G01X-16069Y25072D02*
G01X-16069Y23069D01*
G01X-16069Y23069D02*
G01X-11000Y18000D01*
G01X-20000Y29000D02*
G01X-18941Y27941D01*
G01X-18941Y27941D02*
G01X-18941Y26629D01*
G01X-18941Y26629D02*
G01X-17384Y25072D01*
G01X-17384Y25072D02*
G01X-16069Y25072D01*
G01X40000Y7000D02*
G01X41048Y5951D01*
G01X41048Y5951D02*
G01X41048Y138D01*
G01X41048Y138D02*
G01X44766Y-3579D01*
G01X44766Y-3579D02*
G01X47420Y-3579D01*
G01X47420Y-3579D02*
G01X48000Y-3000D01*
G01X62500Y11000D02*
G01X57500Y6000D01*
G01X57500Y6000D02*
G01X57000Y6000D01*
G01X51000Y11000D02*
G01X52575Y12575D01*
G01X52575Y12575D02*
G01X54403Y12575D01*
G01X54403Y12575D02*
G01X54575Y12403D01*
G01X54575Y12403D02*
G01X54575Y4150D01*
G01X54575Y4150D02*
G01X54000Y3575D01*
G01X54000Y3575D02*
G01X54000Y3000D01*
G01X12500Y31000D02*
G01X12500Y30822D01*
G01X12500Y30822D02*
G01X12496Y30819D01*
G01X12496Y30819D02*
G01X9822Y28145D01*
G01X9822Y28145D02*
G01X9822Y23677D01*
G01X9822Y23677D02*
G01X12500Y21000D01*
G01X15500Y27000D02*
G01X16076Y26424D01*
G01X16076Y26424D02*
G01X16076Y25760D01*
G01X16076Y25760D02*
G01X15739Y25424D01*
G01X15739Y25424D02*
G01X15262Y25424D01*
G01X15262Y25424D02*
G01X13908Y26778D01*
G01X13908Y26778D02*
G01X13908Y29406D01*
G01X13908Y29406D02*
G01X12496Y30819D01*
G54D17*
G01X9348Y46848D03*
G54D16*
G01X9348Y46848D02*
G01X9348Y41151D01*
G01X9348Y41151D02*
G01X12500Y38000D01*
G01X-22000Y7000D02*
G01X-17000Y2000D01*
G01X-17000Y8000D02*
G01X-16069Y7069D01*
G01X-16069Y7069D02*
G01X-16069Y5072D01*
G01X-16069Y5072D02*
G01X-16069Y3069D01*
G01X-16069Y3069D02*
G01X-11000Y-2000D01*
G01X-20000Y9000D02*
G01X-18941Y7941D01*
G01X-18941Y7941D02*
G01X-18941Y6629D01*
G01X-18941Y6629D02*
G01X-17384Y5072D01*
G01X-17384Y5072D02*
G01X-16069Y5072D01*

G04 Draw Text*
M00*
M02*
