;Holesize 1 =   28.0 PLATED MILS
;Holesize 2 =   35.0 PLATED MILS
;Holesize 3 =   14.0 PLATED MILS
M48
INCH
T01C0.028
T02C0.035
T03C0.014
%
G05
G90
T01
X-029500Y045500
X-029500Y046500
X-029500Y048500
X-029500Y049500
X-029500Y042500
X-029500Y043500
X-029500Y040500
X-029500Y041500
X-020000Y043000
X-020000Y042000
X-020000Y041000
X-020000Y040000
X-020000Y039000
X-020000Y038000
X-020000Y037000
X-017000Y037000
X-017000Y038000
X-017000Y039000
X-017000Y040000
X-017000Y041000
X-017000Y042000
X-017000Y043000
X-011000Y043000
X-011000Y042000
X-011000Y041000
X-011000Y040000
X-011000Y039000
X-011000Y038000
X-011000Y037000
X-008000Y037000
X-008000Y038000
X-008000Y039000
X-008000Y040000
X-008000Y041000
X-008000Y042000
X-008000Y043000
X-011000Y052000
X-011000Y051000
X-011000Y050000
X-011000Y049000
X-011000Y048000
X-011000Y047000
X-011000Y046000
X-008000Y046000
X-008000Y047000
X-008000Y048000
X-008000Y049000
X-008000Y050000
X-008000Y051000
X-008000Y052000
X-020000Y052000
X-020000Y051000
X-020000Y050000
X-020000Y049000
X-020000Y048000
X-020000Y047000
X-020000Y046000
X-017000Y046000
X-017000Y047000
X-017000Y048000
X-017000Y049000
X-017000Y050000
X-017000Y051000
X-017000Y052000
X-004000Y043000
X-004000Y044000
X-029500Y025500
X-029500Y026500
X-029500Y028500
X-029500Y029500
X-029500Y022500
X-029500Y023500
X-029500Y020500
X-029500Y021500
X-020000Y023000
X-020000Y022000
X-020000Y021000
X-020000Y020000
X-020000Y019000
X-020000Y018000
X-020000Y017000
X-017000Y017000
X-017000Y018000
X-017000Y019000
X-017000Y020000
X-017000Y021000
X-017000Y022000
X-017000Y023000
X-011000Y023000
X-011000Y022000
X-011000Y021000
X-011000Y020000
X-011000Y019000
X-011000Y018000
X-011000Y017000
X-008000Y017000
X-008000Y018000
X-008000Y019000
X-008000Y020000
X-008000Y021000
X-008000Y022000
X-008000Y023000
X-011000Y032000
X-011000Y031000
X-011000Y030000
X-011000Y029000
X-011000Y028000
X-011000Y027000
X-011000Y026000
X-008000Y026000
X-008000Y027000
X-008000Y028000
X-008000Y029000
X-008000Y030000
X-008000Y031000
X-008000Y032000
X-020000Y032000
X-020000Y031000
X-020000Y030000
X-020000Y029000
X-020000Y028000
X-020000Y027000
X-020000Y026000
X-017000Y026000
X-017000Y027000
X-017000Y028000
X-017000Y029000
X-017000Y030000
X-017000Y031000
X-017000Y032000
X-004000Y023000
X-004000Y024000
X-029500Y005500
X-029500Y006500
X-029500Y008500
X-029500Y009500
X-029500Y002500
X-029500Y003500
X-029500Y000500
X-029500Y001500
X-020000Y003000
X-020000Y002000
X-020000Y001000
X-020000Y000000
X-020000Y-001000
X-020000Y-002000
X-020000Y-003000
X-017000Y-003000
X-017000Y-002000
X-017000Y-001000
X-017000Y000000
X-017000Y001000
X-017000Y002000
X-017000Y003000
X-011000Y003000
X-011000Y002000
X-011000Y001000
X-011000Y000000
X-011000Y-001000
X-011000Y-002000
X-011000Y-003000
X-008000Y-003000
X-008000Y-002000
X-008000Y-001000
X-008000Y000000
X-008000Y001000
X-008000Y002000
X-008000Y003000
X-011000Y012000
X-011000Y011000
X-011000Y010000
X-011000Y009000
X-011000Y008000
X-011000Y007000
X-011000Y006000
X-008000Y006000
X-008000Y007000
X-008000Y008000
X-008000Y009000
X-008000Y010000
X-008000Y011000
X-008000Y012000
X-020000Y012000
X-020000Y011000
X-020000Y010000
X-020000Y009000
X-020000Y008000
X-020000Y007000
X-020000Y006000
X-017000Y006000
X-017000Y007000
X-017000Y008000
X-017000Y009000
X-017000Y010000
X-017000Y011000
X-017000Y012000
X-004000Y003000
X-004000Y004000
X003000Y045500
X003000Y046500
X003000Y048500
X003000Y049500
X003000Y042500
X003000Y043500
X003000Y040500
X003000Y041500
X012500Y043000
X012500Y042000
X012500Y041000
X012500Y040000
X012500Y039000
X012500Y038000
X012500Y037000
X015500Y037000
X015500Y038000
X015500Y039000
X015500Y040000
X015500Y041000
X015500Y042000
X015500Y043000
X021500Y043000
X021500Y042000
X021500Y041000
X021500Y040000
X021500Y039000
X021500Y038000
X021500Y037000
X024500Y037000
X024500Y038000
X024500Y039000
X024500Y040000
X024500Y041000
X024500Y042000
X024500Y043000
X021500Y052000
X021500Y051000
X021500Y050000
X021500Y049000
X021500Y048000
X021500Y047000
X021500Y046000
X024500Y046000
X024500Y047000
X024500Y048000
X024500Y049000
X024500Y050000
X024500Y051000
X024500Y052000
X012500Y052000
X012500Y051000
X012500Y050000
X012500Y049000
X012500Y048000
X012500Y047000
X012500Y046000
X015500Y046000
X015500Y047000
X015500Y048000
X015500Y049000
X015500Y050000
X015500Y051000
X015500Y052000
X028500Y043000
X028500Y044000
X003000Y025500
X003000Y026500
X003000Y028500
X003000Y029500
X003000Y022500
X003000Y023500
X003000Y020500
X003000Y021500
X012500Y023000
X012500Y022000
X012500Y021000
X012500Y020000
X012500Y019000
X012500Y018000
X012500Y017000
X015500Y017000
X015500Y018000
X015500Y019000
X015500Y020000
X015500Y021000
X015500Y022000
X015500Y023000
X021500Y023000
X021500Y022000
X021500Y021000
X021500Y020000
X021500Y019000
X021500Y018000
X021500Y017000
X024500Y017000
X024500Y018000
X024500Y019000
X024500Y020000
X024500Y021000
X024500Y022000
X024500Y023000
X021500Y032000
X021500Y031000
X021500Y030000
X021500Y029000
X021500Y028000
X021500Y027000
X021500Y026000
X024500Y026000
X024500Y027000
X024500Y028000
X024500Y029000
X024500Y030000
X024500Y031000
X024500Y032000
X012500Y032000
X012500Y031000
X012500Y030000
X012500Y029000
X012500Y028000
X012500Y027000
X012500Y026000
X015500Y026000
X015500Y027000
X015500Y028000
X015500Y029000
X015500Y030000
X015500Y031000
X015500Y032000
X028500Y023000
X028500Y024000
X003000Y005500
X003000Y006500
X003000Y008500
X003000Y009500
X003000Y002500
X003000Y003500
X003000Y000500
X003000Y001500
X012500Y003000
X012500Y002000
X012500Y001000
X012500Y000000
X012500Y-001000
X012500Y-002000
X012500Y-003000
X015500Y-003000
X015500Y-002000
X015500Y-001000
X015500Y000000
X015500Y001000
X015500Y002000
X015500Y003000
X021500Y003000
X021500Y002000
X021500Y001000
X021500Y000000
X021500Y-001000
X021500Y-002000
X021500Y-003000
X024500Y-003000
X024500Y-002000
X024500Y-001000
X024500Y000000
X024500Y001000
X024500Y002000
X024500Y003000
X021500Y012000
X021500Y011000
X021500Y010000
X021500Y009000
X021500Y008000
X021500Y007000
X021500Y006000
X024500Y006000
X024500Y007000
X024500Y008000
X024500Y009000
X024500Y010000
X024500Y011000
X024500Y012000
X012500Y012000
X012500Y011000
X012500Y010000
X012500Y009000
X012500Y008000
X012500Y007000
X012500Y006000
X015500Y006000
X015500Y007000
X015500Y008000
X015500Y009000
X015500Y010000
X015500Y011000
X015500Y012000
X028500Y003000
X028500Y004000
X035500Y045500
X035500Y046500
X035500Y048500
X035500Y049500
X035500Y042500
X035500Y043500
X035500Y040500
X035500Y041500
X045000Y043000
X045000Y042000
X045000Y041000
X045000Y040000
X045000Y039000
X045000Y038000
X045000Y037000
X048000Y037000
X048000Y038000
X048000Y039000
X048000Y040000
X048000Y041000
X048000Y042000
X048000Y043000
X054000Y043000
X054000Y042000
X054000Y041000
X054000Y040000
X054000Y039000
X054000Y038000
X054000Y037000
X057000Y037000
X057000Y038000
X057000Y039000
X057000Y040000
X057000Y041000
X057000Y042000
X057000Y043000
X054000Y052000
X054000Y051000
X054000Y050000
X054000Y049000
X054000Y048000
X054000Y047000
X054000Y046000
X057000Y046000
X057000Y047000
X057000Y048000
X057000Y049000
X057000Y050000
X057000Y051000
X057000Y052000
X045000Y052000
X045000Y051000
X045000Y050000
X045000Y049000
X045000Y048000
X045000Y047000
X045000Y046000
X048000Y046000
X048000Y047000
X048000Y048000
X048000Y049000
X048000Y050000
X048000Y051000
X048000Y052000
X061000Y043000
X061000Y044000
X035500Y025500
X035500Y026500
X035500Y028500
X035500Y029500
X035500Y022500
X035500Y023500
X035500Y020500
X035500Y021500
X045000Y023000
X045000Y022000
X045000Y021000
X045000Y020000
X045000Y019000
X045000Y018000
X045000Y017000
X048000Y017000
X048000Y018000
X048000Y019000
X048000Y020000
X048000Y021000
X048000Y022000
X048000Y023000
X054000Y023000
X054000Y022000
X054000Y021000
X054000Y020000
X054000Y019000
X054000Y018000
X054000Y017000
X057000Y017000
X057000Y018000
X057000Y019000
X057000Y020000
X057000Y021000
X057000Y022000
X057000Y023000
X054000Y032000
X054000Y031000
X054000Y030000
X054000Y029000
X054000Y028000
X054000Y027000
X054000Y026000
X057000Y026000
X057000Y027000
X057000Y028000
X057000Y029000
X057000Y030000
X057000Y031000
X057000Y032000
X045000Y032000
X045000Y031000
X045000Y030000
X045000Y029000
X045000Y028000
X045000Y027000
X045000Y026000
X048000Y026000
X048000Y027000
X048000Y028000
X048000Y029000
X048000Y030000
X048000Y031000
X048000Y032000
X061000Y023000
X061000Y024000
X035500Y005500
X035500Y006500
X035500Y008500
X035500Y009500
X035500Y002500
X035500Y003500
X035500Y000500
X035500Y001500
X045000Y003000
X045000Y002000
X045000Y001000
X045000Y000000
X045000Y-001000
X045000Y-002000
X045000Y-003000
X048000Y-003000
X048000Y-002000
X048000Y-001000
X048000Y000000
X048000Y001000
X048000Y002000
X048000Y003000
X054000Y003000
X054000Y002000
X054000Y001000
X054000Y000000
X054000Y-001000
X054000Y-002000
X054000Y-003000
X057000Y-003000
X057000Y-002000
X057000Y-001000
X057000Y000000
X057000Y001000
X057000Y002000
X057000Y003000
X054000Y012000
X054000Y011000
X054000Y010000
X054000Y009000
X054000Y008000
X054000Y007000
X054000Y006000
X057000Y006000
X057000Y007000
X057000Y008000
X057000Y009000
X057000Y010000
X057000Y011000
X057000Y012000
X045000Y012000
X045000Y011000
X045000Y010000
X045000Y009000
X045000Y008000
X045000Y007000
X045000Y006000
X048000Y006000
X048000Y007000
X048000Y008000
X048000Y009000
X048000Y010000
X048000Y011000
X048000Y012000
X061000Y003000
X061000Y004000
X009500Y-010000
X009500Y-009000
X010500Y-010000
X010500Y-009000
X011500Y-010000
X011500Y-009000
X012500Y-010000
X012500Y-009000
X013500Y-010000
X013500Y-009000
X014500Y-010000
X014500Y-009000
X015500Y-010000
X015500Y-009000
X016500Y-010000
X016500Y-009000
X017500Y-010000
X017500Y-009000
X022000Y-010000
X022000Y-009000
X023000Y-010000
X023000Y-009000
X024000Y-010000
X024000Y-009000
X025000Y-010000
X025000Y-009000
X026000Y-010000
X026000Y-009000
X027000Y-010000
X027000Y-009000
X028000Y-010000
X028000Y-009000
X029000Y-010000
X029000Y-009000
X030000Y-010000
X030000Y-009000
X000000Y-010000
X000000Y-009000
X001000Y-010000
X001000Y-009000
X002000Y-010000
X002000Y-009000
X003000Y-010000
X003000Y-009000
T02
X-022000Y047000
X-022000Y052000
X-025000Y052000
X-025000Y047000
X-025000Y042000
X-025000Y037000
X-022000Y037000
X-022000Y042000
X-002500Y037000
X-002500Y042000
X-005500Y042000
X-005500Y037000
X-014000Y051000
X-014000Y046000
X-014000Y042000
X-014000Y037000
X-005500Y051000
X-005500Y046000
X-002500Y046000
X-002500Y051000
X-022000Y027000
X-022000Y032000
X-025000Y032000
X-025000Y027000
X-025000Y022000
X-025000Y017000
X-022000Y017000
X-022000Y022000
X-002500Y017000
X-002500Y022000
X-005500Y022000
X-005500Y017000
X-014000Y031000
X-014000Y026000
X-014000Y022000
X-014000Y017000
X-005500Y031000
X-005500Y026000
X-002500Y026000
X-002500Y031000
X-022000Y007000
X-022000Y012000
X-025000Y012000
X-025000Y007000
X-025000Y002000
X-025000Y-003000
X-022000Y-003000
X-022000Y002000
X-002500Y-003000
X-002500Y002000
X-005500Y002000
X-005500Y-003000
X-014000Y011000
X-014000Y006000
X-014000Y002000
X-014000Y-003000
X-005500Y011000
X-005500Y006000
X-002500Y006000
X-002500Y011000
X010500Y047000
X010500Y052000
X007500Y052000
X007500Y047000
X007500Y042000
X007500Y037000
X010500Y037000
X010500Y042000
X030000Y037000
X030000Y042000
X027000Y042000
X027000Y037000
X018500Y051000
X018500Y046000
X018500Y042000
X018500Y037000
X027000Y051000
X027000Y046000
X030000Y046000
X030000Y051000
X010500Y027000
X010500Y032000
X007500Y032000
X007500Y027000
X007500Y022000
X007500Y017000
X010500Y017000
X010500Y022000
X030000Y017000
X030000Y022000
X027000Y022000
X027000Y017000
X018500Y031000
X018500Y026000
X018500Y022000
X018500Y017000
X027000Y031000
X027000Y026000
X030000Y026000
X030000Y031000
X010500Y007000
X010500Y012000
X007500Y012000
X007500Y007000
X007500Y002000
X007500Y-003000
X010500Y-003000
X010500Y002000
X030000Y-003000
X030000Y002000
X027000Y002000
X027000Y-003000
X018500Y011000
X018500Y006000
X018500Y002000
X018500Y-003000
X027000Y011000
X027000Y006000
X030000Y006000
X030000Y011000
X043000Y047000
X043000Y052000
X040000Y052000
X040000Y047000
X040000Y042000
X040000Y037000
X043000Y037000
X043000Y042000
X062500Y037000
X062500Y042000
X059500Y042000
X059500Y037000
X051000Y051000
X051000Y046000
X051000Y042000
X051000Y037000
X059500Y051000
X059500Y046000
X062500Y046000
X062500Y051000
X043000Y027000
X043000Y032000
X040000Y032000
X040000Y027000
X040000Y022000
X040000Y017000
X043000Y017000
X043000Y022000
X062500Y017000
X062500Y022000
X059500Y022000
X059500Y017000
X051000Y031000
X051000Y026000
X051000Y022000
X051000Y017000
X059500Y031000
X059500Y026000
X062500Y026000
X062500Y031000
X043000Y007000
X043000Y012000
X040000Y012000
X040000Y007000
X040000Y002000
X040000Y-003000
X043000Y-003000
X043000Y002000
X062500Y-003000
X062500Y002000
X059500Y002000
X059500Y-003000
X051000Y011000
X051000Y006000
X051000Y002000
X051000Y-003000
X059500Y011000
X059500Y006000
X062500Y006000
X062500Y011000
T03
X009348Y026848
X009348Y006848
X041848Y046848
X041848Y026848
X041848Y006848
X-023151Y046848
X-023151Y026848
X-023151Y006848
X009348Y046848
M30
