G04 FreePCB version 1.343*
G04 Z:\trinary\code\bb\CAM-dtflop\top_copper.grb*
G04 top copper layer *
G04 Scale: 100 percent, Rotated: No, Reflected: No *
%FSLAX24Y24*%
%MOIN*%
%LNTop*%
%ADD10C,0.005000*%
%ADD11R,0.050000X0.050000*%
%ADD12C,0.050000*%
%ADD13R,0.055000X0.055000*%
%ADD14C,0.055000*%
%ADD15C,0.075000*%
%ADD16C,0.010000*%
%ADD17C,0.028000*%
G90*
G70D02*

G04 Step and Repeat for panelization *

G04 ----------------------- Draw board outline (positive)*
%LPD*%
G54D10*
G01X-31000Y-12000D02*
G01X67000Y-12000D01*
G04 end of side 1*
G01X67000Y55000D01*
G04 end of side 2*
G01X-31000Y55000D01*
G04 end of side 3*
G01X-31000Y-12000D01*

G04 -------------- Draw Parts, Pads, Traces, Vias and Text (positive)*
%LPD*%
G04 Draw part Vclk_0*
G54D11*
G01X-29500Y45500D03*
G54D12*
G01X-29500Y46500D03*
G04 Draw part Vd_0*
G54D11*
G01X-29500Y48500D03*
G54D12*
G01X-29500Y49500D03*
G04 Draw part Vdd_0*
G54D11*
G01X-29500Y42500D03*
G54D12*
G01X-29500Y43500D03*
G04 Draw part Vss_0*
G54D11*
G01X-29500Y40500D03*
G54D12*
G01X-29500Y41500D03*
G04 Draw part X_IC_0_CD4007_0*
G54D13*
G01X-20000Y43000D03*
G54D14*
G01X-20000Y42000D03*
G01X-20000Y41000D03*
G01X-20000Y40000D03*
G01X-20000Y39000D03*
G01X-20000Y38000D03*
G01X-20000Y37000D03*
G01X-17000Y37000D03*
G01X-17000Y38000D03*
G01X-17000Y39000D03*
G01X-17000Y40000D03*
G01X-17000Y41000D03*
G01X-17000Y42000D03*
G01X-17000Y43000D03*
G04 Draw part X_IC_1_CD4007_0*
G54D13*
G01X-11000Y43000D03*
G54D14*
G01X-11000Y42000D03*
G01X-11000Y41000D03*
G01X-11000Y40000D03*
G01X-11000Y39000D03*
G01X-11000Y38000D03*
G01X-11000Y37000D03*
G01X-8000Y37000D03*
G01X-8000Y38000D03*
G01X-8000Y39000D03*
G01X-8000Y40000D03*
G01X-8000Y41000D03*
G01X-8000Y42000D03*
G01X-8000Y43000D03*
G04 Draw part X_IC_2_CD4007_0*
G54D13*
G01X-11000Y52000D03*
G54D14*
G01X-11000Y51000D03*
G01X-11000Y50000D03*
G01X-11000Y49000D03*
G01X-11000Y48000D03*
G01X-11000Y47000D03*
G01X-11000Y46000D03*
G01X-8000Y46000D03*
G01X-8000Y47000D03*
G01X-8000Y48000D03*
G01X-8000Y49000D03*
G01X-8000Y50000D03*
G01X-8000Y51000D03*
G01X-8000Y52000D03*
G04 Draw part X_IC_3_CD4016_0*
G54D13*
G01X-20000Y52000D03*
G54D14*
G01X-20000Y51000D03*
G01X-20000Y50000D03*
G01X-20000Y49000D03*
G01X-20000Y48000D03*
G01X-20000Y47000D03*
G01X-20000Y46000D03*
G01X-17000Y46000D03*
G01X-17000Y47000D03*
G01X-17000Y48000D03*
G01X-17000Y49000D03*
G01X-17000Y50000D03*
G01X-17000Y51000D03*
G01X-17000Y52000D03*
G04 Draw part RP2_0*
G54D15*
G01X-22000Y47000D03*
G01X-22000Y52000D03*
G04 Draw part RN2_0*
G01X-25000Y52000D03*
G01X-25000Y47000D03*
G04 Draw part RP4_0*
G01X-25000Y42000D03*
G01X-25000Y37000D03*
G04 Draw part RN4_0*
G01X-22000Y37000D03*
G01X-22000Y42000D03*
G04 Draw part RP3_0*
G01X-2500Y37000D03*
G01X-2500Y42000D03*
G04 Draw part RN3_0*
G01X-5500Y42000D03*
G01X-5500Y37000D03*
G04 Draw part RP1_0*
G01X-14000Y51000D03*
G01X-14000Y46000D03*
G04 Draw part RN1_0*
G01X-14000Y42000D03*
G01X-14000Y37000D03*
G04 Draw part RP5_0*
G01X-5500Y51000D03*
G01X-5500Y46000D03*
G04 Draw part RN5_0*
G01X-2500Y46000D03*
G01X-2500Y51000D03*
G04 Draw part Vq_0*
G54D11*
G01X-4000Y43000D03*
G54D12*
G01X-4000Y44000D03*
G04 Draw part Vclk_1*
G54D11*
G01X-29500Y25500D03*
G54D12*
G01X-29500Y26500D03*
G04 Draw part Vd_1*
G54D11*
G01X-29500Y28500D03*
G54D12*
G01X-29500Y29500D03*
G04 Draw part Vdd_1*
G54D11*
G01X-29500Y22500D03*
G54D12*
G01X-29500Y23500D03*
G04 Draw part Vss_1*
G54D11*
G01X-29500Y20500D03*
G54D12*
G01X-29500Y21500D03*
G04 Draw part X_IC_0_CD4007_1*
G54D13*
G01X-20000Y23000D03*
G54D14*
G01X-20000Y22000D03*
G01X-20000Y21000D03*
G01X-20000Y20000D03*
G01X-20000Y19000D03*
G01X-20000Y18000D03*
G01X-20000Y17000D03*
G01X-17000Y17000D03*
G01X-17000Y18000D03*
G01X-17000Y19000D03*
G01X-17000Y20000D03*
G01X-17000Y21000D03*
G01X-17000Y22000D03*
G01X-17000Y23000D03*
G04 Draw part X_IC_1_CD4007_1*
G54D13*
G01X-11000Y23000D03*
G54D14*
G01X-11000Y22000D03*
G01X-11000Y21000D03*
G01X-11000Y20000D03*
G01X-11000Y19000D03*
G01X-11000Y18000D03*
G01X-11000Y17000D03*
G01X-8000Y17000D03*
G01X-8000Y18000D03*
G01X-8000Y19000D03*
G01X-8000Y20000D03*
G01X-8000Y21000D03*
G01X-8000Y22000D03*
G01X-8000Y23000D03*
G04 Draw part X_IC_2_CD4007_1*
G54D13*
G01X-11000Y32000D03*
G54D14*
G01X-11000Y31000D03*
G01X-11000Y30000D03*
G01X-11000Y29000D03*
G01X-11000Y28000D03*
G01X-11000Y27000D03*
G01X-11000Y26000D03*
G01X-8000Y26000D03*
G01X-8000Y27000D03*
G01X-8000Y28000D03*
G01X-8000Y29000D03*
G01X-8000Y30000D03*
G01X-8000Y31000D03*
G01X-8000Y32000D03*
G04 Draw part X_IC_3_CD4016_1*
G54D13*
G01X-20000Y32000D03*
G54D14*
G01X-20000Y31000D03*
G01X-20000Y30000D03*
G01X-20000Y29000D03*
G01X-20000Y28000D03*
G01X-20000Y27000D03*
G01X-20000Y26000D03*
G01X-17000Y26000D03*
G01X-17000Y27000D03*
G01X-17000Y28000D03*
G01X-17000Y29000D03*
G01X-17000Y30000D03*
G01X-17000Y31000D03*
G01X-17000Y32000D03*
G04 Draw part RP2_1*
G54D15*
G01X-22000Y27000D03*
G01X-22000Y32000D03*
G04 Draw part RN2_1*
G01X-25000Y32000D03*
G01X-25000Y27000D03*
G04 Draw part RP4_1*
G01X-25000Y22000D03*
G01X-25000Y17000D03*
G04 Draw part RN4_1*
G01X-22000Y17000D03*
G01X-22000Y22000D03*
G04 Draw part RP3_1*
G01X-2500Y17000D03*
G01X-2500Y22000D03*
G04 Draw part RN3_1*
G01X-5500Y22000D03*
G01X-5500Y17000D03*
G04 Draw part RP1_1*
G01X-14000Y31000D03*
G01X-14000Y26000D03*
G04 Draw part RN1_1*
G01X-14000Y22000D03*
G01X-14000Y17000D03*
G04 Draw part RP5_1*
G01X-5500Y31000D03*
G01X-5500Y26000D03*
G04 Draw part RN5_1*
G01X-2500Y26000D03*
G01X-2500Y31000D03*
G04 Draw part Vq_1*
G54D11*
G01X-4000Y23000D03*
G54D12*
G01X-4000Y24000D03*
G04 Draw part Vclk_2*
G54D11*
G01X-29500Y5500D03*
G54D12*
G01X-29500Y6500D03*
G04 Draw part Vd_2*
G54D11*
G01X-29500Y8500D03*
G54D12*
G01X-29500Y9500D03*
G04 Draw part Vdd_2*
G54D11*
G01X-29500Y2500D03*
G54D12*
G01X-29500Y3500D03*
G04 Draw part Vss_2*
G54D11*
G01X-29500Y500D03*
G54D12*
G01X-29500Y1500D03*
G04 Draw part X_IC_0_CD4007_2*
G54D13*
G01X-20000Y3000D03*
G54D14*
G01X-20000Y2000D03*
G01X-20000Y1000D03*
G01X-20000Y0D03*
G01X-20000Y-1000D03*
G01X-20000Y-2000D03*
G01X-20000Y-3000D03*
G01X-17000Y-3000D03*
G01X-17000Y-2000D03*
G01X-17000Y-1000D03*
G01X-17000Y0D03*
G01X-17000Y1000D03*
G01X-17000Y2000D03*
G01X-17000Y3000D03*
G04 Draw part X_IC_1_CD4007_2*
G54D13*
G01X-11000Y3000D03*
G54D14*
G01X-11000Y2000D03*
G01X-11000Y1000D03*
G01X-11000Y0D03*
G01X-11000Y-1000D03*
G01X-11000Y-2000D03*
G01X-11000Y-3000D03*
G01X-8000Y-3000D03*
G01X-8000Y-2000D03*
G01X-8000Y-1000D03*
G01X-8000Y0D03*
G01X-8000Y1000D03*
G01X-8000Y2000D03*
G01X-8000Y3000D03*
G04 Draw part X_IC_2_CD4007_2*
G54D13*
G01X-11000Y12000D03*
G54D14*
G01X-11000Y11000D03*
G01X-11000Y10000D03*
G01X-11000Y9000D03*
G01X-11000Y8000D03*
G01X-11000Y7000D03*
G01X-11000Y6000D03*
G01X-8000Y6000D03*
G01X-8000Y7000D03*
G01X-8000Y8000D03*
G01X-8000Y9000D03*
G01X-8000Y10000D03*
G01X-8000Y11000D03*
G01X-8000Y12000D03*
G04 Draw part X_IC_3_CD4016_2*
G54D13*
G01X-20000Y12000D03*
G54D14*
G01X-20000Y11000D03*
G01X-20000Y10000D03*
G01X-20000Y9000D03*
G01X-20000Y8000D03*
G01X-20000Y7000D03*
G01X-20000Y6000D03*
G01X-17000Y6000D03*
G01X-17000Y7000D03*
G01X-17000Y8000D03*
G01X-17000Y9000D03*
G01X-17000Y10000D03*
G01X-17000Y11000D03*
G01X-17000Y12000D03*
G04 Draw part RP2_2*
G54D15*
G01X-22000Y7000D03*
G01X-22000Y12000D03*
G04 Draw part RN2_2*
G01X-25000Y12000D03*
G01X-25000Y7000D03*
G04 Draw part RP4_2*
G01X-25000Y2000D03*
G01X-25000Y-3000D03*
G04 Draw part RN4_2*
G01X-22000Y-3000D03*
G01X-22000Y2000D03*
G04 Draw part RP3_2*
G01X-2500Y-3000D03*
G01X-2500Y2000D03*
G04 Draw part RN3_2*
G01X-5500Y2000D03*
G01X-5500Y-3000D03*
G04 Draw part RP1_2*
G01X-14000Y11000D03*
G01X-14000Y6000D03*
G04 Draw part RN1_2*
G01X-14000Y2000D03*
G01X-14000Y-3000D03*
G04 Draw part RP5_2*
G01X-5500Y11000D03*
G01X-5500Y6000D03*
G04 Draw part RN5_2*
G01X-2500Y6000D03*
G01X-2500Y11000D03*
G04 Draw part Vq_2*
G54D11*
G01X-4000Y3000D03*
G54D12*
G01X-4000Y4000D03*
G04 Draw part Vclk_3*
G54D11*
G01X3000Y45500D03*
G54D12*
G01X3000Y46500D03*
G04 Draw part Vd_3*
G54D11*
G01X3000Y48500D03*
G54D12*
G01X3000Y49500D03*
G04 Draw part Vdd_3*
G54D11*
G01X3000Y42500D03*
G54D12*
G01X3000Y43500D03*
G04 Draw part Vss_3*
G54D11*
G01X3000Y40500D03*
G54D12*
G01X3000Y41500D03*
G04 Draw part X_IC_0_CD4007_3*
G54D13*
G01X12500Y43000D03*
G54D14*
G01X12500Y42000D03*
G01X12500Y41000D03*
G01X12500Y40000D03*
G01X12500Y39000D03*
G01X12500Y38000D03*
G01X12500Y37000D03*
G01X15500Y37000D03*
G01X15500Y38000D03*
G01X15500Y39000D03*
G01X15500Y40000D03*
G01X15500Y41000D03*
G01X15500Y42000D03*
G01X15500Y43000D03*
G04 Draw part X_IC_1_CD4007_3*
G54D13*
G01X21500Y43000D03*
G54D14*
G01X21500Y42000D03*
G01X21500Y41000D03*
G01X21500Y40000D03*
G01X21500Y39000D03*
G01X21500Y38000D03*
G01X21500Y37000D03*
G01X24500Y37000D03*
G01X24500Y38000D03*
G01X24500Y39000D03*
G01X24500Y40000D03*
G01X24500Y41000D03*
G01X24500Y42000D03*
G01X24500Y43000D03*
G04 Draw part X_IC_2_CD4007_3*
G54D13*
G01X21500Y52000D03*
G54D14*
G01X21500Y51000D03*
G01X21500Y50000D03*
G01X21500Y49000D03*
G01X21500Y48000D03*
G01X21500Y47000D03*
G01X21500Y46000D03*
G01X24500Y46000D03*
G01X24500Y47000D03*
G01X24500Y48000D03*
G01X24500Y49000D03*
G01X24500Y50000D03*
G01X24500Y51000D03*
G01X24500Y52000D03*
G04 Draw part X_IC_3_CD4016_3*
G54D13*
G01X12500Y52000D03*
G54D14*
G01X12500Y51000D03*
G01X12500Y50000D03*
G01X12500Y49000D03*
G01X12500Y48000D03*
G01X12500Y47000D03*
G01X12500Y46000D03*
G01X15500Y46000D03*
G01X15500Y47000D03*
G01X15500Y48000D03*
G01X15500Y49000D03*
G01X15500Y50000D03*
G01X15500Y51000D03*
G01X15500Y52000D03*
G04 Draw part RP2_3*
G54D15*
G01X10500Y47000D03*
G01X10500Y52000D03*
G04 Draw part RN2_3*
G01X7500Y52000D03*
G01X7500Y47000D03*
G04 Draw part RP4_3*
G01X7500Y42000D03*
G01X7500Y37000D03*
G04 Draw part RN4_3*
G01X10500Y37000D03*
G01X10500Y42000D03*
G04 Draw part RP3_3*
G01X30000Y37000D03*
G01X30000Y42000D03*
G04 Draw part RN3_3*
G01X27000Y42000D03*
G01X27000Y37000D03*
G04 Draw part RP1_3*
G01X18500Y51000D03*
G01X18500Y46000D03*
G04 Draw part RN1_3*
G01X18500Y42000D03*
G01X18500Y37000D03*
G04 Draw part RP5_3*
G01X27000Y51000D03*
G01X27000Y46000D03*
G04 Draw part RN5_3*
G01X30000Y46000D03*
G01X30000Y51000D03*
G04 Draw part Vq_3*
G54D11*
G01X28500Y43000D03*
G54D12*
G01X28500Y44000D03*
G04 Draw part Vclk_4*
G54D11*
G01X3000Y25500D03*
G54D12*
G01X3000Y26500D03*
G04 Draw part Vd_4*
G54D11*
G01X3000Y28500D03*
G54D12*
G01X3000Y29500D03*
G04 Draw part Vdd_4*
G54D11*
G01X3000Y22500D03*
G54D12*
G01X3000Y23500D03*
G04 Draw part Vss_4*
G54D11*
G01X3000Y20500D03*
G54D12*
G01X3000Y21500D03*
G04 Draw part X_IC_0_CD4007_4*
G54D13*
G01X12500Y23000D03*
G54D14*
G01X12500Y22000D03*
G01X12500Y21000D03*
G01X12500Y20000D03*
G01X12500Y19000D03*
G01X12500Y18000D03*
G01X12500Y17000D03*
G01X15500Y17000D03*
G01X15500Y18000D03*
G01X15500Y19000D03*
G01X15500Y20000D03*
G01X15500Y21000D03*
G01X15500Y22000D03*
G01X15500Y23000D03*
G04 Draw part X_IC_1_CD4007_4*
G54D13*
G01X21500Y23000D03*
G54D14*
G01X21500Y22000D03*
G01X21500Y21000D03*
G01X21500Y20000D03*
G01X21500Y19000D03*
G01X21500Y18000D03*
G01X21500Y17000D03*
G01X24500Y17000D03*
G01X24500Y18000D03*
G01X24500Y19000D03*
G01X24500Y20000D03*
G01X24500Y21000D03*
G01X24500Y22000D03*
G01X24500Y23000D03*
G04 Draw part X_IC_2_CD4007_4*
G54D13*
G01X21500Y32000D03*
G54D14*
G01X21500Y31000D03*
G01X21500Y30000D03*
G01X21500Y29000D03*
G01X21500Y28000D03*
G01X21500Y27000D03*
G01X21500Y26000D03*
G01X24500Y26000D03*
G01X24500Y27000D03*
G01X24500Y28000D03*
G01X24500Y29000D03*
G01X24500Y30000D03*
G01X24500Y31000D03*
G01X24500Y32000D03*
G04 Draw part X_IC_3_CD4016_4*
G54D13*
G01X12500Y32000D03*
G54D14*
G01X12500Y31000D03*
G01X12500Y30000D03*
G01X12500Y29000D03*
G01X12500Y28000D03*
G01X12500Y27000D03*
G01X12500Y26000D03*
G01X15500Y26000D03*
G01X15500Y27000D03*
G01X15500Y28000D03*
G01X15500Y29000D03*
G01X15500Y30000D03*
G01X15500Y31000D03*
G01X15500Y32000D03*
G04 Draw part RP2_4*
G54D15*
G01X10500Y27000D03*
G01X10500Y32000D03*
G04 Draw part RN2_4*
G01X7500Y32000D03*
G01X7500Y27000D03*
G04 Draw part RP4_4*
G01X7500Y22000D03*
G01X7500Y17000D03*
G04 Draw part RN4_4*
G01X10500Y17000D03*
G01X10500Y22000D03*
G04 Draw part RP3_4*
G01X30000Y17000D03*
G01X30000Y22000D03*
G04 Draw part RN3_4*
G01X27000Y22000D03*
G01X27000Y17000D03*
G04 Draw part RP1_4*
G01X18500Y31000D03*
G01X18500Y26000D03*
G04 Draw part RN1_4*
G01X18500Y22000D03*
G01X18500Y17000D03*
G04 Draw part RP5_4*
G01X27000Y31000D03*
G01X27000Y26000D03*
G04 Draw part RN5_4*
G01X30000Y26000D03*
G01X30000Y31000D03*
G04 Draw part Vq_4*
G54D11*
G01X28500Y23000D03*
G54D12*
G01X28500Y24000D03*
G04 Draw part Vclk_5*
G54D11*
G01X3000Y5500D03*
G54D12*
G01X3000Y6500D03*
G04 Draw part Vd_5*
G54D11*
G01X3000Y8500D03*
G54D12*
G01X3000Y9500D03*
G04 Draw part Vdd_5*
G54D11*
G01X3000Y2500D03*
G54D12*
G01X3000Y3500D03*
G04 Draw part Vss_5*
G54D11*
G01X3000Y500D03*
G54D12*
G01X3000Y1500D03*
G04 Draw part X_IC_0_CD4007_5*
G54D13*
G01X12500Y3000D03*
G54D14*
G01X12500Y2000D03*
G01X12500Y1000D03*
G01X12500Y0D03*
G01X12500Y-1000D03*
G01X12500Y-2000D03*
G01X12500Y-3000D03*
G01X15500Y-3000D03*
G01X15500Y-2000D03*
G01X15500Y-1000D03*
G01X15500Y0D03*
G01X15500Y1000D03*
G01X15500Y2000D03*
G01X15500Y3000D03*
G04 Draw part X_IC_1_CD4007_5*
G54D13*
G01X21500Y3000D03*
G54D14*
G01X21500Y2000D03*
G01X21500Y1000D03*
G01X21500Y0D03*
G01X21500Y-1000D03*
G01X21500Y-2000D03*
G01X21500Y-3000D03*
G01X24500Y-3000D03*
G01X24500Y-2000D03*
G01X24500Y-1000D03*
G01X24500Y0D03*
G01X24500Y1000D03*
G01X24500Y2000D03*
G01X24500Y3000D03*
G04 Draw part X_IC_2_CD4007_5*
G54D13*
G01X21500Y12000D03*
G54D14*
G01X21500Y11000D03*
G01X21500Y10000D03*
G01X21500Y9000D03*
G01X21500Y8000D03*
G01X21500Y7000D03*
G01X21500Y6000D03*
G01X24500Y6000D03*
G01X24500Y7000D03*
G01X24500Y8000D03*
G01X24500Y9000D03*
G01X24500Y10000D03*
G01X24500Y11000D03*
G01X24500Y12000D03*
G04 Draw part X_IC_3_CD4016_5*
G54D13*
G01X12500Y12000D03*
G54D14*
G01X12500Y11000D03*
G01X12500Y10000D03*
G01X12500Y9000D03*
G01X12500Y8000D03*
G01X12500Y7000D03*
G01X12500Y6000D03*
G01X15500Y6000D03*
G01X15500Y7000D03*
G01X15500Y8000D03*
G01X15500Y9000D03*
G01X15500Y10000D03*
G01X15500Y11000D03*
G01X15500Y12000D03*
G04 Draw part RP2_5*
G54D15*
G01X10500Y7000D03*
G01X10500Y12000D03*
G04 Draw part RN2_5*
G01X7500Y12000D03*
G01X7500Y7000D03*
G04 Draw part RP4_5*
G01X7500Y2000D03*
G01X7500Y-3000D03*
G04 Draw part RN4_5*
G01X10500Y-3000D03*
G01X10500Y2000D03*
G04 Draw part RP3_5*
G01X30000Y-3000D03*
G01X30000Y2000D03*
G04 Draw part RN3_5*
G01X27000Y2000D03*
G01X27000Y-3000D03*
G04 Draw part RP1_5*
G01X18500Y11000D03*
G01X18500Y6000D03*
G04 Draw part RN1_5*
G01X18500Y2000D03*
G01X18500Y-3000D03*
G04 Draw part RP5_5*
G01X27000Y11000D03*
G01X27000Y6000D03*
G04 Draw part RN5_5*
G01X30000Y6000D03*
G01X30000Y11000D03*
G04 Draw part Vq_5*
G54D11*
G01X28500Y3000D03*
G54D12*
G01X28500Y4000D03*
G04 Draw part Vclk_6*
G54D11*
G01X35500Y45500D03*
G54D12*
G01X35500Y46500D03*
G04 Draw part Vd_6*
G54D11*
G01X35500Y48500D03*
G54D12*
G01X35500Y49500D03*
G04 Draw part Vdd_6*
G54D11*
G01X35500Y42500D03*
G54D12*
G01X35500Y43500D03*
G04 Draw part Vss_6*
G54D11*
G01X35500Y40500D03*
G54D12*
G01X35500Y41500D03*
G04 Draw part X_IC_0_CD4007_6*
G54D13*
G01X45000Y43000D03*
G54D14*
G01X45000Y42000D03*
G01X45000Y41000D03*
G01X45000Y40000D03*
G01X45000Y39000D03*
G01X45000Y38000D03*
G01X45000Y37000D03*
G01X48000Y37000D03*
G01X48000Y38000D03*
G01X48000Y39000D03*
G01X48000Y40000D03*
G01X48000Y41000D03*
G01X48000Y42000D03*
G01X48000Y43000D03*
G04 Draw part X_IC_1_CD4007_6*
G54D13*
G01X54000Y43000D03*
G54D14*
G01X54000Y42000D03*
G01X54000Y41000D03*
G01X54000Y40000D03*
G01X54000Y39000D03*
G01X54000Y38000D03*
G01X54000Y37000D03*
G01X57000Y37000D03*
G01X57000Y38000D03*
G01X57000Y39000D03*
G01X57000Y40000D03*
G01X57000Y41000D03*
G01X57000Y42000D03*
G01X57000Y43000D03*
G04 Draw part X_IC_2_CD4007_6*
G54D13*
G01X54000Y52000D03*
G54D14*
G01X54000Y51000D03*
G01X54000Y50000D03*
G01X54000Y49000D03*
G01X54000Y48000D03*
G01X54000Y47000D03*
G01X54000Y46000D03*
G01X57000Y46000D03*
G01X57000Y47000D03*
G01X57000Y48000D03*
G01X57000Y49000D03*
G01X57000Y50000D03*
G01X57000Y51000D03*
G01X57000Y52000D03*
G04 Draw part X_IC_3_CD4016_6*
G54D13*
G01X45000Y52000D03*
G54D14*
G01X45000Y51000D03*
G01X45000Y50000D03*
G01X45000Y49000D03*
G01X45000Y48000D03*
G01X45000Y47000D03*
G01X45000Y46000D03*
G01X48000Y46000D03*
G01X48000Y47000D03*
G01X48000Y48000D03*
G01X48000Y49000D03*
G01X48000Y50000D03*
G01X48000Y51000D03*
G01X48000Y52000D03*
G04 Draw part RP2_6*
G54D15*
G01X43000Y47000D03*
G01X43000Y52000D03*
G04 Draw part RN2_6*
G01X40000Y52000D03*
G01X40000Y47000D03*
G04 Draw part RP4_6*
G01X40000Y42000D03*
G01X40000Y37000D03*
G04 Draw part RN4_6*
G01X43000Y37000D03*
G01X43000Y42000D03*
G04 Draw part RP3_6*
G01X62500Y37000D03*
G01X62500Y42000D03*
G04 Draw part RN3_6*
G01X59500Y42000D03*
G01X59500Y37000D03*
G04 Draw part RP1_6*
G01X51000Y51000D03*
G01X51000Y46000D03*
G04 Draw part RN1_6*
G01X51000Y42000D03*
G01X51000Y37000D03*
G04 Draw part RP5_6*
G01X59500Y51000D03*
G01X59500Y46000D03*
G04 Draw part RN5_6*
G01X62500Y46000D03*
G01X62500Y51000D03*
G04 Draw part Vq_6*
G54D11*
G01X61000Y43000D03*
G54D12*
G01X61000Y44000D03*
G04 Draw part Vclk_7*
G54D11*
G01X35500Y25500D03*
G54D12*
G01X35500Y26500D03*
G04 Draw part Vd_7*
G54D11*
G01X35500Y28500D03*
G54D12*
G01X35500Y29500D03*
G04 Draw part Vdd_7*
G54D11*
G01X35500Y22500D03*
G54D12*
G01X35500Y23500D03*
G04 Draw part Vss_7*
G54D11*
G01X35500Y20500D03*
G54D12*
G01X35500Y21500D03*
G04 Draw part X_IC_0_CD4007_7*
G54D13*
G01X45000Y23000D03*
G54D14*
G01X45000Y22000D03*
G01X45000Y21000D03*
G01X45000Y20000D03*
G01X45000Y19000D03*
G01X45000Y18000D03*
G01X45000Y17000D03*
G01X48000Y17000D03*
G01X48000Y18000D03*
G01X48000Y19000D03*
G01X48000Y20000D03*
G01X48000Y21000D03*
G01X48000Y22000D03*
G01X48000Y23000D03*
G04 Draw part X_IC_1_CD4007_7*
G54D13*
G01X54000Y23000D03*
G54D14*
G01X54000Y22000D03*
G01X54000Y21000D03*
G01X54000Y20000D03*
G01X54000Y19000D03*
G01X54000Y18000D03*
G01X54000Y17000D03*
G01X57000Y17000D03*
G01X57000Y18000D03*
G01X57000Y19000D03*
G01X57000Y20000D03*
G01X57000Y21000D03*
G01X57000Y22000D03*
G01X57000Y23000D03*
G04 Draw part X_IC_2_CD4007_7*
G54D13*
G01X54000Y32000D03*
G54D14*
G01X54000Y31000D03*
G01X54000Y30000D03*
G01X54000Y29000D03*
G01X54000Y28000D03*
G01X54000Y27000D03*
G01X54000Y26000D03*
G01X57000Y26000D03*
G01X57000Y27000D03*
G01X57000Y28000D03*
G01X57000Y29000D03*
G01X57000Y30000D03*
G01X57000Y31000D03*
G01X57000Y32000D03*
G04 Draw part X_IC_3_CD4016_7*
G54D13*
G01X45000Y32000D03*
G54D14*
G01X45000Y31000D03*
G01X45000Y30000D03*
G01X45000Y29000D03*
G01X45000Y28000D03*
G01X45000Y27000D03*
G01X45000Y26000D03*
G01X48000Y26000D03*
G01X48000Y27000D03*
G01X48000Y28000D03*
G01X48000Y29000D03*
G01X48000Y30000D03*
G01X48000Y31000D03*
G01X48000Y32000D03*
G04 Draw part RP2_7*
G54D15*
G01X43000Y27000D03*
G01X43000Y32000D03*
G04 Draw part RN2_7*
G01X40000Y32000D03*
G01X40000Y27000D03*
G04 Draw part RP4_7*
G01X40000Y22000D03*
G01X40000Y17000D03*
G04 Draw part RN4_7*
G01X43000Y17000D03*
G01X43000Y22000D03*
G04 Draw part RP3_7*
G01X62500Y17000D03*
G01X62500Y22000D03*
G04 Draw part RN3_7*
G01X59500Y22000D03*
G01X59500Y17000D03*
G04 Draw part RP1_7*
G01X51000Y31000D03*
G01X51000Y26000D03*
G04 Draw part RN1_7*
G01X51000Y22000D03*
G01X51000Y17000D03*
G04 Draw part RP5_7*
G01X59500Y31000D03*
G01X59500Y26000D03*
G04 Draw part RN5_7*
G01X62500Y26000D03*
G01X62500Y31000D03*
G04 Draw part Vq_7*
G54D11*
G01X61000Y23000D03*
G54D12*
G01X61000Y24000D03*
G04 Draw part Vclk_8*
G54D11*
G01X35500Y5500D03*
G54D12*
G01X35500Y6500D03*
G04 Draw part Vd_8*
G54D11*
G01X35500Y8500D03*
G54D12*
G01X35500Y9500D03*
G04 Draw part Vdd_8*
G54D11*
G01X35500Y2500D03*
G54D12*
G01X35500Y3500D03*
G04 Draw part Vss_8*
G54D11*
G01X35500Y500D03*
G54D12*
G01X35500Y1500D03*
G04 Draw part X_IC_0_CD4007_8*
G54D13*
G01X45000Y3000D03*
G54D14*
G01X45000Y2000D03*
G01X45000Y1000D03*
G01X45000Y0D03*
G01X45000Y-1000D03*
G01X45000Y-2000D03*
G01X45000Y-3000D03*
G01X48000Y-3000D03*
G01X48000Y-2000D03*
G01X48000Y-1000D03*
G01X48000Y0D03*
G01X48000Y1000D03*
G01X48000Y2000D03*
G01X48000Y3000D03*
G04 Draw part X_IC_1_CD4007_8*
G54D13*
G01X54000Y3000D03*
G54D14*
G01X54000Y2000D03*
G01X54000Y1000D03*
G01X54000Y0D03*
G01X54000Y-1000D03*
G01X54000Y-2000D03*
G01X54000Y-3000D03*
G01X57000Y-3000D03*
G01X57000Y-2000D03*
G01X57000Y-1000D03*
G01X57000Y0D03*
G01X57000Y1000D03*
G01X57000Y2000D03*
G01X57000Y3000D03*
G04 Draw part X_IC_2_CD4007_8*
G54D13*
G01X54000Y12000D03*
G54D14*
G01X54000Y11000D03*
G01X54000Y10000D03*
G01X54000Y9000D03*
G01X54000Y8000D03*
G01X54000Y7000D03*
G01X54000Y6000D03*
G01X57000Y6000D03*
G01X57000Y7000D03*
G01X57000Y8000D03*
G01X57000Y9000D03*
G01X57000Y10000D03*
G01X57000Y11000D03*
G01X57000Y12000D03*
G04 Draw part X_IC_3_CD4016_8*
G54D13*
G01X45000Y12000D03*
G54D14*
G01X45000Y11000D03*
G01X45000Y10000D03*
G01X45000Y9000D03*
G01X45000Y8000D03*
G01X45000Y7000D03*
G01X45000Y6000D03*
G01X48000Y6000D03*
G01X48000Y7000D03*
G01X48000Y8000D03*
G01X48000Y9000D03*
G01X48000Y10000D03*
G01X48000Y11000D03*
G01X48000Y12000D03*
G04 Draw part RP2_8*
G54D15*
G01X43000Y7000D03*
G01X43000Y12000D03*
G04 Draw part RN2_8*
G01X40000Y12000D03*
G01X40000Y7000D03*
G04 Draw part RP4_8*
G01X40000Y2000D03*
G01X40000Y-3000D03*
G04 Draw part RN4_8*
G01X43000Y-3000D03*
G01X43000Y2000D03*
G04 Draw part RP3_8*
G01X62500Y-3000D03*
G01X62500Y2000D03*
G04 Draw part RN3_8*
G01X59500Y2000D03*
G01X59500Y-3000D03*
G04 Draw part RP1_8*
G01X51000Y11000D03*
G01X51000Y6000D03*
G04 Draw part RN1_8*
G01X51000Y2000D03*
G01X51000Y-3000D03*
G04 Draw part RP5_8*
G01X59500Y11000D03*
G01X59500Y6000D03*
G04 Draw part RN5_8*
G01X62500Y6000D03*
G01X62500Y11000D03*
G04 Draw part Vq_8*
G54D11*
G01X61000Y3000D03*
G54D12*
G01X61000Y4000D03*
G04 Draw part INPUTS*
G54D11*
G01X9500Y-10000D03*
G54D12*
G01X9500Y-9000D03*
G01X10500Y-10000D03*
G01X10500Y-9000D03*
G01X11500Y-10000D03*
G01X11500Y-9000D03*
G01X12500Y-10000D03*
G01X12500Y-9000D03*
G01X13500Y-10000D03*
G01X13500Y-9000D03*
G01X14500Y-10000D03*
G01X14500Y-9000D03*
G01X15500Y-10000D03*
G01X15500Y-9000D03*
G01X16500Y-10000D03*
G01X16500Y-9000D03*
G01X17500Y-10000D03*
G01X17500Y-9000D03*
G04 Draw part OUTPUTS*
G54D11*
G01X22000Y-10000D03*
G54D12*
G01X22000Y-9000D03*
G01X23000Y-10000D03*
G01X23000Y-9000D03*
G01X24000Y-10000D03*
G01X24000Y-9000D03*
G01X25000Y-10000D03*
G01X25000Y-9000D03*
G01X26000Y-10000D03*
G01X26000Y-9000D03*
G01X27000Y-10000D03*
G01X27000Y-9000D03*
G01X28000Y-10000D03*
G01X28000Y-9000D03*
G01X29000Y-10000D03*
G01X29000Y-9000D03*
G01X30000Y-10000D03*
G01X30000Y-9000D03*
G04 Draw part POWER*
G54D11*
G01X0Y-10000D03*
G54D12*
G01X0Y-9000D03*
G01X1000Y-10000D03*
G01X1000Y-9000D03*
G01X2000Y-10000D03*
G01X2000Y-9000D03*
G01X3000Y-10000D03*
G01X3000Y-9000D03*

G04 Draw traces*
G54D16*
G01X43000Y12000D02*
G01X45000Y12000D01*
G01X40000Y12000D02*
G01X43000Y12000D01*
G01X40000Y2000D02*
G01X41000Y3000D01*
G01X41000Y3000D02*
G01X45000Y3000D01*
G01X12500Y30000D02*
G01X9348Y26848D01*
G54D17*
G01X9348Y26848D03*
G54D16*
G01X10500Y17000D02*
G01X11500Y18000D01*
G01X11500Y18000D02*
G01X12500Y18000D01*
G01X10500Y17000D02*
G01X7500Y17000D01*
G01X27000Y37000D02*
G01X24500Y37000D01*
G01X27000Y51000D02*
G01X24500Y51000D01*
G01X-20000Y8000D02*
G01X-22500Y5500D01*
G01X-22500Y5500D02*
G01X-29500Y5500D01*
G01X-17000Y11000D02*
G01X-13000Y7000D01*
G01X-13000Y7000D02*
G01X-11000Y7000D01*
G01X-17000Y11000D02*
G01X-20000Y8000D01*
G01X12500Y10000D02*
G01X9348Y6848D01*
G54D17*
G01X9348Y6848D03*
G54D16*
G01X10500Y-3000D02*
G01X11500Y-2000D01*
G01X11500Y-2000D02*
G01X12500Y-2000D01*
G01X10500Y-3000D02*
G01X7500Y-3000D01*
G01X27000Y17000D02*
G01X24500Y17000D01*
G01X27000Y31000D02*
G01X24500Y31000D01*
G01X12500Y48000D02*
G01X10000Y45500D01*
G01X10000Y45500D02*
G01X3000Y45500D01*
G01X15500Y51000D02*
G01X19500Y47000D01*
G01X19500Y47000D02*
G01X21500Y47000D01*
G01X15500Y51000D02*
G01X12500Y48000D01*
G01X-4000Y24000D02*
G01X-29000Y24000D01*
G01X-29000Y24000D02*
G01X-29500Y23500D01*
G01X45000Y50000D02*
G01X41848Y46848D01*
G54D17*
G01X41848Y46848D03*
G54D16*
G01X43000Y37000D02*
G01X44000Y38000D01*
G01X44000Y38000D02*
G01X45000Y38000D01*
G01X43000Y37000D02*
G01X40000Y37000D01*
G01X27000Y-3000D02*
G01X24500Y-3000D01*
G01X27000Y11000D02*
G01X24500Y11000D01*
G01X12500Y28000D02*
G01X10000Y25500D01*
G01X10000Y25500D02*
G01X3000Y25500D01*
G01X15500Y31000D02*
G01X19500Y27000D01*
G01X19500Y27000D02*
G01X21500Y27000D01*
G01X15500Y31000D02*
G01X12500Y28000D01*
G01X45000Y30000D02*
G01X41848Y26848D01*
G54D17*
G01X41848Y26848D03*
G54D16*
G01X43000Y17000D02*
G01X44000Y18000D01*
G01X44000Y18000D02*
G01X45000Y18000D01*
G01X43000Y17000D02*
G01X40000Y17000D01*
G01X59500Y37000D02*
G01X57000Y37000D01*
G01X59500Y51000D02*
G01X57000Y51000D01*
G01X12500Y8000D02*
G01X10000Y5500D01*
G01X10000Y5500D02*
G01X3000Y5500D01*
G01X15500Y11000D02*
G01X19500Y7000D01*
G01X19500Y7000D02*
G01X21500Y7000D01*
G01X15500Y11000D02*
G01X12500Y8000D01*
G01X-5500Y51000D02*
G01X-8000Y51000D01*
G01X45000Y10000D02*
G01X41848Y6848D01*
G54D17*
G01X41848Y6848D03*
G54D16*
G01X43000Y-3000D02*
G01X44000Y-2000D01*
G01X44000Y-2000D02*
G01X45000Y-2000D01*
G01X43000Y-3000D02*
G01X40000Y-3000D01*
G01X59500Y17000D02*
G01X57000Y17000D01*
G01X59500Y31000D02*
G01X57000Y31000D01*
G01X45000Y48000D02*
G01X42500Y45500D01*
G01X42500Y45500D02*
G01X35500Y45500D01*
G01X48000Y51000D02*
G01X52000Y47000D01*
G01X52000Y47000D02*
G01X54000Y47000D01*
G01X48000Y51000D02*
G01X45000Y48000D01*
G01X-14000Y17000D02*
G01X-12000Y19000D01*
G01X-12000Y19000D02*
G01X-11000Y19000D01*
G01X59500Y-3000D02*
G01X57000Y-3000D01*
G01X59500Y11000D02*
G01X57000Y11000D01*
G01X45000Y28000D02*
G01X42500Y25500D01*
G01X42500Y25500D02*
G01X35500Y25500D01*
G01X48000Y31000D02*
G01X52000Y27000D01*
G01X52000Y27000D02*
G01X54000Y27000D01*
G01X48000Y31000D02*
G01X45000Y28000D01*
G01X-14000Y-3000D02*
G01X-12000Y-1000D01*
G01X-12000Y-1000D02*
G01X-11000Y-1000D01*
G01X45000Y8000D02*
G01X42500Y5500D01*
G01X42500Y5500D02*
G01X35500Y5500D01*
G01X48000Y11000D02*
G01X52000Y7000D01*
G01X52000Y7000D02*
G01X54000Y7000D01*
G01X48000Y11000D02*
G01X45000Y8000D01*
G01X18500Y37000D02*
G01X20500Y39000D01*
G01X20500Y39000D02*
G01X21500Y39000D01*
G01X-5500Y46000D02*
G01X-6529Y44970D01*
G01X-6529Y44970D02*
G01X-19792Y44970D01*
G01X-19792Y44970D02*
G01X-20579Y45758D01*
G01X-20579Y45758D02*
G01X-20579Y46420D01*
G01X-20579Y46420D02*
G01X-20000Y47000D01*
G01X-17000Y50000D02*
G01X-20000Y47000D01*
G01X-2500Y46000D02*
G01X-5500Y46000D01*
G01X18500Y17000D02*
G01X20500Y19000D01*
G01X20500Y19000D02*
G01X21500Y19000D01*
G01X-5500Y26000D02*
G01X-6529Y24970D01*
G01X-6529Y24970D02*
G01X-19792Y24970D01*
G01X-19792Y24970D02*
G01X-20579Y25758D01*
G01X-20579Y25758D02*
G01X-20579Y26420D01*
G01X-20579Y26420D02*
G01X-20000Y27000D01*
G01X-17000Y30000D02*
G01X-20000Y27000D01*
G01X-2500Y26000D02*
G01X-5500Y26000D01*
G01X-25000Y42000D02*
G01X-24000Y43000D01*
G01X-24000Y43000D02*
G01X-20000Y43000D01*
G01X18500Y-3000D02*
G01X20500Y-1000D01*
G01X20500Y-1000D02*
G01X21500Y-1000D01*
G01X-5500Y6000D02*
G01X-6529Y4970D01*
G01X-6529Y4970D02*
G01X-19792Y4970D01*
G01X-19792Y4970D02*
G01X-20579Y5758D01*
G01X-20579Y5758D02*
G01X-20579Y6420D01*
G01X-20579Y6420D02*
G01X-20000Y7000D01*
G01X-17000Y10000D02*
G01X-20000Y7000D01*
G01X-2500Y6000D02*
G01X-5500Y6000D01*
G01X51000Y37000D02*
G01X53000Y39000D01*
G01X53000Y39000D02*
G01X54000Y39000D01*
G01X27000Y46000D02*
G01X25970Y44970D01*
G01X25970Y44970D02*
G01X12707Y44970D01*
G01X12707Y44970D02*
G01X11920Y45758D01*
G01X11920Y45758D02*
G01X11920Y46420D01*
G01X11920Y46420D02*
G01X12500Y47000D01*
G01X15500Y50000D02*
G01X12500Y47000D01*
G01X30000Y46000D02*
G01X27000Y46000D01*
G01X-5500Y37000D02*
G01X-8000Y37000D01*
G01X-20000Y40000D02*
G01X-28000Y40000D01*
G01X-28000Y40000D02*
G01X-29500Y41500D01*
G01X-11000Y37000D02*
G01X-11677Y36322D01*
G01X-11677Y36322D02*
G01X-19322Y36322D01*
G01X-19322Y36322D02*
G01X-20000Y37000D01*
G01X-20000Y46000D02*
G01X-19322Y45322D01*
G01X-19322Y45322D02*
G01X-11677Y45322D01*
G01X-11677Y45322D02*
G01X-11000Y46000D01*
G01X-20000Y20000D02*
G01X-28000Y20000D01*
G01X-28000Y20000D02*
G01X-29500Y21500D01*
G01X-11000Y17000D02*
G01X-11677Y16322D01*
G01X-11677Y16322D02*
G01X-19322Y16322D01*
G01X-19322Y16322D02*
G01X-20000Y17000D01*
G01X-20000Y26000D02*
G01X-19322Y25322D01*
G01X-19322Y25322D02*
G01X-11677Y25322D01*
G01X-11677Y25322D02*
G01X-11000Y26000D01*
G01X-20000Y0D02*
G01X-28000Y0D01*
G01X-28000Y0D02*
G01X-29500Y1500D01*
G01X-11000Y-3000D02*
G01X-11677Y-3677D01*
G01X-11677Y-3677D02*
G01X-19322Y-3677D01*
G01X-19322Y-3677D02*
G01X-20000Y-3000D01*
G01X-20000Y6000D02*
G01X-19322Y5322D01*
G01X-19322Y5322D02*
G01X-11677Y5322D01*
G01X-11677Y5322D02*
G01X-11000Y6000D01*
G01X12500Y40000D02*
G01X4500Y40000D01*
G01X4500Y40000D02*
G01X3000Y41500D01*
G01X21500Y37000D02*
G01X20822Y36322D01*
G01X20822Y36322D02*
G01X13177Y36322D01*
G01X13177Y36322D02*
G01X12500Y37000D01*
G01X12500Y46000D02*
G01X13177Y45322D01*
G01X13177Y45322D02*
G01X20822Y45322D01*
G01X20822Y45322D02*
G01X21500Y46000D01*
G01X12500Y20000D02*
G01X4500Y20000D01*
G01X4500Y20000D02*
G01X3000Y21500D01*
G01X21500Y17000D02*
G01X20822Y16322D01*
G01X20822Y16322D02*
G01X13177Y16322D01*
G01X13177Y16322D02*
G01X12500Y17000D01*
G01X12500Y26000D02*
G01X13177Y25322D01*
G01X13177Y25322D02*
G01X20822Y25322D01*
G01X20822Y25322D02*
G01X21500Y26000D01*
G01X12500Y0D02*
G01X4500Y0D01*
G01X4500Y0D02*
G01X3000Y1500D01*
G01X21500Y-3000D02*
G01X20822Y-3677D01*
G01X20822Y-3677D02*
G01X13177Y-3677D01*
G01X13177Y-3677D02*
G01X12500Y-3000D01*
G01X12500Y6000D02*
G01X13177Y5322D01*
G01X13177Y5322D02*
G01X20822Y5322D01*
G01X20822Y5322D02*
G01X21500Y6000D01*
G01X45000Y40000D02*
G01X37000Y40000D01*
G01X37000Y40000D02*
G01X35500Y41500D01*
G01X54000Y37000D02*
G01X53322Y36322D01*
G01X53322Y36322D02*
G01X45677Y36322D01*
G01X45677Y36322D02*
G01X45000Y37000D01*
G01X45000Y46000D02*
G01X45677Y45322D01*
G01X45677Y45322D02*
G01X53322Y45322D01*
G01X53322Y45322D02*
G01X54000Y46000D01*
G01X45000Y20000D02*
G01X37000Y20000D01*
G01X37000Y20000D02*
G01X35500Y21500D01*
G01X54000Y17000D02*
G01X53322Y16322D01*
G01X53322Y16322D02*
G01X45677Y16322D01*
G01X45677Y16322D02*
G01X45000Y17000D01*
G01X45000Y26000D02*
G01X45677Y25322D01*
G01X45677Y25322D02*
G01X53322Y25322D01*
G01X53322Y25322D02*
G01X54000Y26000D01*
G01X45000Y0D02*
G01X37000Y0D01*
G01X37000Y0D02*
G01X35500Y1500D01*
G01X54000Y-3000D02*
G01X53322Y-3677D01*
G01X53322Y-3677D02*
G01X45677Y-3677D01*
G01X45677Y-3677D02*
G01X45000Y-3000D01*
G01X45000Y6000D02*
G01X45677Y5322D01*
G01X45677Y5322D02*
G01X53322Y5322D01*
G01X53322Y5322D02*
G01X54000Y6000D01*
G01X-20000Y42000D02*
G01X-20675Y41324D01*
G01X-20675Y41324D02*
G01X-27774Y41324D01*
G01X-27774Y41324D02*
G01X-28950Y42500D01*
G01X-28950Y42500D02*
G01X-29500Y42500D01*
G01X-17000Y43000D02*
G01X-19000Y43000D01*
G01X-19000Y43000D02*
G01X-20000Y42000D01*
G01X-11000Y42000D02*
G01X-12000Y43000D01*
G01X-12000Y43000D02*
G01X-17000Y43000D01*
G01X-8000Y43000D02*
G01X-9000Y42000D01*
G01X-9000Y42000D02*
G01X-11000Y42000D01*
G01X-20000Y22000D02*
G01X-20675Y21324D01*
G01X-20675Y21324D02*
G01X-27774Y21324D01*
G01X-27774Y21324D02*
G01X-28950Y22500D01*
G01X-28950Y22500D02*
G01X-29500Y22500D01*
G01X-17000Y23000D02*
G01X-19000Y23000D01*
G01X-19000Y23000D02*
G01X-20000Y22000D01*
G01X-11000Y22000D02*
G01X-12000Y23000D01*
G01X-12000Y23000D02*
G01X-17000Y23000D01*
G01X-8000Y23000D02*
G01X-9000Y22000D01*
G01X-9000Y22000D02*
G01X-11000Y22000D01*
G01X-20000Y2000D02*
G01X-20675Y1324D01*
G01X-20675Y1324D02*
G01X-27774Y1324D01*
G01X-27774Y1324D02*
G01X-28950Y2500D01*
G01X-28950Y2500D02*
G01X-29500Y2500D01*
G01X-17000Y3000D02*
G01X-19000Y3000D01*
G01X-19000Y3000D02*
G01X-20000Y2000D01*
G01X-11000Y2000D02*
G01X-12000Y3000D01*
G01X-12000Y3000D02*
G01X-17000Y3000D01*
G01X-8000Y3000D02*
G01X-9000Y2000D01*
G01X-9000Y2000D02*
G01X-11000Y2000D01*
G01X12500Y42000D02*
G01X11824Y41324D01*
G01X11824Y41324D02*
G01X4725Y41324D01*
G01X4725Y41324D02*
G01X3550Y42500D01*
G01X3550Y42500D02*
G01X3000Y42500D01*
G01X15500Y43000D02*
G01X13500Y43000D01*
G01X13500Y43000D02*
G01X12500Y42000D01*
G01X21500Y42000D02*
G01X20500Y43000D01*
G01X20500Y43000D02*
G01X15500Y43000D01*
G01X24500Y43000D02*
G01X23500Y42000D01*
G01X23500Y42000D02*
G01X21500Y42000D01*
G01X12500Y22000D02*
G01X11824Y21324D01*
G01X11824Y21324D02*
G01X4725Y21324D01*
G01X4725Y21324D02*
G01X3550Y22500D01*
G01X3550Y22500D02*
G01X3000Y22500D01*
G01X15500Y23000D02*
G01X13500Y23000D01*
G01X13500Y23000D02*
G01X12500Y22000D01*
G01X21500Y22000D02*
G01X20500Y23000D01*
G01X20500Y23000D02*
G01X15500Y23000D01*
G01X24500Y23000D02*
G01X23500Y22000D01*
G01X23500Y22000D02*
G01X21500Y22000D01*
G01X12500Y2000D02*
G01X11824Y1324D01*
G01X11824Y1324D02*
G01X4725Y1324D01*
G01X4725Y1324D02*
G01X3550Y2500D01*
G01X3550Y2500D02*
G01X3000Y2500D01*
G01X15500Y3000D02*
G01X13500Y3000D01*
G01X13500Y3000D02*
G01X12500Y2000D01*
G01X21500Y2000D02*
G01X20500Y3000D01*
G01X20500Y3000D02*
G01X15500Y3000D01*
G01X24500Y3000D02*
G01X23500Y2000D01*
G01X23500Y2000D02*
G01X21500Y2000D01*
G01X45000Y42000D02*
G01X44324Y41324D01*
G01X44324Y41324D02*
G01X37225Y41324D01*
G01X37225Y41324D02*
G01X36050Y42500D01*
G01X36050Y42500D02*
G01X35500Y42500D01*
G01X48000Y43000D02*
G01X46000Y43000D01*
G01X46000Y43000D02*
G01X45000Y42000D01*
G01X54000Y42000D02*
G01X53000Y43000D01*
G01X53000Y43000D02*
G01X48000Y43000D01*
G01X57000Y43000D02*
G01X56000Y42000D01*
G01X56000Y42000D02*
G01X54000Y42000D01*
G01X45000Y22000D02*
G01X44324Y21324D01*
G01X44324Y21324D02*
G01X37225Y21324D01*
G01X37225Y21324D02*
G01X36050Y22500D01*
G01X36050Y22500D02*
G01X35500Y22500D01*
G01X48000Y23000D02*
G01X46000Y23000D01*
G01X46000Y23000D02*
G01X45000Y22000D01*
G01X54000Y22000D02*
G01X53000Y23000D01*
G01X53000Y23000D02*
G01X48000Y23000D01*
G01X57000Y23000D02*
G01X56000Y22000D01*
G01X56000Y22000D02*
G01X54000Y22000D01*
G01X45000Y2000D02*
G01X44324Y1324D01*
G01X44324Y1324D02*
G01X37225Y1324D01*
G01X37225Y1324D02*
G01X36050Y2500D01*
G01X36050Y2500D02*
G01X35500Y2500D01*
G01X48000Y3000D02*
G01X46000Y3000D01*
G01X46000Y3000D02*
G01X45000Y2000D01*
G01X54000Y2000D02*
G01X53000Y3000D01*
G01X53000Y3000D02*
G01X48000Y3000D01*
G01X57000Y3000D02*
G01X56000Y2000D01*
G01X56000Y2000D02*
G01X54000Y2000D01*
G01X-20000Y50000D02*
G01X-23151Y46848D01*
G54D17*
G01X-23151Y46848D03*
G54D16*
G01X-22000Y37000D02*
G01X-21000Y38000D01*
G01X-21000Y38000D02*
G01X-20000Y38000D01*
G01X-22000Y37000D02*
G01X-25000Y37000D01*
G01X51000Y17000D02*
G01X53000Y19000D01*
G01X53000Y19000D02*
G01X54000Y19000D01*
G01X27000Y26000D02*
G01X25970Y24970D01*
G01X25970Y24970D02*
G01X12707Y24970D01*
G01X12707Y24970D02*
G01X11920Y25758D01*
G01X11920Y25758D02*
G01X11920Y26420D01*
G01X11920Y26420D02*
G01X12500Y27000D01*
G01X15500Y30000D02*
G01X12500Y27000D01*
G01X30000Y26000D02*
G01X27000Y26000D01*
G01X-22000Y32000D02*
G01X-20000Y32000D01*
G01X-25000Y32000D02*
G01X-22000Y32000D01*
G01X-25000Y22000D02*
G01X-24000Y23000D01*
G01X-24000Y23000D02*
G01X-20000Y23000D01*
G01X51000Y-3000D02*
G01X53000Y-1000D01*
G01X53000Y-1000D02*
G01X54000Y-1000D01*
G01X27000Y6000D02*
G01X25970Y4970D01*
G01X25970Y4970D02*
G01X12707Y4970D01*
G01X12707Y4970D02*
G01X11920Y5758D01*
G01X11920Y5758D02*
G01X11920Y6420D01*
G01X11920Y6420D02*
G01X12500Y7000D01*
G01X15500Y10000D02*
G01X12500Y7000D01*
G01X30000Y6000D02*
G01X27000Y6000D01*
G01X-22000Y12000D02*
G01X-20000Y12000D01*
G01X-25000Y12000D02*
G01X-22000Y12000D01*
G01X-25000Y2000D02*
G01X-24000Y3000D01*
G01X-24000Y3000D02*
G01X-20000Y3000D01*
G01X59500Y46000D02*
G01X58470Y44970D01*
G01X58470Y44970D02*
G01X45207Y44970D01*
G01X45207Y44970D02*
G01X44420Y45758D01*
G01X44420Y45758D02*
G01X44420Y46420D01*
G01X44420Y46420D02*
G01X45000Y47000D01*
G01X48000Y50000D02*
G01X45000Y47000D01*
G01X62500Y46000D02*
G01X59500Y46000D01*
G01X10500Y52000D02*
G01X12500Y52000D01*
G01X7500Y52000D02*
G01X10500Y52000D01*
G01X7500Y42000D02*
G01X8500Y43000D01*
G01X8500Y43000D02*
G01X12500Y43000D01*
G01X59500Y26000D02*
G01X58470Y24970D01*
G01X58470Y24970D02*
G01X45207Y24970D01*
G01X45207Y24970D02*
G01X44420Y25758D01*
G01X44420Y25758D02*
G01X44420Y26420D01*
G01X44420Y26420D02*
G01X45000Y27000D01*
G01X48000Y30000D02*
G01X45000Y27000D01*
G01X62500Y26000D02*
G01X59500Y26000D01*
G01X10500Y32000D02*
G01X12500Y32000D01*
G01X7500Y32000D02*
G01X10500Y32000D01*
G01X7500Y22000D02*
G01X8500Y23000D01*
G01X8500Y23000D02*
G01X12500Y23000D01*
G01X59500Y6000D02*
G01X58470Y4970D01*
G01X58470Y4970D02*
G01X45207Y4970D01*
G01X45207Y4970D02*
G01X44420Y5758D01*
G01X44420Y5758D02*
G01X44420Y6420D01*
G01X44420Y6420D02*
G01X45000Y7000D01*
G01X48000Y10000D02*
G01X45000Y7000D01*
G01X62500Y6000D02*
G01X59500Y6000D01*
G01X10500Y12000D02*
G01X12500Y12000D01*
G01X7500Y12000D02*
G01X10500Y12000D01*
G01X7500Y2000D02*
G01X8500Y3000D01*
G01X8500Y3000D02*
G01X12500Y3000D01*
G01X-20000Y30000D02*
G01X-23151Y26848D01*
G54D17*
G01X-23151Y26848D03*
G54D16*
G01X-22000Y17000D02*
G01X-21000Y18000D01*
G01X-21000Y18000D02*
G01X-20000Y18000D01*
G01X-22000Y17000D02*
G01X-25000Y17000D01*
G01X-4000Y44000D02*
G01X-29000Y44000D01*
G01X-29000Y44000D02*
G01X-29500Y43500D01*
G01X-4000Y4000D02*
G01X-29000Y4000D01*
G01X-29000Y4000D02*
G01X-29500Y3500D01*
G01X28500Y44000D02*
G01X3500Y44000D01*
G01X3500Y44000D02*
G01X3000Y43500D01*
G01X28500Y24000D02*
G01X3500Y24000D01*
G01X3500Y24000D02*
G01X3000Y23500D01*
G01X28500Y4000D02*
G01X3500Y4000D01*
G01X3500Y4000D02*
G01X3000Y3500D01*
G01X61000Y44000D02*
G01X36000Y44000D01*
G01X36000Y44000D02*
G01X35500Y43500D01*
G01X61000Y24000D02*
G01X36000Y24000D01*
G01X36000Y24000D02*
G01X35500Y23500D01*
G01X61000Y4000D02*
G01X36000Y4000D01*
G01X36000Y4000D02*
G01X35500Y3500D01*
G01X43000Y52000D02*
G01X45000Y52000D01*
G01X40000Y52000D02*
G01X43000Y52000D01*
G01X40000Y42000D02*
G01X41000Y43000D01*
G01X41000Y43000D02*
G01X45000Y43000D01*
G01X-20000Y10000D02*
G01X-23151Y6848D01*
G54D17*
G01X-23151Y6848D03*
G54D16*
G01X-22000Y-3000D02*
G01X-21000Y-2000D01*
G01X-21000Y-2000D02*
G01X-20000Y-2000D01*
G01X-22000Y-3000D02*
G01X-25000Y-3000D01*
G01X-5500Y17000D02*
G01X-8000Y17000D01*
G01X-5500Y31000D02*
G01X-8000Y31000D01*
G01X-20000Y48000D02*
G01X-22500Y45500D01*
G01X-22500Y45500D02*
G01X-29500Y45500D01*
G01X-17000Y51000D02*
G01X-13000Y47000D01*
G01X-13000Y47000D02*
G01X-11000Y47000D01*
G01X-17000Y51000D02*
G01X-20000Y48000D01*
G01X43000Y32000D02*
G01X45000Y32000D01*
G01X40000Y32000D02*
G01X43000Y32000D01*
G01X40000Y22000D02*
G01X41000Y23000D01*
G01X41000Y23000D02*
G01X45000Y23000D01*
G01X12500Y50000D02*
G01X9348Y46848D01*
G54D17*
G01X9348Y46848D03*
G54D16*
G01X10500Y37000D02*
G01X11500Y38000D01*
G01X11500Y38000D02*
G01X12500Y38000D01*
G01X10500Y37000D02*
G01X7500Y37000D01*
G01X-5500Y-3000D02*
G01X-8000Y-3000D01*
G01X-5500Y11000D02*
G01X-8000Y11000D01*
G01X-20000Y28000D02*
G01X-22500Y25500D01*
G01X-22500Y25500D02*
G01X-29500Y25500D01*
G01X-17000Y31000D02*
G01X-13000Y27000D01*
G01X-13000Y27000D02*
G01X-11000Y27000D01*
G01X-17000Y31000D02*
G01X-20000Y28000D01*
G01X-22000Y52000D02*
G01X-20000Y52000D01*
G01X-25000Y52000D02*
G01X-22000Y52000D01*
G01X-14000Y37000D02*
G01X-12000Y39000D01*
G01X-12000Y39000D02*
G01X-11000Y39000D01*

G04 Draw Text*
M00*
M02*
